<svg width="40" height="40" viewBox="0 0 40 40" fill="none" xmlns="http://www.w3.org/2000/svg">
<path d="M19.3906 0.177156C18.8861 0.486982 18.8418 0.725991 18.8418 3.00985C18.8418 5.29371 18.8861 5.53272 19.3906 5.84254C19.9749 6.19663 20.7627 5.95762 21.0194 5.35567C21.1168 5.11666 21.1434 4.58553 21.1434 3.00985C21.1434 0.725991 21.0991 0.486982 20.5945 0.177156C20.4352 0.079783 20.1608 0.000113487 19.9926 0.000113487C19.8244 0.000113487 19.55 0.079783 19.3906 0.177156Z" fill="#FCFBF7"/>
<path d="M6.32432 5.57662C5.69581 5.77137 5.35943 6.46184 5.60729 7.05493C5.74893 7.40017 7.97967 9.71944 8.60818 10.1886C8.86489 10.3833 9.05078 10.4453 9.35176 10.4453C9.68814 10.4453 9.79436 10.4011 10.0865 10.1001C10.3875 9.80796 10.4317 9.70173 10.4317 9.36535C10.4317 9.06438 10.3698 8.87848 10.175 8.62177C9.7147 8.00212 7.38658 5.76252 7.04134 5.62088C6.6784 5.4704 6.68726 5.4704 6.32432 5.57662Z" fill="#FCFBF7"/>
<path d="M32.9166 5.62974C32.5979 5.77137 30.2432 8.03752 29.8094 8.62177C29.6147 8.87848 29.5527 9.06438 29.5527 9.36535C29.5527 9.70173 29.597 9.80796 29.898 10.1001C30.1901 10.4011 30.2963 10.4453 30.6327 10.4453C31.1638 10.4453 31.4117 10.2506 33.0139 8.62177C34.4126 7.19657 34.5808 6.931 34.4126 6.33791C34.3329 6.03694 33.8903 5.57662 33.6867 5.57662C33.6247 5.57662 33.5008 5.55892 33.4034 5.53236C33.3061 5.50581 33.0847 5.55007 32.9166 5.62974Z" fill="#FCFBF7"/>
<path d="M18.9119 10.6237C17.5133 10.8007 15.9022 11.4027 14.7071 12.1905C14.0698 12.6154 13.0075 13.6069 12.5118 14.2531C11.2194 15.9438 10.582 17.8559 10.582 20.007C10.582 22.6892 11.5823 25.0084 13.5387 26.8674C16.2474 29.4345 20.3371 30.1604 23.7186 28.6732C26.8789 27.2923 28.9768 24.4153 29.384 20.9364C29.623 18.865 29.0388 16.5812 27.7995 14.7045C27.3569 14.0318 26.2858 12.9252 25.5687 12.3941C24.9225 11.9161 23.6744 11.261 22.9574 11.0309C21.7712 10.6591 20.0538 10.482 18.9119 10.6237ZM21.1427 16.5989V18.8562H23.4H25.6573V20.007V21.1577H23.4H21.1427V23.415V25.6724H19.9919H18.8411V23.415V21.1577H16.5838H14.3265V20.007V18.8562H16.5838H18.8411V16.5989V14.3416H19.9919H21.1427V16.5989Z" fill="#FCFBF7"/>
<path d="M0.63294 18.9875C0.0398456 19.2442 -0.181458 20.032 0.163776 20.6074C0.473602 21.112 0.71261 21.1562 2.99647 21.1562C5.28033 21.1562 5.51933 21.112 5.82916 20.6074C6.18325 20.0232 5.94424 19.2353 5.34229 18.9786C4.90854 18.8016 1.04899 18.8016 0.63294 18.9875Z" fill="#FCFBF7"/>
<path d="M34.6251 18.9875C34.032 19.2442 33.8107 20.032 34.156 20.6074C34.4658 21.112 34.7048 21.1562 36.9887 21.1562C39.2725 21.1562 39.5115 21.112 39.8213 20.6074C40.1754 20.0232 39.9364 19.2353 39.3345 18.9786C38.9007 18.8016 35.0412 18.8016 34.6251 18.9875Z" fill="#FCFBF7"/>
<path d="M8.60835 29.8233C7.97984 30.2925 5.7491 32.6117 5.60747 32.957C5.25338 33.8068 6.05007 34.6654 6.95299 34.4176C7.20085 34.3468 7.60805 34.0104 8.60835 33.0278C10.2371 31.4255 10.4319 31.1777 10.4319 30.6466C10.4319 30.3102 10.3876 30.204 10.0867 29.9118C9.79454 29.6109 9.68831 29.5666 9.35193 29.5666C9.05096 29.5666 8.86506 29.6286 8.60835 29.8233Z" fill="#FCFBF7"/>
<path d="M29.898 29.9119C29.597 30.204 29.5527 30.3102 29.5527 30.6466C29.5527 31.1777 29.7475 31.4256 31.3763 33.0278C32.3677 34.0016 32.7838 34.3468 33.0316 34.4176C33.8991 34.6566 34.6427 33.913 34.4037 33.0455C34.3329 32.7977 33.9965 32.3905 33.0139 31.3902C31.4117 29.7614 31.1638 29.5666 30.6327 29.5666C30.2963 29.5666 30.1901 29.6109 29.898 29.9119Z" fill="#FCFBF7"/>
<path d="M19.3906 34.1693C18.8861 34.4792 18.8418 34.7182 18.8418 37.002C18.8418 38.5777 18.8684 39.1089 18.9657 39.3479C19.2224 39.9498 20.0103 40.1888 20.5945 39.8347C21.0991 39.5249 21.1434 39.2859 21.1434 37.002C21.1434 34.7182 21.0991 34.4792 20.5945 34.1693C20.4352 34.072 20.1608 33.9923 19.9926 33.9923C19.8244 33.9923 19.55 34.072 19.3906 34.1693Z" fill="#FCFBF7"/>
</svg>
