<svg width="40" height="36" viewBox="0 0 40 36" fill="none" xmlns="http://www.w3.org/2000/svg">
<path d="M4.33319 0.130068C3.83709 0.3568 2.0964 2.20554 1.55679 3.08631C-0.993319 7.2111 -0.366671 12.3039 3.11471 15.7833C3.99376 16.6728 4.38541 16.917 4.89891 16.917C5.74315 16.917 6.3785 16.0798 6.16091 15.2688C6.06518 14.92 6.03907 14.8851 5.03817 13.9084C3.39322 12.3213 2.6012 10.333 2.70565 8.11803C2.76657 6.9146 2.91453 6.32161 3.41933 5.27515C3.88932 4.29846 4.45504 3.5485 5.3602 2.70261C6.21314 1.90033 6.36109 1.55151 6.1261 0.914911C5.83889 0.173672 5.02947 -0.175148 4.33319 0.130068Z" fill="#FCFBF7"/>
<path d="M18.6074 0.165819C16.536 0.619284 14.9345 1.90119 13.9946 3.83714C13.3418 5.20626 13.3418 5.16265 13.3418 11.5984C13.3418 16.7783 13.3592 17.3713 13.4985 17.973C13.6812 18.7666 14.1251 19.7259 14.6473 20.4584C15.9963 22.342 18.4942 23.4321 20.7832 23.1268C22.2715 22.9263 23.4639 22.3682 24.5344 21.3827C25.6311 20.3712 26.4057 18.8887 26.6059 17.4149C26.7364 16.4993 26.7364 6.70618 26.6059 5.79053C26.5536 5.42427 26.4057 4.81384 26.2751 4.44757C25.5527 2.39826 23.812 0.802414 21.6971 0.226862C20.8616 0.0001297 19.4777 -0.0260315 18.6074 0.165819ZM21.6884 3.07846C22.846 3.62785 23.6641 4.65687 23.9165 5.88645C23.9774 6.18295 24.0035 8.18866 23.9861 11.8687L23.96 17.3975L23.7598 17.8946C22.8373 20.188 20.2001 21.156 18.0591 19.9875C17.1191 19.4817 16.3184 18.3742 16.0921 17.2841C16.0312 16.9789 15.9963 15.0604 15.9963 11.5722C15.9963 5.86029 16.0138 5.65972 16.4924 4.77895C16.7797 4.247 17.4411 3.5668 17.9633 3.26159C18.6857 2.83429 19.2601 2.69476 20.1914 2.72964C20.9399 2.7558 21.0966 2.7994 21.6884 3.07846Z" fill="#FCFBF7"/>
<path d="M34.5603 0.174629C34.0816 0.392641 33.8379 0.785063 33.8379 1.35189C33.8379 1.89256 33.9336 2.03209 34.8649 2.92158C36.0834 4.0814 36.8754 5.4854 37.1974 7.03765C37.415 8.05794 37.328 9.66251 37.0146 10.6392C36.5534 12.0781 35.9441 13.0112 34.6821 14.232L33.8901 14.982L33.864 15.4965C33.8379 15.8977 33.864 16.0633 34.0033 16.2901C34.3949 16.9005 35.2217 17.1098 35.8397 16.7348C36.301 16.4558 37.7457 14.9384 38.207 14.2495C39.3472 12.5315 39.9042 10.8572 39.9912 8.85151C40.1131 5.94759 38.9642 3.14831 36.771 1.02924C36.0573 0.340319 35.5177 0.000219345 35.1347 0.000219345C35.0216 0.000219345 34.7605 0.0787048 34.5603 0.174629Z" fill="#FCFBF7"/>
<path d="M8.72832 2.84239C8.05815 3.18248 6.90059 4.56904 6.4219 5.58934C5.83007 6.87125 5.6473 8.58046 5.95192 9.96702C6.34357 11.7286 7.9276 13.9174 9.02423 14.2139C9.64218 14.3796 10.2601 14.0656 10.5299 13.4552C10.8171 12.8012 10.7127 12.4872 9.85976 11.589C9.02423 10.7083 8.65869 10.0368 8.50203 9.08625C8.28444 7.75202 8.76313 6.43522 9.85106 5.3626C10.5996 4.62136 10.7649 4.26382 10.6083 3.70571C10.4864 3.26969 10.3733 3.12144 9.99032 2.88599C9.63347 2.66798 9.09386 2.65054 8.72832 2.84239Z" fill="#FCFBF7"/>
<path d="M30.0512 2.86881C29.6682 3.10427 29.4767 3.34844 29.3984 3.69726C29.2765 4.26409 29.4158 4.57803 30.1643 5.35415C32.0616 7.3337 32.0529 9.67079 30.1382 11.6155C29.6856 12.0776 29.4767 12.3654 29.4071 12.6096C29.146 13.595 30.0947 14.5107 31.0433 14.188C32.0268 13.8479 33.3149 12.2433 33.8459 10.7085C34.7336 8.1011 34.0634 5.42391 32.0181 3.44437C31.7744 3.20019 31.4437 2.93858 31.2957 2.85137C30.9302 2.65952 30.3819 2.65952 30.0512 2.86881Z" fill="#FCFBF7"/>
<path d="M9.20701 17.1092C8.44111 17.5017 8.26704 18.2952 8.55425 20.1701C8.88498 22.3677 9.85107 24.199 11.5134 25.8036C13.2976 27.5128 15.7085 28.5156 18.0671 28.5156H18.6938V30.7306V32.9544L15.7868 32.9805L12.8799 33.0067L12.5404 33.277C12.1401 33.5997 11.9399 34.0967 12.0269 34.5589C12.1053 34.9862 12.5317 35.4659 12.9321 35.5792C13.1497 35.649 15.4822 35.6664 20.1908 35.649C27.0665 35.6228 27.1274 35.6228 27.3711 35.4397C28.2153 34.8118 28.2153 33.8177 27.3711 33.1898C27.1361 33.0154 27.0056 33.0067 24.2118 32.9805L21.3048 32.9544L21.3222 30.7568L21.3483 28.5592L22.3492 28.4982C27.5017 28.1755 31.5749 23.8763 31.5749 18.7749C31.5749 17.6674 31.3051 17.2052 30.5218 16.9959C30.1475 16.9 30.0866 16.9087 29.6949 17.1005C29.077 17.4057 28.8768 17.8418 28.8768 18.8621C28.8768 20.6498 28.1892 22.3067 26.8837 23.6583C25.9089 24.6786 24.7949 25.3152 23.4459 25.6379C22.8279 25.7948 22.4188 25.8123 19.9993 25.8123C17.8669 25.8123 17.1359 25.7774 16.7007 25.6815C14.4987 25.1582 12.7319 23.7281 11.7832 21.7049C11.3568 20.798 11.2088 20.1789 11.1305 18.9231C11.0608 17.7371 10.9999 17.5627 10.5735 17.2313C10.147 16.9087 9.6857 16.8651 9.20701 17.1092Z" fill="#FCFBF7"/>
</svg>
