<svg width="33" height="35" viewBox="0 0 33 35" fill="none" xmlns="http://www.w3.org/2000/svg">
<path d="M1.96256 0.116823C0.846744 0.530552 0.157197 1.38308 0.044362 2.48636C-0.106085 3.9156 -0.281605 3.68993 6.95237 10.9615C10.5506 14.5722 13.8102 17.7943 14.1989 18.1203C15.1517 18.9352 15.9416 19.1233 17.0072 18.8098C17.7469 18.5967 17.772 18.5716 24.7928 11.5633C30.1713 6.18484 31.9014 4.37948 32.0895 3.95321C32.7164 2.58666 32.1522 0.994429 30.8107 0.292345C30.1462 -0.0586967 28.9803 -0.0712337 28.3409 0.242195C28.1027 0.367569 25.2693 3.10068 22.0472 6.31021L16.1798 12.1651L10.3249 6.31021C7.09028 3.10068 4.28194 0.380106 4.06881 0.279808C3.47956 -0.0210857 2.52673 -0.0837727 1.96256 0.116823Z" fill="#FCFBF7"/>
<path d="M1.96256 16.1637C0.846744 16.5774 0.157197 17.43 0.044362 18.5332C-0.106085 19.9625 -0.281605 19.7368 6.95237 27.0084C10.5506 30.6191 13.8102 33.8412 14.1989 34.1672C15.1517 34.9821 15.9416 35.1701 17.0072 34.8567C17.7469 34.6436 17.772 34.6185 24.7928 27.6102C30.1713 22.2317 31.9014 20.4264 32.0895 20.0001C32.7164 18.6335 32.1522 17.0413 30.8107 16.3392C30.1462 15.9882 28.9803 15.9756 28.3409 16.2891C28.1027 16.4144 25.2693 19.1476 22.0472 22.3571L16.1798 28.212L10.3249 22.3571C7.09028 19.1476 4.28194 16.427 4.06881 16.3267C3.47956 16.0258 2.52673 15.9631 1.96256 16.1637Z" fill="#FCFBF7"/>
</svg>
