<svg width="40" height="40" viewBox="0 0 40 40" fill="none" xmlns="http://www.w3.org/2000/svg">
<path d="M17.7276 0.12973C14.8979 0.618125 12.6701 1.74221 10.7237 3.66478C8.58966 5.7734 7.38586 8.35492 7.01065 11.6807C6.95593 12.1148 6.93248 12.4791 6.94811 12.5024C6.97156 12.5179 7.31551 12.4094 7.72199 12.2543C9.43389 11.6186 10.9895 11.3551 13.0375 11.3551C15.4607 11.3551 17.3837 11.7582 19.4864 12.6962L20.0258 12.9365L20.5183 12.704C22.363 11.8047 24.5283 11.3551 26.9516 11.3551C28.9996 11.3551 30.5551 11.6186 32.2671 12.2543C32.6735 12.4094 33.0175 12.5179 33.0409 12.5024C33.0956 12.4481 32.9002 10.9287 32.7282 10.1147C32.3921 8.44794 31.6573 6.72693 30.6959 5.31602C29.9923 4.29271 28.5384 2.87404 27.4753 2.16858C26.0292 1.21505 24.4892 0.579364 22.7148 0.207253C21.5657 -0.0330677 18.9158 -0.0718298 17.7276 0.12973Z" fill="#FCFBF7"/>
<path d="M11.7878 13.6731C11.6783 13.6886 11.3266 13.7428 11.0061 13.7894C9.90391 13.9522 8.39525 14.4173 7.51976 14.8592L7.12109 15.0607L7.22271 15.5646C7.55884 17.1616 8.48905 19.185 9.50525 20.5261C10.1619 21.3866 11.819 23.0456 11.9441 22.9681C11.991 22.9371 12.0223 22.8595 12.0223 22.7898C12.0223 22.5495 12.6242 20.875 12.976 20.1307C13.8905 18.2004 15.3288 16.3321 16.9626 14.9677L17.5879 14.4406L17.3378 14.3398C16.8219 14.1305 15.6337 13.8514 14.7738 13.7428C13.9843 13.6421 12.3037 13.6033 11.7878 13.6731Z" fill="#FCFBF7"/>
<path d="M25.193 13.7351C24.3019 13.8591 23.7859 13.9754 23.0121 14.2235L22.3867 14.425L22.7776 14.7429C24.4816 16.1383 25.92 17.9368 26.8736 19.8749C27.3114 20.7509 27.968 22.4952 27.968 22.7898C27.968 22.8595 27.9993 22.9371 28.0462 22.9681C28.1712 23.0456 29.8284 21.3866 30.485 20.5261C31.5012 19.185 32.4236 17.1771 32.7676 15.5646L32.877 15.0607L32.2047 14.7351C31.4465 14.3708 30.2271 13.9987 29.1796 13.8126C28.2259 13.6498 26.0841 13.6033 25.193 13.7351Z" fill="#FCFBF7"/>
<path d="M19.1728 16.1614C16.7574 17.9445 14.9439 20.6423 14.2482 23.4874C14.1387 23.9215 14.0527 24.3091 14.0527 24.3324C14.0527 24.3556 14.3341 24.5107 14.6703 24.6657C17.8986 26.1231 22.0885 26.1231 25.3169 24.6657C25.653 24.5107 25.9344 24.3556 25.9344 24.3324C25.9344 24.0998 25.481 22.5183 25.2309 21.8981C24.5508 20.1771 23.6128 18.7662 22.2605 17.4251C21.4006 16.5723 20.2125 15.642 19.9858 15.642C19.9232 15.642 19.5558 15.8746 19.1728 16.1614Z" fill="#FCFBF7"/>
<path d="M3.8214 17.4796C2.35182 18.9448 1.48415 20.2472 0.788443 22.0225C-1.13451 26.9762 0.553936 33.0927 4.82978 36.6045C6.71365 38.155 8.88675 39.124 11.1849 39.4341C12.0604 39.5582 13.9599 39.5349 14.8667 39.4031C15.7031 39.2791 17.1023 38.938 17.3994 38.7829L17.587 38.6977L17.2821 38.4728C16.7193 38.0465 15.5233 36.8449 14.9214 36.1006C12.7405 33.4261 11.5523 30.0771 11.5523 26.6273V25.604L10.9113 25.1234C8.78513 23.5652 7.12795 21.5728 6.0414 19.2549C5.69745 18.5339 5.06429 16.7586 5.06429 16.5338C5.06429 16.4718 5.0252 16.4175 4.9783 16.4175C4.9314 16.4175 4.40767 16.8982 3.8214 17.4796Z" fill="#FCFBF7"/>
<path d="M34.925 16.5334C34.925 16.7582 34.2919 18.5335 33.9479 19.2544C32.8692 21.5569 31.1182 23.6577 29.0545 25.1539L28.4605 25.5881L28.4135 27.0688C28.3823 28.2394 28.3276 28.751 28.1634 29.5185C27.6475 31.976 26.5922 34.2241 25.0835 36.1002C24.5364 36.7746 23.27 38.0383 22.6916 38.4879L22.3867 38.7282L23.0199 38.9298C24.2706 39.3174 25.107 39.4492 26.6 39.4957C29.1171 39.5732 30.743 39.2166 32.9004 38.1158C37.6609 35.6738 40.6001 30.0766 39.8966 24.7896C39.5135 21.9522 38.341 19.6498 36.1757 17.4792C35.5895 16.8977 35.0657 16.4171 35.0188 16.4171C34.9641 16.4171 34.925 16.4714 34.925 16.5334Z" fill="#FCFBF7"/>
<path d="M13.9203 27.6275C14.0688 30.0152 15.1319 32.682 16.6953 34.6356C17.6099 35.7674 19.6188 37.5039 20.0175 37.5039C20.3536 37.5039 22.3313 35.7984 23.1521 34.7984C24.8405 32.7362 25.9115 30.1005 26.0678 27.6275C26.1147 26.891 26.1069 26.86 25.9662 26.9143C25.888 26.9453 25.4034 27.1158 24.8953 27.2786C21.7138 28.3484 18.204 28.3407 15.0929 27.2709C14.5848 27.1003 14.1001 26.9375 14.0219 26.9065C13.8812 26.86 13.8734 26.891 13.9203 27.6275Z" fill="#FCFBF7"/>
</svg>
