<svg width="40" height="35" viewBox="0 0 40 35" fill="none" xmlns="http://www.w3.org/2000/svg">
<path d="M24.2031 0.161907C23.6719 0.433086 23.5938 0.712011 23.5938 2.32358C23.5938 3.571 23.6094 3.75695 23.75 4.02813C23.9297 4.37678 24.375 4.64796 24.7656 4.64796C25.1562 4.64796 25.6016 4.37678 25.7812 4.02813C25.9062 3.78794 25.9375 3.571 25.9375 3.0209V2.32358H28.2812H30.625V12.7833V23.243H29.9219C29.3672 23.243 29.1484 23.274 28.9062 23.398C28.5547 23.5762 28.2812 24.0178 28.2812 24.4052C28.2812 24.7926 28.5547 25.2342 28.9062 25.4124C29.1953 25.5596 29.3594 25.5674 31.7969 25.5674C34.2344 25.5674 34.3984 25.5596 34.6875 25.4124C35.0391 25.2342 35.3125 24.7926 35.3125 24.4052C35.3125 24.0178 35.0391 23.5762 34.6875 23.398C34.4453 23.274 34.2266 23.243 33.6719 23.243H32.9688V12.7833V2.32358H35.3125H37.6562V3.0209C37.6562 3.571 37.6875 3.78794 37.8125 4.02813C37.9922 4.37678 38.4375 4.64796 38.8281 4.64796C39.2188 4.64796 39.6641 4.37678 39.8438 4.02813C39.9844 3.75695 40 3.571 40 2.32358C40 0.696516 39.9219 0.433086 39.375 0.15416C39.0781 -0.000799179 38.9375 -0.000799179 31.7812 -0.000799179C24.6797 0.00694847 24.4844 0.00694847 24.2031 0.161907Z" fill="#FCFBF7"/>
<path d="M12.4062 7.13505C11.875 7.40623 11.7969 7.68515 11.7969 9.29672C11.7969 10.5441 11.8125 10.7301 11.9531 11.0013C12.1328 11.3499 12.5781 11.6211 12.9688 11.6211C13.3594 11.6211 13.8047 11.3499 13.9844 11.0013C14.1094 10.7611 14.1406 10.5441 14.1406 9.99404V9.29672H15.8984H17.6562V16.2699V23.243H16.9531C16.3984 23.243 16.1797 23.274 15.9375 23.398C15.5859 23.5762 15.3125 24.0178 15.3125 24.4052C15.3125 24.7926 15.5859 25.2342 15.9375 25.4124C16.2266 25.5596 16.3906 25.5674 18.8281 25.5674C21.2656 25.5674 21.4297 25.5596 21.7188 25.4124C22.0703 25.2342 22.3438 24.7926 22.3438 24.4052C22.3438 24.0178 22.0703 23.5762 21.7188 23.398C21.4766 23.274 21.2578 23.243 20.7031 23.243H20V16.2699V9.29672H21.7578H23.5156V9.99404C23.5156 10.5441 23.5469 10.7611 23.6719 11.0013C23.8516 11.3499 24.2969 11.6211 24.6875 11.6211C25.0781 11.6211 25.5234 11.3499 25.7031 11.0013C25.8438 10.7301 25.8594 10.5441 25.8594 9.29672C25.8594 7.66966 25.7812 7.40623 25.2344 7.1273C24.9375 6.97234 24.7891 6.97234 18.8125 6.97234C12.875 6.98009 12.6875 6.98009 12.4062 7.13505Z" fill="#FCFBF7"/>
<path d="M0.609375 14.1082C0.078125 14.3794 0 14.6583 0 16.2699C0 17.5173 0.015625 17.7032 0.15625 17.9744C0.335938 18.3231 0.78125 18.5942 1.17188 18.5942C1.5625 18.5942 2.00781 18.3231 2.1875 17.9744C2.3125 17.7342 2.34375 17.5173 2.34375 16.9672V16.2699H3.51562H4.6875V19.7564V23.243H3.98438C3.42969 23.243 3.21094 23.274 2.96875 23.398C2.61719 23.5762 2.34375 24.0178 2.34375 24.4052C2.34375 24.7926 2.61719 25.2342 2.96875 25.4124C3.25781 25.5596 3.42188 25.5674 5.85938 25.5674C8.29688 25.5674 8.46094 25.5596 8.75 25.4124C9.10156 25.2342 9.375 24.7926 9.375 24.4052C9.375 24.0178 9.10156 23.5762 8.75 23.398C8.50781 23.274 8.28906 23.243 7.73438 23.243H7.03125V19.7564V16.2699H8.20312H9.375V16.9672C9.375 17.5173 9.40625 17.7342 9.53125 17.9744C9.71094 18.3231 10.1562 18.5942 10.5469 18.5942C10.9375 18.5942 11.3828 18.3231 11.5625 17.9744C11.7031 17.7032 11.7188 17.5173 11.7188 16.2699C11.7188 14.6428 11.6406 14.3794 11.0938 14.1004C10.7969 13.9532 10.6484 13.9455 5.84375 13.9455C1.07812 13.9532 0.890625 13.961 0.609375 14.1082Z" fill="#FCFBF7"/>
<path d="M0.609375 28.0548C0.429688 28.1478 0.25 28.326 0.15625 28.5119C0.0078125 28.7986 0 28.9613 0 31.3787C0 33.796 0.0078125 33.9587 0.15625 34.2454C0.335938 34.5941 0.78125 34.8652 1.17188 34.8652C1.5625 34.8652 2.00781 34.5941 2.1875 34.2454C2.3125 34.0052 2.34375 33.7883 2.34375 33.2382V32.5409H20H37.6562V33.2382C37.6562 33.7883 37.6875 34.0052 37.8125 34.2454C37.9922 34.5941 38.4375 34.8652 38.8281 34.8652C39.2188 34.8652 39.6641 34.5941 39.8438 34.2454C39.9922 33.9587 40 33.796 40 31.3787C40 28.9613 39.9922 28.7986 39.8438 28.5119C39.6641 28.1633 39.2188 27.8921 38.8281 27.8921C38.4375 27.8921 37.9922 28.1633 37.8125 28.5119C37.6875 28.7521 37.6562 28.9691 37.6562 29.5192V30.2165H20H2.34375V29.5192C2.34375 28.6514 2.1875 28.2872 1.71875 28.0471C1.33594 27.8534 0.984375 27.8534 0.609375 28.0548Z" fill="#FCFBF7"/>
</svg>
