<svg width="40" height="32" viewBox="0 0 40 32" fill="none" xmlns="http://www.w3.org/2000/svg">
<path d="M3.77988 0.0830917C2.03745 0.396545 0.59003 1.73333 0.138288 3.44811C0.0184384 3.92751 0 5.48556 0 15.7558C0 26.026 0.0184384 27.584 0.138288 28.0634C0.516277 29.5109 1.62258 30.7094 3.09766 31.2625L3.64159 31.4745L18.4384 31.5022C28.9023 31.5206 33.3736 31.493 33.7147 31.4285C35.3834 31.0781 36.7847 29.6584 37.1996 27.9067C37.513 26.5607 37.218 25.8969 36.2776 25.8969C35.7337 25.8969 35.5032 26.1919 35.3465 27.0954C35.1898 27.9712 34.9316 28.4875 34.4246 28.9393C33.6778 29.5938 35.0238 29.5385 18.6689 29.5385H3.91817L3.5033 29.3449C2.98703 29.096 2.46153 28.5797 2.19418 28.0266L1.98213 27.6025L1.95448 18.4939L1.93604 9.39451H19.2405C36.3791 9.39451 36.5542 9.39451 36.8585 9.21012C37.0244 9.10871 37.1996 8.91511 37.2457 8.78604C37.3655 8.47259 37.3655 4.48988 37.2364 3.80766C36.8953 1.92694 35.3281 0.387325 33.4658 0.0830917C32.7467 -0.0275383 4.41601 -0.0275383 3.77988 0.0830917ZM33.7516 2.16664C34.609 2.57228 35.1252 3.23607 35.3096 4.23174C35.3557 4.4991 35.4018 5.31039 35.4018 6.03871V7.36628H18.6689H1.93604V5.80823C1.93604 4.60973 1.97291 4.14877 2.09276 3.78C2.36934 2.91339 3.21751 2.16664 4.10255 2.00991C4.30538 1.97303 10.9617 1.95459 18.8994 1.96381L33.3275 1.97303L33.7516 2.16664Z" fill="#FCFBF7"/>
<path d="M5.47675 4.04764C5.18173 4.16749 4.88672 4.59158 4.88672 4.89581C4.88672 5.78086 5.93771 6.24182 6.5554 5.62413C6.95182 5.2277 6.93339 4.69299 6.5093 4.26891C6.18663 3.94623 5.88239 3.8817 5.47675 4.04764Z" fill="#FCFBF7"/>
<path d="M9.31057 4.1021C8.9418 4.36945 8.85883 4.52618 8.84961 4.95026C8.84961 5.51264 9.2276 5.89062 9.77153 5.89062C10.0942 5.89062 10.2141 5.83531 10.4814 5.56795C10.7764 5.27294 10.8041 5.19918 10.758 4.85807C10.7303 4.62759 10.6197 4.38789 10.4814 4.25882C10.1864 3.95459 9.62402 3.89005 9.31057 4.1021Z" fill="#FCFBF7"/>
<path d="M34.2497 10.3535C34.0469 10.4826 32.8207 11.2847 31.53 12.1513L29.1883 13.7278H27.3537H25.5191L25.2517 13.9951L24.9844 14.2625V17.3601V20.4486L25.2056 20.7067L25.4269 20.9649L27.3537 21.0109L29.2713 21.057L31.9265 22.8271C33.3831 23.8044 34.6646 24.6064 34.766 24.6064C35.0518 24.6064 35.5219 24.3575 35.6787 24.127C35.7985 23.9427 35.817 23.0115 35.8446 17.5722C35.8631 13.276 35.8354 11.1187 35.7709 10.8698C35.5957 10.206 34.8766 9.96632 34.2497 10.3535ZM33.8164 19.5267L33.7887 21.7485L32.1108 20.6237L30.4237 19.5082V17.3694V15.2305L32.1108 14.115L33.7887 12.9902L33.8164 15.1475C33.8256 16.3368 33.8256 18.3097 33.8164 19.5267ZM28.4877 17.3694V19.0749H27.704H26.9204V17.3694V15.6638H27.704H28.4877V17.3694Z" fill="#FCFBF7"/>
<path d="M4.42567 12.925C4.11222 13.0818 3.84486 13.6533 3.91861 14.0037C3.95549 14.1512 4.103 14.3817 4.25972 14.5107L4.5363 14.7412H12.7875H21.0387L21.3061 14.4739C21.7394 14.0313 21.638 13.2108 21.1032 12.9342C20.7437 12.7591 4.79444 12.7406 4.42567 12.925Z" fill="#FCFBF7"/>
<path d="M38.0204 12.8978C37.9098 12.9347 37.7346 13.0914 37.624 13.2389C37.3658 13.5524 37.3935 13.8658 37.753 15.1565C37.9835 15.9678 38.0112 16.2352 38.0112 17.3691C38.0112 18.5031 37.9835 18.7705 37.753 19.5817C37.3105 21.1582 37.3474 21.4901 38.0204 21.8128C38.6934 22.1263 39.1636 21.7483 39.4955 20.642C40.1777 18.3371 40.1685 16.2259 39.4678 14.0041C39.265 13.3495 39.1728 13.1836 38.9147 13.0177C38.5828 12.7964 38.3431 12.7595 38.0204 12.8978Z" fill="#FCFBF7"/>
<path d="M4.25923 18.4757C3.9089 18.7707 3.81671 19.1395 4.00109 19.5636C4.26845 20.2181 3.78905 20.1813 12.7686 20.1813C21.5361 20.1813 21.2226 20.1997 21.4623 19.6742C21.6559 19.2409 21.6006 18.8076 21.3056 18.5126L21.0382 18.2452H12.787H4.5358L4.25923 18.4757Z" fill="#FCFBF7"/>
<path d="M4.42433 23.7576C3.72367 24.1079 3.74211 25.1866 4.46121 25.4816C4.73778 25.6015 6.20364 25.6199 14.7038 25.6199C25.564 25.6199 25.103 25.6476 25.3888 25.076C25.5732 24.7256 25.5732 24.4859 25.3888 24.1356C25.103 23.564 25.564 23.5917 14.6853 23.5917C5.41079 23.5917 4.72856 23.6009 4.42433 23.7576Z" fill="#FCFBF7"/>
</svg>
