<svg width="35" height="35" viewBox="0 0 35 35" fill="none" xmlns="http://www.w3.org/2000/svg">
<path d="M4.3078 0.637927C4.77915 1.0327 5.2078 1.46513 5.63814 1.90317C5.76699 2.03218 5.89597 2.16107 6.02507 2.28984C6.3727 2.63731 6.71855 2.98652 7.06409 3.33608C7.42641 3.702 7.79038 4.06628 8.15416 4.43075C8.8417 5.12006 9.52776 5.81082 10.2133 6.50213C10.9943 7.28954 11.7769 8.07532 12.5597 8.86097C14.1689 10.4761 15.776 12.0933 17.3817 13.7119C17.797 13.5365 18.0599 13.2901 18.3755 12.9711C18.4276 12.9189 18.4796 12.8667 18.5332 12.8128C18.7072 12.6379 18.8803 12.4622 19.0534 12.2865C19.1781 12.1608 19.3029 12.0351 19.4277 11.9095C19.6963 11.639 19.9646 11.3681 20.2327 11.097C20.6571 10.6678 21.0827 10.2396 21.5084 9.81167C22.7189 8.59457 23.9283 7.37633 25.1359 6.15637C25.8029 5.48257 26.471 4.80981 27.1402 4.13816C27.563 3.71363 27.9846 3.28787 28.4052 2.86114C28.6682 2.59492 28.9325 2.32994 29.197 2.06527C29.3187 1.94303 29.44 1.82031 29.5606 1.69705C30.3782 0.862716 31.1925 0.0793539 32.4124 0C33.1539 0.0431338 33.8364 0.284419 34.3406 0.845792C34.8515 1.61219 35.0533 2.25044 34.9283 3.16097C34.5881 4.19155 33.8438 4.89728 33.0897 5.63814C32.9606 5.76699 32.8318 5.89597 32.703 6.02507C32.3555 6.3727 32.0063 6.71855 31.6568 7.06409C31.2908 7.42641 30.9265 7.79038 30.5621 8.15416C29.8728 8.8417 29.182 9.52776 28.4907 10.2133C27.7033 10.9943 26.9175 11.7769 26.1319 12.5597C24.5167 14.1689 22.8995 15.776 21.281 17.3817C21.4563 17.797 21.7028 18.0599 22.0217 18.3755C22.0739 18.4276 22.1262 18.4796 22.18 18.5332C22.3549 18.7072 22.5306 18.8803 22.7064 19.0534C22.8321 19.1781 22.9577 19.3029 23.0833 19.4277C23.3538 19.6963 23.6247 19.9646 23.8958 20.2327C24.325 20.6571 24.7532 21.0827 25.1812 21.5084C26.3983 22.7189 27.6165 23.9283 28.8365 25.1359C29.5103 25.8029 30.183 26.471 30.8547 27.1402C31.2792 27.563 31.705 27.9846 32.1317 28.4052C32.3979 28.6682 32.6629 28.9325 32.9276 29.197C33.0498 29.3187 33.1725 29.44 33.2958 29.5606C34.1293 30.3774 34.9037 31.1902 35 32.4053C34.9571 33.1822 34.6213 33.8522 34.0825 34.4051C33.3156 34.8616 32.7263 35.051 31.8319 34.9283C30.8013 34.5881 30.0955 33.8438 29.3547 33.0897C29.2258 32.9606 29.0969 32.8318 28.9678 32.703C28.6201 32.3555 28.2743 32.0063 27.9287 31.6568C27.5664 31.2908 27.2025 30.9265 26.8387 30.5621C26.1511 29.8728 25.4651 29.182 24.7795 28.4907C23.9985 27.7033 23.2159 26.9175 22.4331 26.1319C20.824 24.5167 19.2169 22.8995 17.6111 21.281C17.1958 21.4563 16.933 21.7028 16.6173 22.0217C16.5653 22.0739 16.5132 22.1262 16.4596 22.18C16.2857 22.3549 16.1125 22.5306 15.9394 22.7064C15.8147 22.8321 15.6899 22.9577 15.5651 23.0833C15.2965 23.3538 15.0282 23.6247 14.7602 23.8958C14.3357 24.325 13.9102 24.7532 13.4844 25.1812C12.2739 26.3983 11.0645 27.6165 9.85691 28.8365C9.18989 29.5103 8.52185 30.183 7.85266 30.8547C7.42981 31.2792 7.00825 31.705 6.58762 32.1317C6.32461 32.3979 6.06038 32.6629 5.79581 32.9276C5.67409 33.0498 5.55286 33.1725 5.43219 33.2958C4.61548 34.1293 3.80257 34.9039 2.58755 35C1.79725 34.9552 1.05473 34.6087 0.523244 34.018C0.0640151 33.3148 -0.0380926 32.6567 0.0645095 31.8319C0.40113 30.8011 1.15005 30.0946 1.90317 29.3547C2.03218 29.2258 2.16107 29.0969 2.28984 28.9678C2.63731 28.6201 2.98652 28.2743 3.33608 27.9287C3.702 27.5664 4.06628 27.2025 4.43075 26.8387C5.12006 26.1511 5.81082 25.4651 6.50213 24.7795C7.28954 23.9985 8.07532 23.2159 8.86097 22.4331C10.4761 20.824 12.0933 19.2169 13.7119 17.6111C13.5365 17.1958 13.2901 16.933 12.9711 16.6173C12.9189 16.5653 12.8666 16.5132 12.8128 16.4596C12.6379 16.2857 12.4622 16.1125 12.2865 15.9394C12.1608 15.8147 12.0351 15.6899 11.9095 15.5651C11.639 15.2965 11.3681 15.0282 11.097 14.7602C10.6678 14.3357 10.2396 13.9102 9.81167 13.4844C8.59456 12.2739 7.37633 11.0645 6.15637 9.85691C5.48257 9.1899 4.80981 8.52185 4.13816 7.85266C3.71363 7.42981 3.28787 7.00825 2.86114 6.58762C2.59492 6.32461 2.32994 6.06038 2.06527 5.79581C1.94303 5.67409 1.82031 5.55287 1.69705 5.43219C0.862777 4.61473 0.0792195 3.80027 0 2.58038C0.0476004 1.78245 0.317597 1.13052 0.910301 0.587753C2.00596 -0.248472 3.20576 -0.0714615 4.3078 0.637927Z" fill="#FCFBF7"/>
</svg>
