<svg width="38" height="37" viewBox="0 0 38 37" fill="none" xmlns="http://www.w3.org/2000/svg">
<path d="M18.4112 0.78146C17.7449 0.893803 16.9962 1.20275 16.4741 1.58192C16.3299 1.68724 16.031 1.94352 15.8147 2.15066C12.9606 4.89609 1.35871 16.1446 1.21446 16.3061C0.987778 16.5659 0.771402 16.9907 0.661497 17.4015C0.599676 17.6437 0.585938 17.7877 0.585938 18.1563C0.589372 18.5565 0.599676 18.6513 0.682105 18.9111C0.871004 19.4974 1.13203 19.9047 1.57508 20.2908C2.15209 20.7929 2.63979 20.9474 3.65641 20.9474H4.27463V27.9584C4.27463 33.6985 4.28493 35.0045 4.32271 35.1484C4.42575 35.5487 4.63526 35.812 4.99588 35.9875L5.21913 36.0964L18.9916 36.1069C29.4326 36.1139 32.8088 36.1069 32.953 36.0753C33.3617 35.9875 33.6468 35.7593 33.8254 35.3766L33.9319 35.1484L33.9422 28.0497L33.949 20.9474H34.5638C35.2473 20.9474 35.498 20.9087 35.9308 20.7367C36.9783 20.3259 37.7133 19.1393 37.6446 17.9808C37.6068 17.3629 37.4007 16.7976 37.0435 16.3623C36.9405 16.2359 35.4327 14.7543 33.6949 13.0727C31.9536 11.3875 28.7766 8.31558 26.6335 6.24072C24.4903 4.16585 22.5738 2.30865 22.3746 2.11906C21.9556 1.71532 21.6122 1.45904 21.2206 1.25892C20.9424 1.11498 20.4891 0.935932 20.2177 0.865715C19.682 0.725285 18.9367 0.690178 18.4112 0.78146ZM19.7507 3.36188C20.0838 3.4672 20.2899 3.59359 20.623 3.90956C21.4542 4.69246 35.0103 17.8263 35.0927 17.9281C35.2061 18.065 35.1992 18.2019 35.079 18.3353C35.0069 18.4161 35 18.4161 33.712 18.4266L32.4207 18.4372L32.1974 18.546C31.8368 18.7215 31.6273 18.9848 31.5242 19.3851C31.4865 19.529 31.4762 20.835 31.4762 26.5716V33.5861H28.3885H25.2974L25.2837 30.0824C25.2734 27.021 25.2631 26.54 25.215 26.2486C24.8303 23.9982 23.326 22.1305 21.2687 21.3546C20.52 21.0702 19.943 20.9684 19.1118 20.9684C18.4867 20.9684 18.0918 21.0141 17.6006 21.1475C16.4775 21.4459 15.533 21.9971 14.7397 22.8186C13.96 23.6261 13.4517 24.5178 13.1495 25.6167C12.9503 26.3294 12.9537 26.2872 12.94 30.0824L12.9262 33.5861H9.83858H6.7475L6.74063 26.4874L6.73032 19.3851L6.62385 19.1569C6.50364 18.9006 6.31818 18.6934 6.11211 18.5846C5.82017 18.4336 5.69309 18.4196 4.42575 18.4196H3.22023L3.1481 18.3389C3.02446 18.2019 3.01759 18.065 3.13093 17.9281C3.20992 17.8333 16.5428 4.91364 17.6109 3.89552C18.1089 3.42156 18.5863 3.23549 19.2183 3.2706C19.3797 3.27762 19.6201 3.31975 19.7507 3.36188ZM19.8743 23.5664C20.5921 23.7174 21.1691 24.0403 21.7152 24.588C22.1411 25.0199 22.3987 25.4271 22.5979 25.9959C22.8074 26.5857 22.7971 26.4136 22.8108 30.1526L22.8246 33.5861H19.1118H15.3991L15.4128 30.1526C15.4266 26.4136 15.4163 26.5857 15.6258 25.9959C15.825 25.4271 16.0826 25.0199 16.5084 24.588C17.161 23.9315 17.7827 23.6331 18.7855 23.4962C18.9744 23.4681 19.6236 23.5102 19.8743 23.5664Z" fill="#FCFBF7"/>
</svg>
