<svg width="43" height="46" viewBox="0 0 43 46" fill="none" xmlns="http://www.w3.org/2000/svg">
<path d="M33.0098 9.00946C34.5685 10.2599 35.7243 11.9497 36.0078 13.9612C36.2402 16.1964 35.8266 18.3103 34.3978 20.0846C34.2917 20.2118 34.1835 20.3371 34.0752 20.4624C34.0005 20.5504 34.0005 20.5504 33.9243 20.6403C33.4343 21.1723 32.8031 21.5634 32.2108 21.9717C32.4607 22.226 32.7115 22.4677 32.9876 22.693C33.8458 23.4462 34.3722 24.2973 34.7854 25.3454C34.8176 25.4269 34.8498 25.5084 34.8829 25.5923C35.3677 27.1258 35.141 28.9146 34.4681 30.3488C34.1261 30.9779 33.6913 31.4985 33.1874 32.0041C33.1274 32.0661 33.0674 32.1281 33.0056 32.1921C31.4348 33.7097 29.5319 33.8331 27.4691 33.8257C27.2429 33.8262 27.0167 33.8268 26.7905 33.8276C26.2428 33.829 25.695 33.8288 25.1473 33.8278C24.7016 33.827 24.2559 33.8269 23.8102 33.8273C23.7146 33.8273 23.7146 33.8273 23.6171 33.8274C23.4876 33.8275 23.3581 33.8276 23.2286 33.8278C22.0176 33.8288 20.8066 33.8276 19.5956 33.8257C18.5594 33.8241 17.5231 33.8244 16.4869 33.826C15.28 33.8279 14.0731 33.8287 12.8662 33.8276C12.7372 33.8275 12.6082 33.8274 12.4792 33.8273C12.4157 33.8272 12.3523 33.8271 12.2869 33.8271C11.8424 33.8268 11.398 33.8273 10.9535 33.8281C10.3539 33.8292 9.7542 33.8284 9.15452 33.8264C8.93535 33.8259 8.71618 33.8261 8.49702 33.8268C6.9286 33.832 5.56862 33.7271 4.15553 32.9807C4.07107 32.9381 3.98661 32.8955 3.89959 32.8517C2.13823 31.9043 0.923206 30.2565 0.309796 28.3744C-0.269455 26.3962 -0.0259718 24.2652 0.952775 22.4683C1.19356 22.0439 1.45548 21.6443 1.75841 21.2614C1.81094 21.1944 1.86347 21.1273 1.91759 21.0582C2.72719 20.0867 4.10299 19.044 5.39848 18.8643C5.39539 18.807 5.3923 18.7496 5.38912 18.6906C5.32495 16.4568 6.06749 14.3413 7.52926 12.6495C7.60445 12.5567 7.60445 12.5567 7.68116 12.4619C8.97441 10.8985 11.0283 9.86435 13.0338 9.63094C15.4881 9.448 17.8344 9.91223 19.7587 11.5217C20.1664 11.8828 20.5516 12.2635 20.9354 12.6495C20.9999 12.5127 20.9999 12.5127 21.0658 12.3731C21.4324 11.6098 21.8202 10.9136 22.3559 10.2524C22.4376 10.1489 22.4376 10.1489 22.521 10.0433C25.0853 6.96506 29.8846 6.69052 33.0098 9.00946ZM24.3979 11.4954C24.3413 11.55 24.2846 11.6045 24.2262 11.6608C23.4082 12.5116 22.8886 13.7742 22.8886 14.9579C22.975 14.9591 22.975 14.9591 23.0631 14.9604C25.3231 15.0012 27.1101 15.4205 28.7774 17.0207C29.6276 17.9056 30.1274 18.9599 30.5239 20.1073C31.6311 19.7842 32.4687 18.9223 33.0319 17.9436C33.7293 16.6697 33.9349 15.2866 33.6202 13.8592C33.2001 12.4445 32.3158 11.2352 31.0288 10.5021C28.7174 9.30145 26.2485 9.65112 24.3979 11.4954ZM9.23832 14.1921C8.24965 15.461 7.68019 16.882 7.70682 18.5092C7.8057 18.5168 7.90458 18.5245 8.00646 18.5324C9.875 18.6962 11.6775 19.2811 13.0338 20.6399C13.3053 21.0702 13.2477 21.5266 13.1503 22.005C13.0338 22.238 13.0338 22.238 12.8562 22.3601C12.7244 22.3876 12.7244 22.3876 12.5899 22.4156C12.5306 22.4301 12.4713 22.4447 12.4102 22.4596C11.904 22.5278 11.613 22.3824 11.2182 22.0883C11.1036 21.9989 10.9892 21.9093 10.8751 21.8194C9.6863 20.8895 8.36898 20.7242 6.90778 20.8175C5.67266 20.9716 4.66073 21.6349 3.8004 22.5044C3.74398 22.5578 3.68756 22.6113 3.62942 22.6663C2.66389 23.6533 2.34674 25.0045 2.35316 26.3399C2.38674 27.7811 2.97324 29.0215 3.97796 30.0509C4.62491 30.6262 5.2926 31.011 6.10874 31.2938C6.2653 31.3488 6.2653 31.3488 6.42503 31.4048C7.14297 31.5614 7.87959 31.5733 8.61194 31.572C8.74031 31.5723 8.74031 31.5723 8.87128 31.5727C9.15511 31.5732 9.43893 31.5731 9.72276 31.5731C9.92746 31.5733 10.1322 31.5736 10.3369 31.574C10.8908 31.5748 11.4448 31.575 11.9988 31.575C12.3453 31.5751 12.6919 31.5753 13.0384 31.5755C14.1863 31.5763 15.3341 31.5767 16.482 31.5766C16.5746 31.5766 16.5746 31.5766 16.669 31.5766C16.7617 31.5766 16.7617 31.5766 16.8563 31.5766C17.8579 31.5766 18.8594 31.5774 19.861 31.5787C20.8919 31.58 21.9228 31.5806 22.9536 31.5805C23.5314 31.5805 24.1092 31.5807 24.6869 31.5817C25.2304 31.5825 25.7739 31.5825 26.3174 31.5819C26.5162 31.5818 26.715 31.582 26.9138 31.5825C28.7247 31.5871 30.2998 31.5681 31.6729 30.2392C32.5286 29.3244 32.7991 28.2996 32.7705 27.0812C32.7157 25.9866 32.1798 25.085 31.3895 24.3411C30.8234 23.8959 30.1609 23.5984 29.464 23.431C29.0361 23.3267 28.8352 23.2122 28.5707 22.8595C28.4822 22.594 28.469 22.3694 28.4607 22.0917C28.4167 20.7623 28.0548 19.5238 27.128 18.5258C26.168 17.6492 24.9917 17.1589 23.6876 17.1774C23.225 17.2242 22.7829 17.2972 22.3448 17.4549C21.8913 17.5929 21.4276 17.6091 20.9767 17.4563C20.628 17.1535 20.5254 16.7548 20.3694 16.3285C20.0968 15.6262 19.8337 15.0014 19.3373 14.4252C19.2773 14.3513 19.2174 14.2773 19.1556 14.2011C18.1033 12.9586 16.5842 12.0705 14.9461 11.9191C12.7256 11.7865 10.7063 12.4584 9.23832 14.1921Z" fill="#FCFBF7"/>
<path d="M36.7924 20.4269C37.0769 20.6373 37.3519 20.8574 37.6251 21.082C37.7386 21.1739 37.8521 21.2657 37.9657 21.3574C38.2062 21.552 38.4459 21.7477 38.6853 21.9438C38.9222 22.1373 39.1613 22.3274 39.4032 22.5147C39.4598 22.5585 39.5164 22.6024 39.5747 22.6475C39.6813 22.7298 39.7882 22.8116 39.8954 22.893C40.2711 23.183 40.5103 23.3989 40.6326 23.862C40.646 24.2568 40.5713 24.4682 40.3773 24.8109C40.1352 25.0665 39.9735 25.1549 39.6338 25.2492C39.0159 25.2599 38.5809 24.9349 38.1189 24.5556C38.0664 24.5134 38.0138 24.4712 37.9597 24.4277C37.7884 24.2898 37.6179 24.1509 37.4475 24.0118C37.3258 23.9132 37.2041 23.8146 37.0823 23.716C36.8404 23.52 36.599 23.3234 36.3579 23.1264C36.1553 22.9612 35.9517 22.7975 35.7461 22.6361C35.6667 22.5737 35.5872 22.5113 35.5054 22.447C35.4379 22.3946 35.3704 22.3422 35.3008 22.2882C35.084 22.0993 34.9714 21.947 34.9287 21.6601C34.9108 20.8995 34.9108 20.8995 35.1558 20.5882C35.6801 20.1338 36.1921 20.0556 36.7924 20.4269Z" fill="#FCFBF7"/>
<path d="M17.737 5.28144C18.1177 5.53472 18.4637 5.82044 18.8117 6.11628C19.0923 6.35267 19.3807 6.57926 19.6681 6.80738C19.7793 6.89657 19.8905 6.98581 20.0017 7.07512C20.1929 7.22858 20.3848 7.38106 20.5774 7.5329C21.5968 8.33752 21.5968 8.33752 21.7323 8.74395C21.7842 9.28441 21.682 9.55493 21.3771 9.9869C21.1143 10.1552 20.8989 10.1929 20.5892 10.1978C20.5162 10.2003 20.4431 10.2028 20.3679 10.2054C19.8135 10.1083 19.3607 9.62219 18.9356 9.27109C18.4684 8.88781 17.9978 8.50994 17.5206 8.13912C16.1801 7.09169 16.1801 7.09169 16.0502 6.70195C16.0161 6.28561 16.0094 6.07476 16.1945 5.6976C16.6326 5.20176 17.1177 5.04622 17.737 5.28144Z" fill="#FCFBF7"/>
<path d="M42.3211 9.08238C42.6065 9.37619 42.7129 9.61607 42.7151 10.0257C42.7027 10.3869 42.6775 10.603 42.421 10.8747C41.6593 11.3405 40.7783 11.6341 39.95 11.959C39.7015 12.0568 39.4538 12.1563 39.2061 12.2558C39.0466 12.3186 38.8871 12.3814 38.7275 12.444C38.6543 12.4736 38.5812 12.5033 38.5058 12.5339C38.0423 12.7128 37.6802 12.7821 37.1828 12.7391C36.7957 12.5419 36.5496 12.3453 36.3838 11.9401C36.3385 11.5328 36.3441 11.3217 36.5059 10.9468C37.1448 10.2622 38.2581 9.99092 39.1156 9.65561C39.3484 9.56455 39.5809 9.47281 39.8133 9.38098C39.9619 9.32256 40.1104 9.26418 40.259 9.20584C40.3282 9.17856 40.3973 9.15128 40.4686 9.12318C40.5333 9.09795 40.5979 9.07273 40.6645 9.04674C40.721 9.02462 40.7775 9.0025 40.8357 8.97971C41.3632 8.79325 41.8392 8.77859 42.3211 9.08238Z" fill="#FCFBF7"/>
<path d="M31.1409 0.142085C31.3808 0.360205 31.4806 0.535121 31.5903 0.841246C31.6163 1.40466 31.5483 1.93914 31.4638 2.49551C31.4506 2.58389 31.4374 2.67227 31.4239 2.76333C31.396 2.94916 31.3679 3.13494 31.3395 3.32069C31.2963 3.60419 31.2547 3.88789 31.2132 4.17162C31.1858 4.35279 31.1584 4.53394 31.1308 4.71507C31.1186 4.79942 31.1064 4.88378 31.0938 4.97069C31.0081 5.51886 30.9015 5.96366 30.5028 6.3735C30.1978 6.56066 29.9951 6.60593 29.6371 6.6121C29.2699 6.50629 29.066 6.39737 28.7993 6.1238C28.4909 5.43312 28.674 4.59486 28.784 3.86643C28.7969 3.77843 28.8099 3.69043 28.8232 3.59976C28.8506 3.41551 28.8784 3.23131 28.9065 3.04717C28.9492 2.76609 28.9896 2.48475 29.0299 2.20333C29.0569 2.02337 29.0841 1.84344 29.1114 1.66352C29.129 1.53824 29.129 1.53824 29.147 1.41043C29.2237 0.925012 29.3239 0.602213 29.6371 0.219769C30.0678 -0.08092 30.668 -0.0390298 31.1409 0.142085Z" fill="#FCFBF7"/>
<path d="M21.2894 40.4378C21.5589 40.6231 21.6953 40.7532 21.7888 41.0697C21.8656 41.5451 21.8041 41.7919 21.5557 42.2134C21.3294 42.4763 21.084 42.7183 20.8368 42.9615C20.7666 43.0315 20.6965 43.1015 20.6242 43.1736C20.4764 43.3208 20.3283 43.4677 20.1798 43.6143C19.9519 43.8394 19.725 44.0654 19.4983 44.2917C19.3545 44.4347 19.2106 44.5776 19.0667 44.7205C18.9985 44.7883 18.9304 44.8561 18.8601 44.9259C18.797 44.9882 18.7339 45.0504 18.6689 45.1146C18.6133 45.1696 18.5577 45.2245 18.5004 45.2812C18.1852 45.5685 17.8536 45.5274 17.4454 45.5237C17.1215 45.4895 16.9725 45.3883 16.7615 45.1433C16.612 44.8891 16.5558 44.6942 16.5506 44.3997C16.5481 44.3349 16.5456 44.2702 16.543 44.2034C16.6565 43.6089 17.2059 43.1609 17.6153 42.7503C17.6805 42.6845 17.7458 42.6186 17.813 42.5508C17.9505 42.4124 18.0883 42.2742 18.2262 42.1363C18.4368 41.9253 18.646 41.7129 18.8551 41.5004C18.9893 41.3658 19.1235 41.2312 19.2578 41.0967C19.3199 41.0333 19.3821 40.9698 19.4461 40.9045C20.0275 40.3284 20.5051 40.1374 21.2894 40.4378Z" fill="#FCFBF7"/>
<path d="M12.6777 40.4386C12.9789 40.6833 13.0843 40.8206 13.1764 41.1922C13.2104 41.5559 13.1971 41.8384 12.9859 42.145C12.9246 42.2094 12.8633 42.2738 12.8002 42.3401C12.7278 42.4167 12.6555 42.4932 12.581 42.572C12.495 42.6601 12.4089 42.748 12.3226 42.8357C12.2739 42.8856 12.2252 42.9355 12.1751 42.9868C11.8431 43.3262 11.5083 43.6627 11.1721 43.9979C10.9943 44.1752 10.817 44.3529 10.6397 44.5307C10.5266 44.6438 10.4135 44.7568 10.3004 44.8697C10.2475 44.9228 10.1946 44.9759 10.1401 45.0306C9.77824 45.3904 9.61137 45.5145 9.10424 45.5325C8.7809 45.5278 8.54352 45.5193 8.27746 45.3272C8.01073 44.9921 7.87188 44.6892 7.88349 44.2562C8.07374 43.6672 8.41915 43.3123 8.85316 42.8812C8.92225 42.8115 8.99134 42.7419 9.06252 42.6701C9.20835 42.5237 9.35463 42.3777 9.50134 42.2321C9.72515 42.0095 9.94675 41.7849 10.1682 41.56C10.3105 41.4176 10.453 41.2754 10.5955 41.1333C10.6943 41.0327 10.6943 41.0327 10.7951 40.9301C11.3597 40.3755 11.9064 40.0788 12.6777 40.4386Z" fill="#FCFBF7"/>
<path d="M28.5731 35.2888C28.8572 35.5196 28.9903 35.6525 29.1058 35.9991C29.14 36.4606 29.1063 36.6899 28.8394 37.0645C28.6084 37.3197 28.365 37.5616 28.1205 37.8039C28.0504 37.874 27.9802 37.9441 27.908 38.0163C27.76 38.1639 27.6119 38.3114 27.4636 38.4586C27.2359 38.6847 27.0089 38.9115 26.782 39.1384C26.6382 39.2818 26.4943 39.4251 26.3504 39.5684C26.2823 39.6365 26.2141 39.7045 26.1439 39.7747C26.0808 39.8372 26.0176 39.8998 25.9526 39.9642C25.897 40.0194 25.8414 40.0747 25.7842 40.1316C25.4828 40.4076 25.189 40.3738 24.7978 40.3681C24.5061 40.3433 24.3511 40.2804 24.134 40.0831C23.8769 39.693 23.818 39.3919 23.8676 38.9289C24.0679 38.4122 24.4132 38.0769 24.7985 37.6932C24.8636 37.6276 24.9288 37.562 24.9959 37.4944C25.1335 37.3562 25.2714 37.2184 25.4096 37.081C25.6202 36.8711 25.8291 36.6597 26.0379 36.448C26.1722 36.3136 26.3065 36.1794 26.4409 36.0452C26.5029 35.9822 26.5649 35.9192 26.6288 35.8543C27.222 35.2694 27.7509 34.9455 28.5731 35.2888Z" fill="#FCFBF7"/>
<path d="M19.9604 35.289C20.2602 35.5123 20.3887 35.7682 20.4931 36.1269C20.4931 36.7953 20.165 37.167 19.7138 37.6201C19.6458 37.6865 19.5778 37.753 19.5078 37.8214C19.4376 37.8912 19.3675 37.9611 19.2952 38.0331C19.1475 38.1799 18.9994 38.3262 18.8508 38.4722C18.6228 38.6963 18.3959 38.9217 18.1693 39.1472C18.0255 39.2898 17.8816 39.4324 17.7377 39.5748C17.6695 39.6423 17.6014 39.7098 17.5311 39.7794C17.468 39.8414 17.4049 39.9034 17.3399 39.9672C17.2843 40.0219 17.2287 40.0766 17.1715 40.133C16.8717 40.405 16.5798 40.3789 16.1913 40.3749C15.8621 40.3381 15.6759 40.2135 15.4325 39.9945C15.2768 39.7394 15.2287 39.543 15.2272 39.2454C15.2257 39.1796 15.2242 39.1138 15.2227 39.046C15.313 38.4698 15.8158 38.0732 16.2083 37.6795C16.2756 37.6116 16.3429 37.5437 16.4123 37.4737C16.5545 37.3306 16.697 37.1877 16.8397 37.045C17.0575 36.8268 17.2739 36.6072 17.4902 36.3875C17.6288 36.2484 17.7675 36.1094 17.9062 35.9705C17.9706 35.9048 18.035 35.8392 18.1013 35.7715C18.678 35.2 19.1767 34.9614 19.9604 35.289Z" fill="#FCFBF7"/>
<path d="M11.3466 35.2896C11.6597 35.6028 11.8041 35.85 11.8182 36.2884C11.8232 36.388 11.8232 36.388 11.8283 36.4896C11.7267 37.0822 11.1798 37.5244 10.7723 37.9295C10.6767 38.0253 10.6767 38.0253 10.5793 38.123C10.4452 38.2572 10.3109 38.3912 10.1763 38.525C9.97051 38.7299 9.76566 38.9357 9.56088 39.1416C9.4302 39.2722 9.29945 39.4027 9.16865 39.5332C9.10751 39.5947 9.04637 39.6562 8.98338 39.7195C8.92589 39.7764 8.86841 39.8334 8.80918 39.892C8.75899 39.9421 8.70881 39.9921 8.6571 40.0437C8.2883 40.3576 7.95411 40.394 7.48248 40.3842C7.11497 40.3274 6.97573 40.1829 6.72991 39.9063C6.53464 39.5922 6.51825 39.3036 6.57634 38.9379C6.65412 38.7149 6.75847 38.5895 6.91751 38.4154C7.00173 38.3227 7.00173 38.3227 7.08766 38.2282C7.35733 37.941 7.62967 37.657 7.90662 37.3767C7.96557 37.3171 8.02451 37.2574 8.08524 37.1959C8.20874 37.0712 8.33236 36.9466 8.45611 36.8222C8.58211 36.6951 8.70771 36.5677 8.83292 36.4399C9.01529 36.2538 9.19881 36.0688 9.38263 35.8841C9.43813 35.827 9.49363 35.7699 9.55082 35.7112C10.1021 35.1626 10.6067 34.9872 11.3466 35.2896Z" fill="#FCFBF7"/>
<path d="M24.5567 2.24946C25.0704 2.73464 25.2763 3.49705 25.5333 4.14164C25.574 4.24285 25.574 4.24285 25.6156 4.3461C25.8169 4.86456 25.9786 5.32251 25.8107 5.87289C25.6262 6.1989 25.5331 6.34878 25.2003 6.52211C24.7334 6.59768 24.3785 6.60924 23.9595 6.37333C23.5705 6.01927 23.4118 5.50708 23.2287 5.02651C23.1642 4.85811 23.0962 4.69139 23.0278 4.52451C22.784 3.89922 22.6416 3.45246 22.8032 2.79325C23.2131 2.12901 23.8392 2.02119 24.5567 2.24946Z" fill="#FCFBF7"/>
<path d="M40.1717 15.9997C40.3184 16.0207 40.3184 16.0207 40.468 16.042C40.9945 16.1246 41.3951 16.1943 41.7975 16.5546C42.0559 16.9277 42.0418 17.3615 41.9751 17.7976C41.8241 18.1151 41.6155 18.2926 41.2925 18.4367C40.9442 18.5209 40.6486 18.4972 40.2993 18.4468C40.2341 18.4381 40.169 18.4294 40.1019 18.4204C39.8973 18.3921 39.6933 18.3615 39.4892 18.3303C39.4227 18.3205 39.3562 18.3107 39.2877 18.3007C39.0956 18.2717 38.9039 18.2405 38.7123 18.2082C38.5992 18.1892 38.4862 18.1702 38.3697 18.1506C37.9736 18.0365 37.7226 17.8644 37.5027 17.5146C37.3972 17.04 37.4408 16.6201 37.6969 16.205C38.3646 15.5755 39.3482 15.8692 40.1717 15.9997Z" fill="#FCFBF7"/>
<path d="M36.8301 4.30463C37.1942 4.48997 37.3879 4.63886 37.5404 5.01489C37.5702 5.20251 37.5702 5.20251 37.5737 5.39776C37.5762 5.46151 37.5787 5.52525 37.5813 5.59093C37.4782 6.15276 37.0742 6.59454 36.708 7.01249C36.665 7.06236 36.622 7.11223 36.5777 7.16361C36.493 7.26166 36.4082 7.35955 36.3232 7.45727C36.1776 7.62546 36.0351 7.79627 35.8924 7.9669C35.6067 8.28919 35.6067 8.28919 35.283 8.32099C34.59 8.33881 34.59 8.33881 34.2499 8.14446C33.9926 7.84563 33.874 7.60306 33.867 7.2067C33.8645 7.14295 33.862 7.07921 33.8594 7.01353C33.9625 6.45174 34.3665 6.00987 34.7326 5.59197C34.7757 5.5421 34.8188 5.49223 34.8632 5.44085C34.9479 5.34282 35.0328 5.24492 35.1178 5.14719C35.2624 4.97969 35.4022 4.80845 35.5428 4.63756C35.9036 4.24067 36.3204 4.24113 36.8301 4.30463Z" fill="#FCFBF7"/>
</svg>
