<svg width="33" height="28" viewBox="0 0 33 28" fill="none" xmlns="http://www.w3.org/2000/svg">
<path d="M7.11806 5.32114H21.4557C27.3299 5.32114 32.1184 10.3002 32.1184 16.4439C32.1184 22.5875 27.3299 27.5956 21.4557 27.5956H7.75838C6.61694 27.5956 5.67039 26.6056 5.67039 25.4118C5.67039 24.2181 6.61694 23.2281 7.75838 23.2281H21.4557C25.0468 23.2281 27.9424 20.1999 27.9424 16.4439C27.9424 12.6878 25.0192 9.65955 21.4557 9.65955H7.31294L8.03678 10.4167C8.84413 11.2611 8.84413 12.6587 8.03678 13.5031C7.61918 13.9398 7.09022 14.1436 6.56127 14.1436C6.03231 14.1436 5.50335 13.9398 5.08575 13.5031L0.714892 8.93163C-0.0924641 8.08724 -0.0924641 6.68963 0.714892 5.84525L5.08575 1.27391C5.89311 0.429528 7.22942 0.429528 8.03678 1.27391C8.84413 2.1183 8.84413 3.5159 8.03678 4.36029L7.11806 5.32114Z" fill="#FCFBF7"/>
</svg>
