<svg width="31" height="23" viewBox="0 0 31 23" fill="none" xmlns="http://www.w3.org/2000/svg">
<path d="M12.6694 0.739298C13.3052 1.34103 13.6809 2.09033 13.7401 2.98575C13.7383 3.16172 13.7314 3.33714 13.7247 3.51297C13.6943 4.35507 13.8404 5.10681 14.4043 5.75467C14.7422 6.05147 15.1648 6.05543 15.5928 6.04887C15.9509 6.01367 16.2416 5.88194 16.4765 5.59829C16.7638 5.1524 17.1192 4.56064 17.1299 4.01568C17.1072 3.90301 17.0808 3.79107 17.0513 3.68007C16.9907 3.39442 16.9896 3.11732 16.9888 2.8258C16.9878 2.77272 16.9868 2.71964 16.9858 2.66494C16.9858 1.97354 17.2018 1.44261 17.6374 0.921861C18.2655 0.283344 19.3008 0.00887952 20.1559 0C21.0988 0.0704399 21.861 0.449758 22.4875 1.18821C22.7145 1.49606 22.8671 1.83643 23.0147 2.18969C23.2152 2.66234 23.4728 2.94573 23.9095 3.19141C24.292 3.41669 24.6322 3.66573 24.9677 3.96069C25.0069 3.99211 25.0461 4.02353 25.0865 4.0559C25.8009 4.64685 26.2528 5.4848 26.7087 6.28451C26.8929 6.60415 27.0833 6.91988 27.2733 7.23588C27.3135 7.30282 27.3537 7.36975 27.3952 7.43871C27.6651 7.88737 27.9365 8.33504 28.2089 8.78208C28.2452 8.84169 28.2815 8.9013 28.3189 8.96272C28.5061 9.26973 28.6942 9.57605 28.8838 9.8815C30.1402 11.912 30.1402 11.912 30.4329 13.0398C30.4518 13.1074 30.4706 13.1749 30.49 13.2445C30.7699 14.4508 30.7358 15.9403 30.3735 17.1224C30.3608 17.1644 30.3481 17.2064 30.3349 17.2496C30.0465 18.1686 29.6067 18.9978 29.0072 19.7425C28.9598 19.8019 28.9124 19.8613 28.8636 19.9225C27.6857 21.3189 25.942 22.2381 24.1421 22.3811C23.9072 22.3892 23.673 22.3916 23.438 22.3893C23.3967 22.3892 23.3554 22.389 23.3129 22.3888C22.635 22.3843 21.9935 22.3284 21.344 22.119C21.303 22.1059 21.2621 22.0928 21.2199 22.0794C19.4712 21.5019 18.077 20.3087 17.1262 18.7067C17.0441 18.5758 16.9619 18.4449 16.8795 18.3142C16.8292 18.2192 16.8292 18.2192 16.8292 18.0973C15.4177 18.1275 15.4177 18.1275 13.9777 18.1583C13.8601 18.3794 13.7425 18.6006 13.6213 18.8285C12.5311 20.5784 10.9216 21.7935 8.93552 22.2522C7.15571 22.6306 5.34018 22.3809 3.7601 21.4487C3.70044 21.4135 3.64079 21.3783 3.57933 21.342C1.97578 20.3398 0.873474 18.7851 0.374015 16.9396C0.355024 16.8718 0.336033 16.804 0.316466 16.7342C0.036737 15.5214 0.0772072 14.0463 0.43342 12.857C0.446151 12.8131 0.458882 12.7691 0.471998 12.7238C0.765916 11.7314 1.23977 10.9208 1.83733 10.0907C2.54859 9.10051 3.1382 8.04441 3.72148 6.97193C4.63575 5.29131 4.63575 5.29131 5.12641 4.6919C5.16455 4.64391 5.20268 4.59591 5.24197 4.54647C5.70559 3.98757 6.25905 3.53757 6.88257 3.17998C7.37292 2.89485 7.50937 2.62006 7.71866 2.09537C8.01706 1.36203 8.5733 0.651022 9.28476 0.304669C10.4193 -0.159892 11.7056 -0.0923271 12.6694 0.739298ZM3.86777 11.8326C3.06916 12.7624 2.63948 13.9771 2.67387 15.2163C2.79032 16.5908 3.39587 17.7824 4.41077 18.6788C5.45941 19.5193 6.60913 19.8195 7.91844 19.7425C9.15507 19.5826 10.2789 18.9361 11.0483 17.9336C11.7991 16.8587 12.1302 15.6235 11.9803 14.3118C11.7963 13.2283 11.3464 12.3542 10.5917 11.5774C10.5473 11.5304 10.5028 11.4835 10.4571 11.4351C9.51256 10.4951 8.30048 10.2024 7.02018 10.2204C5.77351 10.2618 4.7141 10.9342 3.86777 11.8326ZM19.9294 11.8097C19.0659 12.8498 18.6664 14.1008 18.7427 15.456C18.8925 16.7451 19.5141 17.8544 20.4654 18.6988C21.5527 19.5501 22.8348 19.8922 24.1864 19.7121C25.4511 19.4592 26.529 18.7619 27.2803 17.6875C27.9596 16.5857 28.2104 15.3328 27.9936 14.0452C27.8194 13.2536 27.4875 12.5712 26.9874 11.943C26.9583 11.9039 26.9291 11.8648 26.899 11.8245C26.2167 10.9452 25.1436 10.4121 24.0766 10.2369C22.4644 10.0981 21.0517 10.5955 19.9294 11.8097ZM14.5866 14.3613C14.4294 14.6597 14.3764 14.9449 14.4307 15.2791C14.5459 15.5584 14.664 15.7223 14.9097 15.8923C15.2517 16.018 15.5599 16.0182 15.8973 15.8732C16.1569 15.7223 16.2721 15.5237 16.3539 15.2334C16.4054 14.9096 16.3537 14.6542 16.1757 14.3804C15.9269 14.1223 15.7095 14.0063 15.3552 13.9957C15.0114 13.9993 14.8319 14.1188 14.5866 14.3613Z" fill="#353938"/>
</svg>
