<svg width="100" height="100" viewBox="0 0 100 100" fill="none" xmlns="http://www.w3.org/2000/svg">
<path d="M57.4811 0.664062C55.8014 1.21094 54.3756 2.46094 53.4772 4.14062C53.1061 4.86328 53.028 5.27344 53.028 6.97266C53.028 8.84766 53.0084 8.98438 52.5983 9.16016C51.9928 9.43359 51.8366 10.2344 52.2272 10.8398C52.5983 11.4062 53.1451 11.4648 54.1608 11.0352C55.1959 10.6055 55.4108 10.6641 55.6842 11.4648C56.153 12.9297 56.8366 14.043 57.7936 14.8828L58.7701 15.7227L58.2037 16.6016C57.403 17.793 57.1295 18.8281 56.5436 23.0469C56.2506 25.0391 55.9186 26.7969 55.7819 26.9531C49.4342 34.5312 49.61 34.2969 49.61 35.6641C49.61 36.25 49.5905 36.7188 49.5514 36.7188C49.5123 36.7188 47.9108 37.2852 45.9967 37.9883C44.0827 38.6719 42.4616 39.1992 42.403 39.1406C42.3444 39.082 42.0709 38.4375 41.7975 37.7344C40.9772 35.6055 41.0944 35.6055 35.9967 37.4609C33.6139 38.3203 31.4069 39.1797 31.0944 39.3359C30.235 39.7852 29.1217 41.1719 28.8287 42.1875L28.5748 43.0664L25.6842 43.6719C23.7702 44.0625 22.7155 44.375 22.5592 44.5898C22.4225 44.7656 22.0123 46.5039 21.6217 48.457C21.2311 50.4102 20.86 52.0508 20.8209 52.0898C20.7819 52.1289 19.4537 52.5 17.8912 52.9102C16.3287 53.3008 14.9225 53.75 14.8053 53.8672C14.6686 54.0039 14.2584 55.3516 13.8678 56.875L13.1452 59.668L7.05141 59.7656C1.28969 59.8633 0.938126 59.8828 0.664688 60.2344C0.293594 60.7617 0.313126 61.25 0.781876 61.7188C1.1725 62.1094 1.4264 62.1094 50.0006 62.1094C98.5748 62.1094 98.8287 62.1094 99.2194 61.7188C99.7076 61.2305 99.7076 60.6445 99.2194 60.1562C98.8483 59.7852 98.5748 59.7656 89.942 59.7656H81.0358L81.153 59.1211C81.2116 58.7305 80.7428 55.6445 79.8834 50.9766L78.5162 43.457V38.9258V34.375L77.5397 31.9336C77.0123 30.5859 76.5631 29.4531 76.5631 29.4141C76.5631 29.3555 76.8756 29.2188 77.2662 29.1016C77.9498 28.8672 78.0084 28.8867 78.4772 29.4922C79.0631 30.2539 80.2936 30.8594 81.2506 30.8594C82.0514 30.8594 83.36 30.293 83.8287 29.7656C84.3561 29.1797 84.7662 28.0273 84.7662 27.168C84.7662 26.4062 84.7858 26.3867 85.8991 25.9766C90.0397 24.4531 90.235 24.3359 90.235 23.5547C90.235 22.9883 89.6686 22.4609 89.0436 22.4609C88.7897 22.4609 87.7545 22.7734 86.7389 23.1445C85.7428 23.5156 84.8834 23.8281 84.8444 23.8281C84.8053 23.8281 84.7662 22.5195 84.7662 20.9375C84.7662 18.3203 84.7272 17.9688 84.3366 17.1875C84.0826 16.7188 83.653 16.1719 83.3795 15.957C83.1061 15.7617 80.1178 14.668 76.7389 13.5352C70.8991 11.582 70.528 11.4844 68.9459 11.4648H67.2858L67.3444 10.5273C67.4225 9.53125 66.485 6.46484 65.4108 4.17969C64.7662 2.79297 63.4772 1.52344 62.1491 0.917969C60.9967 0.410156 58.6334 0.273438 57.4811 0.664062ZM60.8014 2.96875C61.5826 3.20312 63.2819 4.60938 63.2819 5.01953C63.2819 5.27344 55.5084 8.125 55.3326 7.92969C55.2545 7.87109 55.2155 7.38281 55.235 6.85547C55.2936 4.04297 58.0475 2.14844 60.8014 2.96875ZM64.6295 8.63281C65.2741 10.5469 65.1373 11.6602 64.1022 12.7539C63.3405 13.5742 62.6373 13.8672 61.5241 13.8672C60.3717 13.8672 59.6295 13.5352 58.9264 12.7148C58.4381 12.1094 57.5201 9.98047 57.6959 9.82422C57.7936 9.72656 63.8873 7.46094 64.1022 7.44141C64.1608 7.42188 64.4147 7.96875 64.6295 8.63281ZM76.0358 15.7422C79.1608 16.7773 81.8561 17.793 82.0514 17.9883C82.403 18.3398 82.4225 18.7305 82.4225 23.0469C82.4225 27.4805 82.403 27.7539 82.0319 28.125C81.817 28.3398 81.4655 28.5156 81.2506 28.5156C81.0358 28.5156 80.6842 28.3398 80.4694 28.125C80.0983 27.7539 80.0787 27.4805 80.0787 23.8867C80.0787 20.6055 80.0397 20 79.7662 19.6875C79.5905 19.4922 77.442 18.6914 74.9616 17.8711C70.7428 16.4648 70.4498 16.4062 70.0201 16.6797C69.7662 16.8555 69.5123 17.1484 69.4342 17.3633C69.3561 17.5977 70.528 20.7617 72.7545 26.2891L76.1725 34.8633V39.2578V43.6523L77.5397 51.1719C78.3014 55.3125 78.9069 58.75 78.9069 58.8281C78.9069 58.9258 78.7311 59.1602 78.5162 59.375C78.028 59.8633 77.3053 59.8828 76.8951 59.4141C76.6998 59.1992 76.1334 56.4648 75.2155 51.3672C73.985 44.5312 73.8287 43.3789 73.8287 41.2305C73.8287 38.5547 73.653 38.0859 72.6764 38.0859C72.0709 38.0859 71.5436 38.5938 68.692 41.9531L66.7975 44.1602V51.5625C66.7975 58.7305 66.778 59.0039 66.4069 59.375C65.9186 59.8633 65.3326 59.8633 64.8444 59.375C64.4733 59.0039 64.4537 58.7305 64.4537 51.1914V43.3789L65.3912 42.2461C65.9186 41.6211 67.0123 40.332 67.8326 39.375C68.7701 38.2812 69.3366 37.4609 69.3366 37.168C69.3366 36.6211 63.7311 22.5 63.3209 22.0117C63.1647 21.8359 62.7936 21.6797 62.5006 21.6797C61.6022 21.6797 61.4069 22.1484 60.9381 25.4883L60.4889 28.6328L57.1491 32.6172C55.3131 34.8047 53.653 36.6797 53.4576 36.7969C52.9303 37.1289 52.0709 36.5625 51.9928 35.8203C51.9342 35.293 52.3444 34.7266 55.0787 31.4648C56.7975 29.3945 58.2428 27.5 58.3014 27.2656C58.3405 27.0508 58.6139 25.2344 58.8873 23.2422C59.1608 21.25 59.5319 19.2383 59.7076 18.7695C60.0983 17.6953 61.5631 16.2109 62.2272 16.2109C62.8912 16.2109 64.6295 15.5273 65.1178 15.0586C65.8209 14.3945 68.3209 13.6523 69.4147 13.75C69.942 13.8086 72.9303 14.707 76.0358 15.7422ZM77.6959 23.8477L77.7545 26.4844L76.7194 26.8164C76.153 26.9922 75.6451 27.0703 75.567 26.9922C75.4303 26.8359 72.6569 19.8828 72.6569 19.6875C72.6569 19.6289 73.7701 19.9414 75.1569 20.3906L77.6373 21.2305L77.6959 23.8477ZM63.9069 29.4727L64.5905 31.2109L62.442 32.0117C61.2506 32.4414 60.235 32.7734 60.2155 32.7344C60.1764 32.7148 60.6842 32.0508 61.3287 31.2891C62.5787 29.8047 62.8912 29.2188 62.8912 28.3008C62.8912 27.3242 63.1842 27.6758 63.9069 29.4727ZM66.2116 35.2539L66.8561 36.9141L66.4655 37.3633C64.1998 39.8828 62.4811 42.0898 62.3053 42.7148C62.1491 43.2227 62.11 46.0352 62.1491 51.6211L62.2076 59.7656H58.7897H55.3522L53.9069 56.8164C53.1061 55.1953 52.2858 53.7891 52.11 53.6914C51.9342 53.5938 50.5084 53.5156 48.9655 53.5156H46.1334L45.3912 51.3086L44.6295 49.1211L42.5397 48.0469C41.3873 47.4414 40.3912 46.9141 40.3327 46.8555C40.2741 46.7773 41.0162 46.4453 41.9928 46.0938C44.317 45.2734 44.4342 45.0586 43.692 43.0078C43.4186 42.1875 43.1842 41.5039 43.2233 41.5039C43.2428 41.4844 45.0006 40.8398 47.1295 40.0586L50.9967 38.6719L51.9147 38.9844C53.4967 39.5117 54.6881 39.082 56.1334 37.4805C57.0319 36.4844 57.11 36.4453 61.192 34.9609C63.4576 34.1211 65.3912 33.4766 65.4498 33.5156C65.5084 33.5547 65.86 34.3359 66.2116 35.2539ZM40.5475 41.1133C41.0162 42.4023 41.4069 43.5547 41.4069 43.6523C41.4069 43.7695 40.4108 44.1992 39.2194 44.6094L37.0123 45.3711L34.1803 43.9453C32.6178 43.1641 31.3092 42.4805 31.2702 42.4414C31.2116 42.4023 31.4069 42.1484 31.6803 41.875C31.9928 41.543 33.4381 40.8984 35.7623 40.0391C37.735 39.2969 39.4342 38.7109 39.5319 38.75C39.61 38.7695 40.0787 39.8438 40.5475 41.1133ZM73.0084 52.3828L74.3366 59.7656H71.6998H69.0436L69.1022 52.4023L69.1608 45.0586L70.2741 43.7305L71.3873 42.4023L71.5241 43.7109C71.6022 44.4336 72.2858 48.3398 73.0084 52.3828ZM36.9928 47.9102L42.8522 50.8789L43.4967 52.9883C43.8678 54.1406 44.3366 55.2734 44.5319 55.4688C44.8834 55.8203 45.2155 55.8594 47.9108 55.8594H50.8795L51.817 57.7148C52.3248 58.7305 52.735 59.6094 52.735 59.668C52.735 59.7266 44.3952 59.7656 34.1803 59.7656C23.985 59.7656 15.6256 59.707 15.6256 59.6094C15.6452 59.3359 16.5631 55.8203 16.6608 55.7422C16.7194 55.6836 18.0475 55.3125 19.6491 54.9023C21.3873 54.4531 22.6178 54.043 22.7545 53.8477C22.8912 53.6719 23.3014 51.9336 23.692 49.9805C24.0827 48.0273 24.4342 46.3867 24.4733 46.3477C24.5319 46.3086 30.6647 44.9805 31.0553 44.9414C31.1139 44.9414 33.7897 46.2695 36.9928 47.9102Z" fill="#FCFBF7"/>
</svg>
