<svg width="100" height="100" viewBox="0 0 100 100" fill="none" xmlns="http://www.w3.org/2000/svg">
<g clip-path="url(#clip0_3177_1239)">
<path d="M62.8172 54.125C58.4803 54.125 54.1449 52.4707 50.835 49.1607C44.2217 42.5457 44.2217 31.8184 50.835 25.2L74.7975 49.1607C71.4891 52.4709 67.1521 54.125 62.8172 54.125ZM53.4422 46.5535C55.9467 49.0598 59.2756 50.4379 62.8172 50.4379C65.0934 50.4379 67.2809 49.8688 69.2195 48.7957L51.2051 30.7832C48.4332 35.8211 49.1789 42.2922 53.4422 46.5535Z" fill="#FCFBF7" stroke="#FCFBF7" stroke-width="1.5625"/>
<path d="M26.4547 89.0977L10.8984 73.5414L39.4273 45.0123L54.9871 60.5721L26.4547 89.0977ZM16.1113 73.5414L26.4547 83.8848L49.7744 60.5721L39.4275 50.2252L16.1113 73.5414Z" fill="#FCFBF7" stroke="#FCFBF7" stroke-width="1.5625"/>
<path d="M80.7227 86.7064L67.4275 100L43.5781 76.1488L56.8715 62.8537L80.7227 86.7064ZM63.8072 74.7055L60.7096 77.8014L65.7768 82.8686L68.8727 79.7744L63.8072 74.7055ZM75.8029 86.7064L71.0547 81.9584L67.9605 85.0541L72.707 89.8006L75.8029 86.7064ZM67.4275 95.075L70.5217 91.9826L65.7768 87.2344L62.6828 90.3303L67.4275 95.075ZM60.4988 88.1447L63.5912 85.0539L58.5275 79.9852L55.4316 83.0793L60.4988 88.1447ZM48.5014 76.1488L53.248 80.8953L56.342 77.8012L51.5939 73.0564L48.5014 76.1488ZM58.524 75.6191L61.6199 72.5234L56.8734 67.777L53.7811 70.8693L58.524 75.6191Z" fill="#FCFBF7" stroke="#FCFBF7" stroke-width="1.5625"/>
<path d="M0 32.5762L13.2953 19.2826L37.1465 43.1338L23.8547 56.4238L0 32.5762ZM16.9225 44.5736L20.0166 41.4795L14.9494 36.4107L11.8555 39.5066L16.9225 44.5736ZM4.9248 32.5762L9.66953 37.3211L12.7637 34.2287L8.01895 29.4805L4.9248 32.5762ZM13.2953 24.2041L10.1994 27.2965L14.9494 32.0449L18.042 28.9525L13.2953 24.2041ZM20.2273 31.1328L17.1314 34.2287L22.1984 39.2975L25.2926 36.2016L20.2273 31.1328ZM32.2232 43.1305L27.4799 38.3855L24.384 41.4797L29.1289 46.2244L32.2232 43.1305ZM22.1984 43.6637L19.1027 46.7543L23.8543 51.5043L26.9467 48.4102L22.1984 43.6637Z" fill="#FCFBF7" stroke="#FCFBF7" stroke-width="1.5625"/>
<path d="M70.9816 33.8833C69.6409 35.2204 67.464 35.222 66.1269 33.8833C64.7812 32.5427 64.7812 30.364 66.1236 29.0235C67.4675 27.6813 69.6411 27.6813 70.9816 29.0235C72.3236 30.364 72.3236 32.5376 70.9816 33.8833Z" fill="#FCFBF7" stroke="#FCFBF7" stroke-width="1.5625"/>
<path d="M96.4234 26.0469C95.3898 20.6543 92.8031 15.5219 88.643 11.3633C84.4809 7.20117 79.3486 4.6129 73.9609 3.57403L74.6482 2.86102e-06C80.7199 1.16719 86.5293 4.1002 91.2176 8.78848C95.9059 13.4768 98.8352 19.2877 99.9992 25.3611L96.4234 26.0469Z" fill="#FCFBF7" stroke="#FCFBF7" stroke-width="1.5625"/>
<path d="M91.1002 27.2902L87.5176 27.9434C86.8371 24.215 85.0781 20.6684 82.2088 17.7988C79.3375 14.9293 75.7875 13.1672 72.0625 12.4814L72.7189 8.90235C77.1346 9.70781 81.3738 11.8164 84.7834 15.226C88.1895 18.6318 90.2961 22.8729 91.1002 27.2902Z" fill="#FCFBF7" stroke="#FCFBF7" stroke-width="1.5625"/>
<path d="M78.3469 21.6584C80.4812 23.7928 81.7633 26.4719 82.2039 29.2404L78.6109 29.8164C78.2785 27.7594 77.3426 25.8051 75.7707 24.2332V24.2316C74.1953 22.6596 72.2428 21.7221 70.1875 21.3912L70.767 17.7982C73.532 18.2406 76.2096 19.5227 78.3436 21.657L78.3469 21.6584Z" fill="#FCFBF7" stroke="#FCFBF7" stroke-width="1.5625"/>
</g>
<defs>
<clipPath id="clip0_3177_1239">
<rect width="100" height="100" fill="white" transform="matrix(1 0 0 -1 0 100)"/>
</clipPath>
</defs>
</svg>
