<svg width="32" height="23" viewBox="0 0 32 23" fill="none" xmlns="http://www.w3.org/2000/svg">
<path d="M13.1773 0.739298C13.813 1.34103 14.1887 2.09033 14.2479 2.98575C14.2461 3.16172 14.2393 3.33714 14.2325 3.51297C14.2021 4.35507 14.3482 5.10681 14.9121 5.75467C15.25 6.05147 15.6727 6.05543 16.1006 6.04887C16.4587 6.01367 16.7494 5.88194 16.9843 5.59829C17.2716 5.1524 17.627 4.56064 17.6377 4.01568C17.615 3.90301 17.5886 3.79107 17.5591 3.68007C17.4985 3.39442 17.4974 3.11732 17.4967 2.8258C17.4957 2.77272 17.4947 2.71964 17.4936 2.66494C17.4936 1.97354 17.7096 1.44261 18.1452 0.921861C18.7733 0.283344 19.8086 0.00887952 20.6637 0C21.6066 0.0704399 22.3688 0.449758 22.9953 1.18821C23.2223 1.49606 23.3749 1.83643 23.5225 2.18969C23.723 2.66234 23.9806 2.94573 24.4173 3.19141C24.7998 3.41669 25.14 3.66573 25.4755 3.96069C25.5147 3.99211 25.5539 4.02353 25.5943 4.0559C26.3087 4.64685 26.7606 5.4848 27.2165 6.28451C27.4007 6.60415 27.5911 6.91988 27.7811 7.23588C27.8213 7.30282 27.8616 7.36975 27.903 7.43871C28.1729 7.88737 28.4443 8.33504 28.7168 8.78208C28.7531 8.84169 28.7894 8.9013 28.8268 8.96272C29.0139 9.26973 29.202 9.57605 29.3916 9.8815C30.648 11.912 30.648 11.912 30.9407 13.0398C30.9596 13.1074 30.9784 13.1749 30.9978 13.2445C31.2777 14.4508 31.2436 15.9403 30.8813 17.1224C30.8686 17.1644 30.8559 17.2064 30.8428 17.2496C30.5543 18.1686 30.1145 18.9978 29.515 19.7425C29.4676 19.8019 29.4202 19.8613 29.3714 19.9225C28.1935 21.3189 26.4498 22.2381 24.6499 22.3811C24.415 22.3892 24.1808 22.3916 23.9458 22.3893C23.9045 22.3892 23.8632 22.389 23.8207 22.3888C23.1428 22.3843 22.5013 22.3284 21.8518 22.119C21.8108 22.1059 21.7699 22.0928 21.7277 22.0794C19.979 21.5019 18.5848 20.3087 17.634 18.7067C17.5519 18.5758 17.4698 18.4449 17.3874 18.3142C17.337 18.2192 17.337 18.2192 17.337 18.0973C15.9255 18.1275 15.9255 18.1275 14.4856 18.1583C14.3679 18.3794 14.2503 18.6006 14.1291 18.8285C13.0389 20.5784 11.4294 21.7935 9.44333 22.2522C7.66352 22.6306 5.848 22.3809 4.26791 21.4487C4.20826 21.4135 4.1486 21.3783 4.08714 21.342C2.4836 20.3398 1.38129 18.7851 0.881827 16.9396C0.862836 16.8718 0.843845 16.804 0.824279 16.7342C0.544549 15.5214 0.58502 14.0463 0.941232 12.857C0.953963 12.8131 0.966694 12.7691 0.979811 12.7238C1.27373 11.7314 1.74758 10.9208 2.34514 10.0907C3.0564 9.10051 3.64601 8.04441 4.22929 6.97193C5.14356 5.29131 5.14356 5.29131 5.63422 4.6919C5.67236 4.64391 5.71049 4.59591 5.74978 4.54647C6.2134 3.98757 6.76686 3.53757 7.39038 3.17998C7.88073 2.89485 8.01719 2.62006 8.22648 2.09537C8.52487 1.36203 9.08111 0.651022 9.79257 0.304669C10.9271 -0.159892 12.2134 -0.0923271 13.1773 0.739298ZM4.37558 11.8326C3.57697 12.7624 3.14729 13.9771 3.18168 15.2163C3.29813 16.5908 3.90368 17.7824 4.91858 18.6788C5.96722 19.5193 7.11694 19.8195 8.42626 19.7425C9.66288 19.5826 10.7867 18.9361 11.5562 17.9336C12.3069 16.8587 12.638 15.6235 12.4881 14.3118C12.3042 13.2283 11.8542 12.3542 11.0995 11.5774C11.0551 11.5304 11.0107 11.4835 10.9649 11.4351C10.0204 10.4951 8.80829 10.2024 7.52799 10.2204C6.28132 10.2618 5.22191 10.9342 4.37558 11.8326ZM20.4372 11.8097C19.5737 12.8498 19.1742 14.1008 19.2505 15.456C19.4003 16.7451 20.0219 17.8544 20.9732 18.6988C22.0605 19.5501 23.3426 19.8922 24.6942 19.7121C25.9589 19.4592 27.0368 18.7619 27.7881 17.6875C28.4674 16.5857 28.7182 15.3328 28.5014 14.0452C28.3272 13.2536 27.9953 12.5712 27.4952 11.943C27.4661 11.9039 27.4369 11.8648 27.4068 11.8245C26.7245 10.9452 25.6514 10.4121 24.5844 10.2369C22.9722 10.0981 21.5595 10.5955 20.4372 11.8097ZM15.0945 14.3613C14.9372 14.6597 14.8842 14.9449 14.9385 15.2791C15.0537 15.5584 15.1718 15.7223 15.4175 15.8923C15.7595 16.018 16.0677 16.0182 16.4051 15.8732C16.6647 15.7223 16.78 15.5237 16.8618 15.2334C16.9132 14.9096 16.8615 14.6542 16.6835 14.3804C16.4347 14.1223 16.2173 14.0063 15.863 13.9957C15.5192 13.9993 15.3397 14.1188 15.0945 14.3613Z" fill="#F78712"/>
</svg>
