<svg width="45" height="50" viewBox="0 0 45 50" fill="none" xmlns="http://www.w3.org/2000/svg">
<path d="M1.15789 13.6866C0.517575 15.6075 1.55572 17.6838 3.47662 18.3241C4.11929 18.5374 4.76711 18.7361 5.41564 18.9304C6.60223 19.2864 8.26235 19.7608 10.1628 20.236C12.2951 20.7691 14.8317 21.3296 17.3884 21.7109C17.2198 24.9838 16.8099 27.3321 16.4289 28.8902L8.68933 44.3696C7.7838 46.1807 8.51789 48.3831 10.329 49.2886C12.14 50.1942 14.3422 49.4598 15.2478 47.6491L22.9674 32.2097L30.6871 47.6491C31.5926 49.4598 33.7946 50.1942 35.6057 49.2886C37.4169 48.3831 38.1509 46.1807 37.2453 44.3696L29.5058 28.8902C29.1249 27.3321 28.715 24.9838 28.5463 21.7109C31.1032 21.3296 33.6395 20.7691 35.7718 20.236C37.6724 19.7608 39.3325 19.2864 40.5189 18.9304C41.1631 18.7372 41.8061 18.5396 42.4444 18.3286C44.3274 17.7038 45.4053 15.5718 44.7769 13.6866C44.1368 11.7659 42.0606 10.7278 40.1398 11.3677C39.5672 11.5571 38.9901 11.7338 38.4123 11.9072C37.3073 12.2386 35.7594 12.6809 33.9937 13.1223C30.3791 14.0259 26.1603 14.846 22.9674 14.846C19.7744 14.846 15.5557 14.0259 11.9412 13.1223C10.1753 12.6809 8.62748 12.2386 7.52265 11.9072C6.95188 11.736 6.38233 11.5603 5.81603 11.3747C3.91137 10.7448 1.79626 11.7714 1.15789 13.6866Z" fill="#FCFBF7"/>
<path d="M28.4899 5.67128C28.4899 8.70853 26.0276 11.1707 22.9905 11.1707C19.9533 11.1707 17.491 8.70853 17.491 5.67128C17.491 2.63407 19.9533 0.171875 22.9905 0.171875C26.0276 0.171875 28.4899 2.63407 28.4899 5.67128Z" fill="#FCFBF7"/>
</svg>
