<svg width="139" height="138" viewBox="0 0 139 138" fill="none" xmlns="http://www.w3.org/2000/svg">
<path d="M117.832 0.375854C116.619 1.04965 116.485 1.72343 116.458 6.38606V10.7792L80.0462 10.8331L43.6077 10.9139L42.2062 12.4771L40.7777 14.0403L39.8075 13.0161C39.2954 12.4502 38.8372 11.9111 38.8372 11.8033C38.8372 11.5069 37.3279 10.7792 36.708 10.7792C35.5761 10.7792 34.8214 11.453 32.7731 14.202C31.6142 15.7383 30.59 16.9241 30.4822 16.7894C30.3744 16.6816 29.4042 15.3879 28.3531 13.9325C27.248 12.4232 26.1161 11.1834 25.7388 11.0487C24.7955 10.6714 12.5055 10.6983 10.7537 11.0756C5.71373 12.1267 1.37453 16.466 0.323419 21.5059C-0.107806 23.5273 -0.107806 125.243 0.323419 127.264C1.37453 132.304 5.71373 136.643 10.7537 137.694C12.8829 138.152 19.2704 138.071 20.2137 137.613C21.5343 136.913 21.5882 136.535 21.5882 126.132V116.429H61.4226C93.6028 116.402 101.338 116.348 101.85 116.052C102.2 115.863 103.063 114.677 103.764 113.411L105.003 111.093L106.216 113.384C106.998 114.893 107.672 115.783 108.157 116.052C109.073 116.537 125.028 116.591 127.292 116.133C132.332 115.082 136.671 110.743 137.723 105.703C138.154 103.681 138.154 12.7466 137.723 10.7253C136.671 5.68532 132.332 1.34612 127.292 0.294998C125.244 -0.136215 118.641 -0.0823212 117.832 0.375854ZM128.128 6.27826C129.826 7.1407 131.092 8.43439 131.928 10.2132L132.494 11.453L132.575 51.8264L132.629 92.1729L131.605 91.4991C129.772 90.2863 127.589 89.6934 124.624 89.5317L121.848 89.3969V63.6312V37.8385L123.762 36.3832C126.026 34.6583 126.43 34.1462 126.43 32.8795C126.43 31.6127 125.999 31.0467 123.735 29.3757L121.848 27.9743V16.6546V5.33495L124.22 5.44275C126.133 5.52361 126.915 5.71227 128.128 6.27826ZM26.0352 19.8888C28.9999 23.9315 29.7006 24.4706 31.2638 24.0932C32.0724 23.8776 32.6114 23.3656 34.525 20.8321L36.7889 17.8135L38.1634 19.2959C39.4302 20.6434 39.6188 20.7513 40.7238 20.7513C41.8827 20.7513 41.9906 20.6704 44.0928 18.4604L46.2489 16.1695H61.5844H76.8928L76.785 18.7838C76.6233 21.9641 76.3538 22.7726 73.47 28.8367C72.1763 31.5049 71.0174 34.3887 70.7479 35.4398C70.128 38.135 70.3706 40.7493 71.4486 43.0402C73.0657 46.5439 75.0332 48.188 80.8817 50.9909C84.574 52.7428 85.5982 53.5513 86.4337 55.384C87.5926 57.8636 87.2692 59.3728 84.1428 65.7334C82.9569 68.1321 81.9058 70.7195 81.6902 71.6358C80.2887 78.239 84.7358 82.9285 91.1772 81.6888C93.7106 81.1767 97.1874 79.6404 103.144 76.3254C110.933 72.0401 115.029 70.0726 116.242 70.0726C116.35 70.0726 116.458 75.1665 116.458 81.3923C116.458 93.79 116.485 93.9517 117.994 94.5447C118.398 94.7064 120.5 94.895 122.657 94.922C126.996 95.0298 128.101 95.3263 130.014 96.9973C132.494 99.1803 133.249 103.385 131.739 106.511C130.904 108.236 129.583 109.503 127.804 110.338C126.645 110.877 126.026 110.904 118.829 110.985L111.121 111.066L109.019 107.104C107.186 103.681 106.782 103.088 106.001 102.765C104.896 102.307 103.791 102.495 103.036 103.304C102.739 103.627 101.688 105.514 100.718 107.481L98.9392 111.039H94.4922H90.0452V110.284C90.0452 109.88 89.8566 108.856 89.6409 107.993C88.2934 102.819 85.4634 100.339 78.5908 98.3718C73.6587 96.9434 71.4756 95.6497 71.4217 94.1404C71.3947 93.7361 71.3678 91.8765 71.3139 90.0168C71.26 87.5373 71.0713 86.1897 70.667 84.8421C69.2386 80.3142 64.7107 76.8375 59.024 75.8942L58.0267 75.7325L59.4552 72.8756C61.4765 68.8598 62.1234 66.3533 62.1503 62.6609C62.1503 57.082 60.3715 52.7697 56.4096 48.7C54.1188 46.3552 51.5045 44.7381 48.2703 43.6331C45.8716 42.7976 45.4673 42.7437 42.0714 42.7437C38.7025 42.7437 38.2443 42.7976 36.0073 43.5792C32.7731 44.6842 30.5631 46.0049 28.1644 48.2958C25.065 51.2604 23.1514 54.6833 22.289 58.8069C20.8875 65.5448 23.1514 72.0401 30.1588 81.6888C30.5092 82.1469 30.3475 82.2278 27.8679 82.9824C24.6337 83.9796 21.8308 84.4378 20.3754 84.2222C19.7825 84.1144 17.5455 83.4406 15.3893 82.7129C13.2332 81.9852 10.5111 81.2575 9.32524 81.0958C8.13938 80.9341 6.76485 80.7454 6.27972 80.6915L5.41727 80.5568L5.47117 51.2604L5.55202 21.9641L6.36057 20.5087C7.33083 18.7568 8.84012 17.4093 10.6459 16.7355C11.8587 16.2503 12.7211 16.1964 17.6802 16.1964L23.3401 16.1695L26.0352 19.8888ZM116.512 23.3386L116.593 30.5077L117.401 31.2354C117.859 31.6397 118.533 32.1518 118.883 32.4213L119.53 32.8795L118.883 33.3376C118.533 33.6071 117.859 34.1192 117.401 34.5235L116.593 35.2512L116.512 49.832L116.431 64.3858L115.299 64.6823C112.119 65.4909 108.615 67.108 101.5 71.0968C92.1205 76.3793 89.0211 77.4304 87.4309 75.8403C86.272 74.6813 86.5954 73.0643 89.048 67.9974C90.18 65.6526 91.3658 63.0113 91.6893 62.1219C92.4978 59.7771 92.6326 57.082 92.0666 55.1145C90.8538 50.8831 88.8324 48.8348 83.1187 46.0318C78.7795 43.9296 77.0546 42.609 76.273 40.7493C75.3297 38.5393 75.7339 36.4371 77.9709 31.9361C81.1781 25.5756 82.2293 22.2605 82.2293 18.4873V16.1695H99.3435H116.431L116.512 23.3386ZM45.6829 48.5114C46.8418 48.8078 48.4589 49.4277 49.3214 49.9128C51.208 50.9909 54.0918 53.8747 55.089 55.7074C56.0054 57.4323 56.8948 60.8282 56.8948 62.634C56.8678 66.7576 54.523 71.7975 49.4561 78.5624C46.9766 81.8774 42.3948 87.3216 42.0714 87.3216C41.748 87.3216 37.1662 81.8774 34.6867 78.5624C29.1616 71.1776 27.0055 66.2455 27.3559 61.6907C27.814 55.4379 32.261 50.1015 38.3521 48.5114C40.9125 47.8376 43.0956 47.8376 45.6829 48.5114ZM60.7219 81.9044C62.6624 82.659 64.7646 84.5187 65.3845 86.028C65.7349 86.9174 65.8697 88.1302 65.9236 91.0949C65.9775 93.251 66.0853 95.3532 66.1931 95.8114C67.0555 99.2073 70.128 101.444 76.5694 103.385C80.3426 104.49 81.7441 105.11 82.8222 106.134C83.6307 106.862 84.6549 109.287 84.6549 110.365V111.039L47.6773 111.093L10.6728 111.174L9.08268 111.767C8.19328 112.117 7.00741 112.683 6.44143 113.06L5.41727 113.734V99.8272V85.9202L6.14496 86.0819C6.57618 86.1627 7.57339 86.2975 8.38194 86.3783C9.19049 86.4861 11.8587 87.2408 14.3113 88.0763C18.5966 89.5317 18.8661 89.5856 21.5882 89.5856C24.6876 89.5586 26.8707 89.1004 31.5064 87.4564L34.0937 86.5131L34.6597 87.1869C36.8428 89.882 40.1848 93.5205 40.7777 93.8978C41.6671 94.4369 42.4757 94.4369 43.3651 93.8978C44.1736 93.4127 49.6987 87.106 52.5017 83.4676L54.3344 81.0958L56.76 81.2036C58.4041 81.2845 59.6977 81.5001 60.7219 81.9044ZM16.1979 124.515V132.6H14.3652C9.67562 132.6 6.41447 130.121 5.63288 125.97C4.66262 120.688 8.46279 116.456 14.2574 116.429H16.1979V124.515Z" fill="#FCFBF7"/>
<path d="M39.456 54.2787C36.8687 55.1142 34.6856 57.1895 33.7153 59.7229C32.5025 62.9571 33.6345 67.5389 36.141 69.5333C38.0546 71.0426 39.5369 71.5547 42.0703 71.5547C45.8436 71.5547 48.377 70.0454 49.9132 66.946C52.851 60.9897 49.0508 54.3057 42.5285 54.0092C41.3696 53.9553 40.1298 54.0631 39.456 54.2787ZM43.7144 59.696C46.1131 60.9627 46.1131 64.6281 43.7144 65.8949C42.0703 66.7304 40.049 66.1913 39.1057 64.6012C37.273 61.6096 40.588 58.0789 43.7144 59.696Z" fill="#FCFBF7"/>
</svg>
