<svg width="183" height="150" viewBox="0 0 183 150" fill="none" xmlns="http://www.w3.org/2000/svg">
<path d="M5.55197 89.7884L5.50373 89.6006H5.30982H4.95782C3.70851 89.6006 2.51081 89.1087 1.62809 88.2339C0.745449 87.3592 0.25 86.1732 0.25 84.9372V60.3701C0.25 58.4825 1.00662 56.6717 2.35415 55.3362C3.70175 54.0007 5.52997 53.25 7.43673 53.25H47.0993C49.006 53.25 50.8343 54.0007 52.1819 55.3362C53.5294 56.6717 54.286 58.4825 54.286 60.3701V84.9372C54.286 86.1732 53.7906 87.3592 52.9079 88.2339C52.0252 89.1087 50.8275 89.6006 49.5782 89.6006H49.2262H49.0323L48.984 89.7884C48.4569 91.8409 47.2546 93.6613 45.5667 94.9617C43.8786 96.2622 41.8012 96.9684 39.6626 96.9684C37.5239 96.9684 35.4465 96.2622 33.7584 94.9617C32.0705 93.6613 30.8682 91.8409 30.3411 89.7884L30.2928 89.6006H30.0989H24.4371H24.2432L24.1949 89.7884C23.6678 91.8409 22.4655 93.6613 20.7776 94.9617C19.0895 96.2622 17.0121 96.9684 14.8735 96.9684C12.7348 96.9684 10.6574 96.2622 8.96935 94.9617C7.28137 93.6613 6.0791 91.8409 5.55197 89.7884ZM29.9969 57.9134V57.6634H29.7469H7.43673C6.7137 57.6634 6.01983 57.948 5.50789 58.4554C4.99588 58.9628 4.70782 59.6515 4.70782 60.3701V67.7402V67.9902H4.95782H29.7469H29.9969V67.7402V57.9134ZM49.5782 85.1872H49.8282V84.9372V72.6536V72.4036H49.5782H4.95782H4.70782V72.6536V84.9372V85.1872H4.95782H5.30982H5.50373L5.55197 84.9993C6.0791 82.9468 7.28137 81.1264 8.96935 79.826C10.6574 78.5255 12.7348 77.8193 14.8735 77.8193C17.0121 77.8193 19.0895 78.5255 20.7776 79.826C22.4655 81.1264 23.6678 82.9468 24.1949 84.9993L24.2432 85.1872H24.4371H30.0989H30.2928L30.3411 84.9993C30.8682 82.9468 32.0705 81.1264 33.7584 79.826C35.4465 78.5255 37.5239 77.8193 39.6626 77.8193C41.8012 77.8193 43.8786 78.5255 45.5667 79.826C47.2546 81.1264 48.4569 82.9468 48.984 84.9993L49.0323 85.1872H49.2262H49.5782ZM49.5782 67.9902H49.8282V67.7402V60.3701C49.8282 59.6515 49.5401 58.9628 49.0281 58.4554C48.5162 57.948 47.8223 57.6634 47.0993 57.6634H34.7047H34.4547V57.9134V67.7402V67.9902H34.7047H49.5782ZM11.981 91.6877C12.8374 92.2547 13.8439 92.5573 14.8735 92.5573C16.2539 92.5573 17.5783 92.0138 18.5551 91.0457C19.532 90.0776 20.0813 88.764 20.0813 87.3939C20.0813 86.3721 19.7755 85.3735 19.203 84.5244C18.6305 83.6752 17.817 83.0137 16.8657 82.6232C15.9143 82.2327 14.8677 82.1305 13.8579 82.3296C12.8481 82.5286 11.9202 83.02 11.1918 83.742C10.4633 84.464 9.96691 85.3841 9.76579 86.3861C9.56467 87.3882 9.66791 88.4268 10.0624 89.3706C10.4568 90.3143 11.1246 91.1206 11.981 91.6877ZM36.7701 91.6877C37.6265 92.2547 38.633 92.5573 39.6626 92.5573C41.043 92.5573 42.3674 92.0138 43.3442 91.0457C44.3211 90.0776 44.8704 88.764 44.8704 87.3939C44.8704 86.3721 44.5646 85.3735 43.9921 84.5244C43.4196 83.6752 42.6061 83.0137 41.6548 82.6232C40.7034 82.2327 39.6568 82.1305 38.647 82.3296C37.6372 82.5286 36.7093 83.02 35.9809 83.742C35.2524 84.464 34.756 85.3841 34.5549 86.3861C34.3538 87.3882 34.457 88.4268 34.8515 89.3706C35.2459 90.3143 35.9137 91.1206 36.7701 91.6877Z" fill="#FCFBF7" stroke="#FCFBF7" stroke-width="0.5"/>
<path d="M146.926 53.0721V60.2361H128V53.0721C128.124 50.6242 129.175 48.318 130.936 46.6297C132.697 44.9414 135.034 44 137.463 44C139.892 44 142.229 44.9414 143.99 46.6297C145.751 48.318 146.802 50.6242 146.926 53.0721Z" stroke="#FCFBF7" stroke-width="3" stroke-miterlimit="10"/>
<path d="M180.052 81.7267C180.046 82.9915 179.547 84.203 178.663 85.0997C177.779 85.9963 176.581 86.5063 175.327 86.5194H128V60.2344H158.752C161.551 60.2278 164.323 60.7793 166.911 61.857C169.498 62.9348 171.849 64.5176 173.828 66.5147C175.807 68.5117 177.376 70.8836 178.444 73.4942C179.512 76.1047 180.059 78.9024 180.052 81.7267Z" stroke="#FCFBF7" stroke-width="3" stroke-miterlimit="10"/>
<path d="M182.427 96.055H128V86.5195" stroke="#FCFBF7" stroke-width="3" stroke-miterlimit="10"/>
<path d="M179.528 76.9589H163.496C162.567 76.9556 161.648 76.7677 160.79 76.4059C159.933 76.0441 159.155 75.5155 158.5 74.8502C157.846 74.185 157.327 73.3961 156.974 72.5287C156.622 71.6613 156.442 70.7323 156.445 69.7948V60.2344H158.796C163.617 60.2431 168.293 61.9021 172.059 64.9401C175.825 67.978 178.458 72.2152 179.528 76.9589Z" stroke="#FCFBF7" stroke-width="3" stroke-miterlimit="10"/>
<path d="M146.938 67.4023V74.5664" stroke="#FCFBF7" stroke-width="3" stroke-miterlimit="10"/>
<path d="M137.48 67.4023V74.5664" stroke="#FCFBF7" stroke-width="3" stroke-miterlimit="10"/>
<path d="M132.725 96.055C135.335 96.055 137.451 93.9204 137.451 91.2873C137.451 88.6541 135.335 86.5195 132.725 86.5195C130.116 86.5195 128 88.6541 128 91.2873C128 93.9204 130.116 96.055 132.725 96.055Z" stroke="#FCFBF7" stroke-width="3" stroke-miterlimit="10"/>
<path d="M142.206 96.055C144.815 96.055 146.931 93.9204 146.931 91.2873C146.931 88.6541 144.815 86.5195 142.206 86.5195C139.596 86.5195 137.48 88.6541 137.48 91.2873C137.48 93.9204 139.596 96.055 142.206 96.055Z" stroke="#FCFBF7" stroke-width="3" stroke-miterlimit="10"/>
<path d="M161.116 96.055C163.726 96.055 165.841 93.9204 165.841 91.2873C165.841 88.6541 163.726 86.5195 161.116 86.5195C158.506 86.5195 156.391 88.6541 156.391 91.2873C156.391 93.9204 158.506 96.055 161.116 96.055Z" stroke="#FCFBF7" stroke-width="3" stroke-miterlimit="10"/>
<path d="M170.612 96.055C173.222 96.055 175.337 93.9204 175.337 91.2873C175.337 88.6541 173.222 86.5195 170.612 86.5195C168.002 86.5195 165.887 88.6541 165.887 91.2873C165.887 93.9204 168.002 96.055 170.612 96.055Z" stroke="#FCFBF7" stroke-width="3" stroke-miterlimit="10"/>
<path d="M72.038 147.753H108.954C117.236 147.753 124.336 141.545 125.519 133.188L125.992 131.039H54.9999L55.2365 133.188C56.4197 141.545 63.519 147.753 72.038 147.753Z" stroke="#FCFBF7" stroke-width="3" stroke-miterlimit="10" stroke-linecap="round" stroke-linejoin="round"/>
<path d="M62.0968 131.039H118.891L112.975 115.041C112.265 113.131 110.608 111.938 108.478 111.938H66.8296C64.2265 111.938 62.0968 114.086 62.0968 116.713V131.039Z" stroke="#FCFBF7" stroke-width="3" stroke-miterlimit="10" stroke-linecap="round" stroke-linejoin="round"/>
<path d="M107.057 121.488H114.156" stroke="#FCFBF7" stroke-width="3" stroke-miterlimit="10" stroke-linecap="round" stroke-linejoin="round"/>
<path d="M99.9695 123.877C100.206 123.877 100.679 123.877 100.916 123.638C101.153 123.399 101.389 123.399 101.626 123.161C101.626 122.922 101.863 122.922 101.863 122.922C101.863 122.683 102.099 122.683 102.099 122.444C102.099 122.206 102.099 122.206 102.336 121.967C102.336 121.728 102.336 121.728 102.336 121.489C102.336 121.25 102.336 120.773 102.099 120.534C102.099 120.295 101.863 120.057 101.626 119.818C101.389 119.579 101.153 119.34 100.916 119.34C100.443 119.102 99.9695 119.102 99.4962 119.102C99.2596 119.102 99.2596 119.102 99.023 119.34C98.7863 119.34 98.7863 119.579 98.5497 119.579C98.5497 119.579 98.313 119.818 98.0764 119.818C97.8398 120.057 97.6031 120.295 97.6031 120.534C97.6031 120.773 97.3665 121.25 97.3665 121.489C97.3665 122.206 97.6031 122.683 98.0764 123.161C98.7863 123.638 99.2596 123.877 99.9695 123.877Z" fill="#FCFBF7" stroke="#FCFBF7"/>
<path d="M92.868 123.877C93.1046 123.877 93.5779 123.877 93.8145 123.638C94.0512 123.399 94.2878 123.399 94.5245 123.161C94.5245 122.922 94.7611 122.922 94.7611 122.922C94.7611 122.683 94.9977 122.683 94.9977 122.444C94.9977 122.206 94.9977 122.206 95.2344 121.967C95.2344 121.728 95.2344 121.728 95.2344 121.489C95.2344 121.25 95.2344 120.773 94.9977 120.534C94.9977 120.295 94.7611 120.057 94.5245 119.818C94.2878 119.579 94.0512 119.34 93.8145 119.34C93.3412 119.102 92.868 119.102 92.3947 119.102C92.158 119.102 92.158 119.102 91.9214 119.34C91.6848 119.34 91.6848 119.579 91.4481 119.579C91.4481 119.579 91.2115 119.818 90.9748 119.818C90.7382 120.057 90.5016 120.295 90.5016 120.534C90.5016 120.773 90.2649 121.25 90.2649 121.489C90.2649 122.206 90.5016 122.683 90.9748 123.161C91.6848 123.638 92.158 123.877 92.868 123.877Z" fill="#FCFBF7" stroke="#FCFBF7"/>
<path d="M85.7781 123.877C86.0148 123.877 86.488 123.877 86.7247 123.638C86.9613 123.399 87.198 123.399 87.4346 123.161C87.4346 122.922 87.6712 122.922 87.6712 122.922C87.6712 122.683 87.9079 122.683 87.9079 122.444C87.9079 122.206 87.9079 122.206 88.1445 121.967C88.1445 121.728 88.1445 121.728 88.1445 121.489C88.1445 121.25 88.1445 120.773 87.9079 120.534C87.9079 120.295 87.6713 120.057 87.4346 119.818C87.198 119.579 86.9613 119.34 86.7247 119.34C86.2514 119.102 85.7781 119.102 85.3048 119.102C85.0682 119.102 85.0682 119.102 84.8316 119.34C84.5949 119.34 84.5949 119.579 84.3583 119.579C84.3583 119.579 84.1216 119.818 83.885 119.818C83.6484 120.057 83.4117 120.295 83.4117 120.534C83.4117 120.773 83.1751 121.25 83.1751 121.489C83.1751 122.206 83.4117 122.683 83.885 123.161C84.5949 123.638 85.0682 123.877 85.7781 123.877Z" fill="#FCFBF7" stroke="#FCFBF7"/>
<path d="M73.9328 111.938H83.3984L81.032 100H71.5664L73.9328 111.938Z" stroke="#FCFBF7" stroke-width="3" stroke-miterlimit="10" stroke-linecap="round" stroke-linejoin="round"/>
<path d="M92.8703 111.938H102.336L99.9695 100H90.5039L92.8703 111.938Z" stroke="#FCFBF7" stroke-width="3" stroke-miterlimit="10" stroke-linecap="round" stroke-linejoin="round"/>
<mask id="path-20-inside-1_1577_81" fill="white">
<path d="M106.046 31.7162C106.736 30.9305 106.666 29.7277 105.89 29.0292C105.114 28.3307 103.926 28.4015 103.236 29.1872L106.046 31.7162ZM89.6009 47.5807L90.9304 48.9263L90.9692 48.8867L91.006 48.8452L89.6009 47.5807ZM85.3971 49.6849V51.5881H85.4772L85.5569 51.5809L85.3971 49.6849ZM89.2015 31.522C89.7855 30.653 89.5633 29.4692 88.7044 28.8781C87.846 28.2869 86.6766 28.5123 86.0927 29.3813L89.2015 31.522ZM121.959 27.8983L124.679 33.407L128.042 31.7048L125.322 26.1957L121.959 27.8983ZM66.6553 33.5749L56.9419 29.6417L55.5454 33.1759L65.2588 37.1091L66.6553 33.5749ZM55.7601 27.8743V22.8388H52V27.8743H55.7601ZM55.7601 22.8388V9.51612H52V22.8388H55.7601ZM57.6401 7.6129H61.2354V3.80645H57.6401V7.6129ZM62.9705 8.78327L68.1006 21.2309L71.5708 19.7651L66.4407 7.31759L62.9705 8.78327ZM73.3058 24.742H116.914V20.9355H73.3058V24.742ZM103.236 29.1872L88.1957 46.3162L91.006 48.8452L106.046 31.7162L103.236 29.1872ZM85.3971 47.7817H81.6574V51.5881H85.3971V47.7817ZM79.938 45.3086L89.2015 31.522L86.0927 29.3813L76.829 43.1679L79.938 45.3086ZM81.6574 47.7817C80.4666 47.7817 79.5942 46.6801 79.8067 45.5374L76.1115 44.8332C75.4708 48.2777 78.0696 51.5881 81.6574 51.5881V47.7817ZM88.2713 46.2347C87.2286 47.2903 87.0117 47.4753 86.8319 47.5651C86.6977 47.6321 86.536 47.6762 85.2369 47.7885L85.5569 51.5809C86.5819 51.4926 87.5821 51.4359 88.4988 50.9772C89.37 50.541 90.093 49.774 90.9304 48.9263L88.2713 46.2347ZM122.998 36.1613H97.121V39.9678H122.998V36.1613ZM82.5318 36.1613H79.9218V39.9678H82.5318V36.1613ZM104.282 21.7193L90.3675 2.3514L87.3264 4.59024L101.241 23.9582L104.282 21.7193ZM85.8062 0H82.7746V3.80645H85.8062V0ZM77.8231 8.44377L86.0705 23.75L89.3711 21.9275L81.1241 6.62101L77.8231 8.44377ZM82.7746 0C78.4934 0 75.7731 4.63896 77.8231 8.44377L81.1241 6.62101C80.4408 5.35278 81.3475 3.80645 82.7746 3.80645V0ZM90.3675 2.3514C89.3061 0.874038 87.6106 0 85.8062 0V3.80645C86.4074 3.80645 86.9729 4.0978 87.3264 4.59024L90.3675 2.3514ZM68.1006 21.2309C68.977 23.3572 71.0299 24.742 73.3058 24.742V20.9355C72.5472 20.9355 71.8629 20.4738 71.5708 19.7651L68.1006 21.2309ZM61.2354 7.6129C61.9941 7.6129 62.6784 8.07447 62.9705 8.78327L66.4407 7.31759C65.5643 5.19124 63.5114 3.80645 61.2354 3.80645V7.6129ZM56.9419 29.6417C56.2281 29.3527 55.7601 28.6527 55.7601 27.8743H52C52 30.2092 53.4041 32.3088 55.5454 33.1759L56.9419 29.6417ZM65.2588 37.1091C69.9224 38.9975 74.899 39.9678 79.9218 39.9678V36.1613C75.3774 36.1613 70.8747 35.2836 66.6553 33.5749L65.2588 37.1091ZM76.829 43.1679C76.5712 43.5516 76.2445 44.118 76.1115 44.8332L79.8067 45.5374C79.8032 45.556 79.8018 45.5477 79.8212 45.5066C79.8413 45.4635 79.8766 45.4 79.938 45.3086L76.829 43.1679ZM124.679 33.407C125.304 34.6723 124.396 36.1613 122.998 36.1613V39.9678C127.19 39.9678 129.918 35.5009 128.042 31.7048L124.679 33.407ZM55.7601 9.51612C55.7601 8.46497 56.6018 7.6129 57.6401 7.6129V3.80645C54.5252 3.80645 52 6.36275 52 9.51612H55.7601ZM125.322 26.1957C123.729 22.972 120.475 20.9355 116.914 20.9355V24.742C119.05 24.742 121.003 25.9639 121.959 27.8983L125.322 26.1957Z"/>
</mask>
<path d="M87.3264 4.59024L77.4455 -8.83161L97.2071 18.0122L87.3264 4.59024ZM62.9705 8.78327L56.4857 -6.57006L69.4552 24.1367L62.9705 8.78327ZM65.2588 37.1091L49.7583 30.9845L80.7591 43.2344L65.2588 37.1091ZM53.88 6.17211H52V39.5054H53.88V6.17211ZM92.0873 41.576L94.8975 44.105L117.195 19.3274L114.385 16.7984L92.0873 41.576ZM76.6403 43.1083L79.7491 45.249L98.6539 17.7951L95.5451 15.6543L76.6403 43.1083ZM78.9662 -9.95109L77.4456 -8.83169L97.2071 18.0122L98.7277 16.8928L78.9662 -9.95109ZM87.5302 22.1224L89.1807 21.211L73.0675 -7.96902L71.417 -7.05764L87.5302 22.1224ZM58.2208 -7.30292L56.4857 -6.57006L69.4553 24.1366L71.1904 23.4037L58.2208 -7.30292ZM50.4568 29.2169L49.7585 30.9839L80.7591 43.2344L81.4573 41.4675L50.4568 29.2169ZM87.8356 30.5111L86.2811 29.4407L67.3769 56.8951L68.9314 57.9654L87.8356 30.5111ZM74.8391 61.5573L76.6867 61.9094L82.9266 29.1654L81.079 28.8133L74.8391 61.5573ZM118.834 17.6856L117.153 18.5367L132.206 48.2773L133.888 47.4261L118.834 17.6856ZM132.206 48.2773L135.569 46.575L120.516 16.8345L117.153 18.5367L132.206 48.2773ZM117.794 11.3261L114.43 13.0287L129.487 42.7679L132.85 41.0653L117.794 11.3261ZM41.4413 23.5171L40.0449 27.0514L71.046 39.3005L72.4425 35.7662L41.4413 23.5171ZM80.7593 43.2338L82.1558 39.6996L51.1548 27.4502L49.7583 30.9845L80.7593 43.2338ZM55.7601 6.17211H52V39.5054H55.7601V6.17211ZM52 44.541H55.7601V11.2077H52V44.541ZM55.7601 -7.15054H52V26.1828H55.7601V-7.15054ZM77.9021 7.6129V3.80645H44.5687V7.6129H77.9021ZM40.9735 3.80645V7.6129H74.3068V3.80645H40.9735ZM74.586 36.584L78.0562 35.1182L65.0854 4.41197L61.6152 5.87783L74.586 36.584ZM59.956 -8.0358L56.4858 -6.57012L69.4552 24.1367L72.9254 22.671L59.956 -8.0358ZM133.58 24.742V20.9355H100.247V24.742H133.58ZM56.6392 20.9355V24.742H89.9725V20.9355H56.6392ZM64.9907 47.7817V51.5881H98.3241V47.7817H64.9907ZM67.3769 56.8951L70.4859 59.0358L89.3901 31.5814L86.2811 29.4407L67.3769 56.8951ZM82.9267 29.1654L79.2316 28.4612L72.9915 61.2052L76.6866 61.9094L82.9267 29.1654ZM139.665 39.9678V36.1613H106.331V39.9678H139.665ZM63.2552 36.1613V39.9678H96.5885V36.1613H63.2552ZM80.4867 -11.0704L77.4455 -8.83161L97.2073 18.0121L100.248 15.7732L80.4867 -11.0704ZM66.1079 0V3.80645H99.4412V0H66.1079ZM102.473 3.80645V0H69.1395V3.80645H102.473ZM73.0676 -7.96906L69.7666 -6.1463L85.8797 23.0338L89.1806 21.2111L73.0676 -7.96906ZM106.046 31.7162L81.0005 9.72036L80.9985 9.72262L106.046 31.7162ZM103.236 29.1872L78.1902 7.19136L78.1882 7.19361L103.236 29.1872ZM89.6009 47.5807L111.898 22.8031L65.8899 71.0094L89.6009 47.5807ZM90.9304 48.9263L114.645 72.3516L114.701 72.2943L114.758 72.2367L90.9304 48.9263ZM90.9692 48.8867L114.796 72.1971L115.359 71.6223L115.893 71.021L90.9692 48.8867ZM91.006 48.8452L115.93 70.9795L115.992 70.9093L116.054 70.8388L91.006 48.8452ZM85.3971 49.6849L118.613 46.8853L52.0637 49.6849H85.3971ZM85.4772 51.5881V84.9215H86.986L88.4886 84.7851L85.4772 51.5881ZM89.2015 31.522L61.5343 12.9308L61.5338 12.9315L89.2015 31.522ZM88.7044 28.8781L69.799 56.3316L69.8047 56.3355L88.7044 28.8781ZM86.0927 29.3813L58.4255 10.79L58.4251 10.7905L86.0927 29.3813ZM87.3264 4.59024L60.2463 24.0269L60.2506 24.0328L60.2549 24.0387L87.3264 4.59024ZM81.1241 6.62101L110.469 -9.18985L110.469 -9.18995L81.1241 6.62101ZM62.9705 8.78327L93.7891 -3.91814L93.7891 -3.91816L62.9705 8.78327ZM65.2588 37.1091L52.748 68.0056L52.7481 68.0057L65.2588 37.1091ZM76.829 43.1679L49.1615 24.5771L49.1607 24.5782L76.829 43.1679ZM79.8067 45.5374L112.581 51.616L47.0351 39.4436L79.8067 45.5374ZM124.679 33.407L154.566 18.6457V18.6457L124.679 33.407ZM121.959 27.8983L92.072 42.6596L92.072 42.6596L121.959 27.8983ZM128.042 31.7048L98.1554 46.4653L98.1564 46.4673L128.042 31.7048ZM125.322 26.1957L155.209 11.4352L155.208 11.433L125.322 26.1957ZM66.6553 33.5749L79.1672 2.67886L79.1661 2.67839L66.6553 33.5749ZM56.9419 29.6417L69.4526 -1.25482L69.4483 -1.25657L56.9419 29.6417ZM55.5454 33.1759L43.0343 64.0723L43.0346 64.0724L55.5454 33.1759ZM68.1006 21.2309L37.282 33.9323L37.2823 33.9329L68.1006 21.2309ZM71.5708 19.7651L40.7523 32.4666L40.7525 32.4671L71.5708 19.7651ZM66.4407 7.31759L97.2592 -5.38398L97.2592 -5.38402L66.4407 7.31759ZM88.1957 46.3162L63.1479 24.3226L41.4211 49.0667L65.8982 71.0938L88.1957 46.3162ZM85.3971 47.7817H118.73V14.4483H85.3971V47.7817ZM79.938 45.3086L52.2703 26.718L52.2677 26.722L79.938 45.3086ZM76.1115 44.8332L108.883 50.9288L108.883 50.9286L76.1115 44.8332ZM88.2713 46.2347L111.984 22.8077L88.2696 -1.19556L64.5571 22.8094L88.2713 46.2347ZM86.8319 47.5651L101.717 77.3903L101.726 77.386L101.735 77.3816L86.8319 47.5651ZM85.2369 47.7885L82.3664 14.579L49.2248 17.4437L52.0216 50.5911L85.2369 47.7885ZM88.4988 50.9772L103.414 80.7872L103.423 80.783L88.4988 50.9772ZM97.121 36.1613V2.82801H63.7877V36.1613H97.121ZM97.121 39.9678H63.7877V73.3011H97.121V39.9678ZM82.5318 36.1613H115.865V2.82801H82.5318V36.1613ZM82.5318 39.9678V73.3011H115.865V39.9678H82.5318ZM104.282 21.7193L124.044 48.5625L150.577 29.0288L131.353 2.27074L104.282 21.7193ZM90.3675 2.3514L117.439 -17.0972L117.438 -17.0985L90.3675 2.3514ZM101.241 23.9582L74.1691 43.4067L93.8454 70.7954L121.003 50.8014L101.241 23.9582ZM77.8231 8.44377L48.4784 24.255L48.4785 24.2553L77.8231 8.44377ZM86.0705 23.75L56.7259 39.5616L72.7011 69.2098L102.183 52.9303L86.0705 23.75ZM89.3711 21.9275L105.484 51.1078L134.365 35.1604L118.716 6.11664L89.3711 21.9275ZM79.8212 45.5066L109.977 59.711L109.996 59.6695L110.016 59.628L79.8212 45.5066ZM131.092 53.712C143.8 39.2424 142.561 17.1873 128.189 4.25289L83.5913 53.8055C70.7721 42.2681 69.6729 22.6187 81.0005 9.72036L131.092 53.712ZM128.189 4.25289C113.574 -8.90119 91.0991 -7.50763 78.1902 7.19136L128.282 51.183C116.753 64.3107 96.6546 65.5626 83.5913 53.8055L128.189 4.25289ZM65.8899 71.0094L67.2195 72.355L114.641 25.4976L113.312 24.152L65.8899 71.0094ZM114.758 72.2367L114.796 72.1971L67.1419 25.5763L67.1032 25.6159L114.758 72.2367ZM115.893 71.021L115.93 70.9795L66.0824 26.7109L66.0456 26.7524L115.893 71.021ZM113.304 24.0676L111.898 22.8031L67.3033 72.3583L68.7085 73.6228L113.304 24.0676ZM52.0637 49.6849V51.5881H118.73V49.6849H52.0637ZM85.3971 84.9215H85.4772V18.2548H85.3971V84.9215ZM88.4886 84.7851L88.5683 84.7779L82.5455 18.3839L82.4657 18.3911L88.4886 84.7851ZM118.772 48.7813L118.613 46.8853L52.1815 52.4845L52.3413 54.3805L118.772 48.7813ZM116.869 50.1133C127.556 34.2091 123.63 12.452 107.604 1.42069L69.8047 56.3355C55.4961 46.4864 52.0152 27.0969 61.5343 12.9308L116.869 50.1133ZM107.61 1.42455C91.347 -9.77461 69.2785 -5.36133 58.4255 10.79L113.76 47.9726C104.075 62.3859 84.3451 66.3485 69.799 56.3316L107.61 1.42455ZM92.072 42.6596L94.7928 48.1683L154.566 18.6457L151.845 13.137L92.072 42.6596ZM157.93 16.9442L155.209 11.4352L95.4346 40.9562L98.1554 46.4653L157.93 16.9442ZM79.1661 2.67839L69.4526 -1.25482L44.4311 60.5381L54.1446 64.4713L79.1661 2.67839ZM43.0346 64.0724L52.748 68.0056L77.7696 6.21269L68.0562 2.27948L43.0346 64.0724ZM89.0934 27.8743V22.8388H22.4268V27.8743H89.0934ZM18.6667 22.8388V27.8743H85.3333V22.8388H18.6667ZM89.0934 22.8388V9.51612H22.4268V22.8388H89.0934ZM18.6667 9.51612V22.8388H85.3333V9.51612H18.6667ZM57.6401 40.9462H61.2354V-25.7204H57.6401V40.9462ZM61.2354 -29.5269H57.6401V37.1398H61.2354V-29.5269ZM32.1519 21.4847L37.282 33.9323L98.9192 8.52952L93.7891 -3.91814L32.1519 21.4847ZM102.389 7.06349L97.2592 -5.38398L35.6222 20.0192L40.7523 32.4666L102.389 7.06349ZM73.3058 58.0753H116.914V-8.59133H73.3058V58.0753ZM116.914 -12.3978H73.3058V54.2689H116.914V-12.3978ZM78.1882 7.19361L63.1479 24.3226L113.244 68.3097L128.284 51.1807L78.1882 7.19361ZM65.8982 71.0938L68.7085 73.6228L113.304 24.0676L110.493 21.5386L65.8982 71.0938ZM116.054 70.8388L131.094 53.7097L80.9985 9.72262L65.9582 26.8516L116.054 70.8388ZM85.3971 14.4483H81.6574V81.115H85.3971V14.4483ZM81.6574 84.9215H85.3971V18.2548H81.6574V84.9215ZM118.73 51.5881V47.7817H52.0637V51.5881H118.73ZM107.606 63.8992L116.869 50.1126L61.5338 12.9315L52.2703 26.718L107.606 63.8992ZM58.4251 10.7905L49.1615 24.5771L104.497 61.7587L113.76 47.9721L58.4251 10.7905ZM81.6574 14.4483C102.032 14.4483 116.046 32.9824 112.578 51.6312L47.0351 39.4436C43.1424 60.3778 58.9017 81.115 81.6574 81.115V14.4483ZM43.3403 38.7376C39.0544 61.7793 56.3096 84.9215 81.6574 84.9215V18.2548C99.8296 18.2548 111.887 34.776 108.883 50.9288L43.3403 38.7376ZM64.5571 22.8094C63.9918 23.3817 64.2298 23.1239 64.7277 22.6684C65.2144 22.2231 67.8346 19.7952 71.9293 17.7486L101.735 77.3816C106.009 75.2451 108.828 72.6798 109.728 71.8557C110.64 71.0214 111.508 70.1433 111.985 69.6601L64.5571 22.8094ZM71.9469 17.7398C72.5101 17.4587 73.3956 17.0367 74.5116 16.5951C75.623 16.1552 76.682 15.8065 77.6653 15.5293C79.4681 15.0212 80.8942 14.7915 81.4515 14.7066C82.4322 14.5572 83.061 14.519 82.3664 14.579L88.1074 80.998C88.7119 80.9458 90.0711 80.8293 91.491 80.613C93.5583 80.2981 97.3782 79.5557 101.717 77.3903L71.9469 17.7398ZM52.0216 50.5911L52.3416 54.3835L118.772 48.7783L118.452 44.986L52.0216 50.5911ZM88.4181 84.7912C88.7133 84.7658 88.3431 84.798 88.7847 84.7601C88.9702 84.7442 89.2602 84.7189 89.5951 84.6859C90.2507 84.6211 91.3124 84.5048 92.576 84.2931C95.1354 83.8643 99.0663 82.9628 103.414 80.7872L73.5833 21.1671C77.0146 19.4503 79.987 18.8064 81.5608 18.5427C82.3317 18.4136 82.8939 18.3567 83.045 18.3418C83.0676 18.3395 83.2729 18.3209 82.6956 18.3706L88.4181 84.7912ZM103.423 80.783C107.484 78.7493 110.358 76.3729 111.933 74.9659C112.748 74.2382 113.409 73.5919 113.817 73.1859C114.161 72.8442 114.606 72.3906 114.645 72.3516L67.2162 25.5009C67.1456 25.5724 67.0788 25.6402 67.0274 25.6924C66.9711 25.7496 66.9336 25.7876 66.8972 25.8245C66.8242 25.8985 66.8102 25.9122 66.8224 25.9001C66.8326 25.8899 67.1011 25.6217 67.5215 25.2462C68.308 24.5437 70.3844 22.7688 73.5749 21.1713L103.423 80.783ZM114.643 25.4993L111.984 22.8077L64.5587 69.6618L67.2179 72.3533L114.643 25.4993ZM122.998 2.82801H97.121V69.4947H122.998V2.82801ZM63.7877 36.1613V39.9678H130.454V36.1613H63.7877ZM97.121 73.3011H122.998V6.63446H97.121V73.3011ZM82.5318 2.82801H79.9218V69.4947H82.5318V2.82801ZM79.9218 73.3011H82.5318V6.63446H79.9218V73.3011ZM115.865 39.9678V36.1613H49.1984V39.9678H115.865ZM131.353 2.27074L117.439 -17.0972L63.2961 21.8L77.2103 41.1679L131.353 2.27074ZM60.2549 24.0387L74.1691 43.4067L128.312 4.50976L114.398 -14.8583L60.2549 24.0387ZM121.003 50.8014L124.044 48.5625L84.5193 -5.1239L81.4781 -2.88495L121.003 50.8014ZM85.8062 -33.3333H82.7746V33.3333H85.8062V-33.3333ZM82.7746 37.1398H85.8062V-29.5269H82.7746V37.1398ZM48.4785 24.2553L56.7259 39.5616L115.415 7.93848L107.168 -7.36779L48.4785 24.2553ZM102.183 52.9303L105.484 51.1078L73.2583 -7.25278L69.9577 -5.43026L102.183 52.9303ZM118.716 6.11664L110.469 -9.18985L51.7791 22.4319L60.0261 37.7384L118.716 6.11664ZM82.7746 -33.3333C52.581 -33.3333 34.7893 -1.15102 48.4784 24.255L107.168 -7.3675C116.757 10.4289 104.406 33.3333 82.7746 33.3333V-33.3333ZM110.469 -9.18995C121.424 11.1425 107.26 37.1398 82.7746 37.1398V-29.5269C55.4347 -29.5269 39.4574 -0.436976 51.7792 22.432L110.469 -9.18995ZM117.438 -17.0985C110.175 -27.2066 98.4474 -33.3333 85.8062 -33.3333V33.3333C76.7739 33.3333 68.4367 28.9547 63.2971 21.8013L117.438 -17.0985ZM85.8062 37.1398C75.5785 37.1398 66.1011 32.1841 60.2463 24.0269L114.406 -14.8464C107.845 -23.9885 97.2363 -29.5269 85.8062 -29.5269V37.1398ZM37.2823 33.9329C43.2327 48.3702 57.3398 58.0753 73.3058 58.0753V-8.59133C84.72 -8.59133 94.7212 -1.6558 98.9189 8.52892L37.2823 33.9329ZM73.3058 -12.3978C86.2416 -12.3978 97.6088 -4.53525 102.389 7.06306L40.7525 32.4671C46.117 45.4829 58.8529 54.2689 73.3058 54.2689V-12.3978ZM61.2354 40.9462C48.3045 40.9462 36.934 33.0879 32.1519 21.4847L93.7891 -3.91816C88.4227 -16.939 75.6837 -25.7204 61.2354 -25.7204V40.9462ZM97.2592 -5.38402C91.3088 -19.8217 77.2016 -29.5269 61.2354 -29.5269V37.1398C49.8212 37.1398 39.8198 30.2042 35.6222 20.0192L97.2592 -5.38402ZM69.4483 -1.25657C81.5068 3.62426 89.0934 15.272 89.0934 27.8743H22.4268C22.4268 42.0335 30.9494 55.0812 44.4355 60.5399L69.4483 -1.25657ZM18.6667 27.8743C18.6667 43.5951 28.1296 58.0368 43.0343 64.0723L68.0566 2.27963C78.6785 6.58089 85.3333 16.8233 85.3333 27.8743H18.6667ZM52.7481 68.0057C61.3792 71.5005 70.6031 73.3011 79.9218 73.3011V6.63446C79.1949 6.63446 78.4656 6.49451 77.7695 6.21265L52.7481 68.0057ZM79.9218 2.82801C79.6728 2.82801 79.4179 2.78039 79.1672 2.67886L54.1434 64.4709C62.3314 67.7868 71.0819 69.4947 79.9218 69.4947V2.82801ZM49.1607 24.5782C47.7818 26.6305 44.6683 31.5974 43.3402 38.7378L108.883 50.9286C107.821 56.6385 105.361 60.4726 104.497 61.7575L49.1607 24.5782ZM47.0323 39.4588C47.1855 38.6325 47.3605 37.864 47.5441 37.158C47.5916 36.9755 47.6321 36.8267 47.6308 36.8316C47.6295 36.8363 47.6162 36.8852 47.5998 36.9468C47.5914 36.9781 47.5743 37.0423 47.5531 37.1236C47.539 37.1776 47.4881 37.3723 47.4269 37.6226C47.393 37.7624 47.3061 38.1335 47.2541 38.365C47.161 38.801 46.8746 40.377 46.7151 41.522C46.7446 49.8068 77.0078 78.7626 108.303 62.8373C109.52 60.6492 110.829 57.736 111.075 57.091C111.185 56.7878 111.352 56.3104 111.411 56.1369C111.449 56.0236 111.511 55.8328 111.536 55.7553C111.586 55.602 111.623 55.4817 111.637 55.4357C111.67 55.3304 111.769 55.0062 111.692 55.2562C111.61 55.5271 111.512 55.837 111.397 56.178C110.955 57.4923 110.466 58.6718 109.977 59.711L49.6659 31.3021C49.157 32.3824 48.6593 33.5867 48.2136 34.9108C48.098 35.2543 47.9994 35.5656 47.9168 35.8371C47.8406 36.0873 47.9392 35.7632 47.9719 35.6579C47.9862 35.6119 48.0236 35.4916 48.0729 35.3384C48.098 35.2609 48.1605 35.0701 48.1982 34.9568C48.2569 34.7833 48.4238 34.3059 48.5341 34.0027C48.7799 33.3576 50.0888 30.4444 51.3063 28.2564C82.6014 12.331 112.865 41.2868 112.894 49.5717C112.735 50.7167 112.448 52.2926 112.355 52.7287C112.303 52.9602 112.216 53.3313 112.182 53.4711C112.121 53.7213 112.07 53.916 112.056 53.97C112.035 54.0514 112.018 54.1156 112.009 54.1468C111.993 54.2084 111.98 54.2573 111.978 54.262C111.977 54.2667 112.018 54.1175 112.065 53.9345C112.25 53.2261 112.426 52.4516 112.581 51.616L47.0323 39.4588ZM110.016 59.628C109.096 61.5938 108.171 63.0576 107.608 63.8953L52.2677 26.722C51.5823 27.7423 50.5865 29.3333 49.6269 31.3851L110.016 59.628ZM94.7928 48.1683C84.7735 27.8827 99.0185 2.82801 122.998 2.82801V69.4947C149.773 69.4947 165.835 41.4619 154.566 18.6457L94.7928 48.1683ZM122.998 73.3011C152.562 73.3011 170.452 42.2952 157.929 16.9422L98.1564 46.4673C89.3834 28.7067 101.819 6.63446 122.998 6.63446V73.3011ZM89.0934 9.51612C89.0934 26.4886 75.3948 40.9462 57.6401 40.9462V-25.7204C37.8088 -25.7204 22.4268 -9.55864 22.4268 9.51612H89.0934ZM57.6401 -29.5269C35.7317 -29.5269 18.6667 -11.6604 18.6667 9.51612H85.3333C85.3333 24.3859 73.3186 37.1398 57.6401 37.1398V-29.5269ZM155.208 11.433C148.069 -3.0187 133.318 -12.3978 116.914 -12.3978V54.2689C107.631 54.2689 99.3895 48.9627 95.4357 40.9584L155.208 11.433ZM116.914 58.0753C106.207 58.0753 96.663 51.9548 92.072 42.6596L151.845 13.137C145.343 -0.0271132 131.894 -8.59133 116.914 -8.59133V58.0753Z" fill="#FCFBF7" mask="url(#path-20-inside-1_1577_81)"/>
</svg>
