<svg width="123" height="124" viewBox="0 0 123 124" fill="none" xmlns="http://www.w3.org/2000/svg">
<path d="M60.4189 0.228447C57.8244 0.761322 54.9416 2.40838 53.332 4.32187C51.3381 6.64713 49.9688 10.2077 49.9688 13.0658C49.9688 15.8028 51.1219 19.0727 52.8756 21.3011C53.7164 22.3668 53.7885 22.5364 53.4041 22.6817C52.4672 23.0208 50.4973 24.4257 49.2721 25.6367L47.9748 26.9205L45.4283 26.654C40.4795 26.1454 39.0381 26.4118 37.0201 28.2284C34.4977 30.5052 33.777 33.8962 35.1463 36.8997L35.8189 38.353L35.0982 39.0796C33.6568 40.6298 33.4406 41.4291 32.0473 50.8028C31.3025 55.6955 30.702 60.3945 30.702 61.2665C30.702 63.4222 31.4227 65.3115 32.8641 66.789C34.2094 68.1454 35.6508 68.8962 37.8129 69.2838C38.6777 69.4533 39.4945 69.6471 39.6387 69.744C39.8068 69.8651 39.6387 71.609 39.0381 75.4602C38.2453 80.5952 38.0531 81.4187 36.3475 86.5779C34.4256 92.4152 34.3535 92.8755 34.6658 96.7024C34.7139 97.3806 34.1854 97.6955 17.8975 107.19C8.64844 112.567 0.84082 117.242 0.528516 117.581C0.0720703 118.138 0 118.478 0 120.294C0 122.304 0.0240234 122.377 0.816797 123.176L1.63359 124H61.5H121.366L122.183 123.176L123 122.353V99.2215V76.09L122.375 75.3391C121.607 74.4187 120.454 74.1523 119.493 74.6852C119.108 74.9031 116.802 76.8409 114.352 79.045C111.901 81.2249 109.883 82.9931 109.835 82.9447C109.787 82.9204 106.328 74.2007 102.124 63.616C94.7244 44.9412 94.4842 44.3115 94.9166 43.9239C95.7814 43.1246 96.7904 41.2596 97.1988 39.7094C97.9436 36.7544 97.1748 33.654 95.1328 31.4014C93.7154 29.827 92.1299 28.9309 90.0879 28.5675C89.223 28.398 88.4062 28.2284 88.2861 28.2042C88.142 28.1558 87.5174 26.8236 86.8688 25.2008C86.124 23.2873 85.4994 22.1004 85.115 21.7855C83.6016 20.5987 81.1992 21.7855 81.1992 23.7475C81.1992 23.9897 81.5596 25.1281 82.016 26.2665L82.8328 28.3253H78.9891H75.1453L74.1604 27.5018C73.6078 27.0416 72.3826 26.1454 71.4217 25.4914L69.692 24.2803L71.1574 22.9966C74.8811 19.6783 76.4186 14.7371 75.2414 9.96547C74.5928 7.37377 73.5598 5.58138 71.6859 3.69212C68.7551 0.761322 64.4068 -0.570862 60.4189 0.228447ZM66.617 5.99315C68.1545 6.8409 69.5238 8.41529 70.1725 10.135C70.8451 11.9516 70.749 15.1004 69.9322 16.6506C67.1936 21.9793 60.443 22.7786 56.7193 18.225C54.9176 16.0208 54.4852 12.1696 55.7344 9.5537C57.7043 5.46028 62.7012 3.83744 66.617 5.99315ZM63.6621 27.0174C65.8242 27.7682 68.5629 29.3668 71.1334 31.4257C72.1904 32.2734 73.3195 33.0485 73.6559 33.1696C73.9922 33.3149 77.6678 33.4118 82.016 33.4118C89.6795 33.4118 89.7756 33.4118 90.5924 33.9689C91.8896 34.8409 92.4902 35.9551 92.4902 37.4568C92.4902 39.0312 92.0578 39.9516 90.8807 40.8478L90.0158 41.526L82.4965 41.5987L74.9771 41.6713L69.6439 38.9827C63.7102 35.9793 63.3018 35.8824 62.1246 37.3115C61.3559 38.2077 61.3078 39.3945 61.9805 40.2665C62.2928 40.654 64.2867 41.8167 66.8572 43.1246C69.2596 44.3357 71.2775 45.3772 71.3256 45.4499C71.3977 45.4983 70.9412 47.654 70.3166 50.2457C69.2355 54.6298 69.1875 54.9931 69.4998 55.744C69.8121 56.4706 70.749 57.1488 76.4666 60.6609L83.0971 64.7301L89.2951 72.263C92.7064 76.4049 95.7334 80.2803 96.0457 80.8616C96.6703 82.1454 96.7664 84.4706 96.2139 85.8028C94.7965 89.218 90.4963 90.4291 87.6375 88.2249C87.157 87.8374 83.025 83.2353 78.4365 77.9793C73.848 72.7232 69.5479 67.8547 68.8752 67.1523C67.4818 65.7232 68.7311 66.0865 55.0377 62.962C50.3531 61.8962 46.4613 60.9758 46.4133 60.9274C46.3412 60.8547 47.0859 55.9135 50.257 34.9862C50.7375 31.8132 50.8336 31.5225 51.6744 30.3841C54.5572 26.5087 58.7133 25.3461 63.6621 27.0174ZM44.9959 31.6194C45.4764 31.7163 45.6445 31.8859 45.6205 32.2734C45.6205 33.0243 45.0199 36.5364 44.8998 36.6575C44.8277 36.7059 41.008 36.2457 40.4074 36.1004C40.3834 36.0762 40.1432 35.7129 39.8789 35.2769C39.1342 34.0658 39.2543 33.0243 40.2393 32.0312C41.0561 31.2077 41.0801 31.1834 42.6896 31.353C43.6025 31.4257 44.6115 31.571 44.9959 31.6194ZM44.107 41.7198C44.1791 41.7682 40.9359 63.3253 40.7197 64.3184C40.6236 64.8028 40.5756 64.827 38.8939 64.4395C36.9961 64.0519 35.9391 63.2769 35.6508 62.09C35.4586 61.3149 37.8369 44.3841 38.3174 43.1973C38.4855 42.7855 38.918 42.2042 39.3023 41.9135C39.951 41.3807 40.1432 41.3565 42.017 41.5018C43.1461 41.5987 44.083 41.6955 44.107 41.7198ZM97.8955 66.2803C102.22 77.18 105.775 86.2146 105.799 86.3599C105.799 86.5052 105.127 87.2319 104.262 87.9827C102.748 89.3149 102.652 89.3633 101.331 89.3633H99.9615L100.586 88.0069C101.931 85.0277 101.883 81.5398 100.442 78.609C99.9615 77.6644 97.3189 74.2249 93.0188 69.0173L86.3162 60.9032L80.4064 57.2699C77.1633 55.2596 74.5447 53.5883 74.5928 53.5156C74.6168 53.4429 75.0012 51.8928 75.4336 50.0762L76.2023 46.7336L82.8328 46.6609C86.4844 46.6367 89.6074 46.5883 89.7516 46.5398C89.9197 46.5156 93.3791 54.872 97.8955 66.2803ZM51.4822 67.2249C52.9236 67.564 53.332 67.7336 53.332 68.0727C53.332 68.3149 52.8516 72.4568 52.251 77.3253L51.1699 86.1419L49.0078 91.4464C47.8066 94.353 46.6535 96.9204 46.4613 97.1384C46.2691 97.3564 45.6686 97.7197 45.14 97.9862C43.2182 98.8339 40.5756 97.744 39.7348 95.7336C39.1582 94.3772 39.3504 93.3599 41.1762 87.7163C42.8098 82.7024 43.05 81.7336 43.8428 76.6471C45.0199 69.0416 45.4043 66.5225 45.5244 66.1834C45.5965 65.9897 46.149 66.0381 47.6145 66.3772C48.7195 66.6194 50.4492 67.007 51.4822 67.2249ZM61.9564 69.6471L65.1756 70.3495L73.6078 79.9896C78.2443 85.2699 82.0641 89.7024 82.1121 89.7993C82.1361 89.9204 77.4516 92.6575 71.6859 95.9031L61.1877 101.789L57.0797 101.014C50.2811 99.7301 50.6414 99.827 51.0258 99.2215C51.218 98.9308 52.3951 96.1453 53.6684 93.045L55.9746 87.4014L57.1037 78.0762C57.8244 72.2146 58.3289 68.7993 58.4971 68.8478C58.6172 68.8962 60.1787 69.2595 61.9564 69.6471ZM118.147 100.796L118.075 119.035L62.8934 119.107C32.5277 119.131 7.6875 119.083 7.71152 118.986C7.71152 118.865 14.2219 115.014 22.1977 110.388L36.6838 101.983L39.4225 102.588C45.0439 103.799 60.7793 106.803 61.548 106.803C62.1727 106.803 65.0795 105.277 73.6318 100.481L84.8988 94.1592L88.7666 94.2319C90.8807 94.2803 95.325 94.3045 98.6643 94.2561L104.718 94.2076L109.571 89.8962C112.238 87.5467 115.192 84.9308 116.129 84.1073C117.066 83.2595 117.907 82.5813 118.027 82.5813C118.123 82.5813 118.171 90.7924 118.147 100.796Z" fill="#FCFBF7"/>
</svg>
