<svg width="54" height="53" viewBox="0 0 54 53" fill="none" xmlns="http://www.w3.org/2000/svg">
<path d="M53.5209 48.9468L44.3018 23.0409C43.6543 21.3366 42.2051 20.283 40.5401 20.283C38.8751 20.283 37.4568 21.3366 36.7476 23.1029L27.5594 48.9468C27.1277 50.1553 27.7444 51.4878 28.9468 51.9216C30.1493 52.3554 31.4752 51.7357 31.9068 50.5271L33.8185 45.1662H47.2309L49.1426 50.5271C49.4817 51.4878 50.3759 52.0765 51.3317 52.0765C51.5784 52.0765 51.8559 52.0455 52.1025 51.9526C53.305 51.5188 53.9217 50.1863 53.49 48.9778L53.5209 48.9468ZM35.5143 40.4871L40.5709 26.2637L45.6276 40.4871H35.5143ZM27.6519 13.2488C20.6835 24.3114 14.3936 31.0048 6.74699 35.467C6.37699 35.684 5.97616 35.7769 5.60616 35.7769C4.8045 35.7769 4.03367 35.3741 3.60201 34.6304C2.95451 33.5148 3.32451 32.0894 4.43451 31.4696C10.9094 27.6891 16.2128 22.2662 22.1636 13.2797H2.76952C1.50536 13.2797 0.457031 12.2262 0.457031 10.9557C0.457031 9.68515 1.50536 8.63156 2.76952 8.63156H14.3319V2.49596C14.3319 1.22546 15.3803 0.171875 16.6444 0.171875C17.9086 0.171875 18.9569 1.22546 18.9569 2.49596V8.63156H30.5193C31.7835 8.63156 32.8318 9.68515 32.8318 10.9557C32.8318 12.2262 31.7835 13.2797 30.5193 13.2797H27.621L27.6519 13.2488ZM27.7752 35.7769C27.3744 35.7769 26.9735 35.684 26.6035 35.467C24.5994 34.2895 22.6569 32.988 20.8377 31.6246C19.8202 30.8499 19.6044 29.3934 20.3752 28.3708C21.1461 27.3482 22.5952 27.1313 23.6127 27.906C25.2777 29.1765 27.0969 30.3541 28.9468 31.4386C30.0568 32.0894 30.4268 33.5148 29.7793 34.6304C29.3477 35.3741 28.5768 35.7769 27.7752 35.7769Z" fill="#FCFBF7"/>
</svg>
