<svg width="57" height="43" viewBox="0 0 57 43" fill="none" xmlns="http://www.w3.org/2000/svg">
<path d="M34.7138 22.8934C35.2397 23.3235 35.7127 23.7957 36.1842 24.2842C36.2899 24.3854 36.3956 24.4867 36.5044 24.591C38.3415 26.4565 39.0982 29.1069 39.1223 31.6562C39.095 34.5459 38.2164 37.1853 36.1417 39.2455C36.0138 39.3689 35.886 39.4923 35.7542 39.6195C35.653 39.7252 35.5518 39.8308 35.4474 39.9397C33.5637 41.7947 30.8758 42.5321 28.3016 42.5576C25.4468 42.5293 22.8245 41.6229 20.7929 39.5769C20.6695 39.4491 20.5461 39.3213 20.4189 39.1895C20.3133 39.0883 20.2076 38.987 20.0987 38.8827C19.1753 37.945 18.6384 36.803 18.1258 35.6065C18.06 35.4537 17.9943 35.3009 17.9265 35.1435C17.1519 32.9478 17.2095 30.0061 18.1258 27.8672C18.1635 27.7761 18.2012 27.685 18.2401 27.5912C18.8714 26.0962 19.6861 24.9767 20.8489 23.8542C20.9501 23.7485 21.0514 23.6429 21.1557 23.534C24.6234 20.1192 30.8967 20.0517 34.7138 22.8934ZM23.1443 27.9058C21.9944 29.4635 21.8416 31.1522 21.9955 33.0267C22.3541 34.7645 23.4562 36.1454 24.8619 37.183C26.4823 38.0845 28.2451 38.3208 30.0662 37.945C31.7134 37.3811 33.1304 36.2863 33.9829 34.7539C34.7189 33.1697 34.9513 31.2623 34.3748 29.5781C33.5834 27.7783 32.3396 26.4654 30.5152 25.6995C27.7449 24.7082 24.9996 25.7619 23.1443 27.9058Z" fill="#FCFBF7"/>
<path d="M54.9292 22.1833C55.5346 22.771 55.7549 23.3098 55.8104 24.1427C55.6728 24.941 55.4205 25.339 54.8072 25.8626C54.1323 26.3125 53.4477 26.2293 52.6574 26.1492C52.2346 26.0299 51.8398 25.8856 51.4352 25.7154C50.0438 25.168 48.3071 25.2493 46.9425 25.824C46.598 26.0043 46.598 26.0043 46.3154 26.4269C46.2001 26.8977 46.1694 27.1339 46.3512 27.5824C46.8355 28.0263 47.4182 28.2318 48.0224 28.4631C48.2419 28.5492 48.4615 28.6353 48.6811 28.7214C49.024 28.8547 49.367 28.9876 49.7102 29.1204C52.2811 30.1176 54.6586 31.1329 55.9537 33.7452C56.4769 35.2235 56.4883 37.118 55.8563 38.5633C54.8171 40.4388 53.1675 41.732 51.1267 42.3646C48.3483 43.012 45.4605 42.3436 43.0549 40.9113C42.1689 40.2989 41.2537 39.6021 40.7617 38.6181C40.6871 37.8688 40.6696 37.2365 40.9946 36.5489C41.571 35.9271 42.0266 35.5774 42.8847 35.5188C43.8604 35.5598 44.4682 36.1013 45.198 36.6967C46.6307 37.8382 48.1441 38.0891 49.9343 37.9015C50.552 37.7319 50.962 37.4352 51.4391 37.0058C51.729 36.4744 51.7858 36.0568 51.6541 35.4651C50.6881 34.0161 48.1712 33.451 46.5937 32.839C44.7199 32.1098 43.0911 31.3926 42.1541 29.5044C41.4746 27.8848 41.4648 26.3679 42.0516 24.716C42.8887 23.0125 44.1399 21.9068 45.9213 21.2763C48.5665 20.3777 52.5903 20.5056 54.9292 22.1833Z" fill="#FCFBF7"/>
<path d="M14.2554 21.9926C14.7651 22.428 15.2214 22.8384 15.3068 23.5272C15.3259 25.0438 15.3259 25.0438 14.6854 25.719C13.8962 26.2782 13.187 26.2563 12.249 26.1489C11.8267 26.0289 11.4312 25.8852 11.0268 25.7151C9.7608 25.217 8.02725 25.2209 6.76526 25.7318C6.40203 25.922 6.1757 26.096 5.94285 26.4356C5.80213 26.9551 5.74615 27.3631 5.94285 27.8688C6.23106 27.9788 6.52144 28.0845 6.81747 28.1713C7.58814 28.4078 8.33206 28.7203 9.08044 29.0187C9.36271 29.131 9.64553 29.2419 9.9284 29.3527C12.3161 30.2973 14.3228 31.3901 15.5492 33.7404C16.0796 35.0113 16.0355 36.7481 15.5991 38.0445C14.7702 39.9641 13.4535 41.2232 11.5721 42.095C9.20658 42.9833 6.40662 42.6511 4.12671 41.6931C2.6933 41.0397 1.08479 40.0807 0.353349 38.6178C0.295397 37.9257 0.261048 37.2696 0.523542 36.6203C0.95418 36.1303 1.42728 35.6475 2.09783 35.5739C2.95109 35.5494 3.4022 35.6192 4.07968 36.1814C5.81969 37.6126 7.28904 38.0588 9.52587 37.9012C10.2079 37.7277 10.5665 37.4471 11.0307 36.9249C11.2885 36.3772 11.3436 36.0628 11.2457 35.4648C10.2561 34.0157 7.77464 33.4553 6.1853 32.8387C4.15882 32.0501 2.55456 31.2581 1.58949 29.2035C1.38998 28.709 1.25694 28.2604 1.21327 27.7255C1.20422 27.6246 1.19517 27.5237 1.18584 27.4198C1.10791 25.8561 1.6339 24.3303 2.64648 23.1392C5.42252 20.1517 10.8049 20.1018 14.2554 21.9926Z" fill="#FCFBF7"/>
<path d="M39.0396 4.69522C40.5484 5.97985 40.5484 5.97985 40.6626 6.9458C40.6891 7.7439 40.6079 8.34583 40.0552 8.95005C39.4968 9.39647 38.9319 9.57379 38.2189 9.56812C37.237 9.42226 36.6148 8.72651 35.8989 8.09013C33.3031 6.05029 30.2714 5.11562 26.9772 5.44765C24.2011 5.79384 21.738 6.95414 19.7703 8.94053C19.2903 9.34293 18.8464 9.50887 18.2212 9.54013C17.4817 9.45707 16.9827 9.31366 16.4073 8.80673C15.9277 8.11941 15.8733 7.46854 15.9773 6.65692C16.6089 4.79942 19.0505 3.42499 20.7158 2.5902C26.7664 -0.328932 33.8455 0.423519 39.0396 4.69522Z" fill="#FCFBF7"/>
<path d="M31.5894 10.0946C31.7012 10.1449 31.813 10.1951 31.9281 10.2469C32.917 10.7387 34.0526 11.4973 34.4978 12.5316C34.6883 13.3388 34.5833 13.996 34.214 14.7346C33.7681 15.2408 33.3892 15.4934 32.7108 15.5811C31.6143 15.6253 30.9942 15.2079 30.1562 14.5376C29.2155 13.9885 28.3556 13.9786 27.2898 14.1076C26.5135 14.3871 25.9152 14.8771 25.2833 15.3975C24.5303 15.6485 23.7429 15.6817 23.0171 15.3258C22.4531 14.9547 22.1868 14.4551 21.987 13.821C21.8942 13.0521 22.039 12.6223 22.4169 11.9578C24.565 9.46961 28.6254 8.66207 31.5894 10.0946Z" fill="#FCFBF7"/>
</svg>
