<svg width="139" height="136" viewBox="0 0 139 136" fill="none" xmlns="http://www.w3.org/2000/svg">
<path d="M50.2635 25.6561V43.5473H3V25.6561C3.30988 19.543 5.93484 13.7835 10.3327 9.56722C14.7305 5.35094 20.5653 3 26.6318 3C32.6982 3 38.533 5.35094 42.9308 9.56722C47.3287 13.7835 49.9536 19.543 50.2635 25.6561Z" stroke="#FCFBF7" stroke-width="6" stroke-miterlimit="10"/>
<path d="M132.99 97.2207C132.974 100.379 131.728 103.405 129.52 105.644C127.312 107.884 124.32 109.157 121.19 109.19H3V43.547H79.7955C86.7857 43.5306 93.7102 44.9077 100.171 47.5992C106.633 50.2907 112.503 54.2437 117.446 59.231C122.389 64.2183 126.307 70.1418 128.974 76.6612C131.642 83.1806 133.006 90.1675 132.99 97.2207Z" stroke="#FCFBF7" stroke-width="6" stroke-miterlimit="10"/>
<path d="M138.921 133.001H3V109.188" stroke="#FCFBF7" stroke-width="6" stroke-miterlimit="10"/>
<path d="M131.69 85.3138H91.655C89.3345 85.3056 87.0384 84.8364 84.8977 83.9328C82.757 83.0293 80.8137 81.7092 79.1786 80.0478C77.5436 78.3864 76.2488 76.4164 75.3683 74.2502C74.4879 72.0839 74.0389 69.7639 74.047 67.4226V43.5469H79.9163C91.9572 43.5687 103.634 47.7118 113.039 55.2986C122.444 62.8854 129.019 73.4672 131.69 85.3138Z" stroke="#FCFBF7" stroke-width="6" stroke-miterlimit="10"/>
<path d="M50.2891 61.4414V79.3326" stroke="#FCFBF7" stroke-width="6" stroke-miterlimit="10"/>
<path d="M26.6875 61.4414V79.3326" stroke="#FCFBF7" stroke-width="6" stroke-miterlimit="10"/>
<path d="M14.8004 133.001C21.3176 133.001 26.6009 127.67 26.6009 121.094C26.6009 114.518 21.3176 109.188 14.8004 109.188C8.28323 109.188 3 114.518 3 121.094C3 127.67 8.28323 133.001 14.8004 133.001Z" stroke="#FCFBF7" stroke-width="6" stroke-miterlimit="10"/>
<path d="M38.4879 133.001C45.0051 133.001 50.2884 127.67 50.2884 121.094C50.2884 114.518 45.0051 109.188 38.4879 109.188C31.9707 109.188 26.6875 114.518 26.6875 121.094C26.6875 127.67 31.9707 133.001 38.4879 133.001Z" stroke="#FCFBF7" stroke-width="6" stroke-miterlimit="10"/>
<path d="M85.6989 133.001C92.2161 133.001 97.4993 127.67 97.4993 121.094C97.4993 114.518 92.2161 109.188 85.6989 109.188C79.1817 109.188 73.8984 114.518 73.8984 121.094C73.8984 127.67 79.1817 133.001 85.6989 133.001Z" stroke="#FCFBF7" stroke-width="6" stroke-miterlimit="10"/>
<path d="M109.418 133.001C115.935 133.001 121.218 127.67 121.218 121.094C121.218 114.518 115.935 109.188 109.418 109.188C102.9 109.188 97.6172 114.518 97.6172 121.094C97.6172 127.67 102.9 133.001 109.418 133.001Z" stroke="#FCFBF7" stroke-width="6" stroke-miterlimit="10"/>
</svg>
