<svg width="147" height="150" viewBox="0 0 147 150" fill="none" xmlns="http://www.w3.org/2000/svg">
<path d="M68.2571 0.316025C63.0805 0.990005 57.7025 2.83614 53.0722 5.56137C46.2563 9.51736 39.7854 16.433 34.9539 24.9311C32.8257 28.6526 31.7616 30.9383 30.0073 35.4511L28.8282 38.528L24.9169 40.5792C19.6252 43.3631 16.5479 45.3264 13.2406 48.0517C7.17242 53.0333 3.57752 57.8684 1.50685 63.7291C-1.94427 73.5751 0.557791 83.5677 8.75418 92.5639C10.7961 94.8203 15.0812 98.4539 17.6696 100.154C18.8199 100.886 19.2513 101.414 19.6539 102.41C20.488 104.637 22.9325 108.153 25.377 110.615C30.6112 115.89 37.3121 119.347 48.0969 122.336C50.6852 123.04 53.4461 123.89 54.2514 124.212C58.479 125.911 62.9654 128.754 65.8413 131.508L67.5669 133.179L66.9342 134.439C65.2662 137.809 66.963 142.673 70.3278 144.256C70.903 144.519 70.9893 144.783 70.9893 146.043C70.9893 147.919 71.737 149.501 72.8011 149.853C74.6704 150.527 76.1659 148.827 76.1659 146.043C76.1659 144.783 76.2522 144.519 76.8274 144.256C80.1922 142.673 81.889 137.809 80.221 134.439L79.5883 133.179L81.3138 131.508C84.5061 128.432 89.4815 125.413 93.9967 123.86C95.1758 123.45 97.8504 122.629 99.9211 122.073C106.737 120.227 112.633 117.677 117.205 114.542C121.462 111.641 125.603 106.776 127.501 102.469C128.019 101.296 128.479 100.74 129.572 100.066C131.873 98.6005 136.388 94.791 138.43 92.5346C141.104 89.6042 143.002 86.7911 144.498 83.6263C146.482 79.4066 147 77.0623 147 72.2272C147 68.6228 146.914 67.8316 146.252 65.5459C144.699 60.3299 142.111 56.0809 137.855 51.7146C133.397 47.1139 128.968 43.9785 121.778 40.2862L118.356 38.528L117.09 35.3046C110.016 17.1949 98.4831 5.20973 84.5061 1.48816C79.1281 0.0522919 73.4625 -0.357971 68.2571 0.316025ZM75.7058 5.44415C78.2654 6.32327 81.8315 10.4551 84.2185 15.2023C87.6121 22.0007 90.5456 33.1947 91.9548 44.6817C92.7888 51.6267 93.3064 60.0662 92.8751 60.3592C92.6737 60.4764 91.3221 60.7988 89.8266 61.0625C79.8184 62.8793 66.7041 62.85 57.0985 60.9746C55.5743 60.6815 54.2226 60.3592 54.1363 60.2713C54.0213 60.1834 54.1076 57.7219 54.2801 54.7915C55.6606 32.4621 60.9523 14.6162 68.2571 7.67123C70.9317 5.12181 72.9736 4.50644 75.7058 5.44415ZM61.5562 7.96428C54.769 18.1619 50.4839 34.865 49.2472 55.8757L49.0747 59.1577L46.1412 58.1028C42.6614 56.8721 39.2678 55.2604 36.9095 53.7073C34.8388 52.33 31.6753 49.3996 31.4452 48.6377C31.2152 47.9051 32.7107 42.4547 34.3787 37.9419C39.5554 23.9934 47.4354 13.9422 57.1848 8.93129C58.9104 8.05219 61.815 6.79213 62.304 6.73352C62.3615 6.73352 62.0164 7.29028 61.5562 7.96428ZM88.9926 8.49174C99.1158 13.3561 106.68 22.5575 112.316 36.7698C113.524 39.8466 115.854 47.3777 115.854 48.2568C115.854 48.9601 112.978 51.8318 110.706 53.3556C108.06 55.1724 104.781 56.7841 101.014 58.1028L98.0805 59.1577L97.9079 55.8757C96.6713 34.5427 92.1273 17.2535 85.1676 7.34889C84.6787 6.67491 84.6787 6.64561 85.3689 6.88004C85.7715 6.99725 87.382 7.70055 88.9926 8.49174ZM26.5849 46.059C25.9235 48.4912 24.9457 54.3226 24.6868 57.3995C24.2554 62.8207 24.8306 65.3408 27.3902 68.9745C36.2193 81.4871 63.9432 87.9925 89.8841 83.6263C108.146 80.5787 120.944 72.3444 122.44 62.7035C122.9 59.7145 122.181 52.623 120.858 47.3484C120.628 46.4107 120.484 45.5902 120.57 45.5022C120.772 45.2678 124.855 47.6121 127.645 49.5461C132.419 52.8575 136.733 57.3409 139.12 61.4434C139.753 62.5277 140.673 64.6961 141.191 66.2199C142.025 68.7107 142.14 69.3847 142.14 72.3737C142.14 74.718 141.996 76.3297 141.651 77.6483C137.596 93.0328 117.378 105.135 89.2514 109.033C82.9531 109.912 68.9761 110.117 62.0739 109.443C32.3368 106.571 9.78952 93.8826 5.50439 77.6483C4.81416 75.0696 4.84292 69.9415 5.50439 67.5386C7.43126 60.7988 11.8602 55.0259 19.05 49.8685C21.322 48.2275 26.0385 45.4143 26.5274 45.4143C26.6425 45.4143 26.7 45.7074 26.5849 46.059ZM32.5093 56.6376C38.2612 61.0625 47.1478 64.4617 57.4724 66.1906C62.7929 67.0697 66.9917 67.3921 73.5776 67.3921C80.1635 67.3921 84.3623 67.0697 89.6828 66.1906C100.669 64.3445 109.44 60.8867 115.509 55.9636C116.371 55.2897 117.09 54.7915 117.148 54.8501C117.234 54.9087 117.407 56.3153 117.551 57.9856C117.781 60.3592 117.752 61.3262 117.407 62.6156C115.422 70.3517 102.855 76.9451 85.4552 79.3187C80.2785 80.0219 66.8767 80.0219 61.7 79.3187C44.3006 76.9451 31.7328 70.3517 29.7485 62.6156C29.4321 61.3555 29.3746 60.3592 29.5759 58.2493C29.7197 56.7548 29.8635 55.3483 29.8635 55.1431C29.8635 54.9673 29.921 54.7915 29.9785 54.7915C30.0648 54.7915 31.1864 55.612 32.5093 56.6376ZM30.1511 106.805C40.4181 111.289 54.5965 114.307 67.8833 114.805C85.9153 115.509 102.279 112.871 116.515 106.981C119.822 105.604 119.88 105.956 116.803 108.476C111.626 112.725 106.593 115.098 97.6491 117.531C88.7337 119.934 83.0681 122.952 77.7764 128.051L75.7058 130.073L73.6351 130.131L71.5644 130.19L69.6088 128.285C64.4609 123.245 58.2489 119.846 50.3113 117.765C43.064 115.86 37.1108 113.399 33.0845 110.644C31.2152 109.355 27.2176 105.809 27.6203 105.78C27.7065 105.78 28.8569 106.249 30.1511 106.805ZM75.0731 135.67C75.9934 136.373 76.1947 137.398 75.7058 138.571C75.0155 140.212 72.5998 140.475 71.6507 139.01C70.1265 136.607 72.8874 133.911 75.0731 135.67Z" fill="#FCFBF7"/>
</svg>
