<svg width="61" height="68" viewBox="0 0 61 68" fill="none" xmlns="http://www.w3.org/2000/svg">
<path d="M47.1409 13.6907C49.3669 15.5462 51.0175 18.0537 51.4224 21.0386C51.7542 24.3555 51.1636 27.4925 49.123 30.1253C48.9716 30.3141 48.8171 30.5001 48.6624 30.686C48.5557 30.8167 48.5557 30.8167 48.4469 30.95C47.7471 31.7394 46.8457 32.3197 45.9998 32.9257C46.3568 33.303 46.7149 33.6617 47.1092 33.9961C48.3347 35.1137 49.0866 36.3767 49.6767 37.932C49.7226 38.053 49.7685 38.1739 49.8158 38.2985C50.5082 40.574 50.1844 43.2284 49.2235 45.3567C48.735 46.2902 48.1141 47.0627 47.3945 47.813C47.3088 47.9051 47.2232 47.9971 47.1349 48.092C44.8917 50.3441 42.1741 50.5272 39.2282 50.5162C38.9052 50.5169 38.5822 50.5178 38.2592 50.519C37.477 50.5211 36.6947 50.5208 35.9125 50.5193C35.276 50.5181 34.6395 50.5179 34.0031 50.5185C33.8666 50.5186 33.8666 50.5186 33.7273 50.5187C33.5424 50.5189 33.3574 50.5191 33.1725 50.5192C31.4431 50.5207 29.7137 50.519 27.9842 50.5162C26.5044 50.5138 25.0246 50.5142 23.5447 50.5167C21.8212 50.5195 20.0977 50.5206 18.3741 50.519C18.1899 50.5188 18.0056 50.5187 17.8214 50.5185C17.7307 50.5184 17.6401 50.5183 17.5468 50.5182C16.912 50.5178 16.2773 50.5185 15.6426 50.5198C14.7862 50.5214 13.9299 50.5202 13.0735 50.5172C12.7605 50.5165 12.4475 50.5167 12.1345 50.5179C9.89466 50.5255 7.95248 50.3698 5.93446 49.2622C5.81384 49.1991 5.69323 49.1359 5.56895 49.0708C3.05358 47.665 1.31842 45.2198 0.442416 42.4269C-0.384805 39.4914 -0.0370901 36.329 1.36065 33.6626C1.70451 33.0328 2.07856 32.4398 2.51116 31.8717C2.58618 31.7722 2.66119 31.6727 2.73849 31.5701C3.89467 30.1285 5.85943 28.5812 7.70951 28.3145C7.70509 28.2295 7.70068 28.1444 7.69614 28.0567C7.6045 24.742 8.66491 21.6028 10.7524 19.0923C10.8598 18.9545 10.8598 18.9545 10.9694 18.8139C12.8162 16.4938 15.7493 14.9593 18.6134 14.6129C22.1184 14.3414 25.4691 15.0303 28.2171 17.4187C28.7993 17.9544 29.3495 18.5195 29.8976 19.0923C29.9898 18.8892 29.9898 18.8892 30.0838 18.6821C30.6073 17.5494 31.1612 16.5163 31.9262 15.5351C32.0429 15.3815 32.0429 15.3815 32.162 15.2248C35.824 10.6569 42.6778 10.2495 47.1409 13.6907ZM34.8424 17.3796C34.7615 17.4606 34.6805 17.5416 34.5972 17.625C33.429 18.8876 32.6869 20.7612 32.6869 22.5177C32.8103 22.5195 32.8103 22.5195 32.9361 22.5214C36.1636 22.582 38.7156 23.2042 41.0966 25.5787C42.3108 26.8919 43.0246 28.4563 43.5908 30.159C45.1721 29.6796 46.3682 28.4005 47.1725 26.9483C48.1683 25.0579 48.462 23.0054 48.0126 20.8873C47.4126 18.788 46.1499 16.9935 44.3119 15.9057C41.011 14.124 37.4852 14.6428 34.8424 17.3796ZM13.1931 21.3814C11.7812 23.2643 10.968 25.373 11.006 27.7876C11.1472 27.7989 11.2884 27.8103 11.4339 27.822C14.1024 28.0651 16.6765 28.9331 18.6134 30.9495C19.0012 31.5879 18.9189 32.2652 18.7798 32.9751C18.6134 33.3209 18.6134 33.3209 18.3598 33.5021C18.1715 33.5428 18.1715 33.5428 17.9794 33.5844C17.8948 33.606 17.8101 33.6275 17.7229 33.6498C16.9999 33.7508 16.5844 33.5351 16.0206 33.0987C15.8569 32.9661 15.6936 32.8331 15.5306 32.6997C13.8329 31.3197 11.9516 31.0744 9.86492 31.213C8.10105 31.4415 6.65593 32.4259 5.42731 33.7162C5.34673 33.7955 5.26615 33.8748 5.18314 33.9565C3.80427 35.421 3.35135 37.4261 3.36051 39.4077C3.40847 41.5465 4.24605 43.387 5.68088 44.9146C6.60479 45.7684 7.55829 46.3394 8.72382 46.7591C8.9474 46.8406 8.9474 46.8406 9.1755 46.9237C10.2008 47.1562 11.2527 47.1738 12.2986 47.1719C12.4819 47.1724 12.4819 47.1724 12.669 47.1728C13.0743 47.1737 13.4796 47.1735 13.885 47.1734C14.1773 47.1738 14.4696 47.1743 14.7619 47.1748C15.5531 47.1759 16.3442 47.1763 17.1353 47.1763C17.6302 47.1764 18.1251 47.1767 18.62 47.1771C20.2592 47.1782 21.8985 47.1788 23.5377 47.1787C23.6699 47.1787 23.6699 47.1787 23.8048 47.1787C23.9372 47.1787 23.9372 47.1787 24.0723 47.1787C25.5026 47.1786 26.9329 47.1799 28.3633 47.1818C29.8354 47.1837 31.3076 47.1845 32.7798 47.1845C33.6049 47.1844 34.43 47.1848 35.2551 47.1862C36.0313 47.1875 36.8074 47.1875 37.5835 47.1865C37.8675 47.1864 38.1514 47.1867 38.4353 47.1875C41.0214 47.1943 43.2707 47.166 45.2316 45.1941C46.4536 43.8365 46.84 42.3159 46.7992 40.5078C46.7209 38.8835 45.9556 37.5456 44.827 36.4417C44.0185 35.781 43.0724 35.3397 42.0773 35.0913C41.4661 34.9364 41.1792 34.7665 40.8014 34.2431C40.6751 33.8491 40.6563 33.5159 40.6444 33.1038C40.5815 31.131 40.0648 29.2932 38.7411 27.8123C37.3702 26.5115 35.6904 25.7839 33.828 25.8114C33.1673 25.8807 32.5361 25.989 31.9104 26.2231C31.2626 26.4279 30.6005 26.452 29.9565 26.2251C29.4586 25.7758 29.3121 25.1842 29.0893 24.5515C28.7 23.5094 28.3243 22.5823 27.6154 21.7272C27.5297 21.6175 27.4441 21.5078 27.3559 21.3948C25.8531 19.5508 23.6837 18.2331 21.3443 18.0083C18.1733 17.8117 15.2895 18.8086 13.1931 21.3814Z" fill="#FCFBF7"/>
<path d="M52.5463 30.6346C52.9525 30.9468 53.3453 31.2735 53.7354 31.6068C53.8975 31.7431 54.0596 31.8793 54.2218 32.0154C54.5653 32.3042 54.9077 32.5946 55.2495 32.8856C55.5879 33.1727 55.9292 33.4549 56.2747 33.7327C56.3555 33.7978 56.4364 33.8628 56.5197 33.9299C56.6719 34.0519 56.8245 34.1733 56.9777 34.2941C57.5142 34.7245 57.8557 35.0448 58.0304 35.7321C58.0495 36.318 57.9429 36.6316 57.6659 37.1401C57.3201 37.5194 57.0891 37.6506 56.604 37.7906C55.7216 37.8064 55.1004 37.3242 54.4407 36.7613C54.3656 36.6987 54.2906 36.6361 54.2132 36.5715C53.9686 36.3669 53.7252 36.1607 53.4819 35.9544C53.3081 35.808 53.1342 35.6617 52.9603 35.5154C52.6149 35.2245 52.2701 34.9328 51.9257 34.6405C51.6364 34.3954 51.3457 34.1523 51.0521 33.9128C50.9386 33.8203 50.8252 33.7277 50.7083 33.6324C50.6119 33.5546 50.5155 33.4768 50.4161 33.3967C50.1065 33.1163 49.9458 32.8903 49.8847 32.4646C49.8592 31.3359 49.8592 31.3359 50.2091 30.8739C50.9579 30.1996 51.6889 30.0836 52.5463 30.6346Z" fill="#FCFBF7"/>
<path d="M25.3345 8.15578C25.878 8.53163 26.3722 8.95562 26.8692 9.39463C27.2699 9.74542 27.6818 10.0817 28.0921 10.4202C28.251 10.5525 28.4098 10.6849 28.5686 10.8175C28.8417 11.0452 29.1157 11.2715 29.3907 11.4968C30.8465 12.6908 30.8465 12.6908 31.04 13.2939C31.1142 14.0959 30.9683 14.4973 30.5328 15.1383C30.1575 15.3881 29.8499 15.4441 29.4076 15.4512C29.3033 15.455 29.199 15.4587 29.0916 15.4626C28.2998 15.3185 27.6532 14.5971 27.0461 14.0761C26.3788 13.5074 25.7069 12.9466 25.0254 12.3964C23.111 10.8421 23.111 10.8421 22.9255 10.2637C22.8767 9.64589 22.8673 9.33301 23.1315 8.77334C23.7573 8.03755 24.45 7.80673 25.3345 8.15578Z" fill="#FCFBF7"/>
<path d="M60.4357 13.7965C60.8433 14.2325 60.9953 14.5885 60.9984 15.1963C60.9806 15.7323 60.9447 16.0531 60.5784 16.4562C59.4906 17.1474 58.2325 17.5831 57.0496 18.0652C56.6948 18.2103 56.341 18.358 55.9872 18.5057C55.7595 18.5989 55.5316 18.692 55.3038 18.7849C55.1993 18.8289 55.0948 18.873 54.9871 18.9183C54.3252 19.1839 53.8081 19.2867 53.0978 19.2228C52.545 18.9302 52.1935 18.6385 51.9567 18.0371C51.8921 17.4327 51.9001 17.1196 52.1311 16.5632C53.0436 15.5473 54.6334 15.1447 55.858 14.6472C56.1904 14.512 56.5225 14.3759 56.8544 14.2396C57.0666 14.1529 57.2787 14.0663 57.4909 13.9797C57.5897 13.9393 57.6885 13.8988 57.7902 13.8571C57.8826 13.8196 57.9749 13.7822 58.07 13.7436C58.1507 13.7108 58.2313 13.678 58.3144 13.6442C59.0678 13.3675 59.7476 13.3457 60.4357 13.7965Z" fill="#FCFBF7"/>
<path d="M44.4701 0.531156C44.8128 0.854831 44.9553 1.11439 45.112 1.56866C45.1491 2.40472 45.0519 3.19785 44.9312 4.02347C44.9124 4.15462 44.8936 4.28577 44.8743 4.42089C44.8345 4.69665 44.7943 4.97235 44.7537 5.24798C44.6921 5.66867 44.6327 6.08966 44.5734 6.5107C44.5343 6.77953 44.4951 7.04835 44.4558 7.31714C44.4383 7.44231 44.4209 7.56749 44.4029 7.69646C44.2805 8.50991 44.1283 9.16996 43.5589 9.77812C43.1233 10.0559 42.8339 10.123 42.3227 10.1322C41.7982 9.97518 41.507 9.81355 41.1261 9.40758C40.6858 8.38267 40.9472 7.13875 41.1043 6.05782C41.1228 5.92723 41.1413 5.79664 41.1603 5.6621C41.1995 5.38868 41.2391 5.11534 41.2793 4.84209C41.3402 4.42499 41.3979 4.0075 41.4554 3.58989C41.494 3.32285 41.5328 3.05584 41.5718 2.78886C41.597 2.60296 41.597 2.60296 41.6227 2.4133C41.7323 1.69296 41.8753 1.21395 42.3227 0.646435C42.9377 0.200233 43.7948 0.262395 44.4701 0.531156Z" fill="#FCFBF7"/>
<path d="M30.4072 60.3302C30.7922 60.6052 30.9869 60.7983 31.1204 61.2679C31.2301 61.9733 31.1423 62.3396 30.7875 62.9651C30.4643 63.3553 30.1138 63.7143 29.7608 64.0752C29.6607 64.179 29.5605 64.2829 29.4573 64.3899C29.2462 64.6084 29.0346 64.8264 28.8226 65.0439C28.4972 65.3779 28.1732 65.7134 27.8493 66.0491C27.644 66.2613 27.4385 66.4734 27.233 66.6854C27.1356 66.786 27.0383 66.8866 26.938 66.9902C26.8479 67.0826 26.7577 67.175 26.6649 67.2702C26.5855 67.3518 26.5061 67.4334 26.4243 67.5174C25.9741 67.9439 25.5006 67.8829 24.9176 67.8773C24.4551 67.8266 24.2423 67.6764 23.9409 67.3128C23.7275 66.9356 23.6472 66.6465 23.6398 66.2094C23.6362 66.1133 23.6326 66.0172 23.6289 65.9181C23.791 65.0359 24.5757 64.3712 25.1603 63.7618C25.2534 63.6641 25.3466 63.5664 25.4426 63.4658C25.639 63.2604 25.8357 63.0553 26.0328 62.8506C26.3335 62.5375 26.6322 62.2224 26.9309 61.907C27.1224 61.7072 27.3141 61.5076 27.5059 61.308C27.5947 61.2139 27.6834 61.1197 27.7749 61.0227C28.6052 60.1679 29.2872 59.8844 30.4072 60.3302Z" fill="#FCFBF7"/>
<path d="M18.1054 60.3273C18.5355 60.6904 18.6859 60.8941 18.8176 61.4456C18.8661 61.9852 18.8471 62.4044 18.5455 62.8594C18.4579 62.9549 18.3704 63.0505 18.2802 63.149C18.1769 63.2626 18.0736 63.3761 17.9672 63.4931C17.8444 63.6238 17.7214 63.7542 17.5982 63.8844C17.5287 63.9584 17.4592 64.0324 17.3875 64.1087C16.9134 64.6123 16.4353 65.1116 15.9551 65.6089C15.7013 65.872 15.4481 66.1358 15.1949 66.3997C15.0334 66.5674 14.8719 66.7351 14.7103 66.9027C14.6348 66.9815 14.5592 67.0603 14.4814 67.1414C13.9647 67.6753 13.7263 67.8595 13.0021 67.8862C12.5404 67.8793 12.2014 67.8666 11.8214 67.5816C11.4405 67.0843 11.2422 66.6348 11.2588 65.9924C11.5305 65.1182 12.0238 64.5916 12.6435 63.9518C12.7422 63.8485 12.8409 63.7451 12.9425 63.6387C13.1508 63.4213 13.3597 63.2047 13.5692 62.9887C13.8888 62.6584 14.2053 62.325 14.5216 61.9913C14.7248 61.7801 14.9282 61.569 15.1318 61.3581C15.2729 61.2088 15.2729 61.2088 15.4168 61.0566C16.2231 60.2336 17.0039 59.7933 18.1054 60.3273Z" fill="#FCFBF7"/>
<path d="M40.8014 52.6849C41.2071 53.0274 41.3971 53.2246 41.5621 53.7389C41.6109 54.4237 41.5628 54.764 41.1817 55.3198C40.8518 55.6985 40.5042 56.0576 40.155 56.417C40.0549 56.521 39.9547 56.6251 39.8515 56.7323C39.6402 56.9514 39.4287 57.1702 39.2168 57.3886C38.8917 57.7241 38.5675 58.0606 38.2435 58.3973C38.0381 58.6101 37.8327 58.8228 37.6272 59.0355C37.5298 59.1365 37.4325 59.2375 37.3322 59.3415C37.2421 59.4344 37.1519 59.5272 37.0591 59.6228C36.9797 59.7048 36.9003 59.7868 36.8185 59.8712C36.3882 60.2807 35.9686 60.2306 35.4099 60.2222C34.9933 60.1854 34.7719 60.0921 34.4619 59.7992C34.0948 59.2204 34.0107 58.7736 34.0815 58.0865C34.3675 57.3198 34.8606 56.8222 35.4108 56.2528C35.5039 56.1555 35.5969 56.0581 35.6928 55.9578C35.8893 55.7528 36.0862 55.5483 36.2836 55.3443C36.5844 55.0329 36.8827 54.7191 37.1809 54.405C37.3726 54.2056 37.5645 54.0064 37.7564 53.8073C37.845 53.7138 37.9335 53.6204 38.0247 53.5241C38.8719 52.6561 39.6272 52.1754 40.8014 52.6849Z" fill="#FCFBF7"/>
<path d="M28.5042 52.685C28.9323 53.0163 29.1159 53.3961 29.2649 53.9284C29.2649 54.9203 28.7964 55.4719 28.152 56.1442C28.0549 56.2428 27.9579 56.3413 27.8578 56.4429C27.7577 56.5466 27.6575 56.6502 27.5543 56.757C27.3433 56.9749 27.1318 57.1921 26.9196 57.4087C26.5939 57.7413 26.27 58.0756 25.9463 58.4104C25.741 58.622 25.5355 58.8335 25.33 59.0449C25.2326 59.1451 25.1353 59.2452 25.035 59.3485C24.9449 59.4404 24.8547 59.5324 24.7619 59.6271C24.6825 59.7083 24.6031 59.7895 24.5213 59.8732C24.0932 60.2768 23.6764 60.238 23.1216 60.2322C22.6515 60.1775 22.3855 59.9927 22.0379 59.6676C21.8157 59.289 21.7469 58.9977 21.7447 58.556C21.7426 58.4583 21.7405 58.3607 21.7383 58.2601C21.8673 57.4052 22.5854 56.8166 23.1458 56.2324C23.242 56.1316 23.3381 56.0308 23.4372 55.927C23.6403 55.7146 23.8438 55.5026 24.0476 55.2909C24.3587 54.967 24.6677 54.6412 24.9766 54.3151C25.1745 54.1087 25.3725 53.9024 25.5707 53.6963C25.6626 53.5989 25.7546 53.5014 25.8493 53.401C26.6728 52.5529 27.3851 52.1989 28.5042 52.685Z" fill="#FCFBF7"/>
<path d="M16.206 52.687C16.6531 53.1516 16.8593 53.5186 16.8795 54.1691C16.8867 54.3169 16.8867 54.3169 16.8939 54.4676C16.7489 55.347 15.9678 56.0032 15.3858 56.6044C15.2494 56.7465 15.2494 56.7465 15.1102 56.8915C14.9187 57.0907 14.7269 57.2895 14.5348 57.4881C14.2408 57.7921 13.9483 58.0975 13.6558 58.403C13.4692 58.5968 13.2825 58.7905 13.0957 58.9841C13.0084 59.0753 12.9211 59.1666 12.8311 59.2606C12.749 59.3451 12.6669 59.4295 12.5823 59.5166C12.5107 59.5908 12.439 59.6651 12.3651 59.7416C11.8385 60.2075 11.3612 60.2614 10.6877 60.247C10.1628 60.1627 9.964 59.9482 9.61295 59.5378C9.33409 59.0717 9.31069 58.6434 9.39364 58.1008C9.50471 57.7698 9.65374 57.5838 9.88086 57.3253C10.0011 57.1879 10.0011 57.1879 10.1238 57.0476C10.509 56.6214 10.8979 56.1999 11.2934 55.7841C11.3776 55.6955 11.4618 55.607 11.5485 55.5158C11.7248 55.3307 11.9014 55.1458 12.0781 54.9611C12.2581 54.7726 12.4374 54.5836 12.6162 54.3939C12.8767 54.1177 13.1388 53.8432 13.4013 53.5691C13.4805 53.4844 13.5598 53.3997 13.6415 53.3125C14.4287 52.4985 15.1494 52.2382 16.206 52.687Z" fill="#FCFBF7"/>
<path d="M35.0633 3.66151C35.797 4.38148 36.0911 5.51284 36.458 6.46936C36.5162 6.61954 36.5162 6.61954 36.5756 6.77277C36.863 7.54213 37.094 8.22169 36.8542 9.03841C36.5907 9.52219 36.4578 9.74461 35.9826 10.0018C35.3157 10.1139 34.8089 10.1311 34.2105 9.78103C33.6551 9.25564 33.4284 8.49558 33.1669 7.78245C33.0747 7.53255 32.9776 7.28515 32.8799 7.03751C32.5318 6.10963 32.3285 5.44667 32.5593 4.46845C33.1446 3.48277 34.0388 3.32276 35.0633 3.66151Z" fill="#FCFBF7"/>
<path d="M57.3723 24.065C57.5818 24.0961 57.5818 24.0961 57.7955 24.1278C58.5473 24.2504 59.1195 24.3537 59.6941 24.8884C60.0632 25.442 60.043 26.0858 59.9477 26.7329C59.732 27.2041 59.4342 27.4675 58.973 27.6813C58.4756 27.8063 58.0534 27.7711 57.5545 27.6963C57.4615 27.6833 57.3685 27.6704 57.2726 27.6571C56.9805 27.6151 56.6891 27.5697 56.3976 27.5234C56.3027 27.5089 56.2078 27.4944 56.11 27.4794C55.8355 27.4365 55.5619 27.3901 55.2882 27.3422C55.1267 27.314 54.9652 27.2858 54.7989 27.2568C54.2332 27.0875 53.8747 26.8321 53.5607 26.3129C53.4101 25.6087 53.4723 24.9856 53.838 24.3697C54.7916 23.4354 56.1963 23.8713 57.3723 24.065Z" fill="#FCFBF7"/>
<path d="M52.594 6.70644C53.114 6.98147 53.3906 7.20242 53.6084 7.76041C53.6509 8.03883 53.6509 8.03883 53.6559 8.32857C53.6595 8.42316 53.6631 8.51776 53.6668 8.61522C53.5196 9.44893 52.9426 10.1045 52.4197 10.7247C52.3583 10.7987 52.2968 10.8727 52.2335 10.949C52.1127 11.0945 51.9916 11.2397 51.8701 11.3847C51.6621 11.6343 51.4587 11.8878 51.2548 12.141C50.8469 12.6193 50.8469 12.6193 50.3846 12.6664C49.3949 12.6929 49.3949 12.6929 48.9092 12.4045C48.5418 11.961 48.3725 11.6011 48.3625 11.0129C48.3589 10.9183 48.3553 10.8237 48.3516 10.7263C48.4988 9.89259 49.0758 9.2369 49.5987 8.61676C49.6602 8.54276 49.7217 8.46876 49.7851 8.39251C49.9061 8.24704 50.0273 8.10177 50.1488 7.95675C50.3552 7.70819 50.5549 7.45407 50.7556 7.20049C51.2709 6.61153 51.8662 6.61222 52.594 6.70644Z" fill="#FCFBF7"/>
</svg>
