<svg width="139" height="138" viewBox="0 0 139 138" fill="none" xmlns="http://www.w3.org/2000/svg">
<mask id="path-1-inside-1_3264_987" fill="white">
<path d="M27.632 0.219954C25.9596 0.624572 23.5049 2.05422 22.3181 3.349C21.7246 3.99639 20.8345 5.34511 20.3759 6.34317C19.5397 8.09652 19.5127 8.25836 19.4318 12.6552L19.3239 17.133L13.7402 17.2409L8.15642 17.3218L6.10636 18.3199C3.65168 19.5337 2.1411 21.0982 0.954224 23.6069L0.091039 25.4142L0.0101154 65.6062C-0.0168591 87.7253 0.0101154 106.23 0.091039 106.742C0.252886 107.552 2.43782 109.844 15.008 122.442C23.1003 130.561 30.1407 137.412 30.6262 137.628C31.3815 138.006 34.9691 138.033 61.2423 137.979L90.9952 137.898L92.8025 137.035C95.2842 135.848 96.8757 134.337 98.0625 131.91C98.9527 130.102 99.0606 129.644 99.0876 127.782C99.0876 125.49 98.7639 124.761 97.2263 123.628C96.1743 122.846 93.6387 122.846 92.5867 123.628C91.3998 124.519 90.8603 125.409 90.6176 126.973C90.186 129.644 92.8834 129.401 62.9147 129.401H36.6685L36.5876 119.474L36.5067 109.548L35.5086 107.498C34.2947 105.043 32.7302 103.532 30.2216 102.346L28.4143 101.482L18.5146 101.401L8.58802 101.32V64.2305V27.1405L9.26238 26.4931L9.90977 25.8188H49.5893H89.2688L89.9162 26.4931C90.5636 27.1136 90.5906 27.3293 90.5906 30.1617V33.1558L89.7274 32.994C75.8895 30.4044 61.4581 34.9362 51.4775 44.9437C46.5951 49.8531 43.3042 55.0592 41.1193 61.3982C39.339 66.5233 38.9613 68.9241 38.9344 75.317C38.9344 80.2534 39.0153 81.3593 39.5548 83.9219C41.9825 95.2782 48.4564 104.935 57.8165 111.247C70.1439 119.555 86.2207 120.904 99.5731 114.754L101.947 113.675L109.823 121.497C118.132 129.779 118.806 130.318 122.07 131.154C131.241 133.555 140.062 124.734 137.661 115.563C136.825 112.299 136.285 111.625 128.004 103.317L120.182 95.44L121.261 93.0663C122.582 90.207 123.553 87.2128 124.363 83.4903C125.226 79.4441 125.226 71.4327 124.336 67.3595C123.473 63.2324 122.097 59.3211 120.263 55.7875L118.644 52.6584L118.59 30.4044L118.509 8.15047L117.646 6.34317C116.459 3.83454 114.949 2.27002 112.494 1.05616L110.444 0.0581065L69.5774 0.00415749C45.4622 -0.022817 28.2524 0.0850811 27.632 0.219954ZM109.338 9.22945L110.012 9.87684V26.2234C110.012 39.2251 109.931 42.543 109.689 42.3811C109.5 42.2732 108.852 41.7877 108.259 41.3022C106.506 39.9265 103.269 37.9034 101.192 36.9053L99.2764 35.9882L99.1685 30.6742L99.0876 25.3872L98.0895 23.3371C96.8757 20.8824 95.3111 19.3719 92.8025 18.185L90.9952 17.3218L59.5159 17.2409L28.0097 17.1869V13.5184C28.0097 10.0117 28.0367 9.84986 28.684 9.22945L29.3314 8.55508H69.011H108.691L109.338 9.22945ZM89.2419 41.7068C95.8776 43.2173 101.677 46.4003 106.344 51.1209C118.078 62.9357 119.777 80.9547 110.471 94.8736C108.744 97.4631 103.97 102.238 101.38 103.964C97.0375 106.877 92.0202 108.819 87.0569 109.548C76.0513 111.166 65.5582 107.686 57.6547 99.756C52.6374 94.7657 49.5623 89.128 48.0787 82.1955C47.3774 78.9856 47.3774 71.9182 48.0787 68.7083C51.2887 53.7914 63.0496 43.0285 78.1823 41.0864C80.3133 40.8166 87.003 41.1943 89.2419 41.7068ZM122.34 109.764C129.65 117.128 129.758 117.262 129.299 119.609C129.056 120.931 127.438 122.549 126.116 122.792C123.769 123.251 123.634 123.143 116.243 115.779L109.365 108.954L112.332 105.96C113.951 104.342 115.326 102.993 115.407 102.966C115.488 102.966 118.617 106.041 122.34 109.764ZM27.3353 110.654L28.0097 111.301V117.262C28.0097 120.526 27.9827 123.197 27.9288 123.197C27.9018 123.197 24.9076 120.23 21.266 116.588L14.6573 109.979H20.6726H26.6879L27.3353 110.654Z"/>
</mask>
<path d="M27.632 0.219954C25.9596 0.624572 23.5049 2.05422 22.3181 3.349C21.7246 3.99639 20.8345 5.34511 20.3759 6.34317C19.5397 8.09652 19.5127 8.25836 19.4318 12.6552L19.3239 17.133L13.7402 17.2409L8.15642 17.3218L6.10636 18.3199C3.65168 19.5337 2.1411 21.0982 0.954224 23.6069L0.091039 25.4142L0.0101154 65.6062C-0.0168591 87.7253 0.0101154 106.23 0.091039 106.742C0.252886 107.552 2.43782 109.844 15.008 122.442C23.1003 130.561 30.1407 137.412 30.6262 137.628C31.3815 138.006 34.9691 138.033 61.2423 137.979L90.9952 137.898L92.8025 137.035C95.2842 135.848 96.8757 134.337 98.0625 131.91C98.9527 130.102 99.0606 129.644 99.0876 127.782C99.0876 125.49 98.7639 124.761 97.2263 123.628C96.1743 122.846 93.6387 122.846 92.5867 123.628C91.3998 124.519 90.8603 125.409 90.6176 126.973C90.186 129.644 92.8834 129.401 62.9147 129.401H36.6685L36.5876 119.474L36.5067 109.548L35.5086 107.498C34.2947 105.043 32.7302 103.532 30.2216 102.346L28.4143 101.482L18.5146 101.401L8.58802 101.32V64.2305V27.1405L9.26238 26.4931L9.90977 25.8188H49.5893H89.2688L89.9162 26.4931C90.5636 27.1136 90.5906 27.3293 90.5906 30.1617V33.1558L89.7274 32.994C75.8895 30.4044 61.4581 34.9362 51.4775 44.9437C46.5951 49.8531 43.3042 55.0592 41.1193 61.3982C39.339 66.5233 38.9613 68.9241 38.9344 75.317C38.9344 80.2534 39.0153 81.3593 39.5548 83.9219C41.9825 95.2782 48.4564 104.935 57.8165 111.247C70.1439 119.555 86.2207 120.904 99.5731 114.754L101.947 113.675L109.823 121.497C118.132 129.779 118.806 130.318 122.07 131.154C131.241 133.555 140.062 124.734 137.661 115.563C136.825 112.299 136.285 111.625 128.004 103.317L120.182 95.44L121.261 93.0663C122.582 90.207 123.553 87.2128 124.363 83.4903C125.226 79.4441 125.226 71.4327 124.336 67.3595C123.473 63.2324 122.097 59.3211 120.263 55.7875L118.644 52.6584L118.59 30.4044L118.509 8.15047L117.646 6.34317C116.459 3.83454 114.949 2.27002 112.494 1.05616L110.444 0.0581065L69.5774 0.00415749C45.4622 -0.022817 28.2524 0.0850811 27.632 0.219954ZM109.338 9.22945L110.012 9.87684V26.2234C110.012 39.2251 109.931 42.543 109.689 42.3811C109.5 42.2732 108.852 41.7877 108.259 41.3022C106.506 39.9265 103.269 37.9034 101.192 36.9053L99.2764 35.9882L99.1685 30.6742L99.0876 25.3872L98.0895 23.3371C96.8757 20.8824 95.3111 19.3719 92.8025 18.185L90.9952 17.3218L59.5159 17.2409L28.0097 17.1869V13.5184C28.0097 10.0117 28.0367 9.84986 28.684 9.22945L29.3314 8.55508H69.011H108.691L109.338 9.22945ZM89.2419 41.7068C95.8776 43.2173 101.677 46.4003 106.344 51.1209C118.078 62.9357 119.777 80.9547 110.471 94.8736C108.744 97.4631 103.97 102.238 101.38 103.964C97.0375 106.877 92.0202 108.819 87.0569 109.548C76.0513 111.166 65.5582 107.686 57.6547 99.756C52.6374 94.7657 49.5623 89.128 48.0787 82.1955C47.3774 78.9856 47.3774 71.9182 48.0787 68.7083C51.2887 53.7914 63.0496 43.0285 78.1823 41.0864C80.3133 40.8166 87.003 41.1943 89.2419 41.7068ZM122.34 109.764C129.65 117.128 129.758 117.262 129.299 119.609C129.056 120.931 127.438 122.549 126.116 122.792C123.769 123.251 123.634 123.143 116.243 115.779L109.365 108.954L112.332 105.96C113.951 104.342 115.326 102.993 115.407 102.966C115.488 102.966 118.617 106.041 122.34 109.764ZM27.3353 110.654L28.0097 111.301V117.262C28.0097 120.526 27.9827 123.197 27.9288 123.197C27.9018 123.197 24.9076 120.23 21.266 116.588L14.6573 109.979H20.6726H26.6879L27.3353 110.654Z" fill="#FCFBF7" stroke="#F78712" stroke-width="2" mask="url(#path-1-inside-1_3264_987)"/>
<path d="M80.4078 59.0221L80.4044 59.0236C78.0141 60.0649 77.4272 63.2538 79.3174 65.1441L79.319 65.1456C81.9621 67.8124 86.3744 65.4728 85.6747 61.6515C85.2517 59.4496 82.5561 58.0673 80.4078 59.0221Z" fill="#FCFBF7" stroke="#F78712"/>
<path d="M80.4246 71.9648L80.4178 71.968L80.411 71.971C79.9489 72.1739 79.4485 72.5813 79.0379 73.079C78.6256 73.5788 78.3501 74.1133 78.2753 74.5373C78.262 74.6194 78.2437 74.9283 78.2277 75.4704C78.2123 75.9962 78.1997 76.7024 78.1913 77.5403C78.1744 79.2156 78.1744 81.4104 78.2014 83.7269L78.2014 83.7276C78.2419 87.7425 78.269 89.8332 78.3519 91.011C78.3934 91.6006 78.4471 91.9254 78.5101 92.1347C78.5665 92.3215 78.6325 92.4258 78.7451 92.5722L78.7452 92.5721L78.7515 92.5807C79.2553 93.2653 79.679 93.662 80.1412 93.8987C80.6021 94.1347 81.1534 94.2383 81.9634 94.2383C82.7733 94.2383 83.3247 94.1347 83.7856 93.8987C84.2478 93.662 84.6715 93.2653 85.1752 92.5807L85.1752 92.5806L85.1817 92.5722C85.2952 92.4246 85.359 92.3259 85.4137 92.1364C85.4759 91.9211 85.5277 91.5795 85.5643 90.9464C85.6375 89.6836 85.6444 87.4099 85.6444 83.0044C85.6444 78.5988 85.6375 76.3252 85.5643 75.0623C85.5277 74.4292 85.4759 74.0876 85.4137 73.8723C85.359 73.6828 85.2952 73.5841 85.1817 73.4365L85.1815 73.4366L85.1748 73.4274C84.9005 73.0534 84.3702 72.502 84.0465 72.2707L84.0464 72.2709L84.0352 72.2624C83.7003 72.0087 83.0494 71.8058 82.3016 71.7416C81.5583 71.6778 80.8505 71.7625 80.4246 71.9648Z" fill="#FCFBF7" stroke="#F78712"/>
</svg>
