<svg width="38" height="38" viewBox="0 0 38 38" fill="none" xmlns="http://www.w3.org/2000/svg">
<path d="M13.8403 7.15495V12.0154H1V7.15495C1.08419 5.49421 1.79732 3.92953 2.9921 2.7841C4.18688 1.63868 5.77204 1 7.42015 1C9.06825 1 10.6534 1.63868 11.8482 2.7841C13.043 3.92953 13.7561 5.49421 13.8403 7.15495Z" stroke="#FCFBF7" stroke-width="2" stroke-miterlimit="10"/>
<path d="M36.315 26.5951C36.3107 27.4532 35.972 28.2752 35.3722 28.8835C34.7724 29.4919 33.9596 29.8379 33.1091 29.8467H1V12.0137H21.8634C23.7624 12.0092 25.6437 12.3834 27.399 13.1146C29.1544 13.8458 30.7493 14.9197 32.0921 16.2746C33.4349 17.6295 34.4993 19.2387 35.224 21.0098C35.9487 22.7809 36.3194 24.679 36.315 26.5951Z" stroke="#FCFBF7" stroke-width="2" stroke-miterlimit="10"/>
<path d="M37.9263 36.317H1V29.8477" stroke="#FCFBF7" stroke-width="2" stroke-miterlimit="10"/>
<path d="M35.9609 23.3604H25.0845C24.454 23.3582 23.8303 23.2307 23.2487 22.9853C22.6671 22.7398 22.1391 22.3812 21.6949 21.9298C21.2507 21.4785 20.899 20.9433 20.6598 20.3548C20.4206 19.7663 20.2986 19.136 20.3008 18.4999V12.0137H21.8954C25.1666 12.0196 28.339 13.1451 30.894 15.2062C33.4489 17.2673 35.2353 20.1421 35.9609 23.3604Z" stroke="#FCFBF7" stroke-width="2" stroke-miterlimit="10"/>
<path d="M13.8477 16.877V21.7374" stroke="#FCFBF7" stroke-width="2" stroke-miterlimit="10"/>
<path d="M7.43359 16.877V21.7374" stroke="#FCFBF7" stroke-width="2" stroke-miterlimit="10"/>
<path d="M4.20588 36.317C5.97644 36.317 7.41176 34.8688 7.41176 33.0823C7.41176 31.2959 5.97644 29.8477 4.20588 29.8477C2.43532 29.8477 1 31.2959 1 33.0823C1 34.8688 2.43532 36.317 4.20588 36.317Z" stroke="#FCFBF7" stroke-width="2" stroke-miterlimit="10"/>
<path d="M10.6395 36.317C12.41 36.317 13.8453 34.8688 13.8453 33.0823C13.8453 31.2959 12.41 29.8477 10.6395 29.8477C8.86891 29.8477 7.43359 31.2959 7.43359 33.0823C7.43359 34.8688 8.86891 36.317 10.6395 36.317Z" stroke="#FCFBF7" stroke-width="2" stroke-miterlimit="10"/>
<path d="M23.4676 36.317C25.2382 36.317 26.6735 34.8688 26.6735 33.0823C26.6735 31.2959 25.2382 29.8477 23.4676 29.8477C21.697 29.8477 20.2617 31.2959 20.2617 33.0823C20.2617 34.8688 21.697 36.317 23.4676 36.317Z" stroke="#FCFBF7" stroke-width="2" stroke-miterlimit="10"/>
<path d="M29.9129 36.317C31.6835 36.317 33.1188 34.8688 33.1188 33.0823C33.1188 31.2959 31.6835 29.8477 29.9129 29.8477C28.1424 29.8477 26.707 31.2959 26.707 33.0823C26.707 34.8688 28.1424 36.317 29.9129 36.317Z" stroke="#FCFBF7" stroke-width="2" stroke-miterlimit="10"/>
</svg>
