<svg width="43" height="35" viewBox="0 0 43 35" fill="none" xmlns="http://www.w3.org/2000/svg">
<path fill-rule="evenodd" clip-rule="evenodd" d="M32.4805 1.01909L32.8449 1.02022C33.6196 1.01835 34.3321 1.05194 35.0787 1.27362C36.4728 1.83102 37.1734 3.0031 37.8011 4.31755C37.8756 4.47381 37.9506 4.62984 38.0261 4.78564C38.2271 5.19938 38.4273 5.61354 38.6262 6.02837C38.8286 6.45045 39.0321 6.87192 39.2362 7.29315C39.5861 8.0152 39.9345 8.73798 40.2806 9.4619L40.3038 9.51033C40.4851 9.8897 40.6663 10.2691 40.851 10.6467C40.9462 10.8409 41.0407 11.0353 41.1349 11.2299L41.2567 11.4822C41.984 12.9385 42.0083 14.3372 41.9987 15.9363C41.9966 16.2534 41.9959 16.5704 41.9958 16.8875C41.9955 17.4196 41.9943 17.9517 41.9919 18.4838C41.9887 19.1705 41.9866 19.8572 41.9858 20.5439C41.9851 21.141 41.984 21.7381 41.9825 22.3352L41.9815 22.716C41.9807 23.0835 41.9799 23.4511 41.9782 23.8187L41.9766 24.154L41.9759 24.4725L41.9742 24.7625C41.9703 25.7253 41.4468 26.6409 40.8438 27.3531C39.6203 28.4317 38.3916 28.5522 36.8399 28.5058L36.6889 28.5006C36.6331 29.6324 36.3633 30.5512 35.81 31.5334C35.0258 32.7512 33.7837 33.5967 32.3992 33.9104C30.8589 34.1652 29.4429 33.8684 28.1295 32.9985C27.0234 32.1572 26.252 30.9593 25.9822 29.5662L25.9023 28.5006H17.1131C17.0041 29.9539 16.6363 31.282 15.6156 32.345L15.4352 32.5169C14.6353 33.2848 13.6024 33.7801 12.5266 33.96C10.9193 34.1408 9.43592 33.7078 8.16413 32.6809C7.03864 31.6221 6.48414 30.303 6.34731 28.768L6.3264 28.5006L6.28063 28.5018C4.91045 28.5367 3.67231 28.5683 2.55106 27.64L2.33133 27.4351L2.13157 27.2506C1.12512 26.1149 0.994007 24.9718 1.00098 23.4973C1.00199 23.2996 1.00227 23.102 1.00187 22.9043C0.999908 22.3641 0.99934 21.8239 1.00089 21.2838C1.00206 20.8832 1.00284 20.4826 1.00267 20.082L1.00255 19.909L1.00232 19.5607C1.00156 18.536 1.00242 17.5112 1.00478 16.4865C1.00708 15.4908 1.00826 14.4952 1.00708 13.4995C1.00573 12.409 1.00504 11.3186 1.00636 10.2281L1.00681 9.87856L1.00702 9.7048C1.00754 9.30325 1.00763 8.9017 1.00713 8.50015C1.00647 8.0065 1.00659 7.51286 1.00819 7.01921C1.00902 6.81568 1.00971 6.61215 1.01028 6.40862C1.00565 4.82097 1.02506 3.48201 2.14655 2.25625C3.15897 1.28627 4.30011 0.990297 5.65585 1.00026C5.77274 1.00118 5.88963 1.00147 6.00652 1.00122C6.33169 0.999798 6.65682 0.999549 6.98199 1.00085C7.33638 1.00227 7.69075 1.00226 8.04514 1.00172C8.74046 1.00061 9.43578 1.00096 10.1311 1.00246C10.9477 1.00423 11.7643 1.00467 12.5809 1.00462C14.0365 1.00448 15.4921 1.00561 16.9477 1.00796C18.3638 1.01028 19.78 1.01184 21.1961 1.01178L21.461 1.01176L21.7255 1.01174C23.3463 1.01162 24.9671 1.01237 26.5878 1.01381C27.1589 1.01433 27.7301 1.01467 28.3012 1.01475C29.0035 1.01484 29.7058 1.01529 30.4081 1.01665L30.5385 1.01694C30.8538 1.01764 31.1691 1.01833 31.4844 1.0183C31.8164 1.01811 32.1485 1.01809 32.4805 1.01909ZM35.2838 5.51437C35.1024 5.13426 34.9233 4.75867 34.6927 4.40657C34.4285 4.13133 34.1818 3.93228 33.8043 3.87012L33.5344 3.87036C33.3742 3.86927 33.2139 3.86829 33.0536 3.86952C32.9357 3.87049 32.8177 3.87085 32.6997 3.87066C32.3738 3.86938 32.048 3.86931 31.7221 3.87075C31.366 3.87233 31.0099 3.87249 30.6539 3.87212C29.9562 3.87132 29.2586 3.87199 28.5609 3.87376C27.7416 3.87585 26.9223 3.87657 26.103 3.87675C24.6445 3.87701 23.1859 3.87849 21.7274 3.8812C20.3058 3.88386 18.8842 3.88594 17.4626 3.88662L17.1968 3.88674L16.1381 3.88721C14.7787 3.88781 13.4194 3.88899 12.0601 3.89039L10.8328 3.89162C9.96355 3.89235 9.09426 3.89317 8.22498 3.89479L8.08587 3.89507C7.77254 3.8957 7.4592 3.89633 7.14587 3.89661C6.8119 3.89683 6.47794 3.89713 6.14398 3.89796L5.78074 3.89887L5.43645 3.89882L5.126 3.89993C4.66369 3.90069 4.50111 3.97831 4.13192 4.26793C3.64597 5.2616 3.64598 5.2616 3.76955 6.53383H35.7301C35.6812 6.35159 35.6564 6.2592 35.6201 6.17155C35.5828 6.08143 35.5335 5.99631 35.4333 5.82368L35.3106 5.57074C35.3017 5.55194 35.2927 5.53315 35.2838 5.51437ZM38.4368 11.9743C37.9957 11.0852 37.545 10.2015 37.0885 9.32066H33.9723V14.7304H39.2458C39.2458 13.7933 38.9776 13.0657 38.5692 12.2365L38.4368 11.9743ZM31.2556 14.7304V9.32066H25.9822V14.7304H31.2556ZM23.2655 14.7304V9.32066H19.7498V14.7304H23.2655ZM17.0332 14.7304V9.32066H11.7597V14.7304H17.0332ZM9.04305 14.7304V9.32066H3.76955V14.7304H9.04305ZM39.2458 20.2221V17.5172H25.9822V25.7138C26.5903 25.7896 26.5903 25.7896 26.8186 25.5188C26.9859 25.2499 27.1603 24.9902 27.3405 24.7302C28.2891 23.6834 29.6388 23.0914 31.0159 23.0089C32.3952 22.9927 33.7843 23.3508 34.8041 24.3527L34.9311 24.4843C35.1309 24.6739 35.1309 24.6739 35.3306 24.8941C35.4668 25.1184 35.605 25.3283 35.7657 25.5351C36.2273 25.8075 36.2273 25.8075 36.7773 25.7898L37.0685 25.7701C37.1322 25.7682 37.1949 25.7666 37.2566 25.7651C37.8814 25.7498 38.4068 25.7368 38.9262 25.304C39.2138 24.8919 39.281 24.507 39.2739 24.0079L39.2658 23.7876C39.2608 23.5279 39.2552 23.2685 39.2458 23.0089C39.0509 23.0009 38.8559 22.9925 38.661 22.9838L38.4218 22.9731L38.1854 22.9633L37.9583 22.9529C37.6284 22.9385 37.4083 22.9005 37.1284 22.7067C36.8495 22.442 36.7049 22.2155 36.6718 21.8201C36.6657 21.3461 36.6857 20.9963 37.0086 20.6319C37.4068 20.342 37.7058 20.2648 38.1918 20.2465C38.7188 20.236 38.7188 20.236 39.2458 20.2221ZM33.8549 29.1807C34.0485 28.2076 33.8215 27.5029 33.3087 26.7038C32.5995 25.8119 31.5212 25.6684 30.4766 25.847C29.9133 26.0915 29.4657 26.4104 29.1211 26.9343L29.0184 27.1072C28.6386 27.7238 28.6329 28.3597 28.6988 29.0744C28.8776 29.7524 29.2401 30.2967 29.8087 30.6903L29.9772 30.7957C30.5783 31.1853 31.1981 31.1911 31.8949 31.1235C32.6133 30.9285 33.18 30.4854 33.5581 29.8316L33.6527 29.6481C33.7344 29.4935 33.8003 29.3474 33.8549 29.1807ZM13.0572 26.1387L12.8783 26.0417C12.3442 25.7445 11.7978 25.7403 11.2004 25.7958C10.5313 25.9358 9.91635 26.3819 9.52246 26.9433C9.09899 27.7206 9.03161 28.4302 9.17289 29.2998C9.41123 29.8777 9.72213 30.3368 10.2328 30.6903L10.4014 30.7957C11.0024 31.1853 11.6223 31.1911 12.319 31.1235C12.9799 30.9401 13.5106 30.5682 13.8943 29.985L13.9969 29.8121C14.3768 29.1955 14.3825 28.5596 14.3165 27.8449C14.1264 27.1079 13.6945 26.5265 13.0572 26.1387ZM23.2655 25.7138V17.5172H19.7498H17.0332H3.76955L3.75956 21.0571L3.75889 21.2254C3.75703 21.6918 3.75518 22.1583 3.75443 22.6248L3.75395 23.0483C3.75269 23.2765 3.75147 23.5046 3.75135 23.7328L3.75141 23.9471C3.74677 24.4753 3.76514 24.8559 4.10414 25.2732C4.60852 25.7101 5.04761 25.7467 5.69249 25.7514L5.98682 25.7497L6.28489 25.7546L6.56985 25.7545L6.82914 25.7549C7.05418 25.7349 7.05418 25.7349 7.18594 25.5596C7.44104 25.1133 7.78557 24.7024 8.14915 24.346C9.5705 23.2882 10.9751 22.8659 12.7185 23.0909C13.8802 23.3107 15.0425 23.9063 15.7548 24.8941L15.9033 25.1135L16.0544 25.3296L16.203 25.5489C16.2898 25.6373 16.3439 25.6925 16.4095 25.7232C16.5185 25.7742 16.6591 25.7577 17.0332 25.7138H19.7498H23.2655Z" fill="#FCFBF7"/>
<path d="M32.8449 1.02022C32.7234 1.01991 32.602 1.01953 32.4805 1.01909M32.8449 1.02022C33.6196 1.01835 34.3321 1.05194 35.0787 1.27362C36.4728 1.83102 37.1734 3.0031 37.8011 4.31755C37.8756 4.47381 37.9506 4.62984 38.0261 4.78564C38.2271 5.19938 38.4273 5.61354 38.6262 6.02837C38.8286 6.45045 39.0321 6.87192 39.2362 7.29315C39.5861 8.01521 39.9345 8.73798 40.2806 9.4619M32.8449 1.02022L32.4805 1.01909M32.4805 1.01909C32.1485 1.01809 31.8164 1.01811 31.4844 1.0183C31.1691 1.01833 30.8538 1.01764 30.5385 1.01694M30.4081 1.01665C29.7058 1.01529 29.0035 1.01484 28.3012 1.01475C27.7301 1.01467 27.1589 1.01433 26.5878 1.01381C24.9671 1.01237 23.3463 1.01162 21.7255 1.01174M30.4081 1.01665L30.5385 1.01694M30.4081 1.01665C30.4515 1.01675 30.495 1.01684 30.5385 1.01694M21.7255 1.01174C21.5946 1.01175 21.5946 1.01175 21.461 1.01176M21.7255 1.01174L21.461 1.01176M21.461 1.01176C21.3736 1.01176 21.2862 1.01177 21.1961 1.01178M21.461 1.01176L21.1961 1.01178M21.1961 1.01178C19.78 1.01184 18.3638 1.01028 16.9477 1.00796C15.4921 1.00561 14.0365 1.00448 12.5809 1.00462C11.7643 1.00467 10.9477 1.00423 10.1311 1.00246C9.43578 1.00096 8.74046 1.00061 8.04514 1.00172C7.69075 1.00226 7.33638 1.00227 6.98199 1.00085C6.65682 0.999549 6.33169 0.999798 6.00652 1.00122C5.88963 1.00147 5.77274 1.00118 5.65585 1.00026C4.30011 0.990297 3.15897 1.28627 2.14655 2.25625C1.02506 3.48201 1.00565 4.82097 1.01028 6.40862C1.00971 6.61215 1.00902 6.81568 1.0082 7.01921C1.00659 7.51286 1.00647 8.0065 1.00713 8.50015C1.00763 8.9017 1.00754 9.30325 1.00702 9.7048M1.00702 9.7048C1.00695 9.76214 1.00688 9.81948 1.00681 9.87856M1.00702 9.7048L1.00681 9.87856M1.00681 9.87856C1.00666 9.99508 1.00651 10.1116 1.00636 10.2281M1.00681 9.87856L1.00636 10.2281M1.00636 10.2281C1.00503 11.3186 1.00573 12.409 1.00708 13.4995C1.00826 14.4952 1.00708 15.4908 1.00478 16.4865C1.00242 17.5112 1.00156 18.536 1.00232 19.5607M1.00232 19.5607C1.0024 19.6768 1.00248 19.7929 1.00255 19.909M1.00232 19.5607L1.00255 19.909M1.00255 19.909C1.00259 19.9661 1.00263 20.0232 1.00267 20.082M1.00255 19.909L1.00267 20.082M1.00267 20.082C1.00284 20.4826 1.00206 20.8832 1.00089 21.2838C0.999341 21.8239 0.999909 22.3641 1.00187 22.9043C1.00227 23.102 1.00199 23.2996 1.00098 23.4973C0.994007 24.9718 1.12512 26.1149 2.13157 27.2506M2.13157 27.2506C2.19749 27.3115 2.26341 27.3724 2.33133 27.4351M2.13157 27.2506L2.33133 27.4351M2.33133 27.4351C2.40384 27.5027 2.47635 27.5703 2.55106 27.64M2.33133 27.4351L2.55106 27.64M2.55106 27.64C3.67231 28.5683 4.91045 28.5367 6.28063 28.5018M6.3264 28.5006C6.33675 28.633 6.33675 28.633 6.34731 28.768M6.3264 28.5006L6.34731 28.768M6.3264 28.5006L6.28063 28.5018M6.3264 28.5006C6.31113 28.501 6.29587 28.5014 6.28063 28.5018M6.34731 28.768C6.48414 30.303 7.03864 31.6221 8.16413 32.6809C9.43592 33.7078 10.9193 34.1408 12.5266 33.96C13.6024 33.7801 14.6353 33.2848 15.4352 32.5169M15.4352 32.5169C15.4947 32.4602 15.5542 32.4035 15.6156 32.345M15.4352 32.5169L15.6156 32.345M15.6156 32.345C16.6363 31.282 17.0041 29.9539 17.1131 28.5006M17.1131 28.5006C20.0135 28.5006 22.9139 28.5006 25.9023 28.5006M17.1131 28.5006H25.9023M25.9023 28.5006C25.9286 28.8523 25.955 29.2039 25.9822 29.5662M25.9023 28.5006L25.9822 29.5662M25.9822 29.5662C26.252 30.9593 27.0234 32.1572 28.1295 32.9985C29.4429 33.8684 30.8589 34.1652 32.3992 33.9104C33.7837 33.5967 35.0258 32.7512 35.81 31.5334C36.3633 30.5512 36.6331 29.6324 36.6889 28.5006M36.6889 28.5006C36.7388 28.5023 36.7886 28.5041 36.8399 28.5058M36.6889 28.5006L36.8399 28.5058M36.8399 28.5058C38.3916 28.5522 39.6203 28.4317 40.8438 27.3531C41.4468 26.6409 41.9703 25.7253 41.9742 24.7625M41.9742 24.7625C41.9748 24.6668 41.9753 24.5711 41.9759 24.4725M41.9742 24.7625L41.9759 24.4725M41.9759 24.4725C41.9761 24.3674 41.9764 24.2623 41.9766 24.154M41.9759 24.4725L41.9766 24.154M41.9766 24.154C41.9771 24.0422 41.9776 23.9304 41.9782 23.8187M41.9766 24.154L41.9782 23.8187M41.9782 23.8187C41.9799 23.4511 41.9807 23.0835 41.9815 22.716M41.9815 22.716C41.9818 22.5891 41.9821 22.4621 41.9825 22.3352M41.9815 22.716L41.9825 22.3352M41.9825 22.3352C41.984 21.7381 41.9851 21.141 41.9858 20.5439C41.9866 19.8572 41.9887 19.1705 41.9919 18.4838C41.9943 17.9517 41.9955 17.4196 41.9958 16.8875C41.9959 16.5704 41.9966 16.2534 41.9987 15.9363C42.0083 14.3372 41.984 12.9385 41.2567 11.4822M41.2567 11.4822C41.1964 11.3573 41.1964 11.3573 41.1349 11.2299M41.2567 11.4822L41.1349 11.2299M41.1349 11.2299C41.0407 11.0353 40.9462 10.8409 40.851 10.6467C40.6663 10.2691 40.4851 9.8897 40.3038 9.51033M40.2806 9.4619L40.3038 9.51033M40.2806 9.4619C40.2884 9.47804 40.2961 9.49418 40.3038 9.51033M35.3106 5.57074C35.3714 5.69594 35.3714 5.69594 35.4333 5.82368M35.3106 5.57074L35.4333 5.82368M35.3106 5.57074C35.3017 5.55194 35.2927 5.53315 35.2838 5.51437C35.1024 5.13426 34.9233 4.75867 34.6927 4.40657C34.4284 4.13133 34.1818 3.93228 33.8043 3.87012M35.4333 5.82368C35.5334 5.99631 35.5828 6.08143 35.6201 6.17155C35.6564 6.2592 35.6812 6.35159 35.7301 6.53383M35.7301 6.53383C25.1831 6.53383 14.6362 6.53383 3.76955 6.53383M35.7301 6.53383H3.76955M3.76955 6.53383C3.64598 5.2616 3.64597 5.2616 4.13192 4.26793C4.50111 3.97831 4.66369 3.90069 5.126 3.89993M5.126 3.89993C5.27967 3.89938 5.27967 3.89938 5.43645 3.89882M5.126 3.89993L5.43645 3.89882M5.43645 3.89882C5.55121 3.89883 5.66597 3.89885 5.78074 3.89887M5.43645 3.89882L5.78074 3.89887M5.78074 3.89887C5.90182 3.8986 6.0229 3.89829 6.14398 3.89796M5.78074 3.89887L6.14398 3.89796M6.14398 3.89796C6.47794 3.89713 6.8119 3.89683 7.14587 3.89661C7.4592 3.89633 7.77254 3.8957 8.08587 3.89507M8.22498 3.89479C9.09427 3.89317 9.96355 3.89235 10.8328 3.89162M8.22498 3.89479L8.08587 3.89507M8.22498 3.89479C8.17861 3.89488 8.13224 3.89498 8.08587 3.89507M10.8328 3.89162C11.2419 3.89126 11.651 3.89082 12.0601 3.89039M10.8328 3.89162L12.0601 3.89039M12.0601 3.89039C13.4194 3.88899 14.7787 3.88781 16.1381 3.88721M16.1381 3.88721C16.491 3.88706 16.8439 3.8869 17.1968 3.88674M16.1381 3.88721L17.1968 3.88674M17.1968 3.88674C17.2845 3.8867 17.3723 3.88666 17.4626 3.88662M17.1968 3.88674L17.4626 3.88662M17.4626 3.88662C18.8842 3.88594 20.3058 3.88386 21.7274 3.8812C23.1859 3.87849 24.6445 3.87701 26.103 3.87675C26.9223 3.87657 27.7416 3.87585 28.5609 3.87376C29.2586 3.87199 29.9562 3.87132 30.6539 3.87212C31.0099 3.87249 31.366 3.87233 31.7221 3.87075C32.048 3.86931 32.3738 3.86938 32.6997 3.87066C32.8177 3.87085 32.9357 3.87049 33.0536 3.86952C33.2139 3.86829 33.3742 3.86927 33.5344 3.87036M33.5344 3.87036C33.6235 3.87028 33.7126 3.8702 33.8043 3.87012M33.5344 3.87036L33.8043 3.87012M37.0885 9.32066C37.545 10.2015 37.9957 11.0852 38.4368 11.9743M37.0885 9.32066C36.029 9.32066 35.0006 9.32066 33.9723 9.32066M37.0885 9.32066H33.9723M38.4368 11.9743C38.4805 12.0608 38.5242 12.1473 38.5692 12.2365M38.4368 11.9743L38.5692 12.2365M38.5692 12.2365C38.9776 13.0657 39.2458 13.7933 39.2458 14.7304M39.2458 14.7304C37.5055 14.7304 35.7653 14.7304 33.9723 14.7304M39.2458 14.7304H33.9723M33.9723 14.7304C33.9723 12.9452 33.9723 11.16 33.9723 9.32066M33.9723 14.7304V9.32066M31.2556 9.32066C31.2556 11.1059 31.2556 12.8911 31.2556 14.7304M31.2556 9.32066C29.4627 9.32066 27.7224 9.32066 25.9822 9.32066M31.2556 9.32066V14.7304M31.2556 9.32066H25.9822M31.2556 14.7304C29.5154 14.7304 27.7751 14.7304 25.9822 14.7304M31.2556 14.7304H25.9822M25.9822 14.7304C25.9822 12.9452 25.9822 11.16 25.9822 9.32066M25.9822 14.7304V9.32066M23.2655 9.32066C23.2655 11.1059 23.2655 12.8911 23.2655 14.7304M23.2655 9.32066C22.0702 9.32066 20.91 9.32066 19.7498 9.32066M23.2655 9.32066V14.7304M23.2655 9.32066H19.7498M23.2655 14.7304C22.1053 14.7304 20.9452 14.7304 19.7498 14.7304M23.2655 14.7304H19.7498M19.7498 14.7304C19.7498 12.9452 19.7498 11.16 19.7498 9.32066M19.7498 14.7304V9.32066M17.0332 9.32066C17.0332 11.1059 17.0332 12.8911 17.0332 14.7304M17.0332 9.32066C15.2402 9.32066 13.5 9.32066 11.7597 9.32066M17.0332 9.32066V14.7304M17.0332 9.32066H11.7597M17.0332 14.7304C15.2929 14.7304 13.5527 14.7304 11.7597 14.7304M17.0332 14.7304H11.7597M11.7597 14.7304C11.7597 12.9452 11.7597 11.16 11.7597 9.32066M11.7597 14.7304V9.32066M9.04305 9.32066C9.04305 11.1059 9.04305 12.8911 9.04305 14.7304M9.04305 9.32066C7.25006 9.32066 5.50981 9.32066 3.76955 9.32066M9.04305 9.32066V14.7304M9.04305 9.32066H3.76955M9.04305 14.7304C7.3028 14.7304 5.56254 14.7304 3.76955 14.7304M9.04305 14.7304H3.76955M3.76955 14.7304C3.76955 12.9452 3.76955 11.16 3.76955 9.32066M3.76955 14.7304V9.32066M39.2458 17.5172C39.2458 18.4098 39.2458 19.3024 39.2458 20.2221M39.2458 17.5172C34.7362 17.5172 30.3592 17.5172 25.9822 17.5172M39.2458 17.5172V20.2221M39.2458 17.5172H25.9822M39.2458 20.2221C38.7188 20.236 38.7188 20.236 38.1918 20.2465C37.7058 20.2648 37.4068 20.342 37.0086 20.6319C36.6857 20.9963 36.6657 21.3461 36.6718 21.8201C36.7049 22.2155 36.8495 22.442 37.1284 22.7067C37.4083 22.9005 37.6284 22.9385 37.9583 22.9529M37.9583 22.9529C38.0332 22.9563 38.1082 22.9598 38.1854 22.9633M37.9583 22.9529L38.1854 22.9633M38.1854 22.9633C38.2634 22.9665 38.3414 22.9697 38.4218 22.9731M38.1854 22.9633L38.4218 22.9731M38.4218 22.9731C38.5008 22.9766 38.5797 22.9801 38.661 22.9838M38.4218 22.9731L38.661 22.9838M38.661 22.9838C38.8559 22.9925 39.0509 23.0009 39.2458 23.0089C39.2552 23.2685 39.2608 23.5279 39.2658 23.7876M39.2658 23.7876C39.2684 23.8603 39.2711 23.933 39.2739 24.0079M39.2658 23.7876L39.2739 24.0079M39.2739 24.0079C39.281 24.507 39.2138 24.8919 38.9262 25.304C38.4068 25.7368 37.8814 25.7498 37.2566 25.7651C37.1949 25.7666 37.1322 25.7682 37.0685 25.7701M37.0685 25.7701C36.9724 25.7766 36.8763 25.7831 36.7773 25.7898M37.0685 25.7701L36.7773 25.7898M36.7773 25.7898C36.2273 25.8075 36.2273 25.8075 35.7657 25.5351C35.605 25.3283 35.4668 25.1184 35.3306 24.8941C35.1309 24.6739 35.1309 24.6739 34.9311 24.4843M34.9311 24.4843C34.8892 24.4409 34.8473 24.3975 34.8041 24.3527M34.9311 24.4843L34.8041 24.3527M34.8041 24.3527C33.7843 23.3508 32.3952 22.9927 31.0159 23.0089C29.6388 23.0914 28.2891 23.6834 27.3405 24.7302C27.1603 24.9902 26.9859 25.2499 26.8186 25.5188C26.5903 25.7896 26.5903 25.7896 25.9822 25.7138M25.9822 25.7138C25.9822 23.0089 25.9822 20.3041 25.9822 17.5172M25.9822 25.7138V17.5172M23.2655 17.5172C23.2655 20.2221 23.2655 22.927 23.2655 25.7138M23.2655 17.5172C22.0702 17.5172 20.91 17.5172 19.7498 17.5172M23.2655 17.5172V25.7138M23.2655 17.5172H19.7498M23.2655 25.7138C22.1053 25.7138 20.9452 25.7138 19.7498 25.7138M23.2655 25.7138H19.7498M19.7498 25.7138H17.0332C16.6591 25.7577 16.5185 25.7742 16.4095 25.7232C16.3439 25.6925 16.2898 25.6373 16.203 25.5489M19.7498 17.5172H17.0332M17.0332 17.5172C12.5236 17.5172 8.14656 17.5172 3.76955 17.5172M17.0332 17.5172H3.76955M16.203 25.5489C16.1294 25.4403 16.1294 25.4403 16.0544 25.3296M16.203 25.5489L16.0544 25.3296M16.0544 25.3296C16.0045 25.2583 15.9547 25.1869 15.9033 25.1135M16.0544 25.3296L15.9033 25.1135M15.9033 25.1135C15.8298 25.0049 15.8298 25.0049 15.7548 24.8941M15.9033 25.1135L15.7548 24.8941M15.7548 24.8941C15.0425 23.9063 13.8802 23.3107 12.7185 23.0909C10.9751 22.8659 9.5705 23.2882 8.14915 24.346C7.78557 24.7024 7.44104 25.1133 7.18594 25.5596C7.05418 25.7349 7.05418 25.7349 6.82914 25.7549M6.82914 25.7549C6.74357 25.7548 6.65801 25.7546 6.56985 25.7545M6.82914 25.7549L6.56985 25.7545M6.56985 25.7545C6.42879 25.7545 6.42879 25.7545 6.28489 25.7546M6.56985 25.7545L6.28489 25.7546M6.28489 25.7546C6.18653 25.753 6.08816 25.7513 5.98682 25.7497M6.28489 25.7546L5.98682 25.7497M5.98682 25.7497C5.84113 25.7505 5.84113 25.7505 5.69249 25.7514M5.98682 25.7497L5.69249 25.7514M5.69249 25.7514C5.04761 25.7467 4.60852 25.7101 4.10414 25.2732C3.76514 24.8559 3.74676 24.4753 3.75141 23.9471M3.75141 23.9471C3.75138 23.841 3.75138 23.841 3.75135 23.7328M3.75141 23.9471L3.75135 23.7328M3.75135 23.7328C3.75147 23.5046 3.75269 23.2765 3.75395 23.0483M3.75395 23.0483C3.75418 22.9071 3.75434 22.7659 3.75443 22.6248M3.75395 23.0483L3.75443 22.6248M3.75443 22.6248C3.75518 22.1583 3.75704 21.6918 3.75889 21.2254M3.75956 21.0571C3.76286 19.889 3.76616 18.7208 3.76955 17.5172M3.75956 21.0571L3.76955 17.5172M3.75956 21.0571L3.75889 21.2254M3.75956 21.0571C3.75934 21.1132 3.75912 21.1693 3.75889 21.2254M33.6527 29.6481C33.7344 29.4935 33.8003 29.3474 33.8549 29.1807C34.0485 28.2076 33.8215 27.5029 33.3087 26.7038C32.5995 25.8119 31.5212 25.6684 30.4766 25.847C29.9133 26.0915 29.4657 26.4104 29.1211 26.9343M33.6527 29.6481C33.6215 29.7087 33.5903 29.7692 33.5581 29.8316M33.6527 29.6481L33.5581 29.8316M33.5581 29.8316C33.18 30.4854 32.6133 30.9285 31.8949 31.1235C31.1981 31.1911 30.5783 31.1853 29.9772 30.7957M29.9772 30.7957C29.9216 30.7609 29.866 30.7261 29.8087 30.6903M29.9772 30.7957L29.8087 30.6903M29.8087 30.6903C29.2401 30.2967 28.8776 29.7524 28.6988 29.0744C28.6329 28.3597 28.6386 27.7238 29.0184 27.1072M29.0184 27.1072C29.0692 27.0216 29.0692 27.0216 29.1211 26.9343M29.0184 27.1072L29.1211 26.9343M12.8783 26.0417C12.9668 26.0897 12.9668 26.0897 13.0572 26.1387M12.8783 26.0417C12.3442 25.7445 11.7978 25.7403 11.2004 25.7958C10.5313 25.9358 9.91635 26.3819 9.52246 26.9433C9.09899 27.7206 9.03161 28.4302 9.17289 29.2998C9.41123 29.8777 9.72213 30.3368 10.2328 30.6903M12.8783 26.0417L13.0572 26.1387M13.0572 26.1387C13.6945 26.5265 14.1264 27.1079 14.3165 27.8449C14.3825 28.5596 14.3768 29.1955 13.9969 29.8121M13.9969 29.8121C13.9631 29.8691 13.9292 29.9262 13.8943 29.985M13.9969 29.8121L13.8943 29.985M13.8943 29.985C13.5106 30.5682 12.9799 30.9401 12.319 31.1235C11.6223 31.1911 11.0024 31.1853 10.4014 30.7957M10.4014 30.7957C10.3458 30.7609 10.2901 30.7261 10.2328 30.6903M10.4014 30.7957L10.2328 30.6903" stroke="#F3BB81" stroke-width="0.5"/>
</svg>
