<svg width="52" height="35" viewBox="0 0 52 35" fill="none" xmlns="http://www.w3.org/2000/svg">
<mask id="path-1-inside-1_1493_1968" fill="white">
<path d="M36.6678 21.5179C37.1359 20.9848 37.0884 20.1688 36.5619 19.6949C36.0354 19.221 35.2293 19.269 34.7611 19.8021L36.6678 21.5179ZM25.5103 32.2812L26.4124 33.1941L26.4386 33.1672L26.4636 33.1391L25.5103 32.2812ZM22.6583 33.7088V35H22.7126L22.7667 34.9951L22.6583 33.7088ZM25.2394 21.3862C25.6356 20.7966 25.4848 19.9934 24.9022 19.5924C24.3198 19.1913 23.5264 19.3442 23.1302 19.9338L25.2394 21.3862ZM47.4635 18.9276L49.3094 22.665L51.5911 21.5101L49.7451 17.7725L47.4635 18.9276ZM9.94291 22.7789L3.35282 20.1104L2.40539 22.5082L8.99545 25.1767L9.94291 22.7789ZM2.55103 18.9114V15.495H0V18.9114H2.55103ZM2.55103 15.495V6.45622H0V15.495H2.55103ZM3.82655 5.16498H6.26577V2.58249H3.82655V5.16498ZM7.44294 5.95901L10.9235 14.4041L13.2778 13.4096L9.79729 4.96463L7.44294 5.95901ZM14.455 16.7862H44.0408V14.2037H14.455V16.7862ZM34.7611 19.8021L24.557 31.4233L26.4636 33.1391L36.6678 21.5179L34.7611 19.8021ZM22.6583 32.4175H20.1211V35H22.6583V32.4175ZM18.9546 30.7397L25.2394 21.3862L23.1302 19.9338L16.8453 29.2873L18.9546 30.7397ZM20.1211 32.4175C19.3132 32.4175 18.7213 31.6701 18.8654 30.8949L16.3585 30.4171C15.9238 32.754 17.6869 35 20.1211 35V32.4175ZM24.6083 31.368C23.9009 32.0841 23.7537 32.2096 23.6317 32.2706C23.5407 32.316 23.431 32.346 22.5496 32.4222L22.7667 34.9951C23.4621 34.9352 24.1407 34.8967 24.7626 34.5855C25.3537 34.2896 25.8443 33.7692 26.4124 33.1941L24.6083 31.368ZM48.1686 24.5337H30.6124V27.1162H48.1686V24.5337ZM20.7143 24.5337H18.9436V27.1162H20.7143V24.5337ZM35.4706 14.7355L26.0305 1.59531L23.9672 3.11425L33.4073 16.2545L35.4706 14.7355ZM22.9358 0H20.879V2.58249H22.9358V0ZM17.5197 5.72868L23.1152 16.1132L25.3545 14.8767L19.7593 4.49203L17.5197 5.72868ZM20.879 0C17.9744 0 16.1289 3.1473 17.5197 5.72868L19.7593 4.49203C19.2957 3.6316 19.9108 2.58249 20.879 2.58249V0ZM26.0305 1.59531C25.3103 0.592991 24.1601 0 22.9358 0V2.58249C23.3437 2.58249 23.7274 2.78015 23.9672 3.11425L26.0305 1.59531ZM10.9235 14.4041C11.518 15.8467 12.9109 16.7862 14.455 16.7862V14.2037C13.9403 14.2037 13.476 13.8905 13.2778 13.4096L10.9235 14.4041ZM6.26577 5.16498C6.78049 5.16498 7.24475 5.47813 7.44294 5.95901L9.79729 4.96463C9.20272 3.522 7.80991 2.58249 6.26577 2.58249V5.16498ZM3.35282 20.1104C2.86856 19.9144 2.55103 19.4395 2.55103 18.9114H0C0 20.4955 0.952606 21.92 2.40539 22.5082L3.35282 20.1104ZM8.99545 25.1767C12.1594 26.4579 15.5359 27.1162 18.9436 27.1162V24.5337C15.8604 24.5337 12.8055 23.9382 9.94291 22.7789L8.99545 25.1767ZM16.8453 29.2873C16.6704 29.5476 16.4487 29.9319 16.3585 30.4171L18.8654 30.8949C18.8631 30.9075 18.8622 30.9018 18.8753 30.874C18.889 30.8448 18.9129 30.8016 18.9546 30.7397L16.8453 29.2873ZM49.3094 22.665C49.7334 23.5234 49.1168 24.5337 48.1686 24.5337V27.1162C51.013 27.1162 52.8633 24.0856 51.5911 21.5101L49.3094 22.665ZM2.55103 6.45622C2.55103 5.74307 3.12211 5.16498 3.82655 5.16498V2.58249C1.7132 2.58249 0 4.31681 0 6.45622H2.55103ZM49.7451 17.7725C48.6648 15.5854 46.4566 14.2037 44.0408 14.2037V16.7862C45.4903 16.7862 46.8153 17.6152 47.4635 18.9276L49.7451 17.7725Z"/>
</mask>
<path d="M23.9672 3.11425L14.0863 -10.3076L33.848 16.5362L23.9672 3.11425ZM7.44294 5.95901L0.958118 -9.39432L13.9276 21.3124L7.44294 5.95901ZM8.99545 25.1767L-6.50506 19.052L24.4957 31.302L8.99545 25.1767ZM1.27552 -1.17168H0V32.1616H1.27552V-1.17168ZM23.6123 32.1908L25.519 33.9067L47.8166 9.12907L45.9099 7.41326L23.6123 32.1908ZM13.6778 33.6607L15.787 35.1131L34.6918 7.65919L32.5826 6.2068L13.6778 33.6607ZM15.1181 -11.0671L14.0864 -10.3077L33.848 16.5362L34.8796 15.7767L15.1181 -11.0671ZM26.6961 19.7004L27.8159 19.0821L11.7027 -10.098L10.5829 -9.47967L26.6961 19.7004ZM2.13529 -9.89152L0.958118 -9.39432L13.9278 21.3123L15.1049 20.8151L2.13529 -9.89152ZM-6.03111 17.8527L-6.50483 19.0515L24.4957 31.302L24.9695 30.1032L-6.03111 17.8527ZM27.352 16.2863L26.2973 15.5601L7.39317 43.0145L8.44782 43.7407L27.352 16.2863ZM14.492 47.028L15.7455 47.2669L21.9854 14.5228L20.7319 14.284L14.492 47.028ZM42.9234 7.21729L41.7826 7.79474L56.8362 37.5353L57.9771 36.9578L42.9234 7.21729ZM56.8362 37.5353L59.1179 36.3804L44.0643 6.63985L41.7826 7.79474L56.8362 37.5353ZM42.217 2.90289L39.9353 4.05804L54.9916 33.7972L57.2733 32.6421L42.217 2.90289ZM-12.1477 13.9859L-13.0952 16.3837L17.906 28.6328L18.8534 26.2349L-12.1477 13.9859ZM24.496 31.3014L25.4434 28.9036L-5.55761 16.6542L-6.50506 19.052L24.496 31.3014ZM2.55103 -1.17168H0V32.1616H2.55103V-1.17168ZM0 35.578H2.55103V2.24469H0V35.578ZM2.55103 -10.2104H0V23.1229H2.55103V-10.2104ZM22.9324 5.16498V2.58249H-10.4009V5.16498H22.9324ZM-12.8401 2.58249V5.16498H20.4932V2.58249H-12.8401ZM17.4089 29.7572L19.7632 28.7627L6.79243 -1.94347L4.43808 -0.948953L17.4089 29.7572ZM3.3126 -10.3888L0.958257 -9.39438L13.9276 21.3124L16.282 20.318L3.3126 -10.3888ZM60.7074 16.7862V14.2037H27.3741V16.7862H60.7074ZM-2.2117 14.2037V16.7862H31.1216V14.2037H-2.2117ZM3.45443 32.4175V35H36.7878V32.4175H3.45443ZM7.39318 43.0145L9.50248 44.4669L28.4066 17.0125L26.2973 15.5601L7.39318 43.0145ZM21.9855 14.5229L19.4785 14.0451L13.2384 46.7891L15.7454 47.2669L21.9855 14.5229ZM64.8353 27.1162V24.5337H31.5019V27.1162H64.8353ZM2.27692 24.5337V27.1162H35.6103V24.5337H2.27692ZM16.1496 -11.8265L14.0863 -10.3076L33.8481 16.5361L35.9114 15.0171L16.1496 -11.8265ZM4.21236 0V2.58249H37.5457V0H4.21236ZM39.6025 2.58249V0H6.26916V2.58249H39.6025ZM11.7027 -10.098L9.4632 -8.86139L25.5763 20.3188L27.8158 19.0821L11.7027 -10.098ZM36.6678 21.5179L11.6219 -0.47795L11.6199 -0.475696L36.6678 21.5179ZM34.7611 19.8021L9.71527 -2.19376L9.71329 -2.1915L34.7611 19.8021ZM25.5103 32.2812L47.8079 7.50354L1.79941 55.7098L25.5103 32.2812ZM26.4124 33.1941L50.1266 56.6194L50.1832 56.5621L50.2396 56.5045L26.4124 33.1941ZM26.4386 33.1672L50.2659 56.4776L50.8282 55.9028L51.3622 55.3015L26.4386 33.1672ZM26.4636 33.1391L51.3872 55.2734L51.4496 55.2032L51.5115 55.1326L26.4636 33.1391ZM22.6583 33.7088L55.8738 30.9092L-10.6751 33.7088H22.6583ZM22.7126 35V68.3333H24.2214L25.724 68.197L22.7126 35ZM25.2394 21.3862L-2.42783 2.79489L-2.42828 2.79557L25.2394 21.3862ZM24.9022 19.5924L5.99675 47.0459L6.00236 47.0498L24.9022 19.5924ZM23.1302 19.9338L-4.53702 1.3425L-4.53733 1.34297L23.1302 19.9338ZM23.9672 3.11425L-3.11283 22.5509L-3.10857 22.5568L-3.10432 22.5627L23.9672 3.11425ZM19.7593 4.49203L49.1042 -11.3188L49.1042 -11.3189L19.7593 4.49203ZM7.44294 5.95901L38.2615 -6.74239L38.2615 -6.74241L7.44294 5.95901ZM8.99545 25.1767L-3.51532 56.0732L-3.51524 56.0732L8.99545 25.1767ZM16.8453 29.2873L-10.8223 10.6965L-10.8231 10.6976L16.8453 29.2873ZM18.8654 30.8949L51.6399 36.9735L-13.9061 24.8011L18.8654 30.8949ZM49.3094 22.665L79.1961 7.90367V7.90367L49.3094 22.665ZM47.4635 18.9276L17.5768 33.689L17.5768 33.689L47.4635 18.9276ZM51.5911 21.5101L21.704 36.2706L21.705 36.2726L51.5911 21.5101ZM49.7451 17.7725L79.6322 3.01196L79.6311 3.00975L49.7451 17.7725ZM9.94291 22.7789L22.4548 -8.11711L22.4536 -8.11759L9.94291 22.7789ZM3.35282 20.1104L15.8636 -10.7861L15.8592 -10.7878L3.35282 20.1104ZM2.40539 22.5082L-10.1057 53.4046L-10.1054 53.4047L2.40539 22.5082ZM10.9235 14.4041L-19.8951 27.1055L-19.8949 27.1061L10.9235 14.4041ZM13.2778 13.4096L-17.5407 26.1112L-17.5405 26.1116L13.2778 13.4096ZM9.79729 4.96463L40.6158 -7.73694L40.6158 -7.73699L9.79729 4.96463ZM24.557 31.4233L-0.49084 9.4297L-22.2176 34.1738L2.25946 56.2009L24.557 31.4233ZM22.6583 32.4175H55.9916V-0.91582H22.6583V32.4175ZM18.9546 30.7397L-8.71313 12.1491L-8.71578 12.153L18.9546 30.7397ZM16.3585 30.4171L49.1297 36.5127L49.1298 36.5125L16.3585 30.4171ZM24.6083 31.368L48.3208 7.94097L24.6066 -16.0623L0.894077 7.94263L24.6083 31.368ZM23.6317 32.2706L38.5168 62.0958L38.5256 62.0914L38.5344 62.0871L23.6317 32.2706ZM22.5496 32.4222L19.6791 -0.787343L-13.4625 2.0773L-10.6657 35.2247L22.5496 32.4222ZM24.7626 34.5855L39.6781 64.3956L39.6865 64.3914L24.7626 34.5855ZM30.6124 24.5337V-8.79964H-2.72094V24.5337H30.6124ZM30.6124 27.1162H-2.72094V60.4495H30.6124V27.1162ZM20.7143 24.5337H54.0476V-8.79964H20.7143V24.5337ZM20.7143 27.1162V60.4495H54.0476V27.1162H20.7143ZM35.4706 14.7355L55.233 41.5787L81.7655 22.045L62.5421 -4.71308L35.4706 14.7355ZM26.0305 1.59531L53.102 -17.8533L53.101 -17.8546L26.0305 1.59531ZM33.4073 16.2545L6.33578 35.703L26.0121 63.0916L53.1697 43.0977L33.4073 16.2545ZM17.5197 5.72868L-11.825 21.54L-11.8249 21.5402L17.5197 5.72868ZM23.1152 16.1132L-6.22944 31.9248L9.74572 61.573L39.2279 45.2935L23.1152 16.1132ZM25.3545 14.8767L41.4672 44.057L70.348 28.1096L54.6994 -0.934131L25.3545 14.8767ZM18.8753 30.874L49.0307 45.0784L49.0502 45.0369L49.0696 44.9954L18.8753 30.874ZM61.7136 43.5137C74.1993 29.2967 72.9827 7.62835 58.8609 -5.08143L14.2629 44.4712C1.1942 32.7092 0.0725007 12.673 11.6219 -0.47795L61.7136 43.5137ZM58.8609 -5.08143C44.495 -18.0109 22.4024 -16.6401 9.71527 -2.19376L59.807 41.7979C48.0561 55.1782 27.5757 56.4529 14.2629 44.4712L58.8609 -5.08143ZM1.79941 55.7098L2.70145 56.6228L50.1233 9.76538L49.2212 8.85247L1.79941 55.7098ZM50.2396 56.5045L50.2659 56.4776L2.61142 9.85682L2.58515 9.88368L50.2396 56.5045ZM51.3622 55.3015L51.3872 55.2734L1.54008 11.0048L1.51508 11.0329L51.3622 55.3015ZM48.7612 8.36144L47.8079 7.50354L3.21278 57.0588L4.1661 57.9167L48.7612 8.36144ZM-10.6751 33.7088V35H55.9916V33.7088H-10.6751ZM22.6583 68.3333H22.7126V1.66667H22.6583V68.3333ZM25.724 68.197L25.7781 68.1921L19.7553 1.79807L19.7012 1.80298L25.724 68.197ZM55.9823 32.1955L55.8738 30.9092L-10.5573 36.5084L-10.4489 37.7947L55.9823 32.1955ZM52.9066 39.9774C63.4058 24.3527 59.552 2.97622 43.802 -7.86504L6.00236 47.0498C-8.58237 37.0106 -12.1347 17.2405 -2.42783 2.79489L52.9066 39.9774ZM43.8076 -7.86117C27.8207 -18.8703 6.12828 -14.5294 -4.53702 1.3425L50.7975 38.525C40.9245 53.2178 20.8188 57.2528 5.99675 47.0459L43.8076 -7.86117ZM17.5768 33.689L19.4227 37.4263L79.1961 7.90367L77.3502 4.16629L17.5768 33.689ZM81.4782 6.7496L79.6322 3.01196L19.858 32.533L21.704 36.2706L81.4782 6.7496ZM22.4536 -8.11759L15.8636 -10.7861L-9.15792 51.0069L-2.56784 53.6754L22.4536 -8.11759ZM-10.1054 53.4047L-3.51532 56.0732L21.5062 -5.71973L14.9162 -8.38822L-10.1054 53.4047ZM35.8844 18.9114V15.495H-30.7823V18.9114H35.8844ZM-33.3333 15.495V18.9114H33.3333V15.495H-33.3333ZM35.8844 15.495V6.45622H-30.7823V15.495H35.8844ZM-33.3333 6.45622V15.495H33.3333V6.45622H-33.3333ZM3.82655 38.4983H6.26577V-28.1684H3.82655V38.4983ZM6.26577 -30.7508H3.82655V35.9158H6.26577V-30.7508ZM-23.3756 18.6604L-19.8951 27.1055L41.7421 1.70274L38.2615 -6.74239L-23.3756 18.6604ZM44.0963 0.708053L40.6158 -7.73694L-21.0212 17.6662L-17.5407 26.1112L44.0963 0.708053ZM14.455 50.1196H44.0408V-16.5471H14.455V50.1196ZM44.0408 -19.1296H14.455V47.5371H44.0408V-19.1296ZM9.71329 -2.1915L-0.49084 9.4297L49.6049 53.4168L59.809 41.7956L9.71329 -2.1915ZM2.25946 56.2009L4.1661 57.9167L48.7612 8.36144L46.8546 6.64564L2.25946 56.2009ZM51.5115 55.1326L61.7156 43.5114L11.6199 -0.475696L1.41581 11.1455L51.5115 55.1326ZM22.6583 -0.91582H20.1211V65.7508H22.6583V-0.91582ZM20.1211 68.3333H22.6583V1.66667H20.1211V68.3333ZM55.9916 35V32.4175H-10.6751V35H55.9916ZM46.6222 49.3303L52.9071 39.9767L-2.42828 2.79557L-8.71313 12.1491L46.6222 49.3303ZM-4.53733 1.34297L-10.8223 10.6965L44.5128 47.8781L50.7978 38.5246L-4.53733 1.34297ZM20.1211 -0.91582C40.8781 -0.91582 55.1731 17.9724 51.637 36.9887L-13.9061 24.8011C-17.7305 45.3678 -2.25173 65.7508 20.1211 65.7508V-0.91582ZM-16.4128 24.3216C-20.4926 46.2557 -4.07302 68.3333 20.1211 68.3333V1.66667C39.4469 1.66667 52.3402 19.2523 49.1297 36.5127L-16.4128 24.3216ZM0.894077 7.94263C0.496389 8.34522 0.83571 7.98774 1.40016 7.47133C1.95345 6.96513 4.60548 4.51513 8.72912 2.45408L38.5344 62.0871C42.78 59.9651 45.5665 57.4218 46.4008 56.6586C47.2462 55.8852 48.0128 55.1069 48.3225 54.7934L0.894077 7.94263ZM8.74668 2.44532C9.31532 2.16152 10.2064 1.73695 11.3287 1.29276C12.4465 0.850392 13.5126 0.499234 14.5047 0.219588C16.325 -0.293491 17.7747 -0.528091 18.3673 -0.618361C19.4186 -0.778497 20.1648 -0.829329 19.6791 -0.787343L25.4201 65.6317C25.8158 65.5975 27.0575 65.4936 28.4068 65.288C30.4035 64.9839 34.1996 64.2504 38.5168 62.0958L8.74668 2.44532ZM-10.6657 35.2247L-10.4486 37.7977L55.982 32.1925L55.7649 29.6196L-10.6657 35.2247ZM25.628 68.2054C25.8819 68.1835 25.4706 68.2191 25.8713 68.1848C26.0159 68.1724 26.2652 68.1507 26.5595 68.1216C27.134 68.0649 28.1154 67.9581 29.2998 67.7597C31.7007 67.3575 35.4775 66.4974 39.6781 64.3956L9.8471 4.77547C13.4258 2.98486 16.5523 2.29957 18.2846 2.00935C19.1347 1.86694 19.7772 1.80045 20.0094 1.77753C20.1131 1.76729 20.4003 1.74216 19.9054 1.78479L25.628 68.2054ZM39.6865 64.3914C43.6081 62.4278 46.3536 60.1481 47.8019 58.8544C48.5533 58.1832 49.1509 57.5978 49.4954 57.2554C49.6747 57.0772 49.8292 56.921 49.9267 56.8222C50.1368 56.6093 49.9895 56.7582 50.1266 56.6194L2.69816 9.76871C2.38524 10.0855 2.49119 9.97907 2.50071 9.9696C2.57499 9.89578 2.9065 9.56676 3.39031 9.1346C4.30358 8.31883 6.50819 6.44728 9.83872 4.77967L39.6865 64.3914ZM50.1249 9.76705L48.3208 7.94097L0.89572 54.795L2.69981 56.6211L50.1249 9.76705ZM48.1686 -8.79964H30.6124V57.867H48.1686V-8.79964ZM-2.72094 24.5337V27.1162H63.9457V24.5337H-2.72094ZM30.6124 60.4495H48.1686V-6.21715H30.6124V60.4495ZM20.7143 -8.79964H18.9436V57.867H20.7143V-8.79964ZM18.9436 60.4495H20.7143V-6.21715H18.9436V60.4495ZM54.0476 27.1162V24.5337H-12.619V27.1162H54.0476ZM62.5421 -4.71308L53.102 -17.8533L-1.04099 21.0439L8.39911 34.184L62.5421 -4.71308ZM-3.10432 22.5627L6.33578 35.703L60.4788 -3.19399L51.0387 -16.3342L-3.10432 22.5627ZM53.1697 43.0977L55.233 41.5787L15.7081 -12.1077L13.6449 -10.5887L53.1697 43.0977ZM22.9358 -33.3333H20.879V33.3333H22.9358V-33.3333ZM20.879 35.9158H22.9358V-30.7508H20.879V35.9158ZM-11.8249 21.5402L-6.22944 31.9248L52.4598 0.301675L46.8643 -10.0829L-11.8249 21.5402ZM39.2279 45.2935L41.4672 44.057L9.24168 -14.3036L7.00239 -13.0671L39.2279 45.2935ZM54.6994 -0.934131L49.1042 -11.3188L-9.58572 20.3029L-3.99051 30.6876L54.6994 -0.934131ZM20.879 -33.3333C-7.93795 -33.3333 -24.8549 -2.64267 -11.825 21.54L46.8645 -10.0826C57.1126 8.93728 43.8868 33.3333 20.879 33.3333V-33.3333ZM49.1042 -11.3189C60.279 9.42136 45.8237 35.9158 20.879 35.9158V-30.7508C-6.00198 -30.7508 -21.6877 -2.15816 -9.58567 20.303L49.1042 -11.3189ZM53.101 -17.8546C46.1797 -27.4877 34.9968 -33.3333 22.9358 -33.3333V33.3333C13.3233 33.3333 4.44097 28.6737 -1.03999 21.0453L53.101 -17.8546ZM22.9358 35.9158C12.5148 35.9158 2.85562 30.8664 -3.11283 22.5509L51.0472 -16.3224C44.5992 -25.3061 34.1727 -30.7508 22.9358 -30.7508V35.9158ZM-19.8949 27.1061C-14.2262 40.8597 -0.779275 50.1196 14.455 50.1196V-16.5471C26.601 -16.5471 37.2623 -9.16629 41.7418 1.70213L-19.8949 27.1061ZM14.455 -19.1296C27.6346 -19.1296 39.2219 -11.1186 44.0962 0.707617L-17.5405 26.1116C-12.2699 38.8996 0.245931 47.5371 14.455 47.5371V-19.1296ZM6.26577 38.4983C-6.90912 38.4983 -18.4996 30.4916 -23.3756 18.6604L38.2615 -6.74241C32.9891 -19.5353 20.4701 -28.1684 6.26577 -28.1684V38.4983ZM40.6158 -7.73699C34.9472 -21.4909 21.5001 -30.7508 6.26577 -30.7508V35.9158C-5.88027 35.9158 -16.5418 28.5349 -21.0212 17.6662L40.6158 -7.73699ZM15.8592 -10.7878C28.1473 -5.8141 35.8844 6.05876 35.8844 18.9114H-30.7823C-30.7823 32.8202 -22.4102 45.6429 -9.15359 51.0086L15.8592 -10.7878ZM-33.3333 18.9114C-33.3333 33.8814 -24.3218 47.6479 -10.1057 53.4046L14.9165 -8.38807C26.2271 -3.80799 33.3333 7.10954 33.3333 18.9114H-33.3333ZM-3.51524 56.0732C3.61623 58.9609 11.24 60.4495 18.9436 60.4495V-6.21715C19.8318 -6.21715 20.7027 -6.04511 21.5061 -5.71977L-3.51524 56.0732ZM18.9436 -8.79964C20.1559 -8.79964 21.3488 -8.56501 22.4548 -8.11711L-2.569 53.6749C4.26229 56.4414 11.565 57.867 18.9436 57.867V-8.79964ZM-10.8231 10.6976C-12.1191 12.6266 -15.1275 17.4113 -16.4128 24.3217L49.1298 36.5125C48.0249 42.4524 45.4598 46.4686 44.5136 47.8769L-10.8231 10.6976ZM-13.909 24.8163C-13.7554 23.9885 -13.5802 23.219 -13.3965 22.5126C-13.349 22.3301 -13.3085 22.1812 -13.3098 22.1861C-13.3111 22.1908 -13.3243 22.2397 -13.3408 22.3012C-13.3491 22.3325 -13.3662 22.3967 -13.3875 22.4781C-13.4016 22.532 -13.4524 22.7268 -13.5137 22.977C-13.5476 23.1168 -13.6345 23.4879 -13.6864 23.7194C-13.7796 24.1554 -14.0659 25.7314 -14.2254 26.8764C-14.196 35.1613 16.0672 64.1171 47.3623 48.1917C48.5799 46.0037 49.8888 43.0905 50.1345 42.4454C50.2448 42.1422 50.4117 41.6648 50.4704 41.4913C50.5081 41.378 50.5707 41.1872 50.5957 41.1097C50.645 40.9564 50.6825 40.8362 50.6967 40.7902C50.7295 40.6848 50.8281 40.3607 50.7519 40.6107C50.6694 40.8817 50.5712 41.1918 50.4563 41.5332C50.0134 42.8491 49.5233 44.0326 49.0307 45.0784L-11.28 16.6695C-11.7858 17.7432 -12.282 18.9435 -12.7272 20.266C-12.8426 20.6091 -12.9411 20.9202 -13.0238 21.1916C-13.1 21.4418 -13.0014 21.1177 -12.9686 21.0123C-12.9544 20.9664 -12.9169 20.8461 -12.8676 20.6928C-12.8426 20.6153 -12.78 20.4245 -12.7423 20.3112C-12.6837 20.1377 -12.5167 19.6603 -12.4065 19.3571C-12.1607 18.7121 -10.8518 15.7989 -9.63422 13.6108C21.6608 -2.31452 51.924 26.6413 51.9535 34.9261C51.794 36.0711 51.5076 37.6471 51.4145 38.0831C51.3626 38.3146 51.2757 38.6857 51.2418 38.8255C51.1805 39.0758 51.1297 39.2705 51.1156 39.3245C51.0943 39.4058 51.0772 39.47 51.0689 39.5013C51.0524 39.5629 51.0392 39.6117 51.0379 39.6164C51.0366 39.6212 51.0772 39.4721 51.1248 39.2891C51.3089 38.5811 51.4852 37.8076 51.6399 36.9735L-13.909 24.8163ZM49.0696 44.9954C48.1438 46.975 47.2073 48.4593 46.6249 49.3263L-8.71578 12.153C-9.38144 13.144 -10.3658 14.7145 -11.319 16.7525L49.0696 44.9954ZM19.4227 37.4263C9.2025 16.7338 23.7398 -8.79964 48.1686 -8.79964V57.867C74.4939 57.867 90.2643 30.313 79.1961 7.90367L19.4227 37.4263ZM48.1686 60.4495C76.3843 60.4495 93.3975 30.8799 81.4772 6.7476L21.705 36.2726C12.329 17.2914 25.6417 -6.21715 48.1686 -6.21715V60.4495ZM35.8844 6.45622C35.8844 23.7667 21.9151 38.4983 3.82655 38.4983V-28.1684C-15.6709 -28.1684 -30.7823 -12.2805 -30.7823 6.45622H35.8844ZM3.82655 -30.7508C-17.0802 -30.7508 -33.3333 -13.7064 -33.3333 6.45622H33.3333C33.3333 22.34 20.5066 35.9158 3.82655 35.9158V-30.7508ZM79.6311 3.00975C73.0045 -10.4053 59.3004 -19.1296 44.0408 -19.1296V47.5371C33.6128 47.5371 24.325 41.5761 19.8591 32.5352L79.6311 3.00975ZM44.0408 50.1196C32.6469 50.1196 22.475 43.6062 17.5768 33.689L77.3502 4.1663C71.1555 -8.37577 58.3336 -16.5471 44.0408 -16.5471V50.1196Z" fill="#FCFBF7" mask="url(#path-1-inside-1_1493_1968)"/>
</svg>
