<svg width="34" height="33" viewBox="0 0 34 33" fill="none" xmlns="http://www.w3.org/2000/svg">
<path fill-rule="evenodd" clip-rule="evenodd" d="M24.7501 21.6834C26.6206 19.3995 27.7391 16.5024 27.7391 13.3503C27.7391 5.97711 21.6195 0 14.0707 0C6.52187 0 0.402344 5.97711 0.402344 13.3503C0.402344 20.7234 6.52187 26.7005 14.0707 26.7005C17.298 26.7005 20.2641 25.6081 22.6024 23.7811L31.2061 32.1847C31.7992 32.764 32.7608 32.764 33.3539 32.1847C33.947 31.6054 33.947 30.6661 33.3539 30.0868L24.7501 21.6834ZM14.0707 23.7486C8.19098 23.7486 3.42452 19.0931 3.42452 13.3503C3.42452 7.60737 8.19098 2.95184 14.0707 2.95184C19.9504 2.95184 24.7169 7.60737 24.7169 13.3503C24.7169 19.0931 19.9504 23.7486 14.0707 23.7486Z" fill="#FCFBF7"/>
</svg>
