<svg width="51" height="35" viewBox="0 0 51 35" fill="none" xmlns="http://www.w3.org/2000/svg">
<path d="M13.3948 33.398H38.4405C44.0597 33.398 48.8762 29.1862 49.6789 23.5165L50 22.0586H1.83521L1.99576 23.5165C2.79851 29.1862 7.61499 33.398 13.3948 33.398Z" stroke="#EFEBD8" stroke-width="2" stroke-miterlimit="10" stroke-linecap="round" stroke-linejoin="round"/>
<path d="M6.65176 22.0589H45.1836L41.1699 11.2055C40.6882 9.90957 39.5644 9.09961 38.1194 9.09961H9.86275C8.0967 9.09961 6.65176 10.5575 6.65176 12.3394V22.0589Z" stroke="#FCFBF7" stroke-width="2" stroke-miterlimit="10" stroke-linecap="round" stroke-linejoin="round"/>
<path d="M37.1523 15.5781H41.9688" stroke="#EFEBD8" stroke-width="2" stroke-miterlimit="10" stroke-linecap="round" stroke-linejoin="round"/>
<path d="M33.0015 16.4304C33.0152 16.4235 33.0269 16.4175 33.037 16.4122C33.0483 16.3895 33.0611 16.3672 33.0755 16.3455C33.1239 16.2723 33.1815 16.2177 33.2381 16.1776C33.2559 16.1504 33.2744 16.1261 33.2915 16.1057C33.2976 16.0324 33.3147 15.9376 33.3607 15.8448C33.3882 15.7894 33.4205 15.7438 33.4492 15.7082V15.7078V15.7073V15.7067V15.7062V15.7057V15.7052V15.7047V15.7042V15.7036V15.7031V15.7026V15.7021V15.7015V15.701V15.7005V15.7V15.6994V15.6989V15.6984V15.6978V15.6973V15.6968V15.6962V15.6957V15.6951V15.6946V15.6941V15.6935V15.693V15.6924V15.6919V15.6913V15.6908V15.6902V15.6897V15.6891V15.6885V15.688V15.6874V15.6869V15.6863V15.6857V15.6852V15.6846V15.684V15.6834V15.6829V15.6823V15.6817V15.6811V15.6806V15.68V15.6794V15.6788V15.6782V15.6776V15.677V15.6764V15.6758V15.6752V15.6746V15.674V15.6734V15.6728V15.6722V15.6716V15.671V15.6704V15.6698V15.6692V15.6685V15.6679V15.6673V15.6667V15.666V15.6654V15.6648V15.6641V15.6635V15.6629V15.6622V15.6616V15.6609V15.6603V15.6596V15.659V15.6583V15.6577V15.657V15.6564V15.6557V15.655V15.6544V15.6537V15.653V15.6523V15.6517V15.651V15.6503V15.6496V15.6489V15.6482V15.6475V15.6469V15.6462V15.6455V15.6448V15.644V15.6433V15.6426V15.6419V15.6412V15.6405V15.6398V15.639V15.6383V15.6376V15.6368V15.6361V15.6354V15.6346V15.6339V15.6331V15.6324V15.6316V15.6309V15.6301V15.6294V15.6286V15.6278V15.6271V15.6263V15.6255V15.6248V15.624V15.6232V15.6224V15.6216V15.6208V15.62V15.6192V15.6184V15.6176V15.6168V15.616V15.6152V15.6144V15.6136V15.6127V15.6119V15.6111V15.6102V15.6094V15.6086V15.6077V15.6069V15.606V15.6052V15.6043V15.6035V15.6026V15.6017V15.6009V15.6V15.5991V15.5982V15.5973V15.5965V15.5956V15.5947V15.5938V15.5929V15.592V15.5911V15.5902V15.5892V15.5883V15.5874V15.5865V15.5855V15.5846V15.5837V15.5827V15.5818V15.5808C33.4492 15.497 33.4483 15.4141 33.4358 15.3384C33.4303 15.3049 33.424 15.2829 33.4192 15.2704L33.2887 15.1387V14.9904C33.2881 14.9897 33.2876 14.9889 33.287 14.9882C33.2719 14.9679 33.2502 14.9421 33.2192 14.9087C33.188 14.8752 33.1537 14.8405 33.1124 14.7989C33.0712 14.7573 33.0368 14.7226 33.0036 14.6912C32.9705 14.6599 32.9451 14.6381 32.9251 14.6229H32.8669L32.7607 14.5693C32.5702 14.4732 32.3762 14.4619 32.0704 14.461C32.0661 14.4654 32.0615 14.47 32.0567 14.4749L31.9099 14.6229H31.8243C31.7993 14.6438 31.7689 14.6666 31.7347 14.6873C31.6945 14.7117 31.6515 14.7321 31.6058 14.7478C31.5913 14.7585 31.5758 14.7696 31.5592 14.7808C31.5083 14.815 31.4222 14.8678 31.3115 14.9047C31.3102 14.9061 31.309 14.9074 31.3077 14.9087C31.2767 14.9421 31.255 14.9679 31.2399 14.9882C31.2384 14.9902 31.237 14.992 31.2358 14.9937C31.2291 15.0796 31.2101 15.1575 31.1958 15.2102C31.1771 15.2793 31.1534 15.3513 31.1346 15.408L31.1327 15.4137C31.1116 15.4776 31.0962 15.5247 31.0854 15.5645C31.0811 15.5805 31.0789 15.5907 31.0778 15.5962C31.0794 15.7734 31.109 15.9012 31.1557 16.007C31.2003 16.1083 31.2698 16.2109 31.3813 16.3286C31.8094 16.6132 32.0242 16.7008 32.3437 16.7008C32.4269 16.7008 32.5081 16.6999 32.5819 16.6874C32.6136 16.6821 32.6344 16.6761 32.6461 16.6716C32.7793 16.5422 32.9135 16.4747 32.9927 16.4348C32.9957 16.4333 32.9987 16.4318 33.0015 16.4304Z" fill="#DBDBDB" stroke="#EFEBD8"/>
<path d="M28.1851 16.4304C28.1988 16.4235 28.2105 16.4175 28.2206 16.4122C28.2319 16.3895 28.2447 16.3672 28.2591 16.3455C28.3075 16.2723 28.3651 16.2177 28.4217 16.1776C28.4395 16.1504 28.458 16.1261 28.475 16.1057C28.4812 16.0324 28.4983 15.9376 28.5443 15.8448C28.5718 15.7894 28.6041 15.7438 28.6328 15.7082V15.7078V15.7073V15.7067V15.7062V15.7057V15.7052V15.7047V15.7042V15.7036V15.7031V15.7026V15.7021V15.7015V15.701V15.7005V15.7V15.6994V15.6989V15.6984V15.6978V15.6973V15.6968V15.6962V15.6957V15.6951V15.6946V15.6941V15.6935V15.693V15.6924V15.6919V15.6913V15.6908V15.6902V15.6897V15.6891V15.6885V15.688V15.6874V15.6869V15.6863V15.6857V15.6852V15.6846V15.684V15.6834V15.6829V15.6823V15.6817V15.6811V15.6806V15.68V15.6794V15.6788V15.6782V15.6776V15.677V15.6764V15.6758V15.6752V15.6746V15.674V15.6734V15.6728V15.6722V15.6716V15.671V15.6704V15.6698V15.6692V15.6685V15.6679V15.6673V15.6667V15.666V15.6654V15.6648V15.6641V15.6635V15.6629V15.6622V15.6616V15.6609V15.6603V15.6596V15.659V15.6583V15.6577V15.657V15.6564V15.6557V15.655V15.6544V15.6537V15.653V15.6523V15.6517V15.651V15.6503V15.6496V15.6489V15.6482V15.6475V15.6469V15.6462V15.6455V15.6448V15.644V15.6433V15.6426V15.6419V15.6412V15.6405V15.6398V15.639V15.6383V15.6376V15.6368V15.6361V15.6354V15.6346V15.6339V15.6331V15.6324V15.6316V15.6309V15.6301V15.6294V15.6286V15.6278V15.6271V15.6263V15.6255V15.6248V15.624V15.6232V15.6224V15.6216V15.6208V15.62V15.6192V15.6184V15.6176V15.6168V15.616V15.6152V15.6144V15.6136V15.6127V15.6119V15.6111V15.6102V15.6094V15.6086V15.6077V15.6069V15.606V15.6052V15.6043V15.6035V15.6026V15.6017V15.6009V15.6V15.5991V15.5982V15.5973V15.5965V15.5956V15.5947V15.5938V15.5929V15.592V15.5911V15.5902V15.5892V15.5883V15.5874V15.5865V15.5855V15.5846V15.5837V15.5827V15.5818V15.5808C28.6328 15.497 28.6319 15.4141 28.6194 15.3384C28.6139 15.3049 28.6076 15.2829 28.6028 15.2704L28.4723 15.1387V14.9904C28.4717 14.9897 28.4712 14.9889 28.4706 14.9882C28.4555 14.9679 28.4338 14.9421 28.4028 14.9087C28.3716 14.8752 28.3372 14.8405 28.296 14.7989C28.2548 14.7573 28.2204 14.7226 28.1872 14.6912C28.1541 14.6599 28.1287 14.6381 28.1087 14.6229H28.0505L27.9443 14.5693C27.7538 14.4732 27.5598 14.4619 27.254 14.461C27.2497 14.4654 27.2451 14.47 27.2403 14.4749L27.0935 14.6229H27.0079C26.9829 14.6438 26.9525 14.6666 26.9183 14.6873C26.8781 14.7117 26.8351 14.7321 26.7894 14.7478C26.7749 14.7585 26.7594 14.7696 26.7427 14.7808C26.6919 14.815 26.6058 14.8678 26.4951 14.9047C26.4938 14.9061 26.4926 14.9074 26.4913 14.9087C26.4603 14.9421 26.4386 14.9679 26.4235 14.9882C26.422 14.9902 26.4206 14.992 26.4194 14.9937C26.4127 15.0796 26.3937 15.1575 26.3794 15.2102C26.3607 15.2793 26.337 15.3513 26.3182 15.408L26.3163 15.4137C26.2952 15.4776 26.2798 15.5247 26.269 15.5645C26.2647 15.5805 26.2625 15.5907 26.2613 15.5962C26.263 15.7734 26.2926 15.9012 26.3393 16.007C26.3839 16.1083 26.4534 16.2109 26.5649 16.3286C26.993 16.6132 27.2078 16.7008 27.5273 16.7008C27.6105 16.7008 27.6917 16.6999 27.7655 16.6874C27.7972 16.6821 27.818 16.6761 27.8297 16.6716C27.9629 16.5422 28.0971 16.4747 28.1763 16.4348C28.1793 16.4333 28.1823 16.4318 28.1851 16.4304Z" fill="#DBDBDB" stroke="#EFEBD8"/>
<path d="M23.3726 16.4304C23.3863 16.4235 23.398 16.4175 23.4081 16.4122C23.4194 16.3895 23.4322 16.3672 23.4466 16.3455C23.495 16.2723 23.5526 16.2177 23.6092 16.1776C23.627 16.1504 23.6455 16.1261 23.6625 16.1057C23.6687 16.0324 23.6858 15.9376 23.7318 15.8448C23.7593 15.7894 23.7916 15.7438 23.8203 15.7082V15.7078V15.7073V15.7067V15.7062V15.7057V15.7052V15.7047V15.7042V15.7036V15.7031V15.7026V15.7021V15.7015V15.701V15.7005V15.7V15.6994V15.6989V15.6984V15.6978V15.6973V15.6968V15.6962V15.6957V15.6951V15.6946V15.6941V15.6935V15.693V15.6924V15.6919V15.6913V15.6908V15.6902V15.6897V15.6891V15.6885V15.688V15.6874V15.6869V15.6863V15.6857V15.6852V15.6846V15.684V15.6834V15.6829V15.6823V15.6817V15.6811V15.6806V15.68V15.6794V15.6788V15.6782V15.6776V15.677V15.6764V15.6758V15.6752V15.6746V15.674V15.6734V15.6728V15.6722V15.6716V15.671V15.6704V15.6698V15.6692V15.6685V15.6679V15.6673V15.6667V15.666V15.6654V15.6648V15.6641V15.6635V15.6629V15.6622V15.6616V15.6609V15.6603V15.6596V15.659V15.6583V15.6577V15.657V15.6564V15.6557V15.655V15.6544V15.6537V15.653V15.6523V15.6517V15.651V15.6503V15.6496V15.6489V15.6482V15.6475V15.6469V15.6462V15.6455V15.6448V15.644V15.6433V15.6426V15.6419V15.6412V15.6405V15.6398V15.639V15.6383V15.6376V15.6368V15.6361V15.6354V15.6346V15.6339V15.6331V15.6324V15.6316V15.6309V15.6301V15.6294V15.6286V15.6278V15.6271V15.6263V15.6255V15.6248V15.624V15.6232V15.6224V15.6216V15.6208V15.62V15.6192V15.6184V15.6176V15.6168V15.616V15.6152V15.6144V15.6136V15.6127V15.6119V15.6111V15.6102V15.6094V15.6086V15.6077V15.6069V15.606V15.6052V15.6043V15.6035V15.6026V15.6017V15.6009V15.6V15.5991V15.5982V15.5973V15.5965V15.5956V15.5947V15.5938V15.5929V15.592V15.5911V15.5902V15.5892V15.5883V15.5874V15.5865V15.5855V15.5846V15.5837V15.5827V15.5818V15.5808C23.8203 15.497 23.8194 15.4141 23.8069 15.3384C23.8014 15.3049 23.7951 15.2829 23.7903 15.2704L23.6598 15.1387V14.9904C23.6592 14.9897 23.6587 14.9889 23.6581 14.9882C23.643 14.9679 23.6213 14.9421 23.5903 14.9087C23.5591 14.8752 23.5247 14.8405 23.4835 14.7989C23.4423 14.7573 23.4079 14.7226 23.3747 14.6912C23.3416 14.6599 23.3162 14.6381 23.2962 14.6229H23.238L23.1318 14.5693C22.9413 14.4732 22.7473 14.4619 22.4415 14.461C22.4372 14.4654 22.4326 14.47 22.4278 14.4749L22.281 14.6229H22.1954C22.1704 14.6438 22.14 14.6666 22.1058 14.6873C22.0656 14.7117 22.0226 14.7321 21.9769 14.7478C21.9624 14.7585 21.9469 14.7696 21.9303 14.7808C21.8794 14.815 21.7933 14.8678 21.6826 14.9047C21.6813 14.9061 21.6801 14.9074 21.6788 14.9087C21.6478 14.9421 21.6261 14.9679 21.611 14.9882C21.6095 14.9902 21.6081 14.992 21.6069 14.9937C21.6002 15.0796 21.5812 15.1575 21.5669 15.2102C21.5482 15.2793 21.5245 15.3513 21.5057 15.408L21.5038 15.4137C21.4827 15.4776 21.4673 15.5247 21.4565 15.5645C21.4522 15.5805 21.45 15.5907 21.4488 15.5962C21.4505 15.7734 21.4801 15.9012 21.5268 16.007C21.5714 16.1083 21.6409 16.2109 21.7524 16.3286C22.1805 16.6132 22.3953 16.7008 22.7148 16.7008C22.798 16.7008 22.8792 16.6999 22.953 16.6874C22.9847 16.6821 23.0055 16.6761 23.0172 16.6716C23.1504 16.5422 23.2846 16.4747 23.3638 16.4348C23.3668 16.4333 23.3698 16.4318 23.3726 16.4304Z" fill="#DBDBDB" stroke="#EFEBD8"/>
<path d="M14.6796 9.09956H21.1016L19.4961 1H13.0741L14.6796 9.09956Z" stroke="#EFEBD8" stroke-width="2" stroke-miterlimit="10" stroke-linecap="round" stroke-linejoin="round"/>
<path d="M27.5272 9.09956H33.9492L32.3437 1H25.9218L27.5272 9.09956Z" stroke="#EFEBD8" stroke-width="2" stroke-miterlimit="10" stroke-linecap="round" stroke-linejoin="round"/>
</svg>
