<svg width="34" height="34" viewBox="0 0 34 34" fill="none" xmlns="http://www.w3.org/2000/svg">
<path d="M22 22L32 32M32 22L22 32M13.6667 32V21.4378C13.6667 21.0303 13.6667 20.8265 13.6206 20.6347C13.5798 20.4645 13.5124 20.302 13.4211 20.1528C13.318 19.9847 13.1739 19.8405 12.8856 19.5523L2.78105 9.44772C2.4928 9.15947 2.34867 9.01533 2.2456 8.84713C2.15422 8.69802 2.08688 8.53545 2.04605 8.36538C2 8.17357 2 7.96975 2 7.5621V4.66667C2 3.73325 2 3.26653 2.18165 2.91002C2.34145 2.59642 2.59642 2.34145 2.91002 2.18165C3.26653 2 3.73325 2 4.66667 2H29.3333C30.2668 2 30.7335 2 31.09 2.18165C31.4037 2.34145 31.6585 2.59642 31.8183 2.91002C32 3.26653 32 3.73325 32 4.66667V7.5621C32 7.96975 32 8.17357 31.954 8.36538C31.9132 8.53545 31.8458 8.69802 31.7543 8.84713C31.6513 9.01533 31.5072 9.15947 31.219 9.44772L25.3333 15.3333" stroke="#FCFBF7" stroke-width="3" stroke-linecap="round" stroke-linejoin="round"/>
</svg>
