<svg width="46" height="44" viewBox="0 0 46 44" fill="none" xmlns="http://www.w3.org/2000/svg">
<path d="M44.0214 6.54579C44.682 7.16753 45.1446 7.99171 45.2263 8.89943C45.2446 9.70606 45.2066 10.4059 44.794 11.1191C44.756 11.191 44.718 11.2628 44.6788 11.3368C44.1627 12.1411 43.2744 12.5741 42.4739 13.0506C42.2014 13.213 41.9303 13.3777 41.6596 13.5432C41.2789 13.7759 40.8978 14.0078 40.5163 14.2391C39.8802 14.6253 39.2466 15.0153 38.6132 15.4058C37.6701 15.9872 36.725 16.5653 35.7779 17.1401C35.6903 17.1932 35.6028 17.2464 35.5127 17.3011C35.4373 17.3468 35.3619 17.3925 35.2842 17.4396C35.1985 17.4922 35.1127 17.5448 35.0243 17.599C34.9572 17.6242 34.8902 17.6493 34.821 17.6752C34.5643 17.7894 34.4125 17.8846 34.2268 18.0975C34.0946 18.599 34.0973 19.0996 34.0964 19.6147C34.094 19.7679 34.0916 19.9212 34.089 20.0745C34.0847 20.3974 34.0836 20.7201 34.0845 21.0429C34.085 21.3682 34.0803 21.6927 34.0702 22.0179C34.003 24.2081 34.2631 25.7833 35.4161 27.6584C35.7847 28.2582 36.0919 28.8838 36.4001 29.516C36.5087 29.7343 36.6174 29.9525 36.7263 30.1706C36.834 30.3872 36.9417 30.6039 37.0493 30.8205C37.7132 32.1566 38.3814 33.4888 39.0802 34.807C39.4134 35.4363 39.7369 36.0703 40.0568 36.7064C40.1256 36.8429 40.1948 36.9792 40.2643 37.1154C40.3679 37.3183 40.4705 37.5217 40.5728 37.7253C40.6035 37.785 40.6342 37.8448 40.6659 37.9063C41.13 38.8393 41.2744 39.7929 40.9435 40.7896C40.5486 41.7666 39.884 42.5318 38.9041 42.9529C37.8627 43.3049 36.8413 43.3857 35.8219 42.9205C34.7604 42.2713 34.2303 41.2915 33.666 40.2164C33.5424 39.9838 33.4187 39.7512 33.2949 39.5186C33.203 39.3451 33.203 39.3451 33.1091 39.1681C32.8518 38.6848 32.5895 38.2044 32.3264 37.7241C31.9114 36.9649 31.4983 36.2047 31.0865 35.4437C29.918 33.283 29.918 33.283 28.7313 31.1321C28.6948 31.0661 28.6583 31.0001 28.6206 30.9321C28.4786 30.679 28.352 30.4661 28.1457 30.2598C27.8492 30.2428 27.8492 30.2428 27.5475 30.3595C27.3852 30.5736 27.2786 30.7485 27.1639 30.9864C27.1307 31.0509 27.0974 31.1153 27.0632 31.1817C26.9548 31.3927 26.8493 31.605 26.7438 31.8175C26.6311 32.038 26.5177 32.2582 26.4043 32.4784C26.3283 32.626 26.2526 32.7737 26.1771 32.9215C25.8598 33.5419 25.5218 34.1486 25.1736 34.7521C24.6966 35.5849 24.2454 36.4283 23.8048 37.2808C23.3167 38.2242 22.8112 39.1576 22.2975 40.0872C22.2127 40.2407 22.1283 40.3943 22.0442 40.5481C21.3642 41.7908 20.7857 42.5912 19.4476 43.1573C18.244 43.3579 17.1682 43.25 16.1516 42.5467C15.4104 41.9437 14.9477 41.1702 14.7871 40.2289C14.6555 38.8635 15.2553 37.7452 15.8744 36.5714C16.0946 36.1535 16.3115 35.7339 16.5285 35.3144C16.6021 35.1723 16.6021 35.1723 16.6772 35.0273C17.1356 34.1392 17.5837 33.2459 18.0301 32.3517C18.0673 32.2774 18.1044 32.2031 18.1426 32.1265C18.5184 31.3737 18.8936 30.6206 19.2685 29.8673C19.3405 29.7227 19.4126 29.5782 19.4848 29.4337C19.6593 29.0842 19.8329 28.7344 20.0045 28.3835C20.276 27.8315 20.5439 27.2875 20.8887 26.7763C21.8663 25.2983 21.702 23.5778 21.6807 21.8713C21.6765 21.4448 21.678 21.0184 21.679 20.5919C21.6801 19.7603 21.675 18.929 21.6657 18.0975C21.5891 18.0677 21.5125 18.038 21.4335 18.0073C21.1348 17.8848 20.8746 17.7324 20.5991 17.564C20.4882 17.4964 20.3772 17.4288 20.2629 17.3591C20.1427 17.2854 20.0226 17.2117 19.9025 17.138C19.777 17.0613 19.6516 16.9848 19.5261 16.9082C18.6038 16.345 17.6835 15.7784 16.7639 15.2107C16.1896 14.8565 15.614 14.5047 15.0363 14.1562C14.9737 14.1184 14.9111 14.0806 14.8466 14.0416C14.545 13.8594 14.2431 13.6776 13.9409 13.4963C11.3187 11.9141 11.3187 11.9141 10.8617 10.6004C10.6104 9.47573 10.8273 8.49439 11.3789 7.50532C12.0226 6.69608 12.6673 6.17915 13.708 5.97179C15.0519 5.8205 16.0716 6.28456 17.2046 6.96325C17.3271 7.03516 17.4498 7.10693 17.5725 7.17857C17.8216 7.32427 18.0702 7.47077 18.3184 7.61805C18.7418 7.86923 19.1673 8.11665 19.5928 8.3641C19.8852 8.5342 20.1771 8.70489 20.4691 8.87568C21.4262 9.43502 22.387 9.98807 23.3481 10.5407C23.6527 10.7164 23.9566 10.8931 24.2604 11.07C24.4464 11.1778 24.6325 11.2855 24.8185 11.3933C24.9432 11.4664 24.9432 11.4664 25.0705 11.5411C26.0424 12.1018 26.7571 12.2661 27.8902 12.2593C28.0075 12.2613 28.1247 12.2633 28.2455 12.2654C28.9787 12.265 29.5027 12.1771 30.1395 11.817C30.2276 11.7699 30.3157 11.7228 30.4065 11.6743C30.708 11.5114 31.0064 11.3439 31.3046 11.1752C31.4139 11.1137 31.5231 11.0522 31.6356 10.9888C32.426 10.5421 33.2096 10.0845 33.9898 9.62024C34.8005 9.138 35.6171 8.66622 36.435 8.19624C36.9854 7.87971 37.5347 7.56144 38.0817 7.23895C38.2423 7.14439 38.2423 7.14439 38.4063 7.04792C38.6083 6.92885 38.8102 6.8094 39.0117 6.68951C40.6274 5.73848 42.4106 5.2522 44.0214 6.54579ZM39.4045 8.20938C39.2316 8.3106 39.0586 8.41182 38.8857 8.513C38.7092 8.61641 38.533 8.72021 38.3569 8.82413C37.9423 9.06851 37.5265 9.31102 37.1107 9.55334C36.915 9.66734 36.7195 9.78146 36.524 9.89568C35.6852 10.3857 34.8442 10.8718 34.0017 11.3554C33.4574 11.6683 32.9154 11.9843 32.3771 12.3072C32.2712 12.3703 32.1653 12.4334 32.0562 12.4984C31.8575 12.617 31.6594 12.7365 31.4619 12.8571C30.2854 13.557 29.2692 13.7769 27.9027 13.7609C27.7715 13.7625 27.6404 13.764 27.5053 13.7656C26.1372 13.7602 25.0946 13.3944 23.9399 12.683C23.7306 12.5575 23.5212 12.4321 23.3118 12.3068C23.1515 12.2101 23.1515 12.2101 22.988 12.1114C22.4556 11.7926 21.9173 11.4842 21.3791 11.1752C21.1619 11.0501 20.9448 10.925 20.7276 10.7998C20.6195 10.7375 20.5115 10.6753 20.4001 10.6111C19.9574 10.356 19.515 10.1004 19.0725 9.84482C18.7486 9.65781 18.4244 9.47117 18.1002 9.28457C17.6932 9.05019 17.2873 8.81412 16.8821 8.5766C16.6968 8.46873 16.5114 8.36086 16.326 8.253C16.2437 8.20421 16.1613 8.15541 16.0765 8.10514C15.3024 7.65674 14.6217 7.31249 13.7259 7.54581C13.1278 7.76006 12.8073 8.05 12.5004 8.60815C12.2469 9.17842 12.1844 9.57331 12.3727 10.1693C12.8137 11.2136 13.8599 11.6737 14.7995 12.2157C15.5888 12.6765 16.3688 13.1494 17.1423 13.6363C17.9704 14.1575 18.8028 14.6709 19.6399 15.1775C19.8196 15.2863 19.9992 15.3953 20.1788 15.5043C20.681 15.8093 21.1835 16.1136 21.6879 16.4148C21.8322 16.5021 21.9764 16.5895 22.1206 16.6769C22.1834 16.7137 22.2463 16.7506 22.311 16.7886C22.6814 17.0152 22.8751 17.208 23.0614 17.599C23.0937 17.8604 23.1104 18.099 23.1128 18.3605C23.1146 18.4356 23.1164 18.5108 23.1182 18.5882C23.1236 18.8366 23.1266 19.085 23.1292 19.3335C23.1308 19.4621 23.1308 19.4621 23.1325 19.5934C23.1381 20.0492 23.1419 20.5049 23.1442 20.9607C23.1464 21.3334 23.1519 21.7058 23.1606 22.0784C23.2488 25.9482 23.2488 25.9482 22.111 27.7282C21.844 28.1641 21.6317 28.6282 21.4103 29.0884C21.1713 29.5696 20.9284 30.0483 20.6757 30.5224C19.8597 32.055 19.0864 33.6089 18.3108 35.1622C18.1087 35.5671 17.9061 35.9719 17.7035 36.3766C17.5464 36.6904 17.3895 37.0042 17.2327 37.3182C17.158 37.4676 17.0832 37.6171 17.0084 37.7665C16.9047 37.9736 16.8013 38.1808 16.6979 38.3881C16.6392 38.5057 16.5804 38.6233 16.5199 38.7444C16.247 39.3152 16.1975 39.8188 16.3821 40.4283C16.6165 41.002 17.0983 41.3549 17.6158 41.6682C18.2722 41.8088 18.8918 41.8112 19.4797 41.46C20.1384 40.9991 20.4762 40.282 20.8246 39.5809C21.2361 38.7719 21.6627 37.9756 22.1144 37.1883C22.5481 36.4298 22.9655 35.6653 23.3667 34.8892C23.8979 33.8618 24.4425 32.8429 25.0028 31.831C25.107 31.6425 25.2108 31.4536 25.3141 31.2645C25.4716 30.9767 25.6308 30.6898 25.7905 30.4031C25.8379 30.3159 25.8853 30.2287 25.9342 30.1388C26.2643 29.5521 26.5853 29.1762 27.1737 28.833C27.7471 28.6896 28.3195 28.6758 28.8684 28.914C29.6844 29.4048 30.0736 30.3579 30.4987 31.1735C30.6382 31.4411 30.7792 31.7079 30.92 31.9747C30.9912 32.1095 31.0623 32.2444 31.1333 32.3793C31.4343 32.951 31.7417 33.5189 32.0523 34.0854C32.1484 34.2609 32.2444 34.4364 32.3405 34.6119C32.3879 34.6987 32.4354 34.7854 32.4844 34.8748C32.7486 35.3587 33.011 35.8436 33.2735 36.3285C33.3269 36.427 33.3802 36.5255 33.4352 36.627C33.7163 37.146 33.9969 37.6654 34.2767 38.1852C34.3627 38.3449 34.3627 38.3449 34.4506 38.5077C34.5593 38.7094 34.6679 38.9112 34.7762 39.1132C35.5297 40.5977 35.5297 40.5977 36.7627 41.6619C37.473 41.8352 37.9483 41.727 38.5797 41.3792C39.1022 41.035 39.4052 40.6618 39.5727 40.0544C39.7035 39.0839 39.0788 38.1265 38.6506 37.288C38.5802 37.1481 38.5802 37.1481 38.5085 37.0053C38.2767 36.5467 38.0413 36.0903 37.8004 35.6365C37.0055 34.1388 36.2516 32.6215 35.4969 31.1033C34.5998 29.2987 34.5998 29.2987 33.6681 27.5119C33.5944 27.3737 33.5219 27.235 33.4504 27.0957C33.3634 26.9335 33.2697 26.7748 33.1718 26.619C32.6246 25.6833 32.637 24.8031 32.638 23.7499C32.6366 23.5655 32.635 23.3812 32.6334 23.1968C32.6307 22.8126 32.6304 22.4285 32.6316 22.0443C32.6327 21.553 32.6266 21.0621 32.6186 20.5708C32.6134 20.191 32.6128 19.8112 32.6136 19.4314C32.6132 19.2502 32.6113 19.0691 32.6078 18.888C32.5831 17.4825 32.5831 17.4825 32.9397 17.0436C33.1951 16.8614 33.4421 16.7294 33.7284 16.6021C33.8367 16.533 33.945 16.4639 34.0566 16.3926C34.1519 16.3354 34.2471 16.2782 34.3452 16.2193C34.4546 16.1533 34.564 16.0873 34.6767 16.0193C34.7333 15.9853 34.7899 15.9514 34.8482 15.9164C35.1559 15.7319 35.4629 15.5462 35.7701 15.3607C35.8327 15.3228 35.8954 15.285 35.96 15.2461C36.5913 14.8649 37.2193 14.4784 37.8468 14.0912C38.5703 13.6447 39.295 13.2004 40.0223 12.7602C40.8088 12.2837 41.5939 11.805 42.3703 11.3123C42.439 11.2695 42.5077 11.2267 42.5785 11.1827C43.1104 10.8411 43.5295 10.4528 43.6974 9.82313C43.7757 9.13802 43.7051 8.59588 43.2987 8.02869C42.8657 7.57556 42.4039 7.37186 41.8033 7.23117C40.9173 7.23117 40.1409 7.77231 39.4045 8.20938Z" fill="#FCFBF7" stroke="#FCFBF7" stroke-width="0.5"/>
<path d="M13.9855 17.4989C15.7856 18.896 16.9576 20.8923 17.2504 23.1626C17.261 23.3016 17.2693 23.4408 17.2753 23.5801C17.2793 23.6549 17.2833 23.7296 17.2874 23.8067C17.3551 26.2693 16.3725 28.3123 14.7145 30.0724C13.1694 31.5797 11.0001 32.2968 8.8705 32.2746C6.47716 32.1353 4.4932 31.1406 2.8575 29.3871C1.25974 27.4698 0.890364 25.3124 1.02568 22.8822C1.24355 20.871 2.45761 18.9582 3.99253 17.681C6.88875 15.4139 10.9998 15.4339 13.9855 17.4989ZM4.09741 19.717C2.73298 21.324 2.38276 23.129 2.52104 25.1751C2.71252 26.6152 3.50019 27.8611 4.51486 28.8637C4.58336 28.9344 4.65185 29.005 4.72242 29.0779C5.93516 30.2524 7.65983 30.7978 9.32729 30.7726C11.0822 30.6771 12.7658 29.9442 13.9855 28.6643C15.2115 27.1964 15.8889 25.4993 15.7668 23.5728C15.6235 22.071 14.9961 20.7127 13.9855 19.5924C13.935 19.5328 13.8845 19.4732 13.8325 19.4117C12.8891 18.3733 11.3012 17.581 9.89452 17.4851C7.61042 17.3878 5.69817 18.018 4.09741 19.717Z" fill="#FCFBF7" stroke="#FCFBF7" stroke-width="0.5"/>
<path d="M30.0905 1.41163C30.1757 1.44427 30.2609 1.47691 30.3487 1.51054C31.8866 2.17621 32.8776 3.59591 33.48 5.10019C33.9603 6.39008 33.7599 8.03413 33.2806 9.28721C32.5908 10.7368 31.4568 11.9002 29.9461 12.4995C28.1728 13.0399 26.4664 12.9737 24.7999 12.1214C23.3708 11.2655 22.4199 9.98272 21.9832 8.37636C21.5822 6.67704 21.9238 5.08004 22.7978 3.58794C23.6462 2.24131 25.0095 1.4494 26.5235 1.05492C27.7289 0.872066 28.9636 0.938264 30.0905 1.41163ZM24.377 4.02851C23.5957 4.95973 23.266 6.08159 23.3178 7.28716C23.4654 8.6106 24.1627 9.65584 25.1589 10.501C26.126 11.2156 27.3188 11.4817 28.5079 11.3309C29.7404 11.0716 30.7746 10.3795 31.5174 9.36821C32.1676 8.31049 32.3755 7.08725 32.1147 5.87435C31.7385 4.62867 30.9746 3.71215 29.8911 3.00668C27.9626 1.98928 25.8554 2.48375 24.377 4.02851Z" fill="#FCFBF7" stroke="#FCFBF7" stroke-width="0.5"/>
<path d="M13.4246 20.4659C13.8732 20.8504 14.1627 21.2003 14.2844 21.7868C14.2981 22.7151 13.9763 23.1971 13.346 23.8492C13.1662 24.031 12.9859 24.2121 12.805 24.3928C12.7084 24.4898 12.6119 24.5868 12.5153 24.6838C12.3136 24.8862 12.1115 25.0883 11.9092 25.2901C11.6505 25.5482 11.3929 25.8075 11.1356 26.0671C10.9368 26.2674 10.7373 26.467 10.5375 26.6665C10.3961 26.8079 10.2554 26.9501 10.1146 27.0922C10.0281 27.1781 9.94162 27.264 9.8525 27.3524C9.77689 27.4281 9.70127 27.5038 9.62337 27.5818C9.25357 27.8899 8.89764 27.9973 8.42137 28.005C8.34259 28.0078 8.26382 28.0107 8.18265 28.0136C7.45389 27.8933 6.93149 27.4532 6.42872 26.9403C6.3686 26.8804 6.30848 26.8204 6.24654 26.7586C6.12066 26.6326 5.99528 26.506 5.87036 26.379C5.67985 26.1856 5.48754 25.9942 5.29492 25.8029C5.17221 25.6795 5.04961 25.5561 4.92712 25.4325C4.87011 25.3758 4.8131 25.3191 4.75436 25.2606C4.26802 24.7628 3.9736 24.3044 3.97266 23.5875C3.99135 22.9018 4.15484 22.5386 4.6518 22.0547C5.15877 21.7288 5.60978 21.6345 6.20947 21.6871C7.08326 21.9572 7.6789 22.6425 8.30298 23.2822C8.71535 23.1213 8.98092 22.8204 9.27964 22.5068C9.39279 22.3907 9.50598 22.2746 9.61922 22.1585C9.79604 21.9761 9.97246 21.7934 10.148 21.6098C10.3185 21.4321 10.4906 21.256 10.6629 21.08C10.7142 21.0255 10.7655 20.9709 10.8184 20.9148C11.5491 20.1743 12.488 19.9803 13.4246 20.4659ZM11.024 22.8473C10.7352 23.137 10.4473 23.4274 10.1597 23.7183C9.92662 23.9541 9.69319 24.1895 9.45956 24.4247C9.40639 24.4787 9.35322 24.5327 9.29845 24.5883C8.99009 24.8987 8.82688 25.0566 8.39021 25.1264C7.7159 25.0394 7.35683 24.5365 6.90381 24.0625C6.85088 24.0079 6.79796 23.9533 6.74344 23.8969C6.63765 23.7872 6.53313 23.6761 6.43001 23.5638C6.26904 23.3899 6.26904 23.3899 6.01009 23.1825C5.77923 23.1821 5.77923 23.1821 5.61133 23.2822C5.51014 23.4985 5.51014 23.4985 5.51164 23.7806C5.69132 24.0213 5.8606 24.2135 6.07318 24.4216C6.16123 24.5105 6.16123 24.5105 6.25106 24.6012C6.37555 24.7261 6.5008 24.8503 6.62673 24.9737C6.8194 25.1632 7.00867 25.3556 7.19782 25.5486C7.31912 25.6695 7.44062 25.7902 7.56231 25.9107C7.61893 25.9686 7.67554 26.0264 7.73388 26.086C7.91325 26.2658 7.91325 26.2658 8.20329 26.4723C8.62885 26.4506 8.82827 26.2957 9.12281 26C9.20228 25.9211 9.28176 25.8422 9.36364 25.761C9.44798 25.6752 9.53232 25.5894 9.61922 25.5011C9.70678 25.4134 9.79435 25.3257 9.88457 25.2354C10.1167 25.0026 10.3479 24.7688 10.5787 24.5346C10.8139 24.2967 11.0509 24.0604 11.2875 23.8238C11.4667 23.6436 11.6458 23.4633 11.8249 23.2829C11.91 23.1976 11.9952 23.1122 12.0829 23.0242C12.1611 22.9448 12.2393 22.8653 12.3199 22.7834C12.389 22.7135 12.4582 22.6436 12.5294 22.5716C12.7106 22.3839 12.7106 22.3839 12.7891 22.0859C12.6583 21.9508 12.5253 21.818 12.3903 21.6871C11.9528 21.6871 11.3309 22.5414 11.024 22.8473Z" fill="#FCFBF7"/>
</svg>
