<svg width="51" height="56" viewBox="0 0 51 56" fill="none" xmlns="http://www.w3.org/2000/svg">
<path d="M32.7121 1.21547C32.5119 1.4157 32.4766 1.60415 32.4766 2.39328C32.4766 3.50041 32.665 3.80664 33.3481 3.80664C33.9488 3.80664 34.1255 3.48863 34.1255 2.39328C34.1255 1.29792 33.9488 0.979914 33.3481 0.979914C33.1008 0.979914 32.8535 1.07414 32.7121 1.21547Z" fill="#FCFBF7"/>
<path d="M9.85536 1.63971C8.66578 2.00483 7.48798 3.12375 7.0993 4.26622C7.00508 4.56067 6.92263 5.09068 6.92263 5.4558V6.12714L6.46329 6.2567C5.88616 6.43337 4.97926 7.23428 4.66125 7.84674C4.04879 9.0481 4.35502 10.5675 5.39149 11.4979C5.69772 11.7806 6.16884 12.075 6.42795 12.1457C6.75774 12.2517 8.74823 12.2871 13.5419 12.2871C21.068 12.2871 20.9032 12.3106 21.8101 11.3919C22.5167 10.6852 22.7523 10.0374 22.6816 9.00098C22.5874 7.67007 21.7747 6.62182 20.5734 6.26848C20.1965 6.1507 20.114 6.06825 20.008 5.63247C19.9374 5.36157 19.7136 4.87867 19.5016 4.56067C18.5358 3.13552 16.8633 2.54662 15.179 3.05308L14.5666 3.22975L13.8599 2.58196C13.3181 2.0755 12.9883 1.87527 12.3876 1.68683C11.4925 1.41593 10.6327 1.39238 9.85536 1.63971ZM12.2345 3.42998C12.741 3.68909 12.953 3.9011 13.2945 4.45466C13.907 5.47935 14.3075 5.5618 15.1908 4.84334C15.6619 4.47822 16.6395 4.41933 17.2402 4.72556C18.0529 5.14957 18.4651 5.76202 18.4651 6.57471C18.4651 7.42273 18.9009 7.8114 19.8431 7.8114C20.4674 7.8114 21.0563 8.44742 21.0563 9.09521C21.0563 9.3661 20.9738 9.743 20.8796 9.93145C20.5027 10.6499 20.644 10.6381 13.5183 10.6381C6.2984 10.6381 6.54573 10.6617 6.15706 9.86078C5.67416 8.83609 6.31017 7.8114 7.42909 7.8114C8.41844 7.8114 8.96023 7.28139 8.68934 6.56293C8.52444 6.13892 8.51266 5.14957 8.67756 4.73734C8.85423 4.24266 9.52558 3.55953 10.0438 3.32397C10.7387 3.00597 11.4925 3.0413 12.2345 3.42998Z" fill="#FCFBF7"/>
<path d="M29.5377 2.12078C29.2432 2.49768 29.2786 2.73324 29.785 3.59303C30.209 4.33505 30.421 4.51172 30.845 4.51172C31.2573 4.51172 31.7048 3.99349 31.5988 3.60481C31.5164 3.23969 30.8568 2.13256 30.6213 1.94411C30.3033 1.69677 29.8086 1.77922 29.5377 2.12078Z" fill="#FCFBF7"/>
<path d="M35.9671 1.9809C35.5666 2.39313 35.0602 3.45315 35.0955 3.83005C35.1426 4.32472 35.6137 4.61917 36.0966 4.4425C36.4618 4.31295 37.3098 2.99381 37.3098 2.54624C37.3098 1.94556 36.3911 1.55689 35.9671 1.9809Z" fill="#FCFBF7"/>
<path d="M27.6553 4.13636C27.2902 4.25414 27.0664 4.56037 27.0664 4.93727C27.0664 5.37305 27.2902 5.58506 28.2913 6.11507C28.9156 6.43308 28.9744 6.44485 29.2689 6.27996C29.6576 6.05618 29.8814 5.53795 29.7047 5.2435C29.5516 5.00793 28.5504 4.32481 28.1382 4.18347C27.9733 4.12458 27.7495 4.10103 27.6553 4.13636Z" fill="#FCFBF7"/>
<path d="M38.0041 4.44302C37.0619 4.9377 36.7438 5.32637 36.9087 5.77394C36.9676 5.95061 37.1679 6.17439 37.3445 6.28039C37.6508 6.44529 37.7096 6.43351 38.4517 6.04483C39.3821 5.55016 39.7119 5.16148 39.5941 4.70214C39.5352 4.4548 39.0523 4.04257 38.805 4.04257C38.7814 4.04257 38.4163 4.21924 38.0041 4.44302Z" fill="#FCFBF7"/>
<path d="M32.3646 4.42993C31.2928 4.73615 30.3388 5.56062 29.8677 6.57353C29.4554 7.45688 29.4908 8.81135 29.9266 9.71826C30.2799 10.4485 30.9041 11.0727 31.6815 11.485C32.1055 11.7087 32.3646 11.7559 33.3069 11.7559C34.2491 11.7559 34.5082 11.7087 34.9558 11.4732C35.6742 11.0963 36.322 10.4603 36.6989 9.75359C36.9698 9.24714 37.0169 9.02336 37.0169 8.10467C37.0169 6.86798 36.7578 6.19663 35.9805 5.41928C35.0853 4.52415 33.5306 4.10014 32.3646 4.42993ZM34.5082 6.33797C35.5682 7.04465 35.7331 8.57579 34.8616 9.49448C34.414 9.97738 33.99 10.1658 33.3775 10.1658C32.4235 10.1658 31.7993 9.77715 31.4106 8.92913C30.9277 7.86911 31.3046 6.79731 32.3764 6.24374C33.142 5.84329 33.8015 5.86685 34.5082 6.33797Z" fill="#FCFBF7"/>
<path d="M26.6045 7.37586C26.1687 7.59964 26.0392 8.11787 26.3218 8.50655C26.5456 8.78922 26.6281 8.81278 27.5703 8.84811C28.4654 8.87167 28.6185 8.84811 28.8306 8.63611C29.1721 8.29454 29.1368 7.76453 28.7599 7.47008C28.5125 7.26985 28.277 7.22274 27.6645 7.22274C27.2405 7.22274 26.7576 7.29341 26.6045 7.37586Z" fill="#FCFBF7"/>
<path d="M37.8513 7.50484C37.4862 7.85818 37.4626 8.31753 37.7807 8.63553C37.9809 8.83576 38.1693 8.87109 39.0173 8.87109C39.8654 8.87109 40.0538 8.83576 40.254 8.63553C40.5485 8.34108 40.5603 7.91707 40.2658 7.56373C40.0656 7.31639 39.9125 7.28106 39.0998 7.24573C38.2047 7.19861 38.134 7.22217 37.8513 7.50484Z" fill="#FCFBF7"/>
<path d="M27.9498 10.237C27.1371 10.7316 27.0664 10.8023 27.0664 11.297C27.0664 11.7328 27.3726 12.0508 27.8084 12.0508C28.1853 12.0508 29.4927 11.297 29.6576 10.9908C29.846 10.6492 29.7989 10.3076 29.5398 10.0485C29.1982 9.70695 28.7507 9.75407 27.9498 10.237Z" fill="#FCFBF7"/>
<path d="M37.0857 10.1181C36.8031 10.4715 36.8031 10.5186 36.9444 10.919C37.0975 11.2959 38.4755 12.0851 38.9113 12.0262C39.088 12.0026 39.3353 11.8495 39.4649 11.6846C39.83 11.1782 39.618 10.7895 38.7111 10.2477C37.816 9.72946 37.4155 9.69413 37.0857 10.1181Z" fill="#FCFBF7"/>
<path d="M30.4707 11.7444C30.1645 11.8975 29.3047 13.2756 29.3047 13.6171C29.3047 13.8998 29.8229 14.4062 30.1056 14.4062C30.4707 14.4062 30.8829 13.994 31.2952 13.2284C31.6367 12.5807 31.6721 12.4747 31.5425 12.1684C31.3658 11.7444 30.8594 11.5442 30.4707 11.7444Z" fill="#FCFBF7"/>
<path d="M35.6596 11.6755C34.9882 11.8875 34.9058 12.4765 35.4358 13.4069C36.0011 14.4198 36.4251 14.6201 37.0023 14.1607C37.438 13.8191 37.3909 13.4069 36.8138 12.5236C36.3191 11.7933 36.0129 11.5578 35.6596 11.6755Z" fill="#FCFBF7"/>
<path d="M32.771 12.5804C32.5119 12.8278 32.4766 12.9691 32.4766 13.7347C32.4766 14.7711 32.7357 15.2305 33.3128 15.2305C33.937 15.2305 34.1255 14.8889 34.1255 13.77C34.1255 12.8395 34.1019 12.7571 33.8193 12.5333C33.407 12.2153 33.1244 12.2271 32.771 12.5804Z" fill="#FCFBF7"/>
<path d="M33.1324 46.6036C33.097 41.4095 33.1324 41.3782 33.1324 41.3782V38.3564L34.2452 38.2337V41.3782V46.6036V52.4024C34.2452 52.4024 34.2452 53.2803 33.6888 53.2803C33.117 53.2803 33.1238 52.9101 33.1308 52.5287C33.1316 52.4866 33.1324 52.4443 33.1324 52.4024C33.1324 52.3199 33.1337 52.2466 33.1356 52.1429C33.1435 51.7172 33.1608 50.7807 33.1324 46.6036Z" fill="#FCFBF7"/>
<path d="M34.2452 34.8061V36.1723V38.2337L33.1324 38.3564V36.2194V34.8061C33.1522 33.8462 33.1387 33.4009 33.1339 33.2419L33.1328 33.2032L33.1324 33.1807C33.1324 33.1432 33.132 33.1052 33.1317 33.0671C33.1277 32.6113 33.1235 32.1374 33.6888 32.1374C34.254 32.1374 34.2498 32.6113 34.2458 33.0671C34.2455 33.1052 34.2452 33.1432 34.2452 33.1807C34.2452 33.1918 34.2439 33.2117 34.2421 33.2419C34.2325 33.4009 34.2056 33.8462 34.2452 34.8061Z" fill="#FCFBF7"/>
<path fill-rule="evenodd" clip-rule="evenodd" d="M16.0747 16.5737C17.2525 15.2192 18.6895 14.2416 20.0321 13.8765C22.5409 13.2052 25.2027 14.2887 27.417 16.9035C28.2297 17.8693 29.9964 20.4958 30.9504 22.1447C31.2919 22.7454 31.5982 23.24 31.6217 23.24C31.6571 23.24 32.3049 22.6511 33.0704 21.9445C37.0867 18.1637 39.725 16.7386 41.9982 17.1037C43.8002 17.3981 45.0133 18.3757 45.9674 20.3309C46.5681 21.5793 47.0745 23.3578 47.8401 26.903C48.7941 31.2609 49.4772 33.64 50.4784 35.9368C50.8199 36.7259 50.8788 36.9732 50.7846 37.2323L50.7798 37.2463C50.7526 37.3249 50.729 37.3932 50.6913 37.4525C50.442 37.8448 49.5753 37.8448 42.9757 37.8448C36.2623 37.8448 35.8736 37.8566 35.956 38.045L34.2452 38.2337V36.1723L37.2634 36.1959H38.9712L37.5814 34.8061C35.2729 32.5211 33.9067 30.5778 30.6559 24.9479C28.4063 21.0611 27.6996 19.9304 26.6396 18.576C25.6385 17.2804 24.5902 16.3617 23.5538 15.8552C22.482 15.3252 21.2571 15.2074 20.2913 15.549C18.6306 16.1497 17.6883 17.0566 15.0854 20.5311C13.1302 23.1458 12.1998 24.2294 8.6899 28.0219C6.01629 30.8958 5.25072 31.7791 4.26136 33.0865C3.56646 34.0052 2.44755 35.8779 2.44755 36.1252C2.44755 36.1605 4.86204 36.1959 7.80655 36.1959C12.8122 36.1959 13.1773 36.1841 13.2362 35.9839C13.9665 33.64 15.262 31.838 16.911 30.8958C17.3114 30.672 17.6412 30.4482 17.6412 30.4011C17.6412 30.354 17.4881 30.0713 17.2879 29.7533C15.7803 27.3152 16.805 24.1234 19.5021 22.8514C20.2206 22.5098 20.3855 22.4745 21.4102 22.4863C22.2818 22.4863 22.6822 22.5451 23.2122 22.7571C24.4842 23.2636 25.5207 24.3118 26.0389 25.6428C26.5336 26.8912 26.2863 28.8935 25.5207 29.9771C25.2616 30.3304 25.2616 30.354 25.4618 30.4718C26.1332 30.8722 26.8987 31.5907 27.2992 32.2031C27.7114 32.8391 27.8999 33.2867 28.6183 35.3714L28.8892 36.137L30.4439 36.1723L33.1324 36.2194V38.3564L33.0887 38.4044C32.9452 38.5629 32.8515 38.6664 32.576 38.8141C32.0732 39.0251 31.8223 39.108 31.2708 39.1639C29.3745 39.1639 28.6812 38.8141 28.1943 38.4219C27.9823 38.3159 27.5685 37.7013 27.5685 37.7013C27.5685 37.7013 26.8653 36.5224 26.8218 36.3974C26.7449 36.1764 26.6768 35.9806 26.6323 35.8583C26.4674 35.399 26.4557 35.399 26.4557 36.5885V37.7013L26.3569 44.6761V48.9044C26.3569 53.4742 26.3334 53.6863 25.6974 54.5107C25.5325 54.7345 25.1085 55.0525 24.7551 55.2292C24.2133 55.5001 24.0013 55.5354 23.2947 55.4883C22.6233 55.453 22.3878 55.3823 21.9755 55.0878L21.4691 54.7345L20.9626 55.0878C20.4915 55.4294 20.3737 55.453 19.4786 55.453C18.607 55.453 18.4539 55.4176 17.9239 55.0996C17.5705 54.8758 17.2172 54.5225 16.9934 54.1692L16.6401 53.592L16.6047 49.1282L16.5694 44.6761H16.2161C15.7096 44.6761 15.1443 44.4052 14.8027 44.0047C13.5866 42.4302 13.1519 41.0367 12.8122 37.8448H7.05276C3.56646 37.8448 1.16374 37.7977 0.987072 37.727C0.256834 37.4561 0.362836 36.5492 1.34041 34.653C2.41221 32.58 3.69602 30.9547 7.75944 26.5968C11.1633 22.9338 12.3058 21.5911 13.9665 19.2944C14.7203 18.2697 15.6625 17.0448 16.0747 16.5737ZM45.614 24.5003C44.8956 21.4145 43.8709 19.5653 42.5753 19C41.9511 18.7173 41.0324 18.6231 40.4435 18.7762C39.725 18.9528 38.2881 19.7538 37.1574 20.6018C36.1327 21.3791 33.9656 23.2989 32.9762 24.3236L32.4697 24.8536L33.7771 27.0208C36.4272 31.414 38.4648 33.8049 40.9853 35.4892L42.0335 36.1959H45.3902C47.2276 36.1959 48.7352 36.1723 48.7352 36.1488C48.7352 36.1252 48.535 35.5599 48.2876 34.8885C47.6516 33.1807 47.0627 31.0371 46.3914 27.9513C46.0734 26.4908 45.72 24.9361 45.614 24.5003ZM24.6491 26.9148C24.4607 25.6781 23.542 24.571 22.4231 24.2412C21.1511 23.8643 19.985 24.1705 19.1252 25.1481C18.0181 26.373 17.9592 28.1162 18.9721 29.3057L19.3726 29.7769C20.0922 30.2872 20.559 30.3927 21.4481 30.4682C22.0557 30.4435 22.8526 30.3669 23.5773 29.7769L23.966 29.2704C24.4725 28.5991 24.7551 27.6333 24.6491 26.9148ZM25.1203 33.7578C24.8965 33.004 24.0838 32.0736 23.3536 31.732C22.6586 31.4022 20.9037 31.2962 20.091 31.52C19.0899 31.8145 18.2654 32.5682 17.8768 33.5812C17.6765 34.1112 17.6412 34.4763 17.6412 36.137V38.0804V42.9682H18.2301H21.4691H25.2969V41.39L25.3429 39.9269L25.2969 38.0804V36.2194C25.2969 34.9003 25.2498 34.1818 25.1203 33.7578ZM15.9923 38.0804V36.0192C15.9923 34.8885 15.9805 33.9581 15.9569 33.9581C14.1567 36.7322 13.9685 38.2788 14.7714 41.0397C14.7634 41.0892 15.5363 43.5825 15.9923 43.2652V38.0804ZM24.5314 53.274C24.6845 52.9913 24.708 52.2611 24.708 48.7984V44.6761H21.4691H18.2301V48.9279V53.1798L18.5717 53.5214C19.031 53.9689 19.7141 53.9925 20.197 53.5803L20.5268 53.2976L20.5857 49.4697C20.6446 45.9128 20.6564 45.6301 20.8684 45.3945C21.1511 45.0883 21.7753 45.0647 22.0344 45.3592C22.1993 45.5359 22.2229 46.0776 22.2582 49.3519L22.2935 53.1445L22.6351 53.4978C22.906 53.7805 23.0827 53.8629 23.4478 53.8629C24.0249 53.8629 24.3076 53.7098 24.5314 53.274Z" fill="#FCFBF7"/>
</svg>
