<svg width="44" height="44" viewBox="0 0 44 44" fill="none" xmlns="http://www.w3.org/2000/svg">
<path d="M20.6714 0.454191C19.1189 0.759588 17.8889 1.39583 16.7351 2.49017C15.7426 3.44029 14.9706 4.76367 14.5889 6.14643C14.4447 6.70633 14.4107 7.05414 14.4107 8.09758C14.4107 9.23433 14.4362 9.45489 14.6398 10.1166C14.9197 11.0667 15.3609 11.9574 15.8868 12.6531C16.311 13.213 16.3025 13.3148 15.8529 13.3148C15.2591 13.3148 13.6557 13.7813 12.8922 14.1716C11.8149 14.723 10.5424 15.7749 9.88917 16.6656C9.66861 16.971 9.45653 17.217 9.41411 17.217C9.38018 17.217 8.20101 16.8947 6.80128 16.496C5.40155 16.0973 4.15451 15.7749 4.03575 15.7749C3.66249 15.7749 3.17046 16.0888 2.98383 16.4536C2.83113 16.7589 2.81416 16.9456 2.81416 18.9307V21.0769L2.26275 21.3653C1.33808 21.8404 0.591558 22.8414 0.362511 23.9018C0.243746 24.4872 0.243746 27.4224 0.362511 28.0077C0.591558 29.0596 1.33808 30.0691 2.26275 30.5442L2.80568 30.8326L2.83113 34.3277C2.85658 37.704 2.86506 37.8228 3.03473 38.0518C3.12804 38.1791 3.29771 38.3572 3.41647 38.4421C3.62855 38.6032 21.6469 43.7695 21.9863 43.7695C22.3256 43.7695 40.3439 38.6032 40.556 38.4421C40.6748 38.3572 40.8445 38.1791 40.9378 38.0518C41.1074 37.8228 41.1159 37.704 41.1414 34.3277L41.1668 30.8326L41.7097 30.5442C42.6344 30.0691 43.3809 29.0596 43.61 28.0077C43.7288 27.4224 43.7288 24.4872 43.61 23.9018C43.3809 22.8414 42.6344 21.8404 41.7097 21.3653L41.1583 21.0769V18.9307C41.1583 16.9456 41.1414 16.7589 40.9887 16.4536C40.802 16.0888 40.31 15.7749 39.9368 15.7749C39.818 15.7749 38.571 16.0973 37.1712 16.496C35.7715 16.8947 34.5923 17.217 34.5584 17.217C34.516 17.217 34.3039 16.971 34.0833 16.6656C33.3792 15.6985 32.0219 14.6127 30.8597 14.0698C30.215 13.7729 28.9849 13.4166 28.3572 13.3487C28.0942 13.3148 27.8397 13.2723 27.7803 13.2384C27.7209 13.2045 27.8227 13.0009 28.0857 12.6531C28.6116 11.9659 29.0528 11.0667 29.3327 10.1166C29.5363 9.45489 29.5618 9.23433 29.5618 8.09758C29.5618 6.6215 29.4176 5.94284 28.8577 4.75519C27.8312 2.61741 26.0582 1.16678 23.7253 0.547507C23.0212 0.360876 21.4094 0.309977 20.6714 0.454191ZM23.0467 3.00764C24.9469 3.40635 26.5417 5.03513 26.9489 6.99476C27.5258 9.74332 25.7358 12.5428 23.0467 13.1027C20.2896 13.6795 17.6089 11.8981 17.0236 9.11556C16.3619 5.9598 18.7626 2.92281 21.9438 2.88888C22.2238 2.88888 22.7243 2.93978 23.0467 3.00764ZM28.3317 15.9106C29.1715 16.0803 29.7993 16.3433 30.5289 16.8098C31.0633 17.1577 31.8268 17.8448 31.8268 17.972C31.8268 17.9975 29.6127 18.6507 26.9065 19.4142L21.9863 20.8139L17.066 19.4142C14.3598 18.6507 12.1457 17.9975 12.1457 17.972C12.1457 17.8448 12.9092 17.1577 13.4436 16.8098C14.1478 16.3602 14.801 16.0803 15.5899 15.9191C16.4976 15.724 27.3901 15.7155 28.3317 15.9106ZM12.6547 20.8139C16.5061 21.8998 19.8909 22.8669 20.1878 22.9432L20.7138 23.0959V31.9524C20.7138 40.3508 20.7053 40.8089 20.5696 40.7665C19.9079 40.5714 5.44396 36.474 5.40155 36.474C5.3761 36.474 5.35913 35.2015 5.35913 33.649V30.8326L5.91054 30.5442C6.83521 30.0691 7.58174 29.0681 7.81078 28.0077C7.92955 27.4224 7.92955 24.4872 7.81078 23.9018C7.58174 22.8414 6.83521 21.8404 5.91054 21.3653L5.35913 21.0769V19.9062C5.35913 18.8289 5.36761 18.7355 5.51183 18.778C5.58818 18.8034 8.80332 19.7196 12.6547 20.8139ZM38.6134 19.9062V21.0769L38.062 21.3653C37.1373 21.8404 36.3908 22.8414 36.1617 23.9018C36.043 24.4872 36.043 27.4224 36.1617 28.0077C36.3908 29.0681 37.1373 30.0691 38.062 30.5442L38.6134 30.8326V33.649C38.6134 35.2015 38.5964 36.474 38.571 36.474C38.5285 36.474 24.0646 40.5714 23.4114 40.7665C23.2672 40.8089 23.2587 40.3508 23.2587 31.9609V23.1044L27.9924 21.7556C30.5882 21.0175 34.0155 20.042 35.6018 19.5839C37.1882 19.1258 38.5116 18.7525 38.554 18.7525C38.5879 18.744 38.6134 19.27 38.6134 19.9062ZM4.68047 23.5795C5.2743 23.8849 5.35913 24.1733 5.35913 25.9548C5.35913 27.3206 5.34216 27.5242 5.18947 27.8211C4.99435 28.2028 4.51081 28.4997 4.08665 28.4997C3.66249 28.4997 3.17894 28.2028 2.98383 27.8211C2.83113 27.5242 2.81416 27.3206 2.81416 25.9548C2.81416 24.589 2.83113 24.3854 2.98383 24.0885C3.29771 23.4692 4.03575 23.2486 4.68047 23.5795ZM40.4797 23.5795C41.0735 23.8849 41.1583 24.1733 41.1583 25.9548C41.1583 27.3206 41.1414 27.5242 40.9887 27.8211C40.7936 28.2028 40.31 28.4997 39.8859 28.4997C39.4617 28.4997 38.9781 28.2028 38.783 27.8211C38.6303 27.5242 38.6134 27.3206 38.6134 25.9548C38.6134 24.589 38.6303 24.3854 38.783 24.0885C39.0969 23.4692 39.835 23.2486 40.4797 23.5795Z" fill="#FCFBF7"/>
<path d="M13.9765 23.8336C13.1622 24.0796 12.8398 25.1315 13.3658 25.8186C13.6203 26.158 13.6881 26.1834 15.4357 26.6839C16.9626 27.1166 17.2171 27.125 17.6583 26.7433C18.1588 26.3191 18.2945 25.7847 18.0315 25.2248C17.9552 25.0636 17.7855 24.86 17.6583 24.7667C17.4462 24.6225 14.5449 23.7402 14.3159 23.7572C14.265 23.7572 14.1123 23.7996 13.9765 23.8336Z" fill="#FCFBF7"/>
<path d="M11.1296 28.3459C10.4085 28.8464 10.3491 29.8135 11.0193 30.3649C11.3671 30.6618 16.7031 32.1888 17.1187 32.1125C17.4496 32.0446 17.8737 31.7138 18.0434 31.3744C18.2979 30.8909 18.1198 30.1783 17.6701 29.8559C17.3732 29.6523 12.173 28.1593 11.7404 28.1593C11.5368 28.1593 11.2992 28.2356 11.1296 28.3459Z" fill="#FCFBF7"/>
<path d="M8.8366 32.5807C8.37003 32.7673 7.98828 33.3017 7.98828 33.7598C7.98828 34.1246 8.21733 34.5742 8.49727 34.7778C8.61604 34.8627 10.5502 35.4565 12.7728 36.0927C15.9116 36.9919 16.8872 37.238 17.1162 37.204C17.4471 37.1362 17.8712 36.8053 18.0409 36.466C18.2954 35.9824 18.1172 35.2698 17.6592 34.9475C17.4301 34.7863 9.52374 32.4789 9.21835 32.4958C9.12503 32.4958 8.95537 32.5383 8.8366 32.5807Z" fill="#FCFBF7"/>
<path d="M28.0159 24.1823C27.2015 24.4113 26.438 24.6743 26.3107 24.7676C25.8527 25.09 25.6745 25.8025 25.929 26.2861C26.0987 26.6254 26.5228 26.9563 26.8537 27.0241C27.193 27.0835 30.0434 26.3031 30.3742 26.057C31.0698 25.5396 31.0274 24.5216 30.2894 23.9956C29.8907 23.7072 29.5768 23.7326 28.0159 24.1823Z" fill="#FCFBF7"/>
<path d="M29.1636 28.9401C27.7214 29.3558 26.432 29.7714 26.3047 29.8563C26.1859 29.9496 26.0163 30.1532 25.9399 30.3144C25.6769 30.8742 25.8127 31.4087 26.3132 31.8329C26.7967 32.24 26.907 32.2316 29.927 31.3663C32.2005 30.7216 32.7689 30.5349 32.9895 30.3398C33.8717 29.5678 33.3203 28.1427 32.1496 28.1681C31.9461 28.1766 30.6057 28.5159 29.1636 28.9401Z" fill="#FCFBF7"/>
<path d="M30.5184 33.6411C28.3298 34.2688 26.4295 34.8627 26.3107 34.9475C25.8527 35.2698 25.6745 35.9824 25.929 36.466C26.0987 36.8053 26.5228 37.1362 26.8537 37.204C27.0827 37.238 28.0583 36.9919 31.1971 36.0927C33.4197 35.4565 35.3539 34.8627 35.4726 34.7778C36.1683 34.2858 36.1174 33.2678 35.3793 32.7249C34.9297 32.3856 34.7176 32.428 30.5184 33.6411Z" fill="#FCFBF7"/>
</svg>
