<svg width="38" height="35" viewBox="0 0 38 35" fill="none" xmlns="http://www.w3.org/2000/svg">
<path d="M17.6514 0.611176C13.8893 1.3523 11.6114 5.10149 12.7797 8.64724C12.9781 9.26484 13.3529 9.99143 13.6762 10.4128C13.8231 10.6018 13.9407 10.7689 13.9407 10.7907C13.9407 10.8125 12.6622 10.827 11.097 10.827C8.53261 10.827 8.224 10.8125 7.98886 10.6962C7.53329 10.471 7.45246 10.2675 7.04097 8.19675C6.82788 7.15047 6.59275 6.09691 6.51927 5.85714C6.13718 4.70913 5.16724 3.86629 3.96218 3.63378C2.03701 3.25596 0.155936 4.66554 0.00162843 6.61279C-0.0351114 7.12867 0.560073 12.0041 0.75112 12.7452C1.21404 14.5108 2.44115 15.964 4.13118 16.7487C5.30686 17.3009 5.40973 17.3154 8.41504 17.3445L11.075 17.3808V21.3916V25.4096L9.4805 25.0972C7.15119 24.6394 6.39435 24.6758 5.04968 25.3297C3.01429 26.3251 1.9121 28.5703 2.37502 30.7936C2.69098 32.3267 3.76378 33.6564 5.23338 34.3394C6.29883 34.8262 5.60812 34.8044 18.7904 34.8044C32.0608 34.8044 31.2745 34.8335 32.4208 34.3031C34.5077 33.3367 35.6613 31.0479 35.2131 28.7883C35.0294 27.8873 34.537 26.9718 33.861 26.3033C32.8764 25.3224 31.8256 24.8574 30.4736 24.7993C29.7829 24.7702 29.5404 24.7993 28.1076 25.0899L26.5057 25.4096V21.3843V17.3663H28.8791C30.1797 17.3663 31.4582 17.33 31.7228 17.2936C34.199 16.9013 36.1977 15.1139 36.8223 12.7379C37.028 11.9605 37.6158 7.1432 37.5791 6.61279C37.4248 4.66554 35.5511 3.25596 33.6185 3.63378C32.4135 3.86629 31.4436 4.70913 31.0615 5.85714C30.988 6.09691 30.7528 7.15047 30.5398 8.19675C30.1283 10.2675 30.0474 10.471 29.5919 10.6962C29.3567 10.8125 29.0481 10.827 26.491 10.827C24.9186 10.827 23.64 10.8125 23.64 10.7907C23.64 10.7689 23.7576 10.6018 23.9045 10.4128C24.5365 9.59907 25.0141 8.28394 25.0876 7.15047C25.2198 5.15962 24.3601 3.22689 22.773 1.91903C22.2145 1.46128 21.0388 0.872747 20.3334 0.6911C19.6721 0.531251 18.2981 0.487656 17.6514 0.611176ZM19.5692 2.76914C20.2893 2.89266 21.1123 3.33588 21.6855 3.89535C23.2947 5.49385 23.2947 8.02964 21.6781 9.62813C19.6574 11.619 16.2774 11.0159 15.0649 8.44379C14.264 6.73631 14.7784 4.68733 16.2994 3.54659C17.262 2.82 18.3862 2.55843 19.5692 2.76914ZM3.84461 5.87894C4.01361 5.95886 4.21201 6.11871 4.29284 6.25676C4.39571 6.42388 4.5941 7.23039 4.88067 8.64724C5.20398 10.2167 5.37299 10.8997 5.52729 11.2048C5.77713 11.7062 6.37231 12.3238 6.87197 12.5926C7.68025 13.0286 7.09976 13.0068 18.7904 13.0068C30.4736 13.0068 29.9005 13.0286 30.7088 12.5926C31.2378 12.3092 31.7669 11.7498 32.0534 11.1612C32.2592 10.7398 32.3767 10.2675 32.7147 8.57458C32.994 7.1868 33.185 6.42388 33.2805 6.25676C33.4495 5.99519 33.9125 5.74815 34.2431 5.74089C34.7354 5.74089 35.2718 6.16957 35.36 6.64186C35.4115 6.91069 34.8604 11.4955 34.6987 12.1494C34.4562 13.1085 33.6332 14.1984 32.825 14.6343C31.8697 15.1502 31.9432 15.1429 28.3427 15.1865C24.6687 15.2301 24.7349 15.2156 24.4483 15.7678C24.3087 16.0439 24.3013 16.1892 24.3013 20.9484V25.8456L21.5458 26.3905L18.7904 26.9355L16.0349 26.3905L13.2794 25.8456V20.9484C13.2794 16.182 13.272 16.0439 13.1324 15.7678C13.0369 15.5789 12.8826 15.4263 12.6916 15.3318C12.4197 15.1938 12.2654 15.1865 9.40702 15.1865C7.09241 15.1865 6.29883 15.1575 5.90939 15.0775C4.49858 14.7796 3.24208 13.5662 2.88203 12.1494C2.72037 11.4955 2.16928 6.91069 2.22071 6.64186C2.27215 6.34395 2.58076 5.97339 2.88203 5.84261C3.19064 5.71182 3.49191 5.71909 3.84461 5.87894ZM15.5499 28.5194C24.2572 30.2414 23.8752 30.1397 24.1617 30.7573C24.4997 31.5057 24.1323 32.334 23.3534 32.5592C23.1771 32.6101 20.4584 32.6246 14.8592 32.6101L6.62949 32.5883L6.14452 32.3558C5.52729 32.0506 5.04233 31.5711 4.74106 30.968C4.52062 30.5248 4.49858 30.4303 4.49858 29.7909C4.49858 29.1661 4.52062 29.0571 4.73372 28.6139C5.21133 27.6112 6.18861 26.9718 7.25407 26.9645C7.5039 26.9573 10.6562 27.5531 15.5499 28.5194ZM31.4436 27.2261C32.0681 27.5167 32.5531 27.9963 32.847 28.6139C33.0601 29.0571 33.0821 29.1661 33.0821 29.7909C33.0821 30.4231 33.0601 30.5248 32.847 30.9535C32.5751 31.4984 32.1637 31.9562 31.686 32.225C31.0688 32.5883 30.7602 32.6246 28.4382 32.6246C27.2552 32.6246 26.2853 32.6101 26.2853 32.5883C26.2853 32.5738 26.3367 32.3703 26.3955 32.1378C26.7849 30.6701 26.0428 29.0135 24.6834 28.2796L24.294 28.0689L27.0348 27.5167C30.2605 26.8628 30.6132 26.841 31.4436 27.2261Z" fill="#FCFBF7"/>
</svg>
