<svg width="49" height="50" viewBox="0 0 49 50" fill="none" xmlns="http://www.w3.org/2000/svg">
<path d="M24.0693 0.0921167C23.0357 0.306984 21.8873 0.971121 21.2461 1.74269C20.4518 2.68029 19.9063 4.116 19.9063 5.26847C19.9063 6.37211 20.3656 7.69062 21.0643 8.58915C21.3992 9.01889 21.4279 9.08726 21.2748 9.14586C20.9016 9.28259 20.1168 9.84906 19.6287 10.3374L19.1119 10.855L18.0975 10.7476C16.126 10.5425 15.5518 10.6499 14.7479 11.3824C13.743 12.3005 13.4559 13.6678 14.0014 14.8789L14.2693 15.4649L13.9822 15.7579C13.408 16.383 13.3219 16.7053 12.7668 20.485C12.4701 22.4579 12.2309 24.3526 12.2309 24.7042C12.2309 25.5735 12.518 26.3353 13.0922 26.931C13.6281 27.478 14.2023 27.7807 15.0637 27.937C15.4082 28.0054 15.7336 28.0835 15.791 28.1226C15.858 28.1714 15.791 28.8746 15.5518 30.4275C15.2359 32.4981 15.1594 32.8301 14.4799 34.9104C13.7143 37.2642 13.6855 37.4498 13.81 38.9929C13.8291 39.2664 13.6186 39.3934 7.12988 43.2219C3.44531 45.3901 0.334961 47.2751 0.210547 47.4118C0.0287109 47.6365 0 47.7732 0 48.5057C0 49.3163 0.00957031 49.3456 0.325391 49.6679L0.650781 50H24.5H48.3492L48.6746 49.6679L49 49.3359V40.0087V30.6814L48.7512 30.3787C48.4449 30.0075 47.9855 29.9001 47.6027 30.115C47.4496 30.2029 46.5309 30.9842 45.5547 31.873C44.5785 32.752 43.7746 33.465 43.7555 33.4454C43.7363 33.4357 42.3582 29.9196 40.6834 25.6516C37.7357 18.1215 37.64 17.8675 37.8123 17.7113C38.1568 17.389 38.5588 16.6369 38.7215 16.0119C39.0182 14.8203 38.7119 13.5702 37.8984 12.6619C37.3338 12.027 36.7021 11.6657 35.8887 11.5192C35.5441 11.4508 35.2188 11.3824 35.1709 11.3727C35.1135 11.3531 34.8646 10.816 34.6063 10.1616C34.3096 9.39002 34.0607 8.91145 33.9076 8.78449C33.3047 8.30592 32.3477 8.78449 32.3477 9.57559C32.3477 9.67326 32.4912 10.1323 32.673 10.5913L32.9984 11.4215H31.4672H29.9359L29.5436 11.0894C29.3234 10.9039 28.8354 10.5425 28.4525 10.2788L27.7635 9.79046L28.3473 9.27282C29.8307 7.93478 30.4432 5.94238 29.9742 4.01833C29.7158 2.9733 29.3043 2.25056 28.5578 1.48876C27.3902 0.306984 25.658 -0.230185 24.0693 0.0921167ZM26.5385 2.41659C27.151 2.75843 27.6965 3.39326 27.9549 4.0867C28.2229 4.8192 28.1846 6.08888 27.8592 6.71395C26.7682 8.86262 24.0789 9.18492 22.5955 7.34878C21.8777 6.46001 21.7055 4.9071 22.2031 3.8523C22.9879 2.20173 24.9785 1.54736 26.5385 2.41659ZM25.3613 10.8941C26.2227 11.1969 27.3137 11.8415 28.3377 12.6716C28.7588 13.0135 29.2086 13.326 29.3426 13.3748C29.4766 13.4334 30.9408 13.4725 32.673 13.4725C35.726 13.4725 35.7643 13.4725 36.0896 13.6971C36.6064 14.0487 36.8457 14.498 36.8457 15.1035C36.8457 15.7384 36.6734 16.1095 36.2045 16.4709L35.86 16.7444L32.8645 16.7737L29.8689 16.803L27.7443 15.7189C25.3805 14.5078 25.2178 14.4687 24.7488 15.0449C24.4426 15.4063 24.4234 15.8849 24.6914 16.2365C24.8158 16.3928 25.6102 16.8616 26.6342 17.389C27.5912 17.8773 28.3951 18.2973 28.4143 18.3266C28.443 18.3461 28.2611 19.2153 28.0123 20.2604C27.5816 22.0281 27.5625 22.1746 27.6869 22.4774C27.8113 22.7704 28.1846 23.0439 30.4623 24.4601L33.1037 26.1009L35.5729 29.1383C36.9318 30.8084 38.1377 32.3711 38.2621 32.6055C38.5109 33.1231 38.5492 34.0607 38.3291 34.5979C37.7645 35.975 36.0514 36.4633 34.9125 35.5746C34.7211 35.4183 33.075 33.5626 31.2471 31.4433C29.4191 29.3239 27.7061 27.3608 27.4381 27.0775C26.883 26.5013 27.3807 26.6478 21.9256 25.3879C20.0594 24.9582 18.509 24.587 18.4898 24.5675C18.4611 24.5382 18.7578 22.5458 20.0211 14.1073C20.2125 12.8279 20.2508 12.7107 20.5857 12.2517C21.7342 10.689 23.3898 10.2202 25.3613 10.8941ZM17.9252 12.7498C18.1166 12.7888 18.1836 12.8572 18.174 13.0135C18.174 13.3162 17.9348 14.7324 17.8869 14.7812C17.8582 14.8008 16.3365 14.6152 16.0973 14.5566C16.0877 14.5468 15.992 14.4003 15.8867 14.2245C15.59 13.7362 15.6379 13.3162 16.0303 12.9158C16.3557 12.5837 16.3652 12.574 17.0064 12.6423C17.3701 12.6716 17.7721 12.7302 17.9252 12.7498ZM17.5711 16.8225C17.5998 16.842 16.3078 25.5344 16.2217 25.9348C16.1834 26.1302 16.1643 26.1399 15.4943 25.9837C14.7383 25.8274 14.3172 25.5149 14.2023 25.0363C14.1258 24.7238 15.0732 17.8968 15.2646 17.4183C15.3316 17.2522 15.5039 17.0178 15.657 16.9006C15.9154 16.6858 15.992 16.676 16.7385 16.7346C17.1883 16.7737 17.5615 16.8127 17.5711 16.8225ZM38.999 26.7259C40.7217 31.121 42.1381 34.7639 42.1477 34.8225C42.1477 34.8811 41.8797 35.1741 41.5352 35.4769C40.9322 36.0141 40.8939 36.0336 40.3676 36.0336H39.8221L40.0709 35.4867C40.6068 34.2854 40.5877 32.879 40.0135 31.6972C39.8221 31.3163 38.7693 29.9294 37.0563 27.8296L34.3861 24.5577L32.0318 23.0927C30.7398 22.2821 29.6967 21.6082 29.7158 21.5789C29.7254 21.5496 29.8785 20.9245 30.0508 20.192L30.357 18.8442L32.9984 18.8149C34.4531 18.8051 35.6973 18.7856 35.7547 18.7661C35.8217 18.7563 37.1998 22.1258 38.999 26.7259ZM20.5092 27.1068C21.0834 27.2436 21.2461 27.3119 21.2461 27.4487C21.2461 27.5463 21.0547 29.2164 20.8154 31.1796L20.3848 34.7346L19.5234 36.8735C19.0449 38.0455 18.5855 39.0808 18.509 39.1687C18.4324 39.2566 18.1932 39.4031 17.9826 39.5106C17.217 39.8524 16.1643 39.4129 15.8293 38.6023C15.5996 38.0553 15.6762 37.6451 16.4035 35.3695C17.0543 33.3478 17.15 32.9571 17.4658 30.9061C17.9348 27.8393 18.0879 26.8236 18.1357 26.6869C18.1645 26.6087 18.3846 26.6283 18.9684 26.765C19.4086 26.8627 20.0977 27.0189 20.5092 27.1068ZM24.6818 28.0835L25.9643 28.3667L29.3234 32.2539C31.1705 34.383 32.6922 36.1703 32.7113 36.2094C32.7209 36.2582 30.8547 37.3619 28.5578 38.6706L24.3756 41.0439L22.7391 40.7314C20.0307 40.2138 20.1742 40.2528 20.3273 40.0087C20.4039 39.8915 20.8729 38.7683 21.3801 37.5181L22.2988 35.2425L22.7486 31.4823C23.0357 29.1188 23.2367 27.7417 23.3037 27.7612C23.3516 27.7807 23.9736 27.9272 24.6818 28.0835ZM47.0668 40.6435L47.0381 47.9978L25.0551 48.0271C12.9582 48.0369 3.0625 48.0174 3.07207 47.9783C3.07207 47.9295 5.66563 46.3766 8.84297 44.5111L14.6139 41.1221L15.7049 41.3662C17.9443 41.8546 24.2129 43.0656 24.5191 43.0656C24.768 43.0656 25.926 42.4503 29.333 40.5165L33.8215 37.9674L35.3623 37.9967C36.2045 38.0162 37.975 38.026 39.3053 38.0065L41.717 37.9869L43.6502 36.2485C44.7125 35.3011 45.8896 34.2463 46.2629 33.9142C46.6361 33.5724 46.9711 33.2989 47.0189 33.2989C47.0572 33.2989 47.0764 36.6098 47.0668 40.6435Z" fill="#FCFBF7"/>
</svg>
