<svg width="37" height="37" viewBox="0 0 37 37" fill="none" xmlns="http://www.w3.org/2000/svg">
<path d="M19.8336 1.38537C20.4173 1.8253 20.9096 2.35862 21.1563 3.05469C21.2146 3.19784 21.2146 3.19784 21.3249 3.30331C21.5481 3.36685 21.763 3.38928 21.9938 3.41208C22.7099 3.50582 23.275 3.83089 23.8105 4.29779C23.8735 4.34321 23.9365 4.38863 24.0014 4.43542C24.235 4.64386 24.4248 4.88522 24.5917 5.15021C24.5917 5.19709 24.5917 5.24398 24.5917 5.29228C24.6664 5.24979 24.7411 5.2073 24.8181 5.16353C25.7089 4.72347 26.7607 4.65825 27.7112 4.92989C28.8541 5.33952 29.6319 5.98976 30.2198 7.05927C30.6567 8.00855 30.7125 9.14617 30.3907 10.1387C30.3676 10.2011 30.3676 10.2011 30.3441 10.2647C30.4471 10.3151 30.4471 10.3151 30.5521 10.3665C31.6281 10.9074 32.436 11.6157 32.9007 12.7509C32.9274 12.8687 32.952 12.987 32.9717 13.1061C33.035 13.1205 33.035 13.1205 33.0996 13.1352C34.2075 13.423 34.9626 14.1436 35.5441 15.0951C36.035 15.9913 36.1157 17.1274 35.8522 18.1073C35.5024 19.247 34.8195 20.0398 33.7887 20.6205C33.6108 20.7068 33.6108 20.7068 33.4688 20.7068C33.5049 20.7474 33.5409 20.7879 33.5781 20.8297C34.3421 21.7299 34.7479 22.8066 34.6586 23.9938C34.5112 25.0926 34.0609 26.106 33.1847 26.8158C32.184 27.5186 31.2074 27.7869 29.989 27.6682C28.9258 27.481 28.0588 26.9306 27.3813 26.0974C27.2903 25.9634 27.2903 25.9634 27.2903 25.8213C27.1827 25.8829 27.1827 25.8829 27.0729 25.9456C26.0758 26.4313 24.907 26.5469 23.8194 26.3363C23.5954 26.2961 23.5954 26.2961 23.4266 26.4259C23.3775 26.477 23.3284 26.528 23.2779 26.5805C22.6731 27.171 22.6731 27.171 22.3192 27.171C22.3204 27.2641 22.3204 27.2641 22.3217 27.3591C22.3248 27.7932 22.3231 28.2236 22.2937 28.657C22.252 29.2709 22.2341 29.8852 22.2278 30.5003C22.226 30.6437 22.2228 30.7871 22.2196 30.9304C22.2155 31.5926 22.2862 32.1705 22.692 32.7117C23.2557 33.1217 23.9213 33.1364 24.5917 33.2089C26.1331 33.3789 26.1331 33.3789 26.6512 33.9903C26.8708 34.3779 26.8871 34.7041 26.7816 35.1308C26.7133 35.2897 26.6428 35.3731 26.5092 35.482C26.2531 35.5674 26.0681 35.5763 25.799 35.5531C25.4765 35.3667 25.4068 35.1895 25.3019 34.8427C25.2263 34.8393 25.1506 34.8358 25.0727 34.8322C22.4471 34.7019 22.4471 34.7019 21.5463 33.8039C20.3756 32.4903 20.5851 30.7463 20.6715 29.1113C20.6815 28.9217 20.6908 28.7321 20.7001 28.5424C20.7063 28.4215 20.7125 28.3006 20.7188 28.1796C20.7215 28.1231 20.7243 28.0666 20.7271 28.0083C20.7486 27.6135 20.7486 27.6135 20.8278 27.4551C20.7813 27.4498 20.7348 27.4445 20.6869 27.439C20.1621 27.3634 19.5122 27.2047 19.1234 26.8158C18.8022 26.8368 18.5366 26.9149 18.2357 27.0289C17.7441 27.2141 17.3 27.2511 16.7798 27.242C16.8106 27.3739 16.8106 27.3739 16.842 27.5084C17.179 29.2276 17.379 31.238 16.4248 32.7827C15.8725 33.5569 14.8372 33.9385 13.9392 34.1324C13.5734 34.1935 13.2063 34.2418 12.8384 34.2878C12.7411 34.3004 12.6438 34.3132 12.5466 34.3259C11.8444 34.4165 11.8444 34.4165 11.5956 34.4165C11.6018 34.4873 11.6018 34.4873 11.6081 34.5594C11.6345 35.0767 11.6345 35.0767 11.4269 35.3444C11.1347 35.5602 10.9679 35.5897 10.6014 35.5531C10.359 35.3976 10.214 35.2701 10.0776 35.0159C9.99556 34.5644 9.96933 34.1146 10.1131 33.6751C10.5106 33.1317 11.0482 32.9302 11.6976 32.8078C11.9592 32.7705 12.2208 32.7377 12.4833 32.7073C13.9159 32.5695 13.9159 32.5695 15.1021 31.8326C15.7747 30.9684 15.5005 29.507 15.3781 28.4918C15.3281 28.0984 15.2742 27.7055 15.2175 27.3131C15.1452 27.3337 15.1452 27.3337 15.0716 27.3547C14.2432 27.5865 13.5497 27.6917 12.6886 27.6252C12.2833 27.6099 12.2833 27.6099 11.9299 27.7873C11.7882 27.9322 11.657 28.0831 11.5246 28.2365C10.5717 28.9469 9.46658 29.1521 8.31053 28.9843C7.26743 28.7568 6.4001 28.1743 5.77223 27.3131C5.56797 26.9865 5.40817 26.7023 5.34613 26.3186C5.21211 26.323 5.21211 26.323 5.07538 26.3274C4.07569 26.3243 3.21815 26.0051 2.43444 25.3951C2.34628 25.3301 2.34628 25.3301 2.25634 25.2639C1.57345 24.6739 1.12589 23.7224 1.0141 22.8379C0.937789 21.6165 1.16024 20.5652 1.95036 19.5925C2.4281 19.0777 3.04231 18.6572 3.71274 18.4337C3.77054 18.2632 3.81543 18.1024 3.85478 17.9276C3.94164 17.555 4.05055 17.2195 4.20986 16.8709C4.15741 16.8562 4.10495 16.8415 4.05091 16.8263C3.49597 16.6577 3.04788 16.4257 2.57647 16.0896C2.50177 16.0368 2.42707 15.9841 2.35011 15.9297C1.5642 15.1611 1.07689 14.1687 1.05811 13.0662C1.05941 12.4155 1.0828 11.857 1.36919 11.2592C1.40095 11.1916 1.43272 11.124 1.46545 11.0544C1.87861 10.2412 2.44114 9.7378 3.21563 9.27023C3.34937 9.22902 3.34937 9.22902 3.48582 9.18698C3.7179 9.08559 3.7179 9.08559 3.76621 8.92124C3.79765 8.7428 3.81475 8.56742 3.82815 8.38673C3.92352 7.5342 4.15057 6.87851 4.70698 6.21573C4.75971 6.14394 4.81244 6.07215 4.86677 5.99819C5.40665 5.36093 6.30537 4.92142 7.12155 4.79504C7.83813 4.74593 8.5553 4.75126 9.25206 4.93711C9.26762 4.89407 9.28318 4.85103 9.29922 4.80669C9.70122 3.74421 10.2852 2.92869 11.3188 2.41177C12.0502 2.09781 12.6319 1.99948 13.4183 2.06145C13.7708 2.07573 13.7708 2.07573 14.0785 1.92286C14.1626 1.83632 14.2442 1.7473 14.3231 1.65607C15.6808 0.11282 18.294 0.383784 19.8336 1.38537ZM14.8624 3.30331C14.5253 3.65303 14.5253 3.65303 14.2188 3.6718C13.9993 3.66134 13.8445 3.63806 13.6374 3.58301C12.9372 3.41744 12.3294 3.60035 11.7288 3.9626C11.1696 4.34398 10.8049 4.91289 10.6724 5.57642C10.646 5.83374 10.6283 6.0897 10.6164 6.34809C10.6041 6.5299 10.5897 6.68355 10.5304 6.85504C10.3221 7.02168 10.0867 7.02663 9.82574 7.01987C9.57764 6.98162 9.38524 6.85008 9.18104 6.71298C8.59636 6.34178 8.01948 6.18675 7.32905 6.33311C6.57307 6.53798 6.07741 6.87193 5.65073 7.5296C5.36733 8.08021 5.3209 8.4927 5.34169 9.10596C5.34597 9.24977 5.3496 9.3936 5.35251 9.53744C5.35461 9.60041 5.35671 9.66338 5.35887 9.72826C5.34435 9.93491 5.29955 10.0811 5.2041 10.2647C5.01574 10.331 5.01574 10.331 4.78243 10.3668C3.99406 10.5244 3.38832 10.8699 2.93156 11.5433C2.56107 12.277 2.46757 12.9641 2.70741 13.7571C2.98643 14.4416 3.47018 14.9288 4.13884 15.2371C4.56921 15.3734 4.94615 15.3934 5.39496 15.3792C6.11833 15.3567 6.11833 15.3567 6.41138 15.5213C6.46909 15.6412 6.46909 15.6412 6.4824 15.8054C6.48972 15.8845 6.49705 15.9637 6.50459 16.0452C6.46989 16.4478 6.25083 16.6709 5.98972 16.9597C5.44341 17.5878 5.2806 18.3165 5.22851 19.1255C5.20126 19.3048 5.15759 19.4162 5.06206 19.5703C4.93986 19.638 4.93986 19.638 4.79353 19.6843C4.7399 19.7025 4.68627 19.7207 4.63102 19.7395C4.57406 19.7584 4.5171 19.7772 4.45842 19.7967C3.74204 20.0548 3.16718 20.4355 2.78703 21.1175C2.53562 21.6958 2.41982 22.2907 2.57647 22.9089C2.8015 23.4709 3.07191 23.9984 3.58846 24.3385C3.63863 24.3724 3.6888 24.4062 3.74048 24.4411C4.37447 24.7886 4.88687 24.7722 5.59524 24.7412C5.70537 24.7384 5.70537 24.7384 5.81773 24.7355C5.88403 24.7327 5.95033 24.7299 6.01864 24.7269C6.25652 24.7652 6.33447 24.8538 6.4824 25.0399C6.54734 25.2129 6.60159 25.3779 6.65107 25.5549C6.78619 25.9965 6.94828 26.3347 7.26359 26.6737C7.31778 26.7367 7.37198 26.7997 7.42781 26.8646C7.9933 27.3514 8.62517 27.5579 9.37551 27.5151C10.071 27.4025 10.6917 27.0196 11.1029 26.4518C11.136 26.4032 11.169 26.3547 11.2031 26.3047C11.3252 26.1604 11.4199 26.1015 11.5956 26.0344C11.9583 26.0076 12.2806 26.053 12.6387 26.1143C13.5198 26.2451 14.3058 26.0311 15.0779 25.5982C15.2483 25.5237 15.3782 25.5183 15.5637 25.5194C15.6221 25.5191 15.6805 25.5187 15.7407 25.5183C15.9276 25.5372 15.9276 25.5372 16.129 25.6077C16.7343 25.8005 17.4751 25.7483 18.0468 25.482C18.2002 25.3951 18.3434 25.2996 18.4887 25.1998C18.7361 25.0432 18.9348 24.967 19.2302 24.9808C19.5199 25.0774 19.7327 25.2786 19.9517 25.485C20.3678 25.875 20.7697 25.93 21.3224 25.919C21.8463 25.8543 22.1986 25.5601 22.5175 25.1568C22.5869 25.0622 22.6552 24.9668 22.7231 24.8712C22.8471 24.7176 22.9699 24.6912 23.1625 24.6703C23.4805 24.6633 23.7452 24.6987 24.0502 24.7913C24.8714 25.0312 25.6974 24.9031 26.447 24.4983C26.8005 24.3111 27.1049 24.2522 27.5034 24.2586C27.5584 24.258 27.6134 24.2575 27.6701 24.2569C27.8605 24.2745 27.9764 24.3042 28.1425 24.4006C28.3034 24.6016 28.4335 24.8116 28.567 25.0316C28.9697 25.6522 29.523 25.9813 30.2328 26.1454C30.8738 26.2439 31.5317 26.0819 32.0623 25.7098C32.614 25.2726 32.9779 24.7513 33.1137 24.0455C33.1833 23.2073 32.9935 22.6148 32.4843 21.9491C32.286 21.7181 32.0733 21.5355 31.8354 21.3461C31.7363 21.1479 31.7523 20.9812 31.7511 20.7601C31.7501 20.6806 31.7491 20.6011 31.748 20.5192C31.7703 20.1945 31.8275 19.9559 32.0291 19.6968C32.2247 19.5434 32.4085 19.4737 32.6432 19.3927C33.3288 19.1389 33.8434 18.7686 34.2048 18.1171C34.4831 17.4742 34.5378 16.8304 34.321 16.1606C34.0138 15.469 33.5866 14.9944 32.9007 14.6689C32.6627 14.5901 32.4252 14.5212 32.1822 14.4596C31.9475 14.3738 31.8447 14.2986 31.6934 14.1006C31.6185 13.8933 31.6185 13.8933 31.5602 13.6611C31.3308 12.8668 30.8969 12.39 30.2375 11.9118C29.8236 11.7152 29.3962 11.6671 28.9448 11.6319C28.7878 11.615 28.6472 11.5942 28.4976 11.5433C28.3341 11.2653 28.3228 11.0076 28.3556 10.6909C28.4444 10.5132 28.5312 10.3579 28.6397 10.1937C29.0417 9.56686 29.1421 8.93849 28.9947 8.2047C28.7522 7.42776 28.2663 6.90898 27.5744 6.49987C26.9998 6.2418 26.3942 6.24313 25.799 6.42884C25.4034 6.59266 25.0572 6.78503 24.7337 7.06815C24.5161 7.17698 24.3349 7.15548 24.0946 7.13918C23.7449 6.98712 23.6479 6.78759 23.4954 6.44659C23.1443 5.70387 22.7385 5.26637 21.9641 4.95015C21.6769 4.86456 21.4061 4.86236 21.1074 4.86607C20.4663 4.87174 20.4663 4.87174 20.1887 4.724C20.1124 4.57448 20.0703 4.42881 20.0269 4.26672C19.819 3.5293 19.357 2.91556 18.7195 2.49529C17.3052 1.70816 15.8987 2.18521 14.8624 3.30331Z" fill="#FCFBF7" stroke="#FCFBF7"/>
</svg>
