<svg width="36" height="29" viewBox="0 0 36 29" fill="none" xmlns="http://www.w3.org/2000/svg">
<path d="M34.72 19.0464C34.72 18.1294 34.72 2.29681 34.72 1.68641C34.72 1.06789 34.2185 0.566406 33.6 0.566406C32.9815 0.566406 32.48 1.06789 32.48 1.68641V2.80641H3.36V1.68641C3.36 1.06789 2.85852 0.566406 2.24 0.566406C1.62148 0.566406 1.12 1.06789 1.12 1.68641V19.0464C0.50148 19.0464 0 19.5479 0 20.1664V27.4464C0 28.0649 0.50148 28.5664 1.12 28.5664H3.92C4.27252 28.5664 4.60446 28.4004 4.816 28.1184L6.16 26.3264H29.68L31.024 28.1184C31.2355 28.4004 31.5675 28.5664 31.92 28.5664H34.72C35.3385 28.5664 35.84 28.0649 35.84 27.4464V20.1664C35.84 19.5479 35.3385 19.0464 34.72 19.0464ZM32.48 14.0491C31.2756 13.3506 30.3242 13.4464 29.12 13.4464V11.2064C29.12 9.35372 27.6127 7.84641 25.76 7.84641H20.16C19.3001 7.84641 18.5149 8.17149 17.92 8.70468C17.3251 8.17149 16.5399 7.84641 15.68 7.84641H10.08C8.22731 7.84641 6.72 9.35372 6.72 11.2064V13.4464C5.46077 13.4464 4.55791 13.3544 3.36 14.0491V5.04641H32.48V14.0491ZM8.96 13.4464V11.2064C8.96 10.5889 9.46246 10.0864 10.08 10.0864H15.68C16.2975 10.0864 16.8 10.5889 16.8 11.2064V13.4464H8.96ZM19.04 11.2064C19.04 10.5889 19.5425 10.0864 20.16 10.0864H25.76C26.3775 10.0864 26.88 10.5889 26.88 11.2064V13.4464H19.04V11.2064ZM3.36 17.9264C3.36 16.6913 4.36485 15.6864 5.6 15.6864H30.24C31.4752 15.6864 32.48 16.6913 32.48 17.9264V19.0464H3.36V17.9264ZM33.6 26.3264H32.48L31.136 24.5344C30.9245 24.2524 30.5925 24.0864 30.24 24.0864H5.6C5.24748 24.0864 4.91554 24.2524 4.704 24.5344L3.36 26.3264H2.24V21.2864H33.6V26.3264Z" fill="#FCFBF7"/>
</svg>
