<svg width="36" height="31" viewBox="0 0 36 31" fill="none" xmlns="http://www.w3.org/2000/svg">
<path fill-rule="evenodd" clip-rule="evenodd" d="M19.7197 27.5429C19.6075 27.4307 19.5242 27.3484 19.4341 27.2745C19.1956 27.0788 18.9096 26.9416 17.9143 26.4642L17.6915 26.3598C17.1258 26.0915 16.6264 25.9339 16.0011 25.9024C15.1254 26.508 14.1113 26.6193 13.0822 26.6122L12.6738 26.6024C12.6059 26.6019 12.538 26.6015 12.4702 26.601C12.0433 26.5984 11.6167 26.5957 11.1905 26.5678C11.1804 26.5643 11.1705 26.5609 11.1611 26.5576C11.0185 26.5083 10.9432 26.4828 10.8663 26.4647C10.7858 26.4457 10.7034 26.4348 10.5403 26.4131C8.97938 26.2317 7.61703 25.7514 6.18243 25.1046C5.92646 24.9886 5.67043 24.8758 5.41157 24.7667L5.20403 24.6827C5.21961 24.6447 5.23443 24.6075 5.24893 24.571C5.36008 24.2918 5.45238 24.0599 5.72518 23.8995C5.83765 23.8941 5.89763 23.8912 5.95258 23.9065C6.01537 23.924 6.07158 23.9653 6.19204 24.0537C7.82451 25.0803 10.0455 25.6115 11.9384 25.6789L12.2595 25.6807C12.3369 25.6826 12.4158 25.6849 12.4958 25.6873C13.5504 25.7185 14.8108 25.7558 15.6161 24.9919" fill="#FCFBF7"/>
<path fill-rule="evenodd" clip-rule="evenodd" d="M28.5086 5.60996C28.328 5.04786 27.9347 4.78209 27.4396 4.50108C27.0262 4.44097 26.6618 4.47434 26.2637 4.61197C25.8955 4.93258 25.559 5.27144 25.4632 5.77196C25.4608 6.2832 25.5188 6.56935 25.8094 6.98913C26.1042 7.33739 26.342 7.57929 26.8011 7.62976C27.4408 7.64056 27.7191 7.49042 28.1879 7.0515C28.4943 6.55843 28.551 6.192 28.5086 5.60996ZM27.5465 5.83173C27.2923 5.56812 27.1506 5.53563 26.7982 5.49907C26.544 5.76269 26.5127 5.90967 26.4775 6.27529L26.6913 6.49706C26.8583 6.50767 26.9401 6.51287 27.0219 6.51265C27.1004 6.51244 27.1789 6.50724 27.3327 6.49706C27.4871 6.33689 27.4871 6.33689 27.5465 5.83173Z" fill="#FCFBF7"/>
<path fill-rule="evenodd" clip-rule="evenodd" d="M24.6755 25.4944C24.6694 25.4826 24.6627 25.4726 24.6556 25.4635C24.6637 25.4771 24.6704 25.4875 24.6755 25.4944Z" fill="#FCFBF7"/>
<path fill-rule="evenodd" clip-rule="evenodd" d="M28.8292 1.95068L29.1224 2.18415C29.5771 2.45842 29.9837 2.48045 30.4913 2.50795L30.5664 2.51205C31.9184 2.59425 33.1831 2.88445 34.1585 3.93887C34.8353 4.89295 35.4001 6.53333 35.2433 7.71685C34.8736 9.15692 33.4359 10.2758 32.2796 11.1756L32.2786 11.1764C32.1696 11.2612 32.0631 11.3441 31.9603 11.4251C31.5235 11.7716 31.1231 12.1532 30.7209 12.5422C30.4925 12.7605 30.2614 12.9723 30.0265 13.1828C28.1823 14.852 26.7529 16.7128 25.4249 18.8311C25.3136 19.0082 25.2007 19.1842 25.0877 19.3601C25.1053 19.7055 25.1576 19.8706 25.3779 20.1324L25.6155 20.3511C26.5062 21.24 27.1586 22.2904 27.7402 23.4144L27.8656 23.6545C28.1138 24.1481 28.2474 24.6021 28.3682 25.147C28.4167 25.327 28.4411 25.4177 28.4848 25.4978C28.5291 25.5791 28.5932 25.6496 28.7223 25.7916C29.1943 26.01 29.6917 26.1238 30.1992 26.2159C30.8889 26.3499 31.2454 26.5394 31.6934 27.1056C31.9319 27.5461 31.9169 27.9682 31.8225 28.4529C31.679 28.9149 31.4869 29.1773 31.0673 29.4137C30.5957 29.6078 30.1431 29.6117 29.641 29.6099L29.3548 29.6116C29.1561 29.6123 28.9573 29.6122 28.7586 29.6112C28.4559 29.6103 28.1535 29.6135 27.8508 29.617C27.6569 29.6172 27.463 29.6171 27.2691 29.6168L26.9974 29.6206C26.3028 29.6121 25.8404 29.4468 25.3299 28.9308C24.8682 28.2505 24.4702 27.5361 24.0788 26.8104L23.8685 26.4303L23.6717 26.0666L23.4923 25.7371C23.275 25.3637 22.8263 24.4929 22.427 23.7181C22.1588 23.1976 21.9127 22.72 21.7737 22.4649C21.4523 22.5923 21.1404 22.7334 20.83 22.8868C19.9301 23.3261 19.0861 23.6901 18.0932 23.8267C17.763 23.8858 17.5446 23.9589 17.328 24.2288C17.1943 24.4496 17.0738 24.6704 16.9632 24.9045L17.339 25.0712C19.4603 26.0231 20.0639 26.294 20.4215 26.7567C20.5638 26.9408 20.6672 27.1552 20.8116 27.4549C20.8749 28.0859 20.8384 28.5776 20.4909 29.1182C20.0615 29.5349 19.6487 29.5754 19.0775 29.5773L18.7352 29.5793L18.3612 29.5796L17.966 29.5813C17.6084 29.5827 17.2507 29.5835 16.8931 29.584C16.6692 29.5843 16.4453 29.5848 16.2213 29.5852C15.5194 29.5868 14.8174 29.5878 14.1155 29.5883C13.3078 29.5888 12.5001 29.5907 11.6925 29.5939C11.0667 29.5963 10.4409 29.5974 9.81503 29.5976C9.44203 29.5977 9.06906 29.5983 8.69607 29.6003C8.27881 29.6025 7.86158 29.602 7.44432 29.6013L7.07564 29.6044C5.3759 29.5953 3.89114 29.05 2.65797 27.8179C1.70724 26.7911 1.19769 25.6788 1.2219 24.2392C1.22764 24.082 1.23375 23.925 1.24027 23.7679C1.24745 23.4106 1.21871 23.1414 1.14172 22.7976C0.766182 19.3783 1.04332 16.0261 3.12316 13.2236C4.12149 11.924 5.31562 10.9828 6.7006 10.1564L6.99458 9.97836C7.21917 9.87938 7.49103 9.75822 7.79527 9.62263C9.39078 8.91155 11.8765 7.80372 13.1013 7.41884C14.428 7.00105 15.7424 6.55241 17.0521 6.08037C17.2529 6.008 17.4539 5.93589 17.6549 5.86407C18.7737 5.4639 19.8538 5.03905 20.9185 4.5011C21.1366 4.39662 21.3549 4.29252 21.5733 4.1888C21.7827 4.08739 21.992 3.98589 22.2013 3.88429L22.5241 3.73117C23.0813 3.45922 23.5013 3.21595 23.9118 2.7269C25.4229 1.29048 26.9693 0.998547 28.8292 1.95068ZM24.8682 25.8618L24.6755 25.4944C24.6704 25.4875 24.6637 25.4771 24.6556 25.4635C24.6108 25.3878 24.5231 25.2137 24.4139 24.997C24.2395 24.651 24.0103 24.1961 23.8134 23.8596C23.6862 23.6423 23.5835 23.4668 23.5409 23.3858C23.3465 23.0454 23.156 22.7031 22.9672 22.3593L22.8427 22.1323C22.6374 21.7605 22.4375 21.3872 22.2514 21.0046C21.8951 20.2199 21.8215 19.5395 22.0923 18.7044L22.2235 18.3647L22.3693 17.9827C22.47 17.7211 22.5694 17.4589 22.6674 17.1962C22.7648 16.9339 22.8627 16.6717 22.9609 16.4096L23.11 16.0127C23.446 15.1091 23.7956 14.2287 24.2325 13.3721C24.3798 13.3588 24.4565 13.3519 24.5332 13.3513C24.6165 13.3507 24.6999 13.3577 24.8739 13.3721C25.0918 13.4688 25.0918 13.4688 25.1946 13.7048C25.2476 14.1367 25.2345 14.4537 25.1141 14.8705C24.849 15.6496 24.615 16.436 24.3926 17.229C24.3289 17.4575 24.265 17.686 24.2005 17.9143C24.1575 18.0665 24.1146 18.2188 24.0719 18.3711L24.0107 18.5899C23.8768 19.0675 23.7682 19.5332 23.698 20.0254C25.422 21.3802 26.5504 23.3099 27.366 25.355C27.539 25.8012 27.7131 26.2435 27.9126 26.6778C28.0809 26.9005 28.0809 26.9005 28.3206 26.9875C29.132 27.0762 29.8732 27.3031 30.6466 27.5658C30.719 27.8874 30.719 27.8874 30.7535 28.2311C30.5707 28.3642 30.4781 28.4317 30.3746 28.4655C30.2685 28.5002 30.1508 28.4994 29.9125 28.4979L29.6527 28.5018C29.4712 28.505 29.2897 28.5078 29.1082 28.5103C28.8218 28.5123 28.5359 28.5153 28.2496 28.5236C28.0632 28.5291 27.8766 28.5329 27.6901 28.5348L27.4211 28.5365C27.1729 28.5462 26.9367 28.5463 26.6895 28.5212C26.3706 28.3029 26.207 28.1909 26.0765 28.0484C25.9389 27.8982 25.838 27.714 25.6309 27.3358L25.4572 26.9984C25.3265 26.7491 25.1967 26.4993 25.0676 26.249L24.8682 25.8618ZM2.53144 16.8097C3.34935 13.9544 5.42212 12.1665 7.85509 10.7906C7.97131 10.7575 8.59799 10.4586 9.08941 10.2242C9.36062 10.0949 9.59063 9.98515 9.67088 9.95064C9.82154 9.88583 9.87569 9.86344 9.92943 9.84121C9.95617 9.83015 9.98283 9.81913 10.0212 9.80293C10.2688 9.69988 10.5161 9.59626 10.7629 9.49106C11.5822 9.1332 12.417 8.84264 13.2638 8.56465L13.5251 8.47913C14.2798 8.23227 15.0344 7.98544 15.7776 7.70299C16.3465 7.48444 16.9194 7.28211 17.4977 7.09219C19.3147 6.49909 21.0765 5.76528 22.7823 4.8845L23.1033 4.71595C23.7398 4.3904 24.2574 4.06114 24.7595 3.53517C25.1494 3.09896 25.4817 2.75897 26.0498 2.61601C26.0999 2.61207 26.1504 2.60789 26.2011 2.60369C26.856 2.54948 27.5532 2.49176 28.1031 2.90362C28.8007 3.43307 29.3162 3.57979 30.1747 3.60404C31.1793 3.63146 32.1119 3.89732 32.9984 4.39021C33.67 5.27378 33.67 5.27378 33.9605 6.3862C30.1949 7.12342 26.9699 8.55341 24.6601 11.8197C24.5566 12.0664 24.5566 12.0664 24.4463 12.2633L24.0988 12.2979C23.8928 12.3371 23.7754 12.3594 23.6765 12.415C23.5454 12.4886 23.4469 12.6206 23.2177 12.9273C22.8136 13.4867 22.3617 13.9957 21.8743 14.4782C19.5296 16.7447 16.5971 18.4574 13.3329 18.375C9.70658 18.2756 5.76747 19.2392 2.91896 21.6957C2.87134 21.7393 2.82793 21.7825 2.78644 21.8238C2.6151 21.9944 2.47662 22.1323 2.21074 22.1323C1.92835 20.3462 2.08167 18.5523 2.53144 16.8097ZM15.6161 24.9919C16.5296 23.9334 17.2657 22.5765 17.2062 21.126C17.187 20.9858 17.1744 20.8936 17.1413 20.8096C17.0779 20.6488 16.9394 20.5179 16.5356 20.1363C12.7277 17.9437 6.29038 19.9747 3.20338 22.7712C2.62704 23.3567 2.28544 23.8255 2.25087 24.6827C2.30748 25.6898 2.69085 26.3815 3.35246 27.107C4.42769 28.1341 5.73189 28.6087 7.18351 28.6226L7.54548 28.6194C7.95635 28.6213 8.36713 28.6225 8.778 28.6208C9.14496 28.6189 9.5119 28.6186 9.87887 28.619C10.4946 28.6197 11.1103 28.6189 11.7261 28.6165C12.4413 28.6135 13.1566 28.6119 13.8718 28.6132C14.568 28.6145 15.2641 28.6146 15.9602 28.6131L15.9639 28.6131C16.2572 28.6124 16.5505 28.6117 16.8438 28.6121C17.1957 28.6127 17.5476 28.6125 17.8995 28.6109L18.2878 28.6086L18.6564 28.6101L18.9923 28.6067C19.2846 28.6059 19.2846 28.6059 19.5288 28.5637C19.6301 28.4863 19.6786 28.4492 19.7197 28.4053C19.7574 28.3651 19.789 28.3192 19.8496 28.2311C19.8481 28.0715 19.8474 27.9891 19.8352 27.9086C19.8222 27.8227 19.7963 27.7389 19.7427 27.5658L19.7197 27.5429C19.6075 27.4307 19.5242 27.3484 19.4341 27.2745C19.1956 27.0788 18.9096 26.9416 17.9143 26.4642L17.6915 26.3598C17.1258 26.0915 16.6264 25.9339 16.0011 25.9024C15.1254 26.508 14.1113 26.6193 13.0822 26.6122L12.6738 26.6024C12.6059 26.6019 12.538 26.6015 12.4702 26.601C12.0433 26.5984 11.6167 26.5957 11.1905 26.5678L11.1611 26.5576C11.0185 26.5083 10.9432 26.4828 10.8663 26.4647C10.7858 26.4457 10.7034 26.4348 10.5403 26.4131C8.97938 26.2317 7.61703 25.7514 6.18243 25.1046C5.92646 24.9886 5.67043 24.8758 5.41157 24.7667L5.20403 24.6827C5.21961 24.6447 5.23443 24.6075 5.24893 24.571C5.36008 24.2918 5.45238 24.0599 5.72518 23.8995C5.83765 23.8941 5.89763 23.8912 5.95258 23.9065C6.01537 23.924 6.07158 23.9653 6.19204 24.0537C7.82451 25.0803 10.0455 25.6115 11.9384 25.6789L12.2595 25.6807C12.3369 25.6826 12.4158 25.6849 12.4958 25.6873C13.5504 25.7185 14.8108 25.7558 15.6161 24.9919ZM31.1502 10.8026L31.415 10.5861C31.5442 10.4797 31.6881 10.3661 31.8405 10.2457C32.7822 9.50219 34.0484 8.50236 34.1744 7.38417C30.8735 7.38417 27.4442 9.83212 25.5153 12.3741C25.7101 12.6398 25.8923 12.9061 26.0699 13.185C26.4018 13.8114 26.2794 14.3399 26.0966 15.0008C25.9755 15.3955 25.9149 15.6375 26.0498 16.0334C27.4961 14.0364 29.2758 12.3603 31.1502 10.8026ZM22.0945 15.9225L21.8807 15.8116C20.6241 16.9939 19.1999 17.8674 17.6447 18.5561C17.5785 18.5845 17.5112 18.6101 17.4444 18.6355C17.1628 18.7426 16.8902 18.8463 16.7494 19.1383C17.1619 19.4068 17.5182 19.667 17.8117 20.0739C18.2174 20.7983 18.0936 21.7151 17.9763 22.5126L17.9253 22.7976C18.1379 22.7976 18.298 22.7976 18.4555 22.7775C18.9355 22.7163 19.392 22.4688 21.2393 21.4669C20.9157 18.7907 20.9157 18.7907 21.9692 16.2435L22.0945 15.9225Z" fill="#FCFBF7"/>
<path d="M28.8292 1.95068C28.926 2.02773 29.0227 2.10477 29.1224 2.18415M28.8292 1.95068C26.9693 0.998547 25.4229 1.29048 23.9118 2.7269C23.5013 3.21595 23.0813 3.45922 22.5241 3.73117M28.8292 1.95068L29.1224 2.18415M29.1224 2.18415C29.5771 2.45842 29.9837 2.48045 30.4913 2.50795M30.5664 2.51205C31.9184 2.59425 33.1831 2.88445 34.1585 3.93887C34.8353 4.89295 35.4001 6.53333 35.2433 7.71685C34.8736 9.15692 33.4359 10.2758 32.2796 11.1756L32.2786 11.1764C32.1696 11.2612 32.0631 11.3441 31.9603 11.4251C31.5235 11.7716 31.1231 12.1532 30.7209 12.5422C30.4925 12.7605 30.2614 12.9723 30.0265 13.1828C28.1823 14.852 26.7529 16.7128 25.4249 18.8311C25.3136 19.0082 25.2007 19.1842 25.0877 19.3601C25.1053 19.7055 25.1576 19.8706 25.3779 20.1324M30.5664 2.51205L30.4913 2.50795M30.5664 2.51205C30.5411 2.51065 30.5161 2.50929 30.4913 2.50795M25.3779 20.1324C25.4563 20.2046 25.5347 20.2768 25.6155 20.3511M25.3779 20.1324L25.6155 20.3511M25.6155 20.3511C26.5062 21.24 27.1586 22.2904 27.7402 23.4144M27.7402 23.4144C27.7816 23.4937 27.8229 23.5729 27.8656 23.6545M27.7402 23.4144L27.8656 23.6545M27.8656 23.6545C28.1138 24.1481 28.2474 24.6021 28.3682 25.147C28.4167 25.327 28.4411 25.4177 28.4848 25.4978C28.5291 25.5791 28.5932 25.6496 28.7223 25.7916C29.1943 26.01 29.6917 26.1238 30.1992 26.2159C30.8889 26.3499 31.2454 26.5394 31.6934 27.1056C31.9319 27.5461 31.9169 27.9682 31.8225 28.4529C31.679 28.9149 31.4869 29.1773 31.0673 29.4137C30.5957 29.6078 30.1431 29.6117 29.641 29.6099M29.641 29.6099C29.4993 29.6107 29.4993 29.6107 29.3548 29.6116M29.641 29.6099L29.3548 29.6116M29.3548 29.6116C29.1561 29.6123 28.9573 29.6122 28.7586 29.6112C28.4559 29.6103 28.1535 29.6135 27.8508 29.617C27.6569 29.6172 27.463 29.6171 27.2691 29.6168M27.2691 29.6168C27.1795 29.618 27.0898 29.6193 26.9974 29.6206M27.2691 29.6168L26.9974 29.6206M26.9974 29.6206C26.3028 29.6121 25.8404 29.4468 25.3299 28.9308C24.8682 28.2505 24.4702 27.5361 24.0788 26.8104M24.0788 26.8104C24.0094 26.6849 23.94 26.5595 23.8685 26.4303M24.0788 26.8104L23.8685 26.4303M23.8685 26.4303C23.8036 26.3103 23.7386 26.1903 23.6717 26.0666M23.8685 26.4303L23.6717 26.0666M23.6717 26.0666C23.6125 25.9579 23.5533 25.8491 23.4923 25.7371M23.6717 26.0666L23.4923 25.7371M23.4923 25.7371C23.275 25.3637 22.8263 24.4929 22.427 23.7181C22.1588 23.1976 21.9127 22.72 21.7737 22.4649C21.4523 22.5923 21.1404 22.7334 20.83 22.8868C19.9301 23.3261 19.0861 23.6901 18.0932 23.8267C17.763 23.8858 17.5446 23.9589 17.328 24.2288C17.1943 24.4496 17.0738 24.6704 16.9632 24.9045M24.6755 25.4944C24.7391 25.6157 24.8027 25.7369 24.8682 25.8618M24.6755 25.4944L24.8682 25.8618M24.6755 25.4944C24.6704 25.4875 24.6637 25.4771 24.6556 25.4635M24.6755 25.4944C24.6694 25.4826 24.6627 25.4726 24.6556 25.4635M24.8682 25.8618C24.934 25.9895 24.9998 26.1173 25.0676 26.249M24.8682 25.8618L25.0676 26.249M25.0676 26.249C25.1967 26.4993 25.3265 26.7491 25.4572 26.9984M25.4572 26.9984C25.5432 27.1654 25.5432 27.1654 25.6309 27.3358M25.4572 26.9984L25.6309 27.3358M25.6309 27.3358C25.838 27.714 25.9389 27.8982 26.0765 28.0484C26.207 28.1909 26.3706 28.3029 26.6895 28.5212C26.9367 28.5463 27.1729 28.5462 27.4211 28.5365M27.4211 28.5365C27.5543 28.5356 27.5543 28.5356 27.6901 28.5348M27.4211 28.5365L27.6901 28.5348M27.6901 28.5348C27.8766 28.5329 28.0632 28.5291 28.2496 28.5236C28.5359 28.5153 28.8218 28.5123 29.1082 28.5103C29.2897 28.5078 29.4712 28.505 29.6527 28.5018M29.6527 28.5018C29.7385 28.5006 29.8242 28.4993 29.9125 28.4979M29.6527 28.5018L29.9125 28.4979M29.9125 28.4979C30.1508 28.4994 30.2685 28.5002 30.3746 28.4655C30.4781 28.4317 30.5707 28.3642 30.7535 28.2311C30.719 27.8874 30.719 27.8874 30.6466 27.5658C29.8732 27.3031 29.132 27.0762 28.3206 26.9875C28.0809 26.9005 28.0809 26.9005 27.9126 26.6778C27.7131 26.2435 27.539 25.8012 27.366 25.355C26.5504 23.3099 25.422 21.3802 23.698 20.0254C23.7682 19.5332 23.8768 19.0675 24.0107 18.5899M24.0107 18.5899C24.0309 18.5177 24.0511 18.4455 24.0719 18.3711M24.0107 18.5899L24.0719 18.3711M24.0719 18.3711C24.1146 18.2188 24.1575 18.0665 24.2005 17.9143C24.265 17.686 24.3289 17.4575 24.3926 17.229C24.615 16.436 24.849 15.6496 25.1141 14.8705C25.2345 14.4537 25.2476 14.1367 25.1946 13.7048C25.0918 13.4688 25.0918 13.4688 24.8739 13.3721C24.6999 13.3577 24.6165 13.3507 24.5332 13.3513C24.4565 13.3519 24.3798 13.3588 24.2325 13.3721C23.7956 14.2287 23.446 15.1091 23.11 16.0127M23.11 16.0127C23.0608 16.1437 23.0116 16.2747 22.9609 16.4096M23.11 16.0127L22.9609 16.4096M22.9609 16.4096C22.8627 16.6717 22.7648 16.9339 22.6674 17.1962C22.5694 17.4589 22.47 17.7211 22.3693 17.9827M22.3693 17.9827C22.3212 18.1087 22.2731 18.2348 22.2235 18.3647M22.3693 17.9827L22.2235 18.3647M22.2235 18.3647C22.1802 18.4768 22.1369 18.5889 22.0923 18.7044M22.2235 18.3647L22.0923 18.7044M22.0923 18.7044C21.8215 19.5395 21.8951 20.2199 22.2514 21.0046C22.4375 21.3872 22.6374 21.7605 22.8427 22.1323M22.8427 22.1323C22.8838 22.2072 22.9249 22.2821 22.9672 22.3593M22.8427 22.1323L22.9672 22.3593M22.9672 22.3593C23.156 22.7031 23.3465 23.0454 23.5409 23.3858C23.5835 23.4668 23.6862 23.6423 23.8134 23.8596C24.0103 24.1961 24.2395 24.651 24.4139 24.997C24.5231 25.2137 24.6108 25.3878 24.6556 25.4635M16.9632 24.9045C17.0872 24.9595 17.2112 25.0145 17.339 25.0712M16.9632 24.9045L17.339 25.0712M17.339 25.0712C19.4603 26.0231 20.0639 26.294 20.4215 26.7567C20.5638 26.9408 20.6672 27.1552 20.8116 27.4549C20.8749 28.0859 20.8384 28.5776 20.4909 29.1182C20.0615 29.5349 19.6487 29.5754 19.0775 29.5773M19.0775 29.5773C18.908 29.5783 18.908 29.5783 18.7352 29.5793M19.0775 29.5773L18.7352 29.5793M18.7352 29.5793C18.6118 29.5794 18.4884 29.5795 18.3612 29.5796M18.7352 29.5793L18.3612 29.5796M18.3612 29.5796C18.2308 29.5802 18.1004 29.5807 17.966 29.5813M18.3612 29.5796L17.966 29.5813M17.966 29.5813C17.6084 29.5827 17.2507 29.5835 16.8931 29.584C16.6692 29.5843 16.4453 29.5848 16.2213 29.5852C15.5194 29.5868 14.8174 29.5878 14.1155 29.5883C13.3078 29.5888 12.5001 29.5907 11.6925 29.5939C11.0667 29.5963 10.4409 29.5974 9.81503 29.5976C9.44203 29.5977 9.06906 29.5983 8.69607 29.6003C8.27881 29.6025 7.86158 29.602 7.44432 29.6013M7.44432 29.6013C7.32266 29.6023 7.20099 29.6033 7.07564 29.6044M7.44432 29.6013L7.07564 29.6044M7.07564 29.6044C5.3759 29.5953 3.89114 29.05 2.65797 27.8179C1.70724 26.7911 1.19769 25.6788 1.2219 24.2392C1.22764 24.082 1.23375 23.925 1.24027 23.7679C1.24745 23.4106 1.21871 23.1414 1.14172 22.7976C0.766182 19.3783 1.04332 16.0261 3.12316 13.2236C4.12149 11.924 5.31562 10.9828 6.7006 10.1564M6.7006 10.1564C6.79762 10.0976 6.89463 10.0389 6.99458 9.97836M6.7006 10.1564L6.99458 9.97836M6.99458 9.97836C7.21917 9.87938 7.49103 9.75822 7.79527 9.62263C9.39078 8.91155 11.8765 7.80372 13.1013 7.41884C14.428 7.00105 15.7424 6.55241 17.0521 6.08037C17.2529 6.008 17.4539 5.93589 17.6549 5.86407C18.7737 5.4639 19.8538 5.03905 20.9185 4.5011C21.1366 4.39662 21.3549 4.29252 21.5733 4.1888C21.7827 4.08739 21.992 3.98589 22.2013 3.88429M6.99458 9.97836C7.23119 9.87514 7.38381 9.80702 7.49168 9.75886C7.68975 9.67044 7.73702 9.64934 7.87652 9.60195M7.86817 10.7832C5.42955 12.1601 3.35081 13.9493 2.53144 16.8097M7.86817 10.7832L7.85509 10.7906M7.86817 10.7832C7.86381 10.7856 7.85945 10.7881 7.85509 10.7906M2.53144 16.8097C2.08167 18.5523 1.92835 20.3462 2.21074 22.1323C2.47662 22.1323 2.6151 21.9944 2.78644 21.8238C2.82793 21.7825 2.87134 21.7393 2.91896 21.6957C5.76747 19.2392 9.70658 18.2756 13.3329 18.375C16.5971 18.4574 19.5296 16.7447 21.8743 14.4782C22.3617 13.9957 22.8136 13.4867 23.2177 12.9273C23.4469 12.6206 23.5454 12.4886 23.6765 12.415C23.7754 12.3594 23.8928 12.3371 24.0988 12.2979M2.53144 16.8097C3.34935 13.9544 5.42212 12.1665 7.85509 10.7906M24.0988 12.2979C24.2135 12.2865 24.3281 12.275 24.4463 12.2633M24.0988 12.2979L24.4463 12.2633M24.4463 12.2633C24.5566 12.0664 24.5566 12.0664 24.6601 11.8197C26.9699 8.55341 30.1949 7.12342 33.9605 6.3862C33.67 5.27378 33.67 5.27378 32.9984 4.39021C32.1119 3.89732 31.1793 3.63146 30.1747 3.60404C29.3162 3.57979 28.8007 3.43307 28.1031 2.90362C27.5532 2.49176 26.856 2.54948 26.2011 2.60369C26.1504 2.60789 26.0999 2.61207 26.0498 2.61601C25.4817 2.75897 25.1494 3.09896 24.7595 3.53517C24.2574 4.06114 23.7398 4.3904 23.1033 4.71595M23.1033 4.71595C22.9974 4.77157 22.8915 4.82719 22.7823 4.8845M23.1033 4.71595L22.7823 4.8845M22.7823 4.8845C21.0765 5.76528 19.3147 6.49909 17.4977 7.09219C16.9194 7.28211 16.3465 7.48444 15.7776 7.70299C15.0344 7.98544 14.2798 8.23227 13.5251 8.47913M13.2638 8.56465C12.417 8.84264 11.5822 9.1332 10.7629 9.49106C10.5161 9.59626 10.2688 9.69988 10.0212 9.80293C9.98283 9.81912 9.95617 9.83015 9.92943 9.84121C9.87569 9.86344 9.82154 9.88583 9.67088 9.95064C9.59063 9.98515 9.36062 10.0949 9.08941 10.2242C8.59799 10.4586 7.97131 10.7575 7.85509 10.7906M13.2638 8.56465L13.5251 8.47913M13.2638 8.56465C13.3509 8.53611 13.438 8.50762 13.5251 8.47913M22.2013 3.88429C22.3079 3.83376 22.4144 3.78323 22.5241 3.73117M22.2013 3.88429L22.5241 3.73117M12.2595 25.6807C12.1536 25.6801 12.0476 25.6795 11.9384 25.6789M12.2595 25.6807L11.9384 25.6789M12.2595 25.6807C12.3369 25.6826 12.4158 25.6849 12.4958 25.6873C13.5504 25.7185 14.8108 25.7558 15.6161 24.9919C16.5296 23.9334 17.2657 22.5765 17.2062 21.126C17.187 20.9858 17.1744 20.8936 17.1413 20.8096C17.0779 20.6488 16.9394 20.5179 16.5356 20.1363C12.7277 17.9437 6.29038 19.9747 3.20338 22.7712C2.62704 23.3567 2.28544 23.8255 2.25087 24.6827C2.30748 25.6898 2.69085 26.3815 3.35246 27.107C4.42769 28.1341 5.73189 28.6087 7.18351 28.6226M11.9384 25.6789C10.0455 25.6115 7.82451 25.0803 6.19204 24.0537C6.07158 23.9653 6.01537 23.924 5.95258 23.9065C5.89763 23.8912 5.83765 23.8941 5.72518 23.8995C5.45238 24.0599 5.36008 24.2918 5.24893 24.571C5.23443 24.6074 5.21961 24.6447 5.20403 24.6827M5.20403 24.6827C5.30676 24.7243 5.30676 24.7243 5.41157 24.7667M5.20403 24.6827L5.41157 24.7667M5.41157 24.7667C5.67043 24.8758 5.92646 24.9886 6.18243 25.1046C7.61703 25.7514 8.97938 26.2317 10.5403 26.4131C10.7034 26.4348 10.7858 26.4457 10.8663 26.4647C10.9432 26.4828 11.0185 26.5083 11.1611 26.5576M11.1905 26.5678C11.6167 26.5957 12.0433 26.5984 12.4702 26.601C12.538 26.6015 12.6059 26.6019 12.6738 26.6024M11.1905 26.5678C11.1804 26.5643 11.1705 26.5609 11.1611 26.5576M11.1905 26.5678L11.1611 26.5576M12.6738 26.6024C12.8086 26.6056 12.9433 26.6088 13.0822 26.6122M12.6738 26.6024L13.0822 26.6122M13.0822 26.6122C14.1113 26.6193 15.1254 26.508 16.0011 25.9024C16.6264 25.9339 17.1258 26.0915 17.6915 26.3598M17.6915 26.3598C17.765 26.3943 17.8385 26.4287 17.9143 26.4642M17.6915 26.3598L17.9143 26.4642M17.9143 26.4642C18.9096 26.9416 19.1956 27.0788 19.4341 27.2745C19.5242 27.3484 19.6075 27.4307 19.7197 27.5429M19.7427 27.5658C19.7963 27.7389 19.8222 27.8227 19.8352 27.9086C19.8474 27.9891 19.8481 28.0715 19.8496 28.2311C19.789 28.3192 19.7574 28.3651 19.7197 28.4053C19.6786 28.4492 19.6301 28.4863 19.5288 28.5637C19.2846 28.6059 19.2846 28.6059 18.9923 28.6067M19.7427 27.5658C19.7349 27.558 19.7272 27.5504 19.7197 27.5429M19.7427 27.5658L19.7197 27.5429M18.9923 28.6067C18.8815 28.6078 18.7706 28.6089 18.6564 28.6101M18.9923 28.6067L18.6564 28.6101M18.6564 28.6101C18.5348 28.6096 18.4131 28.6091 18.2878 28.6086M18.6564 28.6101L18.2878 28.6086M18.2878 28.6086C18.1597 28.6093 18.0315 28.6101 17.8995 28.6109M18.2878 28.6086L17.8995 28.6109M17.8995 28.6109C17.5476 28.6125 17.1957 28.6127 16.8438 28.6121C16.5505 28.6117 16.2572 28.6124 15.9639 28.6131M15.9602 28.6131C15.2641 28.6146 14.568 28.6145 13.8718 28.6132C13.1566 28.6119 12.4413 28.6135 11.7261 28.6165C11.1103 28.6189 10.4946 28.6197 9.87887 28.619C9.5119 28.6186 9.14496 28.6189 8.778 28.6208C8.36713 28.6225 7.95635 28.6213 7.54548 28.6194M15.9602 28.6131L15.9639 28.6131M15.9602 28.6131L15.9639 28.6131M7.54548 28.6194C7.42603 28.6205 7.30658 28.6215 7.18351 28.6226M7.54548 28.6194L7.18351 28.6226M31.415 10.5861C31.3276 10.6575 31.2402 10.729 31.1502 10.8026M31.415 10.5861C31.5442 10.4797 31.6881 10.3661 31.8405 10.2457C32.7822 9.50219 34.0484 8.50236 34.1744 7.38417C30.8735 7.38417 27.4442 9.83212 25.5153 12.3741C25.7101 12.6398 25.8923 12.9061 26.0699 13.185C26.4018 13.8114 26.2794 14.3399 26.0966 15.0008C25.9755 15.3955 25.9149 15.6375 26.0498 16.0334C27.4961 14.0364 29.2758 12.3603 31.1502 10.8026M31.415 10.5861L31.1502 10.8026M21.8807 15.8116C21.9512 15.8482 22.0218 15.8848 22.0945 15.9225M21.8807 15.8116C20.6241 16.9939 19.1999 17.8674 17.6447 18.5561C17.5785 18.5845 17.5112 18.6101 17.4444 18.6355C17.1628 18.7426 16.8902 18.8463 16.7494 19.1383C17.1619 19.4068 17.5182 19.667 17.8117 20.0739C18.2174 20.7983 18.0936 21.7151 17.9763 22.5126M21.8807 15.8116L22.0945 15.9225M22.0945 15.9225C22.0531 16.0285 22.0118 16.1344 21.9692 16.2435M22.0945 15.9225L21.9692 16.2435M21.9692 16.2435C20.9157 18.7907 20.9157 18.7907 21.2393 21.4669C19.392 22.4688 18.9355 22.7163 18.4555 22.7775C18.298 22.7976 18.1379 22.7976 17.9253 22.7976M17.9253 22.7976C17.9421 22.7035 17.9589 22.6095 17.9763 22.5126M17.9253 22.7976L17.9763 22.5126M26.6913 6.49706C26.6207 6.42388 26.5501 6.35069 26.4775 6.27529M26.6913 6.49706L26.4775 6.27529M26.6913 6.49706C26.8583 6.50767 26.9401 6.51287 27.0219 6.51265C27.1004 6.51244 27.1789 6.50724 27.3327 6.49706C27.4871 6.33689 27.4871 6.33689 27.5465 5.83173C27.2923 5.56812 27.1506 5.53563 26.7982 5.49907C26.544 5.76269 26.5127 5.90967 26.4775 6.27529M24.5955 25.3872C24.6108 25.4178 24.6345 25.4363 24.6556 25.4635M27.4396 4.50108C27.9347 4.78209 28.328 5.04786 28.5087 5.60996C28.551 6.192 28.4943 6.55843 28.1879 7.0515C27.7191 7.49042 27.4408 7.64056 26.8011 7.62976C26.342 7.57929 26.1042 7.33739 25.8094 6.98913C25.5188 6.56935 25.4608 6.2832 25.4632 5.77196C25.559 5.27144 25.8955 4.93258 26.2637 4.61197C26.6618 4.47434 27.0262 4.44097 27.4396 4.50108Z" stroke="#FCFBF7"/>
</svg>
