<svg width="35" height="35" viewBox="0 0 35 35" fill="none" xmlns="http://www.w3.org/2000/svg">
<path d="M31.0067 3.06935C31.066 3.11845 31.1253 3.16756 31.1863 3.21815C32.8292 4.63596 33.7677 6.72091 33.9675 8.85792C33.9755 8.98207 33.9824 9.1063 33.9882 9.23057C33.9923 9.30692 33.9923 9.30692 33.9965 9.38481C34.0548 11.527 33.2679 13.5885 31.868 15.193C31.8301 15.2398 31.7922 15.2865 31.7531 15.3346C31.4375 15.7171 31.0665 16.0166 30.6754 16.3193C30.6188 16.3645 30.5622 16.4096 30.5039 16.4562C28.6608 17.8723 26.557 18.0943 24.315 18.0418C24.7444 18.8268 25.1902 19.6007 25.6478 20.3696C25.8028 20.63 25.9545 20.8919 26.1039 21.1555C26.1476 21.1555 26.1913 21.1555 26.2364 21.1555C26.3227 21.0475 26.3227 21.0475 26.4103 20.9112C26.707 20.5024 27.0779 20.2949 27.5615 20.1618C27.7362 20.1461 27.9005 20.1365 28.0749 20.1369C28.1215 20.137 28.168 20.1371 28.2159 20.1373C28.6777 20.1481 29.0906 20.243 29.4334 20.5686C29.6773 20.7337 29.8802 20.7105 30.162 20.6918C30.6637 20.6744 31.0658 20.715 31.4563 21.0618C31.66 21.1919 31.8354 21.1909 32.0751 21.2093C32.6583 21.2707 33.0812 21.4763 33.483 21.905C33.8984 22.4439 34.0274 23.0251 33.976 23.7004C33.8817 24.2507 33.5676 24.7749 33.1235 25.1139C32.5094 25.5078 31.7972 25.5712 31.0867 25.4232C30.9297 25.3812 30.9297 25.3812 30.7417 25.4618C30.5683 25.4699 30.3975 25.474 30.2241 25.4742C30.1778 25.475 30.1314 25.4758 30.0837 25.4766C29.788 25.4775 29.5614 25.424 29.2841 25.3293C29.1017 25.3269 29.1017 25.3269 28.928 25.3541C28.8701 25.3614 28.8122 25.3688 28.7525 25.3764C28.6877 25.3858 28.6877 25.3858 28.6215 25.3955C28.9785 26.0429 29.3494 26.6813 29.7272 27.3167C29.7726 27.3933 29.8181 27.4698 29.8636 27.5464C29.8862 27.5845 29.9089 27.6227 29.9323 27.6621C29.955 27.7004 29.9778 27.7387 30.0013 27.7782C30.0241 27.8166 30.0469 27.855 30.0704 27.8945C30.3171 28.3101 30.5631 28.726 30.808 29.1428C30.8681 29.2444 30.8681 29.2444 30.9295 29.3481C30.9659 29.4102 31.0023 29.4724 31.0398 29.5364C31.072 29.5909 31.1041 29.6454 31.1372 29.7016C31.2055 29.8342 31.2055 29.8342 31.2055 29.9667C31.241 29.9717 31.2765 29.9766 31.3131 29.9817C32.1683 30.1252 33.1038 30.4159 33.6486 31.1261C33.9877 31.6098 33.9462 32.1596 33.9468 32.7244C33.9484 32.8129 33.95 32.9014 33.9517 32.9899C33.952 33.0739 33.9522 33.158 33.9525 33.2445C33.953 33.3211 33.9536 33.3977 33.9541 33.4766C33.9136 33.7288 33.8609 33.7899 33.6569 33.9417C33.4693 33.9677 33.3076 33.9773 33.1201 33.9751C33.0653 33.9754 33.0105 33.9758 32.954 33.9762C32.7691 33.9772 32.5843 33.9763 32.3994 33.9754C32.266 33.9757 32.1326 33.9761 31.9992 33.9766C31.6316 33.9777 31.2641 33.9772 30.8966 33.9764C30.5006 33.9758 30.1046 33.9767 29.7086 33.9774C28.9773 33.9785 28.2461 33.9784 27.5149 33.9777C26.8394 33.977 26.1639 33.9769 25.4884 33.9772C25.4437 33.9772 25.3989 33.9772 25.3528 33.9772C25.1711 33.9773 24.9894 33.9774 24.8076 33.9775C23.1023 33.9783 21.3969 33.9776 19.6915 33.9761C18.1756 33.9749 16.6597 33.975 15.1439 33.9763C13.4416 33.9777 11.7394 33.9782 10.0372 33.9774C9.85579 33.9773 9.6744 33.9773 9.49302 33.9772C9.44835 33.9772 9.40369 33.9771 9.35767 33.9771C8.68255 33.9768 8.00742 33.9772 7.33229 33.9778C6.56481 33.9786 5.79734 33.9784 5.02986 33.977C4.638 33.9763 4.24616 33.976 3.85431 33.9769C3.49598 33.9777 3.13767 33.9772 2.77934 33.9758C2.64934 33.9755 2.51933 33.9757 2.38932 33.9763C2.21331 33.9771 2.03738 33.9763 1.86137 33.9751C1.78472 33.976 1.78472 33.976 1.70652 33.9769C1.476 33.9737 1.34775 33.9591 1.1607 33.8192C0.945974 33.5167 1.01925 33.106 1.02226 32.7492C1.02068 32.6654 1.0191 32.5817 1.01748 32.4953C1.01863 31.7499 1.19475 31.0946 1.72156 30.5462C2.17255 30.154 2.73194 29.8716 3.33379 29.8214C3.58526 29.7923 3.77491 29.7692 3.95821 29.5854C4.06527 29.4231 4.15537 29.258 4.24391 29.0848C4.31741 28.9512 4.391 28.8177 4.46467 28.6842C4.5224 28.577 4.5224 28.577 4.58129 28.4677C4.77253 28.1182 4.976 27.776 5.17893 27.4331C5.29955 27.229 5.41922 27.0243 5.53898 26.8196C5.58759 26.7366 5.6362 26.6536 5.68482 26.5706C5.70883 26.5296 5.73285 26.4886 5.75759 26.4464C5.94595 26.1249 6.13445 25.8034 6.32292 25.482C6.44016 25.282 6.5574 25.082 6.67463 24.8821C6.72156 24.802 6.76849 24.722 6.81542 24.6419C6.83865 24.6023 6.86188 24.5627 6.88582 24.5218C7.55458 23.3811 7.55458 23.3811 8.22334 22.2404C8.25818 22.1809 8.25818 22.1809 8.29373 22.1203C8.34067 22.0402 8.38761 21.9601 8.43456 21.8801C8.55173 21.6802 8.66886 21.4804 8.78592 21.2805C9.02305 20.8756 9.26083 20.4711 9.49978 20.0673C9.7807 19.5923 10.0591 19.1159 10.3352 18.638C10.3748 18.5695 10.4145 18.501 10.4553 18.4304C11.7365 16.1969 12.6321 13.723 13.0079 11.172C13.0152 11.1229 13.0224 11.0738 13.0299 11.0232C13.065 10.7817 13.0985 10.5402 13.1296 10.2982C13.2789 9.17918 13.2789 9.17918 13.7432 8.80823C13.78 8.77766 13.8168 8.74708 13.8547 8.71558C14.2095 8.48403 14.5264 8.48402 14.9371 8.48889C14.9969 8.48907 15.0567 8.48926 15.1184 8.48945C15.3087 8.49019 15.4991 8.49186 15.6894 8.49354C15.8188 8.49421 15.9482 8.49481 16.0775 8.49536C16.394 8.49681 16.7105 8.4991 17.0269 8.50183C17.0302 8.45566 17.0335 8.40949 17.0369 8.36192C17.1829 6.52956 18.0912 4.90971 19.3459 3.59935C19.3911 3.5499 19.4364 3.50045 19.483 3.44951C20.5047 2.36947 21.9012 1.67002 23.3212 1.28061C23.399 1.25815 23.4768 1.23569 23.5569 1.21255C26.1773 0.589782 28.9691 1.37325 31.0067 3.06935ZM20.0436 4.48699C19.0788 5.50943 18.1533 7.05598 18.1533 8.50183C18.2635 8.50275 18.2635 8.50275 18.376 8.5037C18.6506 8.50636 18.9252 8.51072 19.1998 8.51557C19.3183 8.51744 19.4368 8.51884 19.5553 8.51978C19.7264 8.52121 19.8974 8.52431 20.0685 8.5277C20.1208 8.52779 20.1731 8.52787 20.2271 8.52795C20.6589 8.53915 21.0086 8.66299 21.3351 8.9516C21.3646 8.99174 21.3942 9.03188 21.4246 9.07323C21.4552 9.11234 21.4858 9.15146 21.5173 9.19175C21.7226 9.62454 21.75 10.1386 21.8166 10.6085C22.0548 12.2702 22.4773 13.8427 23.0394 15.4207C23.1261 15.6673 23.2066 15.9153 23.283 16.1652C23.3659 16.3706 23.4542 16.5379 23.5862 16.7168C24.1557 16.9573 24.8353 16.9519 25.4455 16.9487C25.5287 16.9483 25.6119 16.9479 25.6977 16.9475C27.7133 16.9094 29.5264 16.0074 30.9239 14.5676C32.2077 13.1078 32.9666 11.1866 32.8619 9.23057C32.6889 7.18166 31.8404 5.30452 30.2779 3.9306C27.1241 1.37609 22.9119 1.70057 20.0436 4.48699ZM14.443 9.76057C14.3219 9.94234 14.2897 10.1043 14.2681 10.3196C14.2616 10.3779 14.2551 10.4362 14.2485 10.4963C14.2382 10.5912 14.2382 10.5912 14.2277 10.6881C13.926 13.1896 13.1862 15.707 12.0032 17.9385C11.9775 17.9945 11.9518 18.0504 11.9253 18.108C11.9472 18.1518 11.9691 18.1955 11.9916 18.2405C12.9131 17.662 13.3024 16.7743 13.7499 15.825C13.8211 15.6745 13.8938 15.5246 13.9665 15.3747C13.998 15.3064 13.998 15.3064 14.0302 15.2367C14.2112 14.867 14.4683 14.5841 14.8405 14.3981C15.3476 14.3548 15.7601 14.3352 16.1656 14.663C16.4103 14.9738 16.4919 15.2401 16.5582 15.6195C16.5688 15.6761 16.5794 15.7326 16.5904 15.7909C16.6268 15.9889 16.6615 16.1871 16.6957 16.3855C16.7155 16.5002 16.7155 16.5002 16.7357 16.6172C16.8319 17.179 16.925 17.7413 17.0171 18.3037C17.0691 18.6209 17.1214 18.9379 17.1738 19.255C17.2015 19.4228 17.229 19.5906 17.2565 19.7584C17.2689 19.8337 17.2813 19.909 17.2941 19.9866C17.3049 20.0526 17.3157 20.1186 17.3269 20.1867C17.3537 20.3352 17.3856 20.4798 17.4245 20.6255C17.4682 20.6255 17.5119 20.6255 17.557 20.6255C17.6983 20.0814 17.8195 19.5359 17.9276 18.9843C17.9592 18.8256 17.9909 18.667 18.0226 18.5084C18.0717 18.2616 18.1206 18.0147 18.1691 17.7678C18.2165 17.5273 18.2645 17.2869 18.3127 17.0465C18.3341 16.9359 18.3341 16.9359 18.356 16.8231C18.472 16.2488 18.601 15.8742 19.0808 15.5243C19.447 15.4022 19.8635 15.3904 20.2331 15.5088C20.8769 15.8577 21.0708 16.773 21.3016 17.4177C21.3687 17.5919 21.433 17.7512 21.5323 17.9093C21.7334 18.0063 21.7334 18.0063 21.9298 17.9755C22.1855 17.7973 22.4081 17.4699 22.5261 17.1805C22.5055 16.8641 22.3496 16.5712 22.228 16.282C21.4591 14.3981 20.9662 12.4414 20.7031 10.4264C20.6872 10.31 20.6872 10.31 20.671 10.1912C20.6628 10.1249 20.6546 10.0587 20.6461 9.99037C20.5998 9.80729 20.5557 9.74036 20.4059 9.62807C20.1646 9.54762 19.9425 9.55152 19.6912 9.55115C19.6387 9.55082 19.5862 9.55049 19.5321 9.55015C19.3584 9.54918 19.1847 9.54873 19.011 9.54836C18.8902 9.54798 18.7695 9.5476 18.6488 9.54722C18.3956 9.54652 18.1424 9.54614 17.8892 9.54591C17.5649 9.54554 17.2406 9.54395 16.9163 9.54207C16.6669 9.54083 16.4175 9.54049 16.1681 9.54039C16.0485 9.54018 15.9289 9.53965 15.8094 9.53878C15.6421 9.53765 15.4748 9.53778 15.3075 9.53821C15.2582 9.5376 15.2089 9.53699 15.1581 9.53636C14.8638 9.53872 14.6775 9.5802 14.443 9.76057ZM15.1718 15.458C15.1056 15.5837 15.0394 15.7093 14.9733 15.835C14.9144 15.9468 14.8553 16.0585 14.7962 16.1702C14.6355 16.4742 14.4774 16.7791 14.324 17.0869C13.7498 18.2307 13.1601 19.0156 11.9013 19.4501C11.7358 19.4967 11.5776 19.5215 11.4077 19.5448C11.2352 19.5814 11.1507 19.6086 11.0327 19.7423C10.9885 19.8129 10.9885 19.8129 10.9434 19.8849C10.8925 19.9658 10.8925 19.9658 10.8405 20.0483C10.6446 20.3751 10.4534 20.7043 10.2648 21.0354C10.1763 21.1899 10.0877 21.3443 9.99902 21.4987C9.97691 21.5372 9.9548 21.5757 9.93202 21.6154C9.72966 21.9676 9.52376 22.3175 9.31654 22.6668C8.98647 23.2235 8.65815 23.7812 8.331 24.3396C8.29547 24.4003 8.29547 24.4003 8.25922 24.4622C8.13824 24.6686 8.01728 24.8751 7.89633 25.0816C7.707 25.4048 7.51754 25.728 7.32807 26.0511C7.23522 26.2095 7.14238 26.3679 7.04956 26.5263C6.82934 26.902 6.60899 27.2777 6.38826 27.6532C6.28383 27.8309 6.17946 28.0085 6.0751 28.1862C6.02526 28.2711 5.97538 28.3559 5.92548 28.4407C5.85635 28.5581 5.78733 28.6756 5.71833 28.7931C5.67901 28.86 5.63969 28.9269 5.59917 28.9958C5.51623 29.1409 5.43871 29.2863 5.3661 29.4367C6.16483 29.3124 6.71248 29.0347 7.20467 28.385C7.73319 27.7073 8.5147 27.3108 9.34139 27.118C9.57821 27.0891 9.81106 27.0832 10.0495 27.0849C10.1129 27.0852 10.1763 27.0856 10.2416 27.086C11.1024 27.1075 11.7809 27.3687 12.4554 27.913C12.5141 27.9554 12.5729 27.9977 12.6334 28.0414C12.8199 28.2076 12.9755 28.3929 13.1381 28.5822C13.476 28.9606 13.8153 29.1083 14.3105 29.1717C14.5758 29.1821 14.8409 29.1826 15.1063 29.1829C15.1835 29.1831 15.2606 29.1833 15.34 29.1835C15.503 29.1839 15.666 29.184 15.829 29.184C16.0766 29.1842 16.3242 29.1854 16.5718 29.1866C16.7307 29.1868 16.8896 29.1869 17.0484 29.187C17.1217 29.1875 17.1949 29.188 17.2704 29.1884C18.1729 29.1858 18.9295 29.0548 19.5985 28.414C20.3194 27.7297 21.1172 27.6161 22.0615 27.6294C22.4534 27.6439 22.7757 27.7287 23.1224 27.913C23.1671 27.9362 23.2119 27.9594 23.258 27.9834C23.5339 28.1423 23.7669 28.3401 24.0086 28.5465C24.6609 29.0887 25.3061 29.1689 26.1286 29.191C27.0353 29.2154 27.9232 29.3064 28.8203 29.4367C28.8707 29.444 28.921 29.4513 28.9729 29.4589C29.2095 29.4936 29.4457 29.5301 29.6816 29.5692C29.1239 28.5249 28.5239 27.5036 27.9217 26.4845C27.887 26.4256 27.887 26.4256 27.8516 26.3655C27.7854 26.2532 27.7188 26.141 27.6523 26.0288C27.614 25.9641 27.5757 25.8994 27.5362 25.8327C27.397 25.6036 27.397 25.6036 27.2302 25.3955C27.1007 25.3634 27.1007 25.3634 26.9587 25.3789C26.9059 25.3812 26.8531 25.3834 26.7987 25.3857C26.7429 25.389 26.6872 25.3922 26.6298 25.3955C26.0152 25.4132 25.6123 25.3289 25.0935 24.9897C24.6328 24.5081 24.3867 23.9769 24.3794 23.3086C24.4186 22.6666 24.6566 22.1389 25.11 21.6855C25.0651 21.6091 25.0651 21.6091 25.0193 21.5312C24.4024 20.4823 23.7888 19.4317 23.1886 18.373C22.9621 18.4485 22.8989 18.5428 22.7629 18.7327C22.4881 19.0068 22.1816 19.0653 21.8056 19.0687C21.391 19.0595 21.1056 18.9942 20.8035 18.7043C20.5942 18.4665 20.4741 18.2475 20.3625 17.9517C20.3316 17.8724 20.3008 17.7931 20.269 17.7113C20.2211 17.5861 20.1736 17.4608 20.1265 17.3353C20.0804 17.2133 20.033 17.0919 19.9856 16.9704C19.9582 16.8979 19.9307 16.8254 19.9024 16.7508C19.8282 16.5727 19.8282 16.5727 19.6713 16.5408C19.6295 16.5333 19.5877 16.5258 19.5446 16.518C19.4036 17.0606 19.2833 17.6044 19.1764 18.1546C19.145 18.3127 19.1137 18.4707 19.0823 18.6287C19.0337 18.8743 18.9853 19.12 18.9375 19.3657C18.8908 19.6054 18.8432 19.8448 18.7954 20.0841C18.7814 20.1572 18.7675 20.2302 18.7531 20.3054C18.6536 20.7986 18.5548 21.2516 18.1533 21.5861C17.8203 21.7472 17.4527 21.735 17.0932 21.6855C16.7947 21.5416 16.6119 21.3644 16.4307 21.0893C16.36 20.8628 16.3241 20.6317 16.2857 20.3978C16.2728 20.3243 16.2599 20.2508 16.2466 20.1751C16.196 19.8838 16.1475 19.5922 16.0994 19.3005C16.0825 19.1983 16.0825 19.1983 16.0653 19.094C16.0402 18.9415 16.0151 18.7891 15.99 18.6367C15.9634 18.4756 15.9369 18.3145 15.9103 18.1535C15.8428 17.7451 15.7758 17.3366 15.71 16.928C15.6849 16.7749 15.6599 16.6217 15.6348 16.4686C15.6179 16.3618 15.6179 16.3618 15.6006 16.2528C15.5897 16.1869 15.5788 16.121 15.5676 16.0531C15.5583 15.9956 15.549 15.938 15.5394 15.8787C15.5028 15.722 15.4486 15.5982 15.3706 15.458C15.305 15.458 15.2394 15.458 15.1718 15.458ZM27.3627 21.553C27.2945 21.6645 27.2269 21.7763 27.1598 21.8884C27.0164 22.1072 26.9431 22.1997 26.6942 22.2888C26.5442 22.3171 26.3939 22.3437 26.2434 22.3685C25.9429 22.4354 25.7608 22.5706 25.5738 22.8118C25.4361 23.0758 25.4157 23.3092 25.4628 23.6049C25.5597 23.8956 25.7732 24.1205 26.0301 24.2812C26.1953 24.3453 26.3244 24.3531 26.5014 24.3521C26.5854 24.3526 26.5854 24.3526 26.6712 24.3531C26.8431 24.3344 26.9466 24.2836 27.0977 24.203C27.4405 24.1744 27.4405 24.1744 27.6207 24.2685C27.8782 24.3922 28.1446 24.378 28.4228 24.3355C28.5832 24.2584 28.7292 24.1683 28.8804 24.0746C29.1028 23.9618 29.251 23.9961 29.4829 24.0705C29.5444 24.1156 29.6058 24.1607 29.6692 24.2071C29.957 24.3821 30.213 24.3823 30.5429 24.3355C30.6321 24.2931 30.7206 24.249 30.808 24.203C31.1512 24.1744 31.1512 24.1744 31.3302 24.2687C31.5865 24.3907 31.856 24.3706 32.1331 24.3355C32.4536 24.1812 32.6412 23.9936 32.7956 23.673C32.8484 23.3421 32.834 23.0902 32.6879 22.7869C32.4493 22.5231 32.2892 22.3603 31.9198 22.3312C31.8399 22.3285 31.7599 22.3259 31.6776 22.3232C31.2218 22.3049 31.0004 22.1917 30.6754 21.8843C30.433 21.7631 30.1462 21.7995 29.8804 21.818C29.7695 21.8609 29.6589 21.9048 29.5491 21.9505C29.2843 21.945 29.182 21.9124 28.9859 21.7311C28.9313 21.6723 28.8766 21.6136 28.8203 21.553C28.5244 21.2984 28.2985 21.2444 27.9184 21.2637C27.6675 21.3023 27.5488 21.3794 27.3627 21.553ZM7.70986 29.4533C7.13957 30.1251 6.31844 30.3671 5.48101 30.5257C5.34004 30.5538 5.19908 30.5819 5.05812 30.6101C4.83864 30.6531 4.6191 30.6958 4.39951 30.7382C4.18565 30.7798 3.97202 30.8225 3.75838 30.8652C3.69295 30.8775 3.62752 30.8898 3.5601 30.9025C3.02886 31.0095 2.68211 31.1993 2.33546 31.624C2.08919 32.0125 2.11961 32.4337 2.11961 32.8817C12.2646 32.8817 22.4095 32.8817 32.8619 32.8817C32.8826 32.2197 32.8826 32.2197 32.6025 31.6589C32.322 31.4278 32.0338 31.338 31.69 31.2296C31.6198 31.2071 31.5497 31.1845 31.4774 31.1612C29.8825 30.6612 28.23 30.3449 26.5594 30.2641C26.4824 30.2603 26.4824 30.2603 26.4038 30.2564C26.1537 30.2445 25.9037 30.2347 25.6534 30.2282C24.8594 30.2015 24.1129 30.0474 23.4827 29.532C23.4211 29.4827 23.3595 29.4334 23.2961 29.3826C23.1817 29.2874 23.0673 29.1919 22.9531 29.0964C22.4676 28.7265 21.9317 28.6338 21.3335 28.708C20.8301 28.8129 20.4751 29.1142 20.0871 29.4314C19.5011 29.9067 18.8912 30.1801 18.1259 30.1847C18.0558 30.1854 18.0558 30.1854 17.9843 30.1861C17.8312 30.1873 17.6781 30.1876 17.5249 30.1877C17.4174 30.1882 17.3099 30.1886 17.2024 30.1891C16.9774 30.1899 16.7524 30.1901 16.5274 30.19C16.2408 30.19 15.9543 30.1918 15.6678 30.1941C15.4458 30.1956 15.2237 30.1959 15.0017 30.1958C14.8962 30.1959 14.7906 30.1965 14.6851 30.1975C13.7823 30.2056 13.0658 30.078 12.3891 29.4367C12.279 29.3149 12.17 29.192 12.062 29.0682C11.6206 28.5685 11.077 28.1966 10.3947 28.1534C9.19693 28.1204 8.48146 28.5292 7.70986 29.4533Z" fill="white" stroke="white" stroke-width="0.8"/>
<path d="M4.75647 11.125C4.803 11.1251 4.84953 11.1252 4.89747 11.1253C5.35922 11.1362 5.77208 11.2311 6.11495 11.5567C6.35887 11.7218 6.56176 11.6986 6.8435 11.6799C7.34521 11.6625 7.74734 11.7031 8.13779 12.0499C8.3415 12.18 8.51691 12.179 8.7566 12.1974C9.33982 12.2588 9.76269 12.4643 10.1645 12.893C10.5799 13.432 10.7089 14.0132 10.6575 14.6885C10.5632 15.2388 10.2491 15.763 9.80504 16.102C9.19088 16.4958 8.47873 16.5593 7.76822 16.4113C7.61121 16.3692 7.61121 16.3692 7.42322 16.4498C7.24984 16.458 7.07899 16.4621 6.90561 16.4623C6.85928 16.4631 6.81294 16.4639 6.76521 16.4647C6.4704 16.4655 6.2414 16.4156 5.96562 16.3173C5.72857 16.3374 5.52846 16.3747 5.30307 16.4498C5.12841 16.4562 4.95592 16.4591 4.78131 16.4581C4.73443 16.4584 4.68754 16.4586 4.63923 16.4589C4.4394 16.4585 4.25232 16.4517 4.05613 16.412C3.90073 16.3691 3.90073 16.3691 3.71295 16.4498C2.97563 16.5009 2.35158 16.4764 1.74187 16.0109C1.27449 15.5668 1.06745 15.0678 1.00039 14.431C0.990083 13.8107 1.18509 13.2732 1.5928 12.8061C1.8748 12.5241 2.14689 12.3935 2.52865 12.2844C2.88842 12.1766 3.02374 12.0557 3.22122 11.7438C3.56782 11.2648 4.19828 11.1237 4.75647 11.125ZM4.04423 12.5411C3.97601 12.6525 3.90843 12.7644 3.84132 12.8765C3.69792 13.0952 3.62458 13.1878 3.37573 13.2768C3.22577 13.3052 3.07547 13.3318 2.92488 13.3565C2.62439 13.4234 2.44229 13.5587 2.25535 13.7998C2.1176 14.0638 2.0972 14.2973 2.14432 14.593C2.2412 14.8836 2.45473 15.1086 2.71163 15.2692C2.87687 15.3334 3.00597 15.3412 3.18292 15.3401C3.26696 15.3407 3.26696 15.3407 3.35269 15.3412C3.5246 15.3225 3.62813 15.2717 3.77921 15.1911C4.12198 15.1625 4.12198 15.1625 4.30226 15.2566C4.55968 15.3802 4.82615 15.3661 5.10431 15.3236C5.26477 15.2465 5.41067 15.1564 5.56188 15.0627C5.78428 14.9499 5.93247 14.9842 6.16438 15.0586C6.22588 15.1037 6.28737 15.1488 6.35072 15.1952C6.63856 15.3702 6.89455 15.3704 7.22446 15.3236C7.31364 15.2811 7.4021 15.2371 7.48948 15.1911C7.83273 15.1625 7.83273 15.1625 8.01175 15.2568C8.26806 15.3788 8.53754 15.3586 8.81458 15.3236C9.13516 15.1692 9.32277 14.9816 9.47713 14.6611C9.52994 14.3302 9.51549 14.0783 9.36946 13.775C9.13079 13.5112 8.9707 13.3484 8.60132 13.3193C8.52138 13.3166 8.44144 13.314 8.35907 13.3112C7.90329 13.2929 7.68188 13.1798 7.35697 12.8723C7.11457 12.7512 6.8277 12.7876 6.56191 12.8061C6.45097 12.849 6.34042 12.8929 6.23064 12.9386C5.96582 12.9331 5.86356 12.9005 5.66747 12.7191C5.61281 12.6604 5.55815 12.6016 5.50183 12.5411C5.20596 12.2865 4.98004 12.2325 4.59989 12.2518C4.34904 12.2904 4.23028 12.3675 4.04423 12.5411Z" fill="white" stroke="white" stroke-width="0.8"/>
</svg>
