<svg width="34" height="35" viewBox="0 0 34 35" fill="none" xmlns="http://www.w3.org/2000/svg">
<path d="M10.1592 10.8497H10.3092V10.6997V5.67304C10.3092 2.93514 12.5253 0.716406 15.2592 0.716406H18.6983C21.4322 0.716406 23.6483 2.93514 23.6483 5.67304V10.6997V10.8497H23.7983H28.9C31.6339 10.8497 33.85 13.0684 33.85 15.8063V19.2499C33.85 21.9878 31.6339 24.2065 28.9 24.2065H23.7983H23.6483V24.3565V29.4598C23.6483 32.1977 21.4322 34.4164 18.6983 34.4164H15.2592C12.5253 34.4164 10.3092 32.1977 10.3092 29.4598V24.3565V24.2065H10.1592H5.1C2.36613 24.2065 0.15 21.9878 0.15 19.2499V15.8063C0.15 13.0684 2.36613 10.8497 5.1 10.8497H10.1592ZM13.4092 12.4019C13.4092 13.2589 12.7146 13.9541 11.8592 13.9541H5.1C4.07867 13.9541 3.25 14.7822 3.25 15.8063V19.2499C3.25 20.2722 4.07857 21.1021 5.1 21.1021H11.8592C12.7147 21.1021 13.4092 21.7958 13.4092 22.6543V29.4598C13.4092 30.4838 14.2361 31.312 15.2592 31.312H18.6983C19.7196 31.312 20.5483 30.4838 20.5483 29.4598V22.6543C20.5483 21.7957 21.2412 21.1021 22.0983 21.1021H28.9C29.9214 21.1021 30.75 20.2722 30.75 19.2499V15.8063C30.75 14.7822 29.9213 13.9541 28.9 13.9541H22.0983C21.2413 13.9541 20.5483 13.259 20.5483 12.4019V5.67304C20.5483 4.64896 19.7196 3.82083 18.6983 3.82083H15.2592C14.2361 3.82083 13.4092 4.64906 13.4092 5.67304V12.4019Z" fill="#FCFBF7" stroke="#D9D9D9" stroke-width="0.3"/>
</svg>
