<svg width="39" height="28" viewBox="0 0 39 28" fill="none" xmlns="http://www.w3.org/2000/svg">
<path d="M18.8082 0.782934C18.0893 1.13875 17.2106 2.11181 16.4409 3.39712C16.2376 3.73841 16.056 4.02888 16.0488 4.0434C16.0342 4.05792 15.8672 3.92721 15.6784 3.75294C14.0954 2.27157 11.2488 1.36386 9.91995 1.91575C9.54235 2.0755 9.27367 2.36597 9.0413 2.85976C8.7 3.6077 8.39501 5.05276 8.39501 5.94594V6.30902L7.03709 6.25819C5.50489 6.2001 4.90218 6.27272 4.28494 6.56318C3.79841 6.79555 3.2901 7.3547 3.11582 7.84849C2.70917 9.03213 3.42807 13.1713 4.52457 15.9597C5.07645 17.3612 5.70095 18.5085 6.48521 19.576C6.70306 19.8737 6.87007 20.1206 6.85555 20.1279C6.84103 20.1424 6.38355 20.382 5.83892 20.658C2.97785 22.1393 1.16244 23.8967 1.00995 25.3345C0.92281 26.1768 1.40934 26.7432 2.4187 26.9683C3.15939 27.1281 5.38144 27.0772 8.10455 26.8231C19.6796 25.7484 23.6662 25.7702 32.2494 26.9683C34.3843 27.266 36.1634 27.3387 36.8097 27.1499C38.1822 26.7505 38.4218 25.0149 37.3108 23.3956C36.4684 22.1611 34.624 20.854 32.903 20.2804C32.5835 20.1714 32.3148 20.077 32.3003 20.0625C32.2857 20.0553 32.4455 19.8156 32.6488 19.5469C33.8034 18.0075 34.791 15.8 35.4082 13.3818C36.0763 10.7749 36.2869 8.48751 35.9311 7.71778C35.5752 6.94078 34.8999 6.51235 33.8107 6.38164C33.4766 6.33807 32.6343 6.30176 31.9444 6.30176H30.6882V5.71357C30.6882 4.67516 30.2815 3.09213 29.8458 2.43132C29.4464 1.82134 28.4661 1.61076 27.2171 1.86492C25.8592 2.14812 24.6102 2.75083 23.5791 3.62223C23.2813 3.86912 23.0199 4.03614 23.0054 3.99257C22.9546 3.83281 22.1703 2.56203 21.8798 2.16264C21.4369 1.56719 20.8051 0.971737 20.3694 0.76115C19.8321 0.49247 19.3746 0.499731 18.8082 0.782934ZM19.9337 1.83587C20.1879 1.96658 20.8051 2.63465 21.1682 3.17201C22.9691 5.84428 24.9515 11.4212 24.9515 13.7957C24.9515 16.4245 22.5479 22.0522 20.5655 24.0564C19.774 24.8625 19.3383 25.0295 18.7428 24.7535C17.6245 24.2452 16.2376 21.5729 15.2645 18.0656C14.5456 15.4659 14.2551 13.4908 14.4076 12.2635C14.8579 8.66905 17.4502 2.99773 19.1349 1.93027C19.5053 1.6979 19.6433 1.68337 19.9337 1.83587ZM12.28 3.15748C13.4564 3.52782 14.7852 4.34113 15.25 4.98741C15.4243 5.22704 15.4315 5.24157 15.3153 5.49572C14.9523 6.33807 14.4294 7.62338 14.3205 7.95015C14.2479 8.16074 14.1825 8.33501 14.1753 8.33501C14.1607 8.33501 13.7977 8.168 13.362 7.96467C12.4252 7.52171 11.227 7.04971 10.3193 6.76651C9.96352 6.65032 9.63675 6.52687 9.6077 6.4833C9.5133 6.36712 9.61496 5.0092 9.77472 4.35565C9.99983 3.42616 10.1814 3.04856 10.4573 2.96142C10.7913 2.85976 11.6119 2.9469 12.28 3.15748ZM28.8437 3.0413C29.1269 3.27367 29.5263 4.91479 29.5263 5.87333V6.49783L28.8946 6.73746C27.8271 7.13685 26.0335 8.10991 25.2492 8.71262L25.0749 8.84333L24.661 7.73956C24.4287 7.12959 24.1091 6.33081 23.9494 5.96047L23.6589 5.2924L23.8623 5.0092C24.6465 3.91995 27.0065 2.82345 28.3209 2.92511C28.5533 2.9469 28.7929 2.99773 28.8437 3.0413ZM7.83587 7.46362C8.91785 7.55076 9.81103 7.76861 11.0745 8.25514C11.7499 8.51656 13.7033 9.36616 13.8122 9.4533C13.8194 9.46057 13.7323 9.82365 13.6161 10.2739C13.3765 11.2397 13.1877 12.4378 13.1877 13.0405C13.1877 13.2874 13.2385 13.8538 13.2966 14.3113C13.7468 17.7315 15.0902 21.8852 16.4118 23.9475C16.5789 24.2089 16.7386 24.4558 16.7677 24.5066C16.8984 24.7172 14.7271 24.1 13.5362 23.5844C11.7789 22.8147 9.23736 20.992 8.01015 19.605C6.02773 17.3685 4.6335 13.7013 4.18328 9.53318C4.03078 8.14621 4.27768 7.65242 5.22169 7.46362C5.66465 7.38374 6.78293 7.37648 7.83587 7.46362ZM33.6945 7.53624C34.2972 7.62338 34.6312 7.77587 34.8055 8.03003C35.0016 8.32775 34.9653 9.66389 34.7256 11.0581C34.2173 13.9846 33.266 16.5552 31.988 18.465C30.5066 20.687 27.326 22.9599 24.4069 23.8967C23.688 24.129 21.8363 24.5647 21.7927 24.5139C21.7782 24.4994 21.967 24.238 22.1993 23.9257C23.6371 22.0304 25.1693 18.6392 25.8592 15.8145C25.9972 15.2844 26.0625 14.7688 26.0916 14.108C26.1351 13.0551 26.048 12.4233 25.6631 10.8911L25.438 9.99792L25.605 9.87448C26.0988 9.5114 27.4132 8.71262 28.1466 8.34228C29.0107 7.90658 29.49 7.72504 30.1799 7.57254C30.6736 7.46362 33.0191 7.44184 33.6945 7.53624ZM8.62738 21.7908C9.69484 22.6622 10.4936 23.2359 11.4957 23.8313C12.2509 24.2888 13.834 25.0367 14.0445 25.0367C14.0881 25.0367 14.1317 25.0658 14.1317 25.0948C14.1317 25.1239 13.5798 25.1892 12.9117 25.2401C12.2437 25.2836 10.3992 25.4434 8.83071 25.5886C6.53604 25.8065 5.62108 25.8573 4.25589 25.8646C2.70917 25.8718 2.52763 25.8573 2.33883 25.7411C2.15728 25.6177 2.1355 25.5668 2.17181 25.349C2.33883 24.3178 4.82956 22.2991 7.19685 21.2752C7.40017 21.1881 7.61802 21.1227 7.68337 21.1155C7.75599 21.1155 8.17716 21.4204 8.62738 21.7908ZM32.5907 21.4132C33.7961 21.8053 34.9072 22.4952 35.7786 23.3738C36.4466 24.0419 36.7807 24.6591 36.8388 25.3054C36.8751 25.6903 36.8605 25.7556 36.7153 25.8936C36.3522 26.2276 35.2339 26.1986 32.0679 25.7702C29.2939 25.3925 27.6673 25.2037 26.2078 25.0948C25.5542 25.044 25.0241 24.9859 25.0241 24.9641C25.0241 24.9351 25.3073 24.8116 25.6631 24.6737C27.268 24.0709 29.1269 22.9381 30.7027 21.6092C31.2909 21.1082 31.3054 21.1009 31.6322 21.1518C31.8137 21.1808 32.2422 21.297 32.5907 21.4132Z" fill="#FCFBF7" stroke="#FCFBF7"/>
</svg>
