<svg width="34" height="33" viewBox="0 0 34 33" fill="none" xmlns="http://www.w3.org/2000/svg">
<path d="M10.9018 0.639467C8.86415 0.84573 6.72027 1.60203 5.11392 2.67709C2.59501 4.37719 1.15743 6.72734 1.01367 9.40875C0.982417 9.98379 1.00117 10.1775 1.10742 10.6151C1.41369 11.8214 2.30125 12.759 3.49507 13.134C3.80134 13.2277 4.14511 13.2715 4.88265 13.2965L5.85771 13.334L5.82646 13.7778C5.74521 14.8216 6.30774 15.8091 7.2578 16.2842C7.50156 16.4029 7.75158 16.5029 7.82033 16.5029C7.88284 16.5029 7.95159 16.5404 7.97034 16.5904C7.98909 16.6342 7.70158 19.2844 7.3328 22.4783C6.70151 27.9599 6.67026 28.3161 6.73277 28.8224C6.93278 30.46 8.05785 31.8226 9.65169 32.3664L10.1517 32.5352H12.3394H14.527L15.0333 32.3601C16.0771 32.0101 17.0271 31.1851 17.4959 30.2288C17.8272 29.56 17.9522 29.0349 17.9522 28.3474C17.9522 28.0349 17.6647 25.316 17.3147 22.2908C16.9646 19.2718 16.6834 16.7404 16.6959 16.6717C16.7084 16.5842 16.7959 16.5217 16.9646 16.4717C18.1585 16.1154 18.9773 14.9028 18.8398 13.6965L18.796 13.334L19.7898 13.3027C20.6336 13.2715 20.8524 13.2402 21.2336 13.109C21.8587 12.8902 22.215 12.6714 22.6525 12.2277C23.3588 11.5089 23.6525 10.7463 23.6463 9.62751C23.6338 7.62739 22.8212 5.73978 21.2774 4.13968C18.796 1.55202 14.8958 0.233192 10.9018 0.639467ZM14.3707 2.62084C17.0709 3.09587 19.3085 4.40219 20.6274 6.27731C21.2649 7.17111 21.6274 8.12742 21.7524 9.18999C21.8524 10.0463 21.7524 10.4276 21.3274 10.8838C20.7961 11.4526 21.5649 11.4089 12.3081 11.4089H4.15136L3.79509 11.2339C2.97629 10.8338 2.73252 10.1213 2.96379 8.80871C3.19505 7.47113 3.80134 6.35856 4.89515 5.27725C6.414 3.77091 8.60788 2.7771 11.0268 2.50208C11.8206 2.41458 13.5457 2.47708 14.3707 2.62084ZM16.9271 13.6528C17.0209 14.0778 16.9709 14.2653 16.7084 14.5028C16.4709 14.7091 16.1583 14.7528 15.8271 14.6216C15.252 14.4028 14.4395 14.4403 13.8394 14.7153C13.6707 14.7966 13.3207 15.0341 13.0707 15.2466C12.6706 15.5841 12.5831 15.6279 12.3519 15.6279C12.0643 15.6279 11.9331 15.5591 11.4768 15.1528C10.883 14.6278 10.083 14.3841 9.32667 14.5028C9.11416 14.5403 8.86415 14.5966 8.77664 14.6278C8.38287 14.7778 7.94534 14.6403 7.77658 14.3153C7.66407 14.0965 7.65782 13.959 7.75158 13.5903L7.82033 13.3152H12.3394H16.8521L16.9271 13.6528ZM10.4392 16.7279C10.658 16.9217 11.0205 17.1717 11.2455 17.278C11.6268 17.4592 11.6956 17.4717 12.3394 17.4717C12.9894 17.4717 13.0519 17.4592 13.4332 17.2717C13.6582 17.1592 14.0207 16.9155 14.2457 16.7217C14.5957 16.4217 14.7458 16.3217 14.7458 16.3967C14.7458 16.4217 16.0333 27.6599 16.0833 28.0911C16.1771 28.9037 15.7208 29.8537 15.0145 30.3038C14.4395 30.6663 14.202 30.6975 12.2018 30.6788C10.4892 30.66 10.383 30.6538 10.0455 30.5163C9.58294 30.3288 9.07041 29.86 8.84539 29.4225C8.48287 28.7037 8.47662 28.8912 9.20792 22.5345C9.92046 16.3217 9.91421 16.3779 9.98921 16.3779C10.0142 16.3779 10.2142 16.5342 10.4392 16.7279Z" fill="#FCFBF7" stroke="#FCFBF7" stroke-width="0.5"/>
<path d="M24.7642 14.2527C22.0266 14.5652 19.7389 16.0903 18.8201 18.2029C18.5201 18.8967 18.4201 19.4718 18.4451 20.2531C18.4638 20.8219 18.4951 20.9594 18.6513 21.2844C18.8889 21.7782 19.3326 22.2157 19.8577 22.4595C20.2764 22.6595 20.2764 22.6595 21.4515 22.6782L22.6203 22.697V22.8657C22.6203 22.9532 22.4516 24.5221 22.2391 26.3472C21.889 29.4099 21.864 29.6911 21.9328 30.0849C22.1391 31.26 23.0954 32.2538 24.2329 32.4976C24.6455 32.5851 26.6706 32.5913 27.1269 32.5038C27.5581 32.4226 28.1394 32.1413 28.4894 31.835C29.077 31.335 29.4958 30.4224 29.4958 29.6599C29.4958 29.4474 29.327 27.8098 29.1207 26.0159C28.9145 24.2283 28.7457 22.7532 28.7457 22.7345C28.7457 22.7157 29.2895 22.6907 29.952 22.6782C31.1021 22.6595 31.1646 22.6532 31.5084 22.4907C31.9272 22.2969 32.4272 21.8469 32.6522 21.4719C33.071 20.7469 33.1022 19.7718 32.7335 18.628C32.0522 16.5028 29.8833 14.8027 27.2769 14.3465C26.6018 14.2277 25.358 14.184 24.7642 14.2527ZM27.0956 16.2278C27.7582 16.3591 28.4957 16.6404 29.0207 16.9529C29.6458 17.3154 30.4833 18.1717 30.7333 18.6905C31.2021 19.6655 31.2334 20.5218 30.8146 20.7531C30.7333 20.7969 29.002 20.8156 25.6893 20.8156H20.6952L20.5015 20.6531C20.3202 20.5031 20.3077 20.4656 20.3077 20.0718C20.3077 18.1717 22.2953 16.4528 24.858 16.1278C25.4205 16.0528 26.5018 16.1028 27.0956 16.2278ZM26.8393 22.7657C26.8893 22.897 27.6206 29.3661 27.6206 29.6474C27.6206 30.0099 27.3769 30.3974 27.0394 30.56C26.7956 30.6787 26.6581 30.6912 25.708 30.6912C24.5455 30.6912 24.2767 30.6225 24.0079 30.2912C23.7142 29.9099 23.7142 29.9349 24.1142 26.3972C24.3267 24.5846 24.508 23.0032 24.5267 22.8907L24.5642 22.6907H25.6893C26.5331 22.6907 26.8206 22.7095 26.8393 22.7657Z" fill="#FCFBF7" stroke="#FCFBF7" stroke-width="0.5"/>
</svg>
