<svg width="43" height="33" viewBox="0 0 43 33" fill="none" xmlns="http://www.w3.org/2000/svg">
<path fill-rule="evenodd" clip-rule="evenodd" d="M20.6936 2.5416C21.7296 2.55761 22.8412 2.57473 23.6861 1.95269C25.292 0.74879 27.0704 1.0258 28.8923 1.5162C31.0386 2.10162 33.023 2.3847 35.2504 2.37666C35.5577 2.37077 35.8354 2.36887 36.1175 2.4104C36.2507 2.43003 36.3847 2.45929 36.5232 2.50228C38.4393 3.34011 39.2396 4.57499 40.1218 6.36068L40.2623 6.64781C40.8561 7.83987 41.0183 8.85264 40.907 10.1652C40.8402 10.4741 40.7795 10.7671 40.7617 11.0826L40.7614 11.3816L40.7601 11.7232L40.7609 12.0869L40.7604 12.8519C40.7612 13.2533 40.7619 13.6547 40.7612 14.0561C40.7607 14.3189 40.7604 14.5816 40.7607 14.8444L40.7609 15.2196L40.7601 15.5863L40.7614 15.9231C40.7614 16.0149 40.7624 16.1068 40.7654 16.1986C40.768 16.2813 40.772 16.3639 40.778 16.4463L40.907 16.572L40.9085 16.6006C40.918 16.8016 40.9231 16.9066 40.9231 17.0116C40.9231 17.1166 40.918 17.2217 40.9085 17.4227L40.907 17.4513C40.778 17.5769 40.778 17.5769 40.7599 17.9264L40.7574 18.4C40.7551 18.6743 40.7533 18.9485 40.7526 19.2228L40.7508 19.8137C40.7493 20.2236 40.7478 20.6335 40.7473 21.0434C40.7471 21.4196 40.746 21.7958 40.7445 22.172L40.7418 22.6449C40.739 23.0606 40.737 23.4761 40.7365 23.8918L40.7357 24.4881L40.7335 24.7823L40.7319 25.0243L40.7312 25.3448L40.7322 25.608V25.6229C40.7314 25.8657 40.7312 25.9816 40.738 26.097C40.744 26.1997 40.7559 26.3021 40.778 26.4935V26.4961C41.0304 26.9995 41.297 27.2498 41.7692 27.5639C42.0865 27.7591 42.0865 27.7591 42.3252 28.0036C42.2955 28.4653 42.2804 28.7 42.2162 28.9211C42.2046 28.961 42.1913 29.0004 42.1762 29.0407C42.1545 29.0985 42.1286 29.158 42.0976 29.2227C42.0268 29.3703 41.9294 29.5457 41.7919 29.7929L41.7889 29.7986C41.7229 29.9276 41.6574 30.0566 41.5927 30.1861C41.537 30.2977 41.4821 30.4097 41.4282 30.5223C41.3446 30.6976 41.2593 30.8721 41.1724 31.046L41.044 31.3011C40.9682 31.463 40.8893 31.6234 40.8067 31.782C40.6778 31.9857 40.6131 32.0877 40.5202 32.1491C40.5121 32.1545 40.5038 32.1595 40.4952 32.1643C40.4542 32.1872 40.4066 32.2039 40.3461 32.2188C40.2734 32.2367 40.1817 32.2522 40.0598 32.2727C39.3499 32.0682 38.9873 31.9637 38.674 31.7793C38.3469 31.5867 38.0739 31.3069 37.5159 30.7349C35.4491 28.6298 35.2829 26.12 35.324 23.356C35.3283 23.059 35.3318 22.762 35.3345 22.465L35.3421 21.5151C35.3466 21.0327 35.3522 20.5503 35.3592 20.0678L35.3628 19.8381C35.0313 19.7663 34.7863 19.7131 34.5859 19.6606C34.4058 19.6135 34.2615 19.5669 34.123 19.5078C33.9938 19.4527 33.8694 19.3867 33.7256 19.2992C33.6544 19.256 33.5786 19.2074 33.495 19.1524C33.4426 19.1178 33.3872 19.0807 33.3277 19.0407C33.228 18.9734 33.1175 18.8979 32.9928 18.8127L32.7196 18.6212C31.9709 18.1026 31.2895 17.5729 30.6649 16.9137L30.4632 16.6976L30.4602 16.7211C30.4088 17.1688 30.3728 17.4839 30.3461 17.7997C30.2834 18.5379 30.2721 19.2802 30.2348 21.7276L30.2325 21.9079L30.2318 21.9508C30.2278 22.2568 30.2237 22.5629 30.2179 22.8689C30.2139 23.078 30.2091 23.287 30.2028 23.4961L30.192 23.8046L30.1837 24.0269C30.0918 26.4972 30.0127 28.615 31.7488 30.6624L31.7503 30.664C31.809 30.7227 31.8525 30.7663 31.8878 30.803C31.9236 30.8404 31.9505 30.8705 31.9754 30.9021C32.0218 30.9603 32.0621 31.0232 32.1394 31.1441C32.2132 31.552 32.1804 31.7117 31.9455 32.0587C31.5843 32.3011 31.327 32.3359 30.8928 32.3428L30.6007 32.3397C30.2746 32.3426 29.949 32.3445 29.6229 32.3432C29.3897 32.342 29.1567 32.3416 28.9235 32.3419C28.4375 32.3432 27.9517 32.3438 27.4657 32.342C27.12 32.3403 26.7745 32.3391 26.4287 32.3388C26.1421 32.3386 25.8555 32.3389 25.569 32.3402L24.8868 32.3426L24.5672 32.3431L24.0892 32.3429L23.3834 32.3414C23.0447 32.3432 22.7059 32.3446 22.3672 32.3424L22.0572 32.3397C21.7044 32.3435 21.4035 32.3253 21.0509 32.2747C20.7785 32.0165 20.6866 31.8505 20.5851 31.4971L20.5407 31.1897L20.4861 30.8283L20.4304 30.4296L20.3 29.5483C20.2043 28.8854 20.1058 28.223 20.0038 27.5609L19.6745 25.4143L19.5977 24.9102L19.5511 24.6005C19.5249 24.4316 19.4999 24.2627 19.4758 24.0938C19.4408 23.8481 19.4075 23.6022 19.3748 23.3555L19.1169 20.9687H13.8306V20.9711C13.8354 21.2292 13.8376 21.3504 13.8306 21.471C13.8281 21.5123 13.8245 21.5535 13.8195 21.6002C13.8119 21.6727 13.8011 21.7581 13.786 21.8771L13.7852 21.8824L13.6883 22.6362L13.6533 22.9128C13.5793 23.4952 13.5115 24.0782 13.4443 24.6613C13.3879 25.153 13.3307 25.6432 13.2529 26.1322C12.9895 27.6847 13.3108 28.6065 14.1647 29.9548C14.267 30.114 14.368 30.2727 14.4659 30.4331C14.5581 30.5841 14.6478 30.7367 14.7331 30.8929C14.8817 31.3105 14.9298 31.6293 14.7334 32.044C14.5135 32.1874 14.402 32.26 14.2793 32.2976C14.1534 32.3362 14.0154 32.3379 13.7359 32.3414L13.4314 32.3378C13.093 32.3399 12.7548 32.3412 12.4166 32.3394C12.1743 32.3378 11.9321 32.337 11.6898 32.337C11.1854 32.3378 10.681 32.3378 10.1768 32.3355C9.51981 32.3318 8.86304 32.3293 8.20603 32.3308C7.69407 32.332 7.1821 32.3323 6.67014 32.3312L5.93732 32.3292L5.53012 32.3298L5.24228 32.3295L4.88167 32.3281L4.55958 32.3255C4.09672 32.3281 3.66862 32.3647 3.26066 32.1246C3.18939 32.0163 3.15212 31.9594 3.1287 31.8974C3.10276 31.8288 3.0942 31.7539 3.07632 31.5962L3.07078 31.234L3.06197 30.8216L3.05945 30.3732C3.05618 30.0561 3.05341 29.739 3.05089 29.422C3.05038 29.0859 3.04963 28.75 3.0461 28.414C3.04459 28.2532 3.04258 28.0923 3.03956 27.9314C3.00279 25.9258 3.13475 24.169 3.80612 22.2643C4.61423 19.9817 4.91516 17.2415 4.35384 14.8761C4.18587 14.1856 4.12996 13.5397 4.12065 12.8295L4.12014 12.4421C4.11435 11.3873 4.22163 10.4616 4.57998 9.464C4.61574 9.37807 4.652 9.29244 4.68826 9.20693C4.78295 8.98262 4.87764 8.75897 4.9625 8.53214H5.06298L5.44979 7.77841L5.19192 7.65279L4.28937 8.53214H4.51148C3.39765 9.8816 2.80662 11.2977 2.80611 13.1713C2.80762 13.343 2.80913 13.5146 2.80964 13.6863C2.81014 13.7954 2.81014 13.9046 2.80964 14.0138L2.80611 14.7929C2.80536 15.1364 2.80536 15.4798 2.80586 15.8233V15.9165C2.80737 16.6004 2.80888 17.2842 2.80536 17.9681C2.80435 18.125 2.80359 18.2819 2.80359 18.4388V18.6229L2.80636 19.1232L2.80586 19.3731L2.80435 19.6259L2.80561 20.0821C2.7293 20.544 2.60717 20.6918 2.22641 20.9687C2.02772 21.0112 1.9295 21.0321 1.8318 21.0315C1.79604 21.0314 1.76028 21.0283 1.71973 21.0223C1.65174 21.0125 1.5704 20.9946 1.4528 20.9687C1.14909 20.6793 1.07078 20.5026 1.01613 20.0894L1.01386 19.6434C1.01109 19.384 1.00908 19.1248 1.00933 18.8654C1.00983 18.6789 1.00983 18.4925 1.00933 18.3061C1.00832 18.1009 1.00757 17.8957 1.00732 17.6905C1.00706 17.5044 1.00706 17.3183 1.00757 17.1321L1.00857 16.5013L1.00832 16.0643L1.00706 15.8092L1.0058 15.6162C1.00278 15.2215 1.00127 14.8268 1.00152 14.4321L1.00203 13.8608C0.995983 13.17 0.99976 12.4871 1.06599 11.7983C1.48629 9.59288 2.60213 7.61844 4.45709 6.25721L4.80511 6.0197C5.54196 5.50065 6.26042 5.19807 7.12594 4.95191C7.74065 4.77912 8.27956 4.60333 8.82628 4.26884C11.4896 2.60043 14.3413 2.5551 17.4131 2.55013C17.7704 2.5497 18.1277 2.54878 18.4851 2.54737C18.8855 2.54577 19.2859 2.54344 19.6863 2.54038L20.2265 2.53663C20.3796 2.53676 20.5357 2.53915 20.6936 2.5416ZM15.0545 4.21192L15.5672 4.21407C15.753 4.21487 15.9389 4.21622 16.1247 4.21787L16.584 4.22266L16.8961 4.22646C17.3509 4.23167 17.8054 4.23394 18.2602 4.23646C19.1476 4.24179 20.0348 4.25032 20.922 4.26099C20.7908 4.58609 20.6576 4.90186 20.4979 5.21494C20.0723 6.11711 19.9573 6.88654 19.955 7.87263L19.9527 8.20557C19.9807 9.62882 20.5742 11.1514 21.5737 12.2061C22.1638 12.7243 22.8372 13.1353 23.5007 13.557L23.8069 13.7528C24.3615 14.107 24.917 14.4593 25.4745 14.8088C25.8256 15.029 26.1746 15.2513 26.5191 15.4811L26.8772 15.7162L27.1648 15.91C27.3199 15.9843 27.4622 16.039 27.6072 16.0838C27.7619 16.1315 27.9195 16.168 28.0988 16.205L28.4161 16.2713L28.6581 16.3207L28.6513 16.7819C28.6302 18.2214 28.6148 19.661 28.6047 21.1007C28.5994 21.8407 28.5921 22.5807 28.5803 23.3206C28.569 24.0358 28.5629 24.7508 28.5604 25.4661C28.5584 25.7379 28.5546 26.0097 28.5491 26.2814C28.5156 27.975 28.6138 29.0314 29.6896 30.3904V30.6416H26.2084C26.0525 30.3381 26.0197 30.0442 25.9835 29.7195L25.9631 29.5439L25.9308 29.2863C25.8966 29.0132 25.8631 28.74 25.8296 28.4668C25.6914 27.3453 25.5468 26.2272 25.3655 25.1114C25.2741 24.5379 25.198 23.9624 25.1205 23.3869C24.9938 22.459 24.8457 21.5387 24.6682 20.6188C24.5274 19.8666 24.4428 19.1115 24.3803 18.3494C24.3214 17.7305 24.1655 17.2581 23.8875 16.6976C23.7208 16.6946 23.5538 16.6933 23.3869 16.6937C23.2529 16.694 23.1189 16.6953 22.985 16.6976L22.856 16.8232V19.4613H13.9595L13.8306 17.0744C13.6435 16.8488 13.5586 16.7463 13.4486 16.6993C13.3571 16.6602 13.2484 16.6595 13.0489 16.6583C12.9648 16.6587 12.8986 16.659 12.8442 16.6621C12.7694 16.6662 12.717 16.6756 12.6707 16.6974C12.6409 16.7114 12.6137 16.7305 12.5848 16.7566C12.5377 16.7992 12.4863 16.8605 12.4123 16.9488C12.3896 17.1349 12.3793 17.2206 12.3748 17.3242C12.371 17.4125 12.3715 17.5138 12.3725 17.7016L12.3634 18.177L12.3599 18.4311C12.3294 20.4234 12.1471 22.3829 11.8965 24.3605L11.7837 25.2674L11.7482 25.5666C11.7301 25.7202 11.7127 25.8738 11.6956 26.0275C11.6573 26.3424 11.61 26.6563 11.5536 26.9687C11.3463 28.3996 11.8988 29.2827 12.6316 30.4546L12.6702 30.516V30.6416H8.8021C8.57898 28.5572 8.37299 26.4811 8.24078 24.3896L8.21283 23.9557L8.18966 23.5758C8.17707 23.4403 8.15944 23.3078 8.13829 23.1763L8.12645 23.1042C8.12041 23.0684 8.11386 23.0325 8.10731 22.9967L8.08163 22.8619C8.06475 22.7757 8.04687 22.6892 8.02849 22.6018L8.01363 22.2919C8.00759 22.1578 8.00205 22.0236 7.99777 21.8895C7.93255 20.0359 7.39666 18.4046 6.70716 16.6901C6.58175 16.3753 6.46112 16.0588 6.34377 15.7412L6.27905 15.5651C6.23574 15.4465 6.19293 15.3278 6.15037 15.2089C6.08817 15.0354 6.02672 14.8616 5.96553 14.6876L5.86832 14.4256C5.27225 12.5655 5.81896 10.4435 6.63438 8.73628C7.07734 7.92581 7.61348 7.28617 8.28636 6.64781L8.51703 6.4108C9.04688 5.90475 9.64648 5.57058 10.301 5.24242L10.541 5.12017C11.9958 4.42538 13.4465 4.18585 15.0545 4.21192ZM34.1666 3.84634C32.3771 3.86947 30.7689 3.66729 29.05 3.17585C27.536 2.73813 25.8427 2.30882 24.4551 3.26927L24.1454 3.50726C23.4153 4.02674 22.7548 4.5483 22.2114 5.25812C21.4196 6.45901 21.2481 7.73382 21.5345 9.12885C22.0645 10.4718 22.7956 11.3911 24.0384 12.1908L24.3791 12.4029L25.0998 12.8578C25.4539 13.0774 25.8077 13.2969 26.1592 13.5203C26.3708 13.655 26.5831 13.7888 26.7961 13.9215L27.0948 14.1066C27.607 14.4335 28.0104 14.6645 28.6188 14.771C28.8281 14.7301 28.9346 14.7092 29.0296 14.6649C29.0429 14.6586 29.056 14.6519 29.0691 14.6447C29.0976 14.6289 29.1263 14.6103 29.1577 14.5876C29.2174 14.5445 29.2874 14.4866 29.3856 14.4054L29.3887 14.4026C29.4698 14.3017 29.5332 14.2226 29.5831 14.1492C29.6153 14.1015 29.642 14.0563 29.6639 14.009C29.6949 13.9425 29.7165 13.8719 29.7322 13.785C29.7672 13.5906 29.7714 13.3141 29.779 12.8175L29.7762 12.3808C29.7815 11.9157 29.7858 11.4508 29.7863 10.9857C29.7863 10.5024 29.7891 10.0192 29.7929 9.53589L29.8004 8.61998L29.8009 8.17944L29.8024 7.77534C29.8024 7.75326 29.8019 7.73136 29.8014 7.70971C29.8004 7.6742 29.7986 7.63929 29.7969 7.60494C29.7858 7.38682 29.776 7.19189 29.9475 7.02468C30.3514 6.93721 30.6929 6.81232 31.0686 7.01971C31.1771 7.25562 31.2318 7.37462 31.2607 7.49932C31.2905 7.62629 31.2937 7.75915 31.3003 8.02726L31.3028 8.32948C31.3101 8.64973 31.3169 8.96992 31.3212 9.29023C31.3242 9.51307 31.3277 9.73592 31.332 9.95882C31.3426 10.4736 31.3527 10.9884 31.3602 11.5033L31.3658 11.9239L31.6576 11.9195L32.0422 11.9161C33.2326 11.9023 33.8734 12.3017 34.776 13.0329C35.5365 13.6638 36.2922 14.2646 37.1424 14.7775L37.4015 14.931C37.918 15.2402 38.3703 15.4672 38.9729 15.567V15.5622L39.0293 13.2037C39.0369 12.8671 39.0447 12.5305 39.053 12.1938L39.0611 11.8744C39.0651 11.6845 39.0706 11.4955 39.0779 11.3064C39.0845 11.1355 39.0926 10.9647 39.1019 10.7933C39.2376 10.3968 39.2477 10.0578 39.2484 9.64262L39.2469 9.34869C39.2517 8.40934 39.0644 7.8062 38.6305 6.9761L38.4411 6.61641C38.1054 5.95769 37.7768 5.32074 37.2656 4.7733C36.3454 3.95865 35.3736 3.83757 34.1666 3.84634ZM21.5413 20.9632L21.9454 20.9609L22.2776 20.9577L22.5936 20.9565L22.886 20.9545C23.0114 20.9623 23.0678 20.9658 23.1147 20.9883C23.1529 21.0067 23.1849 21.0378 23.2428 21.0943C23.268 21.2382 23.2912 21.3823 23.3129 21.5267C23.3343 21.6677 23.3544 21.8089 23.3738 21.9501L23.4775 22.6989L23.5329 23.1043C23.5901 23.5172 23.6478 23.9301 23.7057 24.3429L23.7505 24.6625C23.7805 24.874 23.811 25.0854 23.8419 25.2967C23.916 25.7997 23.9933 26.3021 24.0734 26.8043L24.1184 27.0888L24.2325 27.798C24.2665 28.0083 24.3008 28.2187 24.3355 28.429L24.4138 28.9163L24.4831 29.3394C24.5332 29.7714 24.5327 30.2078 24.5322 30.6428V30.7672H22.2114C22.0255 30.134 21.8948 29.5887 21.8054 28.9452L21.7671 28.6755C21.7266 28.3862 21.6868 28.0968 21.6473 27.8073L21.5629 27.2037L21.3922 25.9709C21.3257 25.4873 21.2579 25.0038 21.19 24.5204C21.1298 24.0929 21.0701 23.6654 21.0107 23.2378L20.9437 22.7628L20.8832 22.3236L20.8301 21.9424C20.7948 21.6147 20.786 21.2979 20.7931 20.9687L21.5413 20.9632ZM38.9737 19.5926L38.9729 19.3356C38.9601 19.3356 38.9601 19.3356 38.2225 19.5834L37.3683 19.8582L37.0389 19.9637L37.0308 20.4356L37.0258 20.7537L37.0185 21.284C37.0157 21.5111 37.013 21.7383 37.0107 21.9654L37.0074 22.2954C37.0049 22.6148 37.0019 22.9341 36.9986 23.2535C36.9963 23.3804 36.9931 23.508 36.9893 23.6362C36.9855 23.7728 36.981 23.91 36.9762 24.0478C36.9425 25.0499 36.908 26.0752 37.0976 27.0477C37.4909 28.4431 38.3738 29.616 39.6176 30.3904C39.9266 29.8904 40.2109 29.4043 40.4073 28.8515C40.4038 28.7759 40.401 28.7167 40.396 28.6678C40.39 28.6093 40.3806 28.5653 40.363 28.5248C40.3499 28.4947 40.332 28.4665 40.3074 28.4358C40.2668 28.385 40.2076 28.3273 40.1203 28.2424L40.1172 28.2391L39.9362 28.0838C39.1981 27.2819 39.0278 26.1619 39.0092 25.1271L39.0107 24.6844C39.0047 24.2066 38.9994 23.729 38.9981 23.2511C38.9976 22.9202 38.9956 22.5894 38.9926 22.2584C38.9833 21.3698 38.9762 20.4813 38.9737 19.5926ZM6.09446 19.8381C6.36769 20.2373 6.3964 20.3951 6.4367 20.8597L6.47346 21.2593L6.50947 21.6935L6.55002 22.1452L6.61323 22.865L6.67467 23.5832L6.83408 25.3906L6.91945 26.3713C6.96906 26.9374 7.02043 27.5033 7.07457 28.069L7.11134 28.4519C7.13375 28.685 7.15667 28.9181 7.17984 29.1512L7.2098 29.4643L7.2365 29.7325C7.25589 30.0259 7.25538 30.3203 7.25488 30.6145V30.7672H4.67618C4.56159 26.687 4.52609 25.4167 4.82702 24.2272C4.96326 23.6894 5.16825 23.1682 5.4659 22.4112C5.65855 21.8791 5.7754 21.332 5.893 20.7803L5.95697 20.488L6.00355 20.2708C6.03428 20.1267 6.0645 19.9824 6.09446 19.8381ZM33.6846 14.0823C33.3678 13.7746 33.0651 13.4805 32.6274 13.3391C32.1545 13.3082 31.8835 13.4301 31.4947 13.6826L31.4932 13.6845C31.3318 13.9205 31.2721 14.0081 31.2391 14.1045C31.22 14.1609 31.2096 14.2203 31.1935 14.3141V14.3162C31.1839 14.8347 31.2197 15.1554 31.5733 15.5434C32.847 16.8116 34.6017 18.4839 36.5232 18.5112C37.606 18.4594 38.226 18.0951 38.9729 17.3257C37.1401 16.5867 35.296 15.5583 33.8387 14.2308C33.7866 14.1813 33.7354 14.1316 33.6846 14.0823Z" fill="#FCFBF7"/>
<path d="M36.6521 8.4693C36.6521 8.85089 36.3346 9.16022 35.9429 9.16022C35.5513 9.16022 35.2338 8.85089 35.2338 8.4693C35.2338 8.08772 35.5513 7.77838 35.9429 7.77838C36.3346 7.77838 36.6521 8.08772 36.6521 8.4693Z" fill="#FCFBF7"/>
<path fill-rule="evenodd" clip-rule="evenodd" d="M20.6936 2.5416C21.7296 2.55761 22.8412 2.57473 23.6861 1.95269C25.292 0.74879 27.0704 1.0258 28.8923 1.5162C31.0386 2.10162 33.023 2.3847 35.2504 2.37666C35.5577 2.37077 35.8354 2.36887 36.1175 2.4104C36.2507 2.43003 36.3847 2.45929 36.5232 2.50228C38.4393 3.34011 39.2396 4.57499 40.1218 6.36068L40.2623 6.64781C40.8561 7.83987 41.0183 8.85264 40.907 10.1652C40.8402 10.4741 40.7795 10.7671 40.7617 11.0826L40.7614 11.3816L40.7601 11.7232L40.7609 12.0869L40.7604 12.8519C40.7612 13.2533 40.7619 13.6547 40.7612 14.0561C40.7607 14.3189 40.7604 14.5816 40.7607 14.8444L40.7609 15.2196L40.7601 15.5863L40.7614 15.9231C40.7614 16.0149 40.7624 16.1068 40.7654 16.1986C40.768 16.2813 40.772 16.3639 40.778 16.4463L40.907 16.572L40.9085 16.6006C40.918 16.8016 40.9231 16.9066 40.9231 17.0116C40.9231 17.1166 40.918 17.2217 40.9085 17.4227L40.907 17.4513C40.778 17.5769 40.778 17.5769 40.7599 17.9264L40.7574 18.4C40.7551 18.6743 40.7533 18.9485 40.7526 19.2228L40.7508 19.8137C40.7493 20.2236 40.7478 20.6335 40.7473 21.0434C40.7471 21.4196 40.746 21.7958 40.7445 22.172L40.7418 22.6449C40.739 23.0606 40.737 23.4761 40.7365 23.8918L40.7357 24.4881L40.7335 24.7823L40.7319 25.0243L40.7312 25.3448L40.7322 25.608V25.6229C40.7314 25.8657 40.7312 25.9816 40.738 26.097C40.744 26.1997 40.7559 26.3021 40.778 26.4935V26.4961C41.0304 26.9995 41.297 27.2498 41.7692 27.5639C42.0865 27.7591 42.0865 27.7591 42.3252 28.0036C42.2955 28.4653 42.2804 28.7 42.2162 28.9211C42.2046 28.961 42.1913 29.0004 42.1762 29.0407C42.1545 29.0985 42.1286 29.158 42.0976 29.2227C42.0268 29.3703 41.9294 29.5457 41.7919 29.7929L41.7889 29.7986C41.7229 29.9276 41.6574 30.0566 41.5927 30.1861C41.537 30.2977 41.4821 30.4097 41.4282 30.5223C41.3446 30.6976 41.2593 30.8721 41.1724 31.046L41.044 31.3011C40.9682 31.463 40.8893 31.6234 40.8067 31.782C40.6778 31.9857 40.6131 32.0877 40.5202 32.1491C40.5121 32.1545 40.5038 32.1595 40.4952 32.1643C40.4542 32.1872 40.4066 32.2039 40.3461 32.2188C40.2734 32.2367 40.1817 32.2522 40.0598 32.2727C39.3499 32.0682 38.9873 31.9637 38.674 31.7793C38.3469 31.5867 38.0739 31.3069 37.5159 30.7349C35.4491 28.6298 35.2829 26.12 35.324 23.356C35.3283 23.059 35.3318 22.762 35.3345 22.465L35.3421 21.5151C35.3466 21.0327 35.3522 20.5503 35.3592 20.0678L35.3628 19.8381C35.0313 19.7663 34.7863 19.7131 34.5859 19.6606C34.4058 19.6135 34.2615 19.5669 34.123 19.5078C33.9938 19.4527 33.8694 19.3867 33.7256 19.2992C33.6544 19.256 33.5786 19.2074 33.495 19.1524C33.4426 19.1178 33.3872 19.0807 33.3277 19.0407C33.228 18.9734 33.1175 18.8979 32.9928 18.8127L32.7196 18.6212C31.9709 18.1026 31.2895 17.5729 30.6649 16.9137L30.4632 16.6976L30.4602 16.7211C30.4088 17.1688 30.3728 17.4839 30.3461 17.7997C30.2834 18.5379 30.2721 19.2802 30.2348 21.7276L30.2325 21.9079L30.2318 21.9508C30.2278 22.2568 30.2237 22.5629 30.2179 22.8689C30.2139 23.078 30.2091 23.287 30.2028 23.4961L30.192 23.8046L30.1837 24.0269C30.0918 26.4972 30.0127 28.615 31.7488 30.6624L31.7503 30.664C31.809 30.7227 31.8525 30.7663 31.8878 30.803C31.9236 30.8404 31.9505 30.8705 31.9754 30.9021C32.0218 30.9603 32.0621 31.0232 32.1394 31.1441C32.2132 31.552 32.1804 31.7117 31.9455 32.0587C31.5843 32.3011 31.327 32.3359 30.8928 32.3428L30.6007 32.3397C30.2746 32.3426 29.949 32.3445 29.6229 32.3432C29.3897 32.342 29.1567 32.3416 28.9235 32.3419C28.4375 32.3432 27.9517 32.3438 27.4657 32.342C27.12 32.3403 26.7745 32.3391 26.4287 32.3388C26.1421 32.3386 25.8555 32.3389 25.569 32.3402L24.8868 32.3426L24.5672 32.3431L24.0892 32.3429L23.3834 32.3414C23.0447 32.3432 22.7059 32.3446 22.3672 32.3424L22.0572 32.3397C21.7044 32.3435 21.4035 32.3253 21.0509 32.2747C20.7785 32.0165 20.6866 31.8505 20.5851 31.4971L20.5407 31.1897L20.4861 30.8283L20.4304 30.4296L20.3 29.5483C20.2043 28.8854 20.1058 28.223 20.0038 27.5609L19.6745 25.4143L19.5977 24.9102L19.5511 24.6005C19.5249 24.4316 19.4999 24.2627 19.4758 24.0938C19.4408 23.8481 19.4075 23.6022 19.3748 23.3555L19.1169 20.9687H13.8306V20.9711C13.8354 21.2292 13.8376 21.3504 13.8306 21.471C13.8281 21.5123 13.8245 21.5535 13.8195 21.6002C13.8119 21.6727 13.8011 21.7581 13.786 21.8771L13.7852 21.8824L13.6883 22.6362L13.6533 22.9128C13.5793 23.4952 13.5115 24.0782 13.4443 24.6613C13.3879 25.153 13.3307 25.6432 13.2529 26.1322C12.9895 27.6847 13.3108 28.6065 14.1647 29.9548C14.267 30.114 14.368 30.2727 14.4659 30.4331C14.5581 30.5841 14.6478 30.7367 14.7331 30.8929C14.8817 31.3105 14.9298 31.6293 14.7334 32.044C14.5135 32.1874 14.402 32.26 14.2793 32.2976C14.1534 32.3362 14.0154 32.3379 13.7359 32.3414L13.4314 32.3378C13.093 32.3399 12.7548 32.3412 12.4166 32.3394C12.1743 32.3378 11.9321 32.337 11.6898 32.337C11.1854 32.3378 10.681 32.3378 10.1768 32.3355C9.51981 32.3318 8.86304 32.3293 8.20603 32.3308C7.69407 32.332 7.1821 32.3323 6.67014 32.3312L5.93732 32.3292L5.53012 32.3298L5.24228 32.3295L4.88167 32.3281L4.55958 32.3255C4.09672 32.3281 3.66862 32.3647 3.26066 32.1246C3.18939 32.0163 3.15212 31.9594 3.1287 31.8974C3.10276 31.8288 3.0942 31.7539 3.07632 31.5962L3.07078 31.234L3.06197 30.8216L3.05945 30.3732C3.05618 30.0561 3.05341 29.739 3.05089 29.422C3.05038 29.0859 3.04963 28.75 3.0461 28.414C3.04459 28.2532 3.04258 28.0923 3.03956 27.9314C3.00279 25.9258 3.13475 24.169 3.80612 22.2643C4.61423 19.9817 4.91516 17.2415 4.35384 14.8761C4.18587 14.1856 4.12996 13.5397 4.12065 12.8295L4.12014 12.4421C4.11435 11.3873 4.22163 10.4616 4.57998 9.464C4.61574 9.37807 4.652 9.29244 4.68826 9.20693C4.78295 8.98262 4.87764 8.75897 4.9625 8.53214H5.06298L5.44979 7.77841L5.19192 7.65279L4.28937 8.53214H4.51148C3.39765 9.8816 2.80662 11.2977 2.80611 13.1713C2.80762 13.343 2.80913 13.5146 2.80964 13.6863C2.81014 13.7954 2.81014 13.9046 2.80964 14.0138L2.80611 14.7929C2.80536 15.1364 2.80536 15.4798 2.80586 15.8233V15.9165C2.80737 16.6004 2.80888 17.2842 2.80536 17.9681C2.80435 18.125 2.80359 18.2819 2.80359 18.4388V18.6229L2.80636 19.1232L2.80586 19.3731L2.80435 19.6259L2.80561 20.0821C2.7293 20.544 2.60717 20.6918 2.22641 20.9687C2.02772 21.0112 1.9295 21.0321 1.8318 21.0315C1.79604 21.0314 1.76028 21.0283 1.71973 21.0223C1.65174 21.0125 1.5704 20.9946 1.4528 20.9687C1.14909 20.6793 1.07078 20.5026 1.01613 20.0894L1.01386 19.6434C1.01109 19.384 1.00908 19.1248 1.00933 18.8654C1.00983 18.6789 1.00983 18.4925 1.00933 18.3061C1.00832 18.1009 1.00757 17.8957 1.00732 17.6905C1.00706 17.5044 1.00706 17.3183 1.00757 17.1321L1.00857 16.5013L1.00832 16.0643L1.00706 15.8092L1.0058 15.6162C1.00278 15.2215 1.00127 14.8268 1.00152 14.4321L1.00203 13.8608C0.995983 13.17 0.99976 12.4871 1.06599 11.7983C1.48629 9.59288 2.60213 7.61844 4.45709 6.25721L4.80511 6.0197C5.54196 5.50065 6.26042 5.19807 7.12594 4.95191C7.74065 4.77912 8.27956 4.60333 8.82628 4.26884C11.4896 2.60043 14.3413 2.5551 17.4131 2.55013C17.7704 2.5497 18.1277 2.54878 18.4851 2.54737C18.8855 2.54577 19.2859 2.54344 19.6863 2.54038L20.2265 2.53663C20.3796 2.53676 20.5357 2.53915 20.6936 2.5416ZM15.0545 4.21192L15.5672 4.21407C15.753 4.21487 15.9389 4.21622 16.1247 4.21787L16.584 4.22266L16.8961 4.22646C17.3509 4.23167 17.8054 4.23394 18.2602 4.23646C19.1476 4.24179 20.0348 4.25032 20.922 4.26099C20.7908 4.58609 20.6576 4.90186 20.4979 5.21494C20.0723 6.11711 19.9573 6.88654 19.955 7.87263L19.9527 8.20557C19.9807 9.62882 20.5742 11.1514 21.5737 12.2061C22.1638 12.7243 22.8372 13.1353 23.5007 13.557L23.8069 13.7528C24.3615 14.107 24.917 14.4593 25.4745 14.8088C25.8256 15.029 26.1746 15.2513 26.5191 15.4811L26.8772 15.7162L27.1648 15.91C27.3199 15.9843 27.4622 16.039 27.6072 16.0838C27.7619 16.1315 27.9195 16.168 28.0988 16.205L28.4161 16.2713L28.6581 16.3207L28.6513 16.7819C28.6302 18.2214 28.6148 19.661 28.6047 21.1007C28.5994 21.8407 28.5921 22.5807 28.5803 23.3206C28.569 24.0358 28.5629 24.7508 28.5604 25.4661C28.5584 25.7379 28.5546 26.0097 28.5491 26.2814C28.5156 27.975 28.6138 29.0314 29.6896 30.3904V30.6416H26.2084C26.0525 30.3381 26.0197 30.0442 25.9835 29.7195L25.9631 29.5439L25.9308 29.2863C25.8966 29.0132 25.8631 28.74 25.8296 28.4668C25.6914 27.3453 25.5468 26.2272 25.3655 25.1114C25.2741 24.5379 25.198 23.9624 25.1205 23.3869C24.9938 22.459 24.8457 21.5387 24.6682 20.6188C24.5274 19.8666 24.4428 19.1115 24.3803 18.3494C24.3214 17.7305 24.1655 17.2581 23.8875 16.6976C23.7208 16.6946 23.5538 16.6933 23.3869 16.6937C23.2529 16.694 23.1189 16.6953 22.985 16.6976L22.856 16.8232V19.4613H13.9595L13.8306 17.0744C13.6435 16.8488 13.5586 16.7463 13.4486 16.6993C13.3571 16.6602 13.2484 16.6595 13.0489 16.6583C12.9648 16.6587 12.8986 16.659 12.8442 16.6621C12.7694 16.6662 12.717 16.6756 12.6707 16.6974C12.6409 16.7114 12.6137 16.7305 12.5848 16.7566C12.5377 16.7992 12.4863 16.8605 12.4123 16.9488C12.3896 17.1349 12.3793 17.2206 12.3748 17.3242C12.371 17.4125 12.3715 17.5138 12.3725 17.7016L12.3634 18.177L12.3599 18.4311C12.3294 20.4234 12.1471 22.3829 11.8965 24.3605L11.7837 25.2674L11.7482 25.5666C11.7301 25.7202 11.7127 25.8738 11.6956 26.0275C11.6573 26.3424 11.61 26.6563 11.5536 26.9687C11.3463 28.3996 11.8988 29.2827 12.6316 30.4546L12.6702 30.516V30.6416H8.8021C8.57898 28.5572 8.37299 26.4811 8.24078 24.3896L8.21283 23.9557L8.18966 23.5758C8.17707 23.4403 8.15944 23.3078 8.13829 23.1763L8.12645 23.1042C8.12041 23.0684 8.11386 23.0325 8.10731 22.9967L8.08163 22.8619C8.06475 22.7757 8.04687 22.6892 8.02849 22.6018L8.01363 22.2919C8.00759 22.1578 8.00205 22.0236 7.99777 21.8895C7.93255 20.0359 7.39666 18.4046 6.70716 16.6901C6.58175 16.3753 6.46112 16.0588 6.34377 15.7412L6.27905 15.5651C6.23574 15.4465 6.19293 15.3278 6.15037 15.2089C6.08817 15.0354 6.02672 14.8616 5.96553 14.6876L5.86832 14.4256C5.27225 12.5655 5.81896 10.4435 6.63438 8.73628C7.07734 7.92581 7.61348 7.28617 8.28636 6.64781L8.51703 6.4108C9.04688 5.90475 9.64648 5.57058 10.301 5.24242L10.541 5.12017C11.9958 4.42538 13.4465 4.18585 15.0545 4.21192ZM34.1666 3.84634C32.3771 3.86947 30.7689 3.66729 29.05 3.17585C27.536 2.73813 25.8427 2.30882 24.4551 3.26927L24.1454 3.50726C23.4153 4.02674 22.7548 4.5483 22.2114 5.25812C21.4196 6.45901 21.2481 7.73382 21.5345 9.12885C22.0645 10.4718 22.7956 11.3911 24.0384 12.1908L24.3791 12.4029L25.0998 12.8578C25.4539 13.0774 25.8077 13.2969 26.1592 13.5203C26.3708 13.655 26.5831 13.7888 26.7961 13.9215L27.0948 14.1066C27.607 14.4335 28.0104 14.6645 28.6188 14.771C28.8281 14.7301 28.9346 14.7092 29.0296 14.6649C29.0429 14.6586 29.056 14.6519 29.0691 14.6447C29.0976 14.6289 29.1263 14.6103 29.1577 14.5876C29.2174 14.5445 29.2874 14.4866 29.3856 14.4054L29.3887 14.4026C29.4698 14.3017 29.5332 14.2226 29.5831 14.1492C29.6153 14.1015 29.642 14.0563 29.6639 14.009C29.6949 13.9425 29.7165 13.8719 29.7322 13.785C29.7672 13.5906 29.7714 13.3141 29.779 12.8175L29.7762 12.3808C29.7815 11.9157 29.7858 11.4508 29.7863 10.9857C29.7863 10.5024 29.7891 10.0192 29.7929 9.53589L29.8004 8.61998L29.8009 8.17944L29.8024 7.77534C29.8024 7.75326 29.8019 7.73136 29.8014 7.70971C29.8004 7.6742 29.7986 7.63929 29.7969 7.60494C29.7858 7.38682 29.776 7.19189 29.9475 7.02468C30.3514 6.93721 30.6929 6.81232 31.0686 7.01971C31.1771 7.25562 31.2318 7.37462 31.2607 7.49932C31.2905 7.62629 31.2937 7.75915 31.3003 8.02726L31.3028 8.32948C31.3101 8.64973 31.3169 8.96992 31.3212 9.29023C31.3242 9.51307 31.3277 9.73592 31.332 9.95882C31.3426 10.4736 31.3527 10.9884 31.3602 11.5033L31.3658 11.9239L31.6576 11.9195L32.0422 11.9161C33.2326 11.9023 33.8734 12.3017 34.776 13.0329C35.5365 13.6638 36.2922 14.2646 37.1424 14.7775L37.4015 14.931C37.918 15.2402 38.3703 15.4672 38.9729 15.567V15.5622L39.0293 13.2037C39.0369 12.8671 39.0447 12.5305 39.053 12.1938L39.0611 11.8744C39.0651 11.6845 39.0706 11.4955 39.0779 11.3064C39.0845 11.1355 39.0926 10.9647 39.1019 10.7933C39.2376 10.3968 39.2477 10.0578 39.2484 9.64262L39.2469 9.34869C39.2517 8.40934 39.0644 7.8062 38.6305 6.9761L38.4411 6.61641C38.1054 5.95769 37.7768 5.32074 37.2656 4.7733C36.3454 3.95865 35.3736 3.83757 34.1666 3.84634ZM21.5413 20.9632L21.9454 20.9609L22.2776 20.9577L22.5936 20.9565L22.886 20.9545C23.0114 20.9623 23.0678 20.9658 23.1147 20.9883C23.1529 21.0067 23.1849 21.0378 23.2428 21.0943C23.268 21.2382 23.2912 21.3823 23.3129 21.5267C23.3343 21.6677 23.3544 21.8089 23.3738 21.9501L23.4775 22.6989L23.5329 23.1043C23.5901 23.5172 23.6478 23.9301 23.7057 24.3429L23.7505 24.6625C23.7805 24.874 23.811 25.0854 23.8419 25.2967C23.916 25.7997 23.9933 26.3021 24.0734 26.8043L24.1184 27.0888L24.2325 27.798C24.2665 28.0083 24.3008 28.2187 24.3355 28.429L24.4138 28.9163L24.4831 29.3394C24.5332 29.7714 24.5327 30.2078 24.5322 30.6428V30.7672H22.2114C22.0255 30.134 21.8948 29.5887 21.8054 28.9452L21.7671 28.6755C21.7266 28.3862 21.6868 28.0968 21.6473 27.8073L21.5629 27.2037L21.3922 25.9709C21.3257 25.4873 21.2579 25.0038 21.19 24.5204C21.1298 24.0929 21.0701 23.6654 21.0107 23.2378L20.9437 22.7628L20.8832 22.3236L20.8301 21.9424C20.7948 21.6147 20.786 21.2979 20.7931 20.9687L21.5413 20.9632ZM38.9737 19.5926L38.9729 19.3356C38.9601 19.3356 38.9601 19.3356 38.2225 19.5834L37.3683 19.8582L37.0389 19.9637L37.0308 20.4356L37.0258 20.7537L37.0185 21.284C37.0157 21.5111 37.013 21.7383 37.0107 21.9654L37.0074 22.2954C37.0049 22.6148 37.0019 22.9341 36.9986 23.2535C36.9963 23.3804 36.9931 23.508 36.9893 23.6362C36.9855 23.7728 36.981 23.91 36.9762 24.0478C36.9425 25.0499 36.908 26.0752 37.0976 27.0477C37.4909 28.4431 38.3738 29.616 39.6176 30.3904C39.9266 29.8904 40.2109 29.4043 40.4073 28.8515C40.4038 28.7759 40.401 28.7167 40.396 28.6678C40.39 28.6093 40.3806 28.5653 40.363 28.5248C40.3499 28.4947 40.332 28.4665 40.3074 28.4358C40.2668 28.385 40.2076 28.3273 40.1203 28.2424L40.1172 28.2391L39.9362 28.0838C39.1981 27.2819 39.0278 26.1619 39.0092 25.1271L39.0107 24.6844C39.0047 24.2066 38.9994 23.729 38.9981 23.2511C38.9976 22.9202 38.9956 22.5894 38.9926 22.2584C38.9833 21.3698 38.9762 20.4813 38.9737 19.5926ZM6.09446 19.8381C6.36769 20.2373 6.3964 20.3951 6.4367 20.8597L6.47346 21.2593L6.50947 21.6935L6.55002 22.1452L6.61323 22.865L6.67467 23.5832L6.83408 25.3906L6.91945 26.3713C6.96906 26.9374 7.02043 27.5033 7.07457 28.069L7.11134 28.4519C7.13375 28.685 7.15667 28.9181 7.17984 29.1512L7.2098 29.4643L7.2365 29.7325C7.25589 30.0259 7.25538 30.3203 7.25488 30.6145V30.7672H4.67618C4.56159 26.687 4.52609 25.4167 4.82702 24.2272C4.96326 23.6894 5.16825 23.1682 5.4659 22.4112C5.65855 21.8791 5.7754 21.332 5.893 20.7803L5.95697 20.488L6.00355 20.2708C6.03428 20.1267 6.0645 19.9824 6.09446 19.8381ZM33.6846 14.0823C33.3678 13.7746 33.0651 13.4805 32.6274 13.3391C32.1545 13.3082 31.8835 13.4301 31.4947 13.6826L31.4932 13.6845C31.3318 13.9205 31.2721 14.0081 31.2391 14.1045C31.22 14.1609 31.2096 14.2203 31.1935 14.3141V14.3162C31.1839 14.8347 31.2197 15.1554 31.5733 15.5434C32.847 16.8116 34.6017 18.4839 36.5232 18.5112C37.606 18.4594 38.226 18.0951 38.9729 17.3257C37.1401 16.5867 35.296 15.5583 33.8387 14.2308C33.7866 14.1813 33.7354 14.1316 33.6846 14.0823Z" stroke="#FCFBF7" stroke-width="0.5"/>
<path d="M36.6521 8.4693C36.6521 8.85089 36.3346 9.16022 35.9429 9.16022C35.5513 9.16022 35.2338 8.85089 35.2338 8.4693C35.2338 8.08772 35.5513 7.77838 35.9429 7.77838C36.3346 7.77838 36.6521 8.08772 36.6521 8.4693Z" stroke="#FCFBF7" stroke-width="0.5"/>
</svg>
