<svg width="33" height="36" viewBox="0 0 33 36" fill="none" xmlns="http://www.w3.org/2000/svg">
<path fill-rule="evenodd" clip-rule="evenodd" d="M32.4478 7.71847C32.4478 7.27274 32.088 6.90702 31.6411 6.90702C30.0277 6.90702 28.7096 8.22895 28.721 9.86708C28.721 11.7757 27.1757 13.33 25.2782 13.33H24.8919C24.6533 10.8842 23.3429 8.74706 21.4416 7.40227V6.48035C21.4416 5.63462 21.1159 4.84222 20.5213 4.24411L20.5137 4.2403C21.4189 3.81744 22.1347 3.02885 22.4642 2.03074C22.6043 1.60025 22.3733 1.1431 21.9491 1.00215C21.5249 0.86119 21.0666 1.09358 20.9265 1.52025C20.6765 2.2936 20.01 2.83837 19.226 2.94504L18.9684 2.68599C17.7413 1.45168 15.7491 1.45168 14.522 2.68599L14.2645 2.94504C13.4805 2.83837 12.8177 2.2936 12.5639 1.52025C12.4238 1.09358 11.9655 0.86119 11.5413 1.00215C11.1171 1.1431 10.8861 1.60406 11.0262 2.03074C11.3557 3.02885 12.0715 3.81363 12.9767 4.2403L12.9729 4.24792C12.3783 4.84603 12.0526 5.63843 12.0526 6.48416V7.40608C10.1513 8.75087 8.84089 10.8842 8.60228 13.3338H8.21596C6.31847 13.3338 4.77321 11.7795 4.77321 9.87089C4.77321 8.24419 3.45898 6.91845 1.84176 6.91845C1.39484 6.91845 1.03504 7.28036 1.03504 7.72989C1.03504 8.17943 1.39484 8.54134 1.84176 8.54134C2.56894 8.54134 3.15977 9.13564 3.15977 9.86708C3.15977 12.3967 5.00424 14.4995 7.40925 14.8881V17.7872C5.00424 18.1758 3.15977 20.2787 3.15977 22.8083C3.15977 23.174 3.01206 23.5054 2.77346 23.7454C2.53485 23.9854 2.20535 24.134 1.84176 24.134C1.39484 24.134 1.03504 24.4959 1.03504 24.9455C1.03504 25.3912 1.39484 25.7569 1.84176 25.7569C3.45898 25.7569 4.77321 24.4312 4.77321 22.8045C4.77321 21.9892 5.05348 21.2425 5.52312 20.6482C5.99275 20.0539 6.65176 19.6196 7.40546 19.4368V25.2731C5.00045 25.6617 3.15599 27.7646 3.15599 30.2941C3.15599 30.6599 3.00828 30.9913 2.76967 31.2313C2.53106 31.4713 2.20156 31.6199 1.83797 31.6199C1.39105 31.6199 1.03125 31.9818 1.03125 32.4313C1.03125 32.877 1.39105 33.2428 1.83797 33.2428C3.45519 33.2428 4.76942 31.917 4.76942 30.2903C4.76942 29.4751 5.04969 28.7246 5.51933 28.1341C5.98897 27.5436 6.64798 27.1093 7.40167 26.9265C7.48121 31.3456 11.0792 34.9152 15.4916 34.9152H17.9875C22.3998 34.9152 25.9978 31.3456 26.0774 26.9265C27.5886 27.2922 28.7134 28.6598 28.7134 30.2903C28.7134 31.1056 29.0429 31.8446 29.5732 32.378C30.1034 32.9113 30.8382 33.2428 31.6449 33.2428C32.0918 33.2428 32.4516 32.877 32.4516 32.4313C32.4516 31.9856 32.0918 31.6199 31.6449 31.6199C30.9177 31.6199 30.3269 31.0256 30.3269 30.2941C30.3269 29.0332 29.8648 27.875 29.1035 26.9836C28.3423 26.0922 27.2818 25.4674 26.0774 25.2731V19.993C27.5848 20.3587 28.7096 21.7264 28.7096 23.3569C28.7096 24.1721 29.0391 24.9112 29.5694 25.4445C30.0996 25.9779 30.8344 26.3093 31.6411 26.3093C32.088 26.3093 32.4478 25.9474 32.4478 25.4979C32.4478 25.0483 32.088 24.6864 31.6411 24.6864C30.9139 24.6864 30.3231 24.0921 30.3231 23.3607C30.3231 22.0997 29.861 20.9416 29.0997 20.0501C28.3385 19.1587 27.278 18.5339 26.0736 18.3396V14.8767C28.4786 14.4881 30.3231 12.3852 30.3231 9.85565C30.3231 9.12421 30.9139 8.52991 31.6411 8.52991C32.088 8.52991 32.4478 8.168 32.4478 7.71847ZM24.3421 26.74V14.6442H19.8619C18.576 14.6442 17.5324 15.7339 17.5324 17.0766V29.8534C17.5324 30.3088 17.1746 30.6824 16.7385 30.6824C16.3024 30.6824 15.9446 30.3127 15.9446 29.8534V17.0766C15.9446 15.7339 14.8972 14.6442 13.6151 14.6442H9.13866V26.74C9.13866 30.41 11.9975 33.395 15.5122 33.395H17.9685C21.4833 33.395 24.3421 30.41 24.3421 26.74ZM23.3286 13.1171H19.9484C18.6392 13.1171 17.4755 13.7175 16.7405 14.6437C16.0055 13.7175 14.8418 13.1171 13.5325 13.1171H10.1523C10.5543 9.98336 13.3565 7.54883 16.7405 7.54883C20.1245 7.54883 22.9267 9.98336 23.3286 13.1171ZM19.7824 6.53518V6.50188C19.7824 6.10595 19.6253 5.73223 19.3411 5.44731L17.8076 3.93021C17.2205 3.34927 16.263 3.34927 15.6758 3.93021L14.1424 5.44731C13.8581 5.72853 13.701 6.10225 13.701 6.50188V6.53518C14.6398 6.15776 15.6683 5.94684 16.7417 5.94684C17.8189 5.94684 18.8436 6.15776 19.7824 6.53518Z" fill="#FCFBF7"/>
<path d="M28.721 9.86708H28.971L28.971 9.86535L28.721 9.86708ZM24.8919 13.33L24.6431 13.3543L24.6651 13.58H24.8919V13.33ZM21.4416 7.40227H21.1916V7.53166L21.2972 7.60637L21.4416 7.40227ZM20.5213 4.24411L20.6985 4.06785L20.6699 4.03903L20.6336 4.02077L20.5213 4.24411ZM20.5137 4.2403L20.4079 4.0138L19.9408 4.23201L20.4014 4.46365L20.5137 4.2403ZM22.4642 2.03074L22.7016 2.10911L22.7019 2.10812L22.4642 2.03074ZM20.9265 1.52025L20.689 1.44224L20.6886 1.44336L20.9265 1.52025ZM19.226 2.94504L19.0487 3.1213L19.1364 3.20953L19.2597 3.19276L19.226 2.94504ZM18.9684 2.68599L19.1457 2.50973V2.50973L18.9684 2.68599ZM14.522 2.68599L14.3447 2.50973L14.3447 2.50973L14.522 2.68599ZM14.2645 2.94504L14.2308 3.19276L14.354 3.20953L14.4417 3.1213L14.2645 2.94504ZM12.5639 1.52025L12.8014 1.44231L12.8014 1.44224L12.5639 1.52025ZM11.0262 2.03074L10.7887 2.10875L10.7888 2.10911L11.0262 2.03074ZM12.9767 4.2403L13.2006 4.35161L13.3143 4.12302L13.0833 4.01417L12.9767 4.2403ZM12.9729 4.24792L13.1502 4.42418L13.1788 4.39548L13.1968 4.35923L12.9729 4.24792ZM12.0526 7.40608L12.197 7.61018L12.3026 7.53547V7.40608H12.0526ZM8.60228 13.3338V13.5838H8.82911L8.8511 13.358L8.60228 13.3338ZM7.40925 14.8881H7.65925V14.6753L7.44912 14.6413L7.40925 14.8881ZM7.40925 17.7872L7.44912 18.034L7.65925 18.0001V17.7872H7.40925ZM2.77346 23.7454L2.95075 23.9217H2.95075L2.77346 23.7454ZM5.52312 20.6482L5.71926 20.8032L5.52312 20.6482ZM7.40546 19.4368H7.65546V19.1189L7.34651 19.1938L7.40546 19.4368ZM7.40546 25.2731L7.44533 25.5199L7.65546 25.4859V25.2731H7.40546ZM2.76967 31.2313L2.94696 31.4076H2.94696L2.76967 31.2313ZM5.51933 28.1341L5.71499 28.2897L5.51933 28.1341ZM7.40167 26.9265L7.65163 26.922L7.64601 26.6099L7.34273 26.6835L7.40167 26.9265ZM26.0774 26.9265L26.1362 26.6835L25.833 26.6101L25.8274 26.922L26.0774 26.9265ZM29.5732 32.378L29.7505 32.2017L29.5732 32.378ZM29.1035 26.9836L29.2936 26.8213L29.1035 26.9836ZM26.0774 25.2731H25.8274V25.486L26.0376 25.5199L26.0774 25.2731ZM26.0774 19.993L26.1363 19.75L25.8274 19.6751V19.993H26.0774ZM29.5694 25.4445L29.3921 25.6208L29.5694 25.4445ZM29.0997 20.0501L28.9096 20.2125L29.0997 20.0501ZM26.0736 18.3396H25.8236V18.5525L26.0338 18.5864L26.0736 18.3396ZM26.0736 14.8767L26.0337 14.6299L25.8236 14.6638V14.8767H26.0736ZM24.3421 14.6442H24.5921V14.3942H24.3421V14.6442ZM9.13866 14.6442V14.3942H8.88866V14.6442H9.13866ZM23.3286 13.1171V13.3671H23.6127L23.5766 13.0853L23.3286 13.1171ZM16.7405 14.6437L16.5446 14.7991L16.7405 15.0459L16.9363 14.7991L16.7405 14.6437ZM10.1523 13.1171L9.90438 13.0853L9.86823 13.3671H10.1523V13.1171ZM19.7824 6.53518L19.6891 6.76714L20.0324 6.90514V6.53518H19.7824ZM19.3411 5.44731L19.5181 5.27074L19.5169 5.26959L19.3411 5.44731ZM17.8076 3.93021L17.9835 3.75249L17.9835 3.75249L17.8076 3.93021ZM15.6758 3.93021L15.8516 4.10793L15.6758 3.93021ZM14.1424 5.44731L14.3182 5.62503L14.1424 5.44731ZM13.701 6.53518H13.451V6.90514L13.7943 6.76714L13.701 6.53518ZM31.6411 7.15702C31.9478 7.15702 32.1978 7.40867 32.1978 7.71847H32.6978C32.6978 7.13682 32.2282 6.65702 31.6411 6.65702V7.15702ZM28.971 9.86535C28.9606 8.36517 30.1672 7.15702 31.6411 7.15702V6.65702C29.8881 6.65702 28.4587 8.09274 28.471 9.86881L28.971 9.86535ZM25.2782 13.58C27.3152 13.58 28.971 11.9124 28.971 9.86708H28.471C28.471 11.639 27.0363 13.08 25.2782 13.08V13.58ZM24.8919 13.58H25.2782V13.08H24.8919V13.58ZM21.2972 7.60637C23.1414 8.91073 24.4118 10.9833 24.6431 13.3543L25.1407 13.3057C24.8948 10.7851 23.5444 8.58338 21.586 7.19816L21.2972 7.60637ZM21.1916 6.48035V7.40227H21.6916V6.48035H21.1916ZM20.344 4.42037C20.8918 4.9714 21.1916 5.70033 21.1916 6.48035H21.6916C21.6916 5.5689 21.34 4.71304 20.6985 4.06785L20.344 4.42037ZM20.4014 4.46365L20.4089 4.46746L20.6336 4.02077L20.626 4.01696L20.4014 4.46365ZM22.2268 1.95237C21.9189 2.88489 21.2509 3.61999 20.4079 4.0138L20.6195 4.46681C21.5869 4.01488 22.3504 3.17281 22.7016 2.10911L22.2268 1.95237ZM21.8703 1.23939C22.163 1.33666 22.3244 1.65259 22.2265 1.95335L22.7019 2.10812C22.8843 1.54792 22.5836 0.949539 22.0279 0.764901L21.8703 1.23939ZM21.164 1.59826C21.2614 1.30185 21.5787 1.14249 21.8703 1.23939L22.0279 0.764901C21.4712 0.579892 20.8719 0.885298 20.689 1.44224L21.164 1.59826ZM19.2597 3.19276C20.1378 3.07328 20.8845 2.46296 21.1644 1.59714L20.6886 1.44336C20.4685 2.12423 19.8821 2.60347 19.1923 2.69732L19.2597 3.19276ZM18.7911 2.86225L19.0487 3.1213L19.4033 2.76878L19.1457 2.50973L18.7911 2.86225ZM14.6993 2.86225C15.8287 1.72626 17.6618 1.72626 18.7911 2.86225L19.1457 2.50973C17.8208 1.1771 15.6696 1.1771 14.3447 2.50973L14.6993 2.86225ZM14.4417 3.1213L14.6993 2.86225L14.3447 2.50973L14.0872 2.76878L14.4417 3.1213ZM12.3264 1.59819C12.6099 2.46238 13.3518 3.07317 14.2308 3.19276L14.2982 2.69732C13.6091 2.60357 13.0254 2.12481 12.8014 1.44231L12.3264 1.59819ZM11.6201 1.23939C11.9118 1.14249 12.229 1.30185 12.3264 1.59826L12.8014 1.44224C12.6185 0.885297 12.0192 0.579892 11.4625 0.764901L11.6201 1.23939ZM11.2637 1.95273C11.1663 1.65603 11.3275 1.33662 11.6201 1.23939L11.4625 0.764901C10.9067 0.949578 10.6059 1.55209 10.7887 2.10875L11.2637 1.95273ZM13.0833 4.01417C12.2392 3.61627 11.5713 2.88437 11.2636 1.95237L10.7888 2.10911C11.1402 3.17334 11.9039 4.01099 12.8701 4.46644L13.0833 4.01417ZM13.1968 4.35923L13.2006 4.35161L12.7529 4.12899L12.7491 4.13661L13.1968 4.35923ZM12.3026 6.48416C12.3026 5.70414 12.6024 4.97521 13.1502 4.42418L12.7957 4.07166C12.1542 4.71685 11.8026 5.57271 11.8026 6.48416H12.3026ZM12.3026 7.40608V6.48416H11.8026V7.40608H12.3026ZM8.8511 13.358C9.08241 10.9834 10.3528 8.9146 12.197 7.61018L11.9082 7.20197C9.94988 8.58714 8.59936 10.7851 8.35346 13.3096L8.8511 13.358ZM8.21596 13.5838H8.60228V13.0838H8.21596V13.5838ZM4.52321 9.87089C4.52321 11.9162 6.17903 13.5838 8.21596 13.5838V13.0838C6.45792 13.0838 5.02321 11.6428 5.02321 9.87089H4.52321ZM1.84176 7.16845C3.31911 7.16845 4.52321 8.38046 4.52321 9.87089H5.02321C5.02321 8.10792 3.59884 6.66845 1.84176 6.66845V7.16845ZM1.28504 7.72989C1.28504 7.41705 1.53429 7.16845 1.84176 7.16845V6.66845C1.25539 6.66845 0.785037 7.14367 0.785037 7.72989H1.28504ZM1.84176 8.29134C1.53429 8.29134 1.28504 8.04273 1.28504 7.72989H0.785037C0.785037 8.31612 1.2554 8.79134 1.84176 8.79134V8.29134ZM3.40977 9.86708C3.40977 8.99894 2.70838 8.29134 1.84176 8.29134V8.79134C2.42949 8.79134 2.90977 9.27233 2.90977 9.86708H3.40977ZM7.44912 14.6413C5.16422 14.2722 3.40977 12.273 3.40977 9.86708H2.90977C2.90977 12.5203 4.84426 14.7269 7.36937 15.1349L7.44912 14.6413ZM7.65925 17.7872V14.8881H7.15925V17.7872H7.65925ZM3.40977 22.8083C3.40977 20.4024 5.16422 18.4032 7.44912 18.034L7.36937 17.5404C4.84426 17.9484 2.90977 20.155 2.90977 22.8083H3.40977ZM2.95075 23.9217C3.23408 23.6367 3.40977 23.2426 3.40977 22.8083H2.90977C2.90977 23.1054 2.79005 23.3742 2.59617 23.5692L2.95075 23.9217ZM1.84176 24.384C2.27493 24.384 2.6674 24.2067 2.95075 23.9217L2.59617 23.5692C2.40231 23.7642 2.13576 23.884 1.84176 23.884V24.384ZM1.28504 24.9455C1.28504 24.6326 1.53429 24.384 1.84176 24.384V23.884C1.25539 23.884 0.785037 24.3592 0.785037 24.9455H1.28504ZM1.84176 25.5069C1.53505 25.5069 1.28504 25.2553 1.28504 24.9455H0.785037C0.785037 25.5271 1.25463 26.0069 1.84176 26.0069V25.5069ZM4.52321 22.8045C4.52321 24.2949 3.31911 25.5069 1.84176 25.5069V26.0069C3.59884 26.0069 5.02321 24.5674 5.02321 22.8045H4.52321ZM5.32697 20.4932C4.82392 21.1298 4.52321 21.9306 4.52321 22.8045H5.02321C5.02321 22.0478 5.28304 21.3553 5.71926 20.8032L5.32697 20.4932ZM7.34651 19.1938C6.53696 19.3902 5.83021 19.8564 5.32697 20.4932L5.71926 20.8032C6.1553 20.2515 6.76657 19.849 7.4644 19.6797L7.34651 19.1938ZM7.65546 25.2731V19.4368H7.15546V25.2731H7.65546ZM3.40599 30.2941C3.40599 27.8883 5.16043 25.8891 7.44533 25.5199L7.36558 25.0263C4.84048 25.4343 2.90599 27.6409 2.90599 30.2941H3.40599ZM2.94696 31.4076C3.23029 31.1226 3.40599 30.7285 3.40599 30.2941H2.90599C2.90599 30.5912 2.78626 30.86 2.59238 31.055L2.94696 31.4076ZM1.83797 31.8699C2.27114 31.8699 2.66361 31.6926 2.94696 31.4076L2.59238 31.055C2.39852 31.25 2.13197 31.3699 1.83797 31.3699V31.8699ZM1.28125 32.4313C1.28125 32.1185 1.5305 31.8699 1.83797 31.8699V31.3699C1.25161 31.3699 0.78125 31.8451 0.78125 32.4313H1.28125ZM1.83797 32.9928C1.53126 32.9928 1.28125 32.7411 1.28125 32.4313H0.78125C0.78125 33.013 1.25085 33.4928 1.83797 33.4928V32.9928ZM4.51942 30.2903C4.51942 31.7808 3.31533 32.9928 1.83797 32.9928V33.4928C3.59506 33.4928 5.01942 32.0533 5.01942 30.2903H4.51942ZM5.32367 27.9785C4.81987 28.6119 4.51942 29.4169 4.51942 30.2903H5.01942C5.01942 29.5332 5.27951 28.8373 5.71499 28.2897L5.32367 27.9785ZM7.34273 26.6835C6.53327 26.8799 5.82676 27.3459 5.32367 27.9785L5.71499 28.2897C6.15117 27.7413 6.76269 27.3387 7.46062 27.1694L7.34273 26.6835ZM15.4916 34.6652C11.2172 34.6652 7.72874 31.2064 7.65163 26.922L7.15171 26.931C7.23367 31.4848 10.9413 35.1652 15.4916 35.1652V34.6652ZM17.9875 34.6652H15.4916V35.1652H17.9875V34.6652ZM25.8274 26.922C25.7503 31.2064 22.2619 34.6652 17.9875 34.6652V35.1652C22.5377 35.1652 26.2454 31.4848 26.3273 26.931L25.8274 26.922ZM28.9634 30.2903C28.9634 28.5423 27.7575 27.0758 26.1362 26.6835L26.0186 27.1694C27.4196 27.5085 28.4634 28.7773 28.4634 30.2903H28.9634ZM29.7505 32.2017C29.265 31.7134 28.9634 31.037 28.9634 30.2903H28.4634C28.4634 31.1741 28.8209 31.9759 29.3959 32.5542L29.7505 32.2017ZM31.6449 32.9928C30.9078 32.9928 30.236 32.6901 29.7505 32.2017L29.3959 32.5542C29.9708 33.1325 30.7685 33.4928 31.6449 33.4928V32.9928ZM32.2016 32.4313C32.2016 32.7411 31.9516 32.9928 31.6449 32.9928V33.4928C32.232 33.4928 32.7016 33.013 32.7016 32.4313H32.2016ZM31.6449 31.8699C31.9516 31.8699 32.2016 32.1215 32.2016 32.4313H32.7016C32.7016 31.8497 32.232 31.3699 31.6449 31.3699V31.8699ZM30.0769 30.2941C30.0769 31.1623 30.7782 31.8699 31.6449 31.8699V31.3699C31.0571 31.3699 30.5769 30.8889 30.5769 30.2941H30.0769ZM28.9134 27.146C29.6377 27.9941 30.0769 29.0952 30.0769 30.2941H30.5769C30.5769 28.9711 30.0919 27.756 29.2936 26.8213L28.9134 27.146ZM26.0376 25.5199C27.1809 25.7043 28.189 26.2976 28.9134 27.146L29.2936 26.8213C28.4955 25.8867 27.3826 25.2304 26.1172 25.0263L26.0376 25.5199ZM25.8274 19.993V25.2731H26.3274V19.993H25.8274ZM28.9596 23.3569C28.9596 21.609 27.7539 20.1425 26.1363 19.75L26.0184 20.2359C27.4157 20.5749 28.4596 21.8437 28.4596 23.3569H28.9596ZM29.7467 25.2683C29.2612 24.78 28.9596 24.1036 28.9596 23.3569H28.4596C28.4596 24.2407 28.8171 25.0424 29.3921 25.6208L29.7467 25.2683ZM31.6411 26.0593C30.9041 26.0593 30.2322 25.7567 29.7467 25.2683L29.3921 25.6208C29.967 26.1991 30.7647 26.5593 31.6411 26.5593V26.0593ZM32.1978 25.4979C32.1978 25.8107 31.9486 26.0593 31.6411 26.0593V26.5593C32.2274 26.5593 32.6978 26.0841 32.6978 25.4979H32.1978ZM31.6411 24.9364C31.9486 24.9364 32.1978 25.185 32.1978 25.4979H32.6978C32.6978 24.9116 32.2275 24.4364 31.6411 24.4364V24.9364ZM30.0731 23.3607C30.0731 24.2288 30.7745 24.9364 31.6411 24.9364V24.4364C31.0534 24.4364 30.5731 23.9554 30.5731 23.3607H30.0731ZM28.9096 20.2125C29.6339 21.0606 30.0731 22.1618 30.0731 23.3607H30.5731C30.5731 22.0376 30.0881 20.8225 29.2898 19.8878L28.9096 20.2125ZM26.0338 18.5864C27.1772 18.7709 28.1852 19.3642 28.9096 20.2125L29.2898 19.8878C28.4918 18.9532 27.3788 18.2969 26.1134 18.0928L26.0338 18.5864ZM25.8236 14.8767V18.3396H26.3236V14.8767H25.8236ZM30.0731 9.85565C30.0731 12.2615 28.3186 14.2607 26.0337 14.6299L26.1135 15.1235C28.6386 14.7155 30.5731 12.5089 30.5731 9.85565H30.0731ZM31.6411 8.27991C30.7745 8.27991 30.0731 8.98751 30.0731 9.85565H30.5731C30.5731 9.2609 31.0534 8.77991 31.6411 8.77991V8.27991ZM32.1978 7.71847C32.1978 8.03131 31.9486 8.27991 31.6411 8.27991V8.77991C32.2274 8.77991 32.6978 8.30469 32.6978 7.71847H32.1978ZM24.0921 14.6442V26.74H24.5921V14.6442H24.0921ZM19.8619 14.8942H24.3421V14.3942H19.8619V14.8942ZM17.7824 17.0766C17.7824 15.8616 18.7242 14.8942 19.8619 14.8942V14.3942C18.4279 14.3942 17.2824 15.6061 17.2824 17.0766H17.7824ZM17.7824 29.8534V17.0766H17.2824V29.8534H17.7824ZM16.7385 30.9324C17.3227 30.9324 17.7824 30.4366 17.7824 29.8534H17.2824C17.2824 30.181 17.0264 30.4324 16.7385 30.4324V30.9324ZM15.6946 29.8534C15.6946 30.4412 16.155 30.9324 16.7385 30.9324V30.4324C16.4498 30.4324 16.1946 30.1841 16.1946 29.8534H15.6946ZM15.6946 17.0766V29.8534H16.1946V17.0766H15.6946ZM13.6151 14.8942C14.7494 14.8942 15.6946 15.8619 15.6946 17.0766H16.1946C16.1946 15.6058 15.0451 14.3942 13.6151 14.3942V14.8942ZM9.13866 14.8942H13.6151V14.3942H9.13866V14.8942ZM9.38866 26.74V14.6442H8.88866V26.74H9.38866ZM15.5122 33.145C12.1456 33.145 9.38866 30.2822 9.38866 26.74H8.88866C8.88866 30.5378 11.8493 33.645 15.5122 33.645V33.145ZM17.9685 33.145H15.5122V33.645H17.9685V33.145ZM24.0921 26.74C24.0921 30.2822 21.3351 33.145 17.9685 33.145V33.645C21.6314 33.645 24.5921 30.5378 24.5921 26.74H24.0921ZM19.9484 13.3671H23.3286V12.8671H19.9484V13.3671ZM16.9363 14.7991C17.6245 13.9319 18.7165 13.3671 19.9484 13.3671V12.8671C18.5619 12.8671 17.3264 13.5032 16.5446 14.4883L16.9363 14.7991ZM13.5325 13.3671C14.7644 13.3671 15.8564 13.9319 16.5446 14.7991L16.9363 14.4883C16.1545 13.5032 14.9191 12.8671 13.5325 12.8671V13.3671ZM10.1523 13.3671H13.5325V12.8671H10.1523V13.3671ZM16.7405 7.29883C13.2378 7.29883 10.3232 9.8199 9.90438 13.0853L10.4003 13.1489C10.7854 10.1468 13.4751 7.79883 16.7405 7.79883V7.29883ZM23.5766 13.0853C23.1577 9.8199 20.2432 7.29883 16.7405 7.29883V7.79883C20.0058 7.79883 22.6956 10.1468 23.0806 13.1489L23.5766 13.0853ZM19.5324 6.50188V6.53518H20.0324V6.50188H19.5324ZM19.1641 5.62388C19.4028 5.86312 19.5324 6.17382 19.5324 6.50188H20.0324C20.0324 6.03809 19.8479 5.60134 19.5181 5.27074L19.1641 5.62388ZM17.6318 4.10793L19.1652 5.62503L19.5169 5.26959L17.9835 3.75249L17.6318 4.10793ZM15.8516 4.10793C16.3414 3.62336 17.142 3.62336 17.6318 4.10793L17.9835 3.75249C17.2989 3.07518 16.1846 3.07518 15.5 3.75249L15.8516 4.10793ZM14.3182 5.62503L15.8516 4.10793L15.5 3.75249L13.9665 5.26959L14.3182 5.62503ZM13.951 6.50188C13.951 6.16952 14.0811 5.85964 14.3182 5.62503L13.9665 5.26959C13.6352 5.59742 13.451 6.03499 13.451 6.50188H13.951ZM13.951 6.53518V6.50188H13.451V6.53518H13.951ZM16.7417 5.69684C15.6354 5.69684 14.5753 5.91424 13.6078 6.30323L13.7943 6.76714C14.7043 6.40127 15.7012 6.19684 16.7417 6.19684V5.69684ZM19.8757 6.30323C18.9082 5.91426 17.8518 5.69684 16.7417 5.69684V6.19684C17.7859 6.19684 18.7791 6.40125 19.6891 6.76714L19.8757 6.30323Z" fill="#FCFBF7"/>
</svg>
