<svg width="36" height="35" viewBox="0 0 36 35" fill="none" xmlns="http://www.w3.org/2000/svg">
<mask id="path-1-inside-1_1403_11384" fill="white">
<path fill-rule="evenodd" clip-rule="evenodd" d="M0.515903 6.11808C0.632406 6.05849 4.4633 4.80722 9.02748 3.34408C13.5917 1.88095 17.4089 0.68264 17.5254 0.676018C17.7378 0.669399 34.1373 5.89298 34.5691 6.10484C34.7335 6.18428 34.8775 6.32993 34.9666 6.49545C35.0968 6.7404 35.1036 6.87943 35.1036 8.94503C35.1036 11.0106 35.0968 11.1497 34.9666 11.3946C34.7541 11.7985 34.432 11.9243 33.6302 11.9243H32.9791V13.5132C32.9791 14.9829 32.9654 15.1286 32.8421 15.3669C32.6776 15.6781 32.287 15.8966 31.8826 15.8966H31.6085V20.2661V24.6356H32.2253C32.9929 24.6356 33.3149 24.7681 33.5274 25.1653C33.6508 25.4036 33.6645 25.5493 33.6645 27.019V28.6079H33.9729C34.4114 28.6079 34.7952 28.8132 34.9666 29.1376C35.0968 29.3825 35.1036 29.5216 35.1036 31.5872C35.1036 33.6528 35.0968 33.7918 34.9666 34.0368C34.8775 34.2089 34.7335 34.3479 34.5554 34.434C34.2881 34.5664 34.1922 34.5664 17.5596 34.5664C0.92709 34.5664 0.831147 34.5664 0.563875 34.434C0.385694 34.3479 0.241778 34.2089 0.152687 34.0368C0.0224781 33.7918 0.015625 33.6528 0.015625 31.5872C0.015625 29.5216 0.0224781 29.3825 0.152687 29.1376C0.324016 28.8132 0.70779 28.6079 1.14639 28.6079H1.45478V27.019C1.45478 25.5493 1.46849 25.4036 1.59184 25.1653C1.80429 24.7681 2.12639 24.6356 2.89394 24.6356H3.51072V20.2661V15.8966H3.23659C2.83226 15.8966 2.44163 15.6781 2.27716 15.3669C2.1538 15.1286 2.14009 14.9829 2.14009 13.5132V11.9243H1.48905C0.687231 11.9243 0.365134 11.7985 0.152687 11.3946C0.0224781 11.1497 0.015625 11.0106 0.015625 8.94503C0.015625 6.87943 0.0224781 6.7404 0.152687 6.49545C0.228072 6.34979 0.392547 6.18428 0.515903 6.11808ZM8.99322 13.9104V12.9173V11.9243H6.59462H4.19603V12.9173V13.9104H6.59462H8.99322ZM13.2422 15.3669C13.1188 15.1286 13.1051 14.9829 13.1051 13.5132V11.9243H12.0771H11.0492V13.5132C11.0492 14.9829 11.0354 15.1286 10.9121 15.3669C10.7476 15.6781 10.357 15.8966 9.95265 15.8966H9.67853V20.2661V24.6356H12.0771H14.4757V20.2661V15.8966H14.2016C13.7973 15.8966 13.4066 15.6781 13.2422 15.3669ZM19.9582 13.9104V12.9173V11.9243H17.5596H15.161V12.9173V13.9104H17.5596H19.9582ZM24.2071 15.3669C24.0838 15.1286 24.0701 14.9829 24.0701 13.5132V11.9243H23.0421H22.0142V13.5132C22.0142 14.9829 22.0004 15.1286 21.8771 15.3669C21.7126 15.6781 21.322 15.8966 20.9177 15.8966H20.6435V20.2661V24.6356H23.0421H25.4407V20.2661V15.8966H25.1666C24.7623 15.8966 24.3716 15.6781 24.2071 15.3669ZM30.9232 13.9104V12.9173V11.9243H28.5246H26.126V12.9173V13.9104H28.5246H30.9232ZM7.62259 24.6356V20.2661V15.8966H6.59462H5.56665V20.2661V24.6356H6.59462H7.62259ZM18.5876 24.6356V20.2661V15.8966H17.5596H16.5317V20.2661V24.6356H17.5596H18.5876ZM29.5526 24.6356V20.2661V15.8966H28.5246H27.4966V20.2661V24.6356H28.5246H29.5526ZM27.668 5.95256L22.6309 4.33716C19.8623 3.45001 17.5665 2.72837 17.5254 2.72837C17.4911 2.72837 15.2227 3.45663 12.4883 4.34378L7.51979 5.95256L2.07156 7.95196V8.94503V9.93811H17.5596H33.0477V8.94503V7.95196L27.668 5.95256ZM31.6085 27.6149V28.6079V30.5941H33.0477V31.5872V32.5803H17.5596H2.07156V31.5872V30.5941H3.51072V28.6079V27.6149V26.6218H17.5596H31.6085V27.6149Z"/>
</mask>
<path fill-rule="evenodd" clip-rule="evenodd" d="M0.515903 6.11808C0.632406 6.05849 4.4633 4.80722 9.02748 3.34408C13.5917 1.88095 17.4089 0.68264 17.5254 0.676018C17.7378 0.669399 34.1373 5.89298 34.5691 6.10484C34.7335 6.18428 34.8775 6.32993 34.9666 6.49545C35.0968 6.7404 35.1036 6.87943 35.1036 8.94503C35.1036 11.0106 35.0968 11.1497 34.9666 11.3946C34.7541 11.7985 34.432 11.9243 33.6302 11.9243H32.9791V13.5132C32.9791 14.9829 32.9654 15.1286 32.8421 15.3669C32.6776 15.6781 32.287 15.8966 31.8826 15.8966H31.6085V20.2661V24.6356H32.2253C32.9929 24.6356 33.3149 24.7681 33.5274 25.1653C33.6508 25.4036 33.6645 25.5493 33.6645 27.019V28.6079H33.9729C34.4114 28.6079 34.7952 28.8132 34.9666 29.1376C35.0968 29.3825 35.1036 29.5216 35.1036 31.5872C35.1036 33.6528 35.0968 33.7918 34.9666 34.0368C34.8775 34.2089 34.7335 34.3479 34.5554 34.434C34.2881 34.5664 34.1922 34.5664 17.5596 34.5664C0.92709 34.5664 0.831147 34.5664 0.563875 34.434C0.385694 34.3479 0.241778 34.2089 0.152687 34.0368C0.0224781 33.7918 0.015625 33.6528 0.015625 31.5872C0.015625 29.5216 0.0224781 29.3825 0.152687 29.1376C0.324016 28.8132 0.70779 28.6079 1.14639 28.6079H1.45478V27.019C1.45478 25.5493 1.46849 25.4036 1.59184 25.1653C1.80429 24.7681 2.12639 24.6356 2.89394 24.6356H3.51072V20.2661V15.8966H3.23659C2.83226 15.8966 2.44163 15.6781 2.27716 15.3669C2.1538 15.1286 2.14009 14.9829 2.14009 13.5132V11.9243H1.48905C0.687231 11.9243 0.365134 11.7985 0.152687 11.3946C0.0224781 11.1497 0.015625 11.0106 0.015625 8.94503C0.015625 6.87943 0.0224781 6.7404 0.152687 6.49545C0.228072 6.34979 0.392547 6.18428 0.515903 6.11808ZM8.99322 13.9104V12.9173V11.9243H6.59462H4.19603V12.9173V13.9104H6.59462H8.99322ZM13.2422 15.3669C13.1188 15.1286 13.1051 14.9829 13.1051 13.5132V11.9243H12.0771H11.0492V13.5132C11.0492 14.9829 11.0354 15.1286 10.9121 15.3669C10.7476 15.6781 10.357 15.8966 9.95265 15.8966H9.67853V20.2661V24.6356H12.0771H14.4757V20.2661V15.8966H14.2016C13.7973 15.8966 13.4066 15.6781 13.2422 15.3669ZM19.9582 13.9104V12.9173V11.9243H17.5596H15.161V12.9173V13.9104H17.5596H19.9582ZM24.2071 15.3669C24.0838 15.1286 24.0701 14.9829 24.0701 13.5132V11.9243H23.0421H22.0142V13.5132C22.0142 14.9829 22.0004 15.1286 21.8771 15.3669C21.7126 15.6781 21.322 15.8966 20.9177 15.8966H20.6435V20.2661V24.6356H23.0421H25.4407V20.2661V15.8966H25.1666C24.7623 15.8966 24.3716 15.6781 24.2071 15.3669ZM30.9232 13.9104V12.9173V11.9243H28.5246H26.126V12.9173V13.9104H28.5246H30.9232ZM7.62259 24.6356V20.2661V15.8966H6.59462H5.56665V20.2661V24.6356H6.59462H7.62259ZM18.5876 24.6356V20.2661V15.8966H17.5596H16.5317V20.2661V24.6356H17.5596H18.5876ZM29.5526 24.6356V20.2661V15.8966H28.5246H27.4966V20.2661V24.6356H28.5246H29.5526ZM27.668 5.95256L22.6309 4.33716C19.8623 3.45001 17.5665 2.72837 17.5254 2.72837C17.4911 2.72837 15.2227 3.45663 12.4883 4.34378L7.51979 5.95256L2.07156 7.95196V8.94503V9.93811H17.5596H33.0477V8.94503V7.95196L27.668 5.95256ZM31.6085 27.6149V28.6079V30.5941H33.0477V31.5872V32.5803H17.5596H2.07156V31.5872V30.5941H3.51072V28.6079V27.6149V26.6218H17.5596H31.6085V27.6149Z" fill="#FCFBF7"/>
<path d="M2.07156 30.5274H31.6085V30.6608H2.07156V30.5274ZM3.51072 30.5274H31.6085V30.6608H3.51072V30.5274ZM0.515903 6.11808L0.452838 6.00057L0.45519 5.99937L0.515903 6.11808ZM0.152687 6.49545L0.271108 6.55674L0.270421 6.55803L0.152687 6.49545ZM0.152687 11.3946L0.270422 11.332L0.270689 11.3325L0.152687 11.3946ZM2.14009 11.9243V11.7909H2.27343V11.9243H2.14009ZM2.27716 15.3669L2.15927 15.4292L2.15874 15.4282L2.27716 15.3669ZM3.51072 15.8966V15.7632H3.64405V15.8966H3.51072ZM3.51072 24.6356H3.64405V24.769H3.51072V24.6356ZM1.59184 25.1653L1.47342 25.104L1.47427 25.1024L1.59184 25.1653ZM1.45478 28.6079H1.58811V28.7413H1.45478V28.6079ZM0.152687 29.1376L0.270589 29.1999L0.270421 29.2002L0.152687 29.1376ZM0.152687 34.0368L0.270428 33.9742L0.271101 33.9755L0.152687 34.0368ZM0.563875 34.434L0.621871 34.3139L0.623065 34.3145L0.563875 34.434ZM34.5554 34.434L34.4962 34.3145L34.4974 34.3139L34.5554 34.434ZM34.9666 34.0368L34.8481 33.9755L34.8488 33.9742L34.9666 34.0368ZM34.9666 29.1376L34.8488 29.2002L34.8487 29.1999L34.9666 29.1376ZM33.6645 28.6079V28.7413H33.5311V28.6079H33.6645ZM33.5274 25.1653L33.645 25.1024L33.6458 25.104L33.5274 25.1653ZM31.6085 24.6356V24.769H31.4752V24.6356H31.6085ZM31.6085 15.8966H31.4752V15.7632H31.6085V15.8966ZM32.8421 15.3669L32.9605 15.4282L32.96 15.4292L32.8421 15.3669ZM32.9791 11.9243H32.8458V11.7909H32.9791V11.9243ZM34.9666 11.3946L34.8485 11.3325L34.8488 11.332L34.9666 11.3946ZM34.9666 6.49545L35.084 6.43225L35.0843 6.43286L34.9666 6.49545ZM34.5691 6.10484L34.5111 6.2249L34.5103 6.22453L34.5691 6.10484ZM17.5254 0.676018L17.5178 0.542858L17.5212 0.542751L17.5254 0.676018ZM22.6309 4.33716L22.6716 4.21018L22.6716 4.2102L22.6309 4.33716ZM27.668 5.95256L27.7087 5.82547L27.7144 5.82758L27.668 5.95256ZM7.51979 5.95256L7.47383 5.8273L7.47872 5.82571L7.51979 5.95256ZM12.4883 4.34378L12.5295 4.47061L12.5294 4.47063L12.4883 4.34378ZM33.0477 9.93811H33.181V10.0714H33.0477V9.93811ZM2.07156 9.93811V10.0714H1.93823V9.93811H2.07156ZM2.07156 7.95196H1.93823V7.85886L2.02563 7.82679L2.07156 7.95196ZM33.0477 7.95196L33.0941 7.82698L33.181 7.85927V7.95196H33.0477ZM8.99322 13.9104H9.12655V14.0438H8.99322V13.9104ZM4.19603 13.9104V14.0438H4.0627V13.9104H4.19603ZM4.19603 11.9243H4.0627V11.7909H4.19603V11.9243ZM8.99322 11.9243V11.7909H9.12655V11.9243H8.99322ZM13.2422 15.3669L13.1243 15.4292L13.1237 15.4282L13.2422 15.3669ZM14.4757 15.8966V15.7632H14.609V15.8966H14.4757ZM14.4757 24.6356H14.609V24.769H14.4757V24.6356ZM9.67853 24.6356V24.769H9.5452V24.6356H9.67853ZM9.67853 15.8966H9.5452V15.7632H9.67853V15.8966ZM10.9121 15.3669L11.0305 15.4282L11.03 15.4292L10.9121 15.3669ZM11.0492 11.9243H10.9158V11.7909H11.0492V11.9243ZM13.1051 11.9243V11.7909H13.2384V11.9243H13.1051ZM19.9582 13.9104H20.0915V14.0438H19.9582V13.9104ZM15.161 13.9104V14.0438H15.0277V13.9104H15.161ZM15.161 11.9243H15.0277V11.7909H15.161V11.9243ZM19.9582 11.9243V11.7909H20.0915V11.9243H19.9582ZM24.2071 15.3669L24.0893 15.4292L24.0887 15.4282L24.2071 15.3669ZM25.4407 15.8966V15.7632H25.574V15.8966H25.4407ZM25.4407 24.6356H25.574V24.769H25.4407V24.6356ZM20.6435 24.6356V24.769H20.5102V24.6356H20.6435ZM20.6435 15.8966H20.5102V15.7632H20.6435V15.8966ZM21.8771 15.3669L21.9955 15.4282L21.995 15.4292L21.8771 15.3669ZM22.0142 11.9243H21.8808V11.7909H22.0142V11.9243ZM24.0701 11.9243V11.7909H24.2034V11.9243H24.0701ZM30.9232 13.9104H31.0565V14.0438H30.9232V13.9104ZM26.126 13.9104V14.0438H25.9927V13.9104H26.126ZM26.126 11.9243H25.9927V11.7909H26.126V11.9243ZM30.9232 11.9243V11.7909H31.0565V11.9243H30.9232ZM7.62259 24.6356H7.75593V24.769H7.62259V24.6356ZM5.56665 24.6356V24.769H5.43332V24.6356H5.56665ZM5.56665 15.8966H5.43332V15.7632H5.56665V15.8966ZM7.62259 15.8966V15.7632H7.75593V15.8966H7.62259ZM18.5876 24.6356H18.7209V24.769H18.5876V24.6356ZM16.5317 24.6356V24.769H16.3983V24.6356H16.5317ZM16.5317 15.8966H16.3983V15.7632H16.5317V15.8966ZM18.5876 15.8966V15.7632H18.7209V15.8966H18.5876ZM29.5526 24.6356H29.6859V24.769H29.5526V24.6356ZM27.4966 24.6356V24.769H27.3633V24.6356H27.4966ZM27.4966 15.8966H27.3633V15.7632H27.4966V15.8966ZM29.5526 15.8966V15.7632H29.6859V15.8966H29.5526ZM3.51072 26.6218H3.37738V26.4885H3.51072V26.6218ZM31.6085 26.6218V26.4885H31.7419V26.6218H31.6085ZM33.0477 32.5803H33.181V32.7136H33.0477V32.5803ZM2.07156 32.5803V32.7136H1.93823V32.5803H2.07156ZM2.07156 30.5941H1.93823V30.4608H2.07156V30.5941ZM33.0477 30.5941V30.4608H33.181V30.5941H33.0477ZM3.51072 30.5941H3.64405V30.7274H3.51072V30.5941ZM31.6085 30.5941V30.7274H31.4752V30.5941H31.6085ZM9.06818 3.47105C6.78626 4.20256 4.68771 4.8811 3.14515 5.38417C2.37385 5.63572 1.74171 5.84335 1.29521 5.99178C1.07191 6.06601 0.895341 6.12534 0.771107 6.16792C0.708929 6.18923 0.660311 6.20618 0.625675 6.21864C0.586216 6.23283 0.57441 6.23791 0.576616 6.23678L0.45519 5.99937C0.471959 5.99079 0.503734 5.97911 0.53542 5.96771C0.571929 5.95458 0.622018 5.93712 0.684655 5.91565C0.810052 5.87268 0.987538 5.81305 1.21109 5.73873C1.65828 5.59007 2.29097 5.38226 3.06247 5.13065C4.60553 4.62741 6.70452 3.94874 8.98678 3.21712L9.06818 3.47105ZM0.578956 6.23556C0.533323 6.26005 0.472132 6.30795 0.411915 6.3699C0.352094 6.43144 0.301097 6.49878 0.271101 6.55673L0.0342742 6.43416C0.0796624 6.34646 0.148595 6.25821 0.220697 6.18403C0.292402 6.11026 0.375127 6.04231 0.45285 6.00059L0.578956 6.23556ZM0.270421 6.55803C0.241059 6.61326 0.221508 6.65688 0.20606 6.72189C0.189827 6.7902 0.177296 6.88589 0.168455 7.0449C0.150727 7.36379 0.148958 7.91015 0.148958 8.94503H-0.117708C-0.117708 7.91432 -0.11605 7.35836 -0.0978 7.0301C-0.0886511 6.86554 -0.0750547 6.75144 -0.0533815 6.66023C-0.0309227 6.56573 -0.000789234 6.5001 0.0349536 6.43286L0.270421 6.55803ZM0.148958 8.94503C0.148958 9.97992 0.150727 10.5263 0.168455 10.8452C0.177296 11.0042 0.189827 11.0999 0.20606 11.1682C0.221508 11.2332 0.241059 11.2768 0.270421 11.332L0.0349536 11.4572C-0.000789234 11.39 -0.0309227 11.3243 -0.0533815 11.2298C-0.0750547 11.1386 -0.0886511 11.0245 -0.0978 10.86C-0.11605 10.5317 -0.117708 9.97575 -0.117708 8.94503H0.148958ZM0.270689 11.3325C0.364392 11.5107 0.475562 11.6184 0.64886 11.6869C0.831493 11.7591 1.09114 11.7909 1.48905 11.7909V12.0576C1.08513 12.0576 0.782829 12.0266 0.550848 11.9349C0.309531 11.8395 0.15343 11.6824 0.0346855 11.4567L0.270689 11.3325ZM1.48905 11.7909H2.14009V12.0576H1.48905V11.7909ZM2.27343 11.9243V13.5132H2.00676V11.9243H2.27343ZM2.27343 13.5132C2.27343 14.2501 2.27694 14.6481 2.29532 14.8918C2.31306 15.127 2.34348 15.205 2.39557 15.3056L2.15874 15.4282C2.08748 15.2905 2.04937 15.1765 2.02941 14.9119C2.0101 14.6558 2.00676 14.246 2.00676 13.5132H2.27343ZM2.39503 15.3046C2.533 15.5656 2.87393 15.7632 3.23659 15.7632V16.0299C2.79059 16.0299 2.35026 15.7905 2.15928 15.4292L2.39503 15.3046ZM3.23659 15.7632H3.51072V16.0299H3.23659V15.7632ZM3.64405 15.8966V20.2661H3.37738V15.8966H3.64405ZM3.64405 20.2661V24.6356H3.37738V20.2661H3.64405ZM3.51072 24.769H2.89394V24.5023H3.51072V24.769ZM2.89394 24.769C2.51426 24.769 2.26328 24.8023 2.08506 24.875C1.91505 24.9443 1.80328 25.0527 1.70942 25.2282L1.47427 25.1024C1.59285 24.8807 1.74835 24.7242 1.9844 24.628C2.21222 24.5352 2.50606 24.5023 2.89394 24.5023V24.769ZM1.71026 25.2266C1.65817 25.3272 1.62774 25.4052 1.61001 25.6404C1.59163 25.8841 1.58811 26.2821 1.58811 27.019H1.32145C1.32145 26.2862 1.32478 25.8765 1.3441 25.6203C1.36405 25.3557 1.40216 25.2417 1.47343 25.104L1.71026 25.2266ZM1.58811 27.019V28.6079H1.32145V27.019H1.58811ZM1.45478 28.7413H1.14639V28.4746H1.45478V28.7413ZM1.14639 28.7413C0.745889 28.7413 0.413976 28.9284 0.270588 29.1999L0.0347866 29.0753C0.234055 28.698 0.669692 28.4746 1.14639 28.4746V28.7413ZM0.270421 29.2002C0.241059 29.2554 0.221508 29.299 0.20606 29.364C0.189827 29.4323 0.177296 29.528 0.168455 29.687C0.150727 30.0059 0.148958 30.5523 0.148958 31.5872H-0.117708C-0.117708 30.5565 -0.11605 30.0005 -0.0978 29.6722C-0.0886511 29.5077 -0.0750547 29.3936 -0.0533815 29.3024C-0.0309227 29.2079 -0.000789223 29.1422 0.0349536 29.075L0.270421 29.2002ZM0.148958 31.5872C0.148958 32.6221 0.150727 33.1684 0.168455 33.4873C0.177296 33.6463 0.189827 33.742 0.20606 33.8103C0.221508 33.8753 0.241059 33.9189 0.270421 33.9742L0.0349536 34.0993C-0.000789225 34.0321 -0.0309227 33.9665 -0.0533815 33.872C-0.0750547 33.7808 -0.0886511 33.6667 -0.0978 33.5021C-0.11605 33.1738 -0.117708 32.6179 -0.117708 31.5872H0.148958ZM0.271101 33.9755C0.346641 34.1214 0.469067 34.2401 0.621868 34.3139L0.505882 34.5541C0.30232 34.4557 0.136915 34.2964 0.0342742 34.0981L0.271101 33.9755ZM0.623065 34.3145C0.650753 34.3282 0.6703 34.3377 0.715957 34.3472C0.766933 34.3578 0.849795 34.3682 1.00135 34.3775C1.30369 34.3958 1.85694 34.4082 2.92581 34.4165C5.0616 34.4331 9.24296 34.4331 17.5596 34.4331V34.6997C9.24375 34.6997 5.06087 34.6997 2.92374 34.6832C1.85615 34.6749 1.29577 34.6625 0.98518 34.6436C0.830274 34.6342 0.731849 34.6229 0.66145 34.6082C0.585731 34.5924 0.543815 34.5729 0.504685 34.5535L0.623065 34.3145ZM17.5596 34.4331C25.8763 34.4331 30.0576 34.4331 32.1934 34.4165C33.2623 34.4082 33.8156 34.3958 34.1179 34.3775C34.2694 34.3682 34.3523 34.3578 34.4033 34.3472C34.4489 34.3377 34.4685 34.3282 34.4962 34.3145L34.6146 34.5535C34.5754 34.5729 34.5335 34.5924 34.4578 34.6082C34.3874 34.6229 34.289 34.6342 34.1341 34.6436C33.8235 34.6625 33.2631 34.6749 32.1955 34.6832C30.0584 34.6997 25.8755 34.6997 17.5596 34.6997V34.4331ZM34.4974 34.3139C34.6502 34.2401 34.7726 34.1214 34.8481 33.9755L35.085 34.0981C34.9823 34.2964 34.8169 34.4557 34.6134 34.5541L34.4974 34.3139ZM34.8488 33.9742C34.8782 33.9189 34.8977 33.8753 34.9132 33.8103C34.9294 33.742 34.9419 33.6463 34.9508 33.4873C34.9685 33.1684 34.9703 32.6221 34.9703 31.5872H35.2369C35.2369 32.6179 35.2353 33.1738 35.217 33.5021C35.2079 33.6667 35.1943 33.7808 35.1726 33.872C35.1502 33.9665 35.12 34.0321 35.0843 34.0993L34.8488 33.9742ZM34.9703 31.5872C34.9703 30.5523 34.9685 30.0059 34.9508 29.687C34.9419 29.528 34.9294 29.4323 34.9132 29.364C34.8977 29.299 34.8782 29.2554 34.8488 29.2002L35.0843 29.075C35.12 29.1422 35.1502 29.2079 35.1726 29.3024C35.1943 29.3936 35.2079 29.5077 35.217 29.6722C35.2353 30.0005 35.2369 30.5565 35.2369 31.5872H34.9703ZM34.8487 29.1999C34.7053 28.9284 34.3734 28.7413 33.9729 28.7413V28.4746C34.4495 28.4746 34.8852 28.698 35.0845 29.0753L34.8487 29.1999ZM33.9729 28.7413H33.6645V28.4746H33.9729V28.7413ZM33.5311 28.6079V27.019H33.7978V28.6079H33.5311ZM33.5311 27.019C33.5311 26.2821 33.5276 25.8841 33.5092 25.6404C33.4915 25.4052 33.4611 25.3272 33.409 25.2266L33.6458 25.104C33.7171 25.2417 33.7552 25.3557 33.7751 25.6203C33.7945 25.8765 33.7978 26.2862 33.7978 27.019H33.5311ZM33.4098 25.2282C33.316 25.0527 33.2042 24.9443 33.0342 24.875C32.856 24.8023 32.605 24.769 32.2253 24.769V24.5023C32.6132 24.5023 32.907 24.5352 33.1348 24.628C33.3709 24.7242 33.5264 24.8807 33.645 25.1024L33.4098 25.2282ZM32.2253 24.769H31.6085V24.5023H32.2253V24.769ZM31.4752 24.6356V20.2661H31.7419V24.6356H31.4752ZM31.4752 20.2661V15.8966H31.7419V20.2661H31.4752ZM31.6085 15.7632H31.8826V16.0299H31.6085V15.7632ZM31.8826 15.7632C32.2453 15.7632 32.5862 15.5656 32.7242 15.3046L32.96 15.4292C32.769 15.7905 32.3287 16.0299 31.8826 16.0299V15.7632ZM32.7237 15.3056C32.7758 15.205 32.8062 15.127 32.8239 14.8918C32.8423 14.6481 32.8458 14.2501 32.8458 13.5132H33.1125C33.1125 14.246 33.1091 14.6558 33.0898 14.9119C33.0699 15.1765 33.0318 15.2905 32.9605 15.4282L32.7237 15.3056ZM32.8458 13.5132V11.9243H33.1125V13.5132H32.8458ZM32.9791 11.7909H33.6302V12.0576H32.9791V11.7909ZM33.6302 11.7909C34.0281 11.7909 34.2877 11.7591 34.4704 11.6869C34.6437 11.6184 34.7548 11.5107 34.8485 11.3325L35.0846 11.4567C34.9658 11.6824 34.8097 11.8395 34.5684 11.9349C34.3364 12.0266 34.0341 12.0576 33.6302 12.0576V11.7909ZM34.8488 11.332C34.8782 11.2768 34.8977 11.2332 34.9132 11.1682C34.9294 11.0999 34.9419 11.0042 34.9508 10.8452C34.9685 10.5263 34.9703 9.97992 34.9703 8.94503H35.2369C35.2369 9.97575 35.2353 10.5317 35.217 10.86C35.2079 11.0245 35.1943 11.1386 35.1726 11.2298C35.1502 11.3243 35.12 11.39 35.0843 11.4572L34.8488 11.332ZM34.9703 8.94503C34.9703 7.91015 34.9685 7.36379 34.9508 7.0449C34.9419 6.88589 34.9294 6.7902 34.9132 6.72189C34.8977 6.65688 34.8782 6.61326 34.8488 6.55803L35.0843 6.43286C35.12 6.5001 35.1502 6.56573 35.1726 6.66023C35.1943 6.75144 35.2079 6.86554 35.217 7.0301C35.2353 7.35836 35.2369 7.91432 35.2369 8.94503H34.9703ZM34.8491 6.55864C34.7718 6.41497 34.6474 6.29076 34.5111 6.2249L34.6271 5.98477C34.8196 6.0778 34.9831 6.24489 35.084 6.43225L34.8491 6.55864ZM34.5103 6.22453C34.4926 6.21586 34.4134 6.18626 34.2652 6.13486C34.1221 6.08523 33.9243 6.01847 33.6794 5.93698C33.1897 5.77405 32.5132 5.55277 31.7126 5.2931C30.1114 4.7738 28.0146 4.10127 25.9245 3.43554C23.8344 2.76981 21.7513 2.11094 20.1776 1.61895C19.3906 1.37293 18.7313 1.16873 18.2622 1.02628C18.0276 0.955025 17.8411 0.899376 17.7102 0.861702C17.6446 0.842831 17.5938 0.828712 17.5581 0.819447C17.5402 0.814781 17.5273 0.811646 17.5187 0.809795C17.5167 0.809353 17.5151 0.809025 17.5139 0.808792C17.5132 0.808655 17.5131 0.808632 17.5126 0.808537C17.5121 0.808456 17.5124 0.808498 17.5121 0.80846C17.512 0.808434 17.5128 0.808548 17.5129 0.808567C17.5131 0.808594 17.5146 0.808777 17.5152 0.808842C17.5167 0.80899 17.5221 0.809517 17.5295 0.809288L17.5212 0.542751C17.5366 0.542271 17.5501 0.544468 17.5544 0.545174C17.5614 0.546288 17.5686 0.547733 17.5753 0.549206C17.589 0.552174 17.6059 0.556339 17.6253 0.561371C17.6642 0.571495 17.7176 0.586357 17.7839 0.605434C17.9167 0.643654 18.1048 0.699757 18.3397 0.771118C18.8099 0.913891 19.47 1.11835 20.2571 1.36443C21.8315 1.85661 23.9151 2.51564 26.0054 3.18145C28.0958 3.84727 30.1931 4.51995 31.7949 5.03945C32.5957 5.29918 33.2729 5.5207 33.7636 5.68395C34.0088 5.76556 34.2079 5.83274 34.3525 5.88291C34.4921 5.93129 34.5915 5.96733 34.6278 5.98514L34.5103 6.22453ZM17.5329 0.809135C17.5427 0.808582 17.5468 0.806976 17.5339 0.809971C17.5252 0.811996 17.5125 0.815208 17.4953 0.819794C17.4613 0.828918 17.4132 0.842525 17.3513 0.860561C17.2277 0.896576 17.0518 0.949444 16.8292 1.01746C16.3841 1.15345 15.7538 1.34946 14.9842 1.59107C13.4452 2.07427 11.3501 2.73954 9.06818 3.47105L8.98678 3.21712C11.269 2.48549 13.3647 1.82005 14.9044 1.33665C15.6742 1.09496 16.3052 0.898712 16.7513 0.762428C16.9742 0.694309 17.1514 0.641045 17.2767 0.604542C17.3392 0.586319 17.3895 0.572075 17.4264 0.562202C17.4447 0.557289 17.4606 0.553219 17.4735 0.550232C17.4822 0.548214 17.5007 0.543869 17.5178 0.5429L17.5329 0.809135ZM22.6716 4.2102L27.7087 5.8256L27.6273 6.07953L22.5902 4.46412L22.6716 4.2102ZM7.47872 5.82571L12.4472 4.21693L12.5294 4.47063L7.56087 6.07941L7.47872 5.82571ZM12.4472 4.21696C13.8144 3.77335 15.0653 3.36945 15.9787 3.07644C16.4353 2.92994 16.8077 2.81111 17.0682 2.72888C17.1984 2.68778 17.301 2.65573 17.3722 2.63392C17.4077 2.62304 17.4359 2.61454 17.4561 2.6087C17.4661 2.60581 17.4749 2.60333 17.482 2.60148C17.4854 2.60059 17.4895 2.59955 17.4937 2.59864C17.4957 2.59819 17.4989 2.59754 17.5025 2.59694C17.5044 2.59663 17.5137 2.59504 17.5254 2.59504V2.86171C17.5365 2.86171 17.5449 2.86021 17.5458 2.86008C17.5483 2.85965 17.5501 2.85927 17.5505 2.85917C17.5515 2.85897 17.5513 2.85899 17.5493 2.8595C17.5457 2.86046 17.5395 2.86217 17.5303 2.86484C17.5121 2.8701 17.4854 2.87812 17.4503 2.88888C17.3802 2.91036 17.2785 2.94214 17.1485 2.98318C16.8886 3.06522 16.5166 3.1839 16.0601 3.33036C15.1471 3.62325 13.8966 4.02706 12.5295 4.47061L12.4472 4.21696ZM17.5254 2.59504C17.5413 2.59504 17.555 2.59814 17.5553 2.5982C17.5597 2.59909 17.5641 2.60013 17.5678 2.60103C17.5753 2.60289 17.5845 2.60538 17.5948 2.60825C17.6157 2.61407 17.6447 2.62252 17.681 2.63332C17.7538 2.65498 17.8581 2.68679 17.9904 2.72758C18.255 2.80921 18.6327 2.92723 19.0954 3.07291C20.0208 3.36429 21.2871 3.76656 22.6716 4.21018L22.5902 4.46413C21.2061 4.02061 19.9402 3.61849 19.0153 3.32726C18.5528 3.18164 18.1757 3.0638 17.9118 2.9824C17.7798 2.94168 17.6764 2.91018 17.6049 2.88891C17.5691 2.87824 17.5419 2.87032 17.5233 2.86514C17.5138 2.86251 17.5075 2.86084 17.5038 2.85991C17.5018 2.85942 17.5016 2.85941 17.5026 2.8596C17.503 2.8597 17.5048 2.86004 17.5073 2.86041C17.5086 2.86061 17.5158 2.86171 17.5254 2.86171V2.59504ZM33.181 8.94503V9.93811H32.9143V8.94503H33.181ZM33.0477 10.0714H17.5596V9.80478H33.0477V10.0714ZM17.5596 10.0714H2.07156V9.80478H17.5596V10.0714ZM1.93823 9.93811V8.94503H2.2049V9.93811H1.93823ZM1.93823 8.94503V7.95196H2.2049V8.94503H1.93823ZM33.181 7.95196V8.94503H32.9143V7.95196H33.181ZM9.12655 12.9173V13.9104H8.85988V12.9173H9.12655ZM8.99322 14.0438H6.59462V13.7771H8.99322V14.0438ZM6.59462 14.0438H4.19603V13.7771H6.59462V14.0438ZM4.0627 13.9104V12.9173H4.32936V13.9104H4.0627ZM4.0627 12.9173V11.9243H4.32936V12.9173H4.0627ZM4.19603 11.7909H6.59462V12.0576H4.19603V11.7909ZM6.59462 11.7909H8.99322V12.0576H6.59462V11.7909ZM9.12655 11.9243V12.9173H8.85988V11.9243H9.12655ZM13.2384 13.5132C13.2384 14.2501 13.2419 14.6481 13.2603 14.8918C13.2781 15.127 13.3085 15.205 13.3606 15.3056L13.1237 15.4282C13.0525 15.2905 13.0144 15.1765 12.9944 14.9119C12.9751 14.6558 12.9718 14.246 12.9718 13.5132H13.2384ZM13.36 15.3046C13.498 15.5656 13.8389 15.7632 14.2016 15.7632V16.0299C13.7556 16.0299 13.3153 15.7905 13.1243 15.4292L13.36 15.3046ZM14.2016 15.7632H14.4757V16.0299H14.2016V15.7632ZM14.609 15.8966V20.2661H14.3424V15.8966H14.609ZM14.609 20.2661V24.6356H14.3424V20.2661H14.609ZM14.4757 24.769H12.0771V24.5023H14.4757V24.769ZM12.0771 24.769H9.67853V24.5023H12.0771V24.769ZM9.5452 24.6356V20.2661H9.81186V24.6356H9.5452ZM9.5452 20.2661V15.8966H9.81186V20.2661H9.5452ZM9.67853 15.7632H9.95265V16.0299H9.67853V15.7632ZM9.95265 15.7632C10.3153 15.7632 10.6562 15.5656 10.7942 15.3046L11.03 15.4292C10.839 15.7905 10.3987 16.0299 9.95265 16.0299V15.7632ZM10.7937 15.3056C10.8458 15.205 10.8762 15.127 10.8939 14.8918C10.9123 14.6481 10.9158 14.2501 10.9158 13.5132H11.1825C11.1825 14.246 11.1791 14.6558 11.1598 14.9119C11.1399 15.1765 11.1018 15.2905 11.0305 15.4282L10.7937 15.3056ZM10.9158 13.5132V11.9243H11.1825V13.5132H10.9158ZM11.0492 11.7909H12.0771V12.0576H11.0492V11.7909ZM12.0771 11.7909H13.1051V12.0576H12.0771V11.7909ZM13.2384 11.9243V13.5132H12.9718V11.9243H13.2384ZM20.0915 12.9173V13.9104H19.8249V12.9173H20.0915ZM19.9582 14.0438H17.5596V13.7771H19.9582V14.0438ZM17.5596 14.0438H15.161V13.7771H17.5596V14.0438ZM15.0277 13.9104V12.9173H15.2944V13.9104H15.0277ZM15.0277 12.9173V11.9243H15.2944V12.9173H15.0277ZM15.161 11.7909H17.5596V12.0576H15.161V11.7909ZM17.5596 11.7909H19.9582V12.0576H17.5596V11.7909ZM20.0915 11.9243V12.9173H19.8249V11.9243H20.0915ZM24.2034 13.5132C24.2034 14.2501 24.2069 14.6481 24.2253 14.8918C24.2431 15.127 24.2735 15.205 24.3256 15.3056L24.0887 15.4282C24.0175 15.2905 23.9794 15.1765 23.9594 14.9119C23.9401 14.6558 23.9368 14.246 23.9368 13.5132H24.2034ZM24.325 15.3046C24.463 15.5656 24.8039 15.7632 25.1666 15.7632V16.0299C24.7206 16.0299 24.2803 15.7905 24.0893 15.4292L24.325 15.3046ZM25.1666 15.7632H25.4407V16.0299H25.1666V15.7632ZM25.574 15.8966V20.2661H25.3074V15.8966H25.574ZM25.574 20.2661V24.6356H25.3074V20.2661H25.574ZM25.4407 24.769H23.0421V24.5023H25.4407V24.769ZM23.0421 24.769H20.6435V24.5023H23.0421V24.769ZM20.5102 24.6356V20.2661H20.7769V24.6356H20.5102ZM20.5102 20.2661V15.8966H20.7769V20.2661H20.5102ZM20.6435 15.7632H20.9177V16.0299H20.6435V15.7632ZM20.9177 15.7632C21.2803 15.7632 21.6212 15.5656 21.7592 15.3046L21.995 15.4292C21.804 15.7905 21.3637 16.0299 20.9177 16.0299V15.7632ZM21.7587 15.3056C21.8108 15.205 21.8412 15.127 21.8589 14.8918C21.8773 14.6481 21.8808 14.2501 21.8808 13.5132H22.1475C22.1475 14.246 22.1441 14.6558 22.1248 14.9119C22.1049 15.1765 22.0668 15.2905 21.9955 15.4282L21.7587 15.3056ZM21.8808 13.5132V11.9243H22.1475V13.5132H21.8808ZM22.0142 11.7909H23.0421V12.0576H22.0142V11.7909ZM23.0421 11.7909H24.0701V12.0576H23.0421V11.7909ZM24.2034 11.9243V13.5132H23.9368V11.9243H24.2034ZM31.0565 12.9173V13.9104H30.7899V12.9173H31.0565ZM30.9232 14.0438H28.5246V13.7771H30.9232V14.0438ZM28.5246 14.0438H26.126V13.7771H28.5246V14.0438ZM25.9927 13.9104V12.9173H26.2594V13.9104H25.9927ZM25.9927 12.9173V11.9243H26.2594V12.9173H25.9927ZM26.126 11.7909H28.5246V12.0576H26.126V11.7909ZM28.5246 11.7909H30.9232V12.0576H28.5246V11.7909ZM31.0565 11.9243V12.9173H30.7899V11.9243H31.0565ZM7.75593 20.2661V24.6356H7.48926V20.2661H7.75593ZM7.62259 24.769H6.59462V24.5023H7.62259V24.769ZM6.59462 24.769H5.56665V24.5023H6.59462V24.769ZM5.43332 24.6356V20.2661H5.69999V24.6356H5.43332ZM5.43332 20.2661V15.8966H5.69999V20.2661H5.43332ZM5.56665 15.7632H6.59462V16.0299H5.56665V15.7632ZM6.59462 15.7632H7.62259V16.0299H6.59462V15.7632ZM7.75593 15.8966V20.2661H7.48926V15.8966H7.75593ZM18.7209 20.2661V24.6356H18.4543V20.2661H18.7209ZM18.5876 24.769H17.5596V24.5023H18.5876V24.769ZM17.5596 24.769H16.5317V24.5023H17.5596V24.769ZM16.3983 24.6356V20.2661H16.665V24.6356H16.3983ZM16.3983 20.2661V15.8966H16.665V20.2661H16.3983ZM16.5317 15.7632H17.5596V16.0299H16.5317V15.7632ZM17.5596 15.7632H18.5876V16.0299H17.5596V15.7632ZM18.7209 15.8966V20.2661H18.4543V15.8966H18.7209ZM29.6859 20.2661V24.6356H29.4193V20.2661H29.6859ZM29.5526 24.769H28.5246V24.5023H29.5526V24.769ZM28.5246 24.769H27.4966V24.5023H28.5246V24.769ZM27.3633 24.6356V20.2661H27.63V24.6356H27.3633ZM27.3633 20.2661V15.8966H27.63V20.2661H27.3633ZM27.4966 15.7632H28.5246V16.0299H27.4966V15.7632ZM28.5246 15.7632H29.5526V16.0299H28.5246V15.7632ZM29.6859 15.8966V20.2661H29.4193V15.8966H29.6859ZM31.7419 27.6149V28.6079H31.4752V27.6149H31.7419ZM3.37738 28.6079V27.6149H3.64405V28.6079H3.37738ZM3.37738 27.6149V26.6218H3.64405V27.6149H3.37738ZM3.51072 26.4885H17.5596V26.7551H3.51072V26.4885ZM17.5596 26.4885H31.6085V26.7551H17.5596V26.4885ZM31.7419 26.6218V27.6149H31.4752V26.6218H31.7419ZM33.181 31.5872V32.5803H32.9143V31.5872H33.181ZM33.0477 32.7136H17.5596V32.4469H33.0477V32.7136ZM17.5596 32.7136H2.07156V32.4469H17.5596V32.7136ZM1.93823 32.5803V31.5872H2.2049V32.5803H1.93823ZM1.93823 31.5872V30.5941H2.2049V31.5872H1.93823ZM33.181 30.5941V31.5872H32.9143V30.5941H33.181ZM7.56573 6.07773L2.1175 8.07713L2.02563 7.82679L7.47386 5.82739L7.56573 6.07773ZM27.7144 5.82758L33.0941 7.82698L33.0012 8.07694L27.6215 6.07755L27.7144 5.82758ZM2.07156 30.4608H3.51072V30.7274H2.07156V30.4608ZM3.64405 28.6079V30.5941H3.37738V28.6079H3.64405ZM31.6085 30.4608H33.0477V30.7274H31.6085V30.4608ZM31.7419 28.6079V30.5941H31.4752V28.6079H31.7419Z" fill="#FCFBF7" mask="url(#path-1-inside-1_1403_11384)"/>
</svg>
