<svg width="38" height="38" viewBox="0 0 38 38" fill="none" xmlns="http://www.w3.org/2000/svg">
<mask id="path-1-inside-1_1403_11412" fill="white">
<path d="M20.4944 10.5506C20.9948 10.712 21.2754 10.9434 21.637 11.3204C21.775 11.4629 21.775 11.4629 21.9158 11.6082C21.9847 11.681 22.0536 11.7538 22.1246 11.8288C21.9957 12.1576 21.861 12.4711 21.7025 12.7874C21.4371 13.5098 21.4464 14.104 21.7316 14.8209C22.045 15.4563 22.5136 15.8572 23.1726 16.1281C23.96 16.2246 24.6232 16.1924 25.3014 15.765C25.5015 15.6633 25.5015 15.6633 25.9673 15.6633C26.2087 15.8705 26.4206 16.0719 26.6369 16.3024C26.6958 16.3633 26.7548 16.4243 26.8156 16.4871C26.9609 16.6375 27.1047 16.7894 27.2482 16.9415C26.9957 17.5823 26.4328 17.7945 25.8509 18.1034C25.7802 18.1437 25.7095 18.184 25.6366 18.2255C24.7353 18.6559 23.4882 18.5913 22.5376 18.3499C21.1287 17.8037 20.2222 16.9334 19.5809 15.5704C19.3256 14.9632 19.2707 14.4151 19.279 13.7606C19.2799 13.6634 19.2808 13.5662 19.2817 13.4661C19.3138 12.2653 19.7284 11.4627 20.4944 10.5506Z"/>
<path fill-rule="evenodd" clip-rule="evenodd" d="M23.5219 0.673837C24.1923 0.725752 24.8048 0.666915 25.4546 0.5034C28.7041 -0.216535 32.4786 0.493357 35.5157 1.71961C35.9291 1.99479 36.0317 2.30627 36.1725 2.73396L36.2143 2.8598L36.3071 3.13106C36.5616 3.89133 36.7661 4.64934 36.913 5.43792L36.9608 5.68206C37.7327 9.71436 37.188 13.7472 35.0499 17.29C34.3983 18.2464 33.6576 19.1443 32.8374 19.9626C32.8215 20.1971 32.8104 20.4321 32.8011 20.667C32.6459 22.9131 31.8097 24.8392 30.3921 26.5858L30.1797 26.8554C27.899 29.5941 24.2451 30.788 20.8436 31.3499L20.7704 31.029C20.5459 30.0757 20.2782 29.1424 19.9703 28.2126L19.87 27.9059C19.709 27.4286 19.5345 26.9763 19.3044 26.5277C19.097 26.121 19.097 26.121 19.097 25.8886L18.7221 25.9608L18.2236 26.0557L17.978 26.1031C17.1672 26.2567 16.3737 26.37 15.5454 26.3607L15.1779 26.3575L14.9049 26.3534L15.0587 26.5241C16.5986 28.2537 17.3751 29.8034 17.257 32.1439C17.2027 32.7342 17.0132 33.2547 16.7681 33.7901L16.6443 34.0665C16.0946 35.1617 15.1567 36.0497 14.2529 36.9054L14.2454 36.9127C14.0346 37.1122 13.8255 37.31 13.624 37.5084C12.8933 36.908 12.2197 36.2526 11.5485 35.5876L11.3429 35.3857L11.1582 35.2055C9.75316 33.8401 8.60077 32.3732 8.48228 30.3404C8.47637 29.8501 8.48956 29.3866 8.61692 28.9098L8.42133 28.9665C6.98851 29.2818 5.53727 28.8507 4.29982 28.133C3.44831 27.5524 2.70643 26.783 1.98024 26.0299L1.76396 25.8059C1.63682 25.6746 1.50992 25.5445 1.38278 25.4166L0 24.0295C1.45192 22.3073 2.99186 20.5368 5.37329 20.2847C6.5266 20.2058 7.55254 20.2905 8.61692 20.776L8.89393 20.8994C9.73747 21.321 10.4004 21.9747 11.0623 22.6351L11.0968 22.174C11.2506 20.2564 11.4942 18.3442 11.9511 16.4727C12.0081 16.2068 12.0081 16.2068 11.9938 15.7795C10.5812 15.0334 8.98672 14.6412 7.42904 14.3196C7.21958 14.2689 7.21958 14.2689 6.98669 14.1527C7.33284 12.0107 7.88777 9.94533 8.84981 7.99426L8.95988 7.76834C10.5255 4.59147 13.1303 1.98525 16.5211 0.823623C18.6339 0.14312 21.3865 -0.0364524 23.5219 0.673837ZM21.3094 4.62454L21.3783 4.80837C23.216 9.66545 26.5642 13.4718 31.3237 15.6633C31.7346 15.8363 32.1508 15.991 32.5727 16.1353C32.8374 16.2443 32.8374 16.2443 32.9539 16.4767L32.0223 17.6386L31.7954 17.9364C31.4169 18.3853 30.9561 18.7403 30.4931 19.0971C30.4205 19.1531 30.348 19.209 30.2757 19.2654L29.9727 19.5028C26.1601 22.3822 21.157 23.6001 16.4842 24.1166L16.0833 24.1616C15.1449 24.2582 14.2179 24.2779 13.2747 24.2619C13.0295 18.4232 14.7573 11.2178 18.7185 6.77419L18.8941 6.58707C19.0001 6.47468 19.1065 6.36268 19.2134 6.2513L19.5045 5.94629C20.6169 4.89177 20.8418 4.67856 21.0958 4.63544L21.1225 4.63158L21.135 4.6301L21.1684 4.62727L21.21 4.62545C21.2407 4.62454 21.2735 4.62454 21.3094 4.62454ZM32.4499 2.98592L32.3496 2.96221L32.2384 2.93475C29.3104 2.18497 25.9445 2.18497 23.1725 3.46257C23.1725 3.67494 23.1725 3.75794 23.1878 3.83806C23.1975 3.88946 23.2135 3.93967 23.2396 4.02205C24.9861 8.33605 27.8369 11.7481 32.1333 13.7203L32.4153 13.8477C32.9823 14.105 33.4924 14.3157 34.1183 14.3851C34.1977 14.1563 34.2771 13.9275 34.3553 13.6984L34.4531 13.412C34.885 12.1728 35.0833 11.0419 35.0817 9.72882C35.0801 9.47521 35.079 9.22165 35.0804 8.96798C35.0856 8.05849 35.0672 7.17839 34.8777 6.2841L34.817 6.01891C34.7699 5.78056 34.7201 5.54402 34.6667 5.30805C34.6335 5.16105 34.5987 5.01427 34.5623 4.86738L34.4677 4.50835C34.3972 4.20639 34.3219 3.9492 34.1843 3.67136C34.114 3.5908 34.0594 3.52839 34.0067 3.47755C33.978 3.44998 33.95 3.42581 33.9202 3.40402C33.7613 3.28776 33.5536 3.23806 32.9566 3.09537C32.787 3.06053 32.6182 3.02496 32.4499 2.98592ZM20.2614 2.53299C20.0055 2.80039 19.7351 3.02269 19.439 3.2447C16.0168 5.88592 14.1344 9.532 12.8089 13.5717C12.2212 13.4983 11.7175 13.3227 11.1714 13.1069C10.6722 12.9108 10.1982 12.7251 9.66492 12.6422C9.70972 11.8047 9.87484 11.0901 10.1816 10.3109L10.3056 9.99237C11.5203 6.9793 13.6543 4.41377 16.6678 3.08652C17.8636 2.59699 18.9835 2.46224 20.2614 2.53299ZM25.8485 27.5137C28.1051 26.2866 29.6561 24.3862 30.3921 21.9379C30.2829 21.9379 30.2249 21.9379 30.1697 21.9502C30.1071 21.9642 30.048 21.994 29.9218 22.0578C27.2576 23.5677 24.4939 24.6773 21.5073 25.3783L21.3094 25.4238C21.4006 25.8096 21.5271 26.174 21.6674 26.545L21.7606 26.7892L21.9417 27.2667C22.069 27.6017 22.1959 27.937 22.3219 28.2725L22.4739 28.6774C23.1 28.6268 23.6169 28.5072 24.1971 28.2677L24.4752 28.1472C24.9392 27.9481 25.3988 27.7436 25.8485 27.5137ZM10.3888 24.9777L10.3943 24.9829L10.5965 25.1915C10.2803 25.8951 9.71427 26.3059 9.02447 26.6294C8.04129 26.9813 6.93165 26.9982 5.96052 26.6003C5.0351 26.0834 4.2839 25.2663 3.56021 24.4788C3.42079 24.3271 3.28252 24.1766 3.14401 24.0295C3.47379 23.3317 4.04714 23.0073 4.71602 22.6496C5.96984 22.236 7.31942 22.434 8.39767 23.1467C9.12978 23.6784 9.76044 24.3292 10.3888 24.9777ZM13.3111 27.8567C12.944 27.4894 12.6036 27.1272 12.1103 26.9344L11.8046 27.1959C11.1112 27.9027 10.6829 28.7351 10.6597 29.7288C10.6731 31.0747 11.1455 32.0861 12.1023 33.0311L12.3504 33.2672L12.4792 33.3952C12.8662 33.7817 13.2269 34.1416 13.7405 34.371C14.5099 33.4783 15.0334 32.6897 15.058 31.4832C15.0564 30.0064 14.544 29.1159 13.5142 28.0596L13.3111 27.8567Z"/>
<path d="M30.5085 5.67033C30.963 5.85469 31.2462 6.15063 31.5857 6.49823C31.6895 6.60398 31.7934 6.70973 31.9004 6.81868C31.9791 6.89987 32.0577 6.98105 32.1388 7.06469C31.6595 7.63631 31.1602 8.17164 30.625 8.69145C30.1705 8.50709 29.8873 8.21115 29.5479 7.86355C29.444 7.7578 29.3401 7.65205 29.2331 7.5431C29.1545 7.46192 29.0758 7.38073 28.9948 7.29709C29.4741 6.72547 29.9734 6.19014 30.5085 5.67033Z"/>
</mask>
<path d="M20.4944 10.5506C20.9948 10.712 21.2754 10.9434 21.637 11.3204C21.775 11.4629 21.775 11.4629 21.9158 11.6082C21.9847 11.681 22.0536 11.7538 22.1246 11.8288C21.9957 12.1576 21.861 12.4711 21.7025 12.7874C21.4371 13.5098 21.4464 14.104 21.7316 14.8209C22.045 15.4563 22.5136 15.8572 23.1726 16.1281C23.96 16.2246 24.6232 16.1924 25.3014 15.765C25.5015 15.6633 25.5015 15.6633 25.9673 15.6633C26.2087 15.8705 26.4206 16.0719 26.6369 16.3024C26.6958 16.3633 26.7548 16.4243 26.8156 16.4871C26.9609 16.6375 27.1047 16.7894 27.2482 16.9415C26.9957 17.5823 26.4328 17.7945 25.8509 18.1034C25.7802 18.1437 25.7095 18.184 25.6366 18.2255C24.7353 18.6559 23.4882 18.5913 22.5376 18.3499C21.1287 17.8037 20.2222 16.9334 19.5809 15.5704C19.3256 14.9632 19.2707 14.4151 19.279 13.7606C19.2799 13.6634 19.2808 13.5662 19.2817 13.4661C19.3138 12.2653 19.7284 11.4627 20.4944 10.5506Z" fill="#FCFBF7"/>
<path fill-rule="evenodd" clip-rule="evenodd" d="M23.5219 0.673837C24.1923 0.725752 24.8048 0.666915 25.4546 0.5034C28.7041 -0.216535 32.4786 0.493357 35.5157 1.71961C35.9291 1.99479 36.0317 2.30627 36.1725 2.73396L36.2143 2.8598L36.3071 3.13106C36.5616 3.89133 36.7661 4.64934 36.913 5.43792L36.9608 5.68206C37.7327 9.71436 37.188 13.7472 35.0499 17.29C34.3983 18.2464 33.6576 19.1443 32.8374 19.9626C32.8215 20.1971 32.8104 20.4321 32.8011 20.667C32.6459 22.9131 31.8097 24.8392 30.3921 26.5858L30.1797 26.8554C27.899 29.5941 24.2451 30.788 20.8436 31.3499L20.7704 31.029C20.5459 30.0757 20.2782 29.1424 19.9703 28.2126L19.87 27.9059C19.709 27.4286 19.5345 26.9763 19.3044 26.5277C19.097 26.121 19.097 26.121 19.097 25.8886L18.7221 25.9608L18.2236 26.0557L17.978 26.1031C17.1672 26.2567 16.3737 26.37 15.5454 26.3607L15.1779 26.3575L14.9049 26.3534L15.0587 26.5241C16.5986 28.2537 17.3751 29.8034 17.257 32.1439C17.2027 32.7342 17.0132 33.2547 16.7681 33.7901L16.6443 34.0665C16.0946 35.1617 15.1567 36.0497 14.2529 36.9054L14.2454 36.9127C14.0346 37.1122 13.8255 37.31 13.624 37.5084C12.8933 36.908 12.2197 36.2526 11.5485 35.5876L11.3429 35.3857L11.1582 35.2055C9.75316 33.8401 8.60077 32.3732 8.48228 30.3404C8.47637 29.8501 8.48956 29.3866 8.61692 28.9098L8.42133 28.9665C6.98851 29.2818 5.53727 28.8507 4.29982 28.133C3.44831 27.5524 2.70643 26.783 1.98024 26.0299L1.76396 25.8059C1.63682 25.6746 1.50992 25.5445 1.38278 25.4166L0 24.0295C1.45192 22.3073 2.99186 20.5368 5.37329 20.2847C6.5266 20.2058 7.55254 20.2905 8.61692 20.776L8.89393 20.8994C9.73747 21.321 10.4004 21.9747 11.0623 22.6351L11.0968 22.174C11.2506 20.2564 11.4942 18.3442 11.9511 16.4727C12.0081 16.2068 12.0081 16.2068 11.9938 15.7795C10.5812 15.0334 8.98672 14.6412 7.42904 14.3196C7.21958 14.2689 7.21958 14.2689 6.98669 14.1527C7.33284 12.0107 7.88777 9.94533 8.84981 7.99426L8.95988 7.76834C10.5255 4.59147 13.1303 1.98525 16.5211 0.823623C18.6339 0.14312 21.3865 -0.0364524 23.5219 0.673837ZM21.3094 4.62454L21.3783 4.80837C23.216 9.66545 26.5642 13.4718 31.3237 15.6633C31.7346 15.8363 32.1508 15.991 32.5727 16.1353C32.8374 16.2443 32.8374 16.2443 32.9539 16.4767L32.0223 17.6386L31.7954 17.9364C31.4169 18.3853 30.9561 18.7403 30.4931 19.0971C30.4205 19.1531 30.348 19.209 30.2757 19.2654L29.9727 19.5028C26.1601 22.3822 21.157 23.6001 16.4842 24.1166L16.0833 24.1616C15.1449 24.2582 14.2179 24.2779 13.2747 24.2619C13.0295 18.4232 14.7573 11.2178 18.7185 6.77419L18.8941 6.58707C19.0001 6.47468 19.1065 6.36268 19.2134 6.2513L19.5045 5.94629C20.6169 4.89177 20.8418 4.67856 21.0958 4.63544L21.1225 4.63158L21.135 4.6301L21.1684 4.62727L21.21 4.62545C21.2407 4.62454 21.2735 4.62454 21.3094 4.62454ZM32.4499 2.98592L32.3496 2.96221L32.2384 2.93475C29.3104 2.18497 25.9445 2.18497 23.1725 3.46257C23.1725 3.67494 23.1725 3.75794 23.1878 3.83806C23.1975 3.88946 23.2135 3.93967 23.2396 4.02205C24.9861 8.33605 27.8369 11.7481 32.1333 13.7203L32.4153 13.8477C32.9823 14.105 33.4924 14.3157 34.1183 14.3851C34.1977 14.1563 34.2771 13.9275 34.3553 13.6984L34.4531 13.412C34.885 12.1728 35.0833 11.0419 35.0817 9.72882C35.0801 9.47521 35.079 9.22165 35.0804 8.96798C35.0856 8.05849 35.0672 7.17839 34.8777 6.2841L34.817 6.01891C34.7699 5.78056 34.7201 5.54402 34.6667 5.30805C34.6335 5.16105 34.5987 5.01427 34.5623 4.86738L34.4677 4.50835C34.3972 4.20639 34.3219 3.9492 34.1843 3.67136C34.114 3.5908 34.0594 3.52839 34.0067 3.47755C33.978 3.44998 33.95 3.42581 33.9202 3.40402C33.7613 3.28776 33.5536 3.23806 32.9566 3.09537C32.787 3.06053 32.6182 3.02496 32.4499 2.98592ZM20.2614 2.53299C20.0055 2.80039 19.7351 3.02269 19.439 3.2447C16.0168 5.88592 14.1344 9.532 12.8089 13.5717C12.2212 13.4983 11.7175 13.3227 11.1714 13.1069C10.6722 12.9108 10.1982 12.7251 9.66492 12.6422C9.70972 11.8047 9.87484 11.0901 10.1816 10.3109L10.3056 9.99237C11.5203 6.9793 13.6543 4.41377 16.6678 3.08652C17.8636 2.59699 18.9835 2.46224 20.2614 2.53299ZM25.8485 27.5137C28.1051 26.2866 29.6561 24.3862 30.3921 21.9379C30.2829 21.9379 30.2249 21.9379 30.1697 21.9502C30.1071 21.9642 30.048 21.994 29.9218 22.0578C27.2576 23.5677 24.4939 24.6773 21.5073 25.3783L21.3094 25.4238C21.4006 25.8096 21.5271 26.174 21.6674 26.545L21.7606 26.7892L21.9417 27.2667C22.069 27.6017 22.1959 27.937 22.3219 28.2725L22.4739 28.6774C23.1 28.6268 23.6169 28.5072 24.1971 28.2677L24.4752 28.1472C24.9392 27.9481 25.3988 27.7436 25.8485 27.5137ZM10.3888 24.9777L10.3943 24.9829L10.5965 25.1915C10.2803 25.8951 9.71427 26.3059 9.02447 26.6294C8.04129 26.9813 6.93165 26.9982 5.96052 26.6003C5.0351 26.0834 4.2839 25.2663 3.56021 24.4788C3.42079 24.3271 3.28252 24.1766 3.14401 24.0295C3.47379 23.3317 4.04714 23.0073 4.71602 22.6496C5.96984 22.236 7.31942 22.434 8.39767 23.1467C9.12978 23.6784 9.76044 24.3292 10.3888 24.9777ZM13.3111 27.8567C12.944 27.4894 12.6036 27.1272 12.1103 26.9344L11.8046 27.1959C11.1112 27.9027 10.6829 28.7351 10.6597 29.7288C10.6731 31.0747 11.1455 32.0861 12.1023 33.0311L12.3504 33.2672L12.4792 33.3952C12.8662 33.7817 13.2269 34.1416 13.7405 34.371C14.5099 33.4783 15.0334 32.6897 15.058 31.4832C15.0564 30.0064 14.544 29.1159 13.5142 28.0596L13.3111 27.8567Z" fill="#FCFBF7"/>
<path d="M30.5085 5.67033C30.963 5.85469 31.2462 6.15063 31.5857 6.49823C31.6895 6.60398 31.7934 6.70973 31.9004 6.81868C31.9791 6.89987 32.0577 6.98105 32.1388 7.06469C31.6595 7.63631 31.1602 8.17164 30.625 8.69145C30.1705 8.50709 29.8873 8.21115 29.5479 7.86355C29.444 7.7578 29.3401 7.65205 29.2331 7.5431C29.1545 7.46192 29.0758 7.38073 28.9948 7.29709C29.4741 6.72547 29.9734 6.19014 30.5085 5.67033Z" fill="#FCFBF7"/>
<path d="M20.4944 10.5506C20.9948 10.712 21.2754 10.9434 21.637 11.3204C21.775 11.4629 21.775 11.4629 21.9158 11.6082C21.9847 11.681 22.0536 11.7538 22.1246 11.8288C21.9957 12.1576 21.861 12.4711 21.7025 12.7874C21.4371 13.5098 21.4464 14.104 21.7316 14.8209C22.045 15.4563 22.5136 15.8572 23.1726 16.1281C23.96 16.2246 24.6232 16.1924 25.3014 15.765C25.5015 15.6633 25.5015 15.6633 25.9673 15.6633C26.2087 15.8705 26.4206 16.0719 26.6369 16.3024C26.6958 16.3633 26.7548 16.4243 26.8156 16.4871C26.9609 16.6375 27.1047 16.7894 27.2482 16.9415C26.9957 17.5823 26.4328 17.7945 25.8509 18.1034C25.7802 18.1437 25.7095 18.184 25.6366 18.2255C24.7353 18.6559 23.4882 18.5913 22.5376 18.3499C21.1287 17.8037 20.2222 16.9334 19.5809 15.5704C19.3256 14.9632 19.2707 14.4151 19.279 13.7606C19.2799 13.6634 19.2808 13.5662 19.2817 13.4661C19.3138 12.2653 19.7284 11.4627 20.4944 10.5506Z" stroke="#FCFBF7" stroke-width="2" mask="url(#path-1-inside-1_1403_11412)"/>
<path fill-rule="evenodd" clip-rule="evenodd" d="M23.5219 0.673837C24.1923 0.725752 24.8048 0.666915 25.4546 0.5034C28.7041 -0.216535 32.4786 0.493357 35.5157 1.71961C35.9291 1.99479 36.0317 2.30627 36.1725 2.73396L36.2143 2.8598L36.3071 3.13106C36.5616 3.89133 36.7661 4.64934 36.913 5.43792L36.9608 5.68206C37.7327 9.71436 37.188 13.7472 35.0499 17.29C34.3983 18.2464 33.6576 19.1443 32.8374 19.9626C32.8215 20.1971 32.8104 20.4321 32.8011 20.667C32.6459 22.9131 31.8097 24.8392 30.3921 26.5858L30.1797 26.8554C27.899 29.5941 24.2451 30.788 20.8436 31.3499L20.7704 31.029C20.5459 30.0757 20.2782 29.1424 19.9703 28.2126L19.87 27.9059C19.709 27.4286 19.5345 26.9763 19.3044 26.5277C19.097 26.121 19.097 26.121 19.097 25.8886L18.7221 25.9608L18.2236 26.0557L17.978 26.1031C17.1672 26.2567 16.3737 26.37 15.5454 26.3607L15.1779 26.3575L14.9049 26.3534L15.0587 26.5241C16.5986 28.2537 17.3751 29.8034 17.257 32.1439C17.2027 32.7342 17.0132 33.2547 16.7681 33.7901L16.6443 34.0665C16.0946 35.1617 15.1567 36.0497 14.2529 36.9054L14.2454 36.9127C14.0346 37.1122 13.8255 37.31 13.624 37.5084C12.8933 36.908 12.2197 36.2526 11.5485 35.5876L11.3429 35.3857L11.1582 35.2055C9.75316 33.8401 8.60077 32.3732 8.48228 30.3404C8.47637 29.8501 8.48956 29.3866 8.61692 28.9098L8.42133 28.9665C6.98851 29.2818 5.53727 28.8507 4.29982 28.133C3.44831 27.5524 2.70643 26.783 1.98024 26.0299L1.76396 25.8059C1.63682 25.6746 1.50992 25.5445 1.38278 25.4166L0 24.0295C1.45192 22.3073 2.99186 20.5368 5.37329 20.2847C6.5266 20.2058 7.55254 20.2905 8.61692 20.776L8.89393 20.8994C9.73747 21.321 10.4004 21.9747 11.0623 22.6351L11.0968 22.174C11.2506 20.2564 11.4942 18.3442 11.9511 16.4727C12.0081 16.2068 12.0081 16.2068 11.9938 15.7795C10.5812 15.0334 8.98672 14.6412 7.42904 14.3196C7.21958 14.2689 7.21958 14.2689 6.98669 14.1527C7.33284 12.0107 7.88777 9.94533 8.84981 7.99426L8.95988 7.76834C10.5255 4.59147 13.1303 1.98525 16.5211 0.823623C18.6339 0.14312 21.3865 -0.0364524 23.5219 0.673837ZM21.3094 4.62454L21.3783 4.80837C23.216 9.66545 26.5642 13.4718 31.3237 15.6633C31.7346 15.8363 32.1508 15.991 32.5727 16.1353C32.8374 16.2443 32.8374 16.2443 32.9539 16.4767L32.0223 17.6386L31.7954 17.9364C31.4169 18.3853 30.9561 18.7403 30.4931 19.0971C30.4205 19.1531 30.348 19.209 30.2757 19.2654L29.9727 19.5028C26.1601 22.3822 21.157 23.6001 16.4842 24.1166L16.0833 24.1616C15.1449 24.2582 14.2179 24.2779 13.2747 24.2619C13.0295 18.4232 14.7573 11.2178 18.7185 6.77419L18.8941 6.58707C19.0001 6.47468 19.1065 6.36268 19.2134 6.2513L19.5045 5.94629C20.6169 4.89177 20.8418 4.67856 21.0958 4.63544L21.1225 4.63158L21.135 4.6301L21.1684 4.62727L21.21 4.62545C21.2407 4.62454 21.2735 4.62454 21.3094 4.62454ZM32.4499 2.98592L32.3496 2.96221L32.2384 2.93475C29.3104 2.18497 25.9445 2.18497 23.1725 3.46257C23.1725 3.67494 23.1725 3.75794 23.1878 3.83806C23.1975 3.88946 23.2135 3.93967 23.2396 4.02205C24.9861 8.33605 27.8369 11.7481 32.1333 13.7203L32.4153 13.8477C32.9823 14.105 33.4924 14.3157 34.1183 14.3851C34.1977 14.1563 34.2771 13.9275 34.3553 13.6984L34.4531 13.412C34.885 12.1728 35.0833 11.0419 35.0817 9.72882C35.0801 9.47521 35.079 9.22165 35.0804 8.96798C35.0856 8.05849 35.0672 7.17839 34.8777 6.2841L34.817 6.01891C34.7699 5.78056 34.7201 5.54402 34.6667 5.30805C34.6335 5.16105 34.5987 5.01427 34.5623 4.86738L34.4677 4.50835C34.3972 4.20639 34.3219 3.9492 34.1843 3.67136C34.114 3.5908 34.0594 3.52839 34.0067 3.47755C33.978 3.44998 33.95 3.42581 33.9202 3.40402C33.7613 3.28776 33.5536 3.23806 32.9566 3.09537C32.787 3.06053 32.6182 3.02496 32.4499 2.98592ZM20.2614 2.53299C20.0055 2.80039 19.7351 3.02269 19.439 3.2447C16.0168 5.88592 14.1344 9.532 12.8089 13.5717C12.2212 13.4983 11.7175 13.3227 11.1714 13.1069C10.6722 12.9108 10.1982 12.7251 9.66492 12.6422C9.70972 11.8047 9.87484 11.0901 10.1816 10.3109L10.3056 9.99237C11.5203 6.9793 13.6543 4.41377 16.6678 3.08652C17.8636 2.59699 18.9835 2.46224 20.2614 2.53299ZM25.8485 27.5137C28.1051 26.2866 29.6561 24.3862 30.3921 21.9379C30.2829 21.9379 30.2249 21.9379 30.1697 21.9502C30.1071 21.9642 30.048 21.994 29.9218 22.0578C27.2576 23.5677 24.4939 24.6773 21.5073 25.3783L21.3094 25.4238C21.4006 25.8096 21.5271 26.174 21.6674 26.545L21.7606 26.7892L21.9417 27.2667C22.069 27.6017 22.1959 27.937 22.3219 28.2725L22.4739 28.6774C23.1 28.6268 23.6169 28.5072 24.1971 28.2677L24.4752 28.1472C24.9392 27.9481 25.3988 27.7436 25.8485 27.5137ZM10.3888 24.9777L10.3943 24.9829L10.5965 25.1915C10.2803 25.8951 9.71427 26.3059 9.02447 26.6294C8.04129 26.9813 6.93165 26.9982 5.96052 26.6003C5.0351 26.0834 4.2839 25.2663 3.56021 24.4788C3.42079 24.3271 3.28252 24.1766 3.14401 24.0295C3.47379 23.3317 4.04714 23.0073 4.71602 22.6496C5.96984 22.236 7.31942 22.434 8.39767 23.1467C9.12978 23.6784 9.76044 24.3292 10.3888 24.9777ZM13.3111 27.8567C12.944 27.4894 12.6036 27.1272 12.1103 26.9344L11.8046 27.1959C11.1112 27.9027 10.6829 28.7351 10.6597 29.7288C10.6731 31.0747 11.1455 32.0861 12.1023 33.0311L12.3504 33.2672L12.4792 33.3952C12.8662 33.7817 13.2269 34.1416 13.7405 34.371C14.5099 33.4783 15.0334 32.6897 15.058 31.4832C15.0564 30.0064 14.544 29.1159 13.5142 28.0596L13.3111 27.8567Z" stroke="#FCFBF7" stroke-width="2" mask="url(#path-1-inside-1_1403_11412)"/>
<path d="M30.5085 5.67033C30.963 5.85469 31.2462 6.15063 31.5857 6.49823C31.6895 6.60398 31.7934 6.70973 31.9004 6.81868C31.9791 6.89987 32.0577 6.98105 32.1388 7.06469C31.6595 7.63631 31.1602 8.17164 30.625 8.69145C30.1705 8.50709 29.8873 8.21115 29.5479 7.86355C29.444 7.7578 29.3401 7.65205 29.2331 7.5431C29.1545 7.46192 29.0758 7.38073 28.9948 7.29709C29.4741 6.72547 29.9734 6.19014 30.5085 5.67033Z" stroke="#FCFBF7" stroke-width="2" mask="url(#path-1-inside-1_1403_11412)"/>
</svg>
