<svg width="39" height="35" viewBox="0 0 39 35" fill="none" xmlns="http://www.w3.org/2000/svg">
<mask id="path-1-inside-1_1403_11418" fill="white">
<path d="M4.74939 14.5537C7.05256 16.3388 10.1686 16.7214 12.7428 16.7214C14.233 16.7214 15.7233 16.5939 16.6717 16.3388V24.2444C11.6589 24.8819 7.72997 28.5797 7.72997 32.915V34.1901H29.0005V32.915C29.0005 28.3247 24.6651 24.6269 19.2458 24.2444V15.0638C21.1426 15.8288 24.1231 16.7214 27.1037 16.7214C28.4585 16.7214 29.8133 16.5939 31.0327 16.0838C36.7229 13.9162 38.6196 6.39316 38.7551 6.01064C38.8906 5.5006 38.6196 4.99057 38.2132 4.60804C37.9422 4.48053 30.8972 0.400251 25.207 2.5679C22.2264 3.71548 19.9232 6.39316 18.5684 8.68832C18.0265 6.64818 16.8072 4.35302 14.6395 2.82292C9.6267 -1.00235 1.36236 1.1653 0.955922 1.29281C0.413999 1.42032 0.00755781 1.93036 0.00755781 2.44039C0.00755781 2.82292 -0.398885 10.856 4.74939 14.5537ZM26.1554 31.7674H10.5751C11.3879 28.9622 14.504 26.7946 18.2975 26.7946C22.2264 26.7946 25.478 28.9622 26.1554 31.7674ZM26.2908 5.11807C29.6779 3.84299 34.1487 5.62811 35.91 6.52067C35.2326 8.4333 33.4713 12.5136 30.0843 13.9162C27.3747 14.9362 23.9877 14.1712 21.549 13.2786C19.8823 12.7685 20.2429 11.2512 20.4652 10.856C21.6845 8.68832 23.5812 6.13814 26.2908 5.11807ZM13.0137 4.73555C15.4524 6.52067 16.2653 9.8359 16.5362 12.1311C16.5362 12.1311 16.4682 13.7057 14.9175 14.1712C14.9175 14.1712 14.9175 14.1712 14.9105 14.1712C12.4718 14.4262 8.94929 14.4262 6.51064 12.6411C3.39458 10.3459 2.98813 5.62811 2.85265 3.58797C4.88487 3.07793 9.89766 2.44039 13.0137 4.73555Z"/>
</mask>
<path d="M4.74939 14.5537C7.05256 16.3388 10.1686 16.7214 12.7428 16.7214C14.233 16.7214 15.7233 16.5939 16.6717 16.3388V24.2444C11.6589 24.8819 7.72997 28.5797 7.72997 32.915V34.1901H29.0005V32.915C29.0005 28.3247 24.6651 24.6269 19.2458 24.2444V15.0638C21.1426 15.8288 24.1231 16.7214 27.1037 16.7214C28.4585 16.7214 29.8133 16.5939 31.0327 16.0838C36.7229 13.9162 38.6196 6.39316 38.7551 6.01064C38.8906 5.5006 38.6196 4.99057 38.2132 4.60804C37.9422 4.48053 30.8972 0.400251 25.207 2.5679C22.2264 3.71548 19.9232 6.39316 18.5684 8.68832C18.0265 6.64818 16.8072 4.35302 14.6395 2.82292C9.6267 -1.00235 1.36236 1.1653 0.955922 1.29281C0.413999 1.42032 0.00755781 1.93036 0.00755781 2.44039C0.00755781 2.82292 -0.398885 10.856 4.74939 14.5537ZM26.1554 31.7674H10.5751C11.3879 28.9622 14.504 26.7946 18.2975 26.7946C22.2264 26.7946 25.478 28.9622 26.1554 31.7674ZM26.2908 5.11807C29.6779 3.84299 34.1487 5.62811 35.91 6.52067C35.2326 8.4333 33.4713 12.5136 30.0843 13.9162C27.3747 14.9362 23.9877 14.1712 21.549 13.2786C19.8823 12.7685 20.2429 11.2512 20.4652 10.856C21.6845 8.68832 23.5812 6.13814 26.2908 5.11807ZM13.0137 4.73555C15.4524 6.52067 16.2653 9.8359 16.5362 12.1311C16.5362 12.1311 16.4682 13.7057 14.9175 14.1712C14.9175 14.1712 14.9175 14.1712 14.9105 14.1712C12.4718 14.4262 8.94929 14.4262 6.51064 12.6411C3.39458 10.3459 2.98813 5.62811 2.85265 3.58797C4.88487 3.07793 9.89766 2.44039 13.0137 4.73555Z" fill="#FCFBF7"/>
<path d="M4.74939 14.5537L13.5009 3.26246L13.2949 3.1028L13.0832 2.95076L4.74939 14.5537ZM16.6717 16.3388H30.9574V-2.2958L12.962 2.5432L16.6717 16.3388ZM16.6717 24.2444L18.4741 38.4159L30.9574 36.8283V24.2444H16.6717ZM7.72997 34.1901H-6.55575V48.4758H7.72997V34.1901ZM29.0005 34.1901V48.4758H43.2862V34.1901H29.0005ZM19.2458 24.2444H4.96013V37.5573L18.24 38.4946L19.2458 24.2444ZM19.2458 15.0638L24.5897 1.81518L4.96013 -6.10247V15.0638H19.2458ZM31.0327 16.0838L25.9471 2.73397L25.7321 2.81586L25.5199 2.90463L31.0327 16.0838ZM38.7551 6.01064L52.2212 10.78L52.4138 10.236L52.562 9.67817L38.7551 6.01064ZM38.2132 4.60804L48.004 -5.79492L46.3504 -7.35115L44.2959 -8.31799L38.2132 4.60804ZM25.207 2.5679L20.1214 -10.782L20.0977 -10.7729L20.074 -10.7638L25.207 2.5679ZM18.5684 8.68832L4.76152 12.3559L13.5228 45.339L30.8707 15.9502L18.5684 8.68832ZM14.6395 2.82292L5.97314 14.1797L6.18428 14.3408L6.40127 14.494L14.6395 2.82292ZM0.955922 1.29281L4.22785 15.1988L4.73501 15.0795L5.23213 14.9235L0.955922 1.29281ZM26.1554 31.7674V46.0531H44.3014L40.0419 28.414L26.1554 31.7674ZM10.5751 31.7674L-3.14616 27.7913L-8.43806 46.0531H10.5751V31.7674ZM26.2908 5.11807L21.2577 -8.25162L26.2908 5.11807ZM35.91 6.52067L49.3761 11.29L53.5681 -0.546058L42.3677 -6.22213L35.91 6.52067ZM30.0843 13.9162L35.1175 27.2859L35.3352 27.2039L35.55 27.1149L30.0843 13.9162ZM21.549 13.2786L26.4591 -0.136748L26.0978 -0.268978L25.73 -0.381571L21.549 13.2786ZM20.4652 10.856L32.9162 17.8598L20.4652 10.856ZM13.0137 4.73555L4.54157 16.2379L4.55855 16.2504L4.57558 16.2629L13.0137 4.73555ZM16.5362 12.1311L30.8086 12.7474L30.8583 11.5983L30.7234 10.4561L16.5362 12.1311ZM14.9175 14.1712V28.4569H17.0154L19.0247 27.8538L14.9175 14.1712ZM14.9105 14.1712V-0.114518H14.1655L13.4247 -0.0370422L14.9105 14.1712ZM6.51064 12.6411L-1.96151 24.1435L-1.94452 24.156L-1.9275 24.1684L6.51064 12.6411ZM2.85265 3.58797L-0.624856 -10.268L-12.1919 -7.36499L-11.4017 4.53457L2.85265 3.58797ZM-4.00213 25.845C2.20639 30.657 9.40885 31.0071 12.7428 31.0071V2.43566C12.4462 2.43566 12.2164 2.42432 12.0459 2.40857C11.8731 2.39261 11.811 2.37659 11.8406 2.38338C11.8561 2.38695 12.578 2.54718 13.5009 3.26246L-4.00213 25.845ZM12.7428 31.0071C14.6631 31.0071 17.6264 30.8753 20.3814 30.1345L12.962 2.5432C13.1477 2.49326 13.2932 2.46067 13.3893 2.44074C13.487 2.42047 13.5559 2.40867 13.5918 2.40287C13.6287 2.39693 13.6445 2.39509 13.6376 2.39595C13.6312 2.39675 13.6094 2.39934 13.5719 2.40288C13.4941 2.4102 13.3778 2.41883 13.2272 2.42542C13.0782 2.43194 12.914 2.43566 12.7428 2.43566V31.0071ZM2.38599 16.3388V24.2444H30.9574V16.3388H2.38599ZM14.8693 10.0728C4.91129 11.3393 -6.55575 19.378 -6.55575 32.915H22.0157C22.0157 35.2405 20.9446 36.7968 20.2195 37.4936C19.5164 38.1693 18.8728 38.3652 18.4741 38.4159L14.8693 10.0728ZM-6.55575 32.915V34.1901H22.0157V32.915H-6.55575ZM7.72997 48.4758H29.0005V19.9044H7.72997V48.4758ZM43.2862 34.1901V32.915H14.7147V34.1901H43.2862ZM43.2862 32.915C43.2862 18.3606 30.4136 10.7114 20.2517 9.99413L18.24 38.4946C18.0677 38.4825 17.4861 38.4007 16.7311 37.7379C15.9239 37.0294 14.7147 35.3779 14.7147 32.915H43.2862ZM33.5316 24.2444V15.0638H4.96013V24.2444H33.5316ZM13.902 28.3123C16.7165 29.4476 21.6053 31.0071 27.1037 31.0071V2.43566C26.9847 2.43566 26.6215 2.41024 26.0403 2.27348C25.4799 2.14163 24.9546 1.96237 24.5897 1.81518L13.902 28.3123ZM27.1037 31.0071C29.1544 31.0071 32.7389 30.8553 36.5454 29.263L25.5199 2.90463C26.254 2.59758 26.821 2.49191 27.0719 2.45558C27.3094 2.4212 27.3617 2.43566 27.1037 2.43566V31.0071ZM36.1182 29.4337C43.5824 26.5903 47.6147 20.7008 49.5119 17.2302C51.4445 13.6949 52.5938 9.72777 52.2212 10.78L25.289 1.2413C25.2098 1.46507 25.1524 1.64489 25.1295 1.71715C25.1012 1.80652 25.0785 1.88082 25.0658 1.92273C25.0425 1.9997 25.0185 2.08066 25.0121 2.10217C24.9909 2.17386 24.9791 2.21332 24.965 2.25902C24.9388 2.34418 24.9021 2.45849 24.852 2.59748C24.7426 2.90099 24.6003 3.23567 24.4419 3.52542C24.2719 3.8364 24.2076 3.86749 24.3389 3.73129C24.4933 3.57125 25.0123 3.0901 25.9471 2.73397L36.1182 29.4337ZM52.562 9.67817C54.6748 1.72408 50.0296 -3.88851 48.004 -5.79492L28.4223 15.011C27.5523 14.1921 26.3871 12.8429 25.5398 10.8493C24.6422 8.73732 24.0527 5.71409 24.9482 2.3431L52.562 9.67817ZM44.2959 -8.31799C45.2588 -7.86488 41.7272 -9.77181 37.9129 -10.9361C34.2868 -12.0429 27.3755 -13.5454 20.1214 -10.782L30.2926 15.9178C29.8453 16.0882 29.4738 16.1629 29.2249 16.1952C28.9814 16.2267 28.8409 16.2197 28.8256 16.2189C28.8102 16.218 28.8734 16.2208 29.0196 16.2493C29.1639 16.2774 29.3497 16.3229 29.5717 16.3907C30.0318 16.5311 30.4817 16.716 30.8378 16.8818C31.0046 16.9595 31.1325 17.0243 31.2146 17.067C31.2561 17.0886 31.2915 17.1075 31.339 17.1329C31.347 17.1372 31.4156 17.174 31.4667 17.2012C31.4958 17.2166 31.5581 17.2496 31.634 17.2889C31.678 17.3116 31.8763 17.4145 32.1305 17.5341L44.2959 -8.31799ZM20.074 -10.7638C12.8329 -7.97583 8.41009 -2.2056 6.26615 1.4264L30.8707 15.9502C30.9313 15.8476 31.0112 15.727 31.1013 15.6093C31.1919 15.491 31.2625 15.4152 31.2975 15.3807C31.3339 15.3449 31.2941 15.3907 31.1608 15.4818C31.026 15.5739 30.7545 15.74 30.34 15.8996L20.074 -10.7638ZM32.3753 5.02078C31.2222 0.679639 28.4825 -4.89191 22.8777 -8.84813L6.40127 14.494C5.75115 14.0351 5.35186 13.5362 5.13136 13.1867C4.92319 12.8568 4.8214 12.5813 4.76152 12.3559L32.3753 5.02078ZM23.3058 -8.53384C16.923 -13.4046 9.59665 -13.8186 5.65553 -13.7041C1.43481 -13.5815 -2.03528 -12.741 -3.32028 -12.3379L5.23213 14.9235C5.11628 14.9598 5.02592 14.9865 4.97924 15.0001C4.92573 15.0157 4.88258 15.0279 4.85264 15.0362C4.79306 15.0528 4.75112 15.0639 4.72949 15.0695C4.68509 15.0811 4.67491 15.0832 4.69701 15.078C4.74087 15.0678 4.86672 15.0398 5.05432 15.0065C5.45169 14.9361 5.96742 14.8703 6.48512 14.8553C6.73457 14.848 6.94136 14.8539 7.1012 14.8664C7.26294 14.8791 7.33323 14.8951 7.32261 14.8927C7.31201 14.8903 7.17326 14.859 6.9424 14.7588C6.70587 14.6562 6.36177 14.4762 5.97314 14.1797L23.3058 -8.53384ZM-2.316 -12.6132C-8.94425 -11.0536 -14.2782 -5.06855 -14.2782 2.44039H14.2933C14.2933 5.93704 12.9473 8.7968 11.3397 10.7637C9.70645 12.762 7.29449 14.4772 4.22785 15.1988L-2.316 -12.6132ZM-14.2782 2.44039C-14.2782 2.25662 -14.4408 5.97185 -13.5181 10.2593C-12.6497 14.295 -10.3251 21.3152 -3.58446 26.1567L13.0832 2.95076C13.9025 3.53922 14.2976 4.16352 14.4264 4.40379C14.489 4.52048 14.502 4.56899 14.4876 4.52736C14.4735 4.48657 14.4453 4.39462 14.4139 4.24844C14.3466 3.93606 14.3082 3.58296 14.2931 3.27583C14.2863 3.13651 14.2855 3.03272 14.2857 2.97643C14.2859 2.94916 14.2862 2.92719 14.2867 2.90305C14.2872 2.8789 14.2872 2.88039 14.2885 2.8277C14.2889 2.81038 14.2898 2.7699 14.2906 2.72351C14.2912 2.69019 14.2933 2.57874 14.2933 2.44039H-14.2782ZM26.1554 17.4817H10.5751V46.0531H26.1554V17.4817ZM24.2963 35.7435C23.6112 38.1077 22.1906 39.4913 21.1778 40.1585C20.1225 40.8538 19.1008 41.0803 18.2975 41.0803V12.5088C9.67829 12.5088 -0.170683 17.5232 -3.14616 27.7913L24.2963 35.7435ZM18.2975 41.0803C17.6905 41.0803 16.7739 40.9229 15.7216 40.2465C14.7285 39.6082 12.9728 38.036 12.2688 35.1208L40.0419 28.414C37.3052 17.081 26.368 12.5088 18.2975 12.5088V41.0803ZM31.324 18.4878C30.1874 18.9157 29.3128 18.9603 28.9442 18.9595C28.5721 18.9587 28.4314 18.9115 28.5578 18.9401C28.6663 18.9646 28.8499 19.0179 29.0747 19.1031C29.1786 19.1425 29.2708 19.181 29.3443 19.2135C29.4193 19.2468 29.4575 19.2662 29.4522 19.2635L42.3677 -6.22213C40.7437 -7.04517 38.0618 -8.20323 34.8624 -8.92707C31.9136 -9.5942 26.7288 -10.3113 21.2577 -8.25162L31.324 18.4878ZM22.4439 1.75134C22.3887 1.90722 22.3183 2.08648 22.2377 2.25976C22.1988 2.34342 22.1641 2.41147 22.1357 2.46312C22.1071 2.51539 22.0927 2.53689 22.0964 2.53118C22.0998 2.52611 22.1329 2.47614 22.2021 2.39201C22.271 2.30822 22.3913 2.17144 22.5713 2.00314C22.9265 1.67098 23.5971 1.14043 24.6186 0.717411L35.55 27.1149C40.9044 24.8976 44.1626 20.9616 45.9301 18.2882C47.7721 15.502 48.8399 12.8038 49.3761 11.29L22.4439 1.75134ZM25.0511 0.546487C25.8388 0.249942 26.4706 0.158907 26.8335 0.130442C27.02 0.115813 27.1593 0.11576 27.2452 0.118221C27.3314 0.120691 27.3786 0.126123 27.3842 0.126773C27.386 0.126988 27.2906 0.114862 27.0988 0.0653896C26.9117 0.017113 26.6931 -0.0511259 26.4591 -0.136748L16.6389 26.694C19.594 27.7756 27.2763 30.2378 35.1175 27.2859L25.0511 0.546487ZM25.73 -0.381571C27.3965 0.128515 29.4849 1.1968 31.2888 3.21171C33.0913 5.22505 33.9914 7.49359 34.3496 9.44467C34.6887 11.2917 34.5552 12.8661 34.342 13.9906C34.1515 14.9955 33.7631 16.3542 32.9162 17.8598L8.01415 3.85213C6.49102 6.55986 5.47681 10.4039 6.24783 14.6037C6.69643 17.0473 7.80508 19.8156 10.0018 22.2692C12.1998 24.7245 14.8681 26.1737 17.3681 26.9388L25.73 -0.381571ZM32.9162 17.8598C33.0355 17.6476 33.137 17.4881 33.2147 17.377C33.2943 17.2633 33.3176 17.2453 33.271 17.2952C33.2203 17.3497 32.6083 18.0043 31.324 18.4878L21.2577 -8.25162C13.6166 -5.37505 9.60545 1.02321 8.01415 3.85213L32.9162 17.8598ZM4.57558 16.2629C2.98326 15.0973 2.43602 13.8249 2.3458 13.602C2.24873 13.3622 2.30243 13.4112 2.34903 13.806L30.7234 10.4561C30.3934 7.66123 29.0946 -1.19724 21.4519 -6.79179L4.57558 16.2629ZM16.5362 12.1311C2.26381 11.5148 2.2641 11.508 2.2644 11.5012C2.2645 11.499 2.2648 11.4922 2.265 11.4877C2.26541 11.4787 2.26583 11.4696 2.26625 11.4606C2.2671 11.4425 2.26798 11.4244 2.26891 11.4063C2.27075 11.3701 2.27274 11.3337 2.27489 11.2973C2.27917 11.2243 2.28408 11.1508 2.28966 11.0767C2.3008 10.9286 2.31474 10.7767 2.33203 10.6211C2.36633 10.3126 2.4154 9.97561 2.48659 9.61533C2.62297 8.92506 2.87218 7.98704 3.36265 6.93592C4.44221 4.62229 6.80345 1.69139 10.8104 0.488618L19.0247 27.8538C24.5823 26.1855 27.7529 22.2345 29.2541 19.0172C29.9554 17.5142 30.3186 16.1535 30.5161 15.1534C30.6179 14.6382 30.6844 14.1745 30.7285 13.7781C30.7507 13.5786 30.7676 13.3924 30.7805 13.221C30.787 13.1353 30.7924 13.0528 30.7971 12.9739C30.7994 12.9345 30.8015 12.8958 30.8034 12.8581C30.8044 12.8392 30.8053 12.8205 30.8062 12.8021C30.8066 12.7929 30.807 12.7837 30.8074 12.7746C30.8076 12.77 30.8079 12.7632 30.808 12.7609C30.8083 12.7541 30.8086 12.7474 16.5362 12.1311ZM14.9175 14.1712C14.9175 -0.114518 14.9175 -0.114518 14.9175 -0.114518C14.9175 -0.114518 14.9175 -0.114518 14.9175 -0.114518C14.9175 -0.114518 14.9175 -0.114518 14.9175 -0.114518H14.9175C14.9175 -0.114518 14.9175 -0.114518 14.9175 -0.114518H14.9175H14.9175C14.9175 -0.114518 14.9175 -0.114518 14.9175 -0.114518H14.9175H14.9175H14.9175H14.9175C14.9175 -0.114518 14.9175 -0.114518 14.9175 -0.114518C14.9175 -0.114518 14.9175 -0.114518 14.9175 -0.114518H14.9175C14.9175 -0.114518 14.9175 -0.114518 14.9175 -0.114518H14.9175C14.9175 -0.114518 14.9175 -0.114518 14.9175 -0.114518C14.9175 -0.114518 14.9175 -0.114518 14.9175 -0.114518H14.9175C14.9175 -0.114518 14.9175 -0.114518 14.9175 -0.114518C14.9175 -0.114518 14.9175 -0.114518 14.9175 -0.114518C14.9175 -0.114518 14.9175 -0.114518 14.9175 -0.114518C14.9175 -0.114518 14.9175 -0.114518 14.9175 -0.114518C14.9175 -0.114518 14.9175 -0.114518 14.9175 -0.114518C14.9175 -0.114518 14.9175 -0.114518 14.9175 -0.114518C14.9175 -0.114518 14.9175 -0.114518 14.9175 -0.114518C14.9175 -0.114518 14.9175 -0.114518 14.9175 -0.114518C14.9175 -0.114518 14.9175 -0.114518 14.9175 -0.114518C14.9175 -0.114518 14.9175 -0.114518 14.9175 -0.114518C14.9175 -0.114518 14.9175 -0.114518 14.9175 -0.114518C14.9175 -0.114518 14.9175 -0.114518 14.9175 -0.114518C14.9175 -0.114518 14.9175 -0.114518 14.9175 -0.114518C14.9175 -0.114518 14.9175 -0.114518 14.9175 -0.114518H14.9175H14.9175C14.9175 -0.114518 14.9175 -0.114518 14.9175 -0.114518C14.9175 -0.114518 14.9175 -0.114518 14.9175 -0.114518H14.9175C14.9175 -0.114518 14.9175 -0.114518 14.9175 -0.114518C14.9175 -0.114518 14.9175 -0.114518 14.9175 -0.114518H14.9175C14.9175 -0.114518 14.9175 -0.114518 14.9175 -0.114518H14.9175C14.9175 -0.114518 14.9175 -0.114518 14.9175 -0.114518H14.9175C14.9175 -0.114518 14.9175 -0.114518 14.9175 -0.114518C14.9175 -0.114518 14.9175 -0.114518 14.9175 -0.114518H14.9175C14.9175 -0.114518 14.9175 -0.114518 14.9175 -0.114518C14.9175 -0.114518 14.9175 -0.114518 14.9175 -0.114518H14.9175C14.9174 -0.114518 14.9174 -0.114518 14.9174 -0.114518C14.9174 -0.114518 14.9174 -0.114518 14.9174 -0.114518C14.9174 -0.114518 14.9174 -0.114518 14.9174 -0.114518C14.9174 -0.114518 14.9174 -0.114518 14.9174 -0.114518H14.9174C14.9174 -0.114518 14.9174 -0.114518 14.9174 -0.114518C14.9174 -0.114518 14.9174 -0.114518 14.9174 -0.114518C14.9174 -0.114518 14.9174 -0.114518 14.9174 -0.114518C14.9174 -0.114518 14.9174 -0.114518 14.9174 -0.114518C14.9174 -0.114518 14.9174 -0.114518 14.9174 -0.114518C14.9174 -0.114518 14.9174 -0.114518 14.9174 -0.114518C14.9174 -0.114518 14.9174 -0.114518 14.9174 -0.114518C14.9174 -0.114518 14.9174 -0.114518 14.9174 -0.114518C14.9174 -0.114518 14.9174 -0.114518 14.9174 -0.114518C14.9174 -0.114518 14.9174 -0.114518 14.9174 -0.114518C14.9174 -0.114518 14.9174 -0.114518 14.9174 -0.114518C14.9174 -0.114518 14.9174 -0.114518 14.9174 -0.114518C14.9174 -0.114518 14.9174 -0.114518 14.9174 -0.114518C14.9174 -0.114518 14.9174 -0.114518 14.9174 -0.114518C14.9174 -0.114518 14.9174 -0.114518 14.9174 -0.114518C14.9174 -0.114518 14.9174 -0.114518 14.9174 -0.114518C14.9174 -0.114518 14.9174 -0.114518 14.9174 -0.114518C14.9174 -0.114518 14.9174 -0.114518 14.9174 -0.114518C14.9174 -0.114518 14.9174 -0.114518 14.9174 -0.114518C14.9174 -0.114518 14.9174 -0.114518 14.9174 -0.114518C14.9174 -0.114518 14.9174 -0.114518 14.9174 -0.114518C14.9174 -0.114518 14.9174 -0.114518 14.9174 -0.114518C14.9174 -0.114518 14.9174 -0.114518 14.9174 -0.114518C14.9174 -0.114518 14.9174 -0.114518 14.9174 -0.114518C14.9174 -0.114518 14.9174 -0.114518 14.9174 -0.114518C14.9174 -0.114518 14.9174 -0.114518 14.9174 -0.114518C14.9174 -0.114518 14.9174 -0.114518 14.9174 -0.114518C14.9174 -0.114518 14.9174 -0.114518 14.9174 -0.114518C14.9174 -0.114518 14.9174 -0.114518 14.9174 -0.114518C14.9174 -0.114518 14.9174 -0.114518 14.9174 -0.114518C14.9174 -0.114518 14.9174 -0.114518 14.9174 -0.114518C14.9174 -0.114518 14.9174 -0.114518 14.9174 -0.114518C14.9174 -0.114518 14.9174 -0.114518 14.9174 -0.114518C14.9174 -0.114518 14.9174 -0.114518 14.9174 -0.114518C14.9174 -0.114518 14.9174 -0.114518 14.9174 -0.114518C14.9174 -0.114518 14.9174 -0.114518 14.9174 -0.114518C14.9173 -0.114518 14.9173 -0.114518 14.9173 -0.114518C14.9173 -0.114518 14.9173 -0.114518 14.9173 -0.114518C14.9173 -0.114518 14.9173 -0.114518 14.9173 -0.114518C14.9173 -0.114518 14.9173 -0.114518 14.9173 -0.114518C14.9173 -0.114518 14.9173 -0.114518 14.9173 -0.114518C14.9173 -0.114518 14.9173 -0.114518 14.9173 -0.114518C14.9173 -0.114518 14.9173 -0.114518 14.9173 -0.114518C14.9173 -0.114518 14.9173 -0.114518 14.9173 -0.114518C14.9173 -0.114518 14.9173 -0.114518 14.9173 -0.114518C14.9173 -0.114518 14.9173 -0.114518 14.9173 -0.114518C14.9173 -0.114518 14.9173 -0.114518 14.9173 -0.114518C14.9173 -0.114518 14.9173 -0.114518 14.9173 -0.114518C14.9173 -0.114518 14.9173 -0.114518 14.9173 -0.114518C14.9173 -0.114518 14.9173 -0.114518 14.9173 -0.114518C14.9173 -0.114518 14.9173 -0.114518 14.9173 -0.114518C14.9173 -0.114518 14.9173 -0.114518 14.9173 -0.114518C14.9173 -0.114518 14.9173 -0.114518 14.9173 -0.114518C14.9173 -0.114518 14.9173 -0.114518 14.9173 -0.114518C14.9173 -0.114518 14.9173 -0.114518 14.9173 -0.114518C14.9173 -0.114518 14.9173 -0.114518 14.9173 -0.114518C14.9173 -0.114518 14.9173 -0.114518 14.9173 -0.114518C14.9173 -0.114518 14.9173 -0.114518 14.9173 -0.114518C14.9173 -0.114518 14.9173 -0.114518 14.9173 -0.114518C14.9173 -0.114518 14.9173 -0.114518 14.9173 -0.114518C14.9173 -0.114518 14.9173 -0.114518 14.9173 -0.114518C14.9173 -0.114518 14.9173 -0.114518 14.9172 -0.114518C14.9172 -0.114518 14.9172 -0.114518 14.9172 -0.114518C14.9172 -0.114518 14.9172 -0.114518 14.9172 -0.114518C14.9172 -0.114518 14.9172 -0.114518 14.9172 -0.114518C14.9172 -0.114518 14.9172 -0.114518 14.9172 -0.114518C14.9172 -0.114518 14.9172 -0.114518 14.9172 -0.114518C14.9172 -0.114518 14.9172 -0.114518 14.9172 -0.114518C14.9172 -0.114518 14.9172 -0.114518 14.9172 -0.114518C14.9172 -0.114518 14.9172 -0.114518 14.9172 -0.114518C14.9172 -0.114518 14.9172 -0.114518 14.9172 -0.114518C14.9172 -0.114518 14.9172 -0.114518 14.9172 -0.114518C14.9172 -0.114518 14.9172 -0.114518 14.9172 -0.114518C14.9172 -0.114518 14.9172 -0.114518 14.9172 -0.114518C14.9172 -0.114518 14.9172 -0.114518 14.9172 -0.114518C14.9172 -0.114518 14.9172 -0.114518 14.9172 -0.114518C14.9172 -0.114518 14.9172 -0.114518 14.9172 -0.114518C14.9172 -0.114518 14.9172 -0.114518 14.9172 -0.114518C14.9172 -0.114518 14.9172 -0.114518 14.9172 -0.114518C14.9172 -0.114518 14.9172 -0.114518 14.9172 -0.114518C14.9172 -0.114518 14.9172 -0.114518 14.9172 -0.114518C14.9172 -0.114518 14.9171 -0.114518 14.9171 -0.114518C14.9171 -0.114518 14.9171 -0.114518 14.9171 -0.114518C14.9171 -0.114518 14.9171 -0.114518 14.9171 -0.114518C14.9171 -0.114518 14.9171 -0.114518 14.9171 -0.114518C14.9171 -0.114518 14.9171 -0.114518 14.9171 -0.114518C14.9171 -0.114518 14.9171 -0.114518 14.9171 -0.114518C14.9171 -0.114518 14.9171 -0.114518 14.9171 -0.114518C14.9171 -0.114518 14.9171 -0.114518 14.9171 -0.114518C14.9171 -0.114518 14.9171 -0.114518 14.9171 -0.114518C14.9171 -0.114518 14.9171 -0.114518 14.9171 -0.114518C14.9171 -0.114518 14.9171 -0.114518 14.9171 -0.114518C14.9171 -0.114518 14.9171 -0.114518 14.9171 -0.114518C14.9171 -0.114518 14.9171 -0.114518 14.9171 -0.114518C14.9171 -0.114518 14.9171 -0.114518 14.9171 -0.114518C14.9171 -0.114518 14.9171 -0.114518 14.9171 -0.114518C14.9171 -0.114518 14.9171 -0.114518 14.9171 -0.114518C14.9171 -0.114518 14.9171 -0.114518 14.917 -0.114518C14.917 -0.114518 14.917 -0.114518 14.917 -0.114518C14.917 -0.114518 14.917 -0.114518 14.917 -0.114518C14.917 -0.114518 14.917 -0.114518 14.917 -0.114518C14.917 -0.114518 14.917 -0.114518 14.917 -0.114518C14.917 -0.114518 14.917 -0.114518 14.917 -0.114518C14.917 -0.114518 14.917 -0.114518 14.917 -0.114518C14.917 -0.114518 14.917 -0.114518 14.917 -0.114518C14.917 -0.114518 14.917 -0.114518 14.917 -0.114518C14.917 -0.114518 14.917 -0.114518 14.917 -0.114518C14.917 -0.114518 14.917 -0.114518 14.917 -0.114518C14.917 -0.114518 14.917 -0.114518 14.917 -0.114518C14.917 -0.114518 14.917 -0.114518 14.917 -0.114518C14.917 -0.114518 14.917 -0.114518 14.917 -0.114518C14.917 -0.114518 14.917 -0.114518 14.9169 -0.114518C14.9169 -0.114518 14.9169 -0.114518 14.9169 -0.114518C14.9169 -0.114518 14.9169 -0.114518 14.9169 -0.114518C14.9169 -0.114518 14.9169 -0.114518 14.9169 -0.114518C14.9169 -0.114518 14.9169 -0.114518 14.9169 -0.114518C14.9169 -0.114518 14.9169 -0.114518 14.9169 -0.114518C14.9169 -0.114518 14.9169 -0.114518 14.9169 -0.114518C14.9169 -0.114518 14.9169 -0.114518 14.9169 -0.114518C14.9169 -0.114518 14.9169 -0.114518 14.9169 -0.114518C14.9169 -0.114518 14.9169 -0.114518 14.9169 -0.114518C14.9169 -0.114518 14.9169 -0.114518 14.9169 -0.114518C14.9169 -0.114518 14.9169 -0.114518 14.9169 -0.114518C14.9169 -0.114518 14.9169 -0.114518 14.9169 -0.114518C14.9168 -0.114518 14.9168 -0.114518 14.9168 -0.114518C14.9168 -0.114518 14.9168 -0.114518 14.9168 -0.114518C14.9168 -0.114518 14.9168 -0.114518 14.9168 -0.114518C14.9168 -0.114518 14.9168 -0.114518 14.9168 -0.114518C14.9168 -0.114518 14.9168 -0.114518 14.9168 -0.114518C14.9168 -0.114518 14.9168 -0.114518 14.9168 -0.114518C14.9168 -0.114518 14.9168 -0.114518 14.9168 -0.114518C14.9168 -0.114518 14.9168 -0.114518 14.9168 -0.114518C14.9168 -0.114518 14.9168 -0.114518 14.9168 -0.114518C14.9168 -0.114518 14.9168 -0.114518 14.9168 -0.114518C14.9168 -0.114518 14.9168 -0.114518 14.9168 -0.114518C14.9168 -0.114518 14.9167 -0.114518 14.9167 -0.114518C14.9167 -0.114518 14.9167 -0.114518 14.9167 -0.114518C14.9167 -0.114518 14.9167 -0.114518 14.9167 -0.114518C14.9167 -0.114518 14.9167 -0.114518 14.9167 -0.114518C14.9167 -0.114518 14.9167 -0.114518 14.9167 -0.114518C14.9167 -0.114518 14.9167 -0.114518 14.9167 -0.114518C14.9167 -0.114518 14.9167 -0.114518 14.9167 -0.114518C14.9167 -0.114518 14.9167 -0.114518 14.9167 -0.114518C14.9167 -0.114518 14.9167 -0.114518 14.9167 -0.114518C14.9167 -0.114518 14.9167 -0.114518 14.9167 -0.114518C14.9167 -0.114518 14.9166 -0.114518 14.9166 -0.114518C14.9166 -0.114518 14.9166 -0.114518 14.9166 -0.114518C14.9166 -0.114518 14.9166 -0.114518 14.9166 -0.114518C14.9166 -0.114518 14.9166 -0.114518 14.9166 -0.114518C14.9166 -0.114518 14.9166 -0.114518 14.9166 -0.114518C14.9166 -0.114518 14.9166 -0.114518 14.9166 -0.114518C14.9166 -0.114518 14.9166 -0.114518 14.9166 -0.114518C14.9166 -0.114518 14.9166 -0.114518 14.9166 -0.114518C14.9166 -0.114518 14.9166 -0.114518 14.9166 -0.114518C14.9166 -0.114518 14.9166 -0.114518 14.9166 -0.114518C14.9165 -0.114518 14.9165 -0.114518 14.9165 -0.114518C14.9165 -0.114518 14.9165 -0.114518 14.9165 -0.114518C14.9165 -0.114518 14.9165 -0.114518 14.9165 -0.114518C14.9165 -0.114518 14.9165 -0.114518 14.9165 -0.114518C14.9165 -0.114518 14.9165 -0.114518 14.9165 -0.114518C14.9165 -0.114518 14.9165 -0.114518 14.9165 -0.114518C14.9165 -0.114518 14.9165 -0.114518 14.9165 -0.114518C14.9165 -0.114518 14.9165 -0.114518 14.9165 -0.114518C14.9165 -0.114518 14.9165 -0.114518 14.9165 -0.114518C14.9164 -0.114518 14.9164 -0.114518 14.9164 -0.114518C14.9164 -0.114518 14.9164 -0.114518 14.9164 -0.114518C14.9164 -0.114518 14.9164 -0.114518 14.9164 -0.114518C14.9164 -0.114518 14.9164 -0.114518 14.9164 -0.114518C14.9164 -0.114518 14.9164 -0.114518 14.9164 -0.114518C14.9164 -0.114518 14.9164 -0.114518 14.9164 -0.114518C14.9164 -0.114518 14.9164 -0.114518 14.9164 -0.114518C14.9164 -0.114518 14.9164 -0.114518 14.9164 -0.114518C14.9163 -0.114518 14.9163 -0.114518 14.9163 -0.114518C14.9163 -0.114518 14.9163 -0.114518 14.9163 -0.114518C14.9163 -0.114518 14.9163 -0.114518 14.9163 -0.114518C14.9163 -0.114518 14.9163 -0.114518 14.9163 -0.114518C14.9163 -0.114518 14.9163 -0.114518 14.9163 -0.114518C14.9163 -0.114518 14.9163 -0.114518 14.9163 -0.114518C14.9163 -0.114518 14.9163 -0.114518 14.9163 -0.114518C14.9163 -0.114518 14.9163 -0.114518 14.9163 -0.114518C14.9162 -0.114518 14.9162 -0.114518 14.9162 -0.114518C14.9162 -0.114518 14.9162 -0.114518 14.9162 -0.114518C14.9162 -0.114518 14.9162 -0.114518 14.9162 -0.114518C14.9162 -0.114518 14.9162 -0.114518 14.9162 -0.114518C14.9162 -0.114518 14.9162 -0.114518 14.9162 -0.114518C14.9162 -0.114518 14.9162 -0.114518 14.9162 -0.114518C14.9162 -0.114518 14.9162 -0.114518 14.9162 -0.114518C14.9162 -0.114518 14.9161 -0.114518 14.9161 -0.114518C14.9161 -0.114518 14.9161 -0.114518 14.9161 -0.114518C14.9161 -0.114518 14.9161 -0.114518 14.9161 -0.114518C14.9161 -0.114518 14.9161 -0.114518 14.9161 -0.114518C14.9161 -0.114518 14.9161 -0.114518 14.9161 -0.114518C14.9161 -0.114518 14.9161 -0.114518 14.9161 -0.114518C14.9161 -0.114518 14.9161 -0.114518 14.9161 -0.114518C14.9161 -0.114518 14.916 -0.114518 14.916 -0.114518C14.916 -0.114518 14.916 -0.114518 14.916 -0.114518C14.916 -0.114518 14.916 -0.114518 14.916 -0.114518C14.916 -0.114518 14.916 -0.114518 14.916 -0.114518C14.916 -0.114518 14.916 -0.114518 14.916 -0.114518C14.916 -0.114518 14.916 -0.114518 14.916 -0.114518C14.916 -0.114518 14.916 -0.114518 14.916 -0.114518C14.916 -0.114518 14.9159 -0.114518 14.9159 -0.114518C14.9159 -0.114518 14.9159 -0.114518 14.9159 -0.114518C14.9159 -0.114518 14.9159 -0.114518 14.9159 -0.114518C14.9159 -0.114518 14.9159 -0.114518 14.9159 -0.114518C14.9159 -0.114518 14.9159 -0.114518 14.9159 -0.114518C14.9159 -0.114518 14.9159 -0.114518 14.9159 -0.114518C14.9159 -0.114518 14.9159 -0.114518 14.9158 -0.114518C14.9158 -0.114518 14.9158 -0.114518 14.9158 -0.114518C14.9158 -0.114518 14.9158 -0.114518 14.9158 -0.114518C14.9158 -0.114518 14.9158 -0.114518 14.9158 -0.114518C14.9158 -0.114518 14.9158 -0.114518 14.9158 -0.114518C14.9158 -0.114518 14.9158 -0.114518 14.9158 -0.114518C14.9158 -0.114518 14.9158 -0.114518 14.9158 -0.114518C14.9157 -0.114518 14.9157 -0.114518 14.9157 -0.114518C14.9157 -0.114518 14.9157 -0.114518 14.9157 -0.114518C14.9157 -0.114518 14.9157 -0.114518 14.9157 -0.114518C14.9157 -0.114518 14.9157 -0.114518 14.9157 -0.114518C14.9157 -0.114518 14.9157 -0.114518 14.9157 -0.114518C14.9157 -0.114518 14.9157 -0.114518 14.9157 -0.114518C14.9156 -0.114518 14.9156 -0.114518 14.9156 -0.114518C14.9156 -0.114518 14.9156 -0.114518 14.9156 -0.114518C14.9156 -0.114518 14.9156 -0.114518 14.9156 -0.114518C14.9156 -0.114518 14.9156 -0.114518 14.9156 -0.114518C14.9156 -0.114518 14.9156 -0.114518 14.9156 -0.114518C14.9156 -0.114518 14.9156 -0.114518 14.9155 -0.114518C14.9155 -0.114518 14.9155 -0.114518 14.9155 -0.114518C14.9155 -0.114518 14.9155 -0.114518 14.9155 -0.114518C14.9155 -0.114518 14.9155 -0.114518 14.9155 -0.114518C14.9155 -0.114518 14.9155 -0.114518 14.9155 -0.114518C14.9155 -0.114518 14.9155 -0.114518 14.9155 -0.114518C14.9155 -0.114518 14.9154 -0.114518 14.9154 -0.114518C14.9154 -0.114518 14.9154 -0.114518 14.9154 -0.114518C14.9154 -0.114518 14.9154 -0.114518 14.9154 -0.114518C14.9154 -0.114518 14.9154 -0.114518 14.9154 -0.114518C14.9154 -0.114518 14.9154 -0.114518 14.9154 -0.114518C14.9154 -0.114518 14.9154 -0.114518 14.9153 -0.114518C14.9153 -0.114518 14.9153 -0.114518 14.9153 -0.114518C14.9153 -0.114518 14.9153 -0.114518 14.9153 -0.114518C14.9153 -0.114518 14.9153 -0.114518 14.9153 -0.114518C14.9153 -0.114518 14.9153 -0.114518 14.9153 -0.114518C14.9153 -0.114518 14.9153 -0.114518 14.9153 -0.114518C14.9152 -0.114518 14.9152 -0.114518 14.9152 -0.114518C14.9152 -0.114518 14.9152 -0.114518 14.9152 -0.114518C14.9152 -0.114518 14.9152 -0.114518 14.9152 -0.114518C14.9152 -0.114518 14.9152 -0.114518 14.9152 -0.114518C14.9152 -0.114518 14.9152 -0.114518 14.9152 -0.114518C14.9151 -0.114518 14.9151 -0.114518 14.9151 -0.114518C14.9151 -0.114518 14.9151 -0.114518 14.9151 -0.114518C14.9151 -0.114518 14.9151 -0.114518 14.9151 -0.114518C14.9151 -0.114518 14.9151 -0.114518 14.9151 -0.114518C14.9151 -0.114518 14.9151 -0.114518 14.9151 -0.114518C14.915 -0.114518 14.915 -0.114518 14.915 -0.114518C14.915 -0.114518 14.915 -0.114518 14.915 -0.114518C14.915 -0.114518 14.915 -0.114518 14.915 -0.114518C14.915 -0.114518 14.915 -0.114518 14.915 -0.114518C14.915 -0.114518 14.915 -0.114518 14.915 -0.114518C14.9149 -0.114518 14.9149 -0.114518 14.9149 -0.114518C14.9149 -0.114518 14.9149 -0.114518 14.9149 -0.114518C14.9149 -0.114518 14.9149 -0.114518 14.9149 -0.114518C14.9149 -0.114518 14.9149 -0.114518 14.9149 -0.114518C14.9149 -0.114518 14.9149 -0.114518 14.9148 -0.114518C14.9148 -0.114518 14.9148 -0.114518 14.9148 -0.114518C14.9148 -0.114518 14.9148 -0.114518 14.9148 -0.114518C14.9148 -0.114518 14.9148 -0.114518 14.9148 -0.114518C14.9148 -0.114518 14.9148 -0.114518 14.9148 -0.114518C14.9148 -0.114518 14.9147 -0.114518 14.9147 -0.114518C14.9147 -0.114518 14.9147 -0.114518 14.9147 -0.114518C14.9147 -0.114518 14.9147 -0.114518 14.9147 -0.114518C14.9147 -0.114518 14.9147 -0.114518 14.9147 -0.114518C14.9147 -0.114518 14.9147 -0.114518 14.9146 -0.114518C14.9146 -0.114518 14.9146 -0.114518 14.9146 -0.114518C14.9146 -0.114518 14.9146 -0.114518 14.9146 -0.114518C14.9146 -0.114518 14.9146 -0.114518 14.9146 -0.114518C14.9146 -0.114518 14.9146 -0.114518 14.9146 -0.114518C14.9145 -0.114518 14.9145 -0.114518 14.9145 -0.114518C14.9145 -0.114518 14.9145 -0.114518 14.9145 -0.114518C14.9145 -0.114518 14.9145 -0.114518 14.9145 -0.114518C14.9145 -0.114518 14.9145 -0.114518 14.9145 -0.114518C14.9145 -0.114518 14.9144 -0.114518 14.9144 -0.114518C14.9144 -0.114518 14.9144 -0.114518 14.9144 -0.114518C14.9144 -0.114518 14.9144 -0.114518 14.9144 -0.114518C14.9144 -0.114518 14.9144 -0.114518 14.9144 -0.114518C14.9144 -0.114518 14.9143 -0.114518 14.9143 -0.114518C14.9143 -0.114518 14.9143 -0.114518 14.9143 -0.114518C14.9143 -0.114518 14.9143 -0.114518 14.9143 -0.114518C14.9143 -0.114518 14.9143 -0.114518 14.9143 -0.114518C14.9143 -0.114518 14.9143 -0.114518 14.9142 -0.114518C14.9142 -0.114518 14.9142 -0.114518 14.9142 -0.114518C14.9142 -0.114518 14.9142 -0.114518 14.9142 -0.114518C14.9142 -0.114518 14.9142 -0.114518 14.9142 -0.114518C14.9142 -0.114518 14.9142 -0.114518 14.9141 -0.114518C14.9141 -0.114518 14.9141 -0.114518 14.9141 -0.114518C14.9141 -0.114518 14.9141 -0.114518 14.9141 -0.114518C14.9141 -0.114518 14.9141 -0.114518 14.9141 -0.114518C14.9141 -0.114518 14.9141 -0.114518 14.914 -0.114518C14.914 -0.114518 14.914 -0.114518 14.914 -0.114518C14.914 -0.114518 14.914 -0.114518 14.914 -0.114518C14.914 -0.114518 14.914 -0.114518 14.914 -0.114518C14.914 -0.114518 14.9139 -0.114518 14.9139 -0.114518C14.9139 -0.114518 14.9139 -0.114518 14.9139 -0.114518C14.9139 -0.114518 14.9139 -0.114518 14.9139 -0.114518C14.9139 -0.114518 14.9139 -0.114518 14.9139 -0.114518C14.9138 -0.114518 14.9138 -0.114518 14.9138 -0.114518C14.9138 -0.114518 14.9138 -0.114518 14.9138 -0.114518C14.9138 -0.114518 14.9138 -0.114518 14.9138 -0.114518C14.9138 -0.114518 14.9138 -0.114518 14.9138 -0.114518C14.9137 -0.114518 14.9137 -0.114518 14.9137 -0.114518C14.9137 -0.114518 14.9137 -0.114518 14.9137 -0.114518C14.9137 -0.114518 14.9137 -0.114518 14.9137 -0.114518C14.9137 -0.114518 14.9136 -0.114518 14.9136 -0.114518C14.9136 -0.114518 14.9136 -0.114518 14.9136 -0.114518C14.9136 -0.114518 14.9136 -0.114518 14.9136 -0.114518C14.9136 -0.114518 14.9136 -0.114518 14.9136 -0.114518C14.9135 -0.114518 14.9135 -0.114518 14.9135 -0.114518C14.9135 -0.114518 14.9135 -0.114518 14.9135 -0.114518C14.9135 -0.114518 14.9135 -0.114518 14.9135 -0.114518C14.9135 -0.114518 14.9135 -0.114518 14.9134 -0.114518C14.9134 -0.114518 14.9134 -0.114518 14.9134 -0.114518C14.9134 -0.114518 14.9134 -0.114518 14.9134 -0.114518C14.9134 -0.114518 14.9134 -0.114518 14.9134 -0.114518C14.9133 -0.114518 14.9133 -0.114518 14.9133 -0.114518C14.9133 -0.114518 14.9133 -0.114518 14.9133 -0.114518C14.9133 -0.114518 14.9133 -0.114518 14.9133 -0.114518C14.9133 -0.114518 14.9132 -0.114518 14.9132 -0.114518C14.9132 -0.114518 14.9132 -0.114518 14.9132 -0.114518C14.9132 -0.114518 14.9132 -0.114518 14.9132 -0.114518C14.9132 -0.114518 14.9132 -0.114518 14.9132 -0.114518C14.9131 -0.114518 14.9131 -0.114518 14.9131 -0.114518C14.9131 -0.114518 14.9131 -0.114518 14.9131 -0.114518C14.9131 -0.114518 14.9131 -0.114518 14.9131 -0.114518C14.913 -0.114518 14.913 -0.114518 14.913 -0.114518C14.913 -0.114518 14.913 -0.114518 14.913 -0.114518C14.913 -0.114518 14.913 -0.114518 14.913 -0.114518C14.913 -0.114518 14.9129 -0.114518 14.9129 -0.114518C14.9129 -0.114518 14.9129 -0.114518 14.9129 -0.114518C14.9129 -0.114518 14.9129 -0.114518 14.9129 -0.114518C14.9129 -0.114518 14.9129 -0.114518 14.9128 -0.114518C14.9128 -0.114518 14.9128 -0.114518 14.9128 -0.114518C14.9128 -0.114518 14.9128 -0.114518 14.9128 -0.114518C14.9128 -0.114518 14.9128 -0.114518 14.9127 -0.114518C14.9127 -0.114518 14.9127 -0.114518 14.9127 -0.114518C14.9127 -0.114518 14.9127 -0.114518 14.9127 -0.114518C14.9127 -0.114518 14.9127 -0.114518 14.9127 -0.114518C14.9126 -0.114518 14.9126 -0.114518 14.9126 -0.114518C14.9126 -0.114518 14.9126 -0.114518 14.9126 -0.114518C14.9126 -0.114518 14.9126 -0.114518 14.9126 -0.114518C14.9125 -0.114518 14.9125 -0.114518 14.9125 -0.114518C14.9125 -0.114518 14.9125 -0.114518 14.9125 -0.114518C14.9125 -0.114518 14.9125 -0.114518 14.9125 -0.114518C14.9124 -0.114518 14.9124 -0.114518 14.9124 -0.114518C14.9124 -0.114518 14.9124 -0.114518 14.9124 -0.114518C14.9124 -0.114518 14.9124 -0.114518 14.9124 -0.114518C14.9123 -0.114518 14.9123 -0.114518 14.9123 -0.114518C14.9123 -0.114518 14.9123 -0.114518 14.9123 -0.114518C14.9123 -0.114518 14.9123 -0.114518 14.9123 -0.114518C14.9122 -0.114518 14.9122 -0.114518 14.9122 -0.114518C14.9122 -0.114518 14.9122 -0.114518 14.9122 -0.114518C14.9122 -0.114518 14.9122 -0.114518 14.9122 -0.114518C14.9121 -0.114518 14.9121 -0.114518 14.9121 -0.114518C14.9121 -0.114518 14.9121 -0.114518 14.9121 -0.114518C14.9121 -0.114518 14.9121 -0.114518 14.9121 -0.114518C14.912 -0.114518 14.912 -0.114518 14.912 -0.114518C14.912 -0.114518 14.912 -0.114518 14.912 -0.114518C14.912 -0.114518 14.912 -0.114518 14.9119 -0.114518C14.9119 -0.114518 14.9119 -0.114518 14.9119 -0.114518C14.9119 -0.114518 14.9119 -0.114518 14.9119 -0.114518C14.9119 -0.114518 14.9118 -0.114518 14.9118 -0.114518C14.9118 -0.114518 14.9118 -0.114518 14.9118 -0.114518C14.9118 -0.114518 14.9118 -0.114518 14.9118 -0.114518C14.9118 -0.114518 14.9117 -0.114518 14.9117 -0.114518C14.9117 -0.114518 14.9117 -0.114518 14.9117 -0.114518C14.9117 -0.114518 14.9117 -0.114518 14.9117 -0.114518C14.9116 -0.114518 14.9116 -0.114518 14.9116 -0.114518C14.9116 -0.114518 14.9116 -0.114518 14.9116 -0.114518C14.9116 -0.114518 14.9116 -0.114518 14.9115 -0.114518C14.9115 -0.114518 14.9115 -0.114518 14.9115 -0.114518C14.9115 -0.114518 14.9115 -0.114518 14.9115 -0.114518C14.9115 -0.114518 14.9114 -0.114518 14.9114 -0.114518C14.9114 -0.114518 14.9114 -0.114518 14.9114 -0.114518C14.9114 -0.114518 14.9114 -0.114518 14.9114 -0.114518C14.9113 -0.114518 14.9113 -0.114518 14.9113 -0.114518C14.9113 -0.114518 14.9113 -0.114518 14.9113 -0.114518C14.9113 -0.114518 14.9113 -0.114518 14.9112 -0.114518C14.9112 -0.114518 14.9112 -0.114518 14.9112 -0.114518C14.9112 -0.114518 14.9112 -0.114518 14.9112 -0.114518C14.9112 -0.114518 14.9111 -0.114518 14.9111 -0.114518C14.9111 -0.114518 14.9111 -0.114518 14.9111 -0.114518C14.9111 -0.114518 14.9111 -0.114518 14.9111 -0.114518C14.911 -0.114518 14.911 -0.114518 14.911 -0.114518C14.911 -0.114518 14.911 -0.114518 14.911 -0.114518C14.911 -0.114518 14.9109 -0.114518 14.9109 -0.114518C14.9109 -0.114518 14.9109 -0.114518 14.9109 -0.114518C14.9109 -0.114518 14.9109 -0.114518 14.9109 -0.114518C14.9108 -0.114518 14.9108 -0.114518 14.9108 -0.114518C14.9108 -0.114518 14.9108 -0.114518 14.9108 -0.114518C14.9108 -0.114518 14.9108 -0.114518 14.9107 -0.114518C14.9107 -0.114518 14.9107 -0.114518 14.9107 -0.114518C14.9107 -0.114518 14.9107 -0.114518 14.9107 -0.114518C14.9106 -0.114518 14.9106 -0.114518 14.9106 -0.114518C14.9106 -0.114518 14.9106 -0.114518 14.9106 -0.114518C14.9106 -0.114518 14.9105 -0.114518 14.9105 -0.114518C14.9105 -0.114518 14.9105 -0.114518 14.9105 -0.114518C14.9105 -0.114518 14.9105 -0.114518 14.9105 -0.114518V28.4569C14.9105 28.4569 14.9105 28.4569 14.9105 28.4569C14.9105 28.4569 14.9105 28.4569 14.9105 28.4569C14.9105 28.4569 14.9106 28.4569 14.9106 28.4569C14.9106 28.4569 14.9106 28.4569 14.9106 28.4569C14.9106 28.4569 14.9106 28.4569 14.9107 28.4569C14.9107 28.4569 14.9107 28.4569 14.9107 28.4569C14.9107 28.4569 14.9107 28.4569 14.9107 28.4569C14.9108 28.4569 14.9108 28.4569 14.9108 28.4569C14.9108 28.4569 14.9108 28.4569 14.9108 28.4569C14.9108 28.4569 14.9108 28.4569 14.9109 28.4569C14.9109 28.4569 14.9109 28.4569 14.9109 28.4569C14.9109 28.4569 14.9109 28.4569 14.9109 28.4569C14.9109 28.4569 14.911 28.4569 14.911 28.4569C14.911 28.4569 14.911 28.4569 14.911 28.4569C14.911 28.4569 14.911 28.4569 14.9111 28.4569C14.9111 28.4569 14.9111 28.4569 14.9111 28.4569C14.9111 28.4569 14.9111 28.4569 14.9111 28.4569C14.9111 28.4569 14.9112 28.4569 14.9112 28.4569C14.9112 28.4569 14.9112 28.4569 14.9112 28.4569C14.9112 28.4569 14.9112 28.4569 14.9112 28.4569C14.9113 28.4569 14.9113 28.4569 14.9113 28.4569C14.9113 28.4569 14.9113 28.4569 14.9113 28.4569C14.9113 28.4569 14.9113 28.4569 14.9114 28.4569C14.9114 28.4569 14.9114 28.4569 14.9114 28.4569C14.9114 28.4569 14.9114 28.4569 14.9114 28.4569C14.9114 28.4569 14.9115 28.4569 14.9115 28.4569C14.9115 28.4569 14.9115 28.4569 14.9115 28.4569C14.9115 28.4569 14.9115 28.4569 14.9115 28.4569C14.9116 28.4569 14.9116 28.4569 14.9116 28.4569C14.9116 28.4569 14.9116 28.4569 14.9116 28.4569C14.9116 28.4569 14.9116 28.4569 14.9117 28.4569C14.9117 28.4569 14.9117 28.4569 14.9117 28.4569C14.9117 28.4569 14.9117 28.4569 14.9117 28.4569C14.9117 28.4569 14.9118 28.4569 14.9118 28.4569C14.9118 28.4569 14.9118 28.4569 14.9118 28.4569C14.9118 28.4569 14.9118 28.4569 14.9118 28.4569C14.9118 28.4569 14.9119 28.4569 14.9119 28.4569C14.9119 28.4569 14.9119 28.4569 14.9119 28.4569C14.9119 28.4569 14.9119 28.4569 14.9119 28.4569C14.912 28.4569 14.912 28.4569 14.912 28.4569C14.912 28.4569 14.912 28.4569 14.912 28.4569C14.912 28.4569 14.912 28.4569 14.9121 28.4569C14.9121 28.4569 14.9121 28.4569 14.9121 28.4569C14.9121 28.4569 14.9121 28.4569 14.9121 28.4569C14.9121 28.4569 14.9121 28.4569 14.9122 28.4569C14.9122 28.4569 14.9122 28.4569 14.9122 28.4569C14.9122 28.4569 14.9122 28.4569 14.9122 28.4569C14.9122 28.4569 14.9122 28.4569 14.9123 28.4569C14.9123 28.4569 14.9123 28.4569 14.9123 28.4569C14.9123 28.4569 14.9123 28.4569 14.9123 28.4569C14.9123 28.4569 14.9123 28.4569 14.9124 28.4569C14.9124 28.4569 14.9124 28.4569 14.9124 28.4569C14.9124 28.4569 14.9124 28.4569 14.9124 28.4569C14.9124 28.4569 14.9124 28.4569 14.9125 28.4569C14.9125 28.4569 14.9125 28.4569 14.9125 28.4569C14.9125 28.4569 14.9125 28.4569 14.9125 28.4569C14.9125 28.4569 14.9125 28.4569 14.9126 28.4569C14.9126 28.4569 14.9126 28.4569 14.9126 28.4569C14.9126 28.4569 14.9126 28.4569 14.9126 28.4569C14.9126 28.4569 14.9126 28.4569 14.9127 28.4569C14.9127 28.4569 14.9127 28.4569 14.9127 28.4569C14.9127 28.4569 14.9127 28.4569 14.9127 28.4569C14.9127 28.4569 14.9127 28.4569 14.9127 28.4569C14.9128 28.4569 14.9128 28.4569 14.9128 28.4569C14.9128 28.4569 14.9128 28.4569 14.9128 28.4569C14.9128 28.4569 14.9128 28.4569 14.9128 28.4569C14.9129 28.4569 14.9129 28.4569 14.9129 28.4569C14.9129 28.4569 14.9129 28.4569 14.9129 28.4569C14.9129 28.4569 14.9129 28.4569 14.9129 28.4569C14.9129 28.4569 14.913 28.4569 14.913 28.4569C14.913 28.4569 14.913 28.4569 14.913 28.4569C14.913 28.4569 14.913 28.4569 14.913 28.4569C14.913 28.4569 14.913 28.4569 14.9131 28.4569C14.9131 28.4569 14.9131 28.4569 14.9131 28.4569C14.9131 28.4569 14.9131 28.4569 14.9131 28.4569C14.9131 28.4569 14.9131 28.4569 14.9132 28.4569C14.9132 28.4569 14.9132 28.4569 14.9132 28.4569C14.9132 28.4569 14.9132 28.4569 14.9132 28.4569C14.9132 28.4569 14.9132 28.4569 14.9132 28.4569C14.9132 28.4569 14.9133 28.4569 14.9133 28.4569C14.9133 28.4569 14.9133 28.4569 14.9133 28.4569C14.9133 28.4569 14.9133 28.4569 14.9133 28.4569C14.9133 28.4569 14.9133 28.4569 14.9134 28.4569C14.9134 28.4569 14.9134 28.4569 14.9134 28.4569C14.9134 28.4569 14.9134 28.4569 14.9134 28.4569C14.9134 28.4569 14.9134 28.4569 14.9134 28.4569C14.9135 28.4569 14.9135 28.4569 14.9135 28.4569C14.9135 28.4569 14.9135 28.4569 14.9135 28.4569C14.9135 28.4569 14.9135 28.4569 14.9135 28.4569C14.9135 28.4569 14.9135 28.4569 14.9136 28.4569C14.9136 28.4569 14.9136 28.4569 14.9136 28.4569C14.9136 28.4569 14.9136 28.4569 14.9136 28.4569C14.9136 28.4569 14.9136 28.4569 14.9136 28.4569C14.9136 28.4569 14.9137 28.4569 14.9137 28.4569C14.9137 28.4569 14.9137 28.4569 14.9137 28.4569C14.9137 28.4569 14.9137 28.4569 14.9137 28.4569C14.9137 28.4569 14.9137 28.4569 14.9138 28.4569C14.9138 28.4569 14.9138 28.4569 14.9138 28.4569C14.9138 28.4569 14.9138 28.4569 14.9138 28.4569C14.9138 28.4569 14.9138 28.4569 14.9138 28.4569C14.9138 28.4569 14.9138 28.4569 14.9139 28.4569C14.9139 28.4569 14.9139 28.4569 14.9139 28.4569C14.9139 28.4569 14.9139 28.4569 14.9139 28.4569C14.9139 28.4569 14.9139 28.4569 14.9139 28.4569C14.9139 28.4569 14.914 28.4569 14.914 28.4569C14.914 28.4569 14.914 28.4569 14.914 28.4569C14.914 28.4569 14.914 28.4569 14.914 28.4569C14.914 28.4569 14.914 28.4569 14.914 28.4569C14.9141 28.4569 14.9141 28.4569 14.9141 28.4569C14.9141 28.4569 14.9141 28.4569 14.9141 28.4569C14.9141 28.4569 14.9141 28.4569 14.9141 28.4569C14.9141 28.4569 14.9141 28.4569 14.9141 28.4569C14.9142 28.4569 14.9142 28.4569 14.9142 28.4569C14.9142 28.4569 14.9142 28.4569 14.9142 28.4569C14.9142 28.4569 14.9142 28.4569 14.9142 28.4569C14.9142 28.4569 14.9142 28.4569 14.9142 28.4569C14.9143 28.4569 14.9143 28.4569 14.9143 28.4569C14.9143 28.4569 14.9143 28.4569 14.9143 28.4569C14.9143 28.4569 14.9143 28.4569 14.9143 28.4569C14.9143 28.4569 14.9143 28.4569 14.9143 28.4569C14.9143 28.4569 14.9144 28.4569 14.9144 28.4569C14.9144 28.4569 14.9144 28.4569 14.9144 28.4569C14.9144 28.4569 14.9144 28.4569 14.9144 28.4569C14.9144 28.4569 14.9144 28.4569 14.9144 28.4569C14.9144 28.4569 14.9145 28.4569 14.9145 28.4569C14.9145 28.4569 14.9145 28.4569 14.9145 28.4569C14.9145 28.4569 14.9145 28.4569 14.9145 28.4569C14.9145 28.4569 14.9145 28.4569 14.9145 28.4569C14.9145 28.4569 14.9145 28.4569 14.9146 28.4569C14.9146 28.4569 14.9146 28.4569 14.9146 28.4569C14.9146 28.4569 14.9146 28.4569 14.9146 28.4569C14.9146 28.4569 14.9146 28.4569 14.9146 28.4569C14.9146 28.4569 14.9146 28.4569 14.9146 28.4569C14.9147 28.4569 14.9147 28.4569 14.9147 28.4569C14.9147 28.4569 14.9147 28.4569 14.9147 28.4569C14.9147 28.4569 14.9147 28.4569 14.9147 28.4569C14.9147 28.4569 14.9147 28.4569 14.9147 28.4569C14.9147 28.4569 14.9148 28.4569 14.9148 28.4569C14.9148 28.4569 14.9148 28.4569 14.9148 28.4569C14.9148 28.4569 14.9148 28.4569 14.9148 28.4569C14.9148 28.4569 14.9148 28.4569 14.9148 28.4569C14.9148 28.4569 14.9148 28.4569 14.9148 28.4569C14.9149 28.4569 14.9149 28.4569 14.9149 28.4569C14.9149 28.4569 14.9149 28.4569 14.9149 28.4569C14.9149 28.4569 14.9149 28.4569 14.9149 28.4569C14.9149 28.4569 14.9149 28.4569 14.9149 28.4569C14.9149 28.4569 14.9149 28.4569 14.915 28.4569C14.915 28.4569 14.915 28.4569 14.915 28.4569C14.915 28.4569 14.915 28.4569 14.915 28.4569C14.915 28.4569 14.915 28.4569 14.915 28.4569C14.915 28.4569 14.915 28.4569 14.915 28.4569C14.915 28.4569 14.915 28.4569 14.9151 28.4569C14.9151 28.4569 14.9151 28.4569 14.9151 28.4569C14.9151 28.4569 14.9151 28.4569 14.9151 28.4569C14.9151 28.4569 14.9151 28.4569 14.9151 28.4569C14.9151 28.4569 14.9151 28.4569 14.9151 28.4569C14.9151 28.4569 14.9151 28.4569 14.9152 28.4569C14.9152 28.4569 14.9152 28.4569 14.9152 28.4569C14.9152 28.4569 14.9152 28.4569 14.9152 28.4569C14.9152 28.4569 14.9152 28.4569 14.9152 28.4569C14.9152 28.4569 14.9152 28.4569 14.9152 28.4569C14.9152 28.4569 14.9152 28.4569 14.9153 28.4569C14.9153 28.4569 14.9153 28.4569 14.9153 28.4569C14.9153 28.4569 14.9153 28.4569 14.9153 28.4569C14.9153 28.4569 14.9153 28.4569 14.9153 28.4569C14.9153 28.4569 14.9153 28.4569 14.9153 28.4569C14.9153 28.4569 14.9153 28.4569 14.9153 28.4569C14.9154 28.4569 14.9154 28.4569 14.9154 28.4569C14.9154 28.4569 14.9154 28.4569 14.9154 28.4569C14.9154 28.4569 14.9154 28.4569 14.9154 28.4569C14.9154 28.4569 14.9154 28.4569 14.9154 28.4569C14.9154 28.4569 14.9154 28.4569 14.9154 28.4569C14.9154 28.4569 14.9155 28.4569 14.9155 28.4569C14.9155 28.4569 14.9155 28.4569 14.9155 28.4569C14.9155 28.4569 14.9155 28.4569 14.9155 28.4569C14.9155 28.4569 14.9155 28.4569 14.9155 28.4569C14.9155 28.4569 14.9155 28.4569 14.9155 28.4569C14.9155 28.4569 14.9155 28.4569 14.9155 28.4569C14.9156 28.4569 14.9156 28.4569 14.9156 28.4569C14.9156 28.4569 14.9156 28.4569 14.9156 28.4569C14.9156 28.4569 14.9156 28.4569 14.9156 28.4569C14.9156 28.4569 14.9156 28.4569 14.9156 28.4569C14.9156 28.4569 14.9156 28.4569 14.9156 28.4569C14.9156 28.4569 14.9156 28.4569 14.9157 28.4569C14.9157 28.4569 14.9157 28.4569 14.9157 28.4569C14.9157 28.4569 14.9157 28.4569 14.9157 28.4569C14.9157 28.4569 14.9157 28.4569 14.9157 28.4569C14.9157 28.4569 14.9157 28.4569 14.9157 28.4569C14.9157 28.4569 14.9157 28.4569 14.9157 28.4569C14.9157 28.4569 14.9157 28.4569 14.9158 28.4569C14.9158 28.4569 14.9158 28.4569 14.9158 28.4569C14.9158 28.4569 14.9158 28.4569 14.9158 28.4569C14.9158 28.4569 14.9158 28.4569 14.9158 28.4569C14.9158 28.4569 14.9158 28.4569 14.9158 28.4569C14.9158 28.4569 14.9158 28.4569 14.9158 28.4569C14.9158 28.4569 14.9158 28.4569 14.9158 28.4569C14.9159 28.4569 14.9159 28.4569 14.9159 28.4569C14.9159 28.4569 14.9159 28.4569 14.9159 28.4569C14.9159 28.4569 14.9159 28.4569 14.9159 28.4569C14.9159 28.4569 14.9159 28.4569 14.9159 28.4569C14.9159 28.4569 14.9159 28.4569 14.9159 28.4569C14.9159 28.4569 14.9159 28.4569 14.9159 28.4569C14.9159 28.4569 14.916 28.4569 14.916 28.4569C14.916 28.4569 14.916 28.4569 14.916 28.4569C14.916 28.4569 14.916 28.4569 14.916 28.4569C14.916 28.4569 14.916 28.4569 14.916 28.4569C14.916 28.4569 14.916 28.4569 14.916 28.4569C14.916 28.4569 14.916 28.4569 14.916 28.4569C14.916 28.4569 14.916 28.4569 14.916 28.4569C14.916 28.4569 14.9161 28.4569 14.9161 28.4569C14.9161 28.4569 14.9161 28.4569 14.9161 28.4569C14.9161 28.4569 14.9161 28.4569 14.9161 28.4569C14.9161 28.4569 14.9161 28.4569 14.9161 28.4569C14.9161 28.4569 14.9161 28.4569 14.9161 28.4569C14.9161 28.4569 14.9161 28.4569 14.9161 28.4569C14.9161 28.4569 14.9161 28.4569 14.9161 28.4569C14.9161 28.4569 14.9162 28.4569 14.9162 28.4569C14.9162 28.4569 14.9162 28.4569 14.9162 28.4569C14.9162 28.4569 14.9162 28.4569 14.9162 28.4569C14.9162 28.4569 14.9162 28.4569 14.9162 28.4569C14.9162 28.4569 14.9162 28.4569 14.9162 28.4569C14.9162 28.4569 14.9162 28.4569 14.9162 28.4569C14.9162 28.4569 14.9162 28.4569 14.9162 28.4569C14.9162 28.4569 14.9162 28.4569 14.9163 28.4569C14.9163 28.4569 14.9163 28.4569 14.9163 28.4569C14.9163 28.4569 14.9163 28.4569 14.9163 28.4569C14.9163 28.4569 14.9163 28.4569 14.9163 28.4569C14.9163 28.4569 14.9163 28.4569 14.9163 28.4569C14.9163 28.4569 14.9163 28.4569 14.9163 28.4569C14.9163 28.4569 14.9163 28.4569 14.9163 28.4569C14.9163 28.4569 14.9163 28.4569 14.9163 28.4569C14.9163 28.4569 14.9163 28.4569 14.9164 28.4569C14.9164 28.4569 14.9164 28.4569 14.9164 28.4569C14.9164 28.4569 14.9164 28.4569 14.9164 28.4569C14.9164 28.4569 14.9164 28.4569 14.9164 28.4569C14.9164 28.4569 14.9164 28.4569 14.9164 28.4569C14.9164 28.4569 14.9164 28.4569 14.9164 28.4569C14.9164 28.4569 14.9164 28.4569 14.9164 28.4569C14.9164 28.4569 14.9164 28.4569 14.9164 28.4569C14.9164 28.4569 14.9164 28.4569 14.9165 28.4569C14.9165 28.4569 14.9165 28.4569 14.9165 28.4569C14.9165 28.4569 14.9165 28.4569 14.9165 28.4569C14.9165 28.4569 14.9165 28.4569 14.9165 28.4569C14.9165 28.4569 14.9165 28.4569 14.9165 28.4569C14.9165 28.4569 14.9165 28.4569 14.9165 28.4569C14.9165 28.4569 14.9165 28.4569 14.9165 28.4569C14.9165 28.4569 14.9165 28.4569 14.9165 28.4569C14.9165 28.4569 14.9165 28.4569 14.9165 28.4569C14.9165 28.4569 14.9165 28.4569 14.9166 28.4569C14.9166 28.4569 14.9166 28.4569 14.9166 28.4569C14.9166 28.4569 14.9166 28.4569 14.9166 28.4569C14.9166 28.4569 14.9166 28.4569 14.9166 28.4569C14.9166 28.4569 14.9166 28.4569 14.9166 28.4569C14.9166 28.4569 14.9166 28.4569 14.9166 28.4569C14.9166 28.4569 14.9166 28.4569 14.9166 28.4569C14.9166 28.4569 14.9166 28.4569 14.9166 28.4569C14.9166 28.4569 14.9166 28.4569 14.9166 28.4569C14.9166 28.4569 14.9166 28.4569 14.9166 28.4569C14.9166 28.4569 14.9167 28.4569 14.9167 28.4569C14.9167 28.4569 14.9167 28.4569 14.9167 28.4569C14.9167 28.4569 14.9167 28.4569 14.9167 28.4569C14.9167 28.4569 14.9167 28.4569 14.9167 28.4569C14.9167 28.4569 14.9167 28.4569 14.9167 28.4569C14.9167 28.4569 14.9167 28.4569 14.9167 28.4569C14.9167 28.4569 14.9167 28.4569 14.9167 28.4569C14.9167 28.4569 14.9167 28.4569 14.9167 28.4569C14.9167 28.4569 14.9167 28.4569 14.9167 28.4569C14.9167 28.4569 14.9167 28.4569 14.9167 28.4569C14.9167 28.4569 14.9168 28.4569 14.9168 28.4569C14.9168 28.4569 14.9168 28.4569 14.9168 28.4569C14.9168 28.4569 14.9168 28.4569 14.9168 28.4569C14.9168 28.4569 14.9168 28.4569 14.9168 28.4569C14.9168 28.4569 14.9168 28.4569 14.9168 28.4569C14.9168 28.4569 14.9168 28.4569 14.9168 28.4569C14.9168 28.4569 14.9168 28.4569 14.9168 28.4569C14.9168 28.4569 14.9168 28.4569 14.9168 28.4569C14.9168 28.4569 14.9168 28.4569 14.9168 28.4569C14.9168 28.4569 14.9168 28.4569 14.9168 28.4569C14.9168 28.4569 14.9168 28.4569 14.9168 28.4569C14.9168 28.4569 14.9168 28.4569 14.9169 28.4569C14.9169 28.4569 14.9169 28.4569 14.9169 28.4569C14.9169 28.4569 14.9169 28.4569 14.9169 28.4569C14.9169 28.4569 14.9169 28.4569 14.9169 28.4569C14.9169 28.4569 14.9169 28.4569 14.9169 28.4569C14.9169 28.4569 14.9169 28.4569 14.9169 28.4569C14.9169 28.4569 14.9169 28.4569 14.9169 28.4569C14.9169 28.4569 14.9169 28.4569 14.9169 28.4569C14.9169 28.4569 14.9169 28.4569 14.9169 28.4569C14.9169 28.4569 14.9169 28.4569 14.9169 28.4569C14.9169 28.4569 14.9169 28.4569 14.9169 28.4569C14.9169 28.4569 14.9169 28.4569 14.9169 28.4569C14.9169 28.4569 14.9169 28.4569 14.9169 28.4569C14.917 28.4569 14.917 28.4569 14.917 28.4569C14.917 28.4569 14.917 28.4569 14.917 28.4569C14.917 28.4569 14.917 28.4569 14.917 28.4569C14.917 28.4569 14.917 28.4569 14.917 28.4569C14.917 28.4569 14.917 28.4569 14.917 28.4569C14.917 28.4569 14.917 28.4569 14.917 28.4569C14.917 28.4569 14.917 28.4569 14.917 28.4569C14.917 28.4569 14.917 28.4569 14.917 28.4569C14.917 28.4569 14.917 28.4569 14.917 28.4569C14.917 28.4569 14.917 28.4569 14.917 28.4569C14.917 28.4569 14.917 28.4569 14.917 28.4569C14.917 28.4569 14.917 28.4569 14.917 28.4569C14.917 28.4569 14.917 28.4569 14.917 28.4569C14.917 28.4569 14.917 28.4569 14.917 28.4569C14.9171 28.4569 14.9171 28.4569 14.9171 28.4569C14.9171 28.4569 14.9171 28.4569 14.9171 28.4569C14.9171 28.4569 14.9171 28.4569 14.9171 28.4569C14.9171 28.4569 14.9171 28.4569 14.9171 28.4569C14.9171 28.4569 14.9171 28.4569 14.9171 28.4569C14.9171 28.4569 14.9171 28.4569 14.9171 28.4569C14.9171 28.4569 14.9171 28.4569 14.9171 28.4569C14.9171 28.4569 14.9171 28.4569 14.9171 28.4569C14.9171 28.4569 14.9171 28.4569 14.9171 28.4569C14.9171 28.4569 14.9171 28.4569 14.9171 28.4569C14.9171 28.4569 14.9171 28.4569 14.9171 28.4569C14.9171 28.4569 14.9171 28.4569 14.9171 28.4569C14.9171 28.4569 14.9171 28.4569 14.9171 28.4569C14.9171 28.4569 14.9171 28.4569 14.9171 28.4569C14.9171 28.4569 14.9171 28.4569 14.9171 28.4569C14.9171 28.4569 14.9171 28.4569 14.9171 28.4569C14.9171 28.4569 14.9172 28.4569 14.9172 28.4569C14.9172 28.4569 14.9172 28.4569 14.9172 28.4569C14.9172 28.4569 14.9172 28.4569 14.9172 28.4569C14.9172 28.4569 14.9172 28.4569 14.9172 28.4569C14.9172 28.4569 14.9172 28.4569 14.9172 28.4569C14.9172 28.4569 14.9172 28.4569 14.9172 28.4569C14.9172 28.4569 14.9172 28.4569 14.9172 28.4569C14.9172 28.4569 14.9172 28.4569 14.9172 28.4569C14.9172 28.4569 14.9172 28.4569 14.9172 28.4569C14.9172 28.4569 14.9172 28.4569 14.9172 28.4569C14.9172 28.4569 14.9172 28.4569 14.9172 28.4569C14.9172 28.4569 14.9172 28.4569 14.9172 28.4569C14.9172 28.4569 14.9172 28.4569 14.9172 28.4569C14.9172 28.4569 14.9172 28.4569 14.9172 28.4569C14.9172 28.4569 14.9172 28.4569 14.9172 28.4569C14.9172 28.4569 14.9172 28.4569 14.9172 28.4569C14.9172 28.4569 14.9172 28.4569 14.9172 28.4569C14.9172 28.4569 14.9172 28.4569 14.9172 28.4569C14.9172 28.4569 14.9172 28.4569 14.9172 28.4569C14.9172 28.4569 14.9172 28.4569 14.9172 28.4569C14.9173 28.4569 14.9173 28.4569 14.9173 28.4569C14.9173 28.4569 14.9173 28.4569 14.9173 28.4569C14.9173 28.4569 14.9173 28.4569 14.9173 28.4569C14.9173 28.4569 14.9173 28.4569 14.9173 28.4569C14.9173 28.4569 14.9173 28.4569 14.9173 28.4569C14.9173 28.4569 14.9173 28.4569 14.9173 28.4569C14.9173 28.4569 14.9173 28.4569 14.9173 28.4569C14.9173 28.4569 14.9173 28.4569 14.9173 28.4569C14.9173 28.4569 14.9173 28.4569 14.9173 28.4569C14.9173 28.4569 14.9173 28.4569 14.9173 28.4569C14.9173 28.4569 14.9173 28.4569 14.9173 28.4569C14.9173 28.4569 14.9173 28.4569 14.9173 28.4569C14.9173 28.4569 14.9173 28.4569 14.9173 28.4569C14.9173 28.4569 14.9173 28.4569 14.9173 28.4569C14.9173 28.4569 14.9173 28.4569 14.9173 28.4569C14.9173 28.4569 14.9173 28.4569 14.9173 28.4569C14.9173 28.4569 14.9173 28.4569 14.9173 28.4569C14.9173 28.4569 14.9173 28.4569 14.9173 28.4569C14.9173 28.4569 14.9173 28.4569 14.9173 28.4569C14.9173 28.4569 14.9173 28.4569 14.9173 28.4569C14.9173 28.4569 14.9173 28.4569 14.9173 28.4569C14.9173 28.4569 14.9173 28.4569 14.9173 28.4569C14.9173 28.4569 14.9173 28.4569 14.9173 28.4569C14.9173 28.4569 14.9173 28.4569 14.9173 28.4569C14.9173 28.4569 14.9173 28.4569 14.9173 28.4569C14.9173 28.4569 14.9173 28.4569 14.9174 28.4569C14.9174 28.4569 14.9174 28.4569 14.9174 28.4569C14.9174 28.4569 14.9174 28.4569 14.9174 28.4569C14.9174 28.4569 14.9174 28.4569 14.9174 28.4569C14.9174 28.4569 14.9174 28.4569 14.9174 28.4569C14.9174 28.4569 14.9174 28.4569 14.9174 28.4569C14.9174 28.4569 14.9174 28.4569 14.9174 28.4569C14.9174 28.4569 14.9174 28.4569 14.9174 28.4569C14.9174 28.4569 14.9174 28.4569 14.9174 28.4569C14.9174 28.4569 14.9174 28.4569 14.9174 28.4569C14.9174 28.4569 14.9174 28.4569 14.9174 28.4569C14.9174 28.4569 14.9174 28.4569 14.9174 28.4569C14.9174 28.4569 14.9174 28.4569 14.9174 28.4569C14.9174 28.4569 14.9174 28.4569 14.9174 28.4569C14.9174 28.4569 14.9174 28.4569 14.9174 28.4569C14.9174 28.4569 14.9174 28.4569 14.9174 28.4569C14.9174 28.4569 14.9174 28.4569 14.9174 28.4569C14.9174 28.4569 14.9174 28.4569 14.9174 28.4569C14.9174 28.4569 14.9174 28.4569 14.9174 28.4569C14.9174 28.4569 14.9174 28.4569 14.9174 28.4569C14.9174 28.4569 14.9174 28.4569 14.9174 28.4569C14.9174 28.4569 14.9174 28.4569 14.9174 28.4569C14.9174 28.4569 14.9174 28.4569 14.9174 28.4569C14.9174 28.4569 14.9174 28.4569 14.9174 28.4569C14.9174 28.4569 14.9174 28.4569 14.9174 28.4569C14.9174 28.4569 14.9174 28.4569 14.9174 28.4569C14.9174 28.4569 14.9174 28.4569 14.9174 28.4569C14.9174 28.4569 14.9174 28.4569 14.9174 28.4569C14.9174 28.4569 14.9174 28.4569 14.9174 28.4569C14.9174 28.4569 14.9174 28.4569 14.9174 28.4569C14.9174 28.4569 14.9174 28.4569 14.9174 28.4569C14.9174 28.4569 14.9174 28.4569 14.9174 28.4569C14.9174 28.4569 14.9174 28.4569 14.9174 28.4569C14.9174 28.4569 14.9174 28.4569 14.9174 28.4569C14.9174 28.4569 14.9174 28.4569 14.9174 28.4569C14.9174 28.4569 14.9174 28.4569 14.9174 28.4569C14.9174 28.4569 14.9174 28.4569 14.9174 28.4569H14.9174C14.9174 28.4569 14.9174 28.4569 14.9174 28.4569C14.9174 28.4569 14.9174 28.4569 14.9174 28.4569C14.9174 28.4569 14.9174 28.4569 14.9174 28.4569C14.9174 28.4569 14.9174 28.4569 14.9175 28.4569H14.9175C14.9175 28.4569 14.9175 28.4569 14.9175 28.4569C14.9175 28.4569 14.9175 28.4569 14.9175 28.4569H14.9175C14.9175 28.4569 14.9175 28.4569 14.9175 28.4569C14.9175 28.4569 14.9175 28.4569 14.9175 28.4569H14.9175C14.9175 28.4569 14.9175 28.4569 14.9175 28.4569H14.9175C14.9175 28.4569 14.9175 28.4569 14.9175 28.4569H14.9175C14.9175 28.4569 14.9175 28.4569 14.9175 28.4569C14.9175 28.4569 14.9175 28.4569 14.9175 28.4569H14.9175C14.9175 28.4569 14.9175 28.4569 14.9175 28.4569C14.9175 28.4569 14.9175 28.4569 14.9175 28.4569H14.9175H14.9175C14.9175 28.4569 14.9175 28.4569 14.9175 28.4569C14.9175 28.4569 14.9175 28.4569 14.9175 28.4569C14.9175 28.4569 14.9175 28.4569 14.9175 28.4569C14.9175 28.4569 14.9175 28.4569 14.9175 28.4569C14.9175 28.4569 14.9175 28.4569 14.9175 28.4569C14.9175 28.4569 14.9175 28.4569 14.9175 28.4569C14.9175 28.4569 14.9175 28.4569 14.9175 28.4569C14.9175 28.4569 14.9175 28.4569 14.9175 28.4569C14.9175 28.4569 14.9175 28.4569 14.9175 28.4569C14.9175 28.4569 14.9175 28.4569 14.9175 28.4569C14.9175 28.4569 14.9175 28.4569 14.9175 28.4569C14.9175 28.4569 14.9175 28.4569 14.9175 28.4569C14.9175 28.4569 14.9175 28.4569 14.9175 28.4569C14.9175 28.4569 14.9175 28.4569 14.9175 28.4569H14.9175C14.9175 28.4569 14.9175 28.4569 14.9175 28.4569C14.9175 28.4569 14.9175 28.4569 14.9175 28.4569H14.9175C14.9175 28.4569 14.9175 28.4569 14.9175 28.4569H14.9175C14.9175 28.4569 14.9175 28.4569 14.9175 28.4569C14.9175 28.4569 14.9175 28.4569 14.9175 28.4569H14.9175H14.9175H14.9175H14.9175C14.9175 28.4569 14.9175 28.4569 14.9175 28.4569H14.9175H14.9175C14.9175 28.4569 14.9175 28.4569 14.9175 28.4569H14.9175C14.9175 28.4569 14.9175 28.4569 14.9175 28.4569C14.9175 28.4569 14.9175 28.4569 14.9175 28.4569C14.9175 28.4569 14.9175 28.4569 14.9175 14.1712ZM13.4247 -0.0370422C13.1605 -0.00941771 12.9343 0.00387639 12.7521 0.00591791C12.5643 0.00802118 12.4943 -0.00276053 12.5291 0.00169849C12.5585 0.00547242 12.8023 0.0374403 13.1962 0.17425C13.5983 0.313918 14.2333 0.590032 14.9488 1.11375L-1.9275 24.1684C5.213 29.3953 13.6762 28.6639 16.3962 28.3794L13.4247 -0.0370422ZM14.9828 1.13873C15.9906 1.88106 16.5842 2.68003 16.8917 3.1923C17.0444 3.44668 17.1377 3.64778 17.1895 3.77103C17.2414 3.89454 17.2629 3.96669 17.2653 3.975C17.268 3.98418 17.2589 3.9542 17.2437 3.87995C17.2287 3.80658 17.2115 3.70812 17.1941 3.58268C17.1579 3.32083 17.1334 3.03957 17.107 2.64137L-11.4017 4.53457C-11.3228 5.72289 -11.1182 8.7399 -10.1375 12.0628C-9.1918 15.2669 -7.05413 20.3924 -1.96151 24.1435L14.9828 1.13873ZM6.33016 17.444C6.22697 17.4699 6.32214 17.4418 6.54592 17.4152C6.7611 17.3896 6.94148 17.3839 7.04683 17.3875C7.16867 17.3916 7.01775 17.4015 6.65643 17.3035C6.29215 17.2046 5.48464 16.9325 4.54157 16.2379L21.4859 -6.76681C16.6179 -10.3524 11.2528 -11.0587 8.00665 -11.1678C4.55357 -11.2839 1.4472 -10.7881 -0.624856 -10.268L6.33016 17.444Z" fill="#FCFBF7" mask="url(#path-1-inside-1_1403_11418)"/>
</svg>
