<svg width="40" height="43" viewBox="0 0 40 43" fill="none" xmlns="http://www.w3.org/2000/svg">
<path d="M25.4258 15.9324C25.0468 16.3124 25.1231 16.5898 25.1215 17.1198C25.1409 19.444 26.401 20.6801 27.9262 22.2655C28.1173 22.4532 28.309 22.6403 28.5019 22.8262C28.6627 22.9894 28.8218 23.1543 28.9789 23.321L29.2185 23.5745C29.8978 24.4172 29.8861 25.3233 29.7999 26.3564C29.7244 26.989 29.566 27.5968 29.3737 28.2027C29.1326 27.7882 29.0766 27.4798 29.0699 27.0024L29.0599 26.6161C29.0553 26.3485 29.0512 26.0808 29.0476 25.8131L29.037 25.4274L29.0317 25.0753C28.9671 24.7043 28.8665 24.617 28.5842 24.3765C28.3513 24.2638 28.3513 24.2638 28.0907 24.1741L27.7939 24.0701L27.4748 23.9626L27.1449 23.849C26.9148 23.77 26.6845 23.6916 26.454 23.6138C26.102 23.4947 25.7508 23.3733 25.3996 23.2517C25.1757 23.1752 24.9518 23.0988 24.7278 23.0226L24.4103 22.9126C23.452 22.5919 23.452 22.5919 22.9255 22.6613C22.613 22.8839 22.613 22.8839 22.3991 23.189C22.3991 23.5271 22.3991 23.5271 22.5307 23.8487C22.9552 24.2385 23.4143 24.3911 23.9552 24.5708L23.9582 24.5718L24.2187 24.6589C24.3996 24.7191 24.5806 24.7788 24.7619 24.8381C25.0392 24.929 25.3159 25.0215 25.5927 25.1143C26.9488 25.5639 26.9488 25.5639 27.3998 25.5639L27.3813 25.9077C27.3457 27.0761 27.3546 28.4202 28.1277 29.3752C28.51 29.7031 28.8502 29.9065 29.3491 29.9509C29.9863 29.9008 30.2851 29.6806 30.7061 29.2088C31.3607 28.1043 31.3906 26.7795 31.4135 25.531L31.4257 25.1622C31.4261 23.8526 30.8302 22.9935 29.9412 22.0841C29.5914 21.7179 28.902 21.1401 28.6201 20.7162C28.4199 20.3602 28.1794 20.1472 27.8768 19.8741C26.9183 18.9269 26.6884 17.9935 26.659 16.6668C26.6102 16.3282 26.6102 16.3282 26.4344 16.087C26.0982 15.8496 25.8246 15.8899 25.4258 15.9324Z" fill="#FCFBF7"/>
<path d="M27.3996 4.05791C26.845 4.22446 26.456 4.49263 26.0178 4.86603C25.7194 5.43946 25.7128 5.93184 25.8204 6.56475C26.0571 7.20603 26.3399 7.83505 26.8732 8.27995C27.2489 8.33645 27.445 8.3336 27.7697 8.13152C28.0006 7.76594 27.9769 7.51773 27.926 7.0925C27.7985 6.87019 27.6667 6.65027 27.5312 6.43281C27.4815 6.16996 27.437 5.90605 27.3996 5.64118C27.52 5.63471 27.6405 5.62825 27.7646 5.62159C27.921 5.61173 28.0774 5.60186 28.2385 5.5917C28.3942 5.58251 28.55 5.57333 28.7104 5.56387C29.1103 5.50924 29.1103 5.50924 29.3735 5.24536C29.4464 4.55822 29.4464 4.55822 29.2203 4.23417C28.707 3.85969 28.002 3.98902 27.3996 4.05791Z" fill="#FCFBF7"/>
<path d="M32.137 4.71756C31.8738 4.85775 31.8738 4.85775 31.7422 5.11338C31.7861 5.94899 31.7861 5.94899 32.137 6.30083C32.3838 6.34052 32.3838 6.34052 32.6634 6.34206C32.7557 6.34427 32.848 6.34648 32.9431 6.34876C33.0245 6.33294 33.1059 6.31713 33.1898 6.30083C33.4942 5.8431 33.5089 5.65142 33.453 5.11338C33.153 4.58265 32.6913 4.65803 32.137 4.71756Z" fill="#FCFBF7"/>
<path fill-rule="evenodd" clip-rule="evenodd" d="M26.4785 1.81495C23.9398 3.56765 22.7898 6.46219 22.0371 9.35197L21.9643 9.62525C21.9635 9.57929 21.96 9.58808 21.9481 9.68607C21.831 10.1546 21.73 10.628 21.707 11.1065C21.6451 11.4679 21.5764 11.8684 21.5074 12.2703L21.504 12.2902L21.5038 12.2914C21.2816 13.5861 21.0579 14.8901 21.0496 14.9546L21.0024 15.3629L20.9486 15.7913C20.9105 16.0952 20.8731 16.3993 20.8363 16.7034C20.7418 17.4818 20.6421 18.2596 20.5423 19.0374L20.4742 19.5704C20.2953 20.9593 20.0906 22.3429 19.8658 23.7251L19.8185 24.021C19.6556 25.0373 19.4665 26.039 19.2061 27.0352C19.1076 27.4171 19.02 27.8001 18.9349 28.1852C18.4264 30.5907 18.1752 31.779 17.6923 32.8635C17.221 33.9221 16.5289 34.882 15.1612 36.7788C14.1509 37.3069 13.0776 37.4759 11.9618 37.6446C11.7824 37.6729 11.6031 37.7011 11.4238 37.7294C10.2026 37.9181 8.98088 38.0554 7.75072 38.1724C5.03412 38.4312 2.19365 38.7659 0.337646 40.9802C0.0523491 41.4352 -0.0583878 41.9186 0.0276756 42.4522C0.249123 42.7504 0.366474 42.8392 0.737 42.8973L1.11409 42.8971L1.54333 42.8996L2.00933 42.8959L2.49324 42.8961C2.83298 42.8958 3.17271 42.8945 3.51244 42.8923C4.02333 42.8893 4.53413 42.8896 5.04504 42.8905C7.42757 42.8879 9.78224 42.8236 12.1098 42.2707L12.4942 42.1828C12.8573 42.0988 13.2198 42.0122 13.5821 41.9244L13.8716 41.8553C14.8509 41.6186 15.8058 41.3234 16.7568 40.9926L17.0405 40.8944C17.4385 40.7519 17.7993 40.6013 18.1622 40.3829C18.2999 40.284 18.372 40.2323 18.4524 40.2088C18.5408 40.183 18.6392 40.1914 18.8459 40.2092L18.9384 40.4372C19.0766 40.7767 19.2162 41.1155 19.3559 41.4544L19.5013 41.8133L19.6427 42.1548L19.7722 42.4709C19.8335 42.5898 19.8651 42.651 19.9114 42.6975C19.9605 42.747 20.0263 42.78 20.1618 42.8479C20.4077 42.8611 20.6541 42.8658 20.9003 42.8665L21.3761 42.8688L21.9009 42.8692L22.0949 42.8699C22.1648 42.8701 22.2348 42.8704 22.3048 42.8707L22.4514 42.8712C22.9506 42.8729 23.4498 42.8738 23.949 42.8744C24.2606 42.8748 24.5723 42.8753 24.8839 42.8759C25.8584 42.8777 26.8329 42.879 27.8074 42.8795C28.9335 42.8801 30.0596 42.8824 31.1856 42.8862C32.0554 42.8891 32.9251 42.8904 33.7948 42.8906C34.3146 42.8907 34.8344 42.8915 35.3542 42.8939C35.8429 42.896 36.3316 42.8963 36.8204 42.8952C37.0858 42.895 37.3511 42.8968 37.6165 42.8987L38.0934 42.8965L38.5089 42.897C38.8485 42.848 38.8485 42.848 39.0896 42.6634C39.3856 42.2568 39.3181 41.7862 39.2496 41.3087L39.2433 41.2647C38.933 40.2592 38.2136 39.5813 37.3763 38.9888C36.1363 38.3478 34.8192 38.3073 33.4531 38.362C33.5511 38.123 33.6492 37.8839 33.7473 37.6448C33.8313 37.4401 33.9152 37.2354 33.9991 37.0306C34.2923 36.3159 34.5907 35.6036 34.895 34.8935C35.2211 34.0437 35.3424 33.3018 35.3366 32.4001L35.3361 32.0674C35.3239 31.283 35.2174 30.5719 34.987 29.819C34.9388 29.6769 34.9128 29.6003 34.9005 29.5214C34.8861 29.429 34.8907 29.3336 34.9007 29.1263L35.1063 29.2583C35.5625 29.4459 35.8576 29.4569 36.3482 29.3902C37.0385 29.0485 37.3308 28.5434 37.5819 27.8317C37.7742 27.1594 37.8995 26.5256 37.9274 25.8278L37.9572 25.3609C38.0329 23.368 37.1952 22.3258 35.9133 20.92C35.4734 20.4511 35.0181 19.9972 34.5539 19.5526C33.7667 18.7897 33.3228 18.1286 33.2899 17.0074C33.2454 15.5707 33.0085 14.2481 32.518 12.8911C32.2881 12.1311 32.2507 11.2339 32.5047 10.475C32.7302 10.0566 32.8653 9.88376 33.3215 9.73129C33.5714 9.72221 33.8215 9.72008 34.0715 9.72202L34.521 9.71789C34.8319 9.71585 35.1427 9.71683 35.4535 9.72098C36.2193 9.70876 36.7488 9.6833 37.3429 9.16901C37.4978 9.00832 37.6493 8.84418 37.7958 8.67578L38.1196 8.34439L38.3715 8.05732L38.6296 7.76715C38.984 7.31582 39.1536 6.952 39.1775 6.37509L39.1981 6.07875C39.0627 5.59955 38.728 5.36619 38.3222 5.11343C38.0575 4.99622 37.7915 4.90065 37.5174 4.80761C36.4011 4.42835 35.8247 4.01349 35.1674 3.00292C34.3664 1.81289 33.2303 1.10141 31.8801 0.679042C30.0276 0.324586 28.055 0.834836 26.4785 1.81495ZM27.3421 3.20856C25.153 4.74496 24.1951 7.34835 23.6245 9.86323C23.6163 9.92396 23.3721 11.4501 23.1297 12.9651L23.1295 12.9663C22.8906 14.4589 22.6536 15.9403 22.6458 15.9984C22.4659 17.3559 22.2626 18.7099 22.056 20.0635L22.0042 20.4019C21.6838 22.5029 21.3341 24.5964 20.925 26.6821L20.8281 27.172C20.6368 28.1642 20.4298 29.1423 20.1521 30.1143C20.0196 30.562 19.8891 31.0091 19.7678 31.4601C19.2592 33.3788 18.4633 35.2715 17.2657 36.8669C16.7391 37.485 16.373 37.9146 15.9288 38.2353C14.9162 38.9663 13.4974 39.1315 8.84469 39.6732C8.62908 39.6979 8.41288 39.7217 8.19658 39.7455C6.14557 39.9711 4.07765 40.1986 2.26481 41.2647L2.51389 41.2684C5.928 41.3189 9.32961 41.3693 12.6599 40.4854C12.9325 40.4107 13.2051 40.3365 13.4789 40.2659L13.5889 40.2377C15.1774 39.8309 16.8456 39.4036 18.1962 38.4445L18.4686 38.2471C18.8232 38.0322 19.1018 38.0293 19.5039 38.0982C19.6154 38.154 19.6796 38.1863 19.7307 38.233C19.8002 38.2966 19.8452 38.387 19.9516 38.6007L20.1537 39.0795C20.2948 39.4092 20.4285 39.7422 20.5567 40.0773L20.9515 41.3966L29.5052 41.2647C28.6609 40.5875 27.984 40.4406 26.9388 40.4434L26.6512 40.4483C26.1593 40.4488 25.6797 40.451 25.1939 40.5385C24.6609 40.6588 24.0841 40.7241 23.5834 40.4731C23.5348 40.3755 23.5041 40.3141 23.4827 40.2495C23.4462 40.1394 23.4366 40.0203 23.4107 39.6979C23.4177 38.4989 24.3005 37.3943 25.0442 36.5234C25.4305 36.0759 25.8137 35.6259 26.1917 35.1713C26.7194 34.4441 26.7041 33.6959 26.6101 32.8206L26.4785 32.5567C26.4677 32.53 26.457 32.5034 26.4463 32.4768C26.249 31.9867 26.0583 31.5133 25.7419 31.0843C25.6003 30.9101 25.4599 30.7349 25.3209 30.5586C25.0899 30.2014 25.0843 29.9339 25.1625 29.5221C25.2831 29.4012 25.3485 29.3357 25.4266 29.2947C25.519 29.2461 25.6292 29.2318 25.8699 29.2005C26.136 29.2327 26.2536 29.247 26.3528 29.2976C26.4314 29.3378 26.4983 29.4009 26.6183 29.5139L26.8733 29.918C27.6142 30.916 28.2376 32.005 28.3661 33.2638C28.3799 34.6849 28.0051 35.6475 27.0296 36.6881C26.3889 37.3676 25.8952 38.0841 25.4257 38.8898C25.7469 38.885 26.0678 38.878 26.3888 38.8687L26.7828 38.8568L27.1722 38.8512L27.5462 38.8383L27.8908 38.8299C28.0463 38.8069 28.1255 38.7952 28.1897 38.7576C28.2564 38.7186 28.3068 38.6516 28.4097 38.5151L28.584 38.2301C28.7257 38.0141 28.8673 37.7979 29.0064 37.5803L29.1598 37.3395L29.1609 37.3378C29.4396 36.9061 29.7163 36.4777 29.9643 36.0273C29.9913 35.9781 30.2287 35.2893 30.4643 34.6056C30.6965 33.9321 30.9269 33.2635 30.9528 33.2164C31.0685 32.6952 31.183 32.1739 31.2902 31.6508L31.3476 31.3693C31.5859 29.5147 31.7053 28.5864 31.7593 27.6542C31.8135 26.7199 31.8021 25.7817 31.7794 23.9033C31.7764 23.4138 31.7745 22.9243 31.774 22.4348C31.7734 21.8353 31.7722 21.2359 31.7702 20.6364L31.7691 20.2936C31.7655 18.7053 31.7306 17.1413 31.4855 15.5687L31.438 15.281C31.3472 14.7214 31.2486 14.1855 31.0731 13.6457C30.6871 12.6206 30.3756 11.3949 30.8243 10.3374L30.9528 10.1271C30.6938 10.227 30.4291 10.3115 30.1632 10.391C30.1094 10.401 30.0573 10.411 30.0067 10.4207C29.4626 10.5254 29.0898 10.5971 28.584 10.259C28.5517 10.0362 28.5353 9.92282 28.5347 9.80939C28.5341 9.692 28.5506 9.57452 28.584 9.33547C28.7353 9.21192 28.8364 9.12927 28.9469 9.06217C29.1703 8.92658 29.4321 8.8545 30.2227 8.63677L30.6156 8.5356C31.9253 8.1972 33.2015 8.05454 34.547 7.99135L35.0697 7.9725L35.5571 7.95269C35.6012 7.95148 35.6436 7.95066 35.6845 7.94987C36.0382 7.94302 36.2799 7.93835 36.5819 7.6988L36.743 7.48833L36.9543 7.21878L37.1625 6.93584C37.2861 6.76839 37.4096 6.60079 37.5326 6.43282C37.427 6.43282 37.3638 6.43282 37.3017 6.42471C37.2088 6.41259 37.1183 6.38239 36.8926 6.30706L36.4387 6.13596C35.6793 5.85468 35.1408 5.55925 34.6431 4.90882C33.9369 3.85486 33.175 2.92122 31.9752 2.42826C30.39 2.05614 28.7172 2.35532 27.3421 3.20856ZM32.4003 34.14C32.4522 34.0554 32.4767 33.9704 32.4815 33.8846C32.5525 33.6529 32.6151 33.4235 32.6717 33.1834L32.7392 32.9067C32.9691 31.9206 33.0885 30.9243 33.1899 29.918C33.8864 30.9654 33.7411 32.8224 33.504 34.0199C33.3752 34.3801 33.2216 34.7176 33.0583 35.0636C32.9224 35.3833 32.7894 35.7041 32.6562 36.0249L32.6562 36.0251L32.6512 36.0371C32.473 36.4653 32.2911 36.8919 32.1088 37.3184C31.9041 37.8181 31.8489 38.2198 31.841 38.7579L31.8308 39.1784C31.8557 39.3927 31.8662 39.4833 31.9007 39.5635C31.9258 39.6222 31.9638 39.6754 32.0295 39.7675C32.3361 39.9954 32.5488 39.995 32.9079 39.9943C32.9315 39.9943 32.9557 39.9943 32.9807 39.9943L33.4086 40.0012C33.7034 40.0024 33.9981 40.0031 34.2928 40.0033C35.2183 40.0193 36.0802 40.0882 36.8746 40.605L37.5326 41.3966H31.216L31.0844 40.7369C30.9856 40.5938 30.9355 40.5211 30.881 40.452C30.8248 40.3808 30.7639 40.3133 30.6403 40.1763L30.6402 40.1762L30.3986 39.902C30.2952 39.8052 30.2373 39.7508 30.1713 39.7092C30.0871 39.656 29.9898 39.6235 29.7684 39.5495C30.0685 39.0173 30.3749 38.4899 30.6896 37.9662L30.8921 37.6266C30.9492 37.5316 31.2748 36.7594 31.6099 35.9649L31.61 35.9647C31.9682 35.1153 32.3372 34.2403 32.4003 34.14ZM32.0015 32.5621C31.9876 32.524 31.996 32.5172 32.0037 32.5234C32.0113 32.5296 32.0183 32.5486 32.0015 32.5621ZM33.453 20.5503H33.3214V23.4529C34.7505 23.9025 34.9624 23.9691 35.1768 23.979C35.2141 23.9807 35.2515 23.9807 35.2953 23.9807L35.3149 24.4873C35.3248 24.7115 35.3347 24.9357 35.3447 25.1599L35.357 25.492C35.3912 26.2266 35.4419 26.9771 35.6901 27.675L35.9533 27.8069C36.2165 27.2439 36.3072 26.7058 36.3481 26.0917L36.3836 25.5959C36.4321 24.6196 36.4311 23.8349 35.7919 23.0406L35.3334 22.5541C35.1829 22.4012 35.0301 22.2506 34.8749 22.1026C34.5457 21.7797 34.248 21.432 33.9484 21.082L33.911 21.0383C33.7647 20.8699 33.6105 20.7082 33.453 20.5503ZM33.3215 25.0362H33.8479C33.884 25.0724 33.9111 25.0996 33.9321 25.131C33.9955 25.2257 34.0026 25.3583 34.0314 25.8915L34.0342 25.9506C34.0628 26.5524 34.0911 27.1468 34.181 27.7435L34.2427 28.0708L33.9795 27.8069C33.2356 26.9458 33.246 26.1395 33.3215 25.0362Z" fill="#FCFBF7"/>
</svg>
