<svg width="37" height="33" viewBox="0 0 37 33" fill="none" xmlns="http://www.w3.org/2000/svg">
<path d="M5.92613 22.5537H6.60929C5.61199 21.6557 4.98182 20.3579 4.98115 18.9096C4.98182 16.198 7.17945 14.0015 9.89114 14.0008H12.6965C12.5566 13.8028 12.4111 13.5861 12.2637 13.342C11.5855 12.2147 10.8972 10.5903 10.8966 8.62058C10.896 7.58761 11.0883 6.46409 11.5623 5.2906C12.2181 3.66245 13.2461 2.45842 14.4732 1.67958C15.6998 0.898914 17.113 0.542363 18.5383 0.54297C20.1557 0.543576 21.7939 0.997019 23.2478 1.82198C23.4651 1.94375 23.6593 1.99931 23.8954 2.04058C24.2445 2.10429 24.7004 2.10558 25.2532 2.27792C25.8071 2.45026 26.4041 2.81497 27.0042 3.49827C27.9386 4.5512 28.6873 5.19755 29.1901 5.5748C29.4418 5.764 29.6322 5.88516 29.754 5.95765C29.8146 5.99385 29.8583 6.01752 29.8845 6.03074L29.9096 6.04321L29.9121 6.04442V6.0451L29.9926 6.0807L30.0638 6.14253C30.433 6.46166 30.6434 6.92441 30.6434 7.41028L30.6422 7.46962V7.46517C30.6378 7.59071 30.6202 7.7462 30.5866 7.94477C30.5423 8.19458 30.4642 8.49625 30.3486 8.79974C30.4405 8.78349 30.5279 8.77041 30.6223 8.75227C31.0582 8.67048 31.5234 8.58492 32.0161 8.58492C32.7811 8.58114 33.6161 8.80533 34.4312 9.55167L34.0834 9.93263C33.5281 9.4324 33.0123 9.21448 32.5014 9.137C32.8412 9.45364 33.0686 9.83837 33.2128 10.1543C33.3664 10.4885 33.4302 10.7439 33.4327 10.7545L32.9324 10.88L32.9305 10.8781C32.9224 10.8419 32.81 10.4309 32.5602 10.0219C32.4359 9.81639 32.2779 9.61411 32.0887 9.45539C31.9044 9.30051 31.6908 9.18872 31.4404 9.14253C31.1993 9.17247 30.9589 9.21306 30.7172 9.25803C30.4961 9.2999 30.275 9.34171 30.0526 9.3736C30.0258 9.4117 30.0034 9.45107 29.9727 9.48789C29.8953 9.57972 29.7978 9.66711 29.6854 9.74458C29.5612 9.97066 29.3163 10.2229 28.9342 10.3934C28.5295 10.5764 27.9843 10.6888 27.2074 10.6894C26.1938 10.6888 25.0965 10.5464 24.0617 10.2966C23.0268 10.0455 22.0594 9.69266 21.2963 9.23673C20.9278 9.01314 20.4257 8.87761 19.9679 8.88018C19.5477 8.87829 19.1785 8.99129 18.9549 9.1662C18.8412 9.25426 18.7576 9.35479 18.6945 9.48344C18.6327 9.6133 18.5908 9.77701 18.5902 10.0024C18.5902 10.364 18.6858 10.7262 18.8713 11.0985C19.1479 11.6556 19.6344 12.2226 20.2308 12.7409C20.7673 13.2081 21.3894 13.6334 22.0095 14.0006H26.6653C29.377 14.0012 31.574 16.1977 31.5746 18.9094C31.5739 20.3577 30.9438 21.6555 29.9464 22.5535H30.6297C33.3414 22.5535 35.5385 24.7505 35.5391 27.4623C35.5385 30.1739 33.3414 32.3709 30.6297 32.3716H5.9262C3.21451 32.3709 1.01742 30.1739 1.01681 27.4623C1.01742 24.7507 3.21444 22.5537 5.92613 22.5537ZM18.7438 13.086C18.3372 12.6538 17.9844 12.1841 17.7271 11.6701C17.4704 11.1574 17.3111 10.5948 17.3111 10.0027C17.3105 9.61115 17.3892 9.24704 17.5416 8.93034C17.7689 8.45323 18.1573 8.10599 18.587 7.89872C19.0192 7.68882 19.4938 7.60137 19.9678 7.60076C20.6604 7.60265 21.3592 7.78564 21.9538 8.14037C22.5514 8.5007 23.4221 8.82799 24.3619 9.05407C25.3018 9.28143 26.3148 9.41129 27.2072 9.41062C27.8886 9.41129 28.2509 9.30321 28.4239 9.22021C28.2277 9.13269 28.0348 9.02346 27.8518 8.8617L28.1921 8.47326C28.3614 8.61937 28.53 8.7137 28.7024 8.78173L28.9653 8.69435L28.9665 8.69307C28.9853 8.67938 29.0446 8.60757 29.0978 8.49699C29.1801 8.33146 29.2526 8.0898 29.2976 7.8762C29.3432 7.66569 29.3638 7.46463 29.3644 7.42154V7.41716V7.41028C29.3644 7.30914 29.3207 7.21609 29.252 7.14233C28.8723 6.93816 27.7094 6.22115 26.0476 4.34643C25.7216 3.97915 25.4487 3.77249 25.2107 3.64324C24.856 3.45269 24.5519 3.41277 24.1296 3.36281C23.7175 3.31406 23.181 3.25601 22.6165 2.93377C21.3474 2.21305 19.9148 1.82151 18.5384 1.82212C17.3236 1.82212 16.1583 2.12378 15.1596 2.75887C14.1617 3.39531 13.3179 4.36517 12.749 5.76912C12.3355 6.79272 12.1763 7.74445 12.1757 8.62072C12.1751 10.2851 12.7621 11.6902 13.3598 12.6832C13.6577 13.1785 13.9569 13.5694 14.178 13.8318C14.2323 13.8961 14.2816 13.9523 14.3254 14.001H19.7587C19.4001 13.7148 19.0536 13.4145 18.7438 13.086ZM30.2956 18.9096C30.2956 17.9047 29.8903 17.0017 29.2327 16.3429C28.5732 15.6852 27.6701 15.2805 26.6653 15.2798H9.8912C8.88635 15.2805 7.98263 15.6852 7.32374 16.3429C6.66553 17.0017 6.26083 17.9047 6.26016 18.9096C6.26083 19.9138 6.66546 20.8175 7.32374 21.4764C7.98263 22.1346 8.88635 22.5393 9.8912 22.54V22.5537H26.6653V22.54C27.6701 22.5393 28.5732 22.1346 29.2321 21.4764C29.8903 20.8175 30.2956 19.9138 30.2956 18.9096ZM3.35934 30.0292C4.01823 30.6874 4.92188 31.0921 5.92613 31.0928H30.6297C31.6346 31.0922 32.5376 30.6875 33.1965 30.0292C33.8548 29.3703 34.2601 28.4667 34.2601 27.4625C34.2601 26.4582 33.8548 25.5546 33.1971 24.8957C32.5377 24.2381 31.6346 23.8328 30.6297 23.8328H5.9262C4.92134 23.8328 4.0183 24.2382 3.35941 24.8957C2.70112 25.5546 2.29643 26.4582 2.29582 27.4625C2.29636 28.4667 2.70105 29.3703 3.35934 30.0292Z" fill="#FCFBF7" stroke="#FCFBF7"/>
<path d="M22.3662 4.73828C22.7597 4.73828 23.0781 5.0568 23.0781 5.45024C23.0781 5.84246 22.7597 6.16159 22.3662 6.16159C21.9734 6.16159 21.6548 5.84246 21.6548 5.45024C21.6548 5.0568 21.9734 4.73828 22.3662 4.73828Z" fill="#FCFBF7" stroke="#FCFBF7"/>
</svg>
