<svg width="35" height="35" viewBox="0 0 35 35" fill="none" xmlns="http://www.w3.org/2000/svg">
<mask id="path-1-outside-1_1403_11453" maskUnits="userSpaceOnUse" x="0" y="-0.808594" width="35" height="36" fill="black">
<rect fill="white" y="-0.808594" width="35" height="36"/>
<path d="M7.56191 0.694836C7.35009 0.760555 7.03556 0.924858 6.86867 1.0563C6.34873 1.45061 5.92508 2.26554 5.92508 2.88331C5.92508 3.01475 5.87373 3.04104 5.49501 3.11333C4.39737 3.31706 3.60142 4.1517 3.49229 5.21636L3.45378 5.5844L3.07506 5.6304C2.06086 5.76184 1.26491 6.53076 1.04025 7.60199C0.956803 7.99631 1.00174 8.44978 1.18789 8.95582C1.30985 9.30414 1.53451 9.55388 4.47439 12.5704C7.77374 15.9616 8.10111 16.2573 9.05112 16.6845C9.82781 17.0262 10.3734 17.1379 11.3491 17.1445C12.1001 17.1445 12.344 17.1248 12.8255 16.9934L13.4032 16.8422L13.7113 17.1905L14.013 17.5388L8.5376 23.1645C3.42169 28.4089 3.04939 28.8098 2.88249 29.191C2.69634 29.6379 2.52303 30.3608 2.52303 30.7222C2.52303 31.1166 2.70918 31.8526 2.90817 32.2667C3.87743 34.2777 6.56056 34.8232 8.18455 33.3313C8.35145 33.1802 10.5532 30.5119 13.0822 27.4034C15.6113 24.2948 17.7039 21.7515 17.7295 21.7515C17.7616 21.7515 20.1302 24.3671 22.9867 27.5677C26.2732 31.2414 28.308 33.4628 28.507 33.6008C29.2516 34.1134 30.3171 34.3171 31.1773 34.1134C31.8063 33.9622 32.3391 33.6534 32.827 33.1539C34.0851 31.8723 34.1621 29.8087 32.9938 28.4418C32.8783 28.3103 30.7665 26.3124 28.2952 23.9991C25.8239 21.6858 23.7313 19.7207 23.6414 19.6419L23.4874 19.4841L26.4722 16.415C28.1154 14.7195 29.6046 13.1488 29.7844 12.9122C30.8884 11.4598 31.6844 9.73789 32.0438 8.01603C32.5124 5.78813 32.3134 3.17905 31.5239 1.22717C31.3057 0.688267 31.0938 0.510822 30.7408 0.583115C30.5867 0.615974 29.1746 2.02238 24.0458 7.2734L17.5498 13.9242L17.2417 13.6351C17.0748 13.4774 16.9208 13.3393 16.9079 13.3328C16.8951 13.3196 16.9529 13.0699 17.0363 12.7676C17.2353 12.0381 17.2545 10.4411 17.0684 9.72475C16.9208 9.15298 16.4714 8.14747 16.1569 7.70057C15.8231 7.22739 9.93693 1.18774 9.58389 0.951145C8.97409 0.556828 8.24874 0.464817 7.56191 0.694836ZM8.7751 2.00266C9.12172 2.17353 14.8603 8.06204 15.1941 8.59437C15.9257 9.74848 16.0982 11.1023 15.798 12.3274C15.4846 13.6067 14.6556 14.7456 13.4096 15.3701C13.0959 15.5273 12.7698 15.646 12.4382 15.7265C11.1616 16.0367 9.80148 15.7832 8.73659 14.9955C8.51192 14.8312 6.99705 13.3262 5.37305 11.6503C2.21492 8.40378 2.20208 8.39063 2.29837 7.86488C2.36256 7.51656 2.54229 7.24054 2.83114 7.07624C3.12641 6.90536 3.595 6.88565 3.85817 7.02366C3.95446 7.07624 4.95582 8.06861 6.08555 9.23185C7.21529 10.3951 8.22307 11.3875 8.32577 11.4466C8.82003 11.7095 9.39774 11.1837 9.19875 10.6448C9.16024 10.5331 8.20381 9.5013 7.02272 8.27891C5.86089 7.08281 4.87879 6.04444 4.84028 5.96557C4.71831 5.72898 4.75683 5.23608 4.91088 4.94691C5.1548 4.50002 5.62981 4.30286 6.13049 4.4343C6.37441 4.50002 6.66326 4.77604 8.55685 6.70821C10.0268 8.20662 10.7714 8.92296 10.9062 8.96239C11.3042 9.08069 11.7021 8.75209 11.7021 8.31834C11.7021 8.10147 11.5545 7.93717 9.55821 5.88014C8.37712 4.67089 7.36935 3.58651 7.31158 3.46822C7.11901 3.0739 7.22171 2.51528 7.53624 2.19982C7.88928 1.85808 8.34503 1.78579 8.7751 2.00266ZM30.8178 3.38935C30.959 4.09913 30.9847 4.36858 30.9847 5.45296C30.9911 6.89879 30.8948 7.56256 30.5097 8.77181C30.1246 9.98105 29.5083 11.1443 28.7252 12.1564C28.3722 12.6098 22.6336 18.5641 22.5438 18.5641C22.5053 18.5641 19.7515 16.0141 18.8721 15.1598L18.4934 14.7983L24.5144 8.6338C27.8266 5.24265 30.5611 2.48899 30.5931 2.52185C30.6252 2.55471 30.7215 2.94246 30.8178 3.38935ZM20.9005 18.8467C23.3782 21.1666 26.9151 24.4789 28.7573 26.2073C31.9476 29.191 32.1144 29.3618 32.3199 29.7825C32.4996 30.1636 32.5317 30.2885 32.5317 30.7222C32.5253 31.5897 32.1144 32.2601 31.357 32.6413C30.9847 32.8319 30.8692 32.8581 30.4134 32.8581C29.7073 32.8581 29.3415 32.6741 28.7317 32.0301C28.4813 31.7606 25.2076 28.1132 21.4654 23.9202L14.6549 16.2967L15.4701 15.4621C15.9194 14.9955 16.311 14.6209 16.3431 14.6209C16.3687 14.6209 18.4164 16.5202 20.9005 18.8467ZM15.9066 19.6484C16.2917 20.0822 16.664 20.5028 16.7282 20.5817L16.8502 20.7197L12.1964 26.4307C9.64166 29.5656 7.44637 32.2272 7.33083 32.3455C6.96495 32.7004 6.54772 32.8581 5.95717 32.8581C5.50143 32.8581 5.39231 32.8319 5.01359 32.6413C4.25615 32.2601 3.84534 31.5832 3.84534 30.7222C3.84534 29.7627 3.50513 30.1636 9.51328 24.0057L14.8795 18.4984L15.0464 18.6824C15.1363 18.7809 15.5214 19.2147 15.9066 19.6484Z"/>
</mask>
<path d="M7.56191 0.694836C7.35009 0.760555 7.03556 0.924858 6.86867 1.0563C6.34873 1.45061 5.92508 2.26554 5.92508 2.88331C5.92508 3.01475 5.87373 3.04104 5.49501 3.11333C4.39737 3.31706 3.60142 4.1517 3.49229 5.21636L3.45378 5.5844L3.07506 5.6304C2.06086 5.76184 1.26491 6.53076 1.04025 7.60199C0.956803 7.99631 1.00174 8.44978 1.18789 8.95582C1.30985 9.30414 1.53451 9.55388 4.47439 12.5704C7.77374 15.9616 8.10111 16.2573 9.05112 16.6845C9.82781 17.0262 10.3734 17.1379 11.3491 17.1445C12.1001 17.1445 12.344 17.1248 12.8255 16.9934L13.4032 16.8422L13.7113 17.1905L14.013 17.5388L8.5376 23.1645C3.42169 28.4089 3.04939 28.8098 2.88249 29.191C2.69634 29.6379 2.52303 30.3608 2.52303 30.7222C2.52303 31.1166 2.70918 31.8526 2.90817 32.2667C3.87743 34.2777 6.56056 34.8232 8.18455 33.3313C8.35145 33.1802 10.5532 30.5119 13.0822 27.4034C15.6113 24.2948 17.7039 21.7515 17.7295 21.7515C17.7616 21.7515 20.1302 24.3671 22.9867 27.5677C26.2732 31.2414 28.308 33.4628 28.507 33.6008C29.2516 34.1134 30.3171 34.3171 31.1773 34.1134C31.8063 33.9622 32.3391 33.6534 32.827 33.1539C34.0851 31.8723 34.1621 29.8087 32.9938 28.4418C32.8783 28.3103 30.7665 26.3124 28.2952 23.9991C25.8239 21.6858 23.7313 19.7207 23.6414 19.6419L23.4874 19.4841L26.4722 16.415C28.1154 14.7195 29.6046 13.1488 29.7844 12.9122C30.8884 11.4598 31.6844 9.73789 32.0438 8.01603C32.5124 5.78813 32.3134 3.17905 31.5239 1.22717C31.3057 0.688267 31.0938 0.510822 30.7408 0.583115C30.5867 0.615974 29.1746 2.02238 24.0458 7.2734L17.5498 13.9242L17.2417 13.6351C17.0748 13.4774 16.9208 13.3393 16.9079 13.3328C16.8951 13.3196 16.9529 13.0699 17.0363 12.7676C17.2353 12.0381 17.2545 10.4411 17.0684 9.72475C16.9208 9.15298 16.4714 8.14747 16.1569 7.70057C15.8231 7.22739 9.93693 1.18774 9.58389 0.951145C8.97409 0.556828 8.24874 0.464817 7.56191 0.694836ZM8.7751 2.00266C9.12172 2.17353 14.8603 8.06204 15.1941 8.59437C15.9257 9.74848 16.0982 11.1023 15.798 12.3274C15.4846 13.6067 14.6556 14.7456 13.4096 15.3701C13.0959 15.5273 12.7698 15.646 12.4382 15.7265C11.1616 16.0367 9.80148 15.7832 8.73659 14.9955C8.51192 14.8312 6.99705 13.3262 5.37305 11.6503C2.21492 8.40378 2.20208 8.39063 2.29837 7.86488C2.36256 7.51656 2.54229 7.24054 2.83114 7.07624C3.12641 6.90536 3.595 6.88565 3.85817 7.02366C3.95446 7.07624 4.95582 8.06861 6.08555 9.23185C7.21529 10.3951 8.22307 11.3875 8.32577 11.4466C8.82003 11.7095 9.39774 11.1837 9.19875 10.6448C9.16024 10.5331 8.20381 9.5013 7.02272 8.27891C5.86089 7.08281 4.87879 6.04444 4.84028 5.96557C4.71831 5.72898 4.75683 5.23608 4.91088 4.94691C5.1548 4.50002 5.62981 4.30286 6.13049 4.4343C6.37441 4.50002 6.66326 4.77604 8.55685 6.70821C10.0268 8.20662 10.7714 8.92296 10.9062 8.96239C11.3042 9.08069 11.7021 8.75209 11.7021 8.31834C11.7021 8.10147 11.5545 7.93717 9.55821 5.88014C8.37712 4.67089 7.36935 3.58651 7.31158 3.46822C7.11901 3.0739 7.22171 2.51528 7.53624 2.19982C7.88928 1.85808 8.34503 1.78579 8.7751 2.00266ZM30.8178 3.38935C30.959 4.09913 30.9847 4.36858 30.9847 5.45296C30.9911 6.89879 30.8948 7.56256 30.5097 8.77181C30.1246 9.98105 29.5083 11.1443 28.7252 12.1564C28.3722 12.6098 22.6336 18.5641 22.5438 18.5641C22.5053 18.5641 19.7515 16.0141 18.8721 15.1598L18.4934 14.7983L24.5144 8.6338C27.8266 5.24265 30.5611 2.48899 30.5931 2.52185C30.6252 2.55471 30.7215 2.94246 30.8178 3.38935ZM20.9005 18.8467C23.3782 21.1666 26.9151 24.4789 28.7573 26.2073C31.9476 29.191 32.1144 29.3618 32.3199 29.7825C32.4996 30.1636 32.5317 30.2885 32.5317 30.7222C32.5253 31.5897 32.1144 32.2601 31.357 32.6413C30.9847 32.8319 30.8692 32.8581 30.4134 32.8581C29.7073 32.8581 29.3415 32.6741 28.7317 32.0301C28.4813 31.7606 25.2076 28.1132 21.4654 23.9202L14.6549 16.2967L15.4701 15.4621C15.9194 14.9955 16.311 14.6209 16.3431 14.6209C16.3687 14.6209 18.4164 16.5202 20.9005 18.8467ZM15.9066 19.6484C16.2917 20.0822 16.664 20.5028 16.7282 20.5817L16.8502 20.7197L12.1964 26.4307C9.64166 29.5656 7.44637 32.2272 7.33083 32.3455C6.96495 32.7004 6.54772 32.8581 5.95717 32.8581C5.50143 32.8581 5.39231 32.8319 5.01359 32.6413C4.25615 32.2601 3.84534 31.5832 3.84534 30.7222C3.84534 29.7627 3.50513 30.1636 9.51328 24.0057L14.8795 18.4984L15.0464 18.6824C15.1363 18.7809 15.5214 19.2147 15.9066 19.6484Z" fill="#FCFBF7"/>
<path d="M13.2141 17.0058L12.2491 15.8901L12.6273 15.563L13.5923 16.6787L13.2141 17.0058ZM16.7401 13.5181L15.6302 12.5127L15.9659 12.1421L17.0758 13.1475L16.7401 13.5181ZM7.56191 0.694836L7.72074 1.16907L7.71008 1.17238L7.56191 0.694836ZM6.86867 1.0563L7.17808 1.44917L7.1708 1.45469L6.86867 1.0563ZM5.49501 3.11333L5.58876 3.60447L5.58625 3.60493L5.49501 3.11333ZM3.49229 5.21636L3.98969 5.26735L3.98958 5.2684L3.49229 5.21636ZM3.45378 5.5844L3.95106 5.63644L3.9096 6.03271L3.51407 6.08075L3.45378 5.5844ZM3.07506 5.6304L3.0108 5.13453L3.01477 5.13405L3.07506 5.6304ZM1.04025 7.60199L1.5296 7.70462L1.52942 7.70551L1.04025 7.60199ZM1.18789 8.95582L1.6572 8.78319L1.65979 8.79059L1.18789 8.95582ZM4.47439 12.5704L4.83247 12.2214L4.83277 12.2217L4.47439 12.5704ZM9.05112 16.6845L8.84974 17.1422L8.84606 17.1405L9.05112 16.6845ZM11.3491 17.1445V17.6445L11.3457 17.6445L11.3491 17.1445ZM12.8255 16.9934L12.6938 16.511L12.6989 16.5097L12.8255 16.9934ZM13.4032 16.8422L13.2766 16.3585L13.574 16.2807L13.7777 16.5109L13.4032 16.8422ZM13.7113 17.1905L14.0858 16.8592L14.0892 16.8632L13.7113 17.1905ZM14.013 17.5388L14.3909 17.2115L14.6915 17.5585L14.3713 17.8876L14.013 17.5388ZM8.5376 23.1645L8.8959 23.5132L8.89551 23.5136L8.5376 23.1645ZM2.88249 29.191L2.42086 28.9987L2.42447 28.9904L2.88249 29.191ZM2.90817 32.2667L2.45775 32.4838L2.45751 32.4833L2.90817 32.2667ZM8.18455 33.3313L7.84629 32.9631L7.84891 32.9607L8.18455 33.3313ZM22.9867 27.5677L22.614 27.9011L22.6136 27.9006L22.9867 27.5677ZM28.507 33.6008L28.2235 34.0126L28.222 34.0116L28.507 33.6008ZM31.1773 34.1134L31.2941 34.5996L31.2925 34.5999L31.1773 34.1134ZM32.827 33.1539L32.4693 32.8045L32.4702 32.8036L32.827 33.1539ZM32.9938 28.4418L33.3694 28.1116L33.3739 28.1169L32.9938 28.4418ZM23.6414 19.6419L23.3116 20.0177L23.2972 20.005L23.2837 19.9912L23.6414 19.6419ZM23.4874 19.4841L23.1297 19.8335L22.7892 19.4849L23.1289 19.1356L23.4874 19.4841ZM26.4722 16.415L26.8312 16.763L26.8306 16.7636L26.4722 16.415ZM29.7844 12.9122L29.3862 12.6097L29.3863 12.6096L29.7844 12.9122ZM32.0438 8.01603L31.5544 7.91385L31.5545 7.91312L32.0438 8.01603ZM31.5239 1.22717L31.9873 1.03949L31.9874 1.03968L31.5239 1.22717ZM30.7408 0.583115L30.6365 0.0940971L30.6405 0.093277L30.7408 0.583115ZM24.0458 7.2734L23.6881 6.92403L24.0458 7.2734ZM17.5498 13.9242L17.9075 14.2736L17.565 14.6243L17.2077 14.2888L17.5498 13.9242ZM17.2417 13.6351L16.8995 13.9997L16.8983 13.9985L17.2417 13.6351ZM16.9079 13.3328L16.6801 13.7778L16.6073 13.7406L16.5502 13.6821L16.9079 13.3328ZM17.0363 12.7676L17.5187 12.8992L17.5183 12.9006L17.0363 12.7676ZM17.0684 9.72475L16.5845 9.8505L16.5843 9.84975L17.0684 9.72475ZM16.1569 7.70057L16.5655 7.41236L16.5658 7.4128L16.1569 7.70057ZM9.58389 0.951145L9.85542 0.531223L9.86224 0.535789L9.58389 0.951145ZM8.7751 2.00266L8.55401 2.45115L8.54997 2.44911L8.7751 2.00266ZM15.1941 8.59437L14.7718 8.86207L14.7704 8.85998L15.1941 8.59437ZM13.4096 15.3701L13.6336 15.8171L13.6336 15.8171L13.4096 15.3701ZM8.73659 14.9955L9.03174 14.5919L9.03393 14.5935L8.73659 14.9955ZM5.37305 11.6503L5.73145 11.3017L5.73211 11.3024L5.37305 11.6503ZM2.29837 7.86488L1.80655 7.77481L1.80665 7.77426L2.29837 7.86488ZM2.83114 7.07624L3.08158 7.50901L3.07835 7.51085L2.83114 7.07624ZM3.85817 7.02366L4.09042 6.58079L4.0978 6.58482L3.85817 7.02366ZM8.32577 11.4466L8.09098 11.8881L8.08354 11.8841L8.07624 11.8799L8.32577 11.4466ZM9.19875 10.6448L8.72959 10.8181L8.72605 10.8078L9.19875 10.6448ZM7.02272 8.27891L7.38138 7.93053L7.3823 7.93148L7.02272 8.27891ZM4.84028 5.96557L5.28481 5.73642L5.28956 5.74616L4.84028 5.96557ZM4.91088 4.94691L4.46958 4.71181L4.472 4.70737L4.91088 4.94691ZM6.13049 4.4343L6.25745 3.95067L6.26056 3.95152L6.13049 4.4343ZM8.55685 6.70821L8.19993 7.05835L8.19975 7.05818L8.55685 6.70821ZM10.9062 8.96239L11.0466 8.4825L11.0487 8.48312L10.9062 8.96239ZM9.55821 5.88014L9.91591 5.53077L9.91702 5.53192L9.55821 5.88014ZM7.31158 3.46822L6.86229 3.68763L7.31158 3.46822ZM7.53624 2.19982L7.18211 1.84673L7.18848 1.84056L7.53624 2.19982ZM30.8178 3.38935L31.3067 3.28403L31.3082 3.29179L30.8178 3.38935ZM30.9847 5.45296L30.4847 5.45518V5.45296H30.9847ZM28.7252 12.1564L29.1207 12.4624L29.1198 12.4635L28.7252 12.1564ZM18.8721 15.1598L19.2174 14.7981L19.2205 14.8012L18.8721 15.1598ZM18.4934 14.7983L18.1482 15.16L17.7823 14.8108L18.1357 14.449L18.4934 14.7983ZM24.5144 8.6338L24.8721 8.98316L24.5144 8.6338ZM20.9005 18.8467L20.5588 19.2117L20.5587 19.2116L20.9005 18.8467ZM28.7573 26.2073L28.4158 26.5725L28.4152 26.5719L28.7573 26.2073ZM32.3199 29.7825L32.7692 29.563L32.7721 29.5692L32.3199 29.7825ZM32.5317 30.7222H33.0317L33.0317 30.7259L32.5317 30.7222ZM31.357 32.6413L31.1292 32.1962L31.1322 32.1946L31.357 32.6413ZM28.7317 32.0301L28.3686 32.3739L28.3653 32.3704L28.7317 32.0301ZM21.4654 23.9202L21.8383 23.5871L21.8384 23.5873L21.4654 23.9202ZM14.6549 16.2967L14.282 16.6298L13.9708 16.2815L14.2972 15.9474L14.6549 16.2967ZM15.4701 15.4621L15.8302 15.8089L15.8278 15.8115L15.4701 15.4621ZM16.7282 20.5817L16.3535 20.9128L16.3468 20.9052L16.3404 20.8973L16.7282 20.5817ZM16.8502 20.7197L17.2248 20.3886L17.5058 20.7066L17.2378 21.0355L16.8502 20.7197ZM12.1964 26.4307L12.584 26.7466L12.584 26.7466L12.1964 26.4307ZM7.33083 32.3455L7.68866 32.695L7.67895 32.7044L7.33083 32.3455ZM9.51328 24.0057L9.87139 24.3546L9.87116 24.3548L9.51328 24.0057ZM14.8795 18.4984L14.5214 18.1494L14.8926 17.7685L15.2499 18.1624L14.8795 18.4984ZM15.0464 18.6824L14.6769 19.0192L14.6761 19.0183L15.0464 18.6824ZM12.4382 15.7265L12.3201 15.2407L12.4382 15.7265ZM15.798 12.3274L16.2837 12.4464L15.798 12.3274ZM7.71008 1.17238C7.55468 1.22059 7.29518 1.35683 7.17803 1.4491L6.55931 0.66349C6.77594 0.492882 7.14549 0.300522 7.41375 0.217293L7.71008 1.17238ZM7.1708 1.45469C6.98372 1.59657 6.79153 1.83453 6.64596 2.11582C6.49947 2.39888 6.42508 2.67751 6.42508 2.88331H5.42508C5.42508 2.47134 5.56252 2.03363 5.75784 1.6562C5.95408 1.27701 6.23367 0.910347 6.56653 0.657909L7.1708 1.45469ZM6.42508 2.88331C6.42508 2.93851 6.42199 3.05729 6.36083 3.18312C6.29197 3.32478 6.18313 3.41069 6.08704 3.46185C6.00246 3.50687 5.91328 3.53274 5.84455 3.55012C5.77097 3.56872 5.68414 3.58625 5.58876 3.60446L5.40126 2.6222C5.49523 2.60426 5.55685 2.59139 5.5994 2.58063C5.64682 2.56864 5.64149 2.56616 5.61709 2.57915C5.60163 2.58738 5.574 2.60411 5.54358 2.63316C5.51144 2.66384 5.48283 2.70196 5.46145 2.74595C5.42175 2.82763 5.42508 2.89382 5.42508 2.88331H6.42508ZM5.58625 3.60493C4.69314 3.7707 4.07481 4.43689 3.98969 5.26735L2.9949 5.16538C3.12803 3.86651 4.1016 2.86342 5.40376 2.62173L5.58625 3.60493ZM3.98958 5.2684L3.95106 5.63644L2.9565 5.53236L2.99501 5.16432L3.98958 5.2684ZM3.51407 6.08075L3.13535 6.12675L3.01477 5.13405L3.39349 5.08805L3.51407 6.08075ZM3.13932 6.12625C2.35416 6.22801 1.71449 6.82305 1.5296 7.70462L0.550896 7.49936C0.815336 6.23847 1.76757 5.29567 3.0108 5.13454L3.13932 6.12625ZM1.52942 7.70551C1.47007 7.98593 1.49482 8.34193 1.65714 8.78321L0.718628 9.12844C0.508653 8.55763 0.443533 8.0067 0.551083 7.49848L1.52942 7.70551ZM1.65979 8.79059C1.68472 8.86178 1.70927 8.94731 2.14448 9.4263C2.57597 9.9012 3.35939 10.71 4.83247 12.2214L4.11632 12.9194C2.64951 11.4143 1.85066 10.59 1.40436 10.0988C0.961779 9.61168 0.813012 9.39819 0.715978 9.12106L1.65979 8.79059ZM4.83277 12.2217C8.16391 15.6456 8.41465 15.8501 9.25617 16.2285L8.84606 17.1405C7.78757 16.6645 7.38357 16.2775 4.11602 12.9191L4.83277 12.2217ZM9.25248 16.2268C9.95938 16.5379 10.4364 16.6384 11.3525 16.6445L11.3457 17.6445C10.3104 17.6375 9.69624 17.5146 8.84975 17.1421L9.25248 16.2268ZM11.3491 16.6445C12.0816 16.6445 12.2747 16.6255 12.6938 16.511L12.9572 17.4757C12.4134 17.6242 12.1186 17.6445 11.3491 17.6445V16.6445ZM12.6989 16.5097L13.2766 16.3585L13.5297 17.3259L12.952 17.4771L12.6989 16.5097ZM13.7777 16.5109L14.0858 16.8592L13.3368 17.5218L13.0287 17.1735L13.7777 16.5109ZM14.0892 16.8632L14.3909 17.2115L13.635 17.8662L13.3333 17.5179L14.0892 16.8632ZM14.3713 17.8876L8.8959 23.5132L8.17929 22.8157L13.6547 17.1901L14.3713 17.8876ZM8.89551 23.5136C6.33576 26.1377 4.96806 27.5446 4.21888 28.3435C3.45116 29.1621 3.383 29.2945 3.34051 29.3915L2.42447 28.9904C2.54887 28.7063 2.75031 28.4476 3.48944 27.6594C4.24711 26.8515 5.62353 25.4357 8.17969 22.8153L8.89551 23.5136ZM3.34405 29.3832C3.26416 29.575 3.18181 29.8402 3.11955 30.1037C3.05558 30.3743 3.02303 30.6004 3.02303 30.7222H2.02303C2.02303 30.4827 2.07714 30.1665 2.14636 29.8736C2.21729 29.5735 2.31467 29.2538 2.42093 28.9987L3.34405 29.3832ZM3.02303 30.7222C3.02303 30.8592 3.05842 31.0958 3.12599 31.3656C3.19247 31.6309 3.27883 31.8836 3.35882 32.0501L2.45751 32.4833C2.33851 32.2356 2.23231 31.9133 2.15597 31.6086C2.08071 31.3082 2.02303 30.9796 2.02303 30.7222H3.02303ZM3.35858 32.0496C4.18721 33.7688 6.47776 34.2203 7.8463 32.9631L8.52281 33.6995C6.64336 35.4261 3.56765 34.7866 2.45775 32.4838L3.35858 32.0496ZM7.84891 32.9607C7.84192 32.9671 7.87115 32.9372 7.96151 32.8331C8.04024 32.7423 8.14798 32.6157 8.28208 32.4564C8.54998 32.1382 8.91872 31.6948 9.36205 31.158C10.2485 30.0847 11.4304 28.6415 12.6944 27.0878L13.4701 27.7189C12.205 29.2739 11.0215 30.719 10.1331 31.7948C9.689 32.3325 9.31795 32.7787 9.04706 33.1005C8.91177 33.2612 8.80036 33.3921 8.71686 33.4884C8.64499 33.5712 8.56892 33.6578 8.5202 33.7019L7.84891 32.9607ZM12.6944 27.0878C13.9593 25.5331 15.1153 24.1194 15.9585 23.0941C16.38 22.5816 16.7238 22.1656 16.9642 21.8773C17.0842 21.7334 17.1795 21.62 17.2461 21.542C17.279 21.5035 17.3071 21.4711 17.3284 21.4473C17.3383 21.4362 17.3508 21.4224 17.3633 21.4096C17.3685 21.4043 17.3809 21.3917 17.3967 21.3778C17.4036 21.3718 17.4215 21.3563 17.4461 21.3394C17.4581 21.3312 17.4821 21.3154 17.5148 21.2999C17.5364 21.2896 17.6175 21.2515 17.7295 21.2515V22.2515C17.8414 22.2515 17.9222 22.2134 17.9436 22.2033C17.9758 22.188 17.9995 22.1724 18.011 22.1645C18.0348 22.1483 18.0515 22.1336 18.0569 22.1289C18.07 22.1174 18.0785 22.1086 18.079 22.1081C18.0819 22.1051 18.0808 22.106 18.0735 22.1143C18.06 22.1293 18.038 22.1546 18.0063 22.1917C17.9437 22.2649 17.8516 22.3745 17.7322 22.5176C17.494 22.8034 17.1518 23.2174 16.7308 23.7293C15.889 24.7529 14.7342 26.1652 13.4701 27.7189L12.6944 27.0878ZM17.7295 21.2515C17.8238 21.2515 17.8937 21.2784 17.9179 21.2882C17.9496 21.3011 17.9735 21.3146 17.9864 21.3223C18.0124 21.3377 18.0315 21.3523 18.0394 21.3584C18.057 21.3721 18.0709 21.3848 18.0771 21.3904C18.0914 21.4035 18.1057 21.4177 18.1172 21.4292C18.1416 21.4538 18.1736 21.4872 18.2111 21.5269C18.2869 21.6072 18.395 21.7239 18.531 21.8719C18.8035 22.1686 19.1929 22.5967 19.6698 23.124C20.6239 24.179 21.9309 25.6338 23.3597 27.2348L22.6136 27.9006C21.186 26.301 19.8805 24.8478 18.9282 23.7948C18.4519 23.2681 18.0645 22.8423 17.7946 22.5484C17.6594 22.4013 17.5549 22.2886 17.4839 22.2134C17.448 22.1753 17.423 22.1493 17.4078 22.134C17.3994 22.1256 17.3983 22.1248 17.4016 22.1278C17.4022 22.1284 17.4118 22.1372 17.4262 22.1484C17.4324 22.1532 17.4502 22.1668 17.4751 22.1817C17.4874 22.189 17.5109 22.2023 17.5422 22.215C17.566 22.2246 17.6356 22.2515 17.7295 22.2515V21.2515ZM23.3593 27.2343C25.002 29.0706 26.3309 30.5427 27.2735 31.5725C27.745 32.0877 28.1184 32.4906 28.3856 32.7726C28.5194 32.9139 28.6246 33.0226 28.7011 33.0991C28.7933 33.1913 28.8121 33.2039 28.7919 33.1899L28.222 34.0116C28.1521 33.9632 28.0638 33.8761 27.9939 33.8061C27.9081 33.7204 27.796 33.6042 27.6597 33.4604C27.3867 33.1722 27.0087 32.7644 26.5358 32.2477C25.5896 31.2139 24.2579 29.7386 22.614 27.9011L23.3593 27.2343ZM28.7905 33.1889C29.4213 33.6232 30.3424 33.7973 31.062 33.6269L31.2925 34.5999C30.2919 34.8369 29.0819 34.6036 28.2235 34.0126L28.7905 33.1889ZM31.0605 33.6272C31.5913 33.4997 32.0423 33.2416 32.4693 32.8045L33.1846 33.5032C32.6359 34.0651 32.0213 34.4248 31.2941 34.5996L31.0605 33.6272ZM32.4702 32.8036C33.5476 31.7061 33.6127 29.9355 32.6137 28.7666L33.3739 28.1169C34.7115 29.682 34.6225 32.0386 33.1838 33.5042L32.4702 32.8036ZM32.6183 28.7719C32.6199 28.7737 32.5919 28.7447 32.5112 28.6662C32.4392 28.596 32.3388 28.4993 32.2128 28.3787C31.961 28.1378 31.6097 27.8042 31.1844 27.4019C30.3338 26.5976 29.1886 25.5204 27.9535 24.3641L28.6369 23.6341C29.873 24.7912 31.0194 25.8696 31.8715 26.6754C32.2974 27.0782 32.6503 27.4133 32.9041 27.6562C33.1444 27.8861 33.3219 28.0576 33.3694 28.1117L32.6183 28.7719ZM27.9535 24.3641C26.7177 23.2073 25.5766 22.1376 24.7333 21.3474C24.3117 20.9522 23.9646 20.6271 23.7174 20.3958C23.5937 20.2801 23.4953 20.1882 23.425 20.1227C23.3899 20.09 23.3621 20.0642 23.3419 20.0455C23.3194 20.0247 23.3113 20.0174 23.3116 20.0177L23.9712 19.2661C24.0691 19.352 26.1739 21.3286 28.6369 23.6341L27.9535 24.3641ZM23.2837 19.9912L23.1297 19.8335L23.8451 19.1348L23.9991 19.2925L23.2837 19.9912ZM23.1289 19.1356L26.1137 16.0664L26.8306 16.7636L23.8458 19.8327L23.1289 19.1356ZM26.1131 16.0671C26.9338 15.2203 27.7155 14.4052 28.3139 13.7728C28.9271 13.1249 29.3175 12.7002 29.3862 12.6097L30.1825 13.2146C30.0715 13.3607 29.6275 13.8397 29.0403 14.4602C28.4384 15.0961 27.6538 15.9142 26.8312 16.763L26.1131 16.0671ZM29.3863 12.6096C30.4473 11.2138 31.2108 9.55988 31.5544 7.91385L32.5333 8.11821C32.158 9.91591 31.3295 11.7057 30.1824 13.2147L29.3863 12.6096ZM31.5545 7.91312C32.0045 5.77395 31.8095 3.26673 31.0604 1.41466L31.9874 1.03968C32.8173 3.09137 33.0204 5.8023 32.5331 8.11894L31.5545 7.91312ZM31.0605 1.41485C31.0121 1.2955 30.9698 1.21052 30.9331 1.15069C30.8962 1.09069 30.8721 1.06772 30.8645 1.0615C30.8611 1.05866 30.8687 1.06477 30.8814 1.06736C30.8902 1.06917 30.881 1.06478 30.8411 1.07295L30.6405 0.093277C30.9329 0.0334053 31.237 0.0722427 31.5012 0.290386C31.726 0.475986 31.8716 0.753658 31.9873 1.03949L31.0605 1.41485ZM30.8451 1.07211C30.9023 1.05992 30.9411 1.04017 30.9516 1.03477C30.9595 1.03069 30.9653 1.02732 30.9685 1.02537C30.9719 1.02335 30.9738 1.02207 30.9741 1.02185C30.9746 1.02156 30.9715 1.02357 30.9644 1.029C30.9574 1.03427 30.9481 1.04165 30.9359 1.05161C30.8851 1.09313 30.8066 1.16256 30.692 1.26949C30.4644 1.48186 30.1182 1.81979 29.6121 2.32523C28.6013 3.33478 26.9682 4.99697 24.4035 7.62276L23.6881 6.92403C26.2522 4.29881 27.8896 2.63228 28.9055 1.61766C29.4128 1.11102 29.7691 0.762997 30.0098 0.538334C30.1294 0.426739 30.2266 0.339882 30.3026 0.277683C30.3401 0.247021 30.3797 0.216297 30.419 0.190105C30.44 0.176094 30.5244 0.118015 30.6365 0.0941162L30.8451 1.07211ZM24.4035 7.62276L17.9075 14.2736L17.1921 13.5749L23.6881 6.92403L24.4035 7.62276ZM17.2077 14.2888L16.8995 13.9997L17.5839 13.2705L17.892 13.5597L17.2077 14.2888ZM16.8983 13.9985C16.8175 13.9221 16.74 13.8508 16.682 13.7984C16.6528 13.772 16.63 13.7518 16.6147 13.7386C16.611 13.7354 16.6081 13.7329 16.6059 13.731C16.6036 13.7291 16.6027 13.7283 16.6028 13.7284C16.6029 13.7285 16.6036 13.7291 16.6048 13.73C16.6059 13.7309 16.6082 13.7327 16.6113 13.735C16.6141 13.7371 16.62 13.7415 16.628 13.747C16.6329 13.7503 16.6526 13.7638 16.6801 13.7778L17.1358 12.8877C17.164 12.9022 17.1848 12.9163 17.1911 12.9206C17.2004 12.9269 17.2079 12.9325 17.2126 12.936C17.222 12.9431 17.2301 12.9496 17.2354 12.9539C17.2466 12.9631 17.2584 12.9732 17.2693 12.9826C17.2918 13.0021 17.3203 13.0274 17.3521 13.0561C17.416 13.1138 17.4991 13.1903 17.5851 13.2717L16.8983 13.9985ZM16.5502 13.6821C16.4703 13.6003 16.4398 13.5132 16.4287 13.4768C16.4155 13.4336 16.4108 13.3974 16.4088 13.3772C16.4047 13.3365 16.4063 13.3031 16.4072 13.2875C16.4092 13.2532 16.414 13.2213 16.4174 13.2006C16.4248 13.1553 16.4361 13.1017 16.4486 13.0473C16.474 12.9358 16.5114 12.7901 16.5543 12.6345L17.5183 12.9006C17.4778 13.0474 17.4445 13.1777 17.4235 13.27C17.4126 13.3174 17.4067 13.3475 17.4042 13.3623C17.4027 13.3716 17.4044 13.3637 17.4055 13.3467C17.4059 13.3398 17.4074 13.3134 17.4039 13.278C17.4021 13.2604 17.3978 13.2264 17.3852 13.1849C17.3746 13.1502 17.3448 13.0645 17.2656 12.9834L16.5502 13.6821ZM16.5539 12.636C16.6366 12.3329 16.6905 11.8016 16.6968 11.2357C16.7031 10.6686 16.6606 10.1434 16.5845 9.8505L17.5523 9.59899C17.6624 10.0224 17.7033 10.6539 17.6967 11.2468C17.6902 11.8409 17.635 12.4728 17.5187 12.8992L16.5539 12.636ZM16.5843 9.84975C16.5204 9.60257 16.3837 9.23712 16.2191 8.8707C16.0535 8.50204 15.8779 8.17292 15.748 7.98835L16.5658 7.4128C16.7504 7.67512 16.9567 8.07221 17.1313 8.46097C17.307 8.85197 17.4687 9.27517 17.5525 9.59974L16.5843 9.84975ZM15.7483 7.98878C15.7491 7.98983 15.7429 7.98128 15.7244 7.95894C15.7075 7.93845 15.6847 7.91183 15.6558 7.87875C15.5979 7.81265 15.5203 7.72661 15.4248 7.62252C15.2339 7.41463 14.9774 7.14128 14.6761 6.82389C14.0738 6.18949 13.2972 5.38441 12.5195 4.58604C11.7417 3.78767 10.964 2.99738 10.3593 2.39251C10.0568 2.08986 9.79894 1.83505 9.60664 1.64932C9.51026 1.55624 9.43234 1.48244 9.37443 1.42938C9.3046 1.3654 9.28997 1.35607 9.30554 1.3665L9.86224 0.535789C9.92193 0.575794 9.99466 0.641376 10.05 0.692089C10.1173 0.753723 10.2023 0.834404 10.3013 0.930035C10.4998 1.12173 10.7624 1.38129 11.0665 1.68552C11.6752 2.29441 12.4561 3.08797 13.2358 3.88823C14.0154 4.6885 14.7951 5.49685 15.4013 6.13535C15.7042 6.45442 15.9651 6.7324 16.1615 6.94629C16.3454 7.14665 16.5007 7.32058 16.5655 7.41236L15.7483 7.98878ZM9.31239 1.37101C8.82987 1.059 8.26283 0.987392 7.7207 1.16895L7.40313 0.220718C8.23466 -0.0577621 9.1183 0.0546532 9.85539 0.531281L9.31239 1.37101ZM8.99618 1.55419C9.05509 1.58324 9.10492 1.6211 9.12779 1.63869C9.15902 1.66269 9.19271 1.69068 9.22685 1.72007C9.29559 1.77925 9.38089 1.85686 9.47829 1.94796C9.67388 2.13091 9.93147 2.38066 10.2286 2.67403C10.8237 3.26147 11.5863 4.03266 12.3475 4.81408C13.1088 5.59552 13.8706 6.38925 14.4638 7.02186C14.7601 7.33791 15.0162 7.61563 15.2096 7.83231C15.3882 8.03234 15.5483 8.21814 15.6177 8.32875L14.7704 8.85998C14.7728 8.86371 14.7685 8.85673 14.7515 8.83465C14.736 8.81457 14.7147 8.78815 14.6869 8.75492C14.6315 8.68848 14.5566 8.60243 14.4637 8.4983C14.278 8.29039 14.0283 8.01939 13.7343 7.70587C13.1468 7.07933 12.3897 6.29044 11.6312 5.51186C10.8728 4.73325 10.1149 3.96701 9.52608 3.38566C9.23129 3.09464 8.98108 2.85216 8.79519 2.67829C8.70186 2.59099 8.628 2.52404 8.57443 2.47793C8.54743 2.45468 8.52917 2.43984 8.51833 2.4315C8.49914 2.41675 8.51677 2.43277 8.55402 2.45113L8.99618 1.55419ZM8.44143 15.3991C8.35229 15.3339 8.18794 15.1812 7.99897 15.0004C7.79673 14.8069 7.53305 14.5486 7.22704 14.2443C6.61468 13.6355 5.82776 12.8381 5.01398 11.9983L5.73211 11.3024C6.54234 12.1385 7.32485 12.9314 7.93209 13.5352C8.23589 13.8372 8.49455 14.0906 8.69028 14.2779C8.7883 14.3717 8.86892 14.4473 8.93069 14.5035C8.96161 14.5316 8.98635 14.5536 9.00529 14.5698C9.02602 14.5876 9.03349 14.5932 9.03174 14.5919L8.44143 15.3991ZM5.01465 11.999C3.44706 10.3875 2.63146 9.54991 2.2273 9.05268C2.02713 8.8064 1.88101 8.58938 1.81435 8.36263C1.74009 8.11003 1.78324 7.90206 1.80655 7.77481L2.79019 7.95495C2.77716 8.02607 2.7736 8.05093 2.77275 8.06894C2.77237 8.07685 2.77268 8.07694 2.77376 8.08059C2.78112 8.10563 2.81754 8.19339 3.0033 8.42194C3.37103 8.87436 4.14091 9.66663 5.73145 11.3017L5.01465 11.999ZM1.80665 7.77426C1.89372 7.30179 2.14935 6.88881 2.58393 6.64162L3.07835 7.51085C2.93522 7.59226 2.8314 7.73133 2.79009 7.95549L1.80665 7.77426ZM2.5807 6.64348C2.8128 6.50916 3.08588 6.44662 3.33255 6.4347C3.57484 6.42299 3.85465 6.45723 4.09038 6.58085L3.62596 7.46647C3.59852 7.45208 3.51245 7.42717 3.38083 7.43353C3.2536 7.43968 3.14475 7.47244 3.08158 7.509L2.5807 6.64348ZM4.0978 6.58482C4.14805 6.61226 4.18915 6.64593 4.20121 6.6557C4.2224 6.67284 4.24493 6.6923 4.26709 6.71198C4.31189 6.75174 4.36787 6.80366 4.432 6.86448C4.56095 6.98677 4.73343 7.15503 4.93632 7.35616C5.34266 7.75895 5.87771 8.30017 6.44423 8.8835L5.72687 9.5802C5.16366 9.00029 4.63317 8.46371 4.23232 8.06635C4.03162 7.86741 3.86509 7.70502 3.7439 7.5901C3.68297 7.53231 3.63609 7.489 3.60329 7.45988C3.58665 7.44512 3.57669 7.43673 3.57208 7.43299C3.55834 7.42188 3.58033 7.44163 3.61855 7.4625L4.0978 6.58482ZM6.44423 8.8835C7.00711 9.46307 7.539 9.99945 7.94211 10.3975C8.14391 10.5967 8.31185 10.7598 8.43457 10.8757C8.49623 10.9339 8.54405 10.9779 8.57788 11.0079C8.62995 11.054 8.61587 11.0367 8.5753 11.0133L8.07624 11.8799C8.01 11.8417 7.94196 11.7805 7.91484 11.7565C7.86949 11.7163 7.8129 11.664 7.74799 11.6027C7.61755 11.4795 7.44369 11.3107 7.23949 11.109C6.8306 10.7053 6.29373 10.1639 5.72687 9.5802L6.44423 8.8835ZM8.56056 11.0052C8.58297 11.0171 8.5989 11.0178 8.61389 11.0153C8.63278 11.012 8.65901 11.001 8.68468 10.9775C8.73754 10.9291 8.74927 10.871 8.7297 10.818L9.6678 10.4716C9.84722 10.9576 9.66959 11.4317 9.35978 11.7152C9.04974 11.999 8.5559 12.1353 8.09098 11.8881L8.56056 11.0052ZM8.72605 10.8078C8.73907 10.8456 8.75352 10.8712 8.75714 10.8776C8.76004 10.8828 8.76233 10.8865 8.76366 10.8886C8.76502 10.8908 8.76587 10.892 8.76602 10.8923C8.76623 10.8926 8.76496 10.8907 8.76163 10.8862C8.75841 10.8818 8.75396 10.8759 8.74809 10.8684C8.72352 10.8368 8.68467 10.7899 8.63008 10.7266C8.52181 10.6012 8.366 10.4282 8.17159 10.2173C7.78361 9.79644 7.25214 9.23593 6.66315 8.62634L7.3823 7.93148C7.97439 8.54428 8.51168 9.11086 8.90681 9.53946C9.10396 9.7533 9.2683 9.93558 9.3871 10.0732C9.44604 10.1415 9.49746 10.2031 9.53718 10.2541C9.55678 10.2793 9.57739 10.3068 9.59586 10.3343C9.60595 10.3493 9.64574 10.4073 9.67145 10.4819L8.72605 10.8078ZM6.66407 8.62729C6.08206 8.02812 5.54436 7.46771 5.1467 7.04653C4.94812 6.83621 4.78299 6.65905 4.66428 6.52855C4.60525 6.46366 4.55537 6.40775 4.51783 6.36396C4.49934 6.34238 4.48096 6.3204 4.46495 6.29999C4.46015 6.29387 4.42029 6.24499 4.39099 6.18498L5.28956 5.74616C5.26507 5.69601 5.2374 5.66448 5.25178 5.68282C5.25496 5.68687 5.26277 5.69646 5.27708 5.71316C5.30516 5.74591 5.3474 5.79341 5.40401 5.85565C5.51659 5.9794 5.67682 6.15138 5.87381 6.36002C6.26729 6.77677 6.80155 7.3336 7.38138 7.93053L6.66407 8.62729ZM4.39585 6.19467C4.27328 5.9569 4.25705 5.66609 4.27337 5.43995C4.29056 5.20186 4.35129 4.9339 4.4696 4.71182L5.35217 5.18201C5.31642 5.2491 5.28087 5.37216 5.27078 5.51196C5.266 5.57814 5.26788 5.63644 5.27386 5.68156C5.2803 5.73017 5.28898 5.74477 5.2847 5.73647L4.39585 6.19467ZM4.472 4.70737C4.83029 4.05094 5.5432 3.76318 6.25745 3.95069L6.00353 4.91791C5.71642 4.84254 5.47932 4.9491 5.34977 5.18646L4.472 4.70737ZM6.26056 3.95152C6.52022 4.02147 6.73801 4.19759 7.06733 4.50686C7.41612 4.83442 7.97034 5.3954 8.91395 6.35824L8.19975 7.05818C7.24978 6.08885 6.71277 5.54573 6.38276 5.23581C6.21702 5.08017 6.11815 4.99738 6.05463 4.95178C6.02469 4.93028 6.00841 4.92131 6.00207 4.91812C5.9991 4.91662 5.9981 4.91629 5.9987 4.91652C5.99892 4.9166 5.99928 4.91673 5.99969 4.91686C5.99989 4.91693 6.00006 4.91698 6.0002 4.91702C6.00026 4.91704 6.00032 4.91706 6.00035 4.91706C6.00039 4.91708 6.00041 4.91708 6.00041 4.91708L6.26056 3.95152ZM8.91378 6.35806C9.64807 7.10657 10.1974 7.65585 10.5785 8.02175C10.7697 8.20531 10.9136 8.33799 11.015 8.42521C11.0662 8.46925 11.1005 8.49647 11.121 8.51136C11.1606 8.54014 11.1232 8.50491 11.0466 8.48251L10.7658 9.44228C10.6555 9.41002 10.5654 9.34378 10.5327 9.31999C10.4809 9.2823 10.4234 9.23538 10.3629 9.1833C10.2408 9.07829 10.0815 8.93085 9.88592 8.74309C9.49353 8.36636 8.93558 7.80826 8.19993 7.05835L8.91378 6.35806ZM11.0487 8.48312C11.0725 8.4902 11.1025 8.48835 11.1376 8.45974C11.1744 8.42978 11.2021 8.37968 11.2021 8.31834H12.2021C12.2021 9.03816 11.5271 9.66858 10.7637 9.44167L11.0487 8.48312ZM11.2021 8.31834C11.2021 8.35399 11.2171 8.38898 11.2148 8.38505C11.1965 8.35325 11.1444 8.27972 11.0035 8.11972C10.7273 7.80597 10.2025 7.26192 9.1994 6.22835L9.91702 5.53192C10.9103 6.55538 11.4574 7.122 11.754 7.45887C11.8996 7.62419 12.0092 7.76096 12.081 7.88525C12.1688 8.0374 12.2021 8.17425 12.2021 8.31834H11.2021ZM9.20052 6.2295C8.60777 5.62262 8.05772 5.04627 7.64766 4.60574C7.44293 4.38579 7.27125 4.19771 7.14598 4.05576C7.08367 3.98514 7.03021 3.92296 6.989 3.8725C6.96446 3.84245 6.90012 3.7651 6.86229 3.68763L7.76086 3.2488C7.73747 3.2009 7.71727 3.18332 7.76351 3.23994C7.79308 3.27615 7.83706 3.32754 7.8958 3.39411C8.01266 3.52654 8.17757 3.70732 8.37964 3.9244C8.78319 4.35795 9.32757 4.92841 9.91591 5.53077L9.20052 6.2295ZM6.86229 3.68763C6.57171 3.09261 6.72436 2.30594 7.18217 1.84679L7.89031 2.55285C7.71906 2.72462 7.66631 3.05518 7.76086 3.2488L6.86229 3.68763ZM7.18848 1.84056C7.69054 1.35458 8.37527 1.24106 9.00023 1.55622L8.54997 2.44911C8.31478 2.33051 8.08803 2.36158 7.884 2.55908L7.18848 1.84056ZM31.3082 3.29179C31.4577 4.04326 31.4847 4.34729 31.4847 5.45296H30.4847C30.4847 4.38987 30.4603 4.15499 30.3274 3.48692L31.3082 3.29179ZM31.4847 5.45074C31.4913 6.94222 31.389 7.65862 30.9861 8.92355L30.0333 8.62007C30.4007 7.46651 30.4909 6.85537 30.4847 5.45518L31.4847 5.45074ZM30.9861 8.92355C30.5828 10.19 29.9387 11.4052 29.1207 12.4624L28.3298 11.8504C29.078 10.8834 29.6664 9.77211 30.0333 8.62007L30.9861 8.92355ZM29.1198 12.4635C29.0122 12.6017 28.5628 13.0838 27.9861 13.6927C27.3957 14.3161 26.6414 15.104 25.8957 15.8773C25.1501 16.6506 24.4121 17.4104 23.8543 17.9773C23.5757 18.2605 23.3406 18.4971 23.1716 18.6636C23.0875 18.7463 23.017 18.8146 22.9645 18.8634C22.939 18.887 22.9127 18.9109 22.8889 18.9307C22.8781 18.9398 22.8595 18.955 22.8374 18.9703C22.8272 18.9775 22.8058 18.9919 22.7777 19.0065C22.7727 19.0091 22.6766 19.0641 22.5438 19.0641V18.0641C22.4123 18.0641 22.3183 18.1183 22.3161 18.1194C22.2908 18.1326 22.2729 18.1449 22.2667 18.1492C22.2529 18.1588 22.2452 18.1655 22.2479 18.1632C22.2511 18.1605 22.2622 18.1509 22.2838 18.1308C22.3254 18.0921 22.3877 18.0321 22.4698 17.9511C22.6332 17.7902 22.8639 17.5581 23.1415 17.276C23.696 16.7123 24.4315 15.9552 25.1759 15.1832C25.9202 14.4113 26.6723 13.6257 27.26 13.0051C27.8614 12.3701 28.2617 11.9378 28.3307 11.8492L29.1198 12.4635ZM22.5438 19.0641C22.4162 19.0641 22.3226 19.0127 22.3221 19.0125C22.2969 19.0001 22.2779 18.9882 22.2695 18.9827C22.251 18.9709 22.2363 18.9597 22.2293 18.9544C22.2135 18.9424 22.1974 18.9291 22.1844 18.9182C22.1568 18.895 22.1209 18.8638 22.0797 18.8273C21.9963 18.7536 21.8801 18.6487 21.7409 18.5221C21.4621 18.2683 21.0856 17.9217 20.6834 17.5491C19.8804 16.8049 18.9681 15.9502 18.5237 15.5184L19.2205 14.8012C19.6555 15.2237 20.5598 16.0712 21.3631 16.8156C21.7642 17.1872 22.1383 17.5315 22.414 17.7825C22.5522 17.9083 22.6643 18.0093 22.7423 18.0783C22.7818 18.1133 22.8099 18.1376 22.8273 18.1523C22.8368 18.1602 22.8385 18.1614 22.8354 18.159C22.8348 18.1586 22.8251 18.1511 22.8105 18.1417C22.804 18.1375 22.7866 18.1265 22.7627 18.1147C22.7506 18.1088 22.7292 18.0989 22.7011 18.0895C22.6785 18.082 22.6205 18.0641 22.5438 18.0641V19.0641ZM18.5269 15.5215L18.1482 15.16L18.8386 14.4366L19.2173 14.7981L18.5269 15.5215ZM18.1357 14.449L24.1567 8.28443L24.8721 8.98316L18.8511 15.1477L18.1357 14.449ZM24.1567 8.28443C25.8134 6.58822 27.3262 5.0509 28.4292 3.94132C28.9805 3.38676 29.4306 2.93786 29.7455 2.62908C29.9025 2.47515 30.0284 2.35361 30.1172 2.2706C30.1607 2.22998 30.2004 2.19383 30.2323 2.16669C30.2464 2.15473 30.2696 2.1354 30.2956 2.11721C30.3053 2.11042 30.3368 2.08841 30.3797 2.06858C30.3982 2.06001 30.4503 2.03669 30.5215 2.02657C30.5792 2.01837 30.7834 2.0011 30.9508 2.17249L30.2355 2.87121C30.4023 3.04208 30.6058 3.02464 30.6623 3.01661C30.7324 3.00665 30.783 2.98383 30.7997 2.97611C30.8389 2.95795 30.8655 2.93897 30.869 2.93653C30.8825 2.92704 30.8881 2.92171 30.8796 2.92894C30.8664 2.94019 30.8408 2.96314 30.7999 3.0013C30.7202 3.07583 30.6013 3.19053 30.4456 3.34312C30.1353 3.64738 29.6888 4.09268 29.1384 4.64633C28.0381 5.75315 26.5276 7.28823 24.8721 8.98316L24.1567 8.28443ZM30.9508 2.17249C31.005 2.22796 31.0344 2.28396 31.0428 2.29998C31.0558 2.32479 31.0654 2.34745 31.0718 2.36332C31.0848 2.39555 31.0961 2.4293 31.1053 2.45875C31.1243 2.51925 31.1449 2.59471 31.1658 2.67648C31.2081 2.84181 31.2577 3.0572 31.3066 3.28405L30.329 3.49467C30.2816 3.27462 30.235 3.07268 30.197 2.9242C30.1778 2.84906 30.1623 2.79349 30.1512 2.75808C30.1454 2.73957 30.1431 2.73415 30.1443 2.73714C30.1448 2.73839 30.149 2.74891 30.157 2.76421C30.1605 2.77072 30.1853 2.81985 30.2355 2.87121L30.9508 2.17249ZM21.2423 18.4817C23.7199 20.8015 27.257 24.114 29.0994 25.8427L28.4152 26.5719C26.5732 24.8437 23.0365 21.5316 20.5588 19.2117L21.2423 18.4817ZM29.0989 25.8421C30.6903 27.3306 31.5381 28.127 32.0122 28.6033C32.4955 29.0887 32.6318 29.2818 32.7691 29.563L31.8706 30.0019C31.8025 29.8625 31.7527 29.7599 31.3036 29.3088C30.8454 28.8485 30.0145 28.0677 28.4158 26.5725L29.0989 25.8421ZM32.7721 29.5692C32.8633 29.7627 32.937 29.9312 32.9805 30.121C33.0242 30.3117 33.0317 30.4983 33.0317 30.7222H32.0317C32.0317 30.5125 32.0231 30.4197 32.0058 30.3443C31.9883 30.2679 31.9561 30.1833 31.8676 29.9957L32.7721 29.5692ZM33.0317 30.7259C33.0239 31.7759 32.5113 32.6201 31.5818 33.0879L31.1322 32.1946C31.7176 31.9001 32.0266 31.4036 32.0317 30.7185L33.0317 30.7259ZM31.5848 33.0863C31.3937 33.1842 31.2252 33.2633 31.0284 33.3085C30.8355 33.3528 30.6423 33.3581 30.4134 33.3581V32.3581C30.6403 32.3581 30.7327 32.3504 30.8046 32.3339C30.8726 32.3182 30.948 32.2889 31.1292 32.1962L31.5848 33.0863ZM30.4134 33.3581C30.014 33.3581 29.6626 33.3058 29.3149 33.1339C28.9788 32.9677 28.6861 32.7092 28.3686 32.3738L29.0947 31.6863C29.387 31.995 29.5822 32.1505 29.758 32.2374C29.9221 32.3185 30.1067 32.3581 30.4134 32.3581V33.3581ZM28.3653 32.3704C28.1106 32.0962 24.832 28.4432 21.0924 24.2532L21.8384 23.5873C25.5833 27.7831 28.852 31.4251 29.098 31.6897L28.3653 32.3704ZM21.0925 24.2534L14.282 16.6298L15.0277 15.9636L21.8383 23.5871L21.0925 24.2534ZM14.2972 15.9474L15.1124 15.1127L15.8278 15.8115L15.0126 16.6461L14.2972 15.9474ZM15.1099 15.1153C15.338 14.8784 15.5528 14.6634 15.7165 14.5061C15.7977 14.428 15.8698 14.3607 15.9262 14.3112C15.9534 14.2872 15.9834 14.2618 16.0119 14.24C16.0252 14.2299 16.0476 14.2133 16.0748 14.197C16.088 14.189 16.1119 14.1752 16.1429 14.162C16.1625 14.1537 16.2392 14.1209 16.3431 14.1209V15.1209C16.4449 15.1209 16.5189 15.0888 16.5351 15.0819C16.5627 15.0701 16.5825 15.0585 16.591 15.0534C16.601 15.0474 16.6081 15.0425 16.6114 15.0402C16.6151 15.0377 16.6172 15.036 16.6176 15.0358C16.6181 15.0354 16.6157 15.0372 16.6096 15.0423C16.6038 15.0471 16.5961 15.0537 16.5864 15.0622C16.5463 15.0975 16.4864 15.153 16.4096 15.2269C16.2571 15.3736 16.0515 15.5792 15.8302 15.8089L15.1099 15.1153ZM16.3431 14.1209C16.4274 14.1209 16.4905 14.1426 16.5117 14.1501C16.5402 14.1603 16.562 14.171 16.5738 14.1772C16.5977 14.1895 16.6156 14.2013 16.6231 14.2063C16.6398 14.2174 16.653 14.2276 16.6587 14.232C16.672 14.2424 16.6851 14.2534 16.6952 14.262C16.7168 14.2804 16.7448 14.305 16.7772 14.334C16.8429 14.3925 16.9365 14.4775 17.0541 14.5851C17.2898 14.8006 17.6268 15.1117 18.0398 15.4947C18.8663 16.2611 19.9998 17.3181 21.2423 18.4817L20.5587 19.2116C19.3171 18.0487 18.1847 16.9929 17.3599 16.228C16.9473 15.8454 16.6123 15.5362 16.3792 15.3229C16.2624 15.2161 16.1724 15.1345 16.1115 15.0801C16.0806 15.0526 16.0596 15.0341 16.0471 15.0236C16.0402 15.0177 16.0401 15.0177 16.044 15.0208C16.045 15.0216 16.0545 15.029 16.0684 15.0383C16.0745 15.0423 16.0912 15.0534 16.1142 15.0653C16.1257 15.0712 16.147 15.0817 16.1752 15.0918C16.196 15.0993 16.259 15.1209 16.3431 15.1209V14.1209ZM16.2804 19.3165C16.659 19.7428 17.0429 20.1762 17.116 20.266L16.3404 20.8973C16.2851 20.8294 15.9244 20.4216 15.5327 19.9804L16.2804 19.3165ZM17.1029 20.2506L17.2248 20.3886L16.4755 21.0508L16.3535 20.9128L17.1029 20.2506ZM17.2378 21.0355L12.584 26.7466L11.8088 26.1149L16.4625 20.4038L17.2378 21.0355ZM12.584 26.7466C11.3061 28.3146 10.1181 29.7644 9.23493 30.8371C8.79339 31.3735 8.42775 31.8159 8.16506 32.1319C7.91446 32.4334 7.73579 32.6465 7.68853 32.6949L6.97314 31.9962C6.97126 31.9981 7.00266 31.9626 7.08604 31.8637C7.161 31.7748 7.26535 31.6499 7.39606 31.4926C7.65732 31.1784 8.02184 30.7373 8.46291 30.2015C9.34494 29.1302 10.5319 27.6817 11.8088 26.1149L12.584 26.7466ZM7.67895 32.7044C7.20635 33.1628 6.65769 33.3581 5.95717 33.3581V32.3581C6.43775 32.3581 6.72356 32.238 6.98271 31.9866L7.67895 32.7044ZM5.95717 33.3581C5.7283 33.3581 5.53637 33.3528 5.34396 33.3083C5.14903 33.2633 4.98073 33.1845 4.78882 33.0879L5.23835 32.1946C5.42517 32.2886 5.50078 32.3182 5.56903 32.334C5.6398 32.3504 5.7303 32.3581 5.95717 32.3581V33.3581ZM4.78882 33.0879C3.8586 32.6198 3.34534 31.7675 3.34534 30.7222H4.34534C4.34534 31.3988 4.6537 31.9004 5.23835 32.1946L4.78882 33.0879ZM3.34534 30.7222C3.34534 30.553 3.31659 30.2728 3.40987 29.9815C3.50395 29.6877 3.70607 29.3917 4.04407 28.991C4.72538 28.1833 6.1628 26.7237 9.1554 23.6565L9.87116 24.3548C6.85561 27.4456 5.45906 28.8645 4.80843 29.6358C4.48047 30.0246 4.39213 30.1931 4.36224 30.2864C4.33156 30.3823 4.34534 30.4117 4.34534 30.7222H3.34534ZM9.15517 23.6567L14.5214 18.1494L15.2376 18.8473L9.87139 24.3546L9.15517 23.6567ZM15.2499 18.1624L15.4168 18.3465L14.6761 19.0183L14.5092 18.8343L15.2499 18.1624ZM15.4159 18.3455C15.5087 18.4473 15.8974 18.8851 16.2804 19.3165L15.5327 19.9804C15.1454 19.5443 14.7639 19.1146 14.6769 19.0192L15.4159 18.3455ZM13.6336 15.8171C13.2859 15.9914 12.9243 16.123 12.5562 16.2124L12.3201 15.2407C12.6154 15.1689 12.9058 15.0633 13.1856 14.9231L13.6336 15.8171ZM12.5562 16.2124C11.1408 16.5564 9.62751 16.2764 8.43924 15.3975L9.03393 14.5935C9.97545 15.29 11.1825 15.5171 12.3201 15.2407L12.5562 16.2124ZM15.6164 8.32667C16.425 9.60226 16.6143 11.0969 16.2837 12.4464L15.3124 12.2084C15.5821 11.1077 15.4264 9.8947 14.7718 8.86207L15.6164 8.32667ZM16.2837 12.4464C15.9384 13.8554 15.022 15.1213 13.6336 15.8171L13.1856 14.9231C14.2893 14.37 15.0307 13.358 15.3124 12.2084L16.2837 12.4464Z" fill="#FCFBF7" mask="url(#path-1-outside-1_1403_11453)"/>
</svg>
