<svg width="34" height="33" viewBox="0 0 34 33" fill="none" xmlns="http://www.w3.org/2000/svg">
<path d="M12.907 6.79462V10.9233H2V6.79462C2.07151 5.38394 2.67727 4.05485 3.69216 3.08188C4.70704 2.10892 6.05353 1.56641 7.45348 1.56641C8.85344 1.56641 10.1999 2.10892 11.2148 3.08188C12.2297 4.05485 12.8355 5.38394 12.907 6.79462Z" stroke="#FCFBF7" stroke-width="2.5" stroke-miterlimit="10"/>
<path d="M31.9977 23.3078C31.994 24.0367 31.7064 24.7349 31.1969 25.2517C30.6874 25.7684 29.9969 26.0623 29.2745 26.0699H2V10.9219H19.722C21.3352 10.9181 22.9331 11.2359 24.4242 11.857C25.9152 12.4781 27.27 13.3903 28.4106 14.5412C29.5513 15.6921 30.4554 17.059 31.071 18.5635C31.6865 20.0679 32.0015 21.6802 31.9977 23.3078Z" stroke="#FCFBF7" stroke-width="2.5" stroke-miterlimit="10"/>
<path d="M33.3664 31.5656H2V26.0703" stroke="#FCFBF7" stroke-width="2.5" stroke-miterlimit="10"/>
<path d="M31.6929 20.5602H22.454C21.9185 20.5583 21.3887 20.45 20.8947 20.2415C20.4007 20.033 19.9522 19.7283 19.5749 19.345C19.1976 18.9616 18.8988 18.507 18.6956 18.0071C18.4924 17.5072 18.3888 16.9718 18.3907 16.4315V10.9219H19.7451C22.5238 10.9269 25.2185 11.883 27.3888 13.6337C29.5591 15.3845 31.0765 17.8264 31.6929 20.5602Z" stroke="#FCFBF7" stroke-width="2.5" stroke-miterlimit="10"/>
<path d="M12.9141 15.0508V19.1794" stroke="#FCFBF7" stroke-width="2.5" stroke-miterlimit="10"/>
<path d="M7.46484 15.0508V19.1794" stroke="#FCFBF7" stroke-width="2.5" stroke-miterlimit="10"/>
<path d="M4.72318 31.5656C6.22715 31.5656 7.44635 30.3354 7.44635 28.8179C7.44635 27.3005 6.22715 26.0703 4.72318 26.0703C3.21921 26.0703 2 27.3005 2 28.8179C2 30.3354 3.21921 31.5656 4.72318 31.5656Z" stroke="#FCFBF7" stroke-width="2.5" stroke-miterlimit="10"/>
<path d="M10.188 31.5656C11.692 31.5656 12.9112 30.3354 12.9112 28.8179C12.9112 27.3005 11.692 26.0703 10.188 26.0703C8.68405 26.0703 7.46484 27.3005 7.46484 28.8179C7.46484 30.3354 8.68405 31.5656 10.188 31.5656Z" stroke="#FCFBF7" stroke-width="2.5" stroke-miterlimit="10"/>
<path d="M21.0865 31.5656C22.5904 31.5656 23.8096 30.3354 23.8096 28.8179C23.8096 27.3005 22.5904 26.0703 21.0865 26.0703C19.5825 26.0703 18.3633 27.3005 18.3633 28.8179C18.3633 30.3354 19.5825 31.5656 21.0865 31.5656Z" stroke="#FCFBF7" stroke-width="2.5" stroke-miterlimit="10"/>
<path d="M26.5591 31.5656C28.0631 31.5656 29.2823 30.3354 29.2823 28.8179C29.2823 27.3005 28.0631 26.0703 26.5591 26.0703C25.0551 26.0703 23.8359 27.3005 23.8359 28.8179C23.8359 30.3354 25.0551 31.5656 26.5591 31.5656Z" stroke="#FCFBF7" stroke-width="2.5" stroke-miterlimit="10"/>
</svg>
