<svg width="36" height="35" viewBox="0 0 36 35" fill="none" xmlns="http://www.w3.org/2000/svg">
<mask id="path-1-inside-1_1403_11391" fill="white">
<path d="M21.2386 0.830147C18.4084 1.26697 16.243 3.51726 16.01 6.28379L15.962 6.81989L10.3633 12.2801C2.59226 19.8649 0.186944 22.2741 0.0841526 22.5719C-0.0666082 23.022 0.159533 23.5581 0.584404 23.75C0.79684 23.8493 1.18059 23.8625 4.11358 23.8625H7.4029L7.59478 24.1074C7.93742 24.5508 9.0133 25.5899 9.57523 26.0135C10.891 27.0063 12.5973 27.7939 14.1529 28.1314L14.6805 28.244V29.3294V30.4148H7.73869C1.11207 30.4148 0.789987 30.4214 0.563846 30.5406C0.27603 30.6862 0.015625 31.0899 0.015625 31.401C0.015625 31.7121 0.262324 32.0959 0.563846 32.2614L0.824251 32.4004H10.61H20.3957L21.3277 33.2939C22.4927 34.4058 22.7462 34.5249 23.363 34.2602C23.5686 34.1675 23.6919 34.055 23.7879 33.8631C24.0277 33.413 23.966 33.0622 23.5891 32.6386L23.3698 32.4004H28.8246C34.0533 32.4004 34.2931 32.3938 34.5398 32.2746C34.8345 32.129 35.1018 31.7187 35.1018 31.4142C35.1018 31.0767 34.8619 30.6994 34.5536 30.5472C34.3137 30.4281 34.1561 30.4148 32.9363 30.4148H31.5795L31.7576 30.2295C32.1688 29.8125 32.251 29.4022 32.018 28.9588C31.8604 28.6609 31.4698 28.4293 31.1272 28.4293C30.764 28.4293 30.435 28.6609 29.5168 29.5478L28.6259 30.4148H24.7404H20.848V29.0713V27.7277L21.2455 27.5755C22.7394 26.9931 24.432 25.8216 25.5216 24.617C27.1115 22.8565 28.0982 20.7253 28.3929 18.4089C28.5026 17.5088 28.434 15.821 28.249 14.9606C27.9749 13.6899 27.3719 12.2073 26.714 11.1881L26.5495 10.93L26.8031 10.6255C27.4335 9.88425 27.8927 9.05032 28.1051 8.22301L28.2353 7.74648L28.8383 7.71338C29.5442 7.67367 29.7566 7.56778 29.9759 7.16405C30.2089 6.71399 30.0718 6.23746 29.5922 5.89992C29.4551 5.79402 29.2632 5.75431 28.8178 5.72783L28.2353 5.69474L28.1051 5.21821C27.5706 3.1731 25.8163 1.492 23.6714 0.955898C23.0615 0.803673 21.828 0.744106 21.2386 0.830147ZM22.9998 2.84879C24.5417 3.16648 25.8368 4.41076 26.1589 5.8933C26.296 6.52867 26.2891 7.07139 26.1247 7.67367C25.9122 8.47451 25.6313 8.92457 24.8775 9.6526C23.9318 10.566 23.9181 10.7447 24.6513 11.7838C25.4325 12.889 25.9602 14.0738 26.2343 15.3577C26.4125 16.1917 26.4193 18.0978 26.2411 18.8986C25.8163 20.8312 24.9734 22.3336 23.5617 23.7037C22.1432 25.0671 20.5122 25.9076 18.5386 26.2915C17.6341 26.4636 15.8318 26.4503 14.9067 26.2584C13.262 25.9142 11.5694 25.1134 10.4318 24.1339L10.1235 23.8691L11.9805 23.8625C14.5298 23.8625 15.2767 23.7169 16.5513 22.9955C17.1475 22.6579 18.244 21.6122 18.5729 21.0695C18.943 20.4672 19.2582 19.6995 19.3815 19.1038C19.5529 18.2633 19.4912 16.9396 19.2376 16.1851C18.7853 14.815 17.8945 13.67 16.6815 12.9155C15.914 12.4324 15.2493 12.2073 13.9336 11.9691L13.6252 11.9161L15.7633 9.82468C16.9351 8.67307 17.9287 7.65382 17.9699 7.55454C18.0041 7.45526 18.0384 7.12434 18.0384 6.82651C18.0384 5.68151 18.4359 4.7483 19.2719 3.94084C20.2861 2.95469 21.6224 2.56419 22.9998 2.84879ZM14.1666 14.034C15.5577 14.312 16.7364 15.3114 17.2298 16.6219C17.4353 17.1646 17.4833 18.2964 17.3189 18.8986C16.9762 20.1892 15.9963 21.1953 14.6463 21.6586L14.0981 21.8439L8.82828 21.8637L3.5585 21.8836L6.66281 18.8192C10.7813 14.7422 10.8156 14.7158 11.4872 14.3914C12.4054 13.9612 13.2346 13.8487 14.1666 14.034ZM18.7922 29.3559V30.4148H17.7643H16.7364V29.4221V28.4293L17.1338 28.4227C17.3463 28.416 17.7095 28.3896 17.9356 28.3631C18.1617 28.3366 18.4496 28.3101 18.5729 28.3035L18.7922 28.2969V29.3559Z"/>
</mask>
<path d="M21.2386 0.830147C18.4084 1.26697 16.243 3.51726 16.01 6.28379L15.962 6.81989L10.3633 12.2801C2.59226 19.8649 0.186944 22.2741 0.0841526 22.5719C-0.0666082 23.022 0.159533 23.5581 0.584404 23.75C0.79684 23.8493 1.18059 23.8625 4.11358 23.8625H7.4029L7.59478 24.1074C7.93742 24.5508 9.0133 25.5899 9.57523 26.0135C10.891 27.0063 12.5973 27.7939 14.1529 28.1314L14.6805 28.244V29.3294V30.4148H7.73869C1.11207 30.4148 0.789987 30.4214 0.563846 30.5406C0.27603 30.6862 0.015625 31.0899 0.015625 31.401C0.015625 31.7121 0.262324 32.0959 0.563846 32.2614L0.824251 32.4004H10.61H20.3957L21.3277 33.2939C22.4927 34.4058 22.7462 34.5249 23.363 34.2602C23.5686 34.1675 23.6919 34.055 23.7879 33.8631C24.0277 33.413 23.966 33.0622 23.5891 32.6386L23.3698 32.4004H28.8246C34.0533 32.4004 34.2931 32.3938 34.5398 32.2746C34.8345 32.129 35.1018 31.7187 35.1018 31.4142C35.1018 31.0767 34.8619 30.6994 34.5536 30.5472C34.3137 30.4281 34.1561 30.4148 32.9363 30.4148H31.5795L31.7576 30.2295C32.1688 29.8125 32.251 29.4022 32.018 28.9588C31.8604 28.6609 31.4698 28.4293 31.1272 28.4293C30.764 28.4293 30.435 28.6609 29.5168 29.5478L28.6259 30.4148H24.7404H20.848V29.0713V27.7277L21.2455 27.5755C22.7394 26.9931 24.432 25.8216 25.5216 24.617C27.1115 22.8565 28.0982 20.7253 28.3929 18.4089C28.5026 17.5088 28.434 15.821 28.249 14.9606C27.9749 13.6899 27.3719 12.2073 26.714 11.1881L26.5495 10.93L26.8031 10.6255C27.4335 9.88425 27.8927 9.05032 28.1051 8.22301L28.2353 7.74648L28.8383 7.71338C29.5442 7.67367 29.7566 7.56778 29.9759 7.16405C30.2089 6.71399 30.0718 6.23746 29.5922 5.89992C29.4551 5.79402 29.2632 5.75431 28.8178 5.72783L28.2353 5.69474L28.1051 5.21821C27.5706 3.1731 25.8163 1.492 23.6714 0.955898C23.0615 0.803673 21.828 0.744106 21.2386 0.830147ZM22.9998 2.84879C24.5417 3.16648 25.8368 4.41076 26.1589 5.8933C26.296 6.52867 26.2891 7.07139 26.1247 7.67367C25.9122 8.47451 25.6313 8.92457 24.8775 9.6526C23.9318 10.566 23.9181 10.7447 24.6513 11.7838C25.4325 12.889 25.9602 14.0738 26.2343 15.3577C26.4125 16.1917 26.4193 18.0978 26.2411 18.8986C25.8163 20.8312 24.9734 22.3336 23.5617 23.7037C22.1432 25.0671 20.5122 25.9076 18.5386 26.2915C17.6341 26.4636 15.8318 26.4503 14.9067 26.2584C13.262 25.9142 11.5694 25.1134 10.4318 24.1339L10.1235 23.8691L11.9805 23.8625C14.5298 23.8625 15.2767 23.7169 16.5513 22.9955C17.1475 22.6579 18.244 21.6122 18.5729 21.0695C18.943 20.4672 19.2582 19.6995 19.3815 19.1038C19.5529 18.2633 19.4912 16.9396 19.2376 16.1851C18.7853 14.815 17.8945 13.67 16.6815 12.9155C15.914 12.4324 15.2493 12.2073 13.9336 11.9691L13.6252 11.9161L15.7633 9.82468C16.9351 8.67307 17.9287 7.65382 17.9699 7.55454C18.0041 7.45526 18.0384 7.12434 18.0384 6.82651C18.0384 5.68151 18.4359 4.7483 19.2719 3.94084C20.2861 2.95469 21.6224 2.56419 22.9998 2.84879ZM14.1666 14.034C15.5577 14.312 16.7364 15.3114 17.2298 16.6219C17.4353 17.1646 17.4833 18.2964 17.3189 18.8986C16.9762 20.1892 15.9963 21.1953 14.6463 21.6586L14.0981 21.8439L8.82828 21.8637L3.5585 21.8836L6.66281 18.8192C10.7813 14.7422 10.8156 14.7158 11.4872 14.3914C12.4054 13.9612 13.2346 13.8487 14.1666 14.034ZM18.7922 29.3559V30.4148H17.7643H16.7364V29.4221V28.4293L17.1338 28.4227C17.3463 28.416 17.7095 28.3896 17.9356 28.3631C18.1617 28.3366 18.4496 28.3101 18.5729 28.3035L18.7922 28.2969V29.3559Z" fill="#FCFBF7" stroke="#FCFBF7" stroke-width="0.266667" mask="url(#path-1-inside-1_1403_11391)"/>
<path d="M23.3688 7.15754L23.3389 7.09793C23.5175 7.00851 23.6351 6.91271 23.7122 6.79504C23.7894 6.67724 23.8304 6.53088 23.8436 6.3324L23.8436 6.33206C23.8602 6.10195 23.8281 5.92642 23.748 5.78878C23.6682 5.65161 23.5358 5.54386 23.3357 5.45832L23.3357 5.45833L23.3347 5.45788C23.1506 5.37555 23.037 5.33979 22.9276 5.34124C22.8183 5.34268 22.7047 5.38142 22.5208 5.47018C22.3411 5.55857 22.2111 5.67017 22.1256 5.80501C22.0402 5.93979 21.9964 6.10228 21.9964 6.29713C21.9964 6.61347 22.1838 6.88652 22.4495 7.04484C22.7152 7.20317 23.0508 7.24165 23.339 7.09788L23.3688 7.15754ZM23.3688 7.15754C23.7388 6.97222 23.8827 6.74719 23.9101 6.33685L23.3688 7.15754Z" fill="#FCFBF7" stroke="#FCFBF7" stroke-width="0.133333"/>
</svg>
