<svg width="36" height="40" viewBox="0 0 36 40" fill="none" xmlns="http://www.w3.org/2000/svg">
<path d="M25.5012 1.34188C24.4541 1.74459 23.4554 2.71111 22.9399 3.79038C22.4889 4.7569 22.4245 6.31943 22.7949 7.33427L23.0044 7.94639L22.4244 7.86585C22.0862 7.81752 20.7814 7.65644 19.4927 7.52757C18.204 7.38259 17.0764 7.25372 16.9798 7.22151C16.8831 7.18929 16.3193 6.39997 15.7072 5.49789C13.7258 2.48559 13.162 1.97012 11.8411 1.97012C11.0679 1.97012 10.1014 2.48559 9.63425 3.12993C9.3443 3.54876 9.26375 3.87092 9.26375 4.70857C9.25147 5.16471 9.26634 5.4164 9.38036 5.88571C10.1415 7.01805 10.4517 7.52283 11.2129 8.65517C12.2922 10.2499 13.3392 11.7158 13.5486 11.893C14.0963 12.3762 14.7729 12.5534 17.0442 12.779C18.3812 12.9078 19.0094 13.0367 19.0094 13.1656C19.0094 13.3911 17.1731 18.3686 17.0442 18.4975C16.9959 18.5458 15.4817 18.0142 13.6775 17.3216C10.1819 16.0007 9.39262 15.8557 8.45832 16.3551C7.73344 16.7417 1.74105 22.2347 1.32223 22.8951C1.01617 23.3623 0.967843 23.6522 1.01617 24.4093C1.09671 25.8269 1.93436 26.7451 3.27137 26.8901C4.33453 27.0189 4.97887 26.729 6.31589 25.5208C6.96023 24.9248 8.13615 23.8778 8.89326 23.1851L10.2947 21.9125L12.1633 22.6213C13.1781 22.9918 14.0158 23.3462 14.0158 23.3945C14.0158 23.4428 13.2748 23.5878 12.3727 23.7006C10.6169 23.91 10.1336 24.1033 9.5376 24.7315C9.32819 24.9409 8.00729 27.4055 6.57362 30.1762C4.36675 34.4933 3.98014 35.3632 3.91571 36.1364C3.81906 37.2157 4.0768 37.8278 4.94666 38.4882L5.52657 38.9393L19.831 38.9876C32.7017 39.0198 34.1515 39.0037 34.377 38.7621C34.6992 38.4399 34.6992 37.9889 34.377 37.6667C34.1515 37.4412 32.7823 37.409 21.6512 37.409C11.7284 37.409 9.1671 37.3606 9.21543 37.1995C9.3443 36.6841 13.2426 29.1614 13.4198 29.113C13.5325 29.0647 15.6105 28.7748 18.0429 28.4687C20.4753 28.1465 22.7466 27.8566 23.0849 27.7921C23.7776 27.6794 24.5669 27.2122 25.0018 26.6162C25.1629 26.3907 25.9844 24.4093 26.8382 22.1864C27.6758 19.9795 28.4007 18.1431 28.4168 18.1109C28.4491 18.0787 28.7712 18.4653 29.1256 18.9646L29.77 19.8667L29.2223 21.9125C27.7564 27.325 27.7564 27.5022 28.9001 28.6459C30.0116 29.7574 31.4452 29.7735 32.6534 28.6459C33.185 28.1626 33.2816 27.921 34.3287 24.0388C35.4402 19.9312 35.569 19.1096 35.2791 18.3364C35.1985 18.1109 33.8776 16.1618 32.3312 14.0032L29.5283 10.0888L30.3982 9.2834C32.5245 7.33426 32.589 4.37029 30.5432 2.35672C29.1739 1.01971 27.3053 0.649212 25.5012 1.34188ZM28.2558 2.80776C29.1739 3.0816 30.0277 3.99979 30.2693 4.9502C30.8976 7.44703 28.4652 9.62168 26.1294 8.65517C23.5037 7.54368 23.552 3.79038 26.21 2.85608C26.9832 2.56613 27.4181 2.56613 28.2558 2.80776ZM12.5338 3.87093C12.6788 4.0159 13.5003 5.19183 14.338 6.4483C15.3045 7.91417 15.9649 8.76793 16.1904 8.81625C16.3676 8.84847 17.9624 9.04177 19.7343 9.21897C22.6661 9.54114 23.1816 9.63779 25.4368 10.3627C26.806 10.8137 28.0624 11.2486 28.2235 11.3292C28.594 11.5225 33.7004 18.6908 33.7971 19.1418C33.8293 19.3351 33.636 20.2694 33.3622 21.236C33.1044 22.2025 32.6212 23.9744 32.299 25.1664C31.9607 26.439 31.6063 27.4216 31.4614 27.5344C30.9942 27.8888 30.1566 27.7921 29.8666 27.3411C29.625 26.9706 29.6572 26.7773 30.5754 23.2817C31.3486 20.4144 31.5097 19.5607 31.3808 19.3029C30.9942 18.578 28.7873 15.6463 28.5296 15.5174C27.8691 15.163 27.5631 15.6141 26.3227 18.8841C23.8903 25.2309 23.6487 25.8108 23.3426 25.988C23.1654 26.0685 20.6203 26.4712 17.6885 26.8578C13.2104 27.4378 12.3083 27.5988 12.1311 27.8405C12.0022 28.0016 10.8907 30.1601 9.63425 32.6247C8.00728 35.8142 7.23407 37.1673 6.97634 37.2962C6.23534 37.6345 5.30105 36.8774 5.51046 36.0881C5.65544 35.492 10.7135 25.7786 10.939 25.6658C11.084 25.5853 12.7432 25.3114 14.644 25.0698C16.7703 24.7798 18.1718 24.5221 18.3168 24.3932C18.6389 24.055 18.5745 23.4267 18.1718 23.169C17.6563 22.8468 10.3914 20.1728 10.037 20.1728C9.87588 20.1728 9.11878 20.7366 8.36167 21.4293C3.49689 25.8108 3.7063 25.6819 2.9492 24.9731C2.73978 24.7798 2.5787 24.4577 2.5787 24.2483C2.5787 23.7811 2.98141 23.3623 6.41254 20.2694C8.52276 18.3525 9.29597 17.7565 9.61814 17.7565C9.85977 17.7565 11.6961 18.3686 13.7097 19.1257C15.7233 19.8828 17.4791 20.495 17.608 20.495C18.0429 20.495 18.3329 19.8989 19.7343 16.1779C21.1519 12.3601 21.2807 11.7641 20.6525 11.5708C20.5075 11.5225 19.396 11.3775 18.204 11.2325C17.012 11.1037 15.7233 10.9587 15.3367 10.9104L14.644 10.8137L12.7271 7.93028C10.6652 4.83744 10.4558 4.32196 11.1485 3.83871C11.6317 3.50043 12.1794 3.51654 12.5338 3.87093Z" fill="#FCFBF7" stroke="#FCFBF7" stroke-width="0.2"/>
<path d="M14.4416 33.8334C14.1033 34.2039 14.0872 34.5744 14.4255 34.8966C14.651 35.1221 15.537 35.1543 21.8838 35.1543C28.9715 35.1543 29.1004 35.1543 29.4064 34.816C29.6803 34.51 29.6803 34.4455 29.4548 34.0589L29.2131 33.624L21.9643 33.5757C15.0859 33.5434 14.6832 33.5595 14.4416 33.8334Z" fill="#FCFBF7" stroke="#FCFBF7" stroke-width="0.2"/>
</svg>
