<svg width="47" height="37" viewBox="0 0 47 37" fill="none" xmlns="http://www.w3.org/2000/svg">
<path fill-rule="evenodd" clip-rule="evenodd" d="M23.3441 1.46577C21.9187 2.01401 20.559 3.32977 19.8573 4.79904C19.2433 6.11481 19.1556 8.24195 19.6599 9.62351L19.945 10.4568L19.1556 10.3472C18.695 10.2814 16.9188 10.0621 15.1644 9.88666C13.4101 9.68929 11.875 9.51386 11.7434 9.47C11.6118 9.42614 10.8443 8.3516 10.011 7.12355C7.31368 3.02276 6.54616 2.32102 4.74795 2.32102C3.69533 2.32102 2.37957 3.02276 1.74362 3.89993C1.34889 4.4701 1.23924 4.90868 1.23924 6.04901C1.22252 6.66998 1.24276 7.01261 1.39798 7.65152C2.43422 9.19303 2.85646 9.8802 3.8927 11.4217C5.36197 13.5927 6.78738 15.5883 7.07246 15.8295C7.81806 16.4874 8.7391 16.7286 11.8311 17.0356C13.6513 17.2111 15.1322 19.1449 15.1322 19.3203L17.9909 18.7023C17.7936 18.6365 15.0328 15.1278 13.4101 14.9304C11.7873 14.755 10.0329 14.5576 9.50663 14.4918L8.56366 14.3603L5.95406 10.4349C3.1471 6.22445 2.86202 5.52271 3.80498 4.86483C4.46286 4.40431 5.20846 4.42624 5.69091 4.90869C5.88827 5.10605 7.00667 6.7069 8.147 8.41739C9.46277 10.413 10.3619 11.5752 10.6689 11.641C10.9101 11.6849 13.0811 11.948 15.4934 12.1892C19.4845 12.6278 20.1862 12.7594 23.2564 13.7462C25.1204 14.3603 26.8308 14.9523 27.0501 15.062C27.3012 15.193 27.4246 15.4623 29.2344 18L31.7344 17.5L28.8264 13.3734L30.0106 12.277C32.9053 9.62351 32.993 5.58849 30.208 2.84732C28.344 1.02718 25.8002 0.522808 23.3441 1.46577ZM29.8352 6.37796C29.5062 5.08412 28.344 3.83415 27.094 3.46135C25.9537 3.1324 25.3616 3.1324 24.309 3.52713C20.6906 4.79904 20.6248 9.90859 24.1993 11.4217C27.3791 12.7375 30.6904 9.77701 29.8352 6.37796Z" fill="#FCFBF7" stroke="#FCFBF7" stroke-width="0.2"/>
<path d="M13.1044 19.2121L12.2489 19.2762C10.7947 19.3832 6.90257 18.7202 4.42186 17.929C1.8556 17.1163 1.25681 17.0308 1.06434 17.5012C0.807716 18.1856 1.25681 18.485 3.54505 19.2121C10.1745 21.3079 15.1146 21.3079 22.1076 19.1907C26.2564 17.9503 28.9937 17.544 32.1588 17.6723C35.1741 17.8006 36.778 18.1428 41.6967 19.6184C44.434 20.4311 45.6316 20.7091 45.9096 20.5594C46.4229 20.3027 46.3587 19.8109 45.8027 19.4473C45.2895 19.1265 38.5744 17.1377 36.7353 16.7528L35.6232 16.5175C35.1511 16.3254 34.8356 16.2576 34.1904 16.1967C32.8643 16.0592 31.1325 16.2823 30.9826 16.2395C30.8327 16.1967 25.4651 16.6031 21.9579 17.7151C19.242 18.5705 16.8468 19.1052 15.692 19.1052L13.1044 19.2121Z" fill="#FCFBF7" stroke="#FCFBF7"/>
<path d="M35.6232 20.152C35.4521 20.2376 35.3666 20.5583 35.4093 20.8364C35.4521 21.2213 35.6018 21.3496 36.0081 21.3496C36.4145 21.3496 36.5642 21.2213 36.6069 20.8364C36.6711 20.4086 36.3717 19.9596 36.0081 19.9596C35.944 19.9596 35.7729 20.0451 35.6232 20.152Z" fill="#FCFBF7" stroke="#FCFBF7"/>
<path d="M25.8939 21.1149C25.6587 21.7137 25.9795 22.12 26.5782 22.0558C27.006 22.0131 27.1343 21.8848 27.1343 21.4571C27.1343 21.0293 27.006 20.901 26.5782 20.8583C26.2147 20.8155 25.9581 20.9224 25.8939 21.1149Z" fill="#FCFBF7" stroke="#FCFBF7"/>
<path d="M30.3198 21.1154C30.106 21.6714 30.4054 22.1419 30.9186 22.0563C31.2822 22.0135 31.4105 21.8425 31.4105 21.4575C31.4105 21.0726 31.2822 20.9015 30.9186 20.8587C30.6406 20.816 30.384 20.9229 30.3198 21.1154Z" fill="#FCFBF7" stroke="#FCFBF7"/>
<path d="M4.20843 21.6078C3.63103 21.8216 4.05874 22.9551 4.72168 22.9551C5.17078 22.9551 5.49156 22.121 5.19216 21.7575C4.93554 21.4581 4.67891 21.4153 4.20843 21.6078Z" fill="#FCFBF7" stroke="#FCFBF7"/>
<path d="M39.2146 22.421C38.8083 22.9128 39.0435 23.4902 39.6423 23.4902C40.0486 23.4902 40.1983 23.3619 40.2411 22.977C40.348 22.2285 39.6851 21.8436 39.2146 22.421Z" fill="#FCFBF7" stroke="#FCFBF7"/>
<path d="M34.0177 23.1047C33.7611 23.34 33.8467 23.9602 34.1674 24.2168C34.7662 24.7087 35.6216 23.8532 35.1298 23.2544C34.8732 22.9337 34.253 22.8481 34.0177 23.1047Z" fill="#FCFBF7" stroke="#FCFBF7"/>
<path d="M13.2342 24.8791C10.2188 25.1785 3.6535 26.5472 3.3541 26.9321C3.07609 27.317 3.18302 27.7875 3.58934 27.9372C3.73904 28.0014 5.49265 27.7234 7.48149 27.317C12.614 26.2905 15.4797 26.0553 18.7516 26.3547C21.9594 26.6541 23.82 27.0818 27.926 28.4932C30.7489 29.4342 31.1124 29.5197 31.4118 29.2417C32.0106 28.6216 31.4332 28.1725 28.8028 27.2315C27.4127 26.7396 25.6164 26.1622 24.7823 25.927C21.4034 24.986 16.6559 24.5583 13.2342 24.8791Z" fill="#FCFBF7" stroke="#FCFBF7"/>
<path d="M10.6462 29.0285C10.4109 29.6487 10.6675 30.1191 11.2022 30.1191C11.6085 30.1191 11.7582 29.9908 11.801 29.6059C11.9079 28.8574 10.9028 28.3655 10.6462 29.0285Z" fill="#FCFBF7" stroke="#FCFBF7"/>
<path d="M15.7115 29.1343C15.5618 29.4123 15.5832 29.6262 15.7757 29.9042C16.1392 30.4175 16.8449 30.225 16.9305 29.6048C17.0588 28.7708 16.0965 28.4072 15.7115 29.1343Z" fill="#FCFBF7" stroke="#FCFBF7"/>
<path d="M35.4526 29.8829C35.2388 30.439 35.5382 30.9094 36.0514 30.8239C36.415 30.7811 36.5433 30.61 36.5433 30.2251C36.5433 29.8402 36.415 29.6691 36.0514 29.6263C35.7734 29.5835 35.5168 29.6905 35.4526 29.8829Z" fill="#FCFBF7" stroke="#FCFBF7"/>
<path d="M7.07452 30.3534C6.79651 30.6314 6.92482 31.4655 7.24561 31.5938C7.82301 31.8076 8.22934 31.4869 8.16518 30.8881C8.10102 30.332 7.41669 30.0113 7.07452 30.3534Z" fill="#FCFBF7" stroke="#FCFBF7"/>
<path d="M29.6125 30.5256C29.4201 30.7609 29.3987 30.9533 29.5911 31.2955C29.8691 31.8088 30.4038 31.7874 30.7246 31.2741C31.2164 30.4829 30.1899 29.8199 29.6125 30.5256Z" fill="#FCFBF7" stroke="#FCFBF7"/>
<path d="M20.8664 32.0014C20.5242 32.4077 20.7167 32.8996 21.3582 33.1776C22.8552 33.8619 27.8808 35.1023 31.1955 35.6155C33.441 35.9363 39.5786 35.9363 41.3536 35.5942C42.872 35.2948 43.2783 35.0595 43.2783 34.5035C43.2783 33.9261 42.7223 33.8192 41.2681 34.1186C40.541 34.2683 38.3597 34.3752 36.3281 34.3752C32.1151 34.3752 28.779 33.8833 24.5661 32.643C21.1658 31.6378 21.1658 31.6378 20.8664 32.0014Z" fill="#FCFBF7" stroke="#FCFBF7"/>
<path d="M37.6545 31.8723C37.3978 32.1076 37.4834 32.7277 37.8042 32.9844C38.403 33.4762 39.2584 32.6208 38.7665 32.022C38.5099 31.7012 37.8897 31.6157 37.6545 31.8723Z" fill="#FCFBF7" stroke="#FCFBF7"/>
<path d="M9.91568 32.6633C9.33827 33.369 10.3006 34.203 10.9422 33.5614C11.2202 33.2834 11.2416 33.1337 11.0705 32.8343C10.7497 32.3425 10.2578 32.2783 9.91568 32.6633Z" fill="#FCFBF7" stroke="#FCFBF7"/>
<path d="M15.1583 34.8022C14.645 35.1658 14.8375 35.8715 15.4577 35.9571C16.2917 36.0854 16.6553 35.123 15.9282 34.7381C15.6502 34.5884 15.4363 34.6098 15.1583 34.8022Z" fill="#FCFBF7" stroke="#FCFBF7"/>
</svg>
