<svg width="38" height="37" viewBox="0 0 38 37" fill="none" xmlns="http://www.w3.org/2000/svg">
<path d="M10.996 0.956346C10.815 1.04688 10.5951 1.27968 10.5046 1.46074C10.0131 2.50833 11.4099 3.49126 12.2247 2.66353C12.7032 2.19794 12.6644 1.55127 12.1471 1.12448C11.7074 0.749414 11.4746 0.710614 10.996 0.956346Z" fill="#FCFBF7"/>
<path d="M17.0611 2.76537C15.7807 3.30857 15.147 3.89056 14.5133 5.10628C14.2287 5.67535 14.177 5.93401 14.1641 6.92987C14.1641 7.99039 14.2029 8.17146 14.5909 8.96039C15.5479 10.9004 17.7207 11.9092 19.7383 11.3401C23.1139 10.383 24.239 6.27028 21.7947 3.82589C20.5531 2.57137 18.5614 2.13164 17.0611 2.76537ZM19.6348 4.91229C20.2297 5.20975 20.5013 5.50721 20.76 6.12801C21.0316 6.77467 21.0057 7.3308 20.6824 8.00333C19.8547 9.71051 17.4232 9.72345 16.5567 8.01626C15.5479 6.06334 17.669 3.91643 19.6348 4.91229Z" fill="#FCFBF7"/>
<path d="M0.323331 5.24892L0 5.55931V20.8981V36.2499L0.375064 36.6249L0.750127 37H18.6239H36.4976L36.8726 36.6249C37.2994 36.1981 37.3253 35.9653 37.0537 34.866C36.6398 33.0812 35.8251 31.762 33.9497 29.7833C32.1779 27.9209 31.5054 27.5587 29.2679 27.3001C26.8106 27.0155 26.3321 26.6922 25.4785 24.7522C23.8747 21.0921 23.4479 20.6653 20.3052 19.5272C19.4257 19.2039 18.9601 18.9581 18.6239 18.6219C18.3781 18.3632 17.5892 17.1475 16.8779 15.9188C15.5069 13.565 14.7697 12.6467 13.8386 12.1682C13.5282 12.013 12.3124 11.5733 11.1355 11.1853C8.6782 10.3963 8.38073 10.1894 7.64354 8.63742C6.54421 6.34824 4.25503 4.92559 1.64252 4.92559C0.750127 4.92559 0.594929 4.96439 0.323331 5.24892ZM3.28504 7.39583C4.34557 7.78383 5.22503 8.65036 5.83289 9.89195C6.38902 11.0171 7.12621 11.8707 7.95394 12.3493C8.23847 12.5174 9.42833 12.9571 10.6052 13.3322C11.7822 13.7073 12.9203 14.147 13.1531 14.3151C13.4247 14.522 14.136 15.5696 15.0672 17.1604C17.0848 20.5489 17.2917 20.7429 20.1758 21.8164C21.9606 22.476 22.2322 22.7605 23.1376 24.8557C23.5126 25.7352 23.9911 26.731 24.211 27.0673C25.1034 28.4899 26.3321 29.1237 28.7118 29.4341C29.5912 29.5505 30.5095 29.7315 30.7423 29.8479C31.2596 30.0937 33.3419 32.2535 33.9497 33.1588C34.1955 33.5339 34.48 34.0512 34.5964 34.3228L34.7904 34.8014H31.2079H27.6124L25.6725 33.5727C23.5255 32.2147 22.9694 31.6974 22.09 30.1971C21.3269 28.8909 20.7449 28.2183 19.8396 27.6234C18.6756 26.8474 17.8996 26.6405 15.5069 26.4594C13.0755 26.2784 12.5452 26.1102 11.5752 25.2178C11.226 24.8945 10.7734 24.2608 10.463 23.6658C9.55766 21.9199 8.03154 20.5877 6.40195 20.1221C5.91049 19.9799 2.85824 19.5531 2.30212 19.5401C2.23745 19.5401 2.19865 16.7466 2.19865 13.3322C2.19865 7.9649 2.22452 7.12424 2.39265 7.12424C2.49611 7.12424 2.89704 7.24063 3.28504 7.39583ZM4.06103 21.9328C6.55715 22.2432 7.54007 22.851 8.54887 24.7264C9.22139 25.9809 9.97152 26.8474 10.9027 27.4682C12.0926 28.2442 12.9074 28.4641 15.106 28.6063C18.2617 28.8003 18.9084 29.1754 20.4216 31.6198C21.3269 33.0812 22.0124 33.8314 22.9306 34.4004C23.1893 34.5556 23.4091 34.7238 23.4091 34.7496C23.4091 34.7755 18.6368 34.8014 12.8039 34.8014H2.19865V28.2701C2.19865 23.1356 2.23745 21.7388 2.36678 21.7388C2.44438 21.7388 3.22037 21.8293 4.06103 21.9328Z" fill="#FCFBF7"/>
<path d="M26.1233 5.92118C24.9464 6.34798 25.1663 8.0293 26.3949 8.0293C27.0028 8.0293 27.4166 7.58957 27.4166 6.98171C27.4166 6.32211 26.6794 5.72718 26.1233 5.92118Z" fill="#FCFBF7"/>
<path d="M32.8503 7.55058C32.6046 7.62818 32.1002 7.99031 31.7251 8.35244C30.5611 9.49056 30.3801 10.9132 31.2207 12.3229C31.8027 13.3059 32.6046 13.7715 33.8203 13.8232C34.6092 13.862 34.842 13.8232 35.3981 13.5516C36.4587 13.0084 37.0924 12.1031 37.2088 10.9391C37.4028 9.05083 35.8767 7.35658 34.0272 7.39538C33.6263 7.40831 33.096 7.47298 32.8503 7.55058ZM34.7256 9.90443C35.3593 10.5252 34.9455 11.6504 34.079 11.6504C33.4582 11.6504 33.2512 11.5469 33.0314 11.1072C32.4752 10.0338 33.872 9.0379 34.7256 9.90443Z" fill="#FCFBF7"/>
<path d="M24.1442 11.702C23.1871 12.0512 22.2559 12.9824 21.9067 13.9395C21.8162 14.2111 21.7386 14.8319 21.7386 15.3362C21.7257 16.5132 22.0878 17.328 23.019 18.1557C25.8384 20.6906 30.2487 17.8712 29.1752 14.2111C28.9166 13.2928 27.9983 12.2452 27.093 11.8313C26.3428 11.4692 24.959 11.4175 24.1442 11.702ZM26.2006 13.836C27.08 14.2369 27.4163 15.3104 26.899 16.1381C26.2006 17.2892 24.571 17.1857 24.0278 15.957C23.8338 15.5044 23.8079 15.3104 23.9114 14.9095C24.0666 14.3404 24.5063 13.8877 25.0366 13.7196C25.5669 13.5644 25.6057 13.5644 26.2006 13.836Z" fill="#FCFBF7"/>
<path d="M27.8271 20.9106C26.7407 21.3633 27.0641 22.9023 28.2539 22.9023C29.1851 22.9023 29.6637 21.9065 29.0946 21.1952C28.7842 20.7942 28.3315 20.6908 27.8271 20.9106Z" fill="#FCFBF7"/>
</svg>
