<svg width="35" height="35" viewBox="0 0 35 35" fill="none" xmlns="http://www.w3.org/2000/svg">
<path d="M26.9062 0.66212L26.9061 0.66213C25.49 0.921418 24.3014 1.55882 23.2904 2.60298C22.3657 3.561 21.8016 4.62322 21.5425 5.89919L21.5424 5.89958C21.4288 6.44734 21.4101 6.85888 21.4836 7.1736C21.5559 7.48274 21.7183 7.70387 21.9838 7.87251L21.9838 7.87255C22.535 8.22332 23.3231 8.0687 23.6616 7.56393L23.6618 7.56365C23.8167 7.33441 23.882 7.13202 23.9898 6.41749L23.9898 6.41749L23.9899 6.41688C24.2606 4.69581 25.8787 3.24019 27.6825 3.08814L27.6833 3.08808C28.2979 3.04132 28.5347 2.96241 28.7664 2.7673C29.3206 2.30032 29.3397 1.38563 28.81 0.893346L28.81 0.893331C28.4629 0.570581 27.8929 0.480897 26.9062 0.66212Z" fill="#FCFBF7" stroke="#45734C" stroke-width="0.2"/>
<path d="M11.8556 3.07486C12.3347 3.13222 12.6526 3.18006 12.9228 3.25021C13.1951 3.3209 13.4161 3.41347 13.703 3.5569C14.3954 3.90311 15.0712 4.54451 15.4587 5.23645C15.6549 5.58291 15.8788 5.81595 16.1211 5.9452C16.3614 6.07342 16.6275 6.10379 16.9192 6.03165C17.7264 5.83143 18.1203 4.96391 17.738 4.21811L17.7378 4.21779C17.1137 2.98936 15.8553 1.77147 14.6423 1.22131L14.6422 1.22128C13.8376 0.855538 13.1219 0.683316 12.2585 0.650062C11.5834 0.629614 11.4303 0.646499 11.2759 0.726587L11.2756 0.72672C10.6443 1.05174 10.4019 1.89169 10.7555 2.48154C10.8693 2.66798 10.9971 2.79591 11.1654 2.88727C11.336 2.97989 11.5545 3.03846 11.8556 3.07486ZM11.8556 3.07486L11.8437 3.17415M11.8556 3.07486C11.8556 3.07486 11.8556 3.07487 11.8557 3.07487L11.8437 3.17415M11.8437 3.17415C12.8015 3.28882 13.0916 3.36302 13.6582 3.64634C14.3328 3.98362 14.9939 4.61096 15.3716 5.28551C15.7763 6.00054 16.316 6.28386 16.9433 6.12871L11.8437 3.17415Z" fill="#FCFBF7" stroke="#45734C" stroke-width="0.2"/>
<path d="M8.82408 5.49799C8.64881 5.53665 8.45224 5.65579 8.2845 5.81791C8.11692 5.97988 7.98934 6.17392 7.94142 6.35037C7.72849 7.15263 8.30428 7.91758 9.11976 7.91758C9.3187 7.91758 9.46991 7.89632 9.59967 7.85003C9.72838 7.80412 9.8418 7.73149 9.96229 7.62058C10.8971 6.74126 10.0907 5.22216 8.82408 5.49799Z" fill="#FCFBF7" stroke="#45734C" stroke-width="0.2"/>
<path d="M0.000919224 30.9524C0.000919224 30.3655 0.0279015 30.1564 0.169559 29.7382C0.358435 29.2053 10.868 10.2502 11.3267 9.62286C11.7517 9.04949 12.5814 8.46937 13.3099 8.22653C13.4449 8.18605 13.7349 8.12534 13.9508 8.09162L0.000919224 30.9524ZM0.000919224 30.9524C-0.00582635 31.5662 0.021156 31.7349 0.196541 32.234L0.000919224 30.9524ZM18.6715 18.8595L18.6715 18.8595L18.6377 20.6201L18.6372 20.6499L18.6204 20.6745L18.418 20.9713L18.4174 20.9722C17.8312 21.8117 16.6136 21.8117 16.0274 20.9722L16.0267 20.9713L15.8244 20.6745L15.8076 20.6499L15.807 20.6202L15.7665 18.6572L15.7665 18.657C15.7327 16.829 15.7183 16.6661 15.5833 16.2802C15.2135 15.2303 14.5356 14.4423 13.6031 13.9826C13.6032 13.9826 13.6032 13.9826 13.6033 13.9826L13.6472 13.8928C13.3302 13.7377 12.8917 13.5758 12.6691 13.5353C12.6437 13.5299 12.6187 13.5246 12.5944 13.5194C12.4056 13.4794 12.2561 13.4476 12.2441 13.4476L18.7604 16.8136C18.612 17.0767 18.6052 17.1577 18.5715 18.8576L18.6715 18.8595ZM18.6715 18.8595C18.6884 18.0074 18.6985 17.567 18.7225 17.306C18.7344 17.1765 18.7494 17.0963 18.7685 17.0345C18.7873 16.9739 18.8112 16.927 18.8472 16.8632M18.6715 18.8595L18.8472 16.8632M18.8472 16.8632C19.2349 16.1882 20.1327 16.0346 20.7045 16.5379L20.7046 16.5381C20.7349 16.5646 20.762 16.5876 20.7863 16.6082C20.8695 16.6788 20.9216 16.7229 20.9651 16.7945C21.0196 16.8842 21.0613 17.0229 21.0901 17.3191C21.1408 17.8408 21.1482 18.8003 21.1631 20.7175C21.1651 20.979 21.1673 21.2582 21.1697 21.5566L21.2035 26.0154L21.2037 26.0458L21.2208 26.0709L21.4232 26.3677L21.424 26.3689C21.8856 27.0252 22.784 27.2029 23.4258 26.7435L23.4259 26.7434C23.5854 26.629 23.6976 26.5313 23.795 26.3843C23.89 26.2408 23.9676 26.0551 24.0688 25.7718C24.3041 25.1168 24.8352 24.7791 25.4638 24.8723C25.737 24.9154 25.9966 25.0732 26.1885 25.2943C26.3804 25.5155 26.4987 25.7932 26.4987 26.0686C26.4987 26.5734 26.2573 27.1843 25.8698 27.7426C25.4833 28.2997 24.9608 28.7909 24.416 29.0617C22.8018 29.8589 20.9812 29.5423 19.7709 28.2532L19.7706 28.2528C19.3567 27.8158 19.0839 27.3945 18.9133 26.8906C18.742 26.385 18.6715 25.7902 18.6715 25.0028C18.6715 24.7289 18.6681 24.4782 18.6622 24.2955C18.6592 24.2043 18.6556 24.1289 18.6512 24.0755C18.6491 24.0493 18.6467 24.0259 18.6436 24.008C18.6422 23.9998 18.6399 23.988 18.6358 23.9765C18.634 23.9713 18.6297 23.9599 18.6212 23.9478C18.615 23.9391 18.5883 23.9044 18.5378 23.9044C18.5276 23.9044 18.5184 23.9061 18.5169 23.9063L18.5049 23.9086C18.5006 23.9094 18.4956 23.9105 18.4902 23.9117C18.4854 23.9128 18.4802 23.9139 18.4747 23.9152C18.451 23.9206 18.4188 23.9283 18.3808 23.9376C18.3046 23.9563 18.2031 23.9816 18.0953 24.0086L18.0945 24.0088C17.3108 24.2113 16.3835 24.1079 15.5176 23.7047C14.4671 23.2122 13.6173 22.1388 13.3741 20.9821L13.3739 20.9812C13.3025 20.6567 13.275 20.0683 13.275 18.871V18.8593C13.275 18.047 13.275 17.6306 13.2527 17.375C13.2413 17.2444 13.2239 17.1513 13.1961 17.0662C13.1688 16.9824 13.1325 16.9098 13.0893 16.8234C13.0892 16.8232 13.0892 16.823 13.0891 16.8229L12.9996 16.8676L18.8472 16.8632ZM12.2379 13.5476H12.2176L12.1945 13.5344C12.15 13.509 12.1442 13.4649 12.1432 13.4536C12.1419 13.4383 12.1441 13.4256 12.1453 13.4197C12.1479 13.4065 12.1525 13.3935 12.1562 13.3836C12.1643 13.3624 12.1767 13.3352 12.1918 13.3044C12.2222 13.2419 12.2679 13.1554 12.3237 13.0533C12.4355 12.8487 12.5906 12.5771 12.7523 12.3009C12.9141 12.0247 13.083 11.7431 13.2226 11.5185C13.2924 11.4062 13.3551 11.3077 13.4062 11.231C13.4555 11.1569 13.4983 11.0964 13.5267 11.0658L13.5267 11.0658L13.5284 11.0641C13.6663 10.9225 13.861 10.8091 14.063 10.737C14.2648 10.665 14.4839 10.6306 14.6729 10.6571L14.6729 10.6571L14.6747 10.6573C14.6987 10.6611 14.7515 10.6758 14.8196 10.6959C14.8915 10.7171 14.9892 10.7469 15.1096 10.7844C15.3505 10.8594 15.6833 10.9653 16.0835 11.0943C16.8841 11.3525 17.9552 11.7033 19.1022 12.0845C21.0239 12.7217 22.0764 13.0748 22.6779 13.2964C23.2764 13.517 23.4432 13.6121 23.5779 13.7391L23.5788 13.74C23.6137 13.7738 23.6529 13.8265 23.6999 13.8998C23.7479 13.9746 23.8074 14.0763 23.8824 14.2124C24.0323 14.4847 24.2466 14.8994 24.5574 15.521C25.1792 16.7646 26.1897 18.8412 27.849 22.2745C29.7375 26.1797 30.7364 28.2517 31.263 29.391C31.5261 29.9601 31.6726 30.2994 31.7535 30.5193C31.8348 30.7405 31.8523 30.8481 31.8523 30.9517M31.8523 30.9517C31.8523 30.9515 31.8523 30.9513 31.8523 30.9511L31.7523 30.9524H31.8523C31.8523 30.9521 31.8523 30.9519 31.8523 30.9517ZM13.9658 8.19048C13.7529 8.22377 13.4694 8.28329 13.3401 8.32189C12.6294 8.55919 11.8185 9.12744 11.4072 9.68224C11.3537 9.75562 11.1434 10.113 10.8102 10.6951C10.4787 11.2742 10.03 12.0679 9.50366 13.0046C8.45105 14.8779 7.08854 17.3226 5.73442 19.7644C4.3803 22.2062 3.03465 24.645 2.01577 26.5066C1.50631 27.4374 1.07864 28.2237 0.772486 28.7939C0.619386 29.079 0.496828 29.3098 0.409674 29.4775C0.320923 29.6482 0.273335 29.7452 0.264007 29.771C0.127146 30.1753 0.100919 30.3729 0.100925 30.9524L0.100913 30.9535C0.0975453 31.2599 0.102789 31.4485 0.129274 31.621C0.155633 31.7928 0.203632 31.9525 0.290867 32.2008C0.653746 33.23 1.31811 33.9985 2.24495 34.4652L2.24521 34.4653C2.30221 34.4942 2.35122 34.5206 2.39622 34.5449C2.54268 34.6237 2.64675 34.6797 2.84615 34.7258C3.11151 34.7872 3.54005 34.8281 4.41971 34.8542C5.9855 34.9008 8.95394 34.9005 14.9137 34.8999C15.6381 34.8998 16.4067 34.8997 17.2224 34.8997C18.037 34.8997 18.8045 34.8998 19.528 34.8999C25.4793 34.9005 28.4421 34.9008 30.0056 34.8542C30.884 34.8281 31.3124 34.7872 31.5787 34.7258C31.7787 34.6798 31.8843 34.6237 32.0324 34.5451C32.0783 34.5207 32.1284 34.4942 32.1866 34.4651L32.1873 34.4647C33.113 34.0117 33.8175 33.1901 34.167 32.1681C34.3901 31.512 34.416 30.555 34.2332 29.9351L34.2332 29.935C34.2272 29.9147 34.1926 29.8323 34.1261 29.6841C34.0615 29.5402 33.9705 29.3421 33.8567 29.0973C33.6291 28.6078 33.3109 27.9326 32.9315 27.1333C32.1729 25.5347 31.1702 23.4402 30.1605 21.342C29.1508 19.2438 28.1342 17.1421 27.3477 15.5291C26.9545 14.7226 26.6188 14.0385 26.3703 13.5382C26.1204 13.0349 25.962 12.7244 25.9204 12.6576C25.5921 12.1389 25.0184 11.6054 24.4957 11.3375L24.4951 11.3372C24.4226 11.2994 24.2309 11.2227 23.9412 11.115C23.6544 11.0085 23.2781 10.874 22.8419 10.7215C21.9697 10.4165 20.8593 10.0398 19.7491 9.67053C18.6389 9.30132 17.5293 8.93975 16.6588 8.66508C16.2234 8.52772 15.8482 8.41222 15.5627 8.32838C15.2737 8.24349 15.0851 8.19369 15.0163 8.18392C14.747 8.14642 14.6238 8.12927 14.4986 8.13006C14.3733 8.13085 14.2449 8.14963 13.966 8.19045L13.9658 8.19048Z" fill="#FCFBF7" stroke="#45734C" stroke-width="0.2"/>
<path d="M30.1598 13.19L30.1598 13.19L30.1603 13.1902C30.399 13.3126 30.6983 13.3377 30.9818 13.2751C31.2655 13.2126 31.5225 13.0647 31.6807 12.8548L31.6807 12.8548L31.6811 12.8542C32.2065 12.1662 31.8855 11.1556 31.0713 10.913C30.8819 10.8579 30.7982 10.8352 30.7236 10.8309C30.6516 10.8268 30.585 10.8397 30.4272 10.874C29.3034 11.1498 29.1241 12.6659 30.1598 13.19ZM31.7606 12.9149C32.3272 12.1729 31.9832 11.0801 31.0995 10.8171C30.7285 10.7091 30.715 10.7091 30.4047 10.7766C29.1905 11.0734 28.9949 12.7126 30.1146 13.2792C30.6408 13.549 31.4098 13.3804 31.7606 12.9149Z" fill="#FCFBF7" stroke="#45734C" stroke-width="0.2"/>
</svg>
