<svg width="30" height="33" viewBox="0 0 30 33" fill="none" xmlns="http://www.w3.org/2000/svg">
<path d="M1 8.75L6.44444 11.85M6.44444 11.85L15 16.5M6.44444 11.85L1 13.4M6.44444 11.85L5.66667 6.425M29 24.25L23.5556 21.15M23.5556 21.15L15 16.5M23.5556 21.15L24.3333 26.575M23.5556 21.15L29 19.6M15 16.5L6.44444 21.15M15 16.5V5.65M15 16.5V26.575M15 16.5L23.5556 11.85M6.44444 21.15L1 24.25M6.44444 21.15L1 19.6M6.44444 21.15L5.66667 26.575M15 5.65V1M15 5.65L11.1111 4.1M15 5.65L18.8889 4.1M15 26.575V32M15 26.575L18.8889 28.9M15 26.575L11.1111 28.9M23.5556 11.85L29 8.75M23.5556 11.85L29 13.4M23.5556 11.85L24.3333 6.425" stroke="#FCFBF7" stroke-width="2" stroke-linecap="round" stroke-linejoin="round"/>
</svg>
