<svg width="45" height="33" viewBox="0 0 45 33" fill="none" xmlns="http://www.w3.org/2000/svg">
<path fill-rule="evenodd" clip-rule="evenodd" d="M24.1097 1.46577C22.6843 2.01401 21.3247 3.32977 20.6229 4.79904C20.0089 6.1148 19.9212 8.24195 20.4256 9.62351L20.7106 10.4568L19.9212 10.3472C19.4607 10.2814 17.6844 10.0621 15.93 9.88666C14.1757 9.68929 12.6406 9.51386 12.509 9.47C12.3775 9.42614 11.6099 8.3516 10.7766 7.12356C8.07931 3.02276 7.31178 2.32102 5.51357 2.32102C4.46096 2.32102 3.1452 3.02276 2.50924 3.89993C2.11451 4.4701 2.00487 4.90868 2.00487 6.04901C1.98814 6.66998 2.00839 7.01261 2.16361 7.65152C3.19985 9.19303 3.62208 9.8802 4.65832 11.4217C6.12759 13.5927 7.553 15.5883 7.83809 15.8295C8.58369 16.4874 9.50472 16.7286 12.5968 17.0356C14.4169 17.2111 15.93 19.8246 15.93 20L18.5 19.3203C19 19.3203 15.7985 15.1278 14.1757 14.9304C12.5529 14.755 10.7986 14.5576 10.2723 14.4918L9.32929 14.3603L6.71969 10.4349C3.91273 6.22445 3.62764 5.52271 4.57061 4.86483C5.22849 4.40431 5.97409 4.42624 6.45653 4.90869C6.6539 5.10605 7.7723 6.7069 8.91263 8.41739C10.2284 10.413 11.1275 11.5752 11.4345 11.641C11.6757 11.6849 13.8467 11.948 16.259 12.1892C20.2501 12.6278 20.9519 12.7594 24.022 13.7462C25.886 14.3603 27.5965 14.9523 27.8158 15.062C29.1983 15.457 31 18 30.5 18.5C30 19 33 18.5005 33 18.5005C31.8583 15.1286 32.3351 16.3378 29.592 13.3734L30.7762 12.277C33.6709 9.62351 33.7586 5.58849 30.9736 2.84732C29.1096 1.02718 26.5658 0.522808 24.1097 1.46577ZM30.6008 6.37795C30.2719 5.08412 29.1096 3.83414 27.8596 3.46135C26.7193 3.1324 26.1272 3.1324 25.0746 3.52713C21.4562 4.79904 21.3905 9.90859 24.9649 11.4217C28.1447 12.7375 31.456 9.77701 30.6008 6.37795Z" fill="#FCFBF7" stroke="#FCFBF7" stroke-width="0.2"/>
<path d="M0.165831 17C0.880478 17.0943 1.19521 17.3317 1.69977 17.899C3.02547 19.2902 4.43617 19.6975 6.21544 19.6795C7.79685 19.5055 9.29632 18.5502 10.3755 17.2466C10.6132 17 10.6132 17 11.0071 17C11.5771 17.2446 11.8513 17.6249 12.2715 18.1208C13.4321 19.2975 14.9363 19.7439 16.4827 19.6802C18.1254 19.4333 19.4892 18.6789 20.5942 17.2919C20.8948 17 20.8948 17 21.2841 17.0306C21.8074 17.2164 22.0422 17.4644 22.4287 17.899C23.6829 19.2151 25.0199 19.6782 26.7086 19.6554C28.231 19.5302 29.563 18.8335 30.627 17.6071C31.0619 17.1304 31.2411 17.0331 31.8396 17C32.2004 17.2824 32.2004 17.2824 32.5548 17.6888C33.9057 19.1374 35.3858 19.7135 37.2492 19.6729C38.9012 19.503 40.2768 18.6094 41.3885 17.2364C41.5049 17.1194 41.5049 17.1194 41.6237 17C42.0693 17.0584 42.0693 17.0584 42.4528 17.1868C42.3521 18.2788 41.831 18.7095 41.1216 19.3993C39.3457 20.8504 37.2917 21.1735 35.1562 20.9229C33.7903 20.5365 32.7226 19.7165 31.6738 18.6813C31.5853 18.7513 31.4968 18.8214 31.4056 18.8936C29.2822 20.5366 27.4877 21.1851 24.8747 20.9229C23.7115 20.5694 22.7494 19.9692 21.8431 19.0804C21.5228 18.7994 21.5228 18.7994 20.8948 18.8681C20.5869 19.0849 20.5869 19.0849 20.2936 19.3818C18.6443 20.8535 16.6366 21.1686 14.5932 20.9229C13.1602 20.535 12.0354 19.7828 10.9449 18.6813C10.8564 18.7513 10.7679 18.8214 10.6767 18.8936C8.53299 20.5522 6.62992 21.3149 4.00457 20.8368C2.52371 20.3867 0.879655 19.3933 0 17.934C0.0103645 17.3853 0.0103645 17.3853 0.165831 17Z" fill="#FCFBF7"/>
<path d="M2.71271 23C3.42735 23.0943 3.74209 23.3317 4.24665 23.899C5.57234 25.2902 6.98304 25.6975 8.76231 25.6795C10.3437 25.5055 11.8432 24.5502 12.9223 23.2466C13.1601 23 13.1601 23 13.5539 23C14.124 23.2446 14.3981 23.6249 14.8184 24.1208C15.979 25.2975 17.4831 25.7439 19.0296 25.6802C20.6723 25.4333 22.036 24.6789 23.1411 23.2919C23.4416 23 23.4416 23 23.8309 23.0306C24.3543 23.2164 24.5891 23.4644 24.9756 23.899C26.2298 25.2151 27.5667 25.6782 29.2554 25.6554C30.7779 25.5302 32.1099 24.8335 33.1739 23.6071C33.6088 23.1304 33.788 23.0331 34.3865 23C34.7473 23.2824 34.7473 23.2824 35.1016 23.6888C36.4526 25.1374 37.9327 25.7135 39.7961 25.6729C41.4481 25.503 42.8236 24.6094 43.9354 23.2364C44.0518 23.1194 44.0518 23.1194 44.1706 23C44.6162 23.0584 44.6162 23.0584 44.9997 23.1868C44.899 24.2788 44.3778 24.7095 43.6685 25.3993C41.8926 26.8504 39.8385 27.1735 37.7031 26.9229C36.3371 26.5365 35.2695 25.7165 34.2207 24.6813C34.1322 24.7513 34.0437 24.8214 33.9525 24.8936C31.8291 26.5366 30.0346 27.1851 27.4216 26.9229C26.2583 26.5694 25.2962 25.9692 24.39 25.0804C24.0697 24.7994 24.0697 24.7994 23.4416 24.8681C23.1338 25.0849 23.1338 25.0849 22.8405 25.3818C21.1912 26.8535 19.1835 27.1686 17.14 26.9229C15.707 26.535 14.5823 25.7828 13.4917 24.6813C13.4032 24.7513 13.3147 24.8214 13.2236 24.8936C11.0799 26.5522 9.17679 27.3149 6.55144 26.8368C5.07059 26.3867 3.42653 25.3933 2.54688 23.934C2.55724 23.3853 2.55724 23.3853 2.71271 23Z" fill="#FCFBF7"/>
<path d="M0.165831 29C0.880478 29.0943 1.19521 29.3317 1.69977 29.899C3.02547 31.2902 4.43617 31.6975 6.21544 31.6795C7.79685 31.5055 9.29632 30.5502 10.3755 29.2466C10.6132 29 10.6132 29 11.0071 29C11.5771 29.2446 11.8513 29.6249 12.2715 30.1208C13.4321 31.2975 14.9363 31.7439 16.4827 31.6802C18.1254 31.4333 19.4892 30.6789 20.5942 29.2919C20.8948 29 20.8948 29 21.2841 29.0306C21.8074 29.2164 22.0422 29.4644 22.4287 29.899C23.6829 31.2151 25.0199 31.6782 26.7086 31.6554C28.231 31.5302 29.563 30.8335 30.627 29.6071C31.0619 29.1304 31.2411 29.0331 31.8396 29C32.2004 29.2824 32.2004 29.2824 32.5548 29.6888C33.9057 31.1374 35.3858 31.7135 37.2492 31.6729C38.9012 31.503 40.2768 30.6094 41.3885 29.2364C41.5049 29.1194 41.5049 29.1194 41.6237 29C42.0693 29.0584 42.0693 29.0584 42.4528 29.1868C42.3521 30.2788 41.831 30.7095 41.1216 31.3993C39.3457 32.8504 37.2917 33.1735 35.1562 32.9229C33.7903 32.5365 32.7226 31.7165 31.6738 30.6813C31.5853 30.7513 31.4968 30.8214 31.4056 30.8936C29.2822 32.5366 27.4877 33.1851 24.8747 32.9229C23.7115 32.5694 22.7494 31.9692 21.8431 31.0804C21.5228 30.7994 21.5228 30.7994 20.8948 30.8681C20.5869 31.0849 20.5869 31.0849 20.2936 31.3818C18.6443 32.8535 16.6366 33.1686 14.5932 32.9229C13.1602 32.535 12.0354 31.7828 10.9449 30.6813C10.8564 30.7513 10.7679 30.8214 10.6767 30.8936C8.53299 32.5522 6.62992 33.3149 4.00457 32.8368C2.52371 32.3867 0.879655 31.3933 0 29.934C0.0103645 29.3853 0.0103645 29.3853 0.165831 29Z" fill="#FCFBF7"/>
</svg>
