<svg width="33" height="30" viewBox="0 0 33 30" fill="none" xmlns="http://www.w3.org/2000/svg">
<path d="M20.9602 14.4386C21.0163 14.4782 21.0724 14.5178 21.1303 14.5586C21.502 14.8225 21.8593 15.0972 22.2099 15.3828C22.3059 15.4601 22.4023 15.5371 22.5012 15.6117C22.8904 15.9052 23.2534 16.221 23.6152 16.5403C23.7217 16.634 23.8286 16.7274 23.9356 16.8206C24.3618 17.1946 24.7542 17.5808 25.126 17.9983C25.1895 18.0675 25.2532 18.1366 25.3169 18.2056C26.6881 19.7138 27.9007 21.5282 27.99 23.5102C27.9926 23.5571 27.9952 23.6041 27.9978 23.6526C28.0318 24.8453 27.6651 25.9223 27.0136 26.955C26.9797 27.0103 26.9458 27.0656 26.9109 27.1226C26.0292 28.4522 24.4587 29.3806 22.8011 29.7924C21.0004 30.1968 19.1664 29.9524 17.5386 29.2018C16.9183 28.9161 16.4887 28.8435 15.818 29.022C15.6359 29.0942 15.4656 29.1809 15.2932 29.2696C13.7747 30.0132 11.8248 30.1977 10.1505 29.7832C8.99569 29.4664 8.05127 28.9915 7.16094 28.2756C7.096 28.2254 7.096 28.2254 7.02974 28.1742C5.74235 27.1235 5.09359 25.532 5.00227 24.0226C4.96265 22.655 5.44487 21.3677 6.18458 20.1801C6.20546 20.1457 6.22635 20.1114 6.24786 20.0759C7.12009 18.6423 8.37441 17.4438 9.66494 16.2963C9.73293 16.2359 9.80083 16.1753 9.86863 16.1147C10.2621 15.7634 10.6618 15.4337 11.1018 15.1269C11.2662 15.0095 11.4206 14.8856 11.5749 14.758C12.6666 13.8875 14.0218 13.2427 15.4925 13.0606C15.5486 13.0536 15.6046 13.0466 15.6624 13.0393C17.5885 12.8493 19.4676 13.3532 20.9602 14.4386ZM11.9143 16.918C11.7678 17.0398 11.6174 17.1567 11.4651 17.2728C11.1929 17.4818 10.9349 17.7014 10.6799 17.9266C10.6344 17.9668 10.5888 18.007 10.5419 18.0484C10.2434 18.3148 9.96596 18.5862 9.7038 18.8811C9.55699 19.0456 9.4027 19.2032 9.24791 19.3619C8.88362 19.7479 8.56822 20.1558 8.26748 20.582C8.2417 20.6184 8.21592 20.6548 8.18936 20.6923C7.36879 21.8686 6.8369 23.2336 7.10526 24.6253C7.45307 25.9085 8.27644 26.9264 9.54895 27.6261C10.6619 28.1818 12.0308 28.3412 13.2754 28.0746C13.6686 27.9666 14.0271 27.8126 14.3907 27.6446C15.4167 27.1714 16.4395 26.9967 17.5754 27.2421C18.004 27.3708 18.3998 27.5487 18.8 27.7337C19.9338 28.241 21.2748 28.3473 22.4946 28.0074C23.126 27.7914 23.7081 27.5299 24.2147 27.1273C24.2729 27.0813 24.3312 27.0352 24.3911 26.9878C25.3658 26.1752 25.8874 25.12 25.9693 23.9448C25.9975 21.881 24.4902 20.0312 22.978 18.5725C22.9108 18.5069 22.8437 18.4414 22.7766 18.3758C22.2426 17.8573 21.6955 17.3466 21.0906 16.8917C20.9437 16.7801 20.8018 16.6644 20.6591 16.5486C19.8072 15.8722 18.9338 15.2794 17.8358 14.9553C17.792 14.9418 17.7482 14.9282 17.7031 14.9143C15.4001 14.3013 13.4839 15.6099 11.9143 16.918Z" fill="#FCFBF7"/>
<path d="M21.493 0C22.1748 0 22.8565 0 23.5589 0C23.5589 0.805481 23.5589 1.61096 23.5589 2.44085C23.6909 2.4605 23.8228 2.48014 23.9588 2.50039C25.1908 2.95494 26.0129 3.84486 26.539 4.92077C27.1684 6.38795 27.1594 8.0426 26.4745 9.49179C25.9524 10.5213 25.0298 11.4074 23.8338 11.8099C22.8933 12.0983 21.7898 12.0546 20.8803 11.7059C19.635 11.1576 18.8281 10.1762 18.344 9.02971C17.8363 7.64237 17.8759 6.09506 18.5608 4.76264C18.6101 4.66629 18.6101 4.66629 18.6603 4.568C18.9449 4.05529 19.3099 3.67267 19.7604 3.27431C19.8261 3.21365 19.8261 3.21365 19.8931 3.15176C20.3114 2.79172 20.8782 2.54457 21.4264 2.38132C21.4484 1.59548 21.4704 0.809649 21.493 0ZM20.9638 4.82636C20.3146 5.52533 20.0444 6.41834 20.0743 7.32023C20.1733 8.2497 20.5395 9.08101 21.302 9.73341C21.7558 10.0599 22.2525 10.1708 22.8259 10.1206C23.4705 9.98278 23.956 9.62136 24.3086 9.12715C24.9016 8.17389 25.0759 7.13566 24.7876 6.07237C24.5299 5.32834 24.0757 4.66935 23.2965 4.2901C22.3888 3.92486 21.6219 4.19943 20.9638 4.82636Z" fill="#FCFBF7"/>
<path d="M9.45073 0C10.1328 0 10.815 0 11.5177 0C11.5507 1.17986 11.5507 1.17986 11.5844 2.38355C11.8925 2.50154 12.2005 2.61952 12.5179 2.74108C12.7397 2.87672 12.9228 2.9987 13.118 3.15821C13.1728 3.20168 13.2275 3.24516 13.2839 3.28995C14.3767 4.20583 14.9434 5.53436 14.9985 6.85993C15.0294 8.37644 14.5803 9.77031 13.3986 10.8981C12.6611 11.5724 11.7177 11.9819 10.6585 12C10.0569 11.9988 9.54686 11.9484 8.98399 11.739C8.89838 11.7087 8.89838 11.7087 8.81105 11.6778C7.62113 11.205 6.86345 10.2232 6.38357 9.17668C5.80199 7.73726 5.89213 6.09792 6.5836 4.70752C7.12049 3.69337 7.94246 2.94565 9.09312 2.49319C9.2507 2.44314 9.2507 2.44314 9.45073 2.44314C9.45073 1.6369 9.45073 0.830668 9.45073 0ZM9.05484 4.72986C8.30303 5.42105 8.08508 6.35363 8.09373 7.28345C8.12007 8.19515 8.44857 8.97838 9.15902 9.64547C9.61179 10.0088 10.0727 10.1543 10.6741 10.1464C11.2698 10.0915 11.7085 9.7492 12.0949 9.36475C12.7306 8.65749 13.0204 7.69318 12.918 6.79312C12.7584 5.84012 12.4048 5.00021 11.5177 4.40957C10.6469 3.90069 9.78597 4.14392 9.05484 4.72986Z" fill="#FCFBF7"/>
<path d="M1.80688 9C1.93056 9.20443 2.05366 9.40918 2.17664 9.61399C2.21192 9.67227 2.24719 9.73056 2.28353 9.79061C2.31689 9.8463 2.35026 9.90199 2.38464 9.95936C2.41562 10.0108 2.4466 10.0623 2.47852 10.1153C2.54641 10.2428 2.54641 10.2428 2.54641 10.3611C2.60742 10.3416 2.66843 10.3221 2.73129 10.302C3.67408 10.2342 4.49536 10.4621 5.24551 11.0225C5.3996 11.1523 5.54565 11.2861 5.68942 11.4264C5.72858 11.4641 5.76775 11.5017 5.8081 11.5406C6.64515 12.3996 7.01913 13.5995 6.99925 14.7587C6.95832 15.3301 6.84475 15.8944 6.55221 16.3975C6.52178 16.4504 6.49135 16.5032 6.46001 16.5577C6.01427 17.2803 5.41993 17.702 4.58012 17.9251C3.69498 18.1164 2.82548 17.9327 2.05796 17.4731C0.990146 16.7512 0.337679 15.7586 0.0581916 14.537C-0.100861 13.4742 0.0579478 12.4743 0.635951 11.5447C0.672733 11.5054 0.709514 11.466 0.74741 11.4255C0.837874 11.3114 0.837874 11.3114 0.790502 11.1793C0.630005 10.8906 0.463369 10.6056 0.294351 10.3215C0.267102 10.2751 0.239854 10.2288 0.211779 10.1811C0.174228 10.1179 0.174228 10.1179 0.135918 10.0534C0.0813019 9.94688 0.0813019 9.94688 0.0813019 9.82852C0.297051 9.71004 0.513086 9.59206 0.729401 9.47454C0.802945 9.43449 0.87641 9.3943 0.949792 9.35398C1.05529 9.29604 1.1611 9.23863 1.26691 9.18124C1.33049 9.14653 1.39407 9.11182 1.45957 9.07606C1.62199 9 1.62199 9 1.80688 9ZM2.21516 12.6248C1.8996 13.1304 1.85629 13.6575 1.97033 14.2333C2.17847 15.0173 2.57023 15.5987 3.28209 16.035C3.63111 16.1581 3.93841 16.2201 4.28739 16.0683C4.61217 15.8873 4.84166 15.6208 4.97637 15.2826C5.1763 14.5553 5.04607 13.8175 4.67208 13.1629C4.3335 12.6523 3.94296 12.3461 3.34757 12.1365C2.86416 12.0592 2.49251 12.2496 2.21516 12.6248Z" fill="#FCFBF7"/>
<path d="M31.2487 9C31.5022 9.03559 31.6853 9.11397 31.9067 9.23589C31.9706 9.27081 32.0345 9.30572 32.1003 9.34168C32.1993 9.3966 32.1993 9.3966 32.3003 9.45262C32.3675 9.48946 32.4347 9.5263 32.5039 9.56425C32.6695 9.6551 32.8349 9.74633 33 9.83791C32.9286 10.0584 32.8527 10.2512 32.7237 10.4462C32.6956 10.4899 32.6675 10.5336 32.6385 10.5786C32.5794 10.669 32.5199 10.7592 32.4602 10.8493C32.4323 10.8928 32.4045 10.9363 32.3758 10.9811C32.35 11.0202 32.3243 11.0593 32.2978 11.0996C32.2364 11.2455 32.2551 11.3082 32.312 11.4539C32.3692 11.5596 32.4266 11.6651 32.486 11.7698C33.0668 12.8036 33.1239 13.8534 32.8124 14.985C32.5535 15.7693 32.1626 16.3753 31.5615 16.9601C31.4947 17.0251 31.4947 17.0251 31.4266 17.0915C30.797 17.6656 29.9904 17.9677 29.1222 18C28.4682 17.9756 27.899 17.8082 27.3709 17.4389C27.3227 17.4058 27.2745 17.3727 27.2248 17.3386C26.4834 16.7732 26.1354 15.8913 26.022 15.0149C25.8994 13.8063 26.2953 12.6099 27.0699 11.6559C27.581 11.0836 28.1389 10.708 28.872 10.4364C28.9141 10.4204 28.9562 10.4045 28.9996 10.388C29.3818 10.2712 30.1301 10.2004 30.4982 10.3766C30.5122 10.3387 30.5263 10.3008 30.5407 10.2618C30.6561 10.0041 30.8001 9.76399 30.9438 9.51995C30.9877 9.4449 30.9877 9.4449 31.0325 9.36834C31.1044 9.24547 31.1765 9.12269 31.2487 9ZM28.4968 12.9501C28.0518 13.6617 27.859 14.4024 28.035 15.2254C28.1691 15.5955 28.3951 15.8602 28.7469 16.0623C29.0554 16.1727 29.3255 16.1304 29.6223 16.0065C30.2918 15.6655 30.6889 15.1487 30.9397 14.4707C31.0989 13.9195 31.1371 13.3421 30.8688 12.8192C30.6827 12.5136 30.4832 12.287 30.1229 12.1721C29.4464 12.1039 28.9007 12.4458 28.4968 12.9501Z" fill="#FCFBF7"/>
<path d="M16 16C16.66 16 17.32 16 18 16C18 17.98 18 19.96 18 22C17.34 22 16.68 22 16 22C16 20.02 16 18.04 16 16Z" fill="#FCFBF7"/>
<path d="M16 23C16.66 23 17.32 23 18 23C18 23.66 18 24.32 18 25C17.34 25 16.68 25 16 25C16 24.34 16 23.68 16 23Z" fill="#FCFBF7"/>
</svg>
