<svg width="34" height="34" viewBox="0 0 34 34" fill="none" xmlns="http://www.w3.org/2000/svg">
<path fill-rule="evenodd" clip-rule="evenodd" d="M11.9803 2.24674C12.7477 1.22924 13.7754 0.550907 15.1282 0.18565C17.3656 -0.414413 19.8371 0.472637 21.2159 2.37719L21.5801 2.88593L22.985 2.89898C24.3118 2.92507 24.4419 2.95116 25.3784 3.39468C26.6532 4.00779 27.5377 4.89484 28.1881 6.21237C28.6694 7.19073 28.6824 7.25595 28.6824 8.65175C28.6824 10.0215 28.6564 10.1519 28.2532 10.9998C27.7068 12.1739 27.1215 12.8783 26.1979 13.4914C25.2093 14.1436 24.1427 14.4697 22.9459 14.4697C21.9704 14.4697 20.6696 14.1306 20.1102 13.7392C19.694 13.4523 19.6419 13.5044 19.6419 14.2741C19.6419 14.9394 19.668 14.9915 20.0712 15.2003C20.5915 15.4742 21.1769 16.009 21.398 16.4265C21.4891 16.6091 21.6321 17.1439 21.7102 17.6136C22.4907 22.1923 25.7817 25.584 30.3605 26.5362C31.6092 26.7841 31.9474 26.9667 32.5588 27.632C33.1832 28.3234 33.3002 28.8321 33.3002 30.9454C33.3002 32.6803 33.2872 32.7586 32.975 33.0586L32.6629 33.3848H16.6501H0.637387L0.325198 33.0586C0.0130079 32.7586 0 32.6803 0 30.9454C0 28.8321 0.117071 28.3234 0.741451 27.632C1.35282 26.9667 1.69103 26.7841 2.93979 26.5362C7.51857 25.584 10.8096 22.1923 11.59 17.6136C11.6681 17.1439 11.8112 16.5961 11.9152 16.4134C12.1234 16.009 12.8908 15.3046 13.2551 15.1872C13.4892 15.122 13.5282 14.9915 13.5282 14.3263C13.5282 13.5044 13.4762 13.4523 13.0599 13.7392C12.5006 14.1306 11.1998 14.4697 10.2242 14.4697C7.88279 14.4697 5.95762 13.2435 4.90398 11.0911C4.51374 10.2693 4.48773 10.1519 4.48773 8.73002C4.48773 7.47771 4.53976 7.11246 4.7739 6.5124C5.37226 5.06442 6.63403 3.79907 8.0649 3.2251C8.61123 3.00334 9.09253 2.92507 10.1332 2.91202L11.486 2.88593L11.9803 2.24674ZM20.0582 4.22955C19.4858 3.21205 19.0826 2.79462 18.2501 2.39023C17.4176 1.9728 16.1818 1.86843 15.4014 2.12933C14.6339 2.37718 13.7624 3.04247 13.3851 3.65558C12.837 4.57739 12.6715 4.87418 12.4316 4.95825C12.3014 5.00386 12.1493 4.98687 11.9022 4.97311C9.82097 4.8557 9.04049 4.89484 8.58522 5.12965C7.11532 5.91234 6.37387 7.11246 6.37387 8.6648C6.37387 9.44749 6.43891 9.73447 6.77712 10.3998C7.19337 11.2477 7.63564 11.6912 8.50717 12.1608C8.93643 12.3956 9.26163 12.4478 10.2112 12.4478C11.8372 12.4478 12.2144 12.226 13.7494 10.3737C14.1396 9.90406 14.842 9.90406 15.2062 10.3737C15.4534 10.6998 15.4794 10.8955 15.4794 12.8522V14.9915H16.5851H17.6908V12.7348C17.6908 10.6346 17.7038 10.4519 17.9509 10.191C18.3672 9.74752 19.0306 9.7997 19.4078 10.3084C20.7736 12.1217 21.32 12.4478 22.959 12.4478C24.3638 12.4478 24.8971 12.213 25.7947 11.2085C27.2125 9.63011 27.1475 7.50381 25.6386 5.97756C24.5459 4.89484 23.2191 4.55567 21.7232 4.98615C20.8387 5.24705 20.5655 5.1166 20.0582 4.22955ZM20.1623 19.779C19.9819 19.4218 19.6159 17.2744 19.4988 17.1309C19.3818 16.9874 18.8354 16.9483 16.6501 16.9483C14.4648 16.9483 13.9185 16.9874 13.8014 17.1309C13.6843 17.2744 13.259 19.4218 13.138 19.779L12.2925 21.7749L11.7201 22.7141C11.0177 23.849 9.46976 25.5057 8.37709 26.2884C7.18036 27.1493 5.29422 27.9842 3.75928 28.3495C2.02923 28.7669 1.95119 28.8582 1.95119 30.3323V31.428H16.6501H31.3491V30.3323C31.3491 28.8582 31.271 28.7669 29.541 28.3495C28.006 27.9842 26.1199 27.1493 24.9231 26.2884C23.8305 25.5057 22.2825 23.849 21.5801 22.7141L21.0078 21.7749L20.1623 19.779Z" fill="#FCFBF7"/>
</svg>
