<svg width="81" height="80" viewBox="0 0 81 80" fill="none" xmlns="http://www.w3.org/2000/svg">
<path d="M20.4323 59.0006C9.57069 48.1391 9.57069 30.5289 20.4323 19.6673V19.6673C31.2939 8.80572 48.904 8.80572 59.7656 19.6673L60.4323 20.334C71.6621 31.5638 71.6621 49.7709 60.4323 61.0007L41.4323 80.0007L20.4323 59.0006Z" fill="#C70039"/>
<g clip-path="url(#clip0_2863_1031)">
<path fill-rule="evenodd" clip-rule="evenodd" d="M25.2445 28.3319C25.3523 28.2767 28.8995 27.1182 33.1256 25.7634C37.3517 24.4087 40.8861 23.2991 40.994 23.293C41.1907 23.2868 56.3754 28.1235 56.7752 28.3197C56.9274 28.3932 57.0608 28.5281 57.1433 28.6813C57.2638 28.9081 57.2701 29.0369 57.2701 30.9495C57.2701 32.862 57.2638 32.9908 57.1433 33.2176C56.9465 33.5916 56.6483 33.7081 55.9059 33.7081H55.303V35.1793C55.303 36.5401 55.2903 36.675 55.1761 36.8956C55.0238 37.1838 54.6622 37.3861 54.2877 37.3861H54.0339V41.4319V45.4778H54.605C55.3158 45.4778 55.6139 45.6005 55.8107 45.9682C55.9249 46.1889 55.9376 46.3238 55.9376 47.6846V49.1558H56.2232C56.6292 49.1558 56.9846 49.3459 57.1433 49.6463C57.2638 49.873 57.2701 50.0018 57.2701 51.9144C57.2701 53.827 57.2638 53.9557 57.1433 54.1826C57.0608 54.3419 56.9274 54.4706 56.7625 54.5504C56.515 54.673 56.4262 54.673 41.0257 54.673C25.6252 54.673 25.5364 54.673 25.2889 54.5504C25.1239 54.4706 24.9907 54.3419 24.9082 54.1826C24.7876 53.9557 24.7812 53.827 24.7812 51.9144C24.7812 50.0018 24.7876 49.873 24.9082 49.6463C25.0668 49.3459 25.4221 49.1558 25.8283 49.1558H26.1138V47.6846C26.1138 46.3238 26.1265 46.1889 26.2407 45.9682C26.4374 45.6005 26.7357 45.4778 27.4464 45.4778H28.0174V41.4319V37.3861H27.7636C27.3892 37.3861 27.0276 37.1838 26.8753 36.8956C26.761 36.675 26.7483 36.5401 26.7483 35.1793V33.7081H26.1455C25.4031 33.7081 25.1049 33.5916 24.9082 33.2176C24.7876 32.9908 24.7812 32.862 24.7812 30.9495C24.7812 29.0369 24.7876 28.9081 24.9082 28.6813C24.978 28.5465 25.1303 28.3932 25.2445 28.3319ZM33.0938 35.547V34.6275V33.7081H30.8729H28.652V34.6275V35.547H30.8729H33.0938ZM37.0281 36.8956C36.9138 36.675 36.9011 36.5401 36.9011 35.1793V33.7081H35.9493H34.9975V35.1793C34.9975 36.5401 34.9847 36.675 34.8706 36.8956C34.7183 37.1838 34.3566 37.3861 33.9822 37.3861H33.7284V41.4319V45.4778H35.9493H38.1702V41.4319V37.3861H37.9164C37.5421 37.3861 37.1803 37.1838 37.0281 36.8956ZM43.2466 35.547V34.6275V33.7081H41.0257H38.8047V34.6275V35.547H41.0257H43.2466ZM47.1808 36.8956C47.0666 36.675 47.0539 36.5401 47.0539 35.1793V33.7081H46.1021H45.1503V35.1793C45.1503 36.5401 45.1375 36.675 45.0234 36.8956C44.871 37.1838 44.5094 37.3861 44.135 37.3861H43.8811V41.4319V45.4778H46.1021H48.323V41.4319V37.3861H48.0692C47.6948 37.3861 47.3331 37.1838 47.1808 36.8956ZM53.3994 35.547V34.6275V33.7081H51.1785H48.9575V34.6275V35.547H51.1785H53.3994ZM31.8247 45.4778V41.4319V37.3861H30.8729H29.9211V41.4319V45.4778H30.8729H31.8247ZM41.9775 45.4778V41.4319V37.3861H41.0257H40.0739V41.4319V45.4778H41.0257H41.9775ZM52.1303 45.4778V41.4319V37.3861H51.1785H50.2266V41.4319V45.4778H51.1785H52.1303ZM50.3853 28.1787L45.7213 26.6829C43.1578 25.8615 41.0321 25.1933 40.994 25.1933C40.9622 25.1933 38.8619 25.8676 36.33 26.6891L31.7296 28.1787L26.6849 30.03V30.9495V31.869H41.0257H55.3665V30.9495V30.03L50.3853 28.1787ZM54.0339 48.2364V49.1558V50.9949H55.3665V51.9144V52.834H41.0257H26.6849V51.9144V50.9949H28.0174V49.1558V48.2364V47.3168H41.0257H54.0339V48.2364Z" fill="#FCFBF7"/>
<mask id="mask0_2863_1031" style="mask-type:luminance" maskUnits="userSpaceOnUse" x="24" y="23" width="34" height="32">
<path fill-rule="evenodd" clip-rule="evenodd" d="M25.2367 28.328C25.3445 28.2728 28.8917 27.1143 33.1177 25.7595C37.3439 24.4047 40.8783 23.2952 40.9862 23.2891C41.1829 23.2829 56.3676 28.1196 56.7674 28.3158C56.9196 28.3893 57.053 28.5242 57.1355 28.6774C57.256 28.9042 57.2623 29.033 57.2623 30.9456C57.2623 32.8581 57.256 32.9869 57.1355 33.2137C56.9387 33.5877 56.6405 33.7041 55.898 33.7041H55.2952V35.1753C55.2952 36.5362 55.2825 36.6711 55.1683 36.8917C55.016 37.1799 54.6543 37.3822 54.2799 37.3822H54.0261V41.428V45.4739H54.5972C55.308 45.4739 55.6061 45.5966 55.8029 45.9643C55.9171 46.185 55.9298 46.3199 55.9298 47.6807V49.1519H56.2154C56.6214 49.1519 56.9767 49.342 57.1355 49.6424C57.256 49.8691 57.2623 49.9979 57.2623 51.9105C57.2623 53.8231 57.256 53.9518 57.1355 54.1787C57.053 54.338 56.9196 54.4667 56.7547 54.5465C56.5072 54.6691 56.4184 54.6691 41.0179 54.6691C25.6174 54.6691 25.5286 54.6691 25.2811 54.5465C25.1161 54.4667 24.9828 54.338 24.9003 54.1787C24.7798 53.9518 24.7734 53.8231 24.7734 51.9105C24.7734 49.9979 24.7798 49.8691 24.9003 49.6424C25.059 49.342 25.4143 49.1519 25.8204 49.1519H26.106V47.6807C26.106 46.3199 26.1187 46.185 26.2329 45.9643C26.4296 45.5966 26.7278 45.4739 27.4385 45.4739H28.0096V41.428V37.3822H27.7558C27.3814 37.3822 27.0197 37.1799 26.8675 36.8917C26.7532 36.6711 26.7405 36.5362 26.7405 35.1753V33.7041H26.1377C25.3953 33.7041 25.0971 33.5877 24.9003 33.2137C24.7798 32.9869 24.7734 32.8581 24.7734 30.9456C24.7734 29.033 24.7798 28.9042 24.9003 28.6774C24.9701 28.5426 25.1224 28.3893 25.2367 28.328ZM33.086 35.5431V34.6236V33.7041H30.8651H28.6442V34.6236V35.5431H30.8651H33.086ZM37.0203 36.8917C36.906 36.6711 36.8933 36.5362 36.8933 35.1753V33.7041H35.9415H34.9897V35.1753C34.9897 36.5362 34.9769 36.6711 34.8628 36.8917C34.7105 37.1799 34.3488 37.3822 33.9744 37.3822H33.7206V41.428V45.4739H35.9415H38.1624V41.428V37.3822H37.9086C37.5342 37.3822 37.1725 37.1799 37.0203 36.8917ZM43.2388 35.5431V34.6236V33.7041H41.0179H38.7969V34.6236V35.5431H41.0179H43.2388ZM47.173 36.8917C47.0588 36.6711 47.0461 36.5362 47.0461 35.1753V33.7041H46.0943H45.1425V35.1753C45.1425 36.5362 45.1297 36.6711 45.0155 36.8917C44.8632 37.1799 44.5016 37.3822 44.1272 37.3822H43.8733V41.428V45.4739H46.0943H48.3152V41.428V37.3822H48.0614C47.687 37.3822 47.3253 37.1799 47.173 36.8917ZM53.3916 35.5431V34.6236V33.7041H51.1706H48.9497V34.6236V35.5431H51.1706H53.3916ZM31.8169 45.4739V41.428V37.3822H30.8651H29.9133V41.428V45.4739H30.8651H31.8169ZM41.9697 45.4739V41.428V37.3822H41.0179H40.0661V41.428V45.4739H41.0179H41.9697ZM52.1225 45.4739V41.428V37.3822H51.1706H50.2188V41.428V45.4739H51.1706H52.1225ZM50.3775 28.1748L45.7135 26.679C43.15 25.8576 41.0242 25.1894 40.9862 25.1894C40.9544 25.1894 38.8541 25.8637 36.3222 26.6851L31.7217 28.1748L26.6771 30.0261V30.9456V31.8651H41.0179H55.3587V30.9456V30.0261L50.3775 28.1748ZM54.0261 48.2325V49.1519V50.991H55.3587V51.9105V52.8301H41.0179H26.6771V51.9105V50.991H28.0096V49.1519V48.2325V47.3129H41.0179H54.0261V48.2325Z" fill="white"/>
</mask>
<g mask="url(#mask0_2863_1031)">
<path d="M26.6755 50.9316H54.0246V51.0551H26.6755V50.9316ZM28.0081 50.9316H54.0246V51.0551H28.0081V50.9316ZM25.2351 28.3304L25.1767 28.2216L25.1789 28.2205L25.2351 28.3304ZM24.8988 28.6798L25.0085 28.7365L25.0078 28.7377L24.8988 28.6798ZM26.739 33.7065V33.583H26.8625V33.7065H26.739ZM26.8659 36.8941L26.7568 36.9518L26.7563 36.9509L26.8659 36.8941ZM28.0081 37.3846V37.261H28.1315V37.3846H28.0081ZM28.0081 45.4762H28.1315V45.5997H28.0081V45.4762ZM26.2314 45.9667L26.1217 45.9099L26.1225 45.9084L26.2314 45.9667ZM26.1044 49.1543H26.2279V49.2778H26.1044V49.1543ZM24.8988 54.181L25.0078 54.1231L25.0084 54.1243L24.8988 54.181ZM25.2795 54.5488L25.3332 54.4376L25.3343 54.4382L25.2795 54.5488ZM56.7532 54.5488L56.6983 54.4382L56.6995 54.4376L56.7532 54.5488ZM57.1339 54.181L57.0242 54.1243L57.0248 54.1231L57.1339 54.181ZM55.9283 49.1543V49.2778H55.8047V49.1543H55.9283ZM55.8013 45.9667L55.9102 45.9084L55.9109 45.9099L55.8013 45.9667ZM54.0246 45.4762V45.5997H53.9011V45.4762H54.0246ZM54.0246 37.3846H53.9011V37.261H54.0246V37.3846ZM55.1668 36.8941L55.2764 36.9509L55.2759 36.9518L55.1668 36.8941ZM55.2936 33.7065H55.1702V33.583H55.2936V33.7065ZM40.9846 23.2914L40.9776 23.1681L40.9808 23.168L40.9846 23.2914ZM50.3759 28.1771L50.4136 28.0594L50.4189 28.0614L50.3759 28.1771ZM31.7202 28.1771L31.6776 28.0611L31.6822 28.0597L31.7202 28.1771ZM55.3571 31.8674H55.4806V31.9909H55.3571V31.8674ZM26.6755 31.8674V31.9909H26.5521V31.8674H26.6755ZM26.6755 30.0284H26.5521V29.9422L26.633 29.9125L26.6755 30.0284ZM55.3571 30.0284L55.4001 29.9127L55.4806 29.9426V30.0284H55.3571ZM33.0845 35.5455H33.2079V35.669H33.0845V35.5455ZM28.6426 35.5455V35.669H28.5192V35.5455H28.6426ZM28.6426 33.7065H28.5192V33.583H28.6426V33.7065ZM33.0845 33.7065V33.583H33.2079V33.7065H33.0845ZM37.0187 36.8941L36.9096 36.9518L36.909 36.9509L37.0187 36.8941ZM38.1609 37.3846V37.261H38.2843V37.3846H38.1609ZM38.1609 45.4762H38.2843V45.5997H38.1609V45.4762ZM33.719 45.4762V45.5997H33.5956V45.4762H33.719ZM33.719 37.3846H33.5956V37.261H33.719V37.3846ZM34.8612 36.8941L34.9709 36.9509L34.9704 36.9518L34.8612 36.8941ZM34.9882 33.7065H34.8646V33.583H34.9882V33.7065ZM36.8918 33.7065V33.583H37.0152V33.7065H36.8918ZM43.2372 35.5455H43.3607V35.669H43.2372V35.5455ZM38.7954 35.5455V35.669H38.672V35.5455H38.7954ZM38.7954 33.7065H38.672V33.583H38.7954V33.7065ZM43.2372 33.7065V33.583H43.3607V33.7065H43.2372ZM47.1714 36.8941L47.0623 36.9518L47.0618 36.9509L47.1714 36.8941ZM48.3136 37.3846V37.261H48.4371V37.3846H48.3136ZM48.3136 45.4762H48.4371V45.5997H48.3136V45.4762ZM43.8718 45.4762V45.5997H43.7484V45.4762H43.8718ZM43.8718 37.3846H43.7484V37.261H43.8718V37.3846ZM45.014 36.8941L45.1236 36.9509L45.1232 36.9518L45.014 36.8941ZM45.1409 33.7065H45.0174V33.583H45.1409V33.7065ZM47.0446 33.7065V33.583H47.168V33.7065H47.0446ZM53.39 35.5455H53.5134V35.669H53.39V35.5455ZM48.9482 35.5455V35.669H48.8247V35.5455H48.9482ZM48.9482 33.7065H48.8247V33.583H48.9482V33.7065ZM53.39 33.7065V33.583H53.5134V33.7065H53.39ZM31.8154 45.4762H31.9388V45.5997H31.8154V45.4762ZM29.9117 45.4762V45.5997H29.7883V45.4762H29.9117ZM29.9117 37.3846H29.7883V37.261H29.9117V37.3846ZM31.8154 37.3846V37.261H31.9388V37.3846H31.8154ZM41.9682 45.4762H42.0916V45.5997H41.9682V45.4762ZM40.0646 45.4762V45.5997H39.941V45.4762H40.0646ZM40.0646 37.3846H39.941V37.261H40.0646V37.3846ZM41.9682 37.3846V37.261H42.0916V37.3846H41.9682ZM52.1209 45.4762H52.2444V45.5997H52.1209V45.4762ZM50.2172 45.4762V45.5997H50.0938V45.4762H50.2172ZM50.2172 37.3846H50.0938V37.261H50.2172V37.3846ZM52.1209 37.3846V37.261H52.2444V37.3846H52.1209ZM28.0081 47.3153H27.8846V47.1919H28.0081V47.3153ZM54.0246 47.3153V47.1919H54.1481V47.3153H54.0246ZM55.3571 52.8324H55.4806V52.9559H55.3571V52.8324ZM26.6755 52.8324V52.9559H26.5521V52.8324H26.6755ZM26.6755 50.9934H26.5521V50.8699H26.6755V50.9934ZM55.3571 50.9934V50.8699H55.4806V50.9934H55.3571ZM28.0081 50.9934H28.1315V51.1168H28.0081V50.9934ZM54.0246 50.9934V51.1168H53.9011V50.9934H54.0246ZM33.1539 25.8794C31.041 26.5567 29.0979 27.185 27.6696 27.6508C26.9554 27.8837 26.3701 28.076 25.9567 28.2134C25.7499 28.2822 25.5864 28.3371 25.4714 28.3765C25.4138 28.3963 25.3688 28.4119 25.3368 28.4235C25.3002 28.4366 25.2893 28.4413 25.2913 28.4403L25.1789 28.2205C25.1944 28.2125 25.2238 28.2017 25.2532 28.1911C25.287 28.179 25.3334 28.1628 25.3914 28.1429C25.5075 28.1032 25.6718 28.0479 25.8788 27.9791C26.2929 27.8415 26.8787 27.6491 27.593 27.4161C29.0218 26.9501 30.9653 26.3217 33.0785 25.6443L33.1539 25.8794ZM25.2935 28.4392C25.2512 28.4618 25.1946 28.5062 25.1388 28.5635C25.0834 28.6205 25.0362 28.6829 25.0085 28.7365L24.7892 28.623C24.8312 28.5418 24.895 28.4601 24.9618 28.3914C25.0282 28.3231 25.1048 28.2602 25.1767 28.2216L25.2935 28.4392ZM25.0078 28.7377C24.9806 28.7889 24.9625 28.8293 24.9482 28.8895C24.9332 28.9527 24.9216 29.0413 24.9134 29.1885C24.897 29.4838 24.8954 29.9897 24.8954 30.9479H24.6484C24.6484 29.9936 24.65 29.4788 24.6669 29.1748C24.6753 29.0225 24.6879 28.9168 24.708 28.8324C24.7288 28.7449 24.7567 28.6841 24.7898 28.6218L25.0078 28.7377ZM24.8954 30.9479C24.8954 31.9062 24.897 32.4121 24.9134 32.7073C24.9216 32.8546 24.9332 32.9432 24.9482 33.0064C24.9625 33.0666 24.9806 33.107 25.0078 33.1581L24.7898 33.274C24.7567 33.2118 24.7288 33.1509 24.708 33.0634C24.6879 32.979 24.6753 32.8734 24.6669 32.721C24.65 32.4171 24.6484 31.9023 24.6484 30.9479H24.8954ZM25.0078 33.1581C25.0946 33.3231 25.1978 33.4233 25.3582 33.4867C25.5273 33.5535 25.7677 33.583 26.1362 33.583V33.8299C25.7622 33.8299 25.4823 33.8012 25.2675 33.7163C25.044 33.628 24.8997 33.483 24.7898 33.274L25.0078 33.1581ZM26.1362 33.583H26.739V33.8299H26.1362V33.583ZM26.8625 33.7065V35.1777H26.6155V33.7065H26.8625ZM26.8625 35.1777C26.8625 35.86 26.8657 36.2285 26.8827 36.4542C26.8991 36.672 26.9273 36.7442 26.9755 36.8373L26.7563 36.9509C26.6903 36.8234 26.655 36.7178 26.6365 36.4728C26.6186 36.2357 26.6155 35.8562 26.6155 35.1777H26.8625ZM26.975 36.8364C27.1028 37.0781 27.4185 37.261 27.7543 37.261V37.508C27.3413 37.508 26.9336 37.2863 26.7568 36.9518L26.975 36.8364ZM27.7543 37.261H28.0081V37.508H27.7543V37.261ZM28.1315 37.3846V41.4304H27.8846V37.3846H28.1315ZM28.1315 41.4304V45.4762H27.8846V41.4304H28.1315ZM28.0081 45.5997H27.437V45.3528H28.0081V45.5997ZM27.437 45.5997C27.0854 45.5997 26.8531 45.6306 26.688 45.6979C26.5306 45.7621 26.4271 45.8624 26.3402 46.0249L26.1225 45.9084C26.2323 45.7032 26.3763 45.5583 26.5948 45.4692C26.8058 45.3833 27.0779 45.3528 27.437 45.3528V45.5997ZM26.341 46.0234C26.2928 46.1166 26.2646 46.1888 26.2482 46.4066C26.2312 46.6322 26.2279 47.0008 26.2279 47.6831H25.981C25.981 47.0046 25.9841 46.6252 26.002 46.388C26.0204 46.143 26.0557 46.0374 26.1217 45.9099L26.341 46.0234ZM26.2279 47.6831V49.1543H25.981V47.6831H26.2279ZM26.1044 49.2778H25.8189V49.0309H26.1044V49.2778ZM25.8189 49.2778C25.4481 49.2778 25.1407 49.451 25.008 49.7024L24.7896 49.5871C24.9741 49.2377 25.3775 49.0309 25.8189 49.0309V49.2778ZM25.008 49.7024C24.9808 49.7535 24.9625 49.7942 24.9482 49.8544C24.9332 49.9176 24.9216 50.0062 24.9134 50.1534C24.897 50.4487 24.8954 50.9547 24.8954 51.9129H24.6484C24.6484 50.9585 24.65 50.4437 24.6669 50.1397C24.6753 49.9874 24.6879 49.8818 24.708 49.7973C24.7288 49.7098 24.7565 49.6493 24.7896 49.5871L25.008 49.7024ZM24.8954 51.9129C24.8954 52.8711 24.897 53.377 24.9134 53.6722C24.9216 53.8195 24.9332 53.9081 24.9482 53.9713C24.9625 54.0315 24.9806 54.0719 25.0078 54.1231L24.7898 54.2389C24.7567 54.1767 24.7288 54.1159 24.708 54.0284C24.6879 53.944 24.6753 53.8384 24.6669 53.6859C24.65 53.382 24.6484 52.8672 24.6484 51.9129H24.8954ZM25.0084 54.1243C25.0784 54.2594 25.1918 54.3693 25.3332 54.4376L25.2258 54.66C25.0374 54.5689 24.8842 54.4214 24.7892 54.2378L25.0084 54.1243ZM25.3343 54.4382C25.36 54.4509 25.3781 54.4596 25.4203 54.4684C25.4675 54.4783 25.5443 54.4879 25.6846 54.4965C25.9645 54.5134 26.4768 54.5249 27.4665 54.5326C29.4441 54.548 33.3157 54.548 41.0163 54.548V54.7948C33.3165 54.7948 29.4434 54.7948 27.4646 54.7796C26.4761 54.7719 25.9572 54.7604 25.6696 54.7429C25.5262 54.7342 25.4351 54.7237 25.3699 54.7101C25.2998 54.6955 25.261 54.6774 25.2247 54.6595L25.3343 54.4382ZM41.0163 54.548C48.717 54.548 52.5885 54.548 54.5661 54.5326C55.5558 54.5249 56.0682 54.5134 56.3481 54.4965C56.4883 54.4879 56.5651 54.4783 56.6123 54.4684C56.6546 54.4596 56.6727 54.4509 56.6983 54.4382L56.808 54.6595C56.7717 54.6774 56.7329 54.6955 56.6628 54.7101C56.5976 54.7237 56.5065 54.7342 56.3631 54.7429C56.0755 54.7604 55.5566 54.7719 54.5681 54.7796C52.5893 54.7948 48.7162 54.7948 41.0163 54.7948V54.548ZM56.6995 54.4376C56.8409 54.3693 56.9543 54.2594 57.0242 54.1243L57.2435 54.2378C57.1484 54.4214 56.9953 54.5689 56.8069 54.66L56.6995 54.4376ZM57.0248 54.1231C57.0521 54.0719 57.0701 54.0315 57.0845 53.9713C57.0995 53.9081 57.111 53.8195 57.1193 53.6722C57.1357 53.377 57.1373 52.8711 57.1373 51.9129H57.3842C57.3842 52.8672 57.3827 53.382 57.3658 53.6859C57.3573 53.8384 57.3447 53.944 57.3246 54.0284C57.3039 54.1159 57.2759 54.1767 57.2429 54.2389L57.0248 54.1231ZM57.1373 51.9129C57.1373 50.9547 57.1357 50.4487 57.1193 50.1534C57.111 50.0062 57.0995 49.9176 57.0845 49.8544C57.0701 49.7942 57.0521 49.7538 57.0248 49.7027L57.2429 49.5868C57.2759 49.649 57.3039 49.7098 57.3246 49.7973C57.3447 49.8818 57.3573 49.9874 57.3658 50.1397C57.3827 50.4437 57.3842 50.9585 57.3842 51.9129H57.1373ZM57.0248 49.7027C56.8921 49.4513 56.5846 49.2778 56.2138 49.2778V49.0309C56.6551 49.0309 57.0583 49.2374 57.2429 49.5868L57.0248 49.7027ZM56.2138 49.2778H55.9283V49.0309H56.2138V49.2778ZM55.8047 49.1543V47.6831H56.0517V49.1543H55.8047ZM55.8047 47.6831C55.8047 47.0008 55.8015 46.6322 55.7845 46.4066C55.7681 46.1888 55.7399 46.1166 55.6917 46.0234L55.9109 45.9099C55.977 46.0374 56.0122 46.143 56.0307 46.388C56.0486 46.6252 56.0517 47.0046 56.0517 47.6831H55.8047ZM55.6924 46.0249C55.6056 45.8624 55.5021 45.7621 55.3446 45.6979C55.1796 45.6306 54.9472 45.5997 54.5957 45.5997V45.3528C54.9548 45.3528 55.2269 45.3833 55.4378 45.4692C55.6564 45.5583 55.8004 45.7032 55.9102 45.9084L55.6924 46.0249ZM54.5957 45.5997H54.0246V45.3528H54.5957V45.5997ZM53.9011 45.4762V41.4304H54.1481V45.4762H53.9011ZM53.9011 41.4304V37.3846H54.1481V41.4304H53.9011ZM54.0246 37.261H54.2784V37.508H54.0246V37.261ZM54.2784 37.261C54.6142 37.261 54.9298 37.0781 55.0576 36.8364L55.2759 36.9518C55.0991 37.2863 54.6914 37.508 54.2784 37.508V37.261ZM55.0571 36.8373C55.1054 36.7442 55.1335 36.672 55.1499 36.4542C55.167 36.2285 55.1702 35.86 55.1702 35.1777H55.4171C55.4171 35.8562 55.414 36.2357 55.3961 36.4728C55.3777 36.7178 55.3424 36.8234 55.2764 36.9509L55.0571 36.8373ZM55.1702 35.1777V33.7065H55.4171V35.1777H55.1702ZM55.2936 33.583H55.8965V33.8299H55.2936V33.583ZM55.8965 33.583C56.2649 33.583 56.5053 33.5535 56.6745 33.4867C56.8349 33.4233 56.9378 33.3235 57.0246 33.1585L57.2432 33.2735C57.1332 33.4825 56.9886 33.628 56.7652 33.7163C56.5504 33.8012 56.2705 33.8299 55.8965 33.8299V33.583ZM57.0246 33.1585C57.0518 33.1074 57.0701 33.0666 57.0845 33.0064C57.0995 32.9432 57.111 32.8546 57.1193 32.7073C57.1357 32.4121 57.1373 31.9062 57.1373 30.9479H57.3842C57.3842 31.9023 57.3827 32.4171 57.3658 32.721C57.3573 32.8734 57.3447 32.979 57.3246 33.0634C57.3039 33.1509 57.2762 33.2113 57.2432 33.2735L57.0246 33.1585ZM57.1373 30.9479C57.1373 29.9897 57.1357 29.4838 57.1193 29.1885C57.111 29.0413 57.0995 28.9527 57.0845 28.8895C57.0701 28.8293 57.0521 28.7889 57.0248 28.7377L57.2426 28.6213C57.2757 28.6835 57.3039 28.7449 57.3246 28.8324C57.3447 28.9168 57.3573 29.0225 57.3658 29.1748C57.3827 29.4788 57.3842 29.9936 57.3842 30.9479H57.1373ZM57.0248 28.7377C56.9533 28.6047 56.8383 28.4903 56.7121 28.4293L56.8196 28.2069C56.9978 28.2931 57.1492 28.4478 57.2426 28.6213L57.0248 28.7377ZM56.7121 28.4293C56.6958 28.4213 56.6217 28.3935 56.4845 28.3459C56.352 28.3 56.1688 28.2381 55.9421 28.1627C55.4886 28.0118 54.8622 27.8069 54.1209 27.5665C52.6384 27.0857 50.6969 26.463 48.7616 25.8465C46.8263 25.2301 44.8975 24.6201 43.4404 24.1645C42.7117 23.9367 42.1012 23.7476 41.6669 23.6157C41.4496 23.5498 41.277 23.4982 41.1558 23.4634C41.095 23.4459 41.048 23.4328 41.0149 23.4242C40.9984 23.4199 40.9864 23.417 40.9784 23.4153C40.9766 23.4149 40.9751 23.4146 40.974 23.4144C40.9734 23.4142 40.9733 23.4142 40.9728 23.4141C40.973 23.4142 40.9746 23.4144 40.9752 23.4144C40.9766 23.4145 40.9816 23.415 40.9884 23.4148L40.9808 23.168C40.995 23.1676 41.0075 23.1696 41.0115 23.1703C41.018 23.1713 41.0246 23.1726 41.0309 23.174C41.0435 23.1768 41.0592 23.1806 41.0771 23.1853C41.1132 23.1946 41.1626 23.2084 41.224 23.2261C41.347 23.2615 41.5211 23.3134 41.7386 23.3795C42.174 23.5117 42.7852 23.701 43.514 23.9288C44.9718 24.3846 46.901 24.9948 48.8365 25.6113C50.7721 26.2278 52.714 26.8506 54.1971 27.3316C54.9386 27.5721 55.5657 27.7772 56.02 27.9284C56.2471 28.004 56.4314 28.0662 56.5653 28.1126C56.6946 28.1574 56.7859 28.1904 56.8196 28.2069L56.7121 28.4293ZM40.9916 23.4147C41.0007 23.4142 41.0045 23.4127 40.9925 23.4155C40.9845 23.4173 40.9727 23.4203 40.9568 23.4246C40.9253 23.433 40.8808 23.4456 40.8234 23.4623C40.709 23.4956 40.5461 23.5446 40.34 23.6076C39.9279 23.7335 39.3443 23.915 38.6317 24.1387C37.2067 24.5861 35.2668 25.2021 33.1539 25.8794L33.0785 25.6443C35.1917 24.9669 37.1321 24.3507 38.5578 23.9031C39.2706 23.6793 39.8548 23.4976 40.2679 23.3714C40.4743 23.3084 40.6384 23.259 40.7544 23.2252C40.8122 23.2084 40.8588 23.1952 40.893 23.186C40.9099 23.1815 40.9246 23.1777 40.9366 23.175C40.9446 23.1731 40.9618 23.169 40.9776 23.1681L40.9916 23.4147ZM45.7496 26.5638L50.4136 28.0594L50.3383 28.2947L45.6743 26.7989L45.7496 26.5638ZM31.6822 28.0597L36.2826 26.57L36.3588 26.8049L31.7582 28.2946L31.6822 28.0597ZM36.2826 26.57C37.5485 26.1593 38.7068 25.7853 39.5525 25.514C39.9753 25.3784 40.3201 25.2684 40.5613 25.1922C40.6819 25.1542 40.7769 25.1245 40.8428 25.1043C40.8757 25.0942 40.9018 25.0864 40.9205 25.0809C40.9297 25.0783 40.9379 25.076 40.9445 25.0743C40.9476 25.0734 40.9514 25.0725 40.9553 25.0716C40.9571 25.0712 40.9601 25.0706 40.9634 25.0701C40.9652 25.0698 40.9738 25.0683 40.9846 25.0683V25.3152C40.9949 25.3152 41.0027 25.3138 41.0035 25.3137C41.0059 25.3133 41.0075 25.313 41.0079 25.3129C41.0088 25.3127 41.0086 25.3127 41.0068 25.3132C41.0034 25.3141 40.9977 25.3156 40.9892 25.3181C40.9723 25.323 40.9476 25.3304 40.9151 25.3404C40.8502 25.3603 40.756 25.3897 40.6357 25.4277C40.395 25.5037 40.0506 25.6135 39.6279 25.7492C38.7825 26.0203 37.6246 26.3942 36.3588 26.8049L36.2826 26.57ZM40.9846 25.0683C40.9994 25.0683 41.0121 25.0712 41.0123 25.0712C41.0164 25.072 41.0205 25.073 41.0239 25.0738C41.0309 25.0756 41.0394 25.0779 41.0489 25.0805C41.0683 25.0859 41.0951 25.0937 41.1287 25.1037C41.1961 25.1238 41.2927 25.1533 41.4152 25.191C41.6602 25.2666 42.0099 25.3759 42.4384 25.5108C43.2952 25.7806 44.4677 26.153 45.7496 26.5638L45.6743 26.7989C44.3927 26.3883 43.2206 26.0159 42.3642 25.7463C41.9359 25.6114 41.5868 25.5023 41.3424 25.427C41.2202 25.3893 41.1245 25.3601 41.0583 25.3404C41.0251 25.3305 40.9999 25.3232 40.9827 25.3184C40.9739 25.316 40.9681 25.3144 40.9646 25.3135C40.9628 25.3131 40.9626 25.3131 40.9635 25.3133C40.9639 25.3134 40.9656 25.3137 40.9679 25.314C40.9691 25.3142 40.9758 25.3152 40.9846 25.3152V25.0683ZM55.4806 30.9479V31.8674H55.2336V30.9479H55.4806ZM55.3571 31.9909H41.0163V31.744H55.3571V31.9909ZM41.0163 31.9909H26.6755V31.744H41.0163V31.9909ZM26.5521 31.8674V30.9479H26.799V31.8674H26.5521ZM26.5521 30.9479V30.0284H26.799V30.9479H26.5521ZM55.4806 30.0284V30.9479H55.2336V30.0284H55.4806ZM33.2079 34.6259V35.5455H32.961V34.6259H33.2079ZM33.0845 35.669H30.8636V35.4221H33.0845V35.669ZM30.8636 35.669H28.6426V35.4221H30.8636V35.669ZM28.5192 35.5455V34.6259H28.7661V35.5455H28.5192ZM28.5192 34.6259V33.7065H28.7661V34.6259H28.5192ZM28.6426 33.583H30.8636V33.8299H28.6426V33.583ZM30.8636 33.583H33.0845V33.8299H30.8636V33.583ZM33.2079 33.7065V34.6259H32.961V33.7065H33.2079ZM37.0152 35.1777C37.0152 35.86 37.0184 36.2285 37.0355 36.4542C37.052 36.672 37.0801 36.7442 37.1284 36.8373L36.909 36.9509C36.8431 36.8234 36.8078 36.7178 36.7893 36.4728C36.7714 36.2357 36.7684 35.8562 36.7684 35.1777H37.0152ZM37.1278 36.8364C37.2556 37.0781 37.5712 37.261 37.9071 37.261V37.508C37.4941 37.508 37.0864 37.2863 36.9096 36.9518L37.1278 36.8364ZM37.9071 37.261H38.1609V37.508H37.9071V37.261ZM38.2843 37.3846V41.4304H38.0374V37.3846H38.2843ZM38.2843 41.4304V45.4762H38.0374V41.4304H38.2843ZM38.1609 45.5997H35.9399V45.3528H38.1609V45.5997ZM35.9399 45.5997H33.719V45.3528H35.9399V45.5997ZM33.5956 45.4762V41.4304H33.8425V45.4762H33.5956ZM33.5956 41.4304V37.3846H33.8425V41.4304H33.5956ZM33.719 37.261H33.9728V37.508H33.719V37.261ZM33.9728 37.261C34.3086 37.261 34.6243 37.0781 34.7521 36.8364L34.9704 36.9518C34.7935 37.2863 34.3859 37.508 33.9728 37.508V37.261ZM34.7516 36.8373C34.7998 36.7442 34.828 36.672 34.8444 36.4542C34.8614 36.2285 34.8646 35.86 34.8646 35.1777H35.1116C35.1116 35.8562 35.1084 36.2357 35.0906 36.4728C35.0721 36.7178 35.0369 36.8234 34.9709 36.9509L34.7516 36.8373ZM34.8646 35.1777V33.7065H35.1116V35.1777H34.8646ZM34.9882 33.583H35.9399V33.8299H34.9882V33.583ZM35.9399 33.583H36.8918V33.8299H35.9399V33.583ZM37.0152 33.7065V35.1777H36.7684V33.7065H37.0152ZM43.3607 34.6259V35.5455H43.1138V34.6259H43.3607ZM43.2372 35.669H41.0163V35.4221H43.2372V35.669ZM41.0163 35.669H38.7954V35.4221H41.0163V35.669ZM38.672 35.5455V34.6259H38.9189V35.5455H38.672ZM38.672 34.6259V33.7065H38.9189V34.6259H38.672ZM38.7954 33.583H41.0163V33.8299H38.7954V33.583ZM41.0163 33.583H43.2372V33.8299H41.0163V33.583ZM43.3607 33.7065V34.6259H43.1138V33.7065H43.3607ZM47.168 35.1777C47.168 35.86 47.1712 36.2285 47.1883 36.4542C47.2047 36.672 47.2329 36.7442 47.2811 36.8373L47.0618 36.9509C46.9959 36.8234 46.9606 36.7178 46.9421 36.4728C46.9242 36.2357 46.9211 35.8562 46.9211 35.1777H47.168ZM47.2806 36.8364C47.4084 37.0781 47.724 37.261 48.0598 37.261V37.508C47.6469 37.508 47.2392 37.2863 47.0623 36.9518L47.2806 36.8364ZM48.0598 37.261H48.3136V37.508H48.0598V37.261ZM48.4371 37.3846V41.4304H48.1902V37.3846H48.4371ZM48.4371 41.4304V45.4762H48.1902V41.4304H48.4371ZM48.3136 45.5997H46.0927V45.3528H48.3136V45.5997ZM46.0927 45.5997H43.8718V45.3528H46.0927V45.5997ZM43.7484 45.4762V41.4304H43.9953V45.4762H43.7484ZM43.7484 41.4304V37.3846H43.9953V41.4304H43.7484ZM43.8718 37.261H44.1257V37.508H43.8718V37.261ZM44.1257 37.261C44.4614 37.261 44.7771 37.0781 44.9048 36.8364L45.1232 36.9518C44.9463 37.2863 44.5386 37.508 44.1257 37.508V37.261ZM44.9044 36.8373C44.9526 36.7442 44.9808 36.672 44.9971 36.4542C45.0142 36.2285 45.0174 35.86 45.0174 35.1777H45.2644C45.2644 35.8562 45.2612 36.2357 45.2434 36.4728C45.2249 36.7178 45.1896 36.8234 45.1236 36.9509L44.9044 36.8373ZM45.0174 35.1777V33.7065H45.2644V35.1777H45.0174ZM45.1409 33.583H46.0927V33.8299H45.1409V33.583ZM46.0927 33.583H47.0446V33.8299H46.0927V33.583ZM47.168 33.7065V35.1777H46.9211V33.7065H47.168ZM53.5134 34.6259V35.5455H53.2666V34.6259H53.5134ZM53.39 35.669H51.1691V35.4221H53.39V35.669ZM51.1691 35.669H48.9482V35.4221H51.1691V35.669ZM48.8247 35.5455V34.6259H49.0717V35.5455H48.8247ZM48.8247 34.6259V33.7065H49.0717V34.6259H48.8247ZM48.9482 33.583H51.1691V33.8299H48.9482V33.583ZM51.1691 33.583H53.39V33.8299H51.1691V33.583ZM53.5134 33.7065V34.6259H53.2666V33.7065H53.5134ZM31.9388 41.4304V45.4762H31.6919V41.4304H31.9388ZM31.8154 45.5997H30.8636V45.3528H31.8154V45.5997ZM30.8636 45.5997H29.9117V45.3528H30.8636V45.5997ZM29.7883 45.4762V41.4304H30.0352V45.4762H29.7883ZM29.7883 41.4304V37.3846H30.0352V41.4304H29.7883ZM29.9117 37.261H30.8636V37.508H29.9117V37.261ZM30.8636 37.261H31.8154V37.508H30.8636V37.261ZM31.9388 37.3846V41.4304H31.6919V37.3846H31.9388ZM42.0916 41.4304V45.4762H41.8447V41.4304H42.0916ZM41.9682 45.5997H41.0163V45.3528H41.9682V45.5997ZM41.0163 45.5997H40.0646V45.3528H41.0163V45.5997ZM39.941 45.4762V41.4304H40.188V45.4762H39.941ZM39.941 41.4304V37.3846H40.188V41.4304H39.941ZM40.0646 37.261H41.0163V37.508H40.0646V37.261ZM41.0163 37.261H41.9682V37.508H41.0163V37.261ZM42.0916 37.3846V41.4304H41.8447V37.3846H42.0916ZM52.2444 41.4304V45.4762H51.9975V41.4304H52.2444ZM52.1209 45.5997H51.1691V45.3528H52.1209V45.5997ZM51.1691 45.5997H50.2172V45.3528H51.1691V45.5997ZM50.0938 45.4762V41.4304H50.3408V45.4762H50.0938ZM50.0938 41.4304V37.3846H50.3408V41.4304H50.0938ZM50.2172 37.261H51.1691V37.508H50.2172V37.261ZM51.1691 37.261H52.1209V37.508H51.1691V37.261ZM52.2444 37.3846V41.4304H51.9975V37.3846H52.2444ZM54.1481 48.2348V49.1543H53.9011V48.2348H54.1481ZM27.8846 49.1543V48.2348H28.1315V49.1543H27.8846ZM27.8846 48.2348V47.3153H28.1315V48.2348H27.8846ZM28.0081 47.1919H41.0163V47.4387H28.0081V47.1919ZM41.0163 47.1919H54.0246V47.4387H41.0163V47.1919ZM54.1481 47.3153V48.2348H53.9011V47.3153H54.1481ZM55.4806 51.9129V52.8324H55.2336V51.9129H55.4806ZM55.3571 52.9559H41.0163V52.7089H55.3571V52.9559ZM41.0163 52.9559H26.6755V52.7089H41.0163V52.9559ZM26.5521 52.8324V51.9129H26.799V52.8324H26.5521ZM26.5521 51.9129V50.9934H26.799V51.9129H26.5521ZM55.4806 50.9934V51.9129H55.2336V50.9934H55.4806ZM31.7627 28.293L26.7181 30.1443L26.633 29.9125L31.6776 28.0611L31.7627 28.293ZM50.4189 28.0614L55.4001 29.9127L55.3141 30.1441L50.3329 28.2928L50.4189 28.0614ZM26.6755 50.8699H28.0081V51.1168H26.6755V50.8699ZM28.1315 49.1543V50.9934H27.8846V49.1543H28.1315ZM54.0246 50.8699H55.3571V51.1168H54.0246V50.8699ZM54.1481 49.1543V50.9934H53.9011V49.1543H54.1481Z" fill="#FCFBF7"/>
</g>
</g>
<defs>
<clipPath id="clip0_2863_1031">
<rect width="33.3333" height="32.4074" fill="white" transform="translate(24.7656 22.668)"/>
</clipPath>
</defs>
</svg>
