<svg width="81" height="80" viewBox="0 0 81 80" fill="none" xmlns="http://www.w3.org/2000/svg">
<path d="M19.7682 59.0006C8.90663 48.1391 8.90663 30.5289 19.7682 19.6673V19.6673C30.6298 8.80572 48.24 8.80572 59.1016 19.6673L59.7682 20.334C70.998 31.5638 70.998 49.7709 59.7682 61.0007L40.7682 80.0007L19.7682 59.0006Z" fill="#61A5FF"/>
<path d="M40.1816 28.6687C39.5672 28.9729 38.8162 29.8045 38.1583 30.9031C37.9845 31.1948 37.8293 31.4431 37.8232 31.4555C37.8107 31.4679 37.6679 31.3562 37.5066 31.2072C36.1536 29.9411 33.7206 29.1653 32.5848 29.637C32.2621 29.7735 32.0325 30.0218 31.8338 30.4438C31.5421 31.0831 31.2815 32.3182 31.2815 33.0816V33.3919L30.1208 33.3484C28.8113 33.2988 28.2961 33.3609 27.7686 33.6091C27.3527 33.8077 26.9183 34.2856 26.7693 34.7077C26.4218 35.7193 27.0362 39.2571 27.9734 41.6403C28.4451 42.8382 28.9788 43.8188 29.6492 44.7312C29.8353 44.9856 29.9781 45.1967 29.9657 45.2029C29.9533 45.2153 29.5623 45.4201 29.0968 45.656C26.6514 46.922 25.0998 48.4241 24.9694 49.653C24.895 50.3729 25.3108 50.857 26.1735 51.0494C26.8066 51.186 28.7058 51.1425 31.0332 50.9253C40.9264 50.0067 44.3338 50.0254 51.6698 51.0494C53.4945 51.3038 55.0151 51.366 55.5675 51.2046C56.7406 50.8632 56.9454 49.3798 55.9958 47.9958C55.2758 46.9407 53.6994 45.8235 52.2285 45.3332C51.9554 45.2401 51.7257 45.1594 51.7133 45.147C51.7009 45.1408 51.8374 44.936 52.0112 44.7063C52.998 43.3906 53.8421 41.5038 54.3697 39.437C54.9407 37.2089 55.1207 35.2538 54.8166 34.596C54.5124 33.9319 53.9352 33.5657 53.0043 33.454C52.7187 33.4167 51.9988 33.3857 51.4091 33.3857H50.3355V32.883C50.3355 31.9954 49.9879 30.6424 49.6155 30.0776C49.2741 29.5563 48.4362 29.3763 47.3687 29.5935C46.2081 29.8356 45.1406 30.3507 44.2593 31.0955C44.0048 31.3065 43.7814 31.4493 43.769 31.412C43.7256 31.2755 43.0552 30.1893 42.8069 29.848C42.4284 29.339 41.8884 28.8301 41.516 28.6501C41.0568 28.4205 40.6657 28.4267 40.1816 28.6687ZM41.1436 29.5687C41.3609 29.6804 41.8884 30.2514 42.1987 30.7107C43.7379 32.9947 45.4323 37.7613 45.4323 39.7908C45.4323 42.0376 43.3779 46.8476 41.6836 48.5606C41.0071 49.2496 40.6347 49.3923 40.1257 49.1564C39.1699 48.722 37.9845 46.4379 37.1528 43.4402C36.5384 41.2183 36.2901 39.5302 36.4204 38.4812C36.8053 35.409 39.0209 30.5617 40.4609 29.6494C40.7774 29.4508 40.8954 29.4383 41.1436 29.5687ZM34.602 30.6983C35.6074 31.0148 36.7432 31.7099 37.1404 32.2623C37.2894 32.4671 37.2956 32.4795 37.1962 32.6968C36.886 33.4167 36.4391 34.5153 36.346 34.7946C36.2839 34.9746 36.228 35.1235 36.2219 35.1235C36.2094 35.1235 35.8991 34.9808 35.5268 34.807C34.7261 34.4284 33.702 34.025 32.9262 33.7829C32.6221 33.6836 32.3428 33.5781 32.3179 33.5408C32.2373 33.4415 32.3242 32.2809 32.4607 31.7223C32.6531 30.9279 32.8083 30.6052 33.0441 30.5307C33.3296 30.4438 34.0309 30.5183 34.602 30.6983ZM48.759 30.599C49.001 30.7976 49.3424 32.2002 49.3424 33.0195V33.5533L48.8025 33.7581C47.8901 34.0994 46.3571 34.9311 45.6868 35.4462L45.5378 35.558L45.184 34.6146C44.9855 34.0932 44.7123 33.4105 44.5758 33.094L44.3275 32.523L44.5014 32.2809C45.1716 31.3499 47.1887 30.4128 48.3121 30.4997C48.5108 30.5183 48.7156 30.5617 48.759 30.599ZM30.8036 34.3787C31.7283 34.4532 32.4917 34.6394 33.5716 35.0552C34.1489 35.2787 35.8185 36.0048 35.9115 36.0793C35.9177 36.0855 35.8432 36.3958 35.7439 36.7807C35.5391 37.6061 35.3778 38.6302 35.3778 39.1453C35.3778 39.3563 35.4212 39.8404 35.4709 40.2314C35.8556 43.1547 37.0038 46.7049 38.1334 48.4675C38.2762 48.6909 38.4127 48.902 38.4376 48.9454C38.5493 49.1254 36.6935 48.5979 35.6756 48.1572C34.1737 47.4993 32.0014 45.9414 30.9525 44.756C29.2581 42.8444 28.0665 39.7101 27.6817 36.1476C27.5513 34.9621 27.7624 34.5401 28.5692 34.3787C28.9478 34.3105 29.9036 34.3042 30.8036 34.3787ZM52.905 34.4408C53.4201 34.5153 53.7056 34.6456 53.8545 34.8628C54.0221 35.1173 53.9911 36.2593 53.7862 37.4509C53.3518 39.9522 52.5387 42.1493 51.4464 43.7816C50.1803 45.6808 47.4618 47.6234 44.9668 48.4241C44.3524 48.6226 42.7697 48.995 42.7325 48.9516C42.7201 48.9392 42.8815 48.7158 43.08 48.4489C44.3089 46.829 45.6185 43.9305 46.2081 41.5162C46.3261 41.0632 46.3819 40.6225 46.4068 40.0577C46.4439 39.1578 46.3695 38.6178 46.0405 37.3082L45.8481 36.5448L45.9909 36.4393C46.4129 36.129 47.5363 35.4462 48.1632 35.1297C48.9017 34.7573 49.3114 34.6022 49.901 34.4718C50.323 34.3787 52.3277 34.3601 52.905 34.4408ZM31.4801 46.6242C32.3924 47.369 33.0751 47.8593 33.9316 48.3682C34.5771 48.7592 35.9302 49.3984 36.1101 49.3984C36.1473 49.3984 36.1846 49.4233 36.1846 49.4481C36.1846 49.473 35.7129 49.5288 35.1419 49.5723C34.5709 49.6095 32.9944 49.7461 31.6539 49.8702C29.6926 50.0564 28.9106 50.0998 27.7437 50.1061C26.4218 50.1122 26.2666 50.0998 26.1052 50.0005C25.9501 49.895 25.9315 49.8515 25.9625 49.6654C26.1052 48.784 28.2341 47.0586 30.2574 46.1835C30.4312 46.109 30.6174 46.0532 30.6732 46.047C30.7353 46.047 31.0953 46.3076 31.4801 46.6242ZM51.9615 46.3014C52.9918 46.6366 53.9415 47.2262 54.6862 47.9772C55.2572 48.5482 55.5427 49.0757 55.5924 49.6281C55.6234 49.9571 55.6109 50.0129 55.4868 50.1308C55.1765 50.4163 54.2207 50.3915 51.5147 50.0254C49.1438 49.7026 47.7535 49.5412 46.5061 49.4481C45.9474 49.4047 45.4944 49.355 45.4944 49.3364C45.4944 49.3116 45.7364 49.2061 46.0405 49.0882C47.4122 48.573 49.001 47.6048 50.3479 46.469C50.8506 46.0408 50.863 46.0345 51.1423 46.078C51.2974 46.1028 51.6637 46.2021 51.9615 46.3014Z" fill="#FCFBF7" stroke="#FCFBF7" stroke-width="1.33333"/>
</svg>
