<svg width="81" height="88" viewBox="0 0 81 88" fill="none" xmlns="http://www.w3.org/2000/svg">
<path d="M39.563 81.7684L41.3307 83.5362L43.0985 81.7684L62.0985 62.7684C74.3046 50.5623 74.3046 30.7723 62.0985 18.5662L61.4318 17.8996C49.5939 6.06164 30.4009 6.06164 18.563 17.8996C6.72505 29.7375 6.72505 48.9305 18.563 60.7684L39.563 81.7684Z" fill="#C70039" stroke="#F78712" stroke-width="5"/>
<g clip-path="url(#clip0_3125_910)">
<path fill-rule="evenodd" clip-rule="evenodd" d="M25.1429 28.3319C25.2508 28.2767 28.7979 27.1182 33.024 25.7634C37.2501 24.4087 40.7846 23.2991 40.8924 23.293C41.0891 23.2868 56.2738 28.1235 56.6736 28.3197C56.8259 28.3932 56.9592 28.5281 57.0417 28.6813C57.1623 28.9081 57.1686 29.0369 57.1686 30.9495C57.1686 32.862 57.1623 32.9908 57.0417 33.2176C56.8449 33.5916 56.5467 33.7081 55.8043 33.7081H55.2014V35.1793C55.2014 36.5401 55.1887 36.675 55.0746 36.8956C54.9223 37.1838 54.5606 37.3861 54.1861 37.3861H53.9324V41.4319V45.4778H54.5035C55.2142 45.4778 55.5124 45.6005 55.7091 45.9682C55.8234 46.1889 55.8361 46.3238 55.8361 47.6846V49.1558H56.1216C56.5276 49.1558 56.883 49.3459 57.0417 49.6463C57.1623 49.873 57.1686 50.0018 57.1686 51.9144C57.1686 53.827 57.1623 53.9557 57.0417 54.1826C56.9592 54.3419 56.8259 54.4706 56.661 54.5504C56.4135 54.673 56.3247 54.673 40.9241 54.673C25.5236 54.673 25.4348 54.673 25.1873 54.5504C25.0223 54.4706 24.8891 54.3419 24.8066 54.1826C24.686 53.9557 24.6797 53.827 24.6797 51.9144C24.6797 50.0018 24.686 49.873 24.8066 49.6463C24.9652 49.3459 25.3206 49.1558 25.7267 49.1558H26.0122V47.6846C26.0122 46.3238 26.0249 46.1889 26.1391 45.9682C26.3359 45.6005 26.6341 45.4778 27.3448 45.4778H27.9159V41.4319V37.3861H27.6621C27.2877 37.3861 26.926 37.1838 26.7737 36.8956C26.6595 36.675 26.6468 36.5401 26.6468 35.1793V33.7081H26.044C25.3015 33.7081 25.0033 33.5916 24.8066 33.2176C24.686 32.9908 24.6797 32.862 24.6797 30.9495C24.6797 29.0369 24.686 28.9081 24.8066 28.6813C24.8764 28.5465 25.0287 28.3932 25.1429 28.3319ZM32.9923 35.547V34.6275V33.7081H30.7714H28.5504V34.6275V35.547H30.7714H32.9923ZM36.9265 36.8956C36.8123 36.675 36.7996 36.5401 36.7996 35.1793V33.7081H35.8477H34.896V35.1793C34.896 36.5401 34.8832 36.675 34.769 36.8956C34.6167 37.1838 34.255 37.3861 33.8806 37.3861H33.6268V41.4319V45.4778H35.8477H38.0686V41.4319V37.3861H37.8149C37.4405 37.3861 37.0787 37.1838 36.9265 36.8956ZM43.145 35.547V34.6275V33.7081H40.9241H38.7032V34.6275V35.547H40.9241H43.145ZM47.0792 36.8956C46.965 36.675 46.9524 36.5401 46.9524 35.1793V33.7081H46.0005H45.0487V35.1793C45.0487 36.5401 45.036 36.675 44.9218 36.8956C44.7695 37.1838 44.4078 37.3861 44.0335 37.3861H43.7796V41.4319V45.4778H46.0005H48.2214V41.4319V37.3861H47.9676C47.5933 37.3861 47.2315 37.1838 47.0792 36.8956ZM53.2978 35.547V34.6275V33.7081H51.0769H48.856V34.6275V35.547H51.0769H53.2978ZM31.7232 45.4778V41.4319V37.3861H30.7714H29.8195V41.4319V45.4778H30.7714H31.7232ZM41.876 45.4778V41.4319V37.3861H40.9241H39.9724V41.4319V45.4778H40.9241H41.876ZM52.0287 45.4778V41.4319V37.3861H51.0769H50.125V41.4319V45.4778H51.0769H52.0287ZM50.2837 28.1787L45.6198 26.6829C43.0562 25.8615 40.9305 25.1933 40.8924 25.1933C40.8607 25.1933 38.7603 25.8676 36.2285 26.6891L31.628 28.1787L26.5833 30.03V30.9495V31.869H40.9241H55.2649V30.9495V30.03L50.2837 28.1787ZM53.9324 48.2364V49.1558V50.9949H55.2649V51.9144V52.834H40.9241H26.5833V51.9144V50.9949H27.9159V49.1558V48.2364V47.3168H40.9241H53.9324V48.2364Z" fill="#FCFBF7"/>
<mask id="mask0_3125_910" style="mask-type:luminance" maskUnits="userSpaceOnUse" x="24" y="23" width="34" height="32">
<path fill-rule="evenodd" clip-rule="evenodd" d="M25.1351 28.328C25.243 28.2728 28.7901 27.1143 33.0162 25.7595C37.2423 24.4047 40.7768 23.2952 40.8846 23.2891C41.0813 23.2829 56.266 28.1196 56.6658 28.3158C56.8181 28.3893 56.9514 28.5242 57.0339 28.6774C57.1544 28.9042 57.1607 29.033 57.1607 30.9456C57.1607 32.8581 57.1544 32.9869 57.0339 33.2137C56.8371 33.5877 56.5389 33.7041 55.7965 33.7041H55.1936V35.1753C55.1936 36.5362 55.1809 36.6711 55.0668 36.8917C54.9144 37.1799 54.5528 37.3822 54.1783 37.3822H53.9245V41.428V45.4739H54.4957C55.2064 45.4739 55.5045 45.5966 55.7013 45.9643C55.8156 46.185 55.8282 46.3199 55.8282 47.6807V49.1519H56.1138C56.5198 49.1519 56.8752 49.342 57.0339 49.6424C57.1544 49.8691 57.1607 49.9979 57.1607 51.9105C57.1607 53.8231 57.1544 53.9518 57.0339 54.1787C56.9514 54.338 56.8181 54.4667 56.6532 54.5465C56.4057 54.6691 56.3169 54.6691 40.9163 54.6691C25.5158 54.6691 25.427 54.6691 25.1795 54.5465C25.0145 54.4667 24.8813 54.338 24.7988 54.1787C24.6782 53.9518 24.6719 53.8231 24.6719 51.9105C24.6719 49.9979 24.6782 49.8691 24.7988 49.6424C24.9574 49.342 25.3128 49.1519 25.7189 49.1519H26.0044V47.6807C26.0044 46.3199 26.0171 46.185 26.1313 45.9643C26.328 45.5966 26.6263 45.4739 27.337 45.4739H27.9081V41.428V37.3822H27.6543C27.2799 37.3822 26.9182 37.1799 26.7659 36.8917C26.6517 36.6711 26.639 36.5362 26.639 35.1753V33.7041H26.0362C25.2937 33.7041 24.9955 33.5877 24.7988 33.2137C24.6782 32.9869 24.6719 32.8581 24.6719 30.9456C24.6719 29.033 24.6782 28.9042 24.7988 28.6774C24.8686 28.5426 25.0209 28.3893 25.1351 28.328ZM32.9845 35.5431V34.6236V33.7041H30.7635H28.5426V34.6236V35.5431H30.7635H32.9845ZM36.9187 36.8917C36.8044 36.6711 36.7918 36.5362 36.7918 35.1753V33.7041H35.8399H34.8881V35.1753C34.8881 36.5362 34.8754 36.6711 34.7612 36.8917C34.6089 37.1799 34.2472 37.3822 33.8728 37.3822H33.619V41.428V45.4739H35.8399H38.0608V41.428V37.3822H37.807C37.4327 37.3822 37.0709 37.1799 36.9187 36.8917ZM43.1372 35.5431V34.6236V33.7041H40.9163H38.6954V34.6236V35.5431H40.9163H43.1372ZM47.0714 36.8917C46.9572 36.6711 46.9445 36.5362 46.9445 35.1753V33.7041H45.9927H45.0409V35.1753C45.0409 36.5362 45.0282 36.6711 44.914 36.8917C44.7617 37.1799 44.4 37.3822 44.0257 37.3822H43.7718V41.428V45.4739H45.9927H48.2136V41.428V37.3822H47.9598C47.5855 37.3822 47.2237 37.1799 47.0714 36.8917ZM53.29 35.5431V34.6236V33.7041H51.0691H48.8482V34.6236V35.5431H51.0691H53.29ZM31.7154 45.4739V41.428V37.3822H30.7635H29.8117V41.428V45.4739H30.7635H31.7154ZM41.8682 45.4739V41.428V37.3822H40.9163H39.9645V41.428V45.4739H40.9163H41.8682ZM52.0209 45.4739V41.428V37.3822H51.0691H50.1172V41.428V45.4739H51.0691H52.0209ZM50.2759 28.1748L45.6119 26.679C43.0484 25.8576 40.9227 25.1894 40.8846 25.1894C40.8529 25.1894 38.7525 25.8637 36.2206 26.6851L31.6202 28.1748L26.5755 30.0261V30.9456V31.8651H40.9163H55.2571V30.9456V30.0261L50.2759 28.1748ZM53.9245 48.2325V49.1519V50.991H55.2571V51.9105V52.8301H40.9163H26.5755V51.9105V50.991H27.9081V49.1519V48.2325V47.3129H40.9163H53.9245V48.2325Z" fill="white"/>
</mask>
<g mask="url(#mask0_3125_910)">
<path d="M26.574 50.9316H53.923V51.0551H26.574V50.9316ZM27.9065 50.9316H53.923V51.0551H27.9065V50.9316ZM25.1336 28.3304L25.0752 28.2216L25.0773 28.2205L25.1336 28.3304ZM24.7972 28.6798L24.9069 28.7365L24.9063 28.7377L24.7972 28.6798ZM26.6374 33.7065V33.583H26.7609V33.7065H26.6374ZM26.7643 36.8941L26.6552 36.9518L26.6547 36.9509L26.7643 36.8941ZM27.9065 37.3846V37.261H28.03V37.3846H27.9065ZM27.9065 45.4762H28.03V45.5997H27.9065V45.4762ZM26.1298 45.9667L26.0201 45.9099L26.0209 45.9084L26.1298 45.9667ZM26.0029 49.1543H26.1263V49.2778H26.0029V49.1543ZM24.7972 54.181L24.9063 54.1231L24.9069 54.1243L24.7972 54.181ZM25.178 54.5488L25.2317 54.4376L25.2328 54.4382L25.178 54.5488ZM56.6516 54.5488L56.5968 54.4382L56.5979 54.4376L56.6516 54.5488ZM57.0323 54.181L56.9226 54.1243L56.9233 54.1231L57.0323 54.181ZM55.8267 49.1543V49.2778H55.7032V49.1543H55.8267ZM55.6997 45.9667L55.8086 45.9084L55.8094 45.9099L55.6997 45.9667ZM53.923 45.4762V45.5997H53.7996V45.4762H53.923ZM53.923 37.3846H53.7996V37.261H53.923V37.3846ZM55.0652 36.8941L55.1748 36.9509L55.1744 36.9518L55.0652 36.8941ZM55.1921 33.7065H55.0686V33.583H55.1921V33.7065ZM40.8831 23.2914L40.876 23.1681L40.8792 23.168L40.8831 23.2914ZM50.2744 28.1771L50.3121 28.0594L50.3173 28.0614L50.2744 28.1771ZM31.6186 28.1771L31.5761 28.0611L31.5806 28.0597L31.6186 28.1771ZM55.2556 31.8674H55.379V31.9909H55.2556V31.8674ZM26.574 31.8674V31.9909H26.4505V31.8674H26.574ZM26.574 30.0284H26.4505V29.9422L26.5314 29.9125L26.574 30.0284ZM55.2556 30.0284L55.2985 29.9127L55.379 29.9426V30.0284H55.2556ZM32.9829 35.5455H33.1064V35.669H32.9829V35.5455ZM28.5411 35.5455V35.669H28.4176V35.5455H28.5411ZM28.5411 33.7065H28.4176V33.583H28.5411V33.7065ZM32.9829 33.7065V33.583H33.1064V33.7065H32.9829ZM36.9172 36.8941L36.808 36.9518L36.8074 36.9509L36.9172 36.8941ZM38.0593 37.3846V37.261H38.1827V37.3846H38.0593ZM38.0593 45.4762H38.1827V45.5997H38.0593V45.4762ZM33.6175 45.4762V45.5997H33.494V45.4762H33.6175ZM33.6175 37.3846H33.494V37.261H33.6175V37.3846ZM34.7597 36.8941L34.8693 36.9509L34.8688 36.9518L34.7597 36.8941ZM34.8866 33.7065H34.7631V33.583H34.8866V33.7065ZM36.7902 33.7065V33.583H36.9136V33.7065H36.7902ZM43.1357 35.5455H43.2591V35.669H43.1357V35.5455ZM38.6938 35.5455V35.669H38.5704V35.5455H38.6938ZM38.6938 33.7065H38.5704V33.583H38.6938V33.7065ZM43.1357 33.7065V33.583H43.2591V33.7065H43.1357ZM47.0698 36.8941L46.9608 36.9518L46.9602 36.9509L47.0698 36.8941ZM48.2121 37.3846V37.261H48.3355V37.3846H48.2121ZM48.2121 45.4762H48.3355V45.5997H48.2121V45.4762ZM43.7702 45.4762V45.5997H43.6468V45.4762H43.7702ZM43.7702 37.3846H43.6468V37.261H43.7702V37.3846ZM44.9124 36.8941L45.0221 36.9509L45.0216 36.9518L44.9124 36.8941ZM45.0394 33.7065H44.9159V33.583H45.0394V33.7065ZM46.943 33.7065V33.583H47.0664V33.7065H46.943ZM53.2885 35.5455H53.4119V35.669H53.2885V35.5455ZM48.8466 35.5455V35.669H48.7232V35.5455H48.8466ZM48.8466 33.7065H48.7232V33.583H48.8466V33.7065ZM53.2885 33.7065V33.583H53.4119V33.7065H53.2885ZM31.7138 45.4762H31.8373V45.5997H31.7138V45.4762ZM29.8102 45.4762V45.5997H29.6867V45.4762H29.8102ZM29.8102 37.3846H29.6867V37.261H29.8102V37.3846ZM31.7138 37.3846V37.261H31.8373V37.3846H31.7138ZM41.8666 45.4762H41.99V45.5997H41.8666V45.4762ZM39.963 45.4762V45.5997H39.8395V45.4762H39.963ZM39.963 37.3846H39.8395V37.261H39.963V37.3846ZM41.8666 37.3846V37.261H41.99V37.3846H41.8666ZM52.0194 45.4762H52.1428V45.5997H52.0194V45.4762ZM50.1157 45.4762V45.5997H49.9923V45.4762H50.1157ZM50.1157 37.3846H49.9923V37.261H50.1157V37.3846ZM52.0194 37.3846V37.261H52.1428V37.3846H52.0194ZM27.9065 47.3153H27.7831V47.1919H27.9065V47.3153ZM53.923 47.3153V47.1919H54.0465V47.3153H53.923ZM55.2556 52.8324H55.379V52.9559H55.2556V52.8324ZM26.574 52.8324V52.9559H26.4505V52.8324H26.574ZM26.574 50.9934H26.4505V50.8699H26.574V50.9934ZM55.2556 50.9934V50.8699H55.379V50.9934H55.2556ZM27.9065 50.9934H28.03V51.1168H27.9065V50.9934ZM53.923 50.9934V51.1168H53.7996V50.9934H53.923ZM33.0523 25.8794C30.9394 26.5567 28.9963 27.185 27.568 27.6508C26.8539 27.8837 26.2686 28.076 25.8551 28.2134C25.6484 28.2822 25.4849 28.3371 25.3699 28.3765C25.3123 28.3963 25.2673 28.4119 25.2352 28.4235C25.1987 28.4366 25.1877 28.4413 25.1898 28.4403L25.0773 28.2205C25.0929 28.2125 25.1223 28.2017 25.1516 28.1911C25.1854 28.179 25.2318 28.1628 25.2898 28.1429C25.4059 28.1032 25.5703 28.0479 25.7772 27.9791C26.1913 27.8415 26.7771 27.6491 27.4915 27.4161C28.9202 26.9501 30.8638 26.3217 32.977 25.6443L33.0523 25.8794ZM25.1919 28.4392C25.1497 28.4618 25.093 28.5062 25.0373 28.5635C24.9819 28.6205 24.9347 28.6829 24.9069 28.7365L24.6876 28.623C24.7296 28.5418 24.7935 28.4601 24.8602 28.3914C24.9266 28.3231 25.0032 28.2602 25.0752 28.2216L25.1919 28.4392ZM24.9063 28.7377C24.8791 28.7889 24.861 28.8293 24.8467 28.8895C24.8316 28.9527 24.82 29.0413 24.8118 29.1885C24.7954 29.4838 24.7938 29.9897 24.7938 30.9479H24.5469C24.5469 29.9936 24.5484 29.4788 24.5653 29.1748C24.5738 29.0225 24.5864 28.9168 24.6064 28.8324C24.6272 28.7449 24.6551 28.6841 24.6882 28.6218L24.9063 28.7377ZM24.7938 30.9479C24.7938 31.9062 24.7954 32.4121 24.8118 32.7073C24.82 32.8546 24.8316 32.9432 24.8467 33.0064C24.861 33.0666 24.8791 33.107 24.9063 33.1581L24.6882 33.274C24.6551 33.2118 24.6272 33.1509 24.6064 33.0634C24.5864 32.979 24.5738 32.8734 24.5653 32.721C24.5484 32.4171 24.5469 31.9023 24.5469 30.9479H24.7938ZM24.9063 33.1581C24.993 33.3231 25.0962 33.4233 25.2567 33.4867C25.4258 33.5535 25.6662 33.583 26.0346 33.583V33.8299C25.6606 33.8299 25.3807 33.8012 25.1659 33.7163C24.9425 33.628 24.7982 33.483 24.6882 33.274L24.9063 33.1581ZM26.0346 33.583H26.6374V33.8299H26.0346V33.583ZM26.7609 33.7065V35.1777H26.514V33.7065H26.7609ZM26.7609 35.1777C26.7609 35.86 26.7641 36.2285 26.7812 36.4542C26.7976 36.672 26.8258 36.7442 26.874 36.8373L26.6547 36.9509C26.5887 36.8234 26.5534 36.7178 26.5349 36.4728C26.5171 36.2357 26.514 35.8562 26.514 35.1777H26.7609ZM26.8735 36.8364C27.0012 37.0781 27.3169 37.261 27.6527 37.261V37.508C27.2397 37.508 26.832 37.2863 26.6552 36.9518L26.8735 36.8364ZM27.6527 37.261H27.9065V37.508H27.6527V37.261ZM28.03 37.3846V41.4304H27.7831V37.3846H28.03ZM28.03 41.4304V45.4762H27.7831V41.4304H28.03ZM27.9065 45.5997H27.3354V45.3528H27.9065V45.5997ZM27.3354 45.5997C26.9839 45.5997 26.7515 45.6306 26.5865 45.6979C26.4291 45.7621 26.3256 45.8624 26.2387 46.0249L26.0209 45.9084C26.1307 45.7032 26.2747 45.5583 26.4933 45.4692C26.7042 45.3833 26.9763 45.3528 27.3354 45.3528V45.5997ZM26.2394 46.0234C26.1912 46.1166 26.163 46.1888 26.1466 46.4066C26.1296 46.6322 26.1263 47.0008 26.1263 47.6831H25.8794C25.8794 47.0046 25.8825 46.6252 25.9004 46.388C25.9189 46.143 25.9542 46.0374 26.0201 45.9099L26.2394 46.0234ZM26.1263 47.6831V49.1543H25.8794V47.6831H26.1263ZM26.0029 49.2778H25.7173V49.0309H26.0029V49.2778ZM25.7173 49.2778C25.3465 49.2778 25.0392 49.451 24.9064 49.7024L24.6881 49.5871C24.8726 49.2377 25.2759 49.0309 25.7173 49.0309V49.2778ZM24.9064 49.7024C24.8792 49.7535 24.861 49.7942 24.8467 49.8544C24.8316 49.9176 24.82 50.0062 24.8118 50.1534C24.7954 50.4487 24.7938 50.9547 24.7938 51.9129H24.5469C24.5469 50.9585 24.5484 50.4437 24.5653 50.1397C24.5738 49.9874 24.5864 49.8818 24.6064 49.7973C24.6272 49.7098 24.655 49.6493 24.6881 49.5871L24.9064 49.7024ZM24.7938 51.9129C24.7938 52.8711 24.7954 53.377 24.8118 53.6722C24.82 53.8195 24.8316 53.9081 24.8467 53.9713C24.861 54.0315 24.8791 54.0719 24.9063 54.1231L24.6882 54.2389C24.6551 54.1767 24.6272 54.1159 24.6064 54.0284C24.5864 53.944 24.5738 53.8384 24.5653 53.6859C24.5484 53.382 24.5469 52.8672 24.5469 51.9129H24.7938ZM24.9069 54.1243C24.9768 54.2594 25.0902 54.3693 25.2317 54.4376L25.1243 54.66C24.9358 54.5689 24.7826 54.4214 24.6876 54.2378L24.9069 54.1243ZM25.2328 54.4382C25.2584 54.4509 25.2765 54.4596 25.3188 54.4684C25.366 54.4783 25.4427 54.4879 25.583 54.4965C25.863 54.5134 26.3753 54.5249 27.3649 54.5326C29.3425 54.548 33.2142 54.548 40.9148 54.548V54.7948C33.2149 54.7948 29.3419 54.7948 27.363 54.7796C26.3745 54.7719 25.8557 54.7604 25.5681 54.7429C25.4246 54.7342 25.3335 54.7237 25.2683 54.7101C25.1982 54.6955 25.1594 54.6774 25.1232 54.6595L25.2328 54.4382ZM40.9148 54.548C48.6154 54.548 52.487 54.548 54.4646 54.5326C55.4543 54.5249 55.9666 54.5134 56.2465 54.4965C56.3868 54.4879 56.4635 54.4783 56.5108 54.4684C56.553 54.4596 56.5711 54.4509 56.5968 54.4382L56.7064 54.6595C56.6701 54.6774 56.6313 54.6955 56.5612 54.7101C56.496 54.7237 56.4049 54.7342 56.2615 54.7429C55.9739 54.7604 55.455 54.7719 54.4665 54.7796C52.4877 54.7948 48.6147 54.7948 40.9148 54.7948V54.548ZM56.5979 54.4376C56.7394 54.3693 56.8527 54.2594 56.9226 54.1243L57.142 54.2378C57.0469 54.4214 56.8937 54.5689 56.7053 54.66L56.5979 54.4376ZM56.9233 54.1231C56.9505 54.0719 56.9685 54.0315 56.9829 53.9713C56.9979 53.9081 57.0095 53.8195 57.0177 53.6722C57.0341 53.377 57.0358 52.8711 57.0358 51.9129H57.2826C57.2826 52.8672 57.2811 53.382 57.2642 53.6859C57.2558 53.8384 57.2432 53.944 57.2231 54.0284C57.2023 54.1159 57.1744 54.1767 57.1413 54.2389L56.9233 54.1231ZM57.0358 51.9129C57.0358 50.9547 57.0341 50.4487 57.0177 50.1534C57.0095 50.0062 56.9979 49.9176 56.9829 49.8544C56.9685 49.7942 56.9505 49.7538 56.9233 49.7027L57.1413 49.5868C57.1744 49.649 57.2023 49.7098 57.2231 49.7973C57.2432 49.8818 57.2558 49.9874 57.2642 50.1397C57.2811 50.4437 57.2826 50.9585 57.2826 51.9129H57.0358ZM56.9233 49.7027C56.7905 49.4513 56.4831 49.2778 56.1122 49.2778V49.0309C56.5535 49.0309 56.9568 49.2374 57.1413 49.5868L56.9233 49.7027ZM56.1122 49.2778H55.8267V49.0309H56.1122V49.2778ZM55.7032 49.1543V47.6831H55.9501V49.1543H55.7032ZM55.7032 47.6831C55.7032 47.0008 55.6999 46.6322 55.6829 46.4066C55.6665 46.1888 55.6384 46.1166 55.5901 46.0234L55.8094 45.9099C55.8754 46.0374 55.9107 46.143 55.9291 46.388C55.9471 46.6252 55.9501 47.0046 55.9501 47.6831H55.7032ZM55.5909 46.0249C55.504 45.8624 55.4005 45.7621 55.2431 45.6979C55.0781 45.6306 54.8457 45.5997 54.4941 45.5997V45.3528C54.8533 45.3528 55.1253 45.3833 55.3362 45.4692C55.5548 45.5583 55.6988 45.7032 55.8086 45.9084L55.5909 46.0249ZM54.4941 45.5997H53.923V45.3528H54.4941V45.5997ZM53.7996 45.4762V41.4304H54.0465V45.4762H53.7996ZM53.7996 41.4304V37.3846H54.0465V41.4304H53.7996ZM53.923 37.261H54.1768V37.508H53.923V37.261ZM54.1768 37.261C54.5126 37.261 54.8283 37.0781 54.956 36.8364L55.1744 36.9518C54.9975 37.2863 54.5898 37.508 54.1768 37.508V37.261ZM54.9556 36.8373C55.0038 36.7442 55.032 36.672 55.0484 36.4542C55.0654 36.2285 55.0686 35.86 55.0686 35.1777H55.3156C55.3156 35.8562 55.3124 36.2357 55.2946 36.4728C55.2761 36.7178 55.2409 36.8234 55.1748 36.9509L54.9556 36.8373ZM55.0686 35.1777V33.7065H55.3156V35.1777H55.0686ZM55.1921 33.583H55.7949V33.8299H55.1921V33.583ZM55.7949 33.583C56.1634 33.583 56.4037 33.5535 56.5729 33.4867C56.7334 33.4233 56.8362 33.3235 56.923 33.1585L57.1416 33.2735C57.0316 33.4825 56.8871 33.628 56.6636 33.7163C56.4488 33.8012 56.1689 33.8299 55.7949 33.8299V33.583ZM56.923 33.1585C56.9502 33.1074 56.9685 33.0666 56.9829 33.0064C56.9979 32.9432 57.0095 32.8546 57.0177 32.7073C57.0341 32.4121 57.0358 31.9062 57.0358 30.9479H57.2826C57.2826 31.9023 57.2811 32.4171 57.2642 32.721C57.2558 32.8734 57.2432 32.979 57.2231 33.0634C57.2023 33.1509 57.1747 33.2113 57.1416 33.2735L56.923 33.1585ZM57.0358 30.9479C57.0358 29.9897 57.0341 29.4838 57.0177 29.1885C57.0095 29.0413 56.9979 28.9527 56.9829 28.8895C56.9685 28.8293 56.9505 28.7889 56.9233 28.7377L57.141 28.6213C57.1741 28.6835 57.2023 28.7449 57.2231 28.8324C57.2432 28.9168 57.2558 29.0225 57.2642 29.1748C57.2811 29.4788 57.2826 29.9936 57.2826 30.9479H57.0358ZM56.9233 28.7377C56.8517 28.6047 56.7368 28.4903 56.6106 28.4293L56.718 28.2069C56.8962 28.2931 57.0476 28.4478 57.141 28.6213L56.9233 28.7377ZM56.6106 28.4293C56.5942 28.4213 56.5201 28.3935 56.3829 28.3459C56.2504 28.3 56.0672 28.2381 55.8405 28.1627C55.3871 28.0118 54.7607 27.8069 54.0194 27.5665C52.5368 27.0857 50.5953 26.463 48.66 25.8465C46.7248 25.2301 44.796 24.6201 43.3388 24.1645C42.6101 23.9367 41.9997 23.7476 41.5653 23.6157C41.3481 23.5498 41.1754 23.4982 41.0542 23.4634C40.9935 23.4459 40.9464 23.4328 40.9134 23.4242C40.8968 23.4199 40.8848 23.417 40.8769 23.4153C40.875 23.4149 40.8735 23.4146 40.8724 23.4144C40.8718 23.4142 40.8717 23.4142 40.8712 23.4141C40.8714 23.4142 40.8731 23.4144 40.8736 23.4144C40.875 23.4145 40.88 23.415 40.8869 23.4148L40.8792 23.168C40.8935 23.1676 40.906 23.1696 40.9099 23.1703C40.9164 23.1713 40.9231 23.1726 40.9293 23.174C40.942 23.1768 40.9576 23.1806 40.9756 23.1853C41.0116 23.1946 41.061 23.2084 41.1224 23.2261C41.2454 23.2615 41.4196 23.3134 41.6371 23.3795C42.0724 23.5117 42.6836 23.701 43.4124 23.9288C44.8702 24.3846 46.7995 24.9948 48.7349 25.6113C50.6705 26.2278 52.6124 26.8506 54.0956 27.3316C54.8371 27.5721 55.4641 27.7772 55.9185 27.9284C56.1455 28.004 56.3298 28.0662 56.4637 28.1126C56.593 28.1574 56.6844 28.1904 56.718 28.2069L56.6106 28.4293ZM40.89 23.4147C40.8991 23.4142 40.9029 23.4127 40.891 23.4155C40.8829 23.4173 40.8711 23.4203 40.8552 23.4246C40.8237 23.433 40.7792 23.4456 40.7219 23.4623C40.6074 23.4956 40.4446 23.5446 40.2385 23.6076C39.8263 23.7335 39.2427 23.915 38.5301 24.1387C37.1051 24.5861 35.1652 25.2021 33.0523 25.8794L32.977 25.6443C35.0901 24.9669 37.0306 24.3507 38.4562 23.9031C39.169 23.6793 39.7533 23.4976 40.1663 23.3714C40.3727 23.3084 40.5368 23.259 40.6528 23.2252C40.7107 23.2084 40.7573 23.1952 40.7914 23.186C40.8084 23.1815 40.8231 23.1777 40.835 23.175C40.8431 23.1731 40.8602 23.169 40.876 23.1681L40.89 23.4147ZM45.6481 26.5638L50.3121 28.0594L50.2367 28.2947L45.5727 26.7989L45.6481 26.5638ZM31.5806 28.0597L36.181 26.57L36.2573 26.8049L31.6567 28.2946L31.5806 28.0597ZM36.181 26.57C37.447 26.1593 38.6052 25.7853 39.451 25.514C39.8737 25.3784 40.2185 25.2684 40.4598 25.1922C40.5803 25.1542 40.6753 25.1245 40.7412 25.1043C40.7741 25.0942 40.8002 25.0864 40.8189 25.0809C40.8282 25.0783 40.8363 25.076 40.8429 25.0743C40.846 25.0734 40.8498 25.0725 40.8537 25.0716C40.8556 25.0712 40.8585 25.0706 40.8619 25.0701C40.8636 25.0698 40.8723 25.0683 40.8831 25.0683V25.3152C40.8934 25.3152 40.9011 25.3138 40.902 25.3137C40.9043 25.3133 40.906 25.313 40.9063 25.3129C40.9073 25.3127 40.9071 25.3127 40.9052 25.3132C40.9019 25.3141 40.8961 25.3156 40.8876 25.3181C40.8708 25.323 40.846 25.3304 40.8135 25.3404C40.7486 25.3603 40.6545 25.3897 40.5341 25.4277C40.2935 25.5037 39.949 25.6135 39.5263 25.7492C38.681 26.0203 37.5231 26.3942 36.2573 26.8049L36.181 26.57ZM40.8831 25.0683C40.8978 25.0683 40.9105 25.0712 40.9108 25.0712C40.9148 25.072 40.9189 25.073 40.9223 25.0738C40.9293 25.0756 40.9378 25.0779 40.9473 25.0805C40.9667 25.0859 40.9935 25.0937 41.0272 25.1037C41.0946 25.1238 41.1911 25.1533 41.3136 25.191C41.5586 25.2666 41.9084 25.3759 42.3368 25.5108C43.1936 25.7806 44.3661 26.153 45.6481 26.5638L45.5727 26.7989C44.2911 26.3883 43.119 26.0159 42.2626 25.7463C41.8344 25.6114 41.4852 25.5023 41.2409 25.427C41.1186 25.3893 41.0229 25.3601 40.9567 25.3404C40.9235 25.3305 40.8984 25.3232 40.8811 25.3184C40.8723 25.316 40.8665 25.3144 40.8631 25.3135C40.8612 25.3131 40.861 25.3131 40.862 25.3133C40.8623 25.3134 40.864 25.3137 40.8663 25.314C40.8675 25.3142 40.8742 25.3152 40.8831 25.3152V25.0683ZM55.379 30.9479V31.8674H55.1321V30.9479H55.379ZM55.2556 31.9909H40.9148V31.744H55.2556V31.9909ZM40.9148 31.9909H26.574V31.744H40.9148V31.9909ZM26.4505 31.8674V30.9479H26.6974V31.8674H26.4505ZM26.4505 30.9479V30.0284H26.6974V30.9479H26.4505ZM55.379 30.0284V30.9479H55.1321V30.0284H55.379ZM33.1064 34.6259V35.5455H32.8595V34.6259H33.1064ZM32.9829 35.669H30.762V35.4221H32.9829V35.669ZM30.762 35.669H28.5411V35.4221H30.762V35.669ZM28.4176 35.5455V34.6259H28.6645V35.5455H28.4176ZM28.4176 34.6259V33.7065H28.6645V34.6259H28.4176ZM28.5411 33.583H30.762V33.8299H28.5411V33.583ZM30.762 33.583H32.9829V33.8299H30.762V33.583ZM33.1064 33.7065V34.6259H32.8595V33.7065H33.1064ZM36.9136 35.1777C36.9136 35.86 36.9169 36.2285 36.9339 36.4542C36.9504 36.672 36.9785 36.7442 37.0268 36.8373L36.8074 36.9509C36.7415 36.8234 36.7062 36.7178 36.6877 36.4728C36.6698 36.2357 36.6668 35.8562 36.6668 35.1777H36.9136ZM37.0262 36.8364C37.154 37.0781 37.4697 37.261 37.8055 37.261V37.508C37.3925 37.508 36.9848 37.2863 36.808 36.9518L37.0262 36.8364ZM37.8055 37.261H38.0593V37.508H37.8055V37.261ZM38.1827 37.3846V41.4304H37.9359V37.3846H38.1827ZM38.1827 41.4304V45.4762H37.9359V41.4304H38.1827ZM38.0593 45.5997H35.8384V45.3528H38.0593V45.5997ZM35.8384 45.5997H33.6175V45.3528H35.8384V45.5997ZM33.494 45.4762V41.4304H33.7409V45.4762H33.494ZM33.494 41.4304V37.3846H33.7409V41.4304H33.494ZM33.6175 37.261H33.8713V37.508H33.6175V37.261ZM33.8713 37.261C34.2071 37.261 34.5227 37.0781 34.6505 36.8364L34.8688 36.9518C34.692 37.2863 34.2843 37.508 33.8713 37.508V37.261ZM34.65 36.8373C34.6983 36.7442 34.7264 36.672 34.7428 36.4542C34.7598 36.2285 34.7631 35.86 34.7631 35.1777H35.01C35.01 35.8562 35.0069 36.2357 34.989 36.4728C34.9706 36.7178 34.9353 36.8234 34.8693 36.9509L34.65 36.8373ZM34.7631 35.1777V33.7065H35.01V35.1777H34.7631ZM34.8866 33.583H35.8384V33.8299H34.8866V33.583ZM35.8384 33.583H36.7902V33.8299H35.8384V33.583ZM36.9136 33.7065V35.1777H36.6668V33.7065H36.9136ZM43.2591 34.6259V35.5455H43.0123V34.6259H43.2591ZM43.1357 35.669H40.9148V35.4221H43.1357V35.669ZM40.9148 35.669H38.6938V35.4221H40.9148V35.669ZM38.5704 35.5455V34.6259H38.8173V35.5455H38.5704ZM38.5704 34.6259V33.7065H38.8173V34.6259H38.5704ZM38.6938 33.583H40.9148V33.8299H38.6938V33.583ZM40.9148 33.583H43.1357V33.8299H40.9148V33.583ZM43.2591 33.7065V34.6259H43.0123V33.7065H43.2591ZM47.0664 35.1777C47.0664 35.86 47.0697 36.2285 47.0867 36.4542C47.1032 36.672 47.1313 36.7442 47.1796 36.8373L46.9602 36.9509C46.8943 36.8234 46.859 36.7178 46.8405 36.4728C46.8226 36.2357 46.8196 35.8562 46.8196 35.1777H47.0664ZM47.179 36.8364C47.3068 37.0781 47.6224 37.261 47.9583 37.261V37.508C47.5453 37.508 47.1376 37.2863 46.9608 36.9518L47.179 36.8364ZM47.9583 37.261H48.2121V37.508H47.9583V37.261ZM48.3355 37.3846V41.4304H48.0886V37.3846H48.3355ZM48.3355 41.4304V45.4762H48.0886V41.4304H48.3355ZM48.2121 45.5997H45.9911V45.3528H48.2121V45.5997ZM45.9911 45.5997H43.7702V45.3528H45.9911V45.5997ZM43.6468 45.4762V41.4304H43.8937V45.4762H43.6468ZM43.6468 41.4304V37.3846H43.8937V41.4304H43.6468ZM43.7702 37.261H44.0241V37.508H43.7702V37.261ZM44.0241 37.261C44.3598 37.261 44.6755 37.0781 44.8033 36.8364L45.0216 36.9518C44.8448 37.2863 44.4371 37.508 44.0241 37.508V37.261ZM44.8028 36.8373C44.851 36.7442 44.8792 36.672 44.8956 36.4542C44.9126 36.2285 44.9159 35.86 44.9159 35.1777H45.1628C45.1628 35.8562 45.1597 36.2357 45.1418 36.4728C45.1234 36.7178 45.0881 36.8234 45.0221 36.9509L44.8028 36.8373ZM44.9159 35.1777V33.7065H45.1628V35.1777H44.9159ZM45.0394 33.583H45.9911V33.8299H45.0394V33.583ZM45.9911 33.583H46.943V33.8299H45.9911V33.583ZM47.0664 33.7065V35.1777H46.8196V33.7065H47.0664ZM53.4119 34.6259V35.5455H53.165V34.6259H53.4119ZM53.2885 35.669H51.0675V35.4221H53.2885V35.669ZM51.0675 35.669H48.8466V35.4221H51.0675V35.669ZM48.7232 35.5455V34.6259H48.9701V35.5455H48.7232ZM48.7232 34.6259V33.7065H48.9701V34.6259H48.7232ZM48.8466 33.583H51.0675V33.8299H48.8466V33.583ZM51.0675 33.583H53.2885V33.8299H51.0675V33.583ZM53.4119 33.7065V34.6259H53.165V33.7065H53.4119ZM31.8373 41.4304V45.4762H31.5904V41.4304H31.8373ZM31.7138 45.5997H30.762V45.3528H31.7138V45.5997ZM30.762 45.5997H29.8102V45.3528H30.762V45.5997ZM29.6867 45.4762V41.4304H29.9336V45.4762H29.6867ZM29.6867 41.4304V37.3846H29.9336V41.4304H29.6867ZM29.8102 37.261H30.762V37.508H29.8102V37.261ZM30.762 37.261H31.7138V37.508H30.762V37.261ZM31.8373 37.3846V41.4304H31.5904V37.3846H31.8373ZM41.99 41.4304V45.4762H41.7432V41.4304H41.99ZM41.8666 45.5997H40.9148V45.3528H41.8666V45.5997ZM40.9148 45.5997H39.963V45.3528H40.9148V45.5997ZM39.8395 45.4762V41.4304H40.0864V45.4762H39.8395ZM39.8395 41.4304V37.3846H40.0864V41.4304H39.8395ZM39.963 37.261H40.9148V37.508H39.963V37.261ZM40.9148 37.261H41.8666V37.508H40.9148V37.261ZM41.99 37.3846V41.4304H41.7432V37.3846H41.99ZM52.1428 41.4304V45.4762H51.896V41.4304H52.1428ZM52.0194 45.5997H51.0675V45.3528H52.0194V45.5997ZM51.0675 45.5997H50.1157V45.3528H51.0675V45.5997ZM49.9923 45.4762V41.4304H50.2392V45.4762H49.9923ZM49.9923 41.4304V37.3846H50.2392V41.4304H49.9923ZM50.1157 37.261H51.0675V37.508H50.1157V37.261ZM51.0675 37.261H52.0194V37.508H51.0675V37.261ZM52.1428 37.3846V41.4304H51.896V37.3846H52.1428ZM54.0465 48.2348V49.1543H53.7996V48.2348H54.0465ZM27.7831 49.1543V48.2348H28.03V49.1543H27.7831ZM27.7831 48.2348V47.3153H28.03V48.2348H27.7831ZM27.9065 47.1919H40.9148V47.4387H27.9065V47.1919ZM40.9148 47.1919H53.923V47.4387H40.9148V47.1919ZM54.0465 47.3153V48.2348H53.7996V47.3153H54.0465ZM55.379 51.9129V52.8324H55.1321V51.9129H55.379ZM55.2556 52.9559H40.9148V52.7089H55.2556V52.9559ZM40.9148 52.9559H26.574V52.7089H40.9148V52.9559ZM26.4505 52.8324V51.9129H26.6974V52.8324H26.4505ZM26.4505 51.9129V50.9934H26.6974V51.9129H26.4505ZM55.379 50.9934V51.9129H55.1321V50.9934H55.379ZM31.6612 28.293L26.6165 30.1443L26.5314 29.9125L31.5761 28.0611L31.6612 28.293ZM50.3173 28.0614L55.2985 29.9127L55.2125 30.1441L50.2313 28.2928L50.3173 28.0614ZM26.574 50.8699H27.9065V51.1168H26.574V50.8699ZM28.03 49.1543V50.9934H27.7831V49.1543H28.03ZM53.923 50.8699H55.2556V51.1168H53.923V50.8699ZM54.0465 49.1543V50.9934H53.7996V49.1543H54.0465Z" fill="#FCFBF7"/>
</g>
</g>
<defs>
<clipPath id="clip0_3125_910">
<rect width="33.3333" height="32.4074" fill="white" transform="translate(24.6641 22.668)"/>
</clipPath>
</defs>
</svg>
