<svg width="81" height="80" viewBox="0 0 81 80" fill="none" xmlns="http://www.w3.org/2000/svg">
<path d="M20.4323 59.0006C9.57069 48.1391 9.57069 30.5289 20.4323 19.6673V19.6673C31.2939 8.80572 48.904 8.80572 59.7656 19.6673L60.4323 20.334C71.6621 31.5638 71.6621 49.7709 60.4323 61.0007L41.4323 80.0007L20.4323 59.0006Z" fill="#C70039"/>
<g clip-path="url(#clip0_2863_1075)">
<path fill-rule="evenodd" clip-rule="evenodd" d="M40.7976 28.6389C41.6007 28.6513 42.4624 28.6645 43.1174 28.1823C44.3623 27.2491 45.7409 27.4638 47.1532 27.844C48.817 28.2978 50.3553 28.5172 52.082 28.511C52.3202 28.5064 52.5354 28.505 52.7541 28.5372C52.8574 28.5524 52.9613 28.5751 53.0686 28.6084C54.554 29.2579 55.1744 30.2151 55.8582 31.5994L55.9671 31.822C56.4275 32.7461 56.5532 33.5311 56.4669 34.5486C56.4151 34.7881 56.3681 35.0152 56.3543 35.2598L56.354 35.4916L56.353 35.7564L56.3537 36.0383L56.3533 36.6313C56.3539 36.9425 56.3544 37.2537 56.3539 37.5648C56.3535 37.7686 56.3533 37.9722 56.3535 38.1759L56.3537 38.4668L56.353 38.751L56.354 39.0121C56.354 39.0833 56.3548 39.1545 56.3571 39.2257C56.3592 39.2898 56.3623 39.3538 56.3669 39.4177L56.4669 39.5151L56.4681 39.5373C56.4754 39.6931 56.4794 39.7745 56.4794 39.8559C56.4794 39.9373 56.4754 40.0188 56.4681 40.1746L56.4669 40.1968C56.3669 40.2941 56.3669 40.2941 56.3529 40.5651L56.3509 40.9322C56.3492 41.1448 56.3478 41.3574 56.3472 41.57L56.3458 42.0281C56.3447 42.3458 56.3435 42.6636 56.3431 42.9813C56.343 43.273 56.3421 43.5646 56.3409 43.8562L56.3388 44.2228C56.3367 44.5451 56.3351 44.8672 56.3347 45.1894L56.3341 45.6517L56.3324 45.8797L56.3312 46.0673L56.3306 46.3158L56.3314 46.5198V46.5313C56.3308 46.7196 56.3306 46.8094 56.3359 46.8989C56.3406 46.9785 56.3498 47.0579 56.3669 47.2062V47.2082C56.5626 47.5985 56.7692 47.7925 57.1353 48.036C57.3813 48.1873 57.3813 48.1873 57.5663 48.3768C57.5433 48.7348 57.5316 48.9167 57.4818 49.0881C57.4728 49.119 57.4625 49.1496 57.4508 49.1808C57.434 49.2256 57.4139 49.2717 57.3899 49.3219C57.335 49.4363 57.2595 49.5723 57.1529 49.7639L57.1506 49.7683C57.0994 49.8683 57.0486 49.9683 56.9985 50.0687C56.9553 50.1552 56.9127 50.242 56.8709 50.3293C56.8061 50.4652 56.74 50.6005 56.6726 50.7353L56.5731 50.9331C56.5144 51.0586 56.4532 51.1829 56.3892 51.3058C56.2892 51.4637 56.2391 51.5428 56.1671 51.5904C56.1608 51.5946 56.1544 51.5985 56.1477 51.6022C56.1159 51.6199 56.079 51.6329 56.0321 51.6444C55.9757 51.6583 55.9047 51.6703 55.8102 51.6862C55.2599 51.5277 54.9788 51.4467 54.7359 51.3037C54.4823 51.1544 54.2707 50.9375 53.8382 50.4941C52.236 48.8623 52.1071 46.9167 52.139 44.7741C52.1423 44.5438 52.1451 44.3136 52.1471 44.0834L52.153 43.347C52.1565 42.9731 52.1609 42.5991 52.1663 42.2251L52.1691 42.047C51.9121 41.9913 51.7222 41.9501 51.5668 41.9094C51.4272 41.8729 51.3154 41.8368 51.208 41.791C51.1078 41.7482 51.0114 41.6971 50.8999 41.6293C50.8447 41.5958 50.786 41.5581 50.7212 41.5155C50.6806 41.4886 50.6376 41.4599 50.5915 41.4289C50.5142 41.3767 50.4285 41.3182 50.3319 41.2521L50.1201 41.1037C49.5397 40.7017 49.0115 40.291 48.5273 39.78L48.3709 39.6125L48.3686 39.6307C48.3288 39.9778 48.3009 40.222 48.2802 40.4668C48.2316 41.0391 48.2228 41.6145 48.1939 43.5117L48.1921 43.6515L48.1916 43.6848C48.1885 43.922 48.1853 44.1593 48.1808 44.3965C48.1777 44.5586 48.174 44.7206 48.1691 44.8827L48.1607 45.1218L48.1543 45.2941C48.083 47.2091 48.0217 48.8508 49.3675 50.4379L49.3687 50.4392C49.4142 50.4847 49.4479 50.5185 49.4753 50.5469C49.503 50.5759 49.5239 50.5993 49.5432 50.6237C49.5792 50.6689 49.6104 50.7176 49.6703 50.8113C49.7275 51.1275 49.7021 51.2513 49.52 51.5203C49.24 51.7082 49.0406 51.7352 48.704 51.7406L48.4775 51.7382C48.2247 51.7404 47.9723 51.7419 47.7195 51.7409C47.5388 51.74 47.3581 51.7396 47.1774 51.7399C46.8006 51.7409 46.424 51.7413 46.0473 51.7399C45.7793 51.7386 45.5115 51.7377 45.2434 51.7375C45.0212 51.7373 44.7991 51.7375 44.577 51.7386L44.0482 51.7404L43.8004 51.7408L43.4299 51.7406L42.8827 51.7395C42.6202 51.7409 42.3575 51.742 42.095 51.7403L41.8547 51.7382C41.5812 51.7411 41.3479 51.727 41.0746 51.6878C40.8634 51.4876 40.7922 51.3589 40.7135 51.085L40.6791 50.8467L40.6368 50.5665L40.5936 50.2575L40.4925 49.5743C40.4183 49.0604 40.3419 48.5469 40.2629 48.0337L40.0076 46.3696L39.9481 45.9789L39.9119 45.7388C39.8916 45.6079 39.8723 45.4769 39.8536 45.346C39.8264 45.1555 39.8006 44.9649 39.7753 44.7737L39.5754 42.9234H35.4775V42.9253C35.4812 43.1254 35.4829 43.2193 35.4775 43.3128C35.4755 43.3448 35.4727 43.3768 35.4688 43.413C35.463 43.4692 35.4546 43.5354 35.4429 43.6276L35.4423 43.6317L35.3671 44.2161L35.34 44.4305C35.2826 44.882 35.2301 45.3339 35.178 45.7859C35.1343 46.1671 35.0899 46.5471 35.0296 46.9262C34.8254 48.1296 35.0745 48.8442 35.7364 49.8894C35.8157 50.0128 35.894 50.1358 35.9699 50.2602C36.0414 50.3772 36.1109 50.4955 36.1771 50.6166C36.2923 50.9403 36.3295 51.1875 36.1773 51.5089C36.0068 51.6201 35.9204 51.6764 35.8253 51.7055C35.7277 51.7355 35.6207 51.7368 35.404 51.7395L35.168 51.7367C34.9057 51.7383 34.6435 51.7393 34.3813 51.7379C34.1935 51.7367 34.0057 51.7361 33.8179 51.7361C33.4269 51.7367 33.0359 51.7367 32.645 51.7349C32.1358 51.732 31.6266 51.7301 31.1173 51.7313C30.7205 51.7322 30.3236 51.7324 29.9267 51.7316L29.3586 51.73L29.043 51.7305L28.8198 51.7303L28.5403 51.7292L28.2906 51.7272C27.9318 51.7292 27.5999 51.7575 27.2837 51.5714C27.2285 51.4875 27.1996 51.4434 27.1814 51.3953C27.1613 51.3421 27.1547 51.2841 27.1408 51.1618L27.1365 50.881L27.1297 50.5613L27.1277 50.2137C27.1252 49.9679 27.123 49.7221 27.1211 49.4764C27.1207 49.2158 27.1201 48.9555 27.1174 48.695C27.1162 48.5703 27.1146 48.4456 27.1123 48.3209C27.0838 46.7662 27.1861 45.4043 27.7065 43.9278C28.333 42.1583 28.5663 40.0341 28.1311 38.2005C28.0009 37.6652 27.9576 37.1645 27.9504 36.614L27.95 36.3137C27.9455 35.496 28.0286 34.7784 28.3064 34.0051C28.3341 33.9385 28.3623 33.8721 28.3904 33.8058C28.4638 33.6319 28.5372 33.4585 28.603 33.2827H28.6808L28.9807 32.6984L28.7808 32.601L28.0811 33.2827H28.2533C27.3899 34.3288 26.9317 35.4265 26.9313 36.8789C26.9325 37.012 26.9337 37.1451 26.9341 37.2782C26.9345 37.3627 26.9345 37.4474 26.9341 37.532L26.9313 38.136C26.9308 38.4023 26.9308 38.6685 26.9311 38.9348V39.007C26.9323 39.5372 26.9335 40.0672 26.9308 40.5974C26.93 40.719 26.9294 40.8406 26.9294 40.9623V41.105L26.9315 41.4928L26.9311 41.6865L26.93 41.8825L26.9309 42.2362C26.8718 42.5942 26.7771 42.7088 26.482 42.9234C26.3279 42.9564 26.2518 42.9726 26.1761 42.9721C26.1483 42.972 26.1206 42.9696 26.0892 42.965C26.0365 42.9574 25.9734 42.9435 25.8823 42.9234C25.6468 42.6991 25.5861 42.5621 25.5438 42.2418L25.542 41.8961C25.5398 41.695 25.5383 41.4941 25.5385 41.293C25.5389 41.1484 25.5389 41.0039 25.5385 40.8594C25.5377 40.7003 25.5371 40.5413 25.5369 40.3822C25.5367 40.2379 25.5367 40.0937 25.5371 39.9493L25.5379 39.4603L25.5377 39.1216L25.5367 38.9238L25.5357 38.7742C25.5334 38.4682 25.5322 38.1623 25.5324 37.8563L25.5328 37.4134C25.5281 36.8779 25.5311 36.3486 25.5824 35.8146C25.9082 34.105 26.7732 32.5744 28.2112 31.5192L28.4809 31.3351C29.0521 30.9327 29.6091 30.6981 30.28 30.5073C30.7566 30.3734 31.1743 30.2371 31.5981 29.9778C33.6627 28.6845 35.8733 28.6493 38.2546 28.6455C38.5316 28.6451 38.8085 28.6444 39.0856 28.6433C39.396 28.6421 39.7064 28.6403 40.0168 28.6379L40.4355 28.635C40.5542 28.6351 40.6752 28.637 40.7976 28.6389ZM36.4262 29.9337L36.8237 29.9354C36.9677 29.936 37.1118 29.937 37.2558 29.9383L37.6119 29.942L37.8538 29.945C38.2064 29.949 38.5587 29.9508 38.9113 29.9527C39.5992 29.9568 40.2869 29.9635 40.9747 29.9717C40.873 30.2237 40.7697 30.4685 40.6459 30.7112C40.316 31.4106 40.2268 32.007 40.225 32.7714L40.2233 33.0295C40.245 34.1328 40.705 35.3131 41.4799 36.1307C41.9373 36.5324 42.4593 36.851 42.9737 37.1779L43.211 37.3297C43.6409 37.6043 44.0716 37.8774 44.5037 38.1483C44.7759 38.319 45.0464 38.4913 45.3135 38.6695L45.5911 38.8517L45.814 39.002C45.9343 39.0596 46.0446 39.102 46.157 39.1367C46.2769 39.1737 46.3991 39.202 46.5381 39.2306L46.784 39.282L46.9716 39.3203L46.9664 39.6779C46.95 40.7937 46.9381 41.9097 46.9302 43.0258C46.9261 43.5994 46.9205 44.1731 46.9113 44.7466C46.9026 45.301 46.8978 45.8553 46.8959 46.4098C46.8944 46.6205 46.8914 46.8312 46.8871 47.0418C46.8612 48.3547 46.9373 49.1736 47.7713 50.2271V50.4218H45.0726C44.9518 50.1865 44.9264 49.9587 44.8983 49.707L44.8825 49.5709L44.8575 49.3712C44.8309 49.1595 44.805 48.9477 44.779 48.7359C44.6719 47.8665 44.5598 46.9998 44.4192 46.1348C44.3484 45.6903 44.2894 45.2441 44.2293 44.798C44.1311 44.0787 44.0163 43.3653 43.8787 42.6522C43.7695 42.0691 43.704 41.4837 43.6555 40.893C43.6099 40.4132 43.489 40.047 43.2735 39.6125C43.1443 39.6102 43.0148 39.6092 42.8854 39.6095C42.7816 39.6097 42.6777 39.6107 42.5739 39.6125L42.4739 39.7099V41.7549H35.5774L35.4775 39.9046C35.3324 39.7297 35.2666 39.6503 35.1813 39.6138C35.1104 39.5835 35.0261 39.583 34.8715 39.582C34.8063 39.5824 34.755 39.5826 34.7128 39.585C34.6548 39.5882 34.6142 39.5955 34.5783 39.6124C34.5552 39.6232 34.5341 39.638 34.5117 39.6582C34.4752 39.6913 34.4354 39.7388 34.378 39.8072C34.3604 39.9515 34.3524 40.0179 34.3489 40.0982C34.346 40.1667 34.3464 40.2452 34.3471 40.3908L34.3401 40.7593L34.3374 40.9563C34.3137 42.5007 34.1724 44.0197 33.9781 45.5527L33.8907 46.2558L33.8632 46.4877C33.8492 46.6068 33.8357 46.7258 33.8224 46.845C33.7927 47.0891 33.7561 47.3324 33.7123 47.5746C33.5516 48.6838 33.9799 49.3684 34.548 50.2768L34.5779 50.3244V50.4218H31.5794C31.4064 48.806 31.2467 47.1966 31.1443 45.5753L31.1226 45.2389L31.1046 44.9444C31.0949 44.8394 31.0812 44.7367 31.0648 44.6348L31.0556 44.5789C31.0509 44.5511 31.0459 44.5233 31.0408 44.4955L31.0209 44.391C31.0078 44.3242 30.9939 44.2572 30.9797 44.1894L30.9682 43.9492C30.9635 43.8452 30.9592 43.7412 30.9559 43.6372C30.9053 42.2003 30.4899 40.9358 29.9554 39.6067C29.8582 39.3627 29.7647 39.1173 29.6737 38.8711L29.6235 38.7346C29.59 38.6427 29.5568 38.5506 29.5238 38.4585C29.4756 38.324 29.4279 38.1893 29.3805 38.0544L29.3051 37.8513C28.8431 36.4093 29.2669 34.7644 29.899 33.4409C30.2424 32.8127 30.658 32.3168 31.1796 31.822L31.3584 31.6382C31.7691 31.246 32.2339 30.9869 32.7413 30.7325L32.9274 30.6378C34.0551 30.0992 35.1797 29.9135 36.4262 29.9337ZM51.2418 29.6503C49.8546 29.6682 48.6079 29.5115 47.2754 29.1305C46.1018 28.7912 44.7892 28.4584 43.7135 29.203L43.4734 29.3874C42.9075 29.7901 42.3954 30.1944 41.9742 30.7447C41.3604 31.6756 41.2275 32.6638 41.4495 33.7453C41.8603 34.7863 42.4271 35.4989 43.3905 36.1189L43.6546 36.2833L44.2133 36.6359C44.4878 36.8062 44.762 36.9763 45.0345 37.1495C45.1985 37.2539 45.3631 37.3576 45.5282 37.4605L45.7598 37.604C46.1568 37.8574 46.4695 38.0365 46.9412 38.119C47.1034 38.0873 47.186 38.0711 47.2596 38.0368C47.2699 38.0319 47.2801 38.0267 47.2902 38.0211C47.3123 38.0089 47.3346 37.9944 47.3589 37.9768C47.4052 37.9434 47.4595 37.8986 47.5356 37.8356L47.538 37.8334C47.6009 37.7552 47.65 37.6939 47.6887 37.637C47.7137 37.6 47.7344 37.565 47.7513 37.5283C47.7754 37.4768 47.7921 37.422 47.8043 37.3547C47.8314 37.204 47.8347 36.9896 47.8406 36.6047L47.8384 36.2662C47.8425 35.9056 47.8458 35.5452 47.8462 35.1847C47.8462 34.81 47.8484 34.4355 47.8513 34.0608L47.8571 33.3508L47.8575 33.0093L47.8587 32.696C47.8587 32.6789 47.8583 32.6619 47.8579 32.6452C47.8571 32.6176 47.8557 32.5906 47.8544 32.5639C47.8458 32.3949 47.8382 32.2437 47.9712 32.1141C48.2843 32.0463 48.549 31.9495 48.8402 32.1103C48.9244 32.2931 48.9668 32.3854 48.9892 32.4821C49.0123 32.5805 49.0147 32.6835 49.0199 32.8913L49.0218 33.1256C49.0275 33.3739 49.0327 33.6221 49.0361 33.8704C49.0384 34.0431 49.0411 34.2159 49.0444 34.3886C49.0526 34.7877 49.0605 35.1868 49.0663 35.5859L49.0706 35.912L49.2968 35.9086L49.595 35.9059C50.5178 35.8952 51.0145 36.2048 51.7142 36.7717C52.3037 37.2607 52.8895 37.7265 53.5486 38.1241L53.7495 38.2431C54.1499 38.4827 54.5005 38.6587 54.9676 38.7361V38.7324L55.0113 36.9041C55.0172 36.6431 55.0233 36.3822 55.0297 36.1212L55.036 35.8736C55.0391 35.7264 55.0433 35.5799 55.049 35.4333C55.0541 35.3008 55.0604 35.1684 55.0676 35.0355C55.1728 34.7282 55.1806 34.4654 55.1812 34.1435L55.18 33.9157C55.1837 33.1875 55.0385 32.72 54.7022 32.0765L54.5554 31.7976C54.2951 31.287 54.0404 30.7932 53.6441 30.3689C52.9308 29.7374 52.1775 29.6435 51.2418 29.6503ZM41.4547 42.9192L41.768 42.9174L42.0255 42.9149L42.2705 42.914L42.4971 42.9124C42.5944 42.9185 42.6381 42.9212 42.6744 42.9386C42.704 42.9529 42.7288 42.977 42.7737 43.0208C42.7933 43.1324 42.8113 43.2441 42.8281 43.356C42.8447 43.4653 42.8602 43.5748 42.8753 43.6842L42.9557 44.2647L42.9986 44.5789C43.043 44.899 43.0877 45.2191 43.1326 45.5391L43.1673 45.7868C43.1906 45.9508 43.2142 46.1147 43.2381 46.2785C43.2956 46.6684 43.3555 47.0579 43.4176 47.4472L43.4525 47.6677L43.5409 48.2175C43.5673 48.3805 43.5939 48.5436 43.6208 48.7066L43.6815 49.0844L43.7352 49.4124C43.774 49.7472 43.7737 50.0855 43.7733 50.4227V50.5192H41.9742C41.8301 50.0283 41.7288 49.6056 41.6595 49.1068L41.6298 48.8977C41.5984 48.6734 41.5675 48.4491 41.5369 48.2247L41.4715 47.7568L41.3392 46.8011C41.2876 46.4262 41.235 46.0514 41.1824 45.6767C41.1357 45.3453 41.0895 45.0139 41.0434 44.6824L40.9915 44.3142L40.9446 43.9737L40.9034 43.6782C40.8761 43.4242 40.8692 43.1786 40.8747 42.9234L41.4547 42.9192ZM54.9682 41.8567L54.9676 41.6575C54.9577 41.6575 54.9577 41.6575 54.3859 41.8496L53.7237 42.0626L53.4684 42.1444L53.4621 42.5102L53.4582 42.7568L53.4526 43.1679C53.4504 43.3439 53.4483 43.52 53.4465 43.6961L53.444 43.9519C53.442 44.1995 53.4397 44.447 53.4371 44.6946C53.4354 44.793 53.4329 44.8919 53.4299 44.9913C53.427 45.0972 53.4235 45.2035 53.4198 45.3103C53.3937 46.0872 53.3669 46.882 53.5139 47.6358C53.8188 48.7175 54.5032 49.6268 55.4674 50.2271C55.7069 49.8395 55.9273 49.4627 56.0795 49.0341C56.0768 48.9755 56.0747 48.9296 56.0708 48.8917C56.0661 48.8464 56.0588 48.8123 56.0452 48.7809C56.0351 48.7575 56.0212 48.7357 56.0021 48.7119C55.9706 48.6725 55.9247 48.6278 55.8571 48.562L55.8547 48.5594L55.7144 48.439C55.1422 47.8174 55.0102 46.9492 54.9957 46.147L54.9969 45.8038C54.9923 45.4334 54.9882 45.0632 54.9871 44.6927C54.9868 44.4362 54.9852 44.1798 54.9829 43.9232C54.9757 43.2344 54.9702 42.5456 54.9682 41.8567ZM29.4804 42.047C29.6922 42.3565 29.7145 42.4788 29.7457 42.8389L29.7742 43.1487L29.8022 43.4853L29.8336 43.8355L29.8826 44.3934L29.9302 44.9502L30.0538 46.3513L30.12 47.1115C30.1584 47.5503 30.1982 47.989 30.2402 48.4275L30.2687 48.7244C30.2861 48.9051 30.3039 49.0858 30.3218 49.2665L30.345 49.5092L30.3657 49.7171C30.3808 49.9445 30.3804 50.1727 30.38 50.4008V50.5192H28.381C28.2922 47.3562 28.2647 46.3715 28.4979 45.4494C28.6035 45.0325 28.7625 44.6285 28.9932 44.0417C29.1425 43.6292 29.2331 43.2051 29.3243 42.7774L29.3739 42.5508L29.41 42.3824C29.4338 42.2707 29.4572 42.1589 29.4804 42.047ZM50.8682 37.5851C50.6226 37.3466 50.3879 37.1186 50.0486 37.009C49.682 36.9851 49.4719 37.0796 49.1706 37.2753L49.1694 37.2768C49.0443 37.4597 48.998 37.5276 48.9724 37.6024C48.9576 37.6461 48.9495 37.6921 48.9371 37.7648V37.7665C48.9296 38.1684 48.9574 38.417 49.2315 38.7178C50.2188 39.7009 51.5791 40.9972 53.0686 41.0184C53.908 40.9782 54.3886 40.6958 54.9676 40.0994C53.5468 39.5265 52.1173 38.7293 50.9876 37.7003C50.9472 37.6619 50.9075 37.6234 50.8682 37.5851Z" fill="#FCFBF7"/>
<path d="M53.1776 33.2309C53.1776 33.5267 52.9315 33.7665 52.6278 33.7665C52.3243 33.7665 52.0781 33.5267 52.0781 33.2309C52.0781 32.9351 52.3243 32.6953 52.6278 32.6953C52.9315 32.6953 53.1776 32.9351 53.1776 33.2309Z" fill="#FCFBF7"/>
<path fill-rule="evenodd" clip-rule="evenodd" d="M40.7976 28.6389C41.6007 28.6513 42.4624 28.6645 43.1174 28.1823C44.3623 27.2491 45.7409 27.4638 47.1532 27.844C48.817 28.2978 50.3553 28.5172 52.082 28.511C52.3202 28.5064 52.5354 28.505 52.7541 28.5372C52.8574 28.5524 52.9613 28.5751 53.0686 28.6084C54.554 29.2579 55.1744 30.2151 55.8582 31.5994L55.9671 31.822C56.4275 32.7461 56.5532 33.5311 56.4669 34.5486C56.4151 34.7881 56.3681 35.0152 56.3543 35.2598L56.354 35.4916L56.353 35.7564L56.3537 36.0383L56.3533 36.6313C56.3539 36.9425 56.3544 37.2537 56.3539 37.5648C56.3535 37.7686 56.3533 37.9722 56.3535 38.1759L56.3537 38.4668L56.353 38.751L56.354 39.0121C56.354 39.0833 56.3548 39.1545 56.3571 39.2257C56.3592 39.2898 56.3623 39.3538 56.3669 39.4177L56.4669 39.5151L56.4681 39.5373C56.4754 39.6931 56.4794 39.7745 56.4794 39.8559C56.4794 39.9373 56.4754 40.0188 56.4681 40.1746L56.4669 40.1968C56.3669 40.2941 56.3669 40.2941 56.3529 40.5651L56.3509 40.9322C56.3492 41.1448 56.3478 41.3574 56.3472 41.57L56.3458 42.0281C56.3447 42.3458 56.3435 42.6636 56.3431 42.9813C56.343 43.273 56.3421 43.5646 56.3409 43.8562L56.3388 44.2228C56.3367 44.5451 56.3351 44.8672 56.3347 45.1894L56.3341 45.6517L56.3324 45.8797L56.3312 46.0673L56.3306 46.3158L56.3314 46.5198V46.5313C56.3308 46.7196 56.3306 46.8094 56.3359 46.8989C56.3406 46.9785 56.3498 47.0579 56.3669 47.2062V47.2082C56.5626 47.5985 56.7692 47.7925 57.1353 48.036C57.3813 48.1873 57.3813 48.1873 57.5663 48.3768C57.5433 48.7348 57.5316 48.9167 57.4818 49.0881C57.4728 49.119 57.4625 49.1496 57.4508 49.1808C57.434 49.2256 57.4139 49.2717 57.3899 49.3219C57.335 49.4363 57.2595 49.5723 57.1529 49.7639L57.1506 49.7683C57.0994 49.8683 57.0486 49.9683 56.9985 50.0687C56.9553 50.1552 56.9127 50.242 56.8709 50.3293C56.8061 50.4652 56.74 50.6005 56.6726 50.7353L56.5731 50.9331C56.5144 51.0586 56.4532 51.1829 56.3892 51.3058C56.2892 51.4637 56.2391 51.5428 56.1671 51.5904C56.1608 51.5946 56.1544 51.5985 56.1477 51.6022C56.1159 51.6199 56.079 51.6329 56.0321 51.6444C55.9757 51.6583 55.9047 51.6703 55.8102 51.6862C55.2599 51.5277 54.9788 51.4467 54.7359 51.3037C54.4823 51.1544 54.2707 50.9375 53.8382 50.4941C52.236 48.8623 52.1071 46.9167 52.139 44.7741C52.1423 44.5438 52.1451 44.3136 52.1471 44.0834L52.153 43.347C52.1565 42.9731 52.1609 42.5991 52.1663 42.2251L52.1691 42.047C51.9121 41.9913 51.7222 41.9501 51.5668 41.9094C51.4272 41.8729 51.3154 41.8368 51.208 41.791C51.1078 41.7482 51.0114 41.6971 50.8999 41.6293C50.8447 41.5958 50.786 41.5581 50.7212 41.5155C50.6806 41.4886 50.6376 41.4599 50.5915 41.4289C50.5142 41.3767 50.4285 41.3182 50.3319 41.2521L50.1201 41.1037C49.5397 40.7017 49.0115 40.291 48.5273 39.78L48.3709 39.6125L48.3686 39.6307C48.3288 39.9778 48.3009 40.222 48.2802 40.4668C48.2316 41.0391 48.2228 41.6145 48.1939 43.5117L48.1921 43.6515L48.1916 43.6848C48.1885 43.922 48.1853 44.1593 48.1808 44.3965C48.1777 44.5586 48.174 44.7206 48.1691 44.8827L48.1607 45.1218L48.1543 45.2941C48.083 47.2091 48.0217 48.8508 49.3675 50.4379L49.3687 50.4392C49.4142 50.4847 49.4479 50.5185 49.4753 50.5469C49.503 50.5759 49.5239 50.5993 49.5432 50.6237C49.5792 50.6689 49.6104 50.7176 49.6703 50.8113C49.7275 51.1275 49.7021 51.2513 49.52 51.5203C49.24 51.7082 49.0406 51.7352 48.704 51.7406L48.4775 51.7382C48.2247 51.7404 47.9723 51.7419 47.7195 51.7409C47.5388 51.74 47.3581 51.7396 47.1774 51.7399C46.8006 51.7409 46.424 51.7413 46.0473 51.7399C45.7793 51.7386 45.5115 51.7377 45.2434 51.7375C45.0212 51.7373 44.7991 51.7375 44.577 51.7386L44.0482 51.7404L43.8004 51.7408L43.4299 51.7406L42.8827 51.7395C42.6202 51.7409 42.3575 51.742 42.095 51.7403L41.8547 51.7382C41.5812 51.7411 41.3479 51.727 41.0746 51.6878C40.8634 51.4876 40.7922 51.3589 40.7135 51.085L40.6791 50.8467L40.6368 50.5665L40.5936 50.2575L40.4925 49.5743C40.4183 49.0604 40.3419 48.5469 40.2629 48.0337L40.0076 46.3696L39.9481 45.9789L39.9119 45.7388C39.8916 45.6079 39.8723 45.4769 39.8536 45.346C39.8264 45.1555 39.8006 44.9649 39.7753 44.7737L39.5754 42.9234H35.4775V42.9253C35.4812 43.1254 35.4829 43.2193 35.4775 43.3128C35.4755 43.3448 35.4727 43.3768 35.4688 43.413C35.463 43.4692 35.4546 43.5354 35.4429 43.6276L35.4423 43.6317L35.3671 44.2161L35.34 44.4305C35.2826 44.882 35.2301 45.3339 35.178 45.7859C35.1343 46.1671 35.0899 46.5471 35.0296 46.9262C34.8254 48.1296 35.0745 48.8442 35.7364 49.8894C35.8157 50.0128 35.894 50.1358 35.9699 50.2602C36.0414 50.3772 36.1109 50.4955 36.1771 50.6166C36.2923 50.9403 36.3295 51.1875 36.1773 51.5089C36.0068 51.6201 35.9204 51.6764 35.8253 51.7055C35.7277 51.7355 35.6207 51.7368 35.404 51.7395L35.168 51.7367C34.9057 51.7383 34.6435 51.7393 34.3813 51.7379C34.1935 51.7367 34.0057 51.7361 33.8179 51.7361C33.4269 51.7367 33.0359 51.7367 32.645 51.7349C32.1358 51.732 31.6266 51.7301 31.1173 51.7313C30.7205 51.7322 30.3236 51.7324 29.9267 51.7316L29.3586 51.73L29.043 51.7305L28.8198 51.7303L28.5403 51.7292L28.2906 51.7272C27.9318 51.7292 27.5999 51.7575 27.2837 51.5714C27.2285 51.4875 27.1996 51.4434 27.1814 51.3953C27.1613 51.3421 27.1547 51.2841 27.1408 51.1618L27.1365 50.881L27.1297 50.5613L27.1277 50.2137C27.1252 49.9679 27.123 49.7221 27.1211 49.4764C27.1207 49.2158 27.1201 48.9555 27.1174 48.695C27.1162 48.5703 27.1146 48.4456 27.1123 48.3209C27.0838 46.7662 27.1861 45.4043 27.7065 43.9278C28.333 42.1583 28.5663 40.0341 28.1311 38.2005C28.0009 37.6652 27.9576 37.1645 27.9504 36.614L27.95 36.3137C27.9455 35.496 28.0286 34.7784 28.3064 34.0051C28.3341 33.9385 28.3623 33.8721 28.3904 33.8058C28.4638 33.6319 28.5372 33.4585 28.603 33.2827H28.6808L28.9807 32.6984L28.7808 32.601L28.0811 33.2827H28.2533C27.3899 34.3288 26.9317 35.4265 26.9313 36.8789C26.9325 37.012 26.9337 37.1451 26.9341 37.2782C26.9345 37.3627 26.9345 37.4474 26.9341 37.532L26.9313 38.136C26.9308 38.4023 26.9308 38.6685 26.9311 38.9348V39.007C26.9323 39.5372 26.9335 40.0672 26.9308 40.5974C26.93 40.719 26.9294 40.8406 26.9294 40.9623V41.105L26.9315 41.4928L26.9311 41.6865L26.93 41.8825L26.9309 42.2362C26.8718 42.5942 26.7771 42.7088 26.482 42.9234C26.3279 42.9564 26.2518 42.9726 26.1761 42.9721C26.1483 42.972 26.1206 42.9696 26.0892 42.965C26.0365 42.9574 25.9734 42.9435 25.8823 42.9234C25.6468 42.6991 25.5861 42.5621 25.5438 42.2418L25.542 41.8961C25.5398 41.695 25.5383 41.4941 25.5385 41.293C25.5389 41.1484 25.5389 41.0039 25.5385 40.8594C25.5377 40.7003 25.5371 40.5413 25.5369 40.3822C25.5367 40.2379 25.5367 40.0937 25.5371 39.9493L25.5379 39.4603L25.5377 39.1216L25.5367 38.9238L25.5357 38.7742C25.5334 38.4682 25.5322 38.1623 25.5324 37.8563L25.5328 37.4134C25.5281 36.8779 25.5311 36.3486 25.5824 35.8146C25.9082 34.105 26.7732 32.5744 28.2112 31.5192L28.4809 31.3351C29.0521 30.9327 29.6091 30.6981 30.28 30.5073C30.7566 30.3734 31.1743 30.2371 31.5981 29.9778C33.6627 28.6845 35.8733 28.6493 38.2546 28.6455C38.5316 28.6451 38.8085 28.6444 39.0856 28.6433C39.396 28.6421 39.7064 28.6403 40.0168 28.6379L40.4355 28.635C40.5542 28.6351 40.6752 28.637 40.7976 28.6389ZM36.4262 29.9337L36.8237 29.9354C36.9677 29.936 37.1118 29.937 37.2558 29.9383L37.6119 29.942L37.8538 29.945C38.2064 29.949 38.5587 29.9508 38.9113 29.9527C39.5992 29.9568 40.2869 29.9635 40.9747 29.9717C40.873 30.2237 40.7697 30.4685 40.6459 30.7112C40.316 31.4106 40.2268 32.007 40.225 32.7714L40.2233 33.0295C40.245 34.1328 40.705 35.3131 41.4799 36.1307C41.9373 36.5324 42.4593 36.851 42.9737 37.1779L43.211 37.3297C43.6409 37.6043 44.0716 37.8774 44.5037 38.1483C44.7759 38.319 45.0464 38.4913 45.3135 38.6695L45.5911 38.8517L45.814 39.002C45.9343 39.0596 46.0446 39.102 46.157 39.1367C46.2769 39.1737 46.3991 39.202 46.5381 39.2306L46.784 39.282L46.9716 39.3203L46.9664 39.6779C46.95 40.7937 46.9381 41.9097 46.9302 43.0258C46.9261 43.5994 46.9205 44.1731 46.9113 44.7466C46.9026 45.301 46.8978 45.8553 46.8959 46.4098C46.8944 46.6205 46.8914 46.8312 46.8871 47.0418C46.8612 48.3547 46.9373 49.1736 47.7713 50.2271V50.4218H45.0726C44.9518 50.1865 44.9264 49.9587 44.8983 49.707L44.8825 49.5709L44.8575 49.3712C44.8309 49.1595 44.805 48.9477 44.779 48.7359C44.6719 47.8665 44.5598 46.9998 44.4192 46.1348C44.3484 45.6903 44.2894 45.2441 44.2293 44.798C44.1311 44.0787 44.0163 43.3653 43.8787 42.6522C43.7695 42.0691 43.704 41.4837 43.6555 40.893C43.6099 40.4132 43.489 40.047 43.2735 39.6125C43.1443 39.6102 43.0148 39.6092 42.8854 39.6095C42.7816 39.6097 42.6777 39.6107 42.5739 39.6125L42.4739 39.7099V41.7549H35.5774L35.4775 39.9046C35.3324 39.7297 35.2666 39.6503 35.1813 39.6138C35.1104 39.5835 35.0261 39.583 34.8715 39.582C34.8063 39.5824 34.755 39.5826 34.7128 39.585C34.6548 39.5882 34.6142 39.5955 34.5783 39.6124C34.5552 39.6232 34.5341 39.638 34.5117 39.6582C34.4752 39.6913 34.4354 39.7388 34.378 39.8072C34.3604 39.9515 34.3524 40.0179 34.3489 40.0982C34.346 40.1667 34.3464 40.2452 34.3471 40.3908L34.3401 40.7593L34.3374 40.9563C34.3137 42.5007 34.1724 44.0197 33.9781 45.5527L33.8907 46.2558L33.8632 46.4877C33.8492 46.6068 33.8357 46.7258 33.8224 46.845C33.7927 47.0891 33.7561 47.3324 33.7123 47.5746C33.5516 48.6838 33.9799 49.3684 34.548 50.2768L34.5779 50.3244V50.4218H31.5794C31.4064 48.806 31.2467 47.1966 31.1443 45.5753L31.1226 45.2389L31.1046 44.9444C31.0949 44.8394 31.0812 44.7367 31.0648 44.6348L31.0556 44.5789C31.0509 44.5511 31.0459 44.5233 31.0408 44.4955L31.0209 44.391C31.0078 44.3242 30.9939 44.2572 30.9797 44.1894L30.9682 43.9492C30.9635 43.8452 30.9592 43.7412 30.9559 43.6372C30.9053 42.2003 30.4899 40.9358 29.9554 39.6067C29.8582 39.3627 29.7647 39.1173 29.6737 38.8711L29.6235 38.7346C29.59 38.6427 29.5568 38.5506 29.5238 38.4585C29.4756 38.324 29.4279 38.1893 29.3805 38.0544L29.3051 37.8513C28.8431 36.4093 29.2669 34.7644 29.899 33.4409C30.2424 32.8127 30.658 32.3168 31.1796 31.822L31.3584 31.6382C31.7691 31.246 32.2339 30.9869 32.7413 30.7325L32.9274 30.6378C34.0551 30.0992 35.1797 29.9135 36.4262 29.9337ZM51.2418 29.6503C49.8546 29.6682 48.6079 29.5115 47.2754 29.1305C46.1018 28.7912 44.7892 28.4584 43.7135 29.203L43.4734 29.3874C42.9075 29.7901 42.3954 30.1944 41.9742 30.7447C41.3604 31.6756 41.2275 32.6638 41.4495 33.7453C41.8603 34.7863 42.4271 35.4989 43.3905 36.1189L43.6546 36.2833L44.2133 36.6359C44.4878 36.8062 44.762 36.9763 45.0345 37.1495C45.1985 37.2539 45.3631 37.3576 45.5282 37.4605L45.7598 37.604C46.1568 37.8574 46.4695 38.0365 46.9412 38.119C47.1034 38.0873 47.186 38.0711 47.2596 38.0368C47.2699 38.0319 47.2801 38.0267 47.2902 38.0211C47.3123 38.0089 47.3346 37.9944 47.3589 37.9768C47.4052 37.9434 47.4595 37.8986 47.5356 37.8356L47.538 37.8334C47.6009 37.7552 47.65 37.6939 47.6887 37.637C47.7137 37.6 47.7344 37.565 47.7513 37.5283C47.7754 37.4768 47.7921 37.422 47.8043 37.3547C47.8314 37.204 47.8347 36.9896 47.8406 36.6047L47.8384 36.2662C47.8425 35.9056 47.8458 35.5452 47.8462 35.1847C47.8462 34.81 47.8484 34.4355 47.8513 34.0608L47.8571 33.3508L47.8575 33.0093L47.8587 32.696C47.8587 32.6789 47.8583 32.6619 47.8579 32.6452C47.8571 32.6176 47.8557 32.5906 47.8544 32.5639C47.8458 32.3949 47.8382 32.2437 47.9712 32.1141C48.2843 32.0463 48.549 31.9495 48.8402 32.1103C48.9244 32.2931 48.9668 32.3854 48.9892 32.4821C49.0123 32.5805 49.0147 32.6835 49.0199 32.8913L49.0218 33.1256C49.0275 33.3739 49.0327 33.6221 49.0361 33.8704C49.0384 34.0431 49.0411 34.2159 49.0444 34.3886C49.0526 34.7877 49.0605 35.1868 49.0663 35.5859L49.0706 35.912L49.2968 35.9086L49.595 35.9059C50.5178 35.8952 51.0145 36.2048 51.7142 36.7717C52.3037 37.2607 52.8895 37.7265 53.5486 38.1241L53.7495 38.2431C54.1499 38.4827 54.5005 38.6587 54.9676 38.7361V38.7324L55.0113 36.9041C55.0172 36.6431 55.0233 36.3822 55.0297 36.1212L55.036 35.8736C55.0391 35.7264 55.0433 35.5799 55.049 35.4333C55.0541 35.3008 55.0604 35.1684 55.0676 35.0355C55.1728 34.7282 55.1806 34.4654 55.1812 34.1435L55.18 33.9157C55.1837 33.1875 55.0385 32.72 54.7022 32.0765L54.5554 31.7976C54.2951 31.287 54.0404 30.7932 53.6441 30.3689C52.9308 29.7374 52.1775 29.6435 51.2418 29.6503ZM41.4547 42.9192L41.768 42.9174L42.0255 42.9149L42.2705 42.914L42.4971 42.9124C42.5944 42.9185 42.6381 42.9212 42.6744 42.9386C42.704 42.9529 42.7288 42.977 42.7737 43.0208C42.7933 43.1324 42.8113 43.2441 42.8281 43.356C42.8447 43.4653 42.8602 43.5748 42.8753 43.6842L42.9557 44.2647L42.9986 44.5789C43.043 44.899 43.0877 45.2191 43.1326 45.5391L43.1673 45.7868C43.1906 45.9508 43.2142 46.1147 43.2381 46.2785C43.2956 46.6684 43.3555 47.0579 43.4176 47.4472L43.4525 47.6677L43.5409 48.2175C43.5673 48.3805 43.5939 48.5436 43.6208 48.7066L43.6815 49.0844L43.7352 49.4124C43.774 49.7472 43.7737 50.0855 43.7733 50.4227V50.5192H41.9742C41.8301 50.0283 41.7288 49.6056 41.6595 49.1068L41.6298 48.8977C41.5984 48.6734 41.5675 48.4491 41.5369 48.2247L41.4715 47.7568L41.3392 46.8011C41.2876 46.4262 41.235 46.0514 41.1824 45.6767C41.1357 45.3453 41.0895 45.0139 41.0434 44.6824L40.9915 44.3142L40.9446 43.9737L40.9034 43.6782C40.8761 43.4242 40.8692 43.1786 40.8747 42.9234L41.4547 42.9192ZM54.9682 41.8567L54.9676 41.6575C54.9577 41.6575 54.9577 41.6575 54.3859 41.8496L53.7237 42.0626L53.4684 42.1444L53.4621 42.5102L53.4582 42.7568L53.4526 43.1679C53.4504 43.3439 53.4483 43.52 53.4465 43.6961L53.444 43.9519C53.442 44.1995 53.4397 44.447 53.4371 44.6946C53.4354 44.793 53.4329 44.8919 53.4299 44.9913C53.427 45.0972 53.4235 45.2035 53.4198 45.3103C53.3937 46.0872 53.3669 46.882 53.5139 47.6358C53.8188 48.7175 54.5032 49.6268 55.4674 50.2271C55.7069 49.8395 55.9273 49.4627 56.0795 49.0341C56.0768 48.9755 56.0747 48.9296 56.0708 48.8917C56.0661 48.8464 56.0588 48.8123 56.0452 48.7809C56.0351 48.7575 56.0212 48.7357 56.0021 48.7119C55.9706 48.6725 55.9247 48.6278 55.8571 48.562L55.8547 48.5594L55.7144 48.439C55.1422 47.8174 55.0102 46.9492 54.9957 46.147L54.9969 45.8038C54.9923 45.4334 54.9882 45.0632 54.9871 44.6927C54.9868 44.4362 54.9852 44.1798 54.9829 43.9232C54.9757 43.2344 54.9702 42.5456 54.9682 41.8567ZM29.4804 42.047C29.6922 42.3565 29.7145 42.4788 29.7457 42.8389L29.7742 43.1487L29.8022 43.4853L29.8336 43.8355L29.8826 44.3934L29.9302 44.9502L30.0538 46.3513L30.12 47.1115C30.1584 47.5503 30.1982 47.989 30.2402 48.4275L30.2687 48.7244C30.2861 48.9051 30.3039 49.0858 30.3218 49.2665L30.345 49.5092L30.3657 49.7171C30.3808 49.9445 30.3804 50.1727 30.38 50.4008V50.5192H28.381C28.2922 47.3562 28.2647 46.3715 28.4979 45.4494C28.6035 45.0325 28.7625 44.6285 28.9932 44.0417C29.1425 43.6292 29.2331 43.2051 29.3243 42.7774L29.3739 42.5508L29.41 42.3824C29.4338 42.2707 29.4572 42.1589 29.4804 42.047ZM50.8682 37.5851C50.6226 37.3466 50.3879 37.1186 50.0486 37.009C49.682 36.9851 49.4719 37.0796 49.1706 37.2753L49.1694 37.2768C49.0443 37.4597 48.998 37.5276 48.9724 37.6024C48.9576 37.6461 48.9495 37.6921 48.9371 37.7648V37.7665C48.9296 38.1684 48.9574 38.417 49.2315 38.7178C50.2188 39.7009 51.5791 40.9972 53.0686 41.0184C53.908 40.9782 54.3886 40.6958 54.9676 40.0994C53.5468 39.5265 52.1173 38.7293 50.9876 37.7003C50.9472 37.6619 50.9075 37.6234 50.8682 37.5851Z" stroke="#FCFBF7" stroke-width="0.666667"/>
<path d="M53.1776 33.2309C53.1776 33.5267 52.9315 33.7665 52.6278 33.7665C52.3243 33.7665 52.0781 33.5267 52.0781 33.2309C52.0781 32.9351 52.3243 32.6953 52.6278 32.6953C52.9315 32.6953 53.1776 32.9351 53.1776 33.2309Z" stroke="#FCFBF7" stroke-width="0.666667"/>
</g>
<defs>
<clipPath id="clip0_2863_1075">
<rect width="33.3333" height="25.5814" fill="white" transform="translate(24.7656 26.668)"/>
</clipPath>
</defs>
</svg>
