<svg width="81" height="80" viewBox="0 0 81 80" fill="none" xmlns="http://www.w3.org/2000/svg">
<path d="M20.237 59.0006C9.37538 48.1391 9.37538 30.5289 20.237 19.6673V19.6673C31.0986 8.80572 48.7087 8.80572 59.5703 19.6673L60.237 20.334C71.4668 31.5638 71.4668 49.7709 60.237 61.0007L41.237 80.0007L20.237 59.0006Z" fill="#61A5FF"/>
<g clip-path="url(#clip0_2845_1472)">
<path fill-rule="evenodd" clip-rule="evenodd" d="M25.0492 26.9979C25.157 26.9428 28.7042 25.7842 32.9302 24.4294C37.1564 23.0747 40.6908 21.9651 40.7987 21.959C40.9954 21.9529 56.1801 26.7895 56.5799 26.9857C56.7321 27.0592 56.8655 27.1941 56.948 27.3474C57.0685 27.5742 57.0748 27.7029 57.0748 29.6155C57.0748 31.528 57.0685 31.6568 56.948 31.8836C56.7512 32.2576 56.453 32.3741 55.7105 32.3741H55.1077V33.8453C55.1077 35.2061 55.095 35.341 54.9808 35.5617C54.8285 35.8498 54.4668 36.0521 54.0924 36.0521H53.8386V40.098V44.1438H54.4097C55.1205 44.1438 55.4186 44.2665 55.6154 44.6343C55.7296 44.8549 55.7423 44.9898 55.7423 46.3506V47.8218H56.0279C56.4339 47.8218 56.7892 48.0119 56.948 48.3123C57.0685 48.5391 57.0748 48.6679 57.0748 50.5805C57.0748 52.493 57.0685 52.6218 56.948 52.8486C56.8655 53.008 56.7321 53.1367 56.5672 53.2164C56.3197 53.339 56.2309 53.339 40.8304 53.339C25.4299 53.339 25.3411 53.339 25.0936 53.2164C24.9286 53.1367 24.7953 53.008 24.7128 52.8486C24.5923 52.6218 24.5859 52.493 24.5859 50.5805C24.5859 48.6679 24.5923 48.5391 24.7128 48.3123C24.8715 48.0119 25.2268 47.8218 25.6329 47.8218H25.9185V46.3506C25.9185 44.9898 25.9312 44.8549 26.0454 44.6343C26.2421 44.2665 26.5403 44.1438 27.251 44.1438H27.8221V40.098V36.0521H27.5683C27.1939 36.0521 26.8322 35.8498 26.68 35.5617C26.5657 35.341 26.553 35.2061 26.553 33.8453V32.3741H25.9502C25.2078 32.3741 24.9096 32.2576 24.7128 31.8836C24.5923 31.6568 24.5859 31.528 24.5859 29.6155C24.5859 27.7029 24.5923 27.5742 24.7128 27.3474C24.7826 27.2125 24.9349 27.0592 25.0492 26.9979ZM32.8985 34.213V33.2935V32.3741H30.6776H28.4567V33.2935V34.213H30.6776H32.8985ZM36.8328 35.5617C36.7185 35.341 36.7058 35.2061 36.7058 33.8453V32.3741H35.754H34.8022V33.8453C34.8022 35.2061 34.7894 35.341 34.6753 35.5617C34.523 35.8498 34.1613 36.0521 33.7869 36.0521H33.5331V40.098V44.1438H35.754H37.9749V40.098V36.0521H37.7211C37.3467 36.0521 36.985 35.8498 36.8328 35.5617ZM43.0513 34.213V33.2935V32.3741H40.8304H38.6094V33.2935V34.213H40.8304H43.0513ZM46.9855 35.5617C46.8713 35.341 46.8586 35.2061 46.8586 33.8453V32.3741H45.9068H44.955V33.8453C44.955 35.2061 44.9422 35.341 44.828 35.5617C44.6757 35.8498 44.3141 36.0521 43.9397 36.0521H43.6858V40.098V44.1438H45.9068H48.1277V40.098V36.0521H47.8739C47.4995 36.0521 47.1378 35.8498 46.9855 35.5617ZM53.2041 34.213V33.2935V32.3741H50.9831H48.7622V33.2935V34.213H50.9831H53.2041ZM31.6294 44.1438V40.098V36.0521H30.6776H29.7258V40.098V44.1438H30.6776H31.6294ZM41.7822 44.1438V40.098V36.0521H40.8304H39.8786V40.098V44.1438H40.8304H41.7822ZM51.935 44.1438V40.098V36.0521H50.9831H50.0313V40.098V44.1438H50.9831H51.935ZM50.19 26.8447L45.526 25.3489C42.9625 24.5275 40.8367 23.8593 40.7987 23.8593C40.7669 23.8593 38.6666 24.5336 36.1347 25.3551L31.5342 26.8447L26.4896 28.696V29.6155V30.535H40.8304H55.1712V29.6155V28.696L50.19 26.8447ZM53.8386 46.9024V47.8218V49.6609H55.1712V50.5805V51.5H40.8304H26.4896V50.5805V49.6609H27.8221V47.8218V46.9024V45.9829H40.8304H53.8386V46.9024Z" fill="#FCFBF7"/>
<mask id="mask0_2845_1472" style="mask-type:luminance" maskUnits="userSpaceOnUse" x="24" y="21" width="34" height="33">
<path fill-rule="evenodd" clip-rule="evenodd" d="M25.057 26.9999C25.1648 26.9447 28.712 25.7861 32.9381 24.4314C37.1642 23.0766 40.6986 21.9671 40.8065 21.9609C41.0032 21.9548 56.1879 26.7915 56.5877 26.9876C56.7399 27.0612 56.8733 27.196 56.9558 27.3493C57.0763 27.5761 57.0826 27.7048 57.0826 29.6174C57.0826 31.53 57.0763 31.6588 56.9558 31.8856C56.759 32.2595 56.4608 32.376 55.7184 32.376H55.1155V33.8472C55.1155 35.2081 55.1028 35.343 54.9886 35.5636C54.8363 35.8518 54.4747 36.0541 54.1002 36.0541H53.8464V40.0999V44.1457H54.4175C55.1283 44.1457 55.4264 44.2684 55.6232 44.6362C55.7374 44.8569 55.7501 44.9918 55.7501 46.3526V47.8238H56.0357C56.4417 47.8238 56.7971 48.0139 56.9558 48.3143C57.0763 48.541 57.0826 48.6698 57.0826 50.5824C57.0826 52.495 57.0763 52.6237 56.9558 52.8506C56.8733 53.0099 56.7399 53.1386 56.575 53.2183C56.3275 53.3409 56.2387 53.3409 40.8382 53.3409C25.4377 53.3409 25.3489 53.3409 25.1014 53.2183C24.9364 53.1386 24.8032 53.0099 24.7207 52.8506C24.6001 52.6237 24.5938 52.495 24.5938 50.5824C24.5938 48.6698 24.6001 48.541 24.7207 48.3143C24.8793 48.0139 25.2346 47.8238 25.6408 47.8238H25.9263V46.3526C25.9263 44.9918 25.939 44.8569 26.0532 44.6362C26.2499 44.2684 26.5482 44.1457 27.2589 44.1457H27.8299V40.0999V36.0541H27.5761C27.2017 36.0541 26.8401 35.8518 26.6878 35.5636C26.5735 35.343 26.5608 35.2081 26.5608 33.8472V32.376H25.958C25.2156 32.376 24.9174 32.2595 24.7207 31.8856C24.6001 31.6588 24.5938 31.53 24.5938 29.6174C24.5938 27.7048 24.6001 27.5761 24.7207 27.3493C24.7905 27.2144 24.9428 27.0612 25.057 26.9999ZM32.9063 34.215V33.2955V32.376H30.6854H28.4645V33.2955V34.215H30.6854H32.9063ZM36.8406 35.5636C36.7263 35.343 36.7136 35.2081 36.7136 33.8472V32.376H35.7618H34.81V33.8472C34.81 35.2081 34.7972 35.343 34.6831 35.5636C34.5308 35.8518 34.1691 36.0541 33.7947 36.0541H33.5409V40.0999V44.1457H35.7618H37.9827V40.0999V36.0541H37.7289C37.3546 36.0541 36.9928 35.8518 36.8406 35.5636ZM43.0591 34.215V33.2955V32.376H40.8382H38.6172V33.2955V34.215H40.8382H43.0591ZM46.9933 35.5636C46.8791 35.343 46.8664 35.2081 46.8664 33.8472V32.376H45.9146H44.9628V33.8472C44.9628 35.2081 44.95 35.343 44.8359 35.5636C44.6835 35.8518 44.3219 36.0541 43.9475 36.0541H43.6936V40.0999V44.1457H45.9146H48.1355V40.0999V36.0541H47.8817C47.5073 36.0541 47.1456 35.8518 46.9933 35.5636ZM53.2119 34.215V33.2955V32.376H50.991H48.77V33.2955V34.215H50.991H53.2119ZM31.6372 44.1457V40.0999V36.0541H30.6854H29.7336V40.0999V44.1457H30.6854H31.6372ZM41.79 44.1457V40.0999V36.0541H40.8382H39.8864V40.0999V44.1457H40.8382H41.79ZM51.9428 44.1457V40.0999V36.0541H50.991H50.0391V40.0999V44.1457H50.991H51.9428ZM50.1978 26.8466L45.5338 25.3509C42.9703 24.5295 40.8446 23.8613 40.8065 23.8613C40.7747 23.8613 38.6744 24.5356 36.1425 25.357L31.5421 26.8466L26.4974 28.6979V29.6174V30.537H40.8382H55.179V29.6174V28.6979L50.1978 26.8466ZM53.8464 46.9044V47.8238V49.6629H55.179V50.5824V51.5019H40.8382H26.4974V50.5824V49.6629H27.8299V47.8238V46.9044V45.9848H40.8382H53.8464V46.9044Z" fill="white"/>
</mask>
<g mask="url(#mask0_2845_1472)">
<path d="M26.4958 49.5996H53.8449V49.7231H26.4958V49.5996ZM27.8284 49.5996H53.8449V49.7231H27.8284V49.5996ZM25.0554 26.9983L24.997 26.8895L24.9992 26.8884L25.0554 26.9983ZM24.7191 27.3478L24.8288 27.4045L24.8281 27.4057L24.7191 27.3478ZM26.5593 32.3745V32.251H26.6828V32.3745H26.5593ZM26.6862 35.5621L26.5771 35.6197L26.5766 35.6188L26.6862 35.5621ZM27.8284 36.0525V35.929H27.9519V36.0525H27.8284ZM27.8284 44.1442H27.9519V44.2677H27.8284V44.1442ZM26.0517 44.6347L25.942 44.5779L25.9428 44.5764L26.0517 44.6347ZM25.9248 47.8223H26.0482V47.9458H25.9248V47.8223ZM24.7191 52.849L24.8281 52.791L24.8288 52.7922L24.7191 52.849ZM25.0998 53.2168L25.1535 53.1056L25.1547 53.1061L25.0998 53.2168ZM56.5735 53.2168L56.5187 53.1061L56.5198 53.1056L56.5735 53.2168ZM56.9542 52.849L56.8445 52.7922L56.8451 52.791L56.9542 52.849ZM55.7486 47.8223V47.9458H55.6251V47.8223H55.7486ZM55.6216 44.6347L55.7305 44.5764L55.7313 44.5779L55.6216 44.6347ZM53.8449 44.1442V44.2677H53.7214V44.1442H53.8449ZM53.8449 36.0525H53.7214V35.929H53.8449V36.0525ZM54.9871 35.5621L55.0967 35.6188L55.0963 35.6197L54.9871 35.5621ZM55.1139 32.3745H54.9905V32.251H55.1139V32.3745ZM40.805 21.9594L40.7979 21.8361L40.8011 21.836L40.805 21.9594ZM50.1963 26.8451L50.2339 26.7274L50.2392 26.7294L50.1963 26.8451ZM31.5405 26.8451L31.498 26.7291L31.5025 26.7276L31.5405 26.8451ZM55.1775 30.5354H55.3009V30.6588H55.1775V30.5354ZM26.4958 30.5354V30.6588H26.3724V30.5354H26.4958ZM26.4958 28.6964H26.3724V28.6102L26.4533 28.5805L26.4958 28.6964ZM55.1775 28.6964L55.2204 28.5807L55.3009 28.6106V28.6964H55.1775ZM32.9048 34.2135H33.0282V34.337H32.9048V34.2135ZM28.463 34.2135V34.337H28.3395V34.2135H28.463ZM28.463 32.3745H28.3395V32.251H28.463V32.3745ZM32.9048 32.3745V32.251H33.0282V32.3745H32.9048ZM36.839 35.5621L36.7299 35.6197L36.7293 35.6188L36.839 35.5621ZM37.9812 36.0525V35.929H38.1046V36.0525H37.9812ZM37.9812 44.1442H38.1046V44.2677H37.9812V44.1442ZM33.5393 44.1442V44.2677H33.4159V44.1442H33.5393ZM33.5393 36.0525H33.4159V35.929H33.5393V36.0525ZM34.6815 35.5621L34.7912 35.6188L34.7907 35.6197L34.6815 35.5621ZM34.8085 32.3745H34.685V32.251H34.8085V32.3745ZM36.7121 32.3745V32.251H36.8355V32.3745H36.7121ZM43.0576 34.2135H43.181V34.337H43.0576V34.2135ZM38.6157 34.2135V34.337H38.4923V34.2135H38.6157ZM38.6157 32.3745H38.4923V32.251H38.6157V32.3745ZM43.0576 32.3745V32.251H43.181V32.3745H43.0576ZM46.9917 35.5621L46.8826 35.6197L46.8821 35.6188L46.9917 35.5621ZM48.1339 36.0525V35.929H48.2574V36.0525H48.1339ZM48.1339 44.1442H48.2574V44.2677H48.1339V44.1442ZM43.6921 44.1442V44.2677H43.5687V44.1442H43.6921ZM43.6921 36.0525H43.5687V35.929H43.6921V36.0525ZM44.8343 35.5621L44.9439 35.6188L44.9435 35.6197L44.8343 35.5621ZM44.9613 32.3745H44.8377V32.251H44.9613V32.3745ZM46.8649 32.3745V32.251H46.9883V32.3745H46.8649ZM53.2103 34.2135H53.3338V34.337H53.2103V34.2135ZM48.7685 34.2135V34.337H48.6451V34.2135H48.7685ZM48.7685 32.3745H48.6451V32.251H48.7685V32.3745ZM53.2103 32.3745V32.251H53.3338V32.3745H53.2103ZM31.6357 44.1442H31.7592V44.2677H31.6357V44.1442ZM29.732 44.1442V44.2677H29.6086V44.1442H29.732ZM29.732 36.0525H29.6086V35.929H29.732V36.0525ZM31.6357 36.0525V35.929H31.7592V36.0525H31.6357ZM41.7885 44.1442H41.9119V44.2677H41.7885V44.1442ZM39.8849 44.1442V44.2677H39.7613V44.1442H39.8849ZM39.8849 36.0525H39.7613V35.929H39.8849V36.0525ZM41.7885 36.0525V35.929H41.9119V36.0525H41.7885ZM51.9413 44.1442H52.0647V44.2677H51.9413V44.1442ZM50.0376 44.1442V44.2677H49.9141V44.1442H50.0376ZM50.0376 36.0525H49.9141V35.929H50.0376V36.0525ZM51.9413 36.0525V35.929H52.0647V36.0525H51.9413ZM27.8284 45.9833H27.7049V45.8598H27.8284V45.9833ZM53.8449 45.9833V45.8598H53.9684V45.9833H53.8449ZM55.1775 51.5004H55.3009V51.6238H55.1775V51.5004ZM26.4958 51.5004V51.6238H26.3724V51.5004H26.4958ZM26.4958 49.6613H26.3724V49.5379H26.4958V49.6613ZM55.1775 49.6613V49.5379H55.3009V49.6613H55.1775ZM27.8284 49.6613H27.9519V49.7847H27.8284V49.6613ZM53.8449 49.6613V49.7847H53.7214V49.6613H53.8449ZM32.9742 24.5474C30.8613 25.2247 28.9182 25.853 27.4899 26.3188C26.7757 26.5517 26.1904 26.744 25.777 26.8814C25.5702 26.9501 25.4068 27.0051 25.2917 27.0445C25.2342 27.0642 25.1891 27.0799 25.1571 27.0915C25.1205 27.1046 25.1096 27.1093 25.1116 27.1082L24.9992 26.8884C25.0147 26.8805 25.0442 26.8697 25.0735 26.8591C25.1073 26.847 25.1537 26.8308 25.2117 26.8109C25.3278 26.7711 25.4921 26.7159 25.6991 26.6471C26.1132 26.5094 26.699 26.317 27.4134 26.0841C28.8421 25.6181 30.7856 24.9897 32.8988 24.3123L32.9742 24.5474ZM25.1138 27.1071C25.0716 27.1298 25.0149 27.1741 24.9591 27.2315C24.9038 27.2885 24.8565 27.3509 24.8288 27.4045L24.6095 27.291C24.6515 27.2098 24.7153 27.1281 24.7821 27.0594C24.8485 26.9911 24.9251 26.9282 24.997 26.8895L25.1138 27.1071ZM24.8281 27.4057C24.8009 27.4568 24.7828 27.4972 24.7685 27.5574C24.7535 27.6207 24.7419 27.7093 24.7337 27.8565C24.7173 28.1518 24.7157 28.6577 24.7157 29.6159H24.4688C24.4688 28.6615 24.4703 28.1467 24.4872 27.8428C24.4957 27.6904 24.5082 27.5848 24.5283 27.5003C24.5491 27.4128 24.577 27.3521 24.6101 27.2898L24.8281 27.4057ZM24.7157 29.6159C24.7157 30.5741 24.7173 31.08 24.7337 31.3753C24.7419 31.5225 24.7535 31.6111 24.7685 31.6744C24.7828 31.7346 24.8009 31.7749 24.8281 31.826L24.6101 31.942C24.577 31.8797 24.5491 31.8189 24.5283 31.7314C24.5082 31.647 24.4957 31.5413 24.4872 31.389C24.4703 31.085 24.4688 30.5703 24.4688 29.6159H24.7157ZM24.8281 31.826C24.9149 31.991 25.0181 32.0912 25.1785 32.1547C25.3476 32.2215 25.5881 32.251 25.9565 32.251V32.4979C25.5825 32.4979 25.3026 32.4692 25.0878 32.3843C24.8643 32.296 24.7201 32.151 24.6101 31.942L24.8281 31.826ZM25.9565 32.251H26.5593V32.4979H25.9565V32.251ZM26.6828 32.3745V33.8457H26.4358V32.3745H26.6828ZM26.6828 33.8457C26.6828 34.528 26.686 34.8965 26.703 35.1222C26.7195 35.3399 26.7476 35.4122 26.7959 35.5053L26.5766 35.6188C26.5106 35.4913 26.4753 35.3858 26.4568 35.1408C26.4389 34.9036 26.4358 34.5242 26.4358 33.8457H26.6828ZM26.7954 35.5044C26.9231 35.746 27.2388 35.929 27.5746 35.929V36.176C27.1616 36.176 26.7539 35.9543 26.5771 35.6197L26.7954 35.5044ZM27.5746 35.929H27.8284V36.176H27.5746V35.929ZM27.9519 36.0525V40.0984H27.7049V36.0525H27.9519ZM27.9519 40.0984V44.1442H27.7049V40.0984H27.9519ZM27.8284 44.2677H27.2573V44.0208H27.8284V44.2677ZM27.2573 44.2677C26.9058 44.2677 26.6734 44.2985 26.5083 44.3659C26.3509 44.43 26.2474 44.5304 26.1605 44.6929L25.9428 44.5764C26.0526 44.3711 26.1966 44.2262 26.4151 44.1372C26.6261 44.0512 26.8982 44.0208 27.2573 44.0208V44.2677ZM26.1613 44.6914C26.1131 44.7846 26.0849 44.8568 26.0685 45.0746C26.0515 45.3002 26.0482 45.6687 26.0482 46.351H25.8013C25.8013 45.6725 25.8044 45.2932 25.8223 45.056C25.8407 44.811 25.876 44.7054 25.942 44.5779L26.1613 44.6914ZM26.0482 46.351V47.8223H25.8013V46.351H26.0482ZM25.9248 47.9458H25.6392V47.6988H25.9248V47.9458ZM25.6392 47.9458C25.2684 47.9458 24.9611 48.119 24.8283 48.3704L24.6099 48.255C24.7945 47.9057 25.1978 47.6988 25.6392 47.6988V47.9458ZM24.8283 48.3704C24.8011 48.4215 24.7828 48.4622 24.7685 48.5223C24.7535 48.5856 24.7419 48.6742 24.7337 48.8214C24.7173 49.1167 24.7157 49.6226 24.7157 50.5809H24.4688C24.4688 49.6265 24.4703 49.1117 24.4872 48.8077C24.4957 48.6554 24.5082 48.5497 24.5283 48.4653C24.5491 48.3778 24.5769 48.3172 24.6099 48.255L24.8283 48.3704ZM24.7157 50.5809C24.7157 51.5391 24.7173 52.0449 24.7337 52.3402C24.7419 52.4874 24.7535 52.576 24.7685 52.6393C24.7828 52.6995 24.8009 52.7398 24.8281 52.791L24.6101 52.9069C24.577 52.8447 24.5491 52.7839 24.5283 52.6964C24.5082 52.612 24.4957 52.5063 24.4872 52.3539C24.4703 52.0499 24.4688 51.5352 24.4688 50.5809H24.7157ZM24.8288 52.7922C24.8987 52.9273 25.0121 53.0372 25.1535 53.1056L25.0461 53.328C24.8577 53.2369 24.7045 53.0894 24.6095 52.9058L24.8288 52.7922ZM25.1547 53.1061C25.1803 53.1188 25.1984 53.1276 25.2407 53.1364C25.2879 53.1462 25.3646 53.1559 25.5049 53.1645C25.7849 53.1814 26.2971 53.1929 27.2868 53.2006C29.2644 53.216 33.136 53.216 40.8366 53.216V53.4628C33.1368 53.4628 29.2637 53.4628 27.2849 53.4475C26.2964 53.4398 25.7775 53.4284 25.4899 53.4109C25.3465 53.4022 25.2554 53.3917 25.1902 53.3781C25.1201 53.3635 25.0813 53.3454 25.045 53.3274L25.1547 53.1061ZM40.8366 53.216C48.5373 53.216 52.4088 53.216 54.3864 53.2006C55.3762 53.1929 55.8885 53.1814 56.1684 53.1645C56.3087 53.1559 56.3854 53.1462 56.4326 53.1364C56.4749 53.1276 56.493 53.1188 56.5187 53.1061L56.6283 53.3274C56.592 53.3454 56.5532 53.3635 56.4831 53.3781C56.4179 53.3917 56.3268 53.4022 56.1834 53.4109C55.8958 53.4284 55.3769 53.4398 54.3884 53.4475C52.4096 53.4628 48.5365 53.4628 40.8366 53.4628V53.216ZM56.5198 53.1056C56.6613 53.0372 56.7746 52.9273 56.8445 52.7922L57.0638 52.9058C56.9688 53.0894 56.8156 53.2369 56.6272 53.328L56.5198 53.1056ZM56.8451 52.791C56.8724 52.7398 56.8904 52.6995 56.9048 52.6393C56.9198 52.576 56.9313 52.4874 56.9396 52.3402C56.956 52.0449 56.9576 51.5391 56.9576 50.5809H57.2045C57.2045 51.5352 57.203 52.0499 57.1861 52.3539C57.1776 52.5063 57.165 52.612 57.145 52.6964C57.1242 52.7839 57.0963 52.8447 57.0632 52.9069L56.8451 52.791ZM56.9576 50.5809C56.9576 49.6226 56.956 49.1167 56.9396 48.8214C56.9313 48.6742 56.9198 48.5856 56.9048 48.5223C56.8904 48.4622 56.8724 48.4218 56.8451 48.3707L57.0632 48.2548C57.0963 48.317 57.1242 48.3778 57.145 48.4653C57.165 48.5497 57.1776 48.6554 57.1861 48.8077C57.203 49.1117 57.2045 49.6265 57.2045 50.5809H56.9576ZM56.8451 48.3707C56.7124 48.1193 56.405 47.9458 56.0341 47.9458V47.6988C56.4754 47.6988 56.8787 47.9054 57.0632 48.2548L56.8451 48.3707ZM56.0341 47.9458H55.7486V47.6988H56.0341V47.9458ZM55.6251 47.8223V46.351H55.872V47.8223H55.6251ZM55.6251 46.351C55.6251 45.6687 55.6218 45.3002 55.6048 45.0746C55.5884 44.8568 55.5602 44.7846 55.512 44.6914L55.7313 44.5779C55.7973 44.7054 55.8326 44.811 55.851 45.056C55.8689 45.2932 55.872 45.6725 55.872 46.351H55.6251ZM55.5127 44.6929C55.4259 44.5304 55.3224 44.43 55.165 44.3659C55 44.2985 54.7675 44.2677 54.416 44.2677V44.0208C54.7751 44.0208 55.0472 44.0512 55.2581 44.1372C55.4767 44.2262 55.6207 44.3711 55.7305 44.5764L55.5127 44.6929ZM54.416 44.2677H53.8449V44.0208H54.416V44.2677ZM53.7214 44.1442V40.0984H53.9684V44.1442H53.7214ZM53.7214 40.0984V36.0525H53.9684V40.0984H53.7214ZM53.8449 35.929H54.0987V36.176H53.8449V35.929ZM54.0987 35.929C54.4345 35.929 54.7501 35.746 54.8779 35.5044L55.0963 35.6197C54.9194 35.9543 54.5117 36.176 54.0987 36.176V35.929ZM54.8775 35.5053C54.9257 35.4122 54.9538 35.3399 54.9702 35.1222C54.9873 34.8965 54.9905 34.528 54.9905 33.8457H55.2375C55.2375 34.5242 55.2343 34.9036 55.2164 35.1408C55.198 35.3858 55.1627 35.4913 55.0967 35.6188L54.8775 35.5053ZM54.9905 33.8457V32.3745H55.2375V33.8457H54.9905ZM55.1139 32.251H55.7168V32.4979H55.1139V32.251ZM55.7168 32.251C56.0852 32.251 56.3256 32.2215 56.4948 32.1547C56.6552 32.0912 56.7581 31.9915 56.8449 31.8265L57.0635 31.9415C56.9535 32.1505 56.8089 32.296 56.5855 32.3843C56.3707 32.4692 56.0908 32.4979 55.7168 32.4979V32.251ZM56.8449 31.8265C56.8721 31.7754 56.8904 31.7346 56.9048 31.6744C56.9198 31.6111 56.9313 31.5225 56.9396 31.3753C56.956 31.08 56.9576 30.5741 56.9576 29.6159H57.2045C57.2045 30.5703 57.203 31.085 57.1861 31.389C57.1776 31.5413 57.165 31.647 57.145 31.7314C57.1242 31.8189 57.0965 31.8793 57.0635 31.9415L56.8449 31.8265ZM56.9576 29.6159C56.9576 28.6577 56.956 28.1518 56.9396 27.8565C56.9313 27.7093 56.9198 27.6207 56.9048 27.5574C56.8904 27.4972 56.8724 27.4568 56.8451 27.4057L57.0629 27.2892C57.096 27.3515 57.1242 27.4128 57.145 27.5003C57.165 27.5848 57.1776 27.6904 57.1861 27.8428C57.203 28.1467 57.2045 28.6615 57.2045 29.6159H56.9576ZM56.8451 27.4057C56.7736 27.2727 56.6587 27.1582 56.5325 27.0972L56.6399 26.8749C56.8181 26.961 56.9695 27.1158 57.0629 27.2892L56.8451 27.4057ZM56.5325 27.0972C56.5161 27.0892 56.442 27.0615 56.3048 27.0139C56.1723 26.9679 55.9891 26.9061 55.7624 26.8307C55.3089 26.6798 54.6826 26.4749 53.9413 26.2345C52.4587 25.7536 50.5172 25.1309 48.5819 24.5145C46.6466 23.8981 44.7178 23.288 43.2607 22.8325C42.532 22.6047 41.9215 22.4156 41.4872 22.2837C41.27 22.2177 41.0973 22.1662 40.9761 22.1313C40.9153 22.1139 40.8683 22.1008 40.8352 22.0922C40.8187 22.0879 40.8067 22.085 40.7988 22.0833C40.7969 22.0829 40.7954 22.0826 40.7943 22.0823C40.7937 22.0822 40.7936 22.0822 40.7931 22.0821C40.7933 22.0821 40.795 22.0823 40.7955 22.0824C40.7969 22.0825 40.8019 22.083 40.8088 22.0828L40.8011 21.836C40.8153 21.8356 40.8278 21.8376 40.8318 21.8382C40.8383 21.8393 40.845 21.8406 40.8512 21.842C40.8638 21.8447 40.8795 21.8486 40.8975 21.8532C40.9335 21.8626 40.9829 21.8764 41.0443 21.894C41.1673 21.9294 41.3414 21.9814 41.5589 22.0475C41.9943 22.1796 42.6055 22.369 43.3343 22.5968C44.7921 23.0525 46.7213 23.6627 48.6568 24.2792C50.5924 24.8957 52.5343 25.5186 54.0175 25.9996C54.7589 26.2401 55.386 26.4452 55.8403 26.5964C56.0674 26.6719 56.2517 26.7341 56.3856 26.7806C56.5149 26.8254 56.6063 26.8584 56.6399 26.8749L56.5325 27.0972ZM40.8119 22.0827C40.821 22.0821 40.8248 22.0807 40.8128 22.0834C40.8048 22.0853 40.793 22.0883 40.7771 22.0925C40.7456 22.101 40.7011 22.1136 40.6438 22.1303C40.5293 22.1636 40.3664 22.2126 40.1603 22.2755C39.7482 22.4015 39.1646 22.583 38.452 22.8067C37.027 23.2541 35.0871 23.8701 32.9742 24.5474L32.8988 24.3123C35.012 23.6348 36.9525 23.0187 38.3781 22.5711C39.0909 22.3473 39.6751 22.1656 40.0882 22.0394C40.2946 21.9763 40.4587 21.927 40.5747 21.8932C40.6326 21.8763 40.6791 21.8632 40.7133 21.854C40.7302 21.8495 40.745 21.8457 40.7569 21.8429C40.765 21.8411 40.7821 21.837 40.7979 21.8361L40.8119 22.0827ZM45.57 25.2318L50.2339 26.7274L50.1586 26.9626L45.4946 25.4669L45.57 25.2318ZM31.5025 26.7276L36.1029 25.238L36.1791 25.4729L31.5785 26.9625L31.5025 26.7276ZM36.1029 25.238C37.3688 24.8273 38.5271 24.4533 39.3728 24.182C39.7956 24.0464 40.1404 23.9363 40.3816 23.8602C40.5022 23.8221 40.5972 23.7925 40.6631 23.7723C40.696 23.7622 40.7221 23.7543 40.7408 23.7489C40.7501 23.7462 40.7582 23.7439 40.7648 23.7422C40.7679 23.7414 40.7717 23.7404 40.7756 23.7396C40.7775 23.7392 40.7804 23.7386 40.7838 23.738C40.7855 23.7377 40.7941 23.7363 40.805 23.7363V23.9832C40.8152 23.9832 40.823 23.9818 40.8238 23.9817C40.8262 23.9813 40.8278 23.9809 40.8282 23.9808C40.8291 23.9806 40.8289 23.9807 40.8271 23.9811C40.8238 23.982 40.818 23.9836 40.8095 23.9861C40.7926 23.991 40.7679 23.9984 40.7354 24.0083C40.6705 24.0282 40.5763 24.0577 40.456 24.0957C40.2153 24.1716 39.8709 24.2815 39.4482 24.4171C38.6028 24.6883 37.445 25.0622 36.1791 25.4729L36.1029 25.238ZM40.805 23.7363C40.8197 23.7363 40.8324 23.7391 40.8326 23.7392C40.8367 23.74 40.8408 23.741 40.8442 23.7418C40.8512 23.7435 40.8597 23.7458 40.8692 23.7485C40.8886 23.7539 40.9154 23.7617 40.949 23.7717C41.0164 23.7918 41.113 23.8212 41.2355 23.859C41.4805 23.9346 41.8302 24.0439 42.2587 24.1787C43.1155 24.4485 44.288 24.821 45.57 25.2318L45.4946 25.4669C44.213 25.0562 43.0409 24.6839 42.1845 24.4142C41.7563 24.2794 41.4071 24.1703 41.1627 24.0949C41.0405 24.0572 40.9448 24.0281 40.8786 24.0084C40.8454 23.9985 40.8202 23.9912 40.803 23.9864C40.7942 23.9839 40.7884 23.9824 40.785 23.9815C40.7831 23.9811 40.7829 23.9811 40.7838 23.9812C40.7842 23.9813 40.7859 23.9816 40.7882 23.982C40.7894 23.9822 40.7961 23.9832 40.805 23.9832V23.7363ZM55.3009 29.6159V30.5354H55.0539V29.6159H55.3009ZM55.1775 30.6588H40.8366V30.412H55.1775V30.6588ZM40.8366 30.6588H26.4958V30.412H40.8366V30.6588ZM26.3724 30.5354V29.6159H26.6193V30.5354H26.3724ZM26.3724 29.6159V28.6964H26.6193V29.6159H26.3724ZM55.3009 28.6964V29.6159H55.0539V28.6964H55.3009ZM33.0282 33.2939V34.2135H32.7813V33.2939H33.0282ZM32.9048 34.337H30.6839V34.09H32.9048V34.337ZM30.6839 34.337H28.463V34.09H30.6839V34.337ZM28.3395 34.2135V33.2939H28.5864V34.2135H28.3395ZM28.3395 33.2939V32.3745H28.5864V33.2939H28.3395ZM28.463 32.251H30.6839V32.4979H28.463V32.251ZM30.6839 32.251H32.9048V32.4979H30.6839V32.251ZM33.0282 32.3745V33.2939H32.7813V32.3745H33.0282ZM36.8355 33.8457C36.8355 34.528 36.8388 34.8965 36.8558 35.1222C36.8723 35.3399 36.9004 35.4122 36.9487 35.5053L36.7293 35.6188C36.6634 35.4913 36.6281 35.3858 36.6096 35.1408C36.5917 34.9036 36.5887 34.5242 36.5887 33.8457H36.8355ZM36.9481 35.5044C37.0759 35.746 37.3915 35.929 37.7274 35.929V36.176C37.3144 36.176 36.9067 35.9543 36.7299 35.6197L36.9481 35.5044ZM37.7274 35.929H37.9812V36.176H37.7274V35.929ZM38.1046 36.0525V40.0984H37.8577V36.0525H38.1046ZM38.1046 40.0984V44.1442H37.8577V40.0984H38.1046ZM37.9812 44.2677H35.7602V44.0208H37.9812V44.2677ZM35.7602 44.2677H33.5393V44.0208H35.7602V44.2677ZM33.4159 44.1442V40.0984H33.6628V44.1442H33.4159ZM33.4159 40.0984V36.0525H33.6628V40.0984H33.4159ZM33.5393 35.929H33.7932V36.176H33.5393V35.929ZM33.7932 35.929C34.1289 35.929 34.4446 35.746 34.5724 35.5044L34.7907 35.6197C34.6138 35.9543 34.2062 36.176 33.7932 36.176V35.929ZM34.5719 35.5053C34.6201 35.4122 34.6483 35.3399 34.6647 35.1222C34.6817 34.8965 34.685 34.528 34.685 33.8457H34.9319C34.9319 34.5242 34.9288 34.9036 34.9109 35.1408C34.8925 35.3858 34.8572 35.4913 34.7912 35.6188L34.5719 35.5053ZM34.685 33.8457V32.3745H34.9319V33.8457H34.685ZM34.8085 32.251H35.7602V32.4979H34.8085V32.251ZM35.7602 32.251H36.7121V32.4979H35.7602V32.251ZM36.8355 32.3745V33.8457H36.5887V32.3745H36.8355ZM43.181 33.2939V34.2135H42.9341V33.2939H43.181ZM43.0576 34.337H40.8366V34.09H43.0576V34.337ZM40.8366 34.337H38.6157V34.09H40.8366V34.337ZM38.4923 34.2135V33.2939H38.7392V34.2135H38.4923ZM38.4923 33.2939V32.3745H38.7392V33.2939H38.4923ZM38.6157 32.251H40.8366V32.4979H38.6157V32.251ZM40.8366 32.251H43.0576V32.4979H40.8366V32.251ZM43.181 32.3745V33.2939H42.9341V32.3745H43.181ZM46.9883 33.8457C46.9883 34.528 46.9915 34.8965 47.0086 35.1222C47.0251 35.3399 47.0532 35.4122 47.1014 35.5053L46.8821 35.6188C46.8162 35.4913 46.7809 35.3858 46.7624 35.1408C46.7445 34.9036 46.7414 34.5242 46.7414 33.8457H46.9883ZM47.1009 35.5044C47.2287 35.746 47.5443 35.929 47.8801 35.929V36.176C47.4672 36.176 47.0595 35.9543 46.8826 35.6197L47.1009 35.5044ZM47.8801 35.929H48.1339V36.176H47.8801V35.929ZM48.2574 36.0525V40.0984H48.0105V36.0525H48.2574ZM48.2574 40.0984V44.1442H48.0105V40.0984H48.2574ZM48.1339 44.2677H45.913V44.0208H48.1339V44.2677ZM45.913 44.2677H43.6921V44.0208H45.913V44.2677ZM43.5687 44.1442V40.0984H43.8156V44.1442H43.5687ZM43.5687 40.0984V36.0525H43.8156V40.0984H43.5687ZM43.6921 35.929H43.946V36.176H43.6921V35.929ZM43.946 35.929C44.2817 35.929 44.5974 35.746 44.7251 35.5044L44.9435 35.6197C44.7666 35.9543 44.3589 36.176 43.946 36.176V35.929ZM44.7247 35.5053C44.7729 35.4122 44.8011 35.3399 44.8175 35.1222C44.8345 34.8965 44.8377 34.528 44.8377 33.8457H45.0847C45.0847 34.5242 45.0815 34.9036 45.0637 35.1408C45.0452 35.3858 45.01 35.4913 44.9439 35.6188L44.7247 35.5053ZM44.8377 33.8457V32.3745H45.0847V33.8457H44.8377ZM44.9613 32.251H45.913V32.4979H44.9613V32.251ZM45.913 32.251H46.8649V32.4979H45.913V32.251ZM46.9883 32.3745V33.8457H46.7414V32.3745H46.9883ZM53.3338 33.2939V34.2135H53.0869V33.2939H53.3338ZM53.2103 34.337H50.9894V34.09H53.2103V34.337ZM50.9894 34.337H48.7685V34.09H50.9894V34.337ZM48.6451 34.2135V33.2939H48.892V34.2135H48.6451ZM48.6451 33.2939V32.3745H48.892V33.2939H48.6451ZM48.7685 32.251H50.9894V32.4979H48.7685V32.251ZM50.9894 32.251H53.2103V32.4979H50.9894V32.251ZM53.3338 32.3745V33.2939H53.0869V32.3745H53.3338ZM31.7592 40.0984V44.1442H31.5122V40.0984H31.7592ZM31.6357 44.2677H30.6839V44.0208H31.6357V44.2677ZM30.6839 44.2677H29.732V44.0208H30.6839V44.2677ZM29.6086 44.1442V40.0984H29.8555V44.1442H29.6086ZM29.6086 40.0984V36.0525H29.8555V40.0984H29.6086ZM29.732 35.929H30.6839V36.176H29.732V35.929ZM30.6839 35.929H31.6357V36.176H30.6839V35.929ZM31.7592 36.0525V40.0984H31.5122V36.0525H31.7592ZM41.9119 40.0984V44.1442H41.6651V40.0984H41.9119ZM41.7885 44.2677H40.8366V44.0208H41.7885V44.2677ZM40.8366 44.2677H39.8849V44.0208H40.8366V44.2677ZM39.7613 44.1442V40.0984H40.0083V44.1442H39.7613ZM39.7613 40.0984V36.0525H40.0083V40.0984H39.7613ZM39.8849 35.929H40.8366V36.176H39.8849V35.929ZM40.8366 35.929H41.7885V36.176H40.8366V35.929ZM41.9119 36.0525V40.0984H41.6651V36.0525H41.9119ZM52.0647 40.0984V44.1442H51.8178V40.0984H52.0647ZM51.9413 44.2677H50.9894V44.0208H51.9413V44.2677ZM50.9894 44.2677H50.0376V44.0208H50.9894V44.2677ZM49.9141 44.1442V40.0984H50.1611V44.1442H49.9141ZM49.9141 40.0984V36.0525H50.1611V40.0984H49.9141ZM50.0376 35.929H50.9894V36.176H50.0376V35.929ZM50.9894 35.929H51.9413V36.176H50.9894V35.929ZM52.0647 36.0525V40.0984H51.8178V36.0525H52.0647ZM53.9684 46.9028V47.8223H53.7214V46.9028H53.9684ZM27.7049 47.8223V46.9028H27.9519V47.8223H27.7049ZM27.7049 46.9028V45.9833H27.9519V46.9028H27.7049ZM27.8284 45.8598H40.8366V46.1067H27.8284V45.8598ZM40.8366 45.8598H53.8449V46.1067H40.8366V45.8598ZM53.9684 45.9833V46.9028H53.7214V45.9833H53.9684ZM55.3009 50.5809V51.5004H55.0539V50.5809H55.3009ZM55.1775 51.6238H40.8366V51.3769H55.1775V51.6238ZM40.8366 51.6238H26.4958V51.3769H40.8366V51.6238ZM26.3724 51.5004V50.5809H26.6193V51.5004H26.3724ZM26.3724 50.5809V49.6613H26.6193V50.5809H26.3724ZM55.3009 49.6613V50.5809H55.0539V49.6613H55.3009ZM31.583 26.961L26.5384 28.8123L26.4533 28.5805L31.498 26.7291L31.583 26.961ZM50.2392 26.7294L55.2204 28.5807L55.1344 28.8121L50.1532 26.9608L50.2392 26.7294ZM26.4958 49.5379H27.8284V49.7847H26.4958V49.5379ZM27.9519 47.8223V49.6613H27.7049V47.8223H27.9519ZM53.8449 49.5379H55.1775V49.7847H53.8449V49.5379ZM53.9684 47.8223V49.6613H53.7214V47.8223H53.9684Z" fill="#FCFBF7"/>
</g>
</g>
<defs>
<clipPath id="clip0_2845_1472">
<rect width="33.3333" height="32.4074" fill="white" transform="translate(24.5703 21.334)"/>
</clipPath>
</defs>
</svg>
