<svg width="80" height="80" viewBox="0 0 80 80" fill="none" xmlns="http://www.w3.org/2000/svg">
<path d="M19.6667 59.0006C8.80507 48.1391 8.80507 30.5289 19.6667 19.6673V19.6673C30.5283 8.80572 48.1384 8.80572 59 19.6673L59.6667 20.334C70.8965 31.5638 70.8965 49.7709 59.6667 61.0007L40.6667 80.0007L19.6667 59.0006Z" fill="#F78712"/>
<path fill-rule="evenodd" clip-rule="evenodd" d="M41.6748 29.3418C40.6295 29.7439 39.6325 30.7088 39.1178 31.7862C38.6676 32.7511 38.6032 34.311 38.9731 35.3242L39.1822 35.9353L38.6032 35.8549C38.2655 35.8066 36.9629 35.6458 35.6764 35.5171C34.3898 35.3724 33.2641 35.2438 33.1676 35.2116C33.0711 35.1794 32.5083 34.3914 31.8972 33.4909C29.9191 30.4836 29.3563 29.969 28.0376 29.969C27.2657 29.969 26.3008 30.4836 25.8344 31.1269C25.5449 31.545 25.4645 31.8666 25.4645 32.7029C25.4522 33.1582 25.4671 33.4095 25.5809 33.878C26.3408 35.0085 26.6505 35.5124 27.4104 36.6429C28.4879 38.2349 29.5332 39.6983 29.7422 39.8752C30.289 40.3577 30.9644 40.5346 33.2319 40.7597C34.5667 40.8884 35.6764 42.8049 35.6764 42.9336L37.561 42.4352C37.9277 42.4352 35.5799 39.3606 34.3898 39.2159C33.1998 39.0872 31.9133 38.9425 31.5273 38.8943L30.8358 38.7978L28.9221 35.9192C26.8636 32.8315 26.6546 32.3169 27.3461 31.8345C27.8285 31.4968 28.3753 31.5128 28.7291 31.8666C28.8738 32.0114 29.694 33.1853 30.5302 34.4397C31.4951 35.9031 32.1545 36.7554 32.3796 36.8037C32.5565 36.8358 34.1486 37.0288 35.9176 37.2057C38.8445 37.5273 39.3591 37.6238 41.6105 38.3475C42.9774 38.7978 44.2318 39.232 44.3926 39.3124C45.4065 39.6021 46.7277 41.4669 46.3611 41.8336C45.9944 42.2003 48.1944 41.834 48.1944 41.834C47.3571 39.3612 47.7069 40.248 45.6952 38.0741L46.5636 37.27C48.6864 35.3242 48.7508 32.3652 46.7084 30.355C45.3414 29.0202 43.476 28.6503 41.6748 29.3418ZM46.435 32.9441C46.1938 31.9953 45.3414 31.0786 44.4248 30.8052C43.5885 30.564 43.1543 30.564 42.3824 30.8535C39.7289 31.7862 39.6807 35.5332 42.302 36.6429C44.6338 37.6077 47.0622 35.4367 46.435 32.9441Z" fill="#FCFBF7" stroke="#FCFBF7" stroke-width="0.2"/>
<path d="M24.1216 40.7344C24.6457 40.8035 24.8765 40.9776 25.2465 41.3936C26.2187 42.4138 27.2532 42.7125 28.558 42.6993C29.7177 42.5717 30.8173 41.8712 31.6087 40.9152C31.7831 40.7344 31.7831 40.7344 32.0719 40.7344C32.4899 40.9138 32.691 41.1926 32.9992 41.5563C33.8503 42.4192 34.9533 42.7466 36.0874 42.6999C37.292 42.5188 38.2921 41.9656 39.1025 40.9484C39.3229 40.7344 39.3229 40.7344 39.6084 40.7569C39.9922 40.8931 40.1644 41.0749 40.4478 41.3936C41.3676 42.3588 42.348 42.6984 43.5864 42.6817C44.7029 42.5898 45.6797 42.079 46.4599 41.1796C46.7789 40.83 46.9103 40.7587 47.3492 40.7344C47.6138 40.9415 47.6138 40.9415 47.8737 41.2395C48.8644 42.3018 49.9498 42.7243 51.3163 42.6945C52.5277 42.5699 53.5365 41.9146 54.3518 40.9078C54.4371 40.8219 54.4371 40.8219 54.5242 40.7344C54.8511 40.7772 54.8511 40.7772 55.1323 40.8714C55.0584 41.6721 54.6762 41.988 54.1561 42.4939C52.8537 43.558 51.3474 43.7949 49.7814 43.6112C48.7797 43.3278 47.9967 42.7265 47.2276 41.9673C47.1627 42.0187 47.0978 42.0701 47.0309 42.123C45.4737 43.3278 44.1578 43.8035 42.2416 43.6112C41.3885 43.352 40.683 42.9118 40.0184 42.26C39.7835 42.0539 39.7835 42.0539 39.3229 42.1043C39.0972 42.2633 39.0972 42.2633 38.8821 42.481C37.6726 43.5603 36.2003 43.7913 34.7017 43.6112C33.6508 43.3267 32.826 42.7751 32.0263 41.9673C31.9614 42.0187 31.8965 42.0701 31.8296 42.123C30.2576 43.3393 28.862 43.8986 26.9367 43.548C25.8507 43.2179 24.6451 42.4894 24 41.4193C24.0076 41.0169 24.0076 41.0169 24.1216 40.7344Z" fill="#FCFBF7"/>
<path d="M25.9888 45.1348C26.5129 45.2039 26.7437 45.378 27.1137 45.794C28.0859 46.8142 29.1204 47.1129 30.4252 47.0997C31.5849 46.9721 32.6845 46.2716 33.4759 45.3156C33.6503 45.1348 33.6503 45.1348 33.9391 45.1348C34.3571 45.3142 34.5582 45.593 34.8664 45.9567C35.7175 46.8196 36.8205 47.147 37.9546 47.1003C39.1592 46.9192 40.1593 46.366 40.9697 45.3488C41.1901 45.1348 41.1901 45.1348 41.4756 45.1572C41.8594 45.2935 42.0316 45.4753 42.315 45.794C43.2347 46.7592 44.2152 47.0988 45.4536 47.0821C46.5701 46.9902 47.5469 46.4794 48.3271 45.58C48.6461 45.2304 48.7775 45.159 49.2164 45.1348C49.481 45.3419 49.481 45.3419 49.7408 45.6399C50.7316 46.7022 51.817 47.1247 53.1835 47.0949C54.3949 46.9703 55.4037 46.315 56.219 45.3081C56.3043 45.2223 56.3043 45.2223 56.3914 45.1348C56.7182 45.1776 56.7182 45.1776 56.9995 45.2718C56.9256 46.0725 56.5434 46.3884 56.0233 46.8942C54.7209 47.9584 53.2146 48.1953 51.6486 48.0116C50.6469 47.7282 49.8639 47.1269 49.0948 46.3677C49.0299 46.4191 48.965 46.4705 48.8981 46.5234C47.3409 47.7282 46.025 48.2038 44.1088 48.0116C43.2557 47.7524 42.5502 47.3122 41.8856 46.6604C41.6507 46.4543 41.6507 46.4543 41.1901 46.5047C40.9644 46.6637 40.9644 46.6637 40.7493 46.8814C39.5398 47.9606 38.0674 48.1917 36.5689 48.0116C35.518 47.7271 34.6932 47.1755 33.8935 46.3677C33.8286 46.4191 33.7637 46.4705 33.6968 46.5234C32.1248 47.7397 30.7292 48.299 28.8039 47.9484C27.7179 47.6183 26.5123 46.8898 25.8672 45.8197C25.8748 45.4173 25.8748 45.4173 25.9888 45.1348Z" fill="#FCFBF7"/>
<path d="M24.1216 49.5352C24.6457 49.6043 24.8765 49.7784 25.2465 50.1944C26.2187 51.2146 27.2532 51.5133 28.558 51.5001C29.7177 51.3725 30.8173 50.672 31.6087 49.716C31.7831 49.5352 31.7831 49.5352 32.0719 49.5352C32.4899 49.7146 32.691 49.9934 32.9992 50.3571C33.8503 51.22 34.9533 51.5474 36.0874 51.5007C37.292 51.3196 38.2921 50.7664 39.1025 49.7492C39.3229 49.5352 39.3229 49.5352 39.6084 49.5576C39.9922 49.6939 40.1644 49.8757 40.4478 50.1944C41.3676 51.1596 42.348 51.4992 43.5864 51.4825C44.7029 51.3906 45.6797 50.8797 46.4599 49.9804C46.7789 49.6308 46.9103 49.5594 47.3492 49.5352C47.6138 49.7422 47.6138 49.7422 47.8737 50.0403C48.8644 51.1026 49.9498 51.5251 51.3163 51.4953C52.5277 51.3707 53.5365 50.7154 54.3518 49.7085C54.4371 49.6227 54.4371 49.6227 54.5242 49.5352C54.8511 49.578 54.8511 49.578 55.1323 49.6721C55.0584 50.4729 54.6762 50.7888 54.1561 51.2946C52.8537 52.3588 51.3474 52.5957 49.7814 52.412C48.7797 52.1286 47.9967 51.5273 47.2276 50.7681C47.1627 50.8195 47.0978 50.8709 47.0309 50.9238C45.4737 52.1286 44.1578 52.6042 42.2416 52.412C41.3885 52.1527 40.683 51.7126 40.0184 51.0608C39.7835 50.8547 39.7835 50.8547 39.3229 50.9051C39.0972 51.0641 39.0972 51.0641 38.8821 51.2818C37.6726 52.361 36.2003 52.5921 34.7017 52.412C33.6508 52.1275 32.826 51.5759 32.0263 50.7681C31.9614 50.8195 31.8965 50.8709 31.8296 50.9238C30.2576 52.1401 28.862 52.6994 26.9367 52.3488C25.8507 52.0187 24.6451 51.2902 24 50.2201C24.0076 49.8177 24.0076 49.8177 24.1216 49.5352Z" fill="#FCFBF7"/>
</svg>
