<svg width="80" height="80" viewBox="0 0 80 80" fill="none" xmlns="http://www.w3.org/2000/svg">
<path d="M19.6667 59.0006C8.80507 48.1391 8.80507 30.5289 19.6667 19.6673V19.6673C30.5283 8.80572 48.1384 8.80572 59 19.6673L59.6667 20.334C70.8965 31.5638 70.8965 49.7709 59.6667 61.0007L40.6667 80.0007L19.6667 59.0006Z" fill="#F78712"/>
<path d="M25 32.25L30.8333 35.55M30.8333 35.55L40 40.5M30.8333 35.55L25 37.2M30.8333 35.55L30 29.775M55 48.75L49.1667 45.45M49.1667 45.45L40 40.5M49.1667 45.45L50 51.225M49.1667 45.45L55 43.8M40 40.5L30.8333 45.45M40 40.5V28.95M40 40.5V51.225M40 40.5L49.1667 35.55M30.8333 45.45L25 48.75M30.8333 45.45L25 43.8M30.8333 45.45L30 51.225M40 28.95V24M40 28.95L35.8333 27.3M40 28.95L44.1667 27.3M40 51.225V57M40 51.225L44.1667 53.7M40 51.225L35.8333 53.7M49.1667 35.55L55 32.25M49.1667 35.55L55 37.2M49.1667 35.55L50 29.775" stroke="#FCFBF7" stroke-width="2" stroke-linecap="round" stroke-linejoin="round"/>
</svg>
