<svg width="80" height="88" viewBox="0 0 80 88" fill="none" xmlns="http://www.w3.org/2000/svg">
<path d="M38.8989 81.7684L40.6667 83.5362L42.4344 81.7684L61.4344 62.7684C73.6405 50.5623 73.6405 30.7723 61.4344 18.5662L60.7678 17.8996C48.9299 6.06164 29.7368 6.06164 17.8989 17.8996C6.06099 29.7375 6.06099 48.9305 17.8989 60.7684L38.8989 81.7684Z" fill="#FFBB00" stroke="#F78712" stroke-width="5"/>
<path d="M33.524 24.0697C31.5641 24.2681 29.502 24.9953 27.957 26.029C25.5342 27.6637 24.1514 29.9235 24.0131 32.5017C23.9831 33.0547 24.0011 33.241 24.1033 33.6617C24.3979 34.8216 25.2516 35.7231 26.3999 36.0837C26.6945 36.1739 27.0251 36.2159 27.7345 36.2399L28.6724 36.2761L28.6423 36.7027C28.5642 37.7064 29.1052 38.6559 30.0191 39.1127C30.2535 39.227 30.494 39.3231 30.5601 39.3231C30.6203 39.3231 30.6864 39.3591 30.7044 39.4072C30.7225 39.4493 30.4459 41.9975 30.0912 45.0686C29.484 50.3394 29.4539 50.6819 29.5141 51.1687C29.7064 52.7434 30.7886 54.0536 32.3216 54.5764L32.8026 54.7387H34.9068H37.0109L37.498 54.5704C38.5019 54.2339 39.4156 53.4405 39.8665 52.5211C40.1853 51.878 40.3055 51.3731 40.3055 50.7119C40.3055 50.4116 40.0288 47.7972 39.6922 44.8884C39.3555 41.9855 39.085 39.5514 39.0971 39.4854C39.1091 39.4012 39.1932 39.3411 39.3555 39.293C40.5038 38.9504 41.2914 37.7845 41.1591 36.6246L41.1171 36.2761L42.073 36.2459C42.8846 36.2159 43.095 36.1859 43.4617 36.0596C44.0629 35.8493 44.4056 35.639 44.8264 35.2122C45.5058 34.5211 45.7883 33.7879 45.7823 32.7121C45.7703 30.7889 44.9887 28.9739 43.5038 27.4353C41.1171 24.9472 37.3656 23.6791 33.524 24.0697ZM36.8606 25.9749C39.4578 26.4317 41.61 27.6877 42.8786 29.4907C43.4918 30.3502 43.8405 31.2697 43.9608 32.2914C44.0569 33.1148 43.9608 33.4814 43.5519 33.9201C43.0409 34.467 43.7804 34.4249 34.8767 34.4249H27.0311L26.6885 34.2567C25.9009 33.872 25.6664 33.1869 25.8889 31.9248C26.1113 30.6387 26.6945 29.5689 27.7466 28.5291C29.2075 27.0807 31.3176 26.1252 33.6442 25.8607C34.4078 25.7766 36.0671 25.8367 36.8606 25.9749ZM39.3195 36.5825C39.4097 36.9912 39.3615 37.1716 39.1091 37.3999C38.8806 37.5982 38.58 37.6403 38.2614 37.5141C37.7083 37.3037 36.9268 37.3398 36.3496 37.6043C36.1873 37.6823 35.8506 37.9108 35.6101 38.115C35.2254 38.4396 35.1412 38.4817 34.9188 38.4817C34.6422 38.4817 34.516 38.4155 34.0771 38.0249C33.506 37.52 32.7364 37.2857 32.009 37.3999C31.8046 37.4359 31.5641 37.49 31.48 37.52C31.1012 37.6644 30.6804 37.5321 30.5181 37.2196C30.4098 37.0093 30.4038 36.8771 30.494 36.5225L30.5601 36.258H34.9068H39.2473L39.3195 36.5825ZM33.0791 39.5394C33.2895 39.7258 33.6382 39.9662 33.8547 40.0684C34.2214 40.2426 34.2875 40.2546 34.9068 40.2546C35.532 40.2546 35.5921 40.2426 35.9588 40.0623C36.1753 39.9541 36.524 39.7198 36.7404 39.5335C37.0771 39.2449 37.2213 39.1487 37.2213 39.2209C37.2213 39.2449 38.4597 50.0509 38.508 50.4655C38.5981 51.2469 38.1592 52.1604 37.4799 52.5931C36.9268 52.9417 36.6983 52.9718 34.7745 52.9537C33.1272 52.9357 33.025 52.9296 32.7004 52.7975C32.2555 52.6172 31.7625 52.1664 31.5461 51.7457C31.1974 51.0545 31.1914 51.2349 31.8948 45.1227C32.5801 39.1487 32.5741 39.2028 32.6463 39.2028C32.6703 39.2028 32.8627 39.3531 33.0791 39.5394Z" fill="#FCFBF7" stroke="#FCFBF7" stroke-width="0.666667"/>
<path d="M46.8629 37.1603C44.2297 37.4608 42.0293 38.9273 41.1456 40.9587C40.857 41.6257 40.7607 42.1787 40.7848 42.9299C40.8029 43.4769 40.8329 43.609 40.9831 43.9216C41.2116 44.3964 41.6385 44.8171 42.1435 45.0515C42.5463 45.2438 42.5463 45.2438 43.6766 45.2619L44.8007 45.2798V45.4421C44.8007 45.5262 44.6384 47.0348 44.434 48.7897C44.0974 51.7346 44.0733 52.0051 44.1394 52.3837C44.3379 53.5135 45.2576 54.469 46.3519 54.7035C46.7486 54.7876 48.6965 54.7937 49.1353 54.7096C49.5502 54.6314 50.1093 54.361 50.446 54.0665C51.0111 53.5856 51.4139 52.7082 51.4139 51.9749C51.4139 51.7706 51.2516 50.196 51.0531 48.4711C50.8548 46.7523 50.6925 45.3339 50.6925 45.3158C50.6925 45.2979 51.2154 45.2738 51.8528 45.2619C52.9589 45.2438 53.019 45.2378 53.3497 45.0815C53.7525 44.8952 54.2335 44.4625 54.4499 44.1019C54.8527 43.4047 54.8827 42.4671 54.528 41.3674C53.8727 39.3239 51.7866 37.6892 49.2797 37.2505C48.6303 37.1364 47.434 37.0942 46.8629 37.1603ZM49.1053 39.0596C49.7426 39.1857 50.452 39.4561 50.957 39.7566C51.5581 40.1052 52.3638 40.9287 52.6043 41.4274C53.0552 42.3649 53.0852 43.1884 52.6824 43.4107C52.6043 43.4528 50.9389 43.4708 47.7526 43.4708H42.949L42.7627 43.3146C42.5884 43.1703 42.5763 43.1343 42.5763 42.7556C42.5763 40.9287 44.4881 39.2758 46.953 38.9633C47.4942 38.8912 48.5342 38.9393 49.1053 39.0596ZM48.8588 45.346C48.9069 45.4721 49.6103 51.6925 49.6103 51.9629C49.6103 52.3115 49.3758 52.6842 49.0512 52.8405C48.8167 52.9546 48.6844 52.9666 47.7707 52.9666C46.6525 52.9666 46.3939 52.9005 46.1354 52.582C45.8529 52.2153 45.8529 52.2394 46.2376 48.8378C46.442 47.0948 46.6163 45.5743 46.6344 45.4661L46.6704 45.2738H47.7526C48.5643 45.2738 48.8408 45.2919 48.8588 45.346Z" fill="#FCFBF7" stroke="#FCFBF7" stroke-width="0.666667"/>
</svg>
