<svg width="81" height="80" viewBox="0 0 81 80" fill="none" xmlns="http://www.w3.org/2000/svg">
<path d="M20.4323 59.0006C9.57069 48.1391 9.57069 30.5289 20.4323 19.6673V19.6673C31.2939 8.80572 48.904 8.80572 59.7656 19.6673L60.4323 20.334C71.6621 31.5638 71.6621 49.7709 60.4323 61.0007L41.4323 80.0007L20.4323 59.0006Z" fill="#61A5FF"/>
<g clip-path="url(#clip0_2863_1040)">
<path fill-rule="evenodd" clip-rule="evenodd" d="M54.8081 31.1476C54.8081 30.7349 54.475 30.3963 54.0612 30.3963C52.5673 30.3963 51.3469 31.6203 51.3574 33.1371C51.3574 34.9043 49.9266 36.3435 48.1696 36.3435H47.8119C47.591 34.0788 46.3777 32.1 44.6172 30.8548V30.0012C44.6172 29.2181 44.3156 28.4844 43.7651 27.9306L43.7581 27.9271C44.5962 27.5355 45.259 26.8054 45.5641 25.8812C45.6938 25.4826 45.4799 25.0593 45.0871 24.9288C44.6944 24.7983 44.27 25.0134 44.1403 25.4085C43.9088 26.1246 43.2917 26.629 42.5657 26.7278L42.3272 26.4879C41.191 25.345 39.3464 25.345 38.2102 26.4879L37.9718 26.7278C37.2458 26.629 36.6321 26.1246 36.3971 25.4085C36.2674 25.0134 35.8431 24.7983 35.4503 24.9288C35.0575 25.0593 34.8436 25.4861 34.9733 25.8812C35.2784 26.8054 35.9412 27.532 36.7794 27.9271L36.7758 27.9341C36.2253 28.4879 35.9237 29.2216 35.9237 30.0047V30.8583C34.1632 32.1035 32.9499 34.0788 32.729 36.347H32.3713C30.6143 36.347 29.1835 34.9078 29.1835 33.1406C29.1835 31.6344 27.9666 30.4068 26.4692 30.4068C26.0554 30.4068 25.7223 30.7419 25.7223 31.1582C25.7223 31.5744 26.0554 31.9095 26.4692 31.9095C27.1425 31.9095 27.6896 32.4598 27.6896 33.1371C27.6896 35.4793 29.3974 37.4263 31.6243 37.7861V40.4705C29.3974 40.8303 27.6896 42.7774 27.6896 45.1197C27.6896 45.4583 27.5528 45.7651 27.3319 45.9873C27.111 46.2096 26.8059 46.3472 26.4692 46.3472C26.0554 46.3472 25.7223 46.6823 25.7223 47.0986C25.7223 47.5112 26.0554 47.8498 26.4692 47.8498C27.9666 47.8498 29.1835 46.6223 29.1835 45.1161C29.1835 44.3612 29.443 43.6698 29.8779 43.1196C30.3127 42.5693 30.9229 42.1672 31.6208 41.9979V47.4019C29.3939 47.7617 27.6861 49.7088 27.6861 52.051C27.6861 52.3897 27.5493 52.6965 27.3284 52.9187C27.1075 53.141 26.8024 53.2786 26.4657 53.2786C26.0519 53.2786 25.7188 53.6136 25.7188 54.0298C25.7188 54.4425 26.0519 54.7812 26.4657 54.7812C27.9631 54.7812 29.18 53.5536 29.18 52.0474C29.18 51.2926 29.4395 50.5977 29.8744 50.051C30.3092 49.5042 30.9194 49.1021 31.6173 48.9328C31.6909 53.0246 35.0224 56.3298 39.108 56.3298H41.419C45.5044 56.3298 48.8359 53.0246 48.9096 48.9328C50.3089 49.2714 51.3504 50.5377 51.3504 52.0474C51.3504 52.8023 51.6555 53.4866 52.1465 53.9805C52.6374 54.4743 53.3178 54.7812 54.0647 54.7812C54.4785 54.7812 54.8117 54.4425 54.8117 54.0298C54.8117 53.6172 54.4785 53.2786 54.0647 53.2786C53.3914 53.2786 52.8444 52.7283 52.8444 52.051C52.8444 50.8835 52.4165 49.8111 51.7116 48.9857C51.0068 48.1603 50.0248 47.5818 48.9096 47.4019V42.5129C50.3054 42.8515 51.3469 44.1179 51.3469 45.6276C51.3469 46.3824 51.6519 47.0668 52.143 47.5606C52.6339 48.0545 53.3143 48.3613 54.0612 48.3613C54.475 48.3613 54.8081 48.0262 54.8081 47.61C54.8081 47.1937 54.475 46.8586 54.0612 46.8586C53.3879 46.8586 52.8408 46.3084 52.8408 45.6311C52.8408 44.4636 52.413 43.3912 51.7081 42.5658C51.0032 41.7404 50.0213 41.1619 48.9061 40.982V37.7756C51.133 37.4158 52.8408 35.4686 52.8408 33.1265C52.8408 32.4492 53.3879 31.8989 54.0612 31.8989C54.475 31.8989 54.8081 31.5638 54.8081 31.1476ZM47.3029 48.7601V37.5603H43.1545C41.9639 37.5603 40.9976 38.5693 40.9976 39.8125V51.6429C40.9976 52.0646 40.6663 52.4105 40.2625 52.4105C39.8587 52.4105 39.5274 52.0682 39.5274 51.6429V39.8125C39.5274 38.5693 38.5576 37.5603 37.3705 37.5603H33.2256V48.7601C33.2256 52.1583 35.8727 54.9222 39.127 54.9222H41.4014C44.6558 54.9222 47.3029 52.1583 47.3029 48.7601ZM46.3644 36.1463H43.2346C42.0224 36.1463 40.9449 36.7023 40.2644 37.5598C39.5838 36.7023 38.5063 36.1463 37.294 36.1463H34.1642C34.5364 33.2447 37.131 30.9905 40.2644 30.9905C43.3977 30.9905 45.9923 33.2447 46.3644 36.1463ZM43.0809 30.052V30.0211C43.0809 29.6545 42.9355 29.3085 42.6723 29.0447L41.2524 27.6399C40.7088 27.102 39.8222 27.102 39.2785 27.6399L37.8587 29.0447C37.5955 29.3051 37.45 29.6511 37.45 30.0211V30.052C38.3193 29.7025 39.2716 29.5072 40.2655 29.5072C41.2629 29.5072 42.2117 29.7025 43.0809 30.052Z" fill="#FCFBF7"/>
<path d="M51.3545 33.1382H51.586V33.1366L51.3545 33.1382ZM47.809 36.3446L47.5787 36.3671L47.5991 36.5761H47.809V36.3446ZM44.6143 30.8559H44.3828V30.9757L44.4806 31.0449L44.6143 30.8559ZM43.7622 27.9317L43.9263 27.7685L43.8998 27.7418L43.8662 27.7249L43.7622 27.9317ZM43.7552 27.9282L43.6572 27.7185L43.2247 27.9205L43.6512 28.135L43.7552 27.9282ZM45.5612 25.8823L45.781 25.9549L45.7813 25.9539L45.5612 25.8823ZM44.1374 25.4096L43.9175 25.3374L43.9171 25.3384L44.1374 25.4096ZM42.5628 26.7289L42.3987 26.8921L42.4799 26.9738L42.5941 26.9582L42.5628 26.7289ZM37.9689 26.7289L37.9377 26.9582L38.0517 26.9738L38.1329 26.8921L37.9689 26.7289ZM36.7765 27.9282L36.9838 28.0312L37.0891 27.8196L36.8752 27.7188L36.7765 27.9282ZM36.7729 27.9352L36.9371 28.0984L36.9636 28.0719L36.9803 28.0383L36.7729 27.9352ZM35.9208 30.8595L36.0545 31.0484L36.1523 30.9793V30.8595H35.9208ZM32.7261 36.3481V36.5796H32.9361L32.9565 36.3705L32.7261 36.3481ZM31.6214 37.7873H31.8529V37.5902L31.6583 37.5587L31.6214 37.7873ZM31.6214 40.4716L31.6583 40.7001L31.8529 40.6687V40.4716H31.6214ZM31.6179 41.999H31.8494V41.7047L31.5633 41.774L31.6179 41.999ZM31.6179 47.403L31.6548 47.6315L31.8494 47.6V47.403H31.6179ZM31.6144 48.9339L31.8458 48.9298L31.8406 48.6408L31.5598 48.7089L31.6144 48.9339ZM48.9067 48.9339L48.9612 48.7089L48.6804 48.641L48.6753 48.9298L48.9067 48.9339ZM48.9067 47.403H48.6753V47.6001L48.8699 47.6315L48.9067 47.403ZM48.9067 42.514L48.9613 42.289L48.6753 42.2197V42.514H48.9067ZM48.9032 40.9831H48.6717V41.1802L48.8664 41.2116L48.9032 40.9831ZM48.9032 37.7767L48.8663 37.5482L48.6717 37.5796V37.7767H48.9032ZM47.3 37.5614H47.5315V37.3299H47.3V37.5614ZM33.2227 37.5614V37.3299H32.9912V37.5614H33.2227ZM46.3616 36.1474V36.3789H46.6246L46.5912 36.118L46.3616 36.1474ZM40.2615 37.561L40.0801 37.7049L40.2615 37.9334L40.4428 37.7049L40.2615 37.561ZM34.1613 36.1474L33.9317 36.118L33.8982 36.3789H34.1613V36.1474ZM43.078 30.0531L42.9916 30.2679L43.3095 30.3956V30.0531H43.078ZM42.6694 29.0458L42.8333 28.8823L42.8322 28.8812L42.6694 29.0458ZM37.4471 30.0531H37.2156V30.3956L37.5335 30.2679L37.4471 30.0531ZM54.0583 30.6289C54.3423 30.6289 54.5738 30.8619 54.5738 31.1487H55.0367C55.0367 30.6101 54.6019 30.1659 54.0583 30.1659V30.6289ZM51.586 33.1366C51.5764 31.7475 52.6936 30.6289 54.0583 30.6289V30.1659C52.4352 30.1659 51.1116 31.4953 51.123 33.1398L51.586 33.1366ZM48.1667 36.5761C50.0528 36.5761 51.586 35.032 51.586 33.1382H51.123C51.123 34.7788 49.7946 36.1131 48.1667 36.1131V36.5761ZM47.809 36.5761H48.1667V36.1131H47.809V36.5761ZM44.4806 31.0449C46.1882 32.2527 47.3645 34.1717 47.5787 36.3671L48.0394 36.3221C47.8117 33.9882 46.5614 31.9496 44.748 30.6669L44.4806 31.0449ZM44.3828 30.0023V30.8559H44.8458V30.0023H44.3828ZM43.598 28.0949C44.1053 28.6051 44.3828 29.2801 44.3828 30.0023H44.8458C44.8458 29.1584 44.5203 28.3659 43.9263 27.7685L43.598 28.0949ZM43.6512 28.135L43.6581 28.1385L43.8662 27.7249L43.8591 27.7214L43.6512 28.135ZM45.3414 25.8097C45.0563 26.6732 44.4378 27.3538 43.6572 27.7185L43.8531 28.1379C44.7489 27.7195 45.4558 26.9398 45.781 25.9549L45.3414 25.8097ZM45.0113 25.1496C45.2823 25.2396 45.4317 25.5322 45.3411 25.8106L45.7813 25.9539C45.9502 25.4352 45.6717 24.8812 45.1572 24.7102L45.0113 25.1496ZM44.3573 25.4819C44.4475 25.2074 44.7413 25.0598 45.0113 25.1496L45.1572 24.7102C44.6417 24.5389 44.0868 24.8217 43.9175 25.3374L44.3573 25.4819ZM42.5941 26.9582C43.4071 26.8476 44.0985 26.2825 44.3577 25.4808L43.9171 25.3384C43.7133 25.9689 43.1703 26.4126 42.5316 26.4995L42.5941 26.9582ZM42.1602 26.6522L42.3987 26.8921L42.727 26.5657L42.4885 26.3258L42.1602 26.6522ZM38.3715 26.6522C39.4172 25.6004 41.1145 25.6004 42.1602 26.6522L42.4885 26.3258C41.2617 25.0919 39.2699 25.0919 38.0431 26.3258L38.3715 26.6522ZM38.1329 26.8921L38.3715 26.6522L38.0431 26.3258L37.8047 26.5657L38.1329 26.8921ZM36.1743 25.4818C36.4368 26.282 37.1238 26.8475 37.9377 26.9582L38.0001 26.4995C37.362 26.4127 36.8216 25.9694 36.6141 25.3375L36.1743 25.4818ZM35.5203 25.1496C35.7904 25.0598 36.0841 25.2073 36.1743 25.4818L36.6141 25.3375C36.4448 24.8218 35.8899 24.5389 35.3744 24.7102L35.5203 25.1496ZM35.1903 25.8101C35.1002 25.5353 35.2494 25.2396 35.5203 25.1496L35.3744 24.7102C34.8598 24.8812 34.5813 25.4391 34.7505 25.9545L35.1903 25.8101ZM36.8752 27.7188C36.0936 27.3504 35.4753 26.673 35.1903 25.8101L34.7505 25.9545C35.0759 26.9399 35.7831 27.7159 36.6778 28.1376L36.8752 27.7188ZM36.9803 28.0383L36.9838 28.0312L36.5692 27.8251L36.5657 27.8322L36.9803 28.0383ZM36.1523 30.0058C36.1523 29.2836 36.4299 28.6087 36.9371 28.0984L36.6089 27.772C36.0149 28.3694 35.6893 29.1619 35.6893 30.0058H36.1523ZM36.1523 30.8595V30.0058H35.6893V30.8595H36.1523ZM32.9565 36.3705C33.1706 34.1718 34.3469 32.2562 36.0545 31.0484L35.7871 30.6705C33.9738 31.953 32.7234 33.9882 32.4957 36.3257L32.9565 36.3705ZM32.3684 36.5796H32.7261V36.1166H32.3684V36.5796ZM28.9492 33.1417C28.9492 35.0355 30.4823 36.5796 32.3684 36.5796V36.1166C30.7406 36.1166 29.4121 34.7824 29.4121 33.1417H28.9492ZM26.4663 30.6394C27.8342 30.6394 28.9492 31.7617 28.9492 33.1417H29.4121C29.4121 31.5093 28.0933 30.1765 26.4663 30.1765V30.6394ZM25.9508 31.1593C25.9508 30.8696 26.1816 30.6394 26.4663 30.6394V30.1765C25.9234 30.1765 25.4879 30.6165 25.4879 31.1593H25.9508ZM26.4663 31.6791C26.1816 31.6791 25.9508 31.449 25.9508 31.1593H25.4879C25.4879 31.7021 25.9234 32.1421 26.4663 32.1421V31.6791ZM27.9182 33.1382C27.9182 32.3343 27.2688 31.6791 26.4663 31.6791V32.1421C27.0105 32.1421 27.4552 32.5875 27.4552 33.1382H27.9182ZM31.6583 37.5587C29.5427 37.217 27.9182 35.3659 27.9182 33.1382H27.4552C27.4552 35.5949 29.2464 37.638 31.5845 38.0158L31.6583 37.5587ZM31.8529 40.4716V37.7873H31.3899V40.4716H31.8529ZM27.9182 45.1208C27.9182 42.8931 29.5427 41.042 31.6583 40.7001L31.5845 40.2431C29.2464 40.6209 27.4552 42.664 27.4552 45.1208H27.9182ZM27.4932 46.1517C27.7555 45.8878 27.9182 45.5229 27.9182 45.1208H27.4552C27.4552 45.3959 27.3444 45.6448 27.1649 45.8253L27.4932 46.1517ZM26.4663 46.5798C26.8674 46.5798 27.2308 46.4156 27.4932 46.1517L27.1649 45.8253C26.9854 46.0059 26.7386 46.1168 26.4663 46.1168V46.5798ZM25.9508 47.0997C25.9508 46.8099 26.1816 46.5798 26.4663 46.5798V46.1168C25.9234 46.1168 25.4879 46.5568 25.4879 47.0997H25.9508ZM26.4663 47.6195C26.1823 47.6195 25.9508 47.3865 25.9508 47.0997H25.4879C25.4879 47.6382 25.9227 48.0824 26.4663 48.0824V47.6195ZM28.9492 45.1173C28.9492 46.4973 27.8342 47.6195 26.4663 47.6195V48.0824C28.0933 48.0824 29.4121 46.7496 29.4121 45.1173H28.9492ZM29.6934 42.9772C29.2276 43.5666 28.9492 44.3081 28.9492 45.1173H29.4121C29.4121 44.4166 29.6527 43.7754 30.0566 43.2642L29.6934 42.9772ZM31.5633 41.774C30.8137 41.9559 30.1593 42.3875 29.6934 42.9772L30.0566 43.2642C30.4603 42.7534 31.0263 42.3807 31.6725 42.2239L31.5633 41.774ZM31.8494 47.403V41.999H31.3864V47.403H31.8494ZM27.9147 52.0521C27.9147 49.8245 29.5392 47.9734 31.6548 47.6315L31.581 47.1745C29.2429 47.5523 27.4517 49.5954 27.4517 52.0521H27.9147ZM27.4897 53.0831C27.752 52.8192 27.9147 52.4543 27.9147 52.0521H27.4517C27.4517 52.3272 27.3409 52.5761 27.1613 52.7566L27.4897 53.0831ZM26.4628 53.5111C26.8639 53.5111 27.2273 53.347 27.4897 53.0831L27.1613 52.7566C26.9818 52.9372 26.735 53.0482 26.4628 53.0482V53.5111ZM25.9473 54.031C25.9473 53.7413 26.1781 53.5111 26.4628 53.5111V53.0482C25.9199 53.0482 25.4844 53.4882 25.4844 54.031H25.9473ZM26.4628 54.5509C26.1788 54.5509 25.9473 54.3178 25.9473 54.031H25.4844C25.4844 54.5696 25.9192 55.0138 26.4628 55.0138V54.5509ZM28.9456 52.0486C28.9456 53.4286 27.8307 54.5509 26.4628 54.5509V55.0138C28.0898 55.0138 29.4086 53.681 29.4086 52.0486H28.9456ZM29.6903 49.908C29.2238 50.4945 28.9456 51.2399 28.9456 52.0486H29.4086C29.4086 51.3475 29.6494 50.7032 30.0527 50.1961L29.6903 49.908ZM31.5598 48.7089C30.8103 48.8908 30.1561 49.3223 29.6903 49.908L30.0527 50.1961C30.4565 49.6884 31.0227 49.3156 31.669 49.1588L31.5598 48.7089ZM39.1051 56.0994C35.1473 56.0994 31.9172 52.8968 31.8458 48.9298L31.3829 48.9381C31.4588 53.1546 34.8918 56.5624 39.1051 56.5624V56.0994ZM41.4161 56.0994H39.1051V56.5624H41.4161V56.0994ZM48.6753 48.9298C48.6039 52.8968 45.3739 56.0994 41.4161 56.0994V56.5624C45.6292 56.5624 49.0623 53.1546 49.1381 48.9381L48.6753 48.9298ZM51.579 52.0486C51.579 50.43 50.4624 49.0722 48.9612 48.7089L48.8523 49.1588C50.1495 49.4728 51.116 50.6476 51.116 52.0486H51.579ZM52.3078 53.8184C51.8582 53.3662 51.579 52.7399 51.579 52.0486H51.116C51.116 52.8669 51.447 53.6093 51.9794 54.1448L52.3078 53.8184ZM54.0618 54.5509C53.3793 54.5509 52.7573 54.2706 52.3078 53.8184L51.9794 54.1448C52.5117 54.6802 53.2503 55.0138 54.0618 55.0138V54.5509ZM54.5773 54.031C54.5773 54.3178 54.3458 54.5509 54.0618 54.5509V55.0138C54.6054 55.0138 55.0403 54.5696 55.0403 54.031H54.5773ZM54.0618 53.5111C54.3458 53.5111 54.5773 53.7441 54.5773 54.031H55.0403C55.0403 53.4924 54.6054 53.0482 54.0618 53.0482V53.5111ZM52.61 52.0521C52.61 52.856 53.2593 53.5111 54.0618 53.5111V53.0482C53.5176 53.0482 53.0729 52.6028 53.0729 52.0521H52.61ZM51.5327 49.1372C52.2033 49.9224 52.61 50.942 52.61 52.0521H53.0729C53.0729 50.8271 52.6239 49.702 51.8847 48.8365L51.5327 49.1372ZM48.8699 47.6315C49.9285 47.8023 50.8619 48.3516 51.5327 49.1372L51.8847 48.8365C51.1457 47.9711 50.1153 47.3635 48.9436 47.1745L48.8699 47.6315ZM48.6753 42.514V47.403H49.1382V42.514H48.6753ZM51.5754 45.6287C51.5754 44.0103 50.459 42.6524 48.9613 42.289L48.8521 42.7389C50.1459 43.0528 51.1125 44.2276 51.1125 45.6287H51.5754ZM52.3042 47.3986C51.8547 46.9464 51.5754 46.3201 51.5754 45.6287H51.1125C51.1125 46.4471 51.4435 47.1894 51.9759 47.7249L52.3042 47.3986ZM54.0583 48.131C53.3759 48.131 52.7538 47.8508 52.3042 47.3986L51.9759 47.7249C52.5082 48.2604 53.2468 48.5939 54.0583 48.5939V48.131ZM54.5738 47.6111C54.5738 47.9008 54.343 48.131 54.0583 48.131V48.5939C54.6012 48.5939 55.0367 48.1539 55.0367 47.6111H54.5738ZM54.0583 47.0912C54.343 47.0912 54.5738 47.3214 54.5738 47.6111H55.0367C55.0367 47.0683 54.6013 46.6283 54.0583 46.6283V47.0912ZM52.6065 45.6323C52.6065 46.4361 53.2559 47.0912 54.0583 47.0912V46.6283C53.5141 46.6283 53.0694 46.1829 53.0694 45.6323H52.6065ZM51.5291 42.7173C52.1998 43.5025 52.6065 44.5222 52.6065 45.6323H53.0694C53.0694 44.4072 52.6203 43.2821 51.8812 42.4166L51.5291 42.7173ZM48.8664 41.2116C49.9251 41.3824 50.8584 41.9318 51.5291 42.7173L51.8812 42.4166C51.1423 41.5512 50.1117 40.9436 48.9401 40.7546L48.8664 41.2116ZM48.6717 37.7767V40.9831H49.1347V37.7767H48.6717ZM52.6065 33.1276C52.6065 35.3552 50.9819 37.2063 48.8663 37.5482L48.9402 38.0052C51.2782 37.6274 53.0694 35.5843 53.0694 33.1276H52.6065ZM54.0583 31.6686C53.2559 31.6686 52.6065 32.3237 52.6065 33.1276H53.0694C53.0694 32.5769 53.5141 32.1315 54.0583 32.1315V31.6686ZM54.5738 31.1487C54.5738 31.4384 54.343 31.6686 54.0583 31.6686V32.1315C54.6012 32.1315 55.0367 31.6915 55.0367 31.1487H54.5738ZM47.0685 37.5614V48.7612H47.5315V37.5614H47.0685ZM43.1516 37.7929H47.3V37.3299H43.1516V37.7929ZM41.2262 39.8136C41.2262 38.6886 42.0982 37.7929 43.1516 37.7929V37.3299C41.8239 37.3299 40.7632 38.4521 40.7632 39.8136H41.2262ZM41.2262 51.644V39.8136H40.7632V51.644H41.2262ZM40.2596 52.6431C40.8005 52.6431 41.2262 52.184 41.2262 51.644H40.7632C40.7632 51.9474 40.5262 52.1801 40.2596 52.1801V52.6431ZM39.293 51.644C39.293 52.1883 39.7193 52.6431 40.2596 52.6431V52.1801C39.9923 52.1801 39.756 51.9502 39.756 51.644H39.293ZM39.293 39.8136V51.644H39.756V39.8136H39.293ZM37.3676 37.7929C38.4178 37.7929 39.293 38.6889 39.293 39.8136H39.756C39.756 38.4518 38.6916 37.3299 37.3676 37.3299V37.7929ZM33.2227 37.7929H37.3676V37.3299H33.2227V37.7929ZM33.4542 48.7612V37.5614H32.9912V48.7612H33.4542ZM39.1241 54.6918C36.0069 54.6918 33.4542 52.0411 33.4542 48.7612H32.9912C32.9912 52.2777 35.7326 55.1548 39.1241 55.1548V54.6918ZM41.3985 54.6918H39.1241V55.1548H41.3985V54.6918ZM47.0685 48.7612C47.0685 52.0411 44.5157 54.6918 41.3985 54.6918V55.1548C44.7901 55.1548 47.5315 52.2777 47.5315 48.7612H47.0685ZM43.2317 36.3789H46.3616V35.916H43.2317V36.3789ZM40.4428 37.7049C41.08 36.9019 42.0911 36.3789 43.2317 36.3789V35.916C41.9479 35.916 40.804 36.5049 40.0801 37.4171L40.4428 37.7049ZM37.2911 36.3789C38.4317 36.3789 39.4428 36.9019 40.0801 37.7049L40.4428 37.4171C39.7189 36.5049 38.575 35.916 37.2911 35.916V36.3789ZM34.1613 36.3789H37.2911V35.916H34.1613V36.3789ZM40.2615 30.7602C37.0182 30.7602 34.3195 33.0945 33.9317 36.118L34.3909 36.1769C34.7475 33.3972 37.2379 31.2231 40.2615 31.2231V30.7602ZM46.5912 36.118C46.2033 33.0945 43.5047 30.7602 40.2615 30.7602V31.2231C43.2849 31.2231 45.7754 33.3972 46.1319 36.1769L46.5912 36.118ZM42.8466 30.0222V30.0531H43.3095V30.0222H42.8466ZM42.5055 29.2093C42.7266 29.4308 42.8466 29.7185 42.8466 30.0222H43.3095C43.3095 29.5928 43.1387 29.1884 42.8333 28.8823L42.5055 29.2093ZM41.0867 27.8056L42.5065 29.2103L42.8322 28.8812L41.4124 27.4765L41.0867 27.8056ZM39.4384 27.8056C39.8919 27.3569 40.6332 27.3569 41.0867 27.8056L41.4124 27.4765C40.7785 26.8494 39.7467 26.8494 39.1128 27.4765L39.4384 27.8056ZM38.0186 29.2103L39.4384 27.8056L39.1128 27.4765L37.6929 28.8812L38.0186 29.2103ZM37.6786 30.0222C37.6786 29.7145 37.7991 29.4276 38.0186 29.2103L37.6929 28.8812C37.3862 29.1848 37.2156 29.5899 37.2156 30.0222H37.6786ZM37.6786 30.0531V30.0222H37.2156V30.0531H37.6786ZM40.2626 29.2768C39.2382 29.2768 38.2566 29.4781 37.3608 29.8383L37.5335 30.2679C38.3761 29.9291 39.2991 29.7398 40.2626 29.7398V29.2768ZM43.1644 29.8383C42.2686 29.4781 41.2904 29.2768 40.2626 29.2768V29.7398C41.2294 29.7398 42.1491 29.9291 42.9916 30.2679L43.1644 29.8383Z" fill="#FCFBF7"/>
</g>
<defs>
<clipPath id="clip0_2863_1040">
<rect width="30.5556" height="33.3333" fill="white" transform="translate(24.7656 24)"/>
</clipPath>
</defs>
</svg>
