<svg width="81" height="80" viewBox="0 0 81 80" fill="none" xmlns="http://www.w3.org/2000/svg">
<path d="M20.1042 59.0006C9.24257 48.1391 9.24257 30.5289 20.1042 19.6673V19.6673C30.9658 8.80572 48.5759 8.80572 59.4375 19.6673L60.1042 20.334C71.334 31.5638 71.334 49.7709 60.1042 61.0007L41.1042 80.0007L20.1042 59.0006Z" fill="#FFBB00"/>
<g clip-path="url(#clip0_2863_1062)">
<path d="M39.7387 33.2539C40.1776 33.3955 40.4238 33.5985 40.741 33.9292C40.862 34.0542 40.862 34.0542 40.9855 34.1816C41.046 34.2455 41.1064 34.3093 41.1687 34.3751C41.0556 34.6636 40.9375 34.9386 40.7984 35.216C40.5656 35.8497 40.5738 36.3709 40.824 36.9998C41.0989 37.5572 41.5099 37.9088 42.088 38.1464C42.7787 38.2311 43.3605 38.2029 43.9554 37.8279C44.1309 37.7387 44.1309 37.7387 44.5395 37.7387C44.7512 37.9205 44.9371 38.0972 45.1269 38.2993C45.1785 38.3528 45.2303 38.4063 45.2836 38.4614C45.4111 38.5933 45.5372 38.7265 45.6631 38.86C45.4416 39.4221 44.9478 39.6082 44.4374 39.8792C44.3754 39.9145 44.3134 39.9499 44.2494 39.9863C43.4588 40.3638 42.3648 40.3072 41.531 40.0954C40.2951 39.6163 39.4999 38.8529 38.9374 37.6572C38.7134 37.1246 38.6653 36.6438 38.6726 36.0697C38.6734 35.9844 38.6741 35.8992 38.6749 35.8114C38.7031 34.758 39.0668 34.054 39.7387 33.2539Z" fill="#FCFBF7"/>
<path fill-rule="evenodd" clip-rule="evenodd" d="M42.3989 24.5901C42.9869 24.6357 43.5242 24.5841 44.0942 24.4406C46.9447 23.8091 50.2556 24.4318 52.9197 25.5075C53.2824 25.7489 53.3724 26.0221 53.4959 26.3973L53.5326 26.5076L53.614 26.7456C53.8372 27.4125 54.0166 28.0774 54.1454 28.7691L54.1874 28.9833C54.8645 32.5204 54.3867 36.058 52.5112 39.1657C51.9396 40.0047 51.2898 40.7923 50.5704 41.5101C50.5564 41.7158 50.5467 41.9219 50.5385 42.128C50.4024 44.0983 49.6689 45.7878 48.4254 47.3199L48.239 47.5564C46.2384 49.9588 43.0333 51.0061 40.0495 51.499L39.9853 51.2175C39.7883 50.3812 39.5535 49.5625 39.2834 48.7469L39.1955 48.4779C39.0542 48.0592 38.9012 47.6625 38.6993 47.269C38.5174 46.9122 38.5174 46.9122 38.5174 46.7083L38.1885 46.7717L37.7512 46.8549L37.5358 46.8965C36.8246 47.0312 36.1285 47.1306 35.4019 47.1225L35.0796 47.1197L34.8401 47.1161L34.975 47.2658C36.3258 48.783 37.0069 50.1424 36.9033 52.1954C36.8557 52.7133 36.6895 53.1698 36.4745 53.6395L36.3659 53.8819C35.8837 54.8426 35.061 55.6216 34.2682 56.3722L34.2616 56.3786C34.0767 56.5536 33.8933 56.7271 33.7165 56.9011C33.0755 56.3745 32.4847 55.7996 31.8959 55.2162L31.7155 55.0391L31.5535 54.8811C30.321 53.6833 29.3102 52.3966 29.2062 50.6134C29.201 50.1833 29.2126 49.7768 29.3243 49.3585L29.1528 49.4083C27.8959 49.6848 26.6229 49.3067 25.5374 48.6771C24.7905 48.1678 24.1397 47.4929 23.5027 46.8323L23.313 46.6358C23.2014 46.5206 23.0901 46.4065 22.9786 46.2943L21.7656 45.0775C23.0392 43.5668 24.3901 42.0138 26.479 41.7926C27.4907 41.7234 28.3907 41.7977 29.3243 42.2236L29.5673 42.3318C30.3073 42.7017 30.8888 43.2751 31.4694 43.8544L31.4997 43.4499C31.6346 41.7678 31.8483 40.0904 32.249 38.4488C32.299 38.2155 32.299 38.2155 32.2865 37.8407C31.0474 37.1862 29.6487 36.8422 28.2823 36.5601C28.0986 36.5156 28.0986 36.5156 27.8943 36.4137C28.1979 34.5347 28.6847 32.723 29.5286 31.0115L29.6252 30.8134C30.9985 28.0266 33.2834 25.7405 36.2578 24.7215C38.1112 24.1246 40.5257 23.9671 42.3989 24.5901ZM40.4581 28.0557L40.5185 28.2169C42.1305 32.4775 45.0676 35.8164 49.2426 37.7388C49.603 37.8905 49.9681 38.0262 50.3382 38.1528C50.5704 38.2484 50.5704 38.2484 50.6726 38.4523L49.8554 39.4715L49.6563 39.7327C49.3243 40.1265 48.9201 40.4379 48.514 40.7509C48.4503 40.8 48.3867 40.849 48.3233 40.8985L48.0575 41.1068C44.7131 43.6325 40.3244 44.7009 36.2254 45.154L35.8738 45.1934C35.0506 45.2782 34.2375 45.2954 33.4101 45.2814C33.195 40.1597 34.7106 33.8392 38.1854 29.9413L38.3394 29.7772C38.4324 29.6786 38.5257 29.5803 38.6195 29.4826L38.8748 29.2151C39.8506 28.2901 40.0479 28.103 40.2707 28.0652L40.2941 28.0618L40.3051 28.0605L40.3344 28.058L40.3709 28.0565C40.3978 28.0557 40.4266 28.0557 40.4581 28.0557ZM50.2305 26.6183L50.1425 26.5975L50.0449 26.5734C47.4765 25.9157 44.524 25.9157 42.0924 27.0364C42.0924 27.2227 42.0924 27.2955 42.1058 27.3658C42.1143 27.4108 42.1283 27.4549 42.1512 27.5272C43.6833 31.3114 46.184 34.3044 49.9527 36.0344L50.2001 36.1461C50.6975 36.3718 51.1449 36.5567 51.694 36.6175C51.7636 36.4168 51.8333 36.2161 51.9019 36.0152L51.9876 35.764C52.3665 34.6769 52.5404 33.6849 52.539 32.5331C52.5376 32.3106 52.5367 32.0882 52.5379 31.8657C52.5425 31.0679 52.5263 30.2959 52.3601 29.5114L52.3069 29.2788C52.2655 29.0697 52.2219 28.8622 52.175 28.6552C52.1459 28.5263 52.1154 28.3975 52.0834 28.2687L52.0005 27.9537C51.9386 27.6889 51.8726 27.4633 51.7519 27.2195C51.6902 27.1489 51.6423 27.0941 51.5961 27.0495C51.5709 27.0253 51.5463 27.0041 51.5202 26.985C51.3808 26.883 51.1986 26.8394 50.6749 26.7143C50.5262 26.6837 50.3781 26.6525 50.2305 26.6183ZM39.5388 26.221C39.3143 26.4555 39.0771 26.6505 38.8174 26.8453C35.8154 29.1621 34.1642 32.3604 33.0015 35.904C32.486 35.8397 32.0441 35.6856 31.5651 35.4963C31.1272 35.3243 30.7114 35.1614 30.2436 35.0887C30.2829 34.354 30.4278 33.7272 30.6969 33.0437L30.8056 32.7643C31.8712 30.1212 33.7431 27.8708 36.3865 26.7065C37.4355 26.2771 38.4178 26.1589 39.5388 26.221ZM44.4397 48.1339C46.4192 47.0575 47.7797 45.3904 48.4254 43.2428C48.3296 43.2428 48.2787 43.2428 48.2303 43.2536C48.1754 43.2659 48.1235 43.292 48.0128 43.348C45.6758 44.6725 43.2515 45.6458 40.6317 46.2607L40.4581 46.3006C40.5381 46.639 40.649 46.9587 40.7721 47.2841L40.8539 47.4983L41.0127 47.9172C41.1244 48.2111 41.2357 48.5052 41.3462 48.7995L41.4796 49.1547C42.0288 49.1103 42.4822 49.0054 42.9912 48.7953L43.2351 48.6896C43.6421 48.5149 44.0453 48.3355 44.4397 48.1339ZM30.8786 45.9093L30.8834 45.9139L31.0608 46.0968C30.7834 46.714 30.2869 47.0744 29.6818 47.3582C28.8194 47.6668 27.846 47.6817 26.9942 47.3326C26.1824 46.8792 25.5234 46.1625 24.8886 45.4717C24.7663 45.3386 24.645 45.2066 24.5235 45.0775C24.8128 44.4654 25.3157 44.1809 25.9025 43.8671C27.0023 43.5043 28.1862 43.678 29.132 44.3032C29.7742 44.7696 30.3274 45.3404 30.8786 45.9093ZM33.442 48.4347C33.12 48.1125 32.8214 47.7948 32.3887 47.6257L32.1205 47.8551C31.5123 48.4751 31.1366 49.2053 31.1162 50.0769C31.128 51.2575 31.5424 52.1447 32.3817 52.9737L32.5993 53.1808L32.7123 53.2931C33.0518 53.6321 33.3682 53.9478 33.8187 54.149C34.4936 53.366 34.9528 52.6742 34.9744 51.6159C34.973 50.3204 34.5235 49.5393 33.6202 48.6127L33.442 48.4347Z" fill="#FCFBF7"/>
<path d="M48.5309 28.9727C48.9296 29.1344 49.178 29.394 49.4758 29.6989C49.5669 29.7916 49.658 29.8844 49.7519 29.98C49.8209 30.0512 49.8899 30.1224 49.961 30.1958C49.5406 30.6972 49.1026 31.1668 48.6331 31.6228C48.2344 31.461 47.986 31.2014 47.6883 30.8965C47.5972 30.8038 47.506 30.711 47.4122 30.6154C47.3432 30.5442 47.2742 30.473 47.2031 30.3996C47.6236 29.8982 48.0615 29.4286 48.5309 28.9727Z" fill="#FCFBF7"/>
<mask id="mask0_2863_1062" style="mask-type:luminance" maskUnits="userSpaceOnUse" x="21" y="24" width="34" height="33">
<path d="M39.7387 33.2539C40.1776 33.3955 40.4238 33.5985 40.741 33.9292C40.862 34.0542 40.862 34.0542 40.9855 34.1816C41.046 34.2455 41.1064 34.3093 41.1687 34.3751C41.0556 34.6636 40.9375 34.9386 40.7984 35.216C40.5656 35.8497 40.5738 36.3709 40.824 36.9998C41.0989 37.5572 41.5099 37.9088 42.088 38.1464C42.7787 38.2311 43.3605 38.2029 43.9554 37.8279C44.1309 37.7387 44.1309 37.7387 44.5395 37.7387C44.7512 37.9205 44.9371 38.0972 45.1269 38.2993C45.1785 38.3528 45.2303 38.4063 45.2836 38.4614C45.4111 38.5933 45.5372 38.7265 45.6631 38.86C45.4416 39.4221 44.9478 39.6082 44.4374 39.8792C44.3754 39.9145 44.3134 39.9499 44.2494 39.9863C43.4588 40.3638 42.3648 40.3072 41.531 40.0954C40.2951 39.6163 39.4999 38.8529 38.9374 37.6572C38.7134 37.1246 38.6653 36.6438 38.6726 36.0697C38.6734 35.9844 38.6741 35.8992 38.6749 35.8114C38.7031 34.758 39.0668 34.054 39.7387 33.2539Z" fill="white"/>
<path fill-rule="evenodd" clip-rule="evenodd" d="M42.3989 24.5901C42.9869 24.6357 43.5242 24.5841 44.0942 24.4406C46.9447 23.8091 50.2556 24.4318 52.9197 25.5075C53.2824 25.7489 53.3724 26.0221 53.4959 26.3973L53.5326 26.5076L53.614 26.7456C53.8372 27.4125 54.0166 28.0774 54.1454 28.7691L54.1874 28.9833C54.8645 32.5204 54.3867 36.058 52.5112 39.1657C51.9396 40.0047 51.2898 40.7923 50.5704 41.5101C50.5564 41.7158 50.5467 41.9219 50.5385 42.128C50.4024 44.0983 49.6689 45.7878 48.4254 47.3199L48.239 47.5564C46.2384 49.9588 43.0333 51.0061 40.0495 51.499L39.9853 51.2175C39.7883 50.3812 39.5535 49.5625 39.2834 48.7469L39.1955 48.4779C39.0542 48.0592 38.9012 47.6625 38.6993 47.269C38.5174 46.9122 38.5174 46.9122 38.5174 46.7083L38.1885 46.7717L37.7512 46.8549L37.5358 46.8965C36.8246 47.0312 36.1285 47.1306 35.4019 47.1225L35.0796 47.1197L34.8401 47.1161L34.975 47.2658C36.3258 48.783 37.0069 50.1424 36.9033 52.1954C36.8557 52.7133 36.6895 53.1698 36.4745 53.6395L36.3659 53.8819C35.8837 54.8426 35.061 55.6216 34.2682 56.3722L34.2616 56.3786C34.0767 56.5536 33.8933 56.7271 33.7165 56.9011C33.0755 56.3745 32.4847 55.7996 31.8959 55.2162L31.7155 55.0391L31.5535 54.8811C30.321 53.6833 29.3102 52.3966 29.2062 50.6134C29.201 50.1833 29.2126 49.7768 29.3243 49.3585L29.1528 49.4083C27.8959 49.6848 26.6229 49.3067 25.5374 48.6771C24.7905 48.1678 24.1397 47.4929 23.5027 46.8323L23.313 46.6358C23.2014 46.5206 23.0901 46.4065 22.9786 46.2943L21.7656 45.0775C23.0392 43.5668 24.3901 42.0138 26.479 41.7926C27.4907 41.7234 28.3907 41.7977 29.3243 42.2236L29.5673 42.3318C30.3073 42.7017 30.8888 43.2751 31.4694 43.8544L31.4997 43.4499C31.6346 41.7678 31.8483 40.0904 32.249 38.4488C32.299 38.2155 32.299 38.2155 32.2865 37.8407C31.0474 37.1862 29.6487 36.8422 28.2823 36.5601C28.0986 36.5156 28.0986 36.5156 27.8943 36.4137C28.1979 34.5347 28.6847 32.723 29.5286 31.0115L29.6252 30.8134C30.9985 28.0266 33.2834 25.7405 36.2578 24.7215C38.1112 24.1246 40.5257 23.9671 42.3989 24.5901ZM40.4581 28.0557L40.5185 28.2169C42.1305 32.4775 45.0676 35.8164 49.2426 37.7388C49.603 37.8905 49.9681 38.0262 50.3382 38.1528C50.5704 38.2484 50.5704 38.2484 50.6726 38.4523L49.8554 39.4715L49.6563 39.7327C49.3243 40.1265 48.9201 40.4379 48.514 40.7509C48.4503 40.8 48.3867 40.849 48.3233 40.8985L48.0575 41.1068C44.7131 43.6325 40.3244 44.7009 36.2254 45.154L35.8738 45.1934C35.0506 45.2782 34.2375 45.2954 33.4101 45.2814C33.195 40.1597 34.7106 33.8392 38.1854 29.9413L38.3394 29.7772C38.4324 29.6786 38.5257 29.5803 38.6195 29.4826L38.8748 29.2151C39.8506 28.2901 40.0479 28.103 40.2707 28.0652L40.2941 28.0618L40.3051 28.0605L40.3344 28.058L40.3709 28.0565C40.3978 28.0557 40.4266 28.0557 40.4581 28.0557ZM50.2305 26.6183L50.1425 26.5975L50.0449 26.5734C47.4765 25.9157 44.524 25.9157 42.0924 27.0364C42.0924 27.2227 42.0924 27.2955 42.1058 27.3658C42.1143 27.4108 42.1283 27.4549 42.1512 27.5272C43.6833 31.3114 46.184 34.3044 49.9527 36.0344L50.2001 36.1461C50.6975 36.3718 51.1449 36.5567 51.694 36.6175C51.7636 36.4168 51.8333 36.2161 51.9019 36.0152L51.9876 35.764C52.3665 34.6769 52.5404 33.6849 52.539 32.5331C52.5376 32.3106 52.5367 32.0882 52.5379 31.8657C52.5425 31.0679 52.5263 30.2959 52.3601 29.5114L52.3069 29.2788C52.2655 29.0697 52.2219 28.8622 52.175 28.6552C52.1459 28.5263 52.1154 28.3975 52.0834 28.2687L52.0005 27.9537C51.9386 27.6889 51.8726 27.4633 51.7519 27.2195C51.6902 27.1489 51.6423 27.0941 51.5961 27.0495C51.5709 27.0253 51.5463 27.0041 51.5202 26.985C51.3808 26.883 51.1986 26.8394 50.6749 26.7143C50.5262 26.6837 50.3781 26.6525 50.2305 26.6183ZM39.5388 26.221C39.3143 26.4555 39.0771 26.6505 38.8174 26.8453C35.8154 29.1621 34.1642 32.3604 33.0015 35.904C32.486 35.8397 32.0441 35.6856 31.5651 35.4963C31.1272 35.3243 30.7114 35.1614 30.2436 35.0887C30.2829 34.354 30.4278 33.7272 30.6969 33.0437L30.8056 32.7643C31.8712 30.1212 33.7431 27.8708 36.3865 26.7065C37.4355 26.2771 38.4178 26.1589 39.5388 26.221ZM44.4397 48.1339C46.4192 47.0575 47.7797 45.3904 48.4254 43.2428C48.3296 43.2428 48.2787 43.2428 48.2303 43.2536C48.1754 43.2659 48.1235 43.292 48.0128 43.348C45.6758 44.6725 43.2515 45.6458 40.6317 46.2607L40.4581 46.3006C40.5381 46.639 40.649 46.9587 40.7721 47.2841L40.8539 47.4983L41.0127 47.9172C41.1244 48.2111 41.2357 48.5052 41.3462 48.7995L41.4796 49.1547C42.0288 49.1103 42.4822 49.0054 42.9912 48.7953L43.2351 48.6896C43.6421 48.5149 44.0453 48.3355 44.4397 48.1339ZM30.8786 45.9093L30.8834 45.9139L31.0608 46.0968C30.7834 46.714 30.2869 47.0744 29.6818 47.3582C28.8194 47.6668 27.846 47.6817 26.9942 47.3326C26.1824 46.8792 25.5234 46.1625 24.8886 45.4717C24.7663 45.3386 24.645 45.2066 24.5235 45.0775C24.8128 44.4654 25.3157 44.1809 25.9025 43.8671C27.0023 43.5043 28.1862 43.678 29.132 44.3032C29.7742 44.7696 30.3274 45.3404 30.8786 45.9093ZM33.442 48.4347C33.12 48.1125 32.8214 47.7948 32.3887 47.6257L32.1205 47.8551C31.5123 48.4751 31.1366 49.2053 31.1162 50.0769C31.128 51.2575 31.5424 52.1447 32.3817 52.9737L32.5993 53.1808L32.7123 53.2931C33.0518 53.6321 33.3682 53.9478 33.8187 54.149C34.4936 53.366 34.9528 52.6742 34.9744 51.6159C34.973 50.3204 34.5235 49.5393 33.6202 48.6127L33.442 48.4347Z" fill="white"/>
<path d="M48.5309 28.9727C48.9296 29.1344 49.178 29.394 49.4758 29.6989C49.5669 29.7916 49.658 29.8844 49.7519 29.98C49.8209 30.0512 49.8899 30.1224 49.961 30.1958C49.5406 30.6972 49.1026 31.1668 48.6331 31.6228C48.2344 31.461 47.986 31.2014 47.6883 30.8965C47.5972 30.8038 47.506 30.711 47.4122 30.6154C47.3432 30.5442 47.2742 30.473 47.2031 30.3996C47.6236 29.8982 48.0615 29.4286 48.5309 28.9727Z" fill="white"/>
</mask>
<g mask="url(#mask0_2863_1062)">
<path d="M39.7387 33.2539C40.1776 33.3955 40.4238 33.5985 40.741 33.9292C40.862 34.0542 40.862 34.0542 40.9855 34.1816C41.046 34.2455 41.1064 34.3093 41.1687 34.3751C41.0556 34.6636 40.9375 34.9386 40.7984 35.216C40.5656 35.8497 40.5738 36.3709 40.824 36.9998C41.0989 37.5572 41.5099 37.9088 42.088 38.1464C42.7787 38.2311 43.3605 38.2029 43.9554 37.8279C44.1309 37.7387 44.1309 37.7387 44.5395 37.7387C44.7512 37.9205 44.9371 38.0972 45.1269 38.2993C45.1785 38.3528 45.2303 38.4063 45.2836 38.4614C45.4111 38.5933 45.5372 38.7265 45.6631 38.86C45.4416 39.4221 44.9478 39.6082 44.4374 39.8792C44.3754 39.9145 44.3134 39.9499 44.2494 39.9863C43.4588 40.3638 42.3648 40.3072 41.531 40.0954C40.2951 39.6163 39.4999 38.8529 38.9374 37.6572C38.7134 37.1246 38.6653 36.6438 38.6726 36.0697C38.6734 35.9844 38.6741 35.8992 38.6749 35.8114C38.7031 34.758 39.0668 34.054 39.7387 33.2539Z" stroke="#FCFBF7" stroke-width="2.66667"/>
</g>
<mask id="mask1_2863_1062" style="mask-type:luminance" maskUnits="userSpaceOnUse" x="21" y="24" width="34" height="33">
<path d="M39.7387 33.2539C40.1776 33.3955 40.4238 33.5985 40.741 33.9292C40.862 34.0542 40.862 34.0542 40.9855 34.1816C41.046 34.2455 41.1064 34.3093 41.1687 34.3751C41.0556 34.6636 40.9375 34.9386 40.7984 35.216C40.5656 35.8497 40.5738 36.3709 40.824 36.9998C41.0989 37.5572 41.5099 37.9088 42.088 38.1464C42.7787 38.2311 43.3605 38.2029 43.9554 37.8279C44.1309 37.7387 44.1309 37.7387 44.5395 37.7387C44.7512 37.9205 44.9371 38.0972 45.1269 38.2993C45.1785 38.3528 45.2303 38.4063 45.2836 38.4614C45.4111 38.5933 45.5372 38.7265 45.6631 38.86C45.4416 39.4221 44.9478 39.6082 44.4374 39.8792C44.3754 39.9145 44.3134 39.9499 44.2494 39.9863C43.4588 40.3638 42.3648 40.3072 41.531 40.0954C40.2951 39.6163 39.4999 38.8529 38.9374 37.6572C38.7134 37.1246 38.6653 36.6438 38.6726 36.0697C38.6734 35.9844 38.6741 35.8992 38.6749 35.8114C38.7031 34.758 39.0668 34.054 39.7387 33.2539Z" fill="white"/>
<path fill-rule="evenodd" clip-rule="evenodd" d="M42.3989 24.5901C42.9869 24.6357 43.5242 24.5841 44.0942 24.4406C46.9447 23.8091 50.2556 24.4318 52.9197 25.5075C53.2824 25.7489 53.3724 26.0221 53.4959 26.3973L53.5326 26.5076L53.614 26.7456C53.8372 27.4125 54.0166 28.0774 54.1454 28.7691L54.1874 28.9833C54.8645 32.5204 54.3867 36.058 52.5112 39.1657C51.9396 40.0047 51.2898 40.7923 50.5704 41.5101C50.5564 41.7158 50.5467 41.9219 50.5385 42.128C50.4024 44.0983 49.6689 45.7878 48.4254 47.3199L48.239 47.5564C46.2384 49.9588 43.0333 51.0061 40.0495 51.499L39.9853 51.2175C39.7883 50.3812 39.5535 49.5625 39.2834 48.7469L39.1955 48.4779C39.0542 48.0592 38.9012 47.6625 38.6993 47.269C38.5174 46.9122 38.5174 46.9122 38.5174 46.7083L38.1885 46.7717L37.7512 46.8549L37.5358 46.8965C36.8246 47.0312 36.1285 47.1306 35.4019 47.1225L35.0796 47.1197L34.8401 47.1161L34.975 47.2658C36.3258 48.783 37.0069 50.1424 36.9033 52.1954C36.8557 52.7133 36.6895 53.1698 36.4745 53.6395L36.3659 53.8819C35.8837 54.8426 35.061 55.6216 34.2682 56.3722L34.2616 56.3786C34.0767 56.5536 33.8933 56.7271 33.7165 56.9011C33.0755 56.3745 32.4847 55.7996 31.8959 55.2162L31.7155 55.0391L31.5535 54.8811C30.321 53.6833 29.3102 52.3966 29.2062 50.6134C29.201 50.1833 29.2126 49.7768 29.3243 49.3585L29.1528 49.4083C27.8959 49.6848 26.6229 49.3067 25.5374 48.6771C24.7905 48.1678 24.1397 47.4929 23.5027 46.8323L23.313 46.6358C23.2014 46.5206 23.0901 46.4065 22.9786 46.2943L21.7656 45.0775C23.0392 43.5668 24.3901 42.0138 26.479 41.7926C27.4907 41.7234 28.3907 41.7977 29.3243 42.2236L29.5673 42.3318C30.3073 42.7017 30.8888 43.2751 31.4694 43.8544L31.4997 43.4499C31.6346 41.7678 31.8483 40.0904 32.249 38.4488C32.299 38.2155 32.299 38.2155 32.2865 37.8407C31.0474 37.1862 29.6487 36.8422 28.2823 36.5601C28.0986 36.5156 28.0986 36.5156 27.8943 36.4137C28.1979 34.5347 28.6847 32.723 29.5286 31.0115L29.6252 30.8134C30.9985 28.0266 33.2834 25.7405 36.2578 24.7215C38.1112 24.1246 40.5257 23.9671 42.3989 24.5901ZM40.4581 28.0557L40.5185 28.2169C42.1305 32.4775 45.0676 35.8164 49.2426 37.7388C49.603 37.8905 49.9681 38.0262 50.3382 38.1528C50.5704 38.2484 50.5704 38.2484 50.6726 38.4523L49.8554 39.4715L49.6563 39.7327C49.3243 40.1265 48.9201 40.4379 48.514 40.7509C48.4503 40.8 48.3867 40.849 48.3233 40.8985L48.0575 41.1068C44.7131 43.6325 40.3244 44.7009 36.2254 45.154L35.8738 45.1934C35.0506 45.2782 34.2375 45.2954 33.4101 45.2814C33.195 40.1597 34.7106 33.8392 38.1854 29.9413L38.3394 29.7772C38.4324 29.6786 38.5257 29.5803 38.6195 29.4826L38.8748 29.2151C39.8506 28.2901 40.0479 28.103 40.2707 28.0652L40.2941 28.0618L40.3051 28.0605L40.3344 28.058L40.3709 28.0565C40.3978 28.0557 40.4266 28.0557 40.4581 28.0557ZM50.2305 26.6183L50.1425 26.5975L50.0449 26.5734C47.4765 25.9157 44.524 25.9157 42.0924 27.0364C42.0924 27.2227 42.0924 27.2955 42.1058 27.3658C42.1143 27.4108 42.1283 27.4549 42.1512 27.5272C43.6833 31.3114 46.184 34.3044 49.9527 36.0344L50.2001 36.1461C50.6975 36.3718 51.1449 36.5567 51.694 36.6175C51.7636 36.4168 51.8333 36.2161 51.9019 36.0152L51.9876 35.764C52.3665 34.6769 52.5404 33.6849 52.539 32.5331C52.5376 32.3106 52.5367 32.0882 52.5379 31.8657C52.5425 31.0679 52.5263 30.2959 52.3601 29.5114L52.3069 29.2788C52.2655 29.0697 52.2219 28.8622 52.175 28.6552C52.1459 28.5263 52.1154 28.3975 52.0834 28.2687L52.0005 27.9537C51.9386 27.6889 51.8726 27.4633 51.7519 27.2195C51.6902 27.1489 51.6423 27.0941 51.5961 27.0495C51.5709 27.0253 51.5463 27.0041 51.5202 26.985C51.3808 26.883 51.1986 26.8394 50.6749 26.7143C50.5262 26.6837 50.3781 26.6525 50.2305 26.6183ZM39.5388 26.221C39.3143 26.4555 39.0771 26.6505 38.8174 26.8453C35.8154 29.1621 34.1642 32.3604 33.0015 35.904C32.486 35.8397 32.0441 35.6856 31.5651 35.4963C31.1272 35.3243 30.7114 35.1614 30.2436 35.0887C30.2829 34.354 30.4278 33.7272 30.6969 33.0437L30.8056 32.7643C31.8712 30.1212 33.7431 27.8708 36.3865 26.7065C37.4355 26.2771 38.4178 26.1589 39.5388 26.221ZM44.4397 48.1339C46.4192 47.0575 47.7797 45.3904 48.4254 43.2428C48.3296 43.2428 48.2787 43.2428 48.2303 43.2536C48.1754 43.2659 48.1235 43.292 48.0128 43.348C45.6758 44.6725 43.2515 45.6458 40.6317 46.2607L40.4581 46.3006C40.5381 46.639 40.649 46.9587 40.7721 47.2841L40.8539 47.4983L41.0127 47.9172C41.1244 48.2111 41.2357 48.5052 41.3462 48.7995L41.4796 49.1547C42.0288 49.1103 42.4822 49.0054 42.9912 48.7953L43.2351 48.6896C43.6421 48.5149 44.0453 48.3355 44.4397 48.1339ZM30.8786 45.9093L30.8834 45.9139L31.0608 46.0968C30.7834 46.714 30.2869 47.0744 29.6818 47.3582C28.8194 47.6668 27.846 47.6817 26.9942 47.3326C26.1824 46.8792 25.5234 46.1625 24.8886 45.4717C24.7663 45.3386 24.645 45.2066 24.5235 45.0775C24.8128 44.4654 25.3157 44.1809 25.9025 43.8671C27.0023 43.5043 28.1862 43.678 29.132 44.3032C29.7742 44.7696 30.3274 45.3404 30.8786 45.9093ZM33.442 48.4347C33.12 48.1125 32.8214 47.7948 32.3887 47.6257L32.1205 47.8551C31.5123 48.4751 31.1366 49.2053 31.1162 50.0769C31.128 51.2575 31.5424 52.1447 32.3817 52.9737L32.5993 53.1808L32.7123 53.2931C33.0518 53.6321 33.3682 53.9478 33.8187 54.149C34.4936 53.366 34.9528 52.6742 34.9744 51.6159C34.973 50.3204 34.5235 49.5393 33.6202 48.6127L33.442 48.4347Z" fill="white"/>
<path d="M48.5309 28.9727C48.9296 29.1344 49.178 29.394 49.4758 29.6989C49.5669 29.7916 49.658 29.8844 49.7519 29.98C49.8209 30.0512 49.8899 30.1224 49.961 30.1958C49.5406 30.6972 49.1026 31.1668 48.6331 31.6228C48.2344 31.461 47.986 31.2014 47.6883 30.8965C47.5972 30.8038 47.506 30.711 47.4122 30.6154C47.3432 30.5442 47.2742 30.473 47.2031 30.3996C47.6236 29.8982 48.0615 29.4286 48.5309 28.9727Z" fill="white"/>
</mask>
<g mask="url(#mask1_2863_1062)">
<path fill-rule="evenodd" clip-rule="evenodd" d="M42.3989 24.5901C42.9869 24.6357 43.5242 24.5841 44.0942 24.4406C46.9447 23.8091 50.2556 24.4318 52.9197 25.5075C53.2824 25.7489 53.3724 26.0221 53.4959 26.3973L53.5326 26.5076L53.614 26.7456C53.8372 27.4125 54.0166 28.0774 54.1454 28.7691L54.1874 28.9833C54.8645 32.5204 54.3867 36.058 52.5112 39.1657C51.9396 40.0047 51.2898 40.7923 50.5704 41.5101C50.5564 41.7158 50.5467 41.9219 50.5385 42.128C50.4024 44.0983 49.6689 45.7878 48.4254 47.3199L48.239 47.5564C46.2384 49.9588 43.0333 51.0061 40.0495 51.499L39.9853 51.2175C39.7883 50.3812 39.5535 49.5625 39.2834 48.7469L39.1955 48.4779C39.0542 48.0592 38.9012 47.6625 38.6993 47.269C38.5174 46.9122 38.5174 46.9122 38.5174 46.7083L38.1885 46.7717L37.7512 46.8549L37.5358 46.8965C36.8246 47.0312 36.1285 47.1306 35.4019 47.1225L35.0796 47.1197L34.8401 47.1161L34.975 47.2658C36.3258 48.783 37.0069 50.1424 36.9033 52.1954C36.8557 52.7133 36.6895 53.1698 36.4745 53.6395L36.3659 53.8819C35.8837 54.8426 35.061 55.6216 34.2682 56.3722L34.2616 56.3786C34.0767 56.5536 33.8933 56.7271 33.7165 56.9011C33.0755 56.3745 32.4847 55.7996 31.8959 55.2162L31.7155 55.0391L31.5535 54.8811C30.321 53.6833 29.3102 52.3966 29.2062 50.6134C29.201 50.1833 29.2126 49.7768 29.3243 49.3585L29.1528 49.4083C27.8959 49.6848 26.6229 49.3067 25.5374 48.6771C24.7905 48.1678 24.1397 47.4929 23.5027 46.8323L23.313 46.6358C23.2014 46.5206 23.0901 46.4065 22.9786 46.2943L21.7656 45.0775C23.0392 43.5668 24.3901 42.0138 26.479 41.7926C27.4907 41.7234 28.3907 41.7977 29.3243 42.2236L29.5673 42.3318C30.3073 42.7017 30.8888 43.2751 31.4694 43.8544L31.4997 43.4499C31.6346 41.7678 31.8483 40.0904 32.249 38.4488C32.299 38.2155 32.299 38.2155 32.2865 37.8407C31.0474 37.1862 29.6487 36.8422 28.2823 36.5601C28.0986 36.5156 28.0986 36.5156 27.8943 36.4137C28.1979 34.5347 28.6847 32.723 29.5286 31.0115L29.6252 30.8134C30.9985 28.0266 33.2834 25.7405 36.2578 24.7215C38.1112 24.1246 40.5257 23.9671 42.3989 24.5901ZM40.4581 28.0557L40.5185 28.2169C42.1305 32.4775 45.0676 35.8164 49.2426 37.7388C49.603 37.8905 49.9681 38.0262 50.3382 38.1528C50.5704 38.2484 50.5704 38.2484 50.6726 38.4523L49.8554 39.4715L49.6563 39.7327C49.3243 40.1265 48.9201 40.4379 48.514 40.7509C48.4503 40.8 48.3867 40.849 48.3233 40.8985L48.0575 41.1068C44.7131 43.6325 40.3244 44.7009 36.2254 45.154L35.8738 45.1934C35.0506 45.2782 34.2375 45.2954 33.4101 45.2814C33.195 40.1597 34.7106 33.8392 38.1854 29.9413L38.3394 29.7772C38.4324 29.6786 38.5257 29.5803 38.6195 29.4826L38.8748 29.2151C39.8506 28.2901 40.0479 28.103 40.2707 28.0652L40.2941 28.0618L40.3051 28.0605L40.3344 28.058L40.3709 28.0565C40.3978 28.0557 40.4266 28.0557 40.4581 28.0557ZM50.2305 26.6183L50.1425 26.5975L50.0449 26.5734C47.4765 25.9157 44.524 25.9157 42.0924 27.0364C42.0924 27.2227 42.0924 27.2955 42.1058 27.3658C42.1143 27.4108 42.1283 27.4549 42.1512 27.5272C43.6833 31.3114 46.184 34.3044 49.9527 36.0344L50.2001 36.1461C50.6975 36.3718 51.1449 36.5567 51.694 36.6175C51.7636 36.4168 51.8333 36.2161 51.9019 36.0152L51.9876 35.764C52.3665 34.6769 52.5404 33.6849 52.539 32.5331C52.5376 32.3106 52.5367 32.0882 52.5379 31.8657C52.5425 31.0679 52.5263 30.2959 52.3601 29.5114L52.3069 29.2788C52.2655 29.0697 52.2219 28.8622 52.175 28.6552C52.1459 28.5263 52.1154 28.3975 52.0834 28.2687L52.0005 27.9537C51.9386 27.6889 51.8726 27.4633 51.7519 27.2195C51.6902 27.1489 51.6423 27.0941 51.5961 27.0495C51.5709 27.0253 51.5463 27.0041 51.5202 26.985C51.3808 26.883 51.1986 26.8394 50.6749 26.7143C50.5262 26.6837 50.3781 26.6525 50.2305 26.6183ZM39.5388 26.221C39.3143 26.4555 39.0771 26.6505 38.8174 26.8453C35.8154 29.1621 34.1642 32.3604 33.0015 35.904C32.486 35.8397 32.0441 35.6856 31.5651 35.4963C31.1272 35.3243 30.7114 35.1614 30.2436 35.0887C30.2829 34.354 30.4278 33.7272 30.6969 33.0437L30.8056 32.7643C31.8712 30.1212 33.7431 27.8708 36.3865 26.7065C37.4355 26.2771 38.4178 26.1589 39.5388 26.221ZM44.4397 48.1339C46.4192 47.0575 47.7797 45.3904 48.4254 43.2428C48.3296 43.2428 48.2787 43.2428 48.2303 43.2536C48.1754 43.2659 48.1235 43.292 48.0128 43.348C45.6758 44.6725 43.2515 45.6458 40.6317 46.2607L40.4581 46.3006C40.5381 46.639 40.649 46.9587 40.7721 47.2841L40.8539 47.4983L41.0127 47.9172C41.1244 48.2111 41.2357 48.5052 41.3462 48.7995L41.4796 49.1547C42.0288 49.1103 42.4822 49.0054 42.9912 48.7953L43.2351 48.6896C43.6421 48.5149 44.0453 48.3355 44.4397 48.1339ZM30.8786 45.9093L30.8834 45.9139L31.0608 46.0968C30.7834 46.714 30.2869 47.0744 29.6818 47.3582C28.8194 47.6668 27.846 47.6817 26.9942 47.3326C26.1824 46.8792 25.5234 46.1625 24.8886 45.4717C24.7663 45.3386 24.645 45.2066 24.5235 45.0775C24.8128 44.4654 25.3157 44.1809 25.9025 43.8671C27.0023 43.5043 28.1862 43.678 29.132 44.3032C29.7742 44.7696 30.3274 45.3404 30.8786 45.9093ZM33.442 48.4347C33.12 48.1125 32.8214 47.7948 32.3887 47.6257L32.1205 47.8551C31.5123 48.4751 31.1366 49.2053 31.1162 50.0769C31.128 51.2575 31.5424 52.1447 32.3817 52.9737L32.5993 53.1808L32.7123 53.2931C33.0518 53.6321 33.3682 53.9478 33.8187 54.149C34.4936 53.366 34.9528 52.6742 34.9744 51.6159C34.973 50.3204 34.5235 49.5393 33.6202 48.6127L33.442 48.4347Z" stroke="#FCFBF7" stroke-width="2.66667"/>
</g>
<mask id="mask2_2863_1062" style="mask-type:luminance" maskUnits="userSpaceOnUse" x="21" y="24" width="34" height="33">
<path d="M39.7387 33.2539C40.1776 33.3955 40.4238 33.5985 40.741 33.9292C40.862 34.0542 40.862 34.0542 40.9855 34.1816C41.046 34.2455 41.1064 34.3093 41.1687 34.3751C41.0556 34.6636 40.9375 34.9386 40.7984 35.216C40.5656 35.8497 40.5738 36.3709 40.824 36.9998C41.0989 37.5572 41.5099 37.9088 42.088 38.1464C42.7787 38.2311 43.3605 38.2029 43.9554 37.8279C44.1309 37.7387 44.1309 37.7387 44.5395 37.7387C44.7512 37.9205 44.9371 38.0972 45.1269 38.2993C45.1785 38.3528 45.2303 38.4063 45.2836 38.4614C45.4111 38.5933 45.5372 38.7265 45.6631 38.86C45.4416 39.4221 44.9478 39.6082 44.4374 39.8792C44.3754 39.9145 44.3134 39.9499 44.2494 39.9863C43.4588 40.3638 42.3648 40.3072 41.531 40.0954C40.2951 39.6163 39.4999 38.8529 38.9374 37.6572C38.7134 37.1246 38.6653 36.6438 38.6726 36.0697C38.6734 35.9844 38.6741 35.8992 38.6749 35.8114C38.7031 34.758 39.0668 34.054 39.7387 33.2539Z" fill="white"/>
<path fill-rule="evenodd" clip-rule="evenodd" d="M42.3989 24.5901C42.9869 24.6357 43.5242 24.5841 44.0942 24.4406C46.9447 23.8091 50.2556 24.4318 52.9197 25.5075C53.2824 25.7489 53.3724 26.0221 53.4959 26.3973L53.5326 26.5076L53.614 26.7456C53.8372 27.4125 54.0166 28.0774 54.1454 28.7691L54.1874 28.9833C54.8645 32.5204 54.3867 36.058 52.5112 39.1657C51.9396 40.0047 51.2898 40.7923 50.5704 41.5101C50.5564 41.7158 50.5467 41.9219 50.5385 42.128C50.4024 44.0983 49.6689 45.7878 48.4254 47.3199L48.239 47.5564C46.2384 49.9588 43.0333 51.0061 40.0495 51.499L39.9853 51.2175C39.7883 50.3812 39.5535 49.5625 39.2834 48.7469L39.1955 48.4779C39.0542 48.0592 38.9012 47.6625 38.6993 47.269C38.5174 46.9122 38.5174 46.9122 38.5174 46.7083L38.1885 46.7717L37.7512 46.8549L37.5358 46.8965C36.8246 47.0312 36.1285 47.1306 35.4019 47.1225L35.0796 47.1197L34.8401 47.1161L34.975 47.2658C36.3258 48.783 37.0069 50.1424 36.9033 52.1954C36.8557 52.7133 36.6895 53.1698 36.4745 53.6395L36.3659 53.8819C35.8837 54.8426 35.061 55.6216 34.2682 56.3722L34.2616 56.3786C34.0767 56.5536 33.8933 56.7271 33.7165 56.9011C33.0755 56.3745 32.4847 55.7996 31.8959 55.2162L31.7155 55.0391L31.5535 54.8811C30.321 53.6833 29.3102 52.3966 29.2062 50.6134C29.201 50.1833 29.2126 49.7768 29.3243 49.3585L29.1528 49.4083C27.8959 49.6848 26.6229 49.3067 25.5374 48.6771C24.7905 48.1678 24.1397 47.4929 23.5027 46.8323L23.313 46.6358C23.2014 46.5206 23.0901 46.4065 22.9786 46.2943L21.7656 45.0775C23.0392 43.5668 24.3901 42.0138 26.479 41.7926C27.4907 41.7234 28.3907 41.7977 29.3243 42.2236L29.5673 42.3318C30.3073 42.7017 30.8888 43.2751 31.4694 43.8544L31.4997 43.4499C31.6346 41.7678 31.8483 40.0904 32.249 38.4488C32.299 38.2155 32.299 38.2155 32.2865 37.8407C31.0474 37.1862 29.6487 36.8422 28.2823 36.5601C28.0986 36.5156 28.0986 36.5156 27.8943 36.4137C28.1979 34.5347 28.6847 32.723 29.5286 31.0115L29.6252 30.8134C30.9985 28.0266 33.2834 25.7405 36.2578 24.7215C38.1112 24.1246 40.5257 23.9671 42.3989 24.5901ZM40.4581 28.0557L40.5185 28.2169C42.1305 32.4775 45.0676 35.8164 49.2426 37.7388C49.603 37.8905 49.9681 38.0262 50.3382 38.1528C50.5704 38.2484 50.5704 38.2484 50.6726 38.4523L49.8554 39.4715L49.6563 39.7327C49.3243 40.1265 48.9201 40.4379 48.514 40.7509C48.4503 40.8 48.3867 40.849 48.3233 40.8985L48.0575 41.1068C44.7131 43.6325 40.3244 44.7009 36.2254 45.154L35.8738 45.1934C35.0506 45.2782 34.2375 45.2954 33.4101 45.2814C33.195 40.1597 34.7106 33.8392 38.1854 29.9413L38.3394 29.7772C38.4324 29.6786 38.5257 29.5803 38.6195 29.4826L38.8748 29.2151C39.8506 28.2901 40.0479 28.103 40.2707 28.0652L40.2941 28.0618L40.3051 28.0605L40.3344 28.058L40.3709 28.0565C40.3978 28.0557 40.4266 28.0557 40.4581 28.0557ZM50.2305 26.6183L50.1425 26.5975L50.0449 26.5734C47.4765 25.9157 44.524 25.9157 42.0924 27.0364C42.0924 27.2227 42.0924 27.2955 42.1058 27.3658C42.1143 27.4108 42.1283 27.4549 42.1512 27.5272C43.6833 31.3114 46.184 34.3044 49.9527 36.0344L50.2001 36.1461C50.6975 36.3718 51.1449 36.5567 51.694 36.6175C51.7636 36.4168 51.8333 36.2161 51.9019 36.0152L51.9876 35.764C52.3665 34.6769 52.5404 33.6849 52.539 32.5331C52.5376 32.3106 52.5367 32.0882 52.5379 31.8657C52.5425 31.0679 52.5263 30.2959 52.3601 29.5114L52.3069 29.2788C52.2655 29.0697 52.2219 28.8622 52.175 28.6552C52.1459 28.5263 52.1154 28.3975 52.0834 28.2687L52.0005 27.9537C51.9386 27.6889 51.8726 27.4633 51.7519 27.2195C51.6902 27.1489 51.6423 27.0941 51.5961 27.0495C51.5709 27.0253 51.5463 27.0041 51.5202 26.985C51.3808 26.883 51.1986 26.8394 50.6749 26.7143C50.5262 26.6837 50.3781 26.6525 50.2305 26.6183ZM39.5388 26.221C39.3143 26.4555 39.0771 26.6505 38.8174 26.8453C35.8154 29.1621 34.1642 32.3604 33.0015 35.904C32.486 35.8397 32.0441 35.6856 31.5651 35.4963C31.1272 35.3243 30.7114 35.1614 30.2436 35.0887C30.2829 34.354 30.4278 33.7272 30.6969 33.0437L30.8056 32.7643C31.8712 30.1212 33.7431 27.8708 36.3865 26.7065C37.4355 26.2771 38.4178 26.1589 39.5388 26.221ZM44.4397 48.1339C46.4192 47.0575 47.7797 45.3904 48.4254 43.2428C48.3296 43.2428 48.2787 43.2428 48.2303 43.2536C48.1754 43.2659 48.1235 43.292 48.0128 43.348C45.6758 44.6725 43.2515 45.6458 40.6317 46.2607L40.4581 46.3006C40.5381 46.639 40.649 46.9587 40.7721 47.2841L40.8539 47.4983L41.0127 47.9172C41.1244 48.2111 41.2357 48.5052 41.3462 48.7995L41.4796 49.1547C42.0288 49.1103 42.4822 49.0054 42.9912 48.7953L43.2351 48.6896C43.6421 48.5149 44.0453 48.3355 44.4397 48.1339ZM30.8786 45.9093L30.8834 45.9139L31.0608 46.0968C30.7834 46.714 30.2869 47.0744 29.6818 47.3582C28.8194 47.6668 27.846 47.6817 26.9942 47.3326C26.1824 46.8792 25.5234 46.1625 24.8886 45.4717C24.7663 45.3386 24.645 45.2066 24.5235 45.0775C24.8128 44.4654 25.3157 44.1809 25.9025 43.8671C27.0023 43.5043 28.1862 43.678 29.132 44.3032C29.7742 44.7696 30.3274 45.3404 30.8786 45.9093ZM33.442 48.4347C33.12 48.1125 32.8214 47.7948 32.3887 47.6257L32.1205 47.8551C31.5123 48.4751 31.1366 49.2053 31.1162 50.0769C31.128 51.2575 31.5424 52.1447 32.3817 52.9737L32.5993 53.1808L32.7123 53.2931C33.0518 53.6321 33.3682 53.9478 33.8187 54.149C34.4936 53.366 34.9528 52.6742 34.9744 51.6159C34.973 50.3204 34.5235 49.5393 33.6202 48.6127L33.442 48.4347Z" fill="white"/>
<path d="M48.5309 28.9727C48.9296 29.1344 49.178 29.394 49.4758 29.6989C49.5669 29.7916 49.658 29.8844 49.7519 29.98C49.8209 30.0512 49.8899 30.1224 49.961 30.1958C49.5406 30.6972 49.1026 31.1668 48.6331 31.6228C48.2344 31.461 47.986 31.2014 47.6883 30.8965C47.5972 30.8038 47.506 30.711 47.4122 30.6154C47.3432 30.5442 47.2742 30.473 47.2031 30.3996C47.6236 29.8982 48.0615 29.4286 48.5309 28.9727Z" fill="white"/>
</mask>
<g mask="url(#mask2_2863_1062)">
<path d="M48.5309 28.9727C48.9296 29.1344 49.178 29.394 49.4758 29.6989C49.5669 29.7916 49.658 29.8844 49.7519 29.98C49.8209 30.0512 49.8899 30.1224 49.961 30.1958C49.5406 30.6972 49.1026 31.1668 48.6331 31.6228C48.2344 31.461 47.986 31.2014 47.6883 30.8965C47.5972 30.8038 47.506 30.711 47.4122 30.6154C47.3432 30.5442 47.2742 30.473 47.2031 30.3996C47.6236 29.8982 48.0615 29.4286 48.5309 28.9727Z" stroke="#FCFBF7" stroke-width="2.66667"/>
</g>
</g>
<defs>
<clipPath id="clip0_2863_1062">
<rect width="33.3333" height="33.3333" fill="white" transform="translate(21.7656 24)"/>
</clipPath>
</defs>
</svg>
