<svg width="81" height="88" viewBox="0 0 81 88" fill="none" xmlns="http://www.w3.org/2000/svg">
<path d="M39.2348 81.7684L41.0026 83.5362L42.7704 81.7684L61.7704 62.7684C73.9765 50.5623 73.9765 30.7723 61.7704 18.5662L61.1037 17.8996C49.2658 6.06164 30.0727 6.06164 18.2348 17.8996C6.39693 29.7375 6.39693 48.9305 18.2348 60.7684L39.2348 81.7684Z" fill="#FFBB00" stroke="#F78712" stroke-width="5"/>
<g clip-path="url(#clip0_3125_864)">
<path d="M39.6371 33.2539C40.0761 33.3955 40.3222 33.5985 40.6394 33.9292C40.7605 34.0542 40.7605 34.0542 40.884 34.1816C40.9444 34.2455 41.0049 34.3093 41.0671 34.3751C40.9541 34.6636 40.8359 34.9386 40.6969 35.216C40.4641 35.8497 40.4722 36.3709 40.7224 36.9998C40.9973 37.5572 41.4084 37.9088 41.9864 38.1464C42.6771 38.2311 43.2589 38.2029 43.8538 37.8279C44.0293 37.7387 44.0293 37.7387 44.4379 37.7387C44.6497 37.9205 44.8356 38.0972 45.0253 38.2993C45.077 38.3528 45.1287 38.4063 45.1821 38.4614C45.3095 38.5933 45.4356 38.7265 45.5615 38.86C45.34 39.4221 44.8463 39.6082 44.3358 39.8792C44.2738 39.9145 44.2118 39.9499 44.1478 39.9863C43.3572 40.3638 42.2633 40.3072 41.4294 40.0954C40.1935 39.6163 39.3984 38.8529 38.8358 37.6572C38.6119 37.1246 38.5637 36.6438 38.571 36.0697C38.5718 35.9844 38.5726 35.8992 38.5734 35.8114C38.6015 34.758 38.9652 34.054 39.6371 33.2539Z" fill="#FCFBF7"/>
<path fill-rule="evenodd" clip-rule="evenodd" d="M42.2973 24.5901C42.8854 24.6357 43.4227 24.5841 43.9927 24.4406C46.8431 23.8091 50.1541 24.4318 52.8182 25.5075C53.1808 25.7489 53.2708 26.0221 53.3943 26.3973L53.431 26.5076L53.5124 26.7456C53.7356 27.4125 53.915 28.0774 54.0439 28.7691L54.0858 28.9833C54.7629 32.5204 54.2851 36.058 52.4096 39.1657C51.838 40.0047 51.1883 40.7923 50.4688 41.5101C50.4549 41.7158 50.4451 41.9219 50.437 42.128C50.3008 44.0983 49.5673 45.7878 48.3238 47.3199L48.1375 47.5564C46.1369 49.9588 42.9317 51.0061 39.9479 51.499L39.8837 51.2175C39.6868 50.3812 39.452 49.5625 39.1819 48.7469L39.0939 48.4779C38.9527 48.0592 38.7996 47.6625 38.5977 47.269C38.4158 46.9122 38.4158 46.9122 38.4158 46.7083L38.087 46.7717L37.6497 46.8549L37.4342 46.8965C36.723 47.0312 36.027 47.1306 35.3004 47.1225L34.978 47.1197L34.7385 47.1161L34.8734 47.2658C36.2242 48.783 36.9054 50.1424 36.8018 52.1954C36.7542 52.7133 36.5879 53.1698 36.3729 53.6395L36.2643 53.8819C35.7821 54.8426 34.9594 55.6216 34.1666 56.3722L34.16 56.3786C33.9751 56.5536 33.7917 56.7271 33.6149 56.9011C32.974 56.3745 32.3831 55.7996 31.7943 55.2162L31.614 55.0391L31.452 54.8811C30.2195 53.6833 29.2086 52.3966 29.1047 50.6134C29.0995 50.1833 29.111 49.7768 29.2228 49.3585L29.0512 49.4083C27.7943 49.6848 26.5213 49.3067 25.4358 48.6771C24.6889 48.1678 24.0381 47.4929 23.4011 46.8323L23.2114 46.6358C23.0999 46.5206 22.9886 46.4065 22.877 46.2943L21.6641 45.0775C22.9377 43.5668 24.2885 42.0138 26.3775 41.7926C27.3892 41.7234 28.2891 41.7977 29.2228 42.2236L29.4658 42.3318C30.2057 42.7017 30.7872 43.2751 31.3678 43.8544L31.3981 43.4499C31.533 41.7678 31.7467 40.0904 32.1475 38.4488C32.1975 38.2155 32.1975 38.2155 32.1849 37.8407C30.9458 37.1862 29.5472 36.8422 28.1808 36.5601C27.997 36.5156 27.997 36.5156 27.7927 36.4137C28.0964 34.5347 28.5832 32.723 29.4271 31.0115L29.5236 30.8134C30.897 28.0266 33.1819 25.7405 36.1563 24.7215C38.0096 24.1246 40.4242 23.9671 42.2973 24.5901ZM40.3565 28.0557L40.417 28.2169C42.029 32.4775 44.966 35.8164 49.141 37.7388C49.5014 37.8905 49.8665 38.0262 50.2366 38.1528C50.4688 38.2484 50.4688 38.2484 50.571 38.4523L49.7538 39.4715L49.5548 39.7327C49.2227 40.1265 48.8185 40.4379 48.4124 40.7509C48.3487 40.8 48.2851 40.849 48.2217 40.8985L47.9559 41.1068C44.6115 43.6325 40.2228 44.7009 36.1239 45.154L35.7722 45.1934C34.9491 45.2782 34.1359 45.2954 33.3085 45.2814C33.0934 40.1597 34.6091 33.8392 38.0838 29.9413L38.2378 29.7772C38.3308 29.6786 38.4241 29.5803 38.5179 29.4826L38.7733 29.2151C39.7491 28.2901 39.9463 28.103 40.1692 28.0652L40.1926 28.0618L40.2035 28.0605L40.2328 28.058L40.2693 28.0565C40.2963 28.0557 40.325 28.0557 40.3565 28.0557ZM50.1289 26.6183L50.0409 26.5975L49.9434 26.5734C47.3749 25.9157 44.4224 25.9157 41.9908 27.0364C41.9908 27.2227 41.9908 27.2955 42.0042 27.3658C42.0127 27.4108 42.0268 27.4549 42.0497 27.5272C43.5817 31.3114 46.0824 34.3044 49.8512 36.0344L50.0985 36.1461C50.5959 36.3718 51.0434 36.5567 51.5924 36.6175C51.662 36.4168 51.7317 36.2161 51.8003 36.0152L51.8861 35.764C52.2649 34.6769 52.4389 33.6849 52.4375 32.5331C52.4361 32.3106 52.4351 32.0882 52.4363 31.8657C52.4409 31.0679 52.4248 30.2959 52.2585 29.5114L52.2053 29.2788C52.164 29.0697 52.1203 28.8622 52.0734 28.6552C52.0443 28.5263 52.0138 28.3975 51.9819 28.2687L51.8989 27.9537C51.837 27.6889 51.771 27.4633 51.6503 27.2195C51.5886 27.1489 51.5407 27.0941 51.4945 27.0495C51.4693 27.0253 51.4448 27.0041 51.4186 26.985C51.2792 26.883 51.097 26.8394 50.5734 26.7143C50.4246 26.6837 50.2765 26.6525 50.1289 26.6183ZM39.4372 26.221C39.2127 26.4555 38.9756 26.6505 38.7158 26.8453C35.7139 29.1621 34.0627 32.3604 32.8999 35.904C32.3844 35.8397 31.9426 35.6856 31.4635 35.4963C31.0256 35.3243 30.6099 35.1614 30.1421 35.0887C30.1814 34.354 30.3262 33.7272 30.5953 33.0437L30.7041 32.7643C31.7696 30.1212 33.6415 27.8708 36.2849 26.7065C37.3339 26.2771 38.3163 26.1589 39.4372 26.221ZM44.3382 48.1339C46.3177 47.0575 47.6782 45.3904 48.3238 43.2428C48.228 43.2428 48.1771 43.2428 48.1287 43.2536C48.0738 43.2659 48.022 43.292 47.9113 43.348C45.5742 44.6725 43.1499 45.6458 40.5301 46.2607L40.3565 46.3006C40.4365 46.639 40.5475 46.9587 40.6706 47.2841L40.7523 47.4983L40.9112 47.9172C41.0228 48.2111 41.1341 48.5052 41.2447 48.7995L41.378 49.1547C41.9272 49.1103 42.3806 49.0054 42.8896 48.7953L43.1335 48.6896C43.5406 48.5149 43.9437 48.3355 44.3382 48.1339ZM30.777 45.9093L30.7819 45.9139L30.9592 46.0968C30.6819 46.714 30.1854 47.0744 29.5803 47.3582C28.7178 47.6668 27.7445 47.6817 26.8926 47.3326C26.0808 46.8792 25.4219 46.1625 24.7871 45.4717C24.6648 45.3386 24.5435 45.2066 24.422 45.0775C24.7112 44.4654 25.2142 44.1809 25.8009 43.8671C26.9008 43.5043 28.0846 43.678 29.0304 44.3032C29.6726 44.7696 30.2259 45.3404 30.777 45.9093ZM33.3405 48.4347C33.0184 48.1125 32.7199 47.7948 32.2871 47.6257L32.019 47.8551C31.4107 48.4751 31.035 49.2053 31.0147 50.0769C31.0264 51.2575 31.4408 52.1447 32.2801 52.9737L32.4977 53.1808L32.6107 53.2931C32.9502 53.6321 33.2666 53.9478 33.7171 54.149C34.392 53.366 34.8513 52.6742 34.8728 51.6159C34.8714 50.3204 34.422 49.5393 33.5186 48.6127L33.3405 48.4347Z" fill="#FCFBF7"/>
<path d="M48.4294 28.9727C48.8281 29.1344 49.0765 29.394 49.3743 29.6989C49.4653 29.7916 49.5565 29.8844 49.6503 29.98C49.7194 30.0512 49.7883 30.1224 49.8595 30.1958C49.439 30.6972 49.001 31.1668 48.5316 31.6228C48.1329 31.461 47.8845 31.2014 47.5867 30.8965C47.4956 30.8038 47.4045 30.711 47.3106 30.6154C47.2417 30.5442 47.1726 30.473 47.1016 30.3996C47.522 29.8982 47.96 29.4286 48.4294 28.9727Z" fill="#FCFBF7"/>
<mask id="mask0_3125_864" style="mask-type:luminance" maskUnits="userSpaceOnUse" x="21" y="24" width="34" height="33">
<path d="M39.6371 33.2539C40.0761 33.3955 40.3222 33.5985 40.6394 33.9292C40.7605 34.0542 40.7605 34.0542 40.884 34.1816C40.9444 34.2455 41.0049 34.3093 41.0671 34.3751C40.9541 34.6636 40.8359 34.9386 40.6969 35.216C40.4641 35.8497 40.4722 36.3709 40.7224 36.9998C40.9973 37.5572 41.4084 37.9088 41.9864 38.1464C42.6771 38.2311 43.2589 38.2029 43.8538 37.8279C44.0293 37.7387 44.0293 37.7387 44.4379 37.7387C44.6497 37.9205 44.8356 38.0972 45.0253 38.2993C45.077 38.3528 45.1287 38.4063 45.1821 38.4614C45.3095 38.5933 45.4356 38.7265 45.5615 38.86C45.34 39.4221 44.8463 39.6082 44.3358 39.8792C44.2738 39.9145 44.2118 39.9499 44.1478 39.9863C43.3572 40.3638 42.2633 40.3072 41.4294 40.0954C40.1935 39.6163 39.3984 38.8529 38.8358 37.6572C38.6119 37.1246 38.5637 36.6438 38.571 36.0697C38.5718 35.9844 38.5726 35.8992 38.5734 35.8114C38.6015 34.758 38.9652 34.054 39.6371 33.2539Z" fill="white"/>
<path fill-rule="evenodd" clip-rule="evenodd" d="M42.2973 24.5901C42.8854 24.6357 43.4227 24.5841 43.9927 24.4406C46.8431 23.8091 50.1541 24.4318 52.8182 25.5075C53.1808 25.7489 53.2708 26.0221 53.3943 26.3973L53.431 26.5076L53.5124 26.7456C53.7356 27.4125 53.915 28.0774 54.0439 28.7691L54.0858 28.9833C54.7629 32.5204 54.2851 36.058 52.4096 39.1657C51.838 40.0047 51.1883 40.7923 50.4688 41.5101C50.4549 41.7158 50.4451 41.9219 50.437 42.128C50.3008 44.0983 49.5673 45.7878 48.3238 47.3199L48.1375 47.5564C46.1369 49.9588 42.9317 51.0061 39.9479 51.499L39.8837 51.2175C39.6868 50.3812 39.452 49.5625 39.1819 48.7469L39.0939 48.4779C38.9527 48.0592 38.7996 47.6625 38.5977 47.269C38.4158 46.9122 38.4158 46.9122 38.4158 46.7083L38.087 46.7717L37.6497 46.8549L37.4342 46.8965C36.723 47.0312 36.027 47.1306 35.3004 47.1225L34.978 47.1197L34.7385 47.1161L34.8734 47.2658C36.2242 48.783 36.9054 50.1424 36.8018 52.1954C36.7542 52.7133 36.5879 53.1698 36.3729 53.6395L36.2643 53.8819C35.7821 54.8426 34.9594 55.6216 34.1666 56.3722L34.16 56.3786C33.9751 56.5536 33.7917 56.7271 33.6149 56.9011C32.974 56.3745 32.3831 55.7996 31.7943 55.2162L31.614 55.0391L31.452 54.8811C30.2195 53.6833 29.2086 52.3966 29.1047 50.6134C29.0995 50.1833 29.111 49.7768 29.2228 49.3585L29.0512 49.4083C27.7943 49.6848 26.5213 49.3067 25.4358 48.6771C24.6889 48.1678 24.0381 47.4929 23.4011 46.8323L23.2114 46.6358C23.0999 46.5206 22.9886 46.4065 22.877 46.2943L21.6641 45.0775C22.9377 43.5668 24.2885 42.0138 26.3775 41.7926C27.3892 41.7234 28.2891 41.7977 29.2228 42.2236L29.4658 42.3318C30.2057 42.7017 30.7872 43.2751 31.3678 43.8544L31.3981 43.4499C31.533 41.7678 31.7467 40.0904 32.1475 38.4488C32.1975 38.2155 32.1975 38.2155 32.1849 37.8407C30.9458 37.1862 29.5472 36.8422 28.1808 36.5601C27.997 36.5156 27.997 36.5156 27.7927 36.4137C28.0964 34.5347 28.5832 32.723 29.4271 31.0115L29.5236 30.8134C30.897 28.0266 33.1819 25.7405 36.1563 24.7215C38.0096 24.1246 40.4242 23.9671 42.2973 24.5901ZM40.3565 28.0557L40.417 28.2169C42.029 32.4775 44.966 35.8164 49.141 37.7388C49.5014 37.8905 49.8665 38.0262 50.2366 38.1528C50.4688 38.2484 50.4688 38.2484 50.571 38.4523L49.7538 39.4715L49.5548 39.7327C49.2227 40.1265 48.8185 40.4379 48.4124 40.7509C48.3487 40.8 48.2851 40.849 48.2217 40.8985L47.9559 41.1068C44.6115 43.6325 40.2228 44.7009 36.1239 45.154L35.7722 45.1934C34.9491 45.2782 34.1359 45.2954 33.3085 45.2814C33.0934 40.1597 34.6091 33.8392 38.0838 29.9413L38.2378 29.7772C38.3308 29.6786 38.4241 29.5803 38.5179 29.4826L38.7733 29.2151C39.7491 28.2901 39.9463 28.103 40.1692 28.0652L40.1926 28.0618L40.2035 28.0605L40.2328 28.058L40.2693 28.0565C40.2963 28.0557 40.325 28.0557 40.3565 28.0557ZM50.1289 26.6183L50.0409 26.5975L49.9434 26.5734C47.3749 25.9157 44.4224 25.9157 41.9908 27.0364C41.9908 27.2227 41.9908 27.2955 42.0042 27.3658C42.0127 27.4108 42.0268 27.4549 42.0497 27.5272C43.5817 31.3114 46.0824 34.3044 49.8512 36.0344L50.0985 36.1461C50.5959 36.3718 51.0434 36.5567 51.5924 36.6175C51.662 36.4168 51.7317 36.2161 51.8003 36.0152L51.8861 35.764C52.2649 34.6769 52.4389 33.6849 52.4375 32.5331C52.4361 32.3106 52.4351 32.0882 52.4363 31.8657C52.4409 31.0679 52.4248 30.2959 52.2585 29.5114L52.2053 29.2788C52.164 29.0697 52.1203 28.8622 52.0734 28.6552C52.0443 28.5263 52.0138 28.3975 51.9819 28.2687L51.8989 27.9537C51.837 27.6889 51.771 27.4633 51.6503 27.2195C51.5886 27.1489 51.5407 27.0941 51.4945 27.0495C51.4693 27.0253 51.4448 27.0041 51.4186 26.985C51.2792 26.883 51.097 26.8394 50.5734 26.7143C50.4246 26.6837 50.2765 26.6525 50.1289 26.6183ZM39.4372 26.221C39.2127 26.4555 38.9756 26.6505 38.7158 26.8453C35.7139 29.1621 34.0627 32.3604 32.8999 35.904C32.3844 35.8397 31.9426 35.6856 31.4635 35.4963C31.0256 35.3243 30.6099 35.1614 30.1421 35.0887C30.1814 34.354 30.3262 33.7272 30.5953 33.0437L30.7041 32.7643C31.7696 30.1212 33.6415 27.8708 36.2849 26.7065C37.3339 26.2771 38.3163 26.1589 39.4372 26.221ZM44.3382 48.1339C46.3177 47.0575 47.6782 45.3904 48.3238 43.2428C48.228 43.2428 48.1771 43.2428 48.1287 43.2536C48.0738 43.2659 48.022 43.292 47.9113 43.348C45.5742 44.6725 43.1499 45.6458 40.5301 46.2607L40.3565 46.3006C40.4365 46.639 40.5475 46.9587 40.6706 47.2841L40.7523 47.4983L40.9112 47.9172C41.0228 48.2111 41.1341 48.5052 41.2447 48.7995L41.378 49.1547C41.9272 49.1103 42.3806 49.0054 42.8896 48.7953L43.1335 48.6896C43.5406 48.5149 43.9437 48.3355 44.3382 48.1339ZM30.777 45.9093L30.7819 45.9139L30.9592 46.0968C30.6819 46.714 30.1854 47.0744 29.5803 47.3582C28.7178 47.6668 27.7445 47.6817 26.8926 47.3326C26.0808 46.8792 25.4219 46.1625 24.7871 45.4717C24.6648 45.3386 24.5435 45.2066 24.422 45.0775C24.7112 44.4654 25.2142 44.1809 25.8009 43.8671C26.9008 43.5043 28.0846 43.678 29.0304 44.3032C29.6726 44.7696 30.2259 45.3404 30.777 45.9093ZM33.3405 48.4347C33.0184 48.1125 32.7199 47.7948 32.2871 47.6257L32.019 47.8551C31.4107 48.4751 31.035 49.2053 31.0147 50.0769C31.0264 51.2575 31.4408 52.1447 32.2801 52.9737L32.4977 53.1808L32.6107 53.2931C32.9502 53.6321 33.2666 53.9478 33.7171 54.149C34.392 53.366 34.8513 52.6742 34.8728 51.6159C34.8714 50.3204 34.422 49.5393 33.5186 48.6127L33.3405 48.4347Z" fill="white"/>
<path d="M48.4294 28.9727C48.8281 29.1344 49.0765 29.394 49.3743 29.6989C49.4653 29.7916 49.5565 29.8844 49.6503 29.98C49.7194 30.0512 49.7883 30.1224 49.8595 30.1958C49.439 30.6972 49.001 31.1668 48.5316 31.6228C48.1329 31.461 47.8845 31.2014 47.5867 30.8965C47.4956 30.8038 47.4045 30.711 47.3106 30.6154C47.2417 30.5442 47.1726 30.473 47.1016 30.3996C47.522 29.8982 47.96 29.4286 48.4294 28.9727Z" fill="white"/>
</mask>
<g mask="url(#mask0_3125_864)">
<path d="M39.6371 33.2539C40.0761 33.3955 40.3222 33.5985 40.6394 33.9292C40.7605 34.0542 40.7605 34.0542 40.884 34.1816C40.9444 34.2455 41.0049 34.3093 41.0671 34.3751C40.9541 34.6636 40.8359 34.9386 40.6969 35.216C40.4641 35.8497 40.4722 36.3709 40.7224 36.9998C40.9973 37.5572 41.4084 37.9088 41.9864 38.1464C42.6771 38.2311 43.2589 38.2029 43.8538 37.8279C44.0293 37.7387 44.0293 37.7387 44.4379 37.7387C44.6497 37.9205 44.8356 38.0972 45.0253 38.2993C45.077 38.3528 45.1287 38.4063 45.1821 38.4614C45.3095 38.5933 45.4356 38.7265 45.5615 38.86C45.34 39.4221 44.8463 39.6082 44.3358 39.8792C44.2738 39.9145 44.2118 39.9499 44.1478 39.9863C43.3572 40.3638 42.2633 40.3072 41.4294 40.0954C40.1935 39.6163 39.3984 38.8529 38.8358 37.6572C38.6119 37.1246 38.5637 36.6438 38.571 36.0697C38.5718 35.9844 38.5726 35.8992 38.5734 35.8114C38.6015 34.758 38.9652 34.054 39.6371 33.2539Z" stroke="#FCFBF7" stroke-width="2.66667"/>
</g>
<mask id="mask1_3125_864" style="mask-type:luminance" maskUnits="userSpaceOnUse" x="21" y="24" width="34" height="33">
<path d="M39.6371 33.2539C40.0761 33.3955 40.3222 33.5985 40.6394 33.9292C40.7605 34.0542 40.7605 34.0542 40.884 34.1816C40.9444 34.2455 41.0049 34.3093 41.0671 34.3751C40.9541 34.6636 40.8359 34.9386 40.6969 35.216C40.4641 35.8497 40.4722 36.3709 40.7224 36.9998C40.9973 37.5572 41.4084 37.9088 41.9864 38.1464C42.6771 38.2311 43.2589 38.2029 43.8538 37.8279C44.0293 37.7387 44.0293 37.7387 44.4379 37.7387C44.6497 37.9205 44.8356 38.0972 45.0253 38.2993C45.077 38.3528 45.1287 38.4063 45.1821 38.4614C45.3095 38.5933 45.4356 38.7265 45.5615 38.86C45.34 39.4221 44.8463 39.6082 44.3358 39.8792C44.2738 39.9145 44.2118 39.9499 44.1478 39.9863C43.3572 40.3638 42.2633 40.3072 41.4294 40.0954C40.1935 39.6163 39.3984 38.8529 38.8358 37.6572C38.6119 37.1246 38.5637 36.6438 38.571 36.0697C38.5718 35.9844 38.5726 35.8992 38.5734 35.8114C38.6015 34.758 38.9652 34.054 39.6371 33.2539Z" fill="white"/>
<path fill-rule="evenodd" clip-rule="evenodd" d="M42.2973 24.5901C42.8854 24.6357 43.4227 24.5841 43.9927 24.4406C46.8431 23.8091 50.1541 24.4318 52.8182 25.5075C53.1808 25.7489 53.2708 26.0221 53.3943 26.3973L53.431 26.5076L53.5124 26.7456C53.7356 27.4125 53.915 28.0774 54.0439 28.7691L54.0858 28.9833C54.7629 32.5204 54.2851 36.058 52.4096 39.1657C51.838 40.0047 51.1883 40.7923 50.4688 41.5101C50.4549 41.7158 50.4451 41.9219 50.437 42.128C50.3008 44.0983 49.5673 45.7878 48.3238 47.3199L48.1375 47.5564C46.1369 49.9588 42.9317 51.0061 39.9479 51.499L39.8837 51.2175C39.6868 50.3812 39.452 49.5625 39.1819 48.7469L39.0939 48.4779C38.9527 48.0592 38.7996 47.6625 38.5977 47.269C38.4158 46.9122 38.4158 46.9122 38.4158 46.7083L38.087 46.7717L37.6497 46.8549L37.4342 46.8965C36.723 47.0312 36.027 47.1306 35.3004 47.1225L34.978 47.1197L34.7385 47.1161L34.8734 47.2658C36.2242 48.783 36.9054 50.1424 36.8018 52.1954C36.7542 52.7133 36.5879 53.1698 36.3729 53.6395L36.2643 53.8819C35.7821 54.8426 34.9594 55.6216 34.1666 56.3722L34.16 56.3786C33.9751 56.5536 33.7917 56.7271 33.6149 56.9011C32.974 56.3745 32.3831 55.7996 31.7943 55.2162L31.614 55.0391L31.452 54.8811C30.2195 53.6833 29.2086 52.3966 29.1047 50.6134C29.0995 50.1833 29.111 49.7768 29.2228 49.3585L29.0512 49.4083C27.7943 49.6848 26.5213 49.3067 25.4358 48.6771C24.6889 48.1678 24.0381 47.4929 23.4011 46.8323L23.2114 46.6358C23.0999 46.5206 22.9886 46.4065 22.877 46.2943L21.6641 45.0775C22.9377 43.5668 24.2885 42.0138 26.3775 41.7926C27.3892 41.7234 28.2891 41.7977 29.2228 42.2236L29.4658 42.3318C30.2057 42.7017 30.7872 43.2751 31.3678 43.8544L31.3981 43.4499C31.533 41.7678 31.7467 40.0904 32.1475 38.4488C32.1975 38.2155 32.1975 38.2155 32.1849 37.8407C30.9458 37.1862 29.5472 36.8422 28.1808 36.5601C27.997 36.5156 27.997 36.5156 27.7927 36.4137C28.0964 34.5347 28.5832 32.723 29.4271 31.0115L29.5236 30.8134C30.897 28.0266 33.1819 25.7405 36.1563 24.7215C38.0096 24.1246 40.4242 23.9671 42.2973 24.5901ZM40.3565 28.0557L40.417 28.2169C42.029 32.4775 44.966 35.8164 49.141 37.7388C49.5014 37.8905 49.8665 38.0262 50.2366 38.1528C50.4688 38.2484 50.4688 38.2484 50.571 38.4523L49.7538 39.4715L49.5548 39.7327C49.2227 40.1265 48.8185 40.4379 48.4124 40.7509C48.3487 40.8 48.2851 40.849 48.2217 40.8985L47.9559 41.1068C44.6115 43.6325 40.2228 44.7009 36.1239 45.154L35.7722 45.1934C34.9491 45.2782 34.1359 45.2954 33.3085 45.2814C33.0934 40.1597 34.6091 33.8392 38.0838 29.9413L38.2378 29.7772C38.3308 29.6786 38.4241 29.5803 38.5179 29.4826L38.7733 29.2151C39.7491 28.2901 39.9463 28.103 40.1692 28.0652L40.1926 28.0618L40.2035 28.0605L40.2328 28.058L40.2693 28.0565C40.2963 28.0557 40.325 28.0557 40.3565 28.0557ZM50.1289 26.6183L50.0409 26.5975L49.9434 26.5734C47.3749 25.9157 44.4224 25.9157 41.9908 27.0364C41.9908 27.2227 41.9908 27.2955 42.0042 27.3658C42.0127 27.4108 42.0268 27.4549 42.0497 27.5272C43.5817 31.3114 46.0824 34.3044 49.8512 36.0344L50.0985 36.1461C50.5959 36.3718 51.0434 36.5567 51.5924 36.6175C51.662 36.4168 51.7317 36.2161 51.8003 36.0152L51.8861 35.764C52.2649 34.6769 52.4389 33.6849 52.4375 32.5331C52.4361 32.3106 52.4351 32.0882 52.4363 31.8657C52.4409 31.0679 52.4248 30.2959 52.2585 29.5114L52.2053 29.2788C52.164 29.0697 52.1203 28.8622 52.0734 28.6552C52.0443 28.5263 52.0138 28.3975 51.9819 28.2687L51.8989 27.9537C51.837 27.6889 51.771 27.4633 51.6503 27.2195C51.5886 27.1489 51.5407 27.0941 51.4945 27.0495C51.4693 27.0253 51.4448 27.0041 51.4186 26.985C51.2792 26.883 51.097 26.8394 50.5734 26.7143C50.4246 26.6837 50.2765 26.6525 50.1289 26.6183ZM39.4372 26.221C39.2127 26.4555 38.9756 26.6505 38.7158 26.8453C35.7139 29.1621 34.0627 32.3604 32.8999 35.904C32.3844 35.8397 31.9426 35.6856 31.4635 35.4963C31.0256 35.3243 30.6099 35.1614 30.1421 35.0887C30.1814 34.354 30.3262 33.7272 30.5953 33.0437L30.7041 32.7643C31.7696 30.1212 33.6415 27.8708 36.2849 26.7065C37.3339 26.2771 38.3163 26.1589 39.4372 26.221ZM44.3382 48.1339C46.3177 47.0575 47.6782 45.3904 48.3238 43.2428C48.228 43.2428 48.1771 43.2428 48.1287 43.2536C48.0738 43.2659 48.022 43.292 47.9113 43.348C45.5742 44.6725 43.1499 45.6458 40.5301 46.2607L40.3565 46.3006C40.4365 46.639 40.5475 46.9587 40.6706 47.2841L40.7523 47.4983L40.9112 47.9172C41.0228 48.2111 41.1341 48.5052 41.2447 48.7995L41.378 49.1547C41.9272 49.1103 42.3806 49.0054 42.8896 48.7953L43.1335 48.6896C43.5406 48.5149 43.9437 48.3355 44.3382 48.1339ZM30.777 45.9093L30.7819 45.9139L30.9592 46.0968C30.6819 46.714 30.1854 47.0744 29.5803 47.3582C28.7178 47.6668 27.7445 47.6817 26.8926 47.3326C26.0808 46.8792 25.4219 46.1625 24.7871 45.4717C24.6648 45.3386 24.5435 45.2066 24.422 45.0775C24.7112 44.4654 25.2142 44.1809 25.8009 43.8671C26.9008 43.5043 28.0846 43.678 29.0304 44.3032C29.6726 44.7696 30.2259 45.3404 30.777 45.9093ZM33.3405 48.4347C33.0184 48.1125 32.7199 47.7948 32.2871 47.6257L32.019 47.8551C31.4107 48.4751 31.035 49.2053 31.0147 50.0769C31.0264 51.2575 31.4408 52.1447 32.2801 52.9737L32.4977 53.1808L32.6107 53.2931C32.9502 53.6321 33.2666 53.9478 33.7171 54.149C34.392 53.366 34.8513 52.6742 34.8728 51.6159C34.8714 50.3204 34.422 49.5393 33.5186 48.6127L33.3405 48.4347Z" fill="white"/>
<path d="M48.4294 28.9727C48.8281 29.1344 49.0765 29.394 49.3743 29.6989C49.4653 29.7916 49.5565 29.8844 49.6503 29.98C49.7194 30.0512 49.7883 30.1224 49.8595 30.1958C49.439 30.6972 49.001 31.1668 48.5316 31.6228C48.1329 31.461 47.8845 31.2014 47.5867 30.8965C47.4956 30.8038 47.4045 30.711 47.3106 30.6154C47.2417 30.5442 47.1726 30.473 47.1016 30.3996C47.522 29.8982 47.96 29.4286 48.4294 28.9727Z" fill="white"/>
</mask>
<g mask="url(#mask1_3125_864)">
<path fill-rule="evenodd" clip-rule="evenodd" d="M42.2973 24.5901C42.8854 24.6357 43.4227 24.5841 43.9927 24.4406C46.8431 23.8091 50.1541 24.4318 52.8182 25.5075C53.1808 25.7489 53.2708 26.0221 53.3943 26.3973L53.431 26.5076L53.5124 26.7456C53.7356 27.4125 53.915 28.0774 54.0439 28.7691L54.0858 28.9833C54.7629 32.5204 54.2851 36.058 52.4096 39.1657C51.838 40.0047 51.1883 40.7923 50.4688 41.5101C50.4549 41.7158 50.4451 41.9219 50.437 42.128C50.3008 44.0983 49.5673 45.7878 48.3238 47.3199L48.1375 47.5564C46.1369 49.9588 42.9317 51.0061 39.9479 51.499L39.8837 51.2175C39.6868 50.3812 39.452 49.5625 39.1819 48.7469L39.0939 48.4779C38.9527 48.0592 38.7996 47.6625 38.5977 47.269C38.4158 46.9122 38.4158 46.9122 38.4158 46.7083L38.087 46.7717L37.6497 46.8549L37.4342 46.8965C36.723 47.0312 36.027 47.1306 35.3004 47.1225L34.978 47.1197L34.7385 47.1161L34.8734 47.2658C36.2242 48.783 36.9054 50.1424 36.8018 52.1954C36.7542 52.7133 36.5879 53.1698 36.3729 53.6395L36.2643 53.8819C35.7821 54.8426 34.9594 55.6216 34.1666 56.3722L34.16 56.3786C33.9751 56.5536 33.7917 56.7271 33.6149 56.9011C32.974 56.3745 32.3831 55.7996 31.7943 55.2162L31.614 55.0391L31.452 54.8811C30.2195 53.6833 29.2086 52.3966 29.1047 50.6134C29.0995 50.1833 29.111 49.7768 29.2228 49.3585L29.0512 49.4083C27.7943 49.6848 26.5213 49.3067 25.4358 48.6771C24.6889 48.1678 24.0381 47.4929 23.4011 46.8323L23.2114 46.6358C23.0999 46.5206 22.9886 46.4065 22.877 46.2943L21.6641 45.0775C22.9377 43.5668 24.2885 42.0138 26.3775 41.7926C27.3892 41.7234 28.2891 41.7977 29.2228 42.2236L29.4658 42.3318C30.2057 42.7017 30.7872 43.2751 31.3678 43.8544L31.3981 43.4499C31.533 41.7678 31.7467 40.0904 32.1475 38.4488C32.1975 38.2155 32.1975 38.2155 32.1849 37.8407C30.9458 37.1862 29.5472 36.8422 28.1808 36.5601C27.997 36.5156 27.997 36.5156 27.7927 36.4137C28.0964 34.5347 28.5832 32.723 29.4271 31.0115L29.5236 30.8134C30.897 28.0266 33.1819 25.7405 36.1563 24.7215C38.0096 24.1246 40.4242 23.9671 42.2973 24.5901ZM40.3565 28.0557L40.417 28.2169C42.029 32.4775 44.966 35.8164 49.141 37.7388C49.5014 37.8905 49.8665 38.0262 50.2366 38.1528C50.4688 38.2484 50.4688 38.2484 50.571 38.4523L49.7538 39.4715L49.5548 39.7327C49.2227 40.1265 48.8185 40.4379 48.4124 40.7509C48.3487 40.8 48.2851 40.849 48.2217 40.8985L47.9559 41.1068C44.6115 43.6325 40.2228 44.7009 36.1239 45.154L35.7722 45.1934C34.9491 45.2782 34.1359 45.2954 33.3085 45.2814C33.0934 40.1597 34.6091 33.8392 38.0838 29.9413L38.2378 29.7772C38.3308 29.6786 38.4241 29.5803 38.5179 29.4826L38.7733 29.2151C39.7491 28.2901 39.9463 28.103 40.1692 28.0652L40.1926 28.0618L40.2035 28.0605L40.2328 28.058L40.2693 28.0565C40.2963 28.0557 40.325 28.0557 40.3565 28.0557ZM50.1289 26.6183L50.0409 26.5975L49.9434 26.5734C47.3749 25.9157 44.4224 25.9157 41.9908 27.0364C41.9908 27.2227 41.9908 27.2955 42.0042 27.3658C42.0127 27.4108 42.0268 27.4549 42.0497 27.5272C43.5817 31.3114 46.0824 34.3044 49.8512 36.0344L50.0985 36.1461C50.5959 36.3718 51.0434 36.5567 51.5924 36.6175C51.662 36.4168 51.7317 36.2161 51.8003 36.0152L51.8861 35.764C52.2649 34.6769 52.4389 33.6849 52.4375 32.5331C52.4361 32.3106 52.4351 32.0882 52.4363 31.8657C52.4409 31.0679 52.4248 30.2959 52.2585 29.5114L52.2053 29.2788C52.164 29.0697 52.1203 28.8622 52.0734 28.6552C52.0443 28.5263 52.0138 28.3975 51.9819 28.2687L51.8989 27.9537C51.837 27.6889 51.771 27.4633 51.6503 27.2195C51.5886 27.1489 51.5407 27.0941 51.4945 27.0495C51.4693 27.0253 51.4448 27.0041 51.4186 26.985C51.2792 26.883 51.097 26.8394 50.5734 26.7143C50.4246 26.6837 50.2765 26.6525 50.1289 26.6183ZM39.4372 26.221C39.2127 26.4555 38.9756 26.6505 38.7158 26.8453C35.7139 29.1621 34.0627 32.3604 32.8999 35.904C32.3844 35.8397 31.9426 35.6856 31.4635 35.4963C31.0256 35.3243 30.6099 35.1614 30.1421 35.0887C30.1814 34.354 30.3262 33.7272 30.5953 33.0437L30.7041 32.7643C31.7696 30.1212 33.6415 27.8708 36.2849 26.7065C37.3339 26.2771 38.3163 26.1589 39.4372 26.221ZM44.3382 48.1339C46.3177 47.0575 47.6782 45.3904 48.3238 43.2428C48.228 43.2428 48.1771 43.2428 48.1287 43.2536C48.0738 43.2659 48.022 43.292 47.9113 43.348C45.5742 44.6725 43.1499 45.6458 40.5301 46.2607L40.3565 46.3006C40.4365 46.639 40.5475 46.9587 40.6706 47.2841L40.7523 47.4983L40.9112 47.9172C41.0228 48.2111 41.1341 48.5052 41.2447 48.7995L41.378 49.1547C41.9272 49.1103 42.3806 49.0054 42.8896 48.7953L43.1335 48.6896C43.5406 48.5149 43.9437 48.3355 44.3382 48.1339ZM30.777 45.9093L30.7819 45.9139L30.9592 46.0968C30.6819 46.714 30.1854 47.0744 29.5803 47.3582C28.7178 47.6668 27.7445 47.6817 26.8926 47.3326C26.0808 46.8792 25.4219 46.1625 24.7871 45.4717C24.6648 45.3386 24.5435 45.2066 24.422 45.0775C24.7112 44.4654 25.2142 44.1809 25.8009 43.8671C26.9008 43.5043 28.0846 43.678 29.0304 44.3032C29.6726 44.7696 30.2259 45.3404 30.777 45.9093ZM33.3405 48.4347C33.0184 48.1125 32.7199 47.7948 32.2871 47.6257L32.019 47.8551C31.4107 48.4751 31.035 49.2053 31.0147 50.0769C31.0264 51.2575 31.4408 52.1447 32.2801 52.9737L32.4977 53.1808L32.6107 53.2931C32.9502 53.6321 33.2666 53.9478 33.7171 54.149C34.392 53.366 34.8513 52.6742 34.8728 51.6159C34.8714 50.3204 34.422 49.5393 33.5186 48.6127L33.3405 48.4347Z" stroke="#FCFBF7" stroke-width="2.66667"/>
</g>
<mask id="mask2_3125_864" style="mask-type:luminance" maskUnits="userSpaceOnUse" x="21" y="24" width="34" height="33">
<path d="M39.6371 33.2539C40.0761 33.3955 40.3222 33.5985 40.6394 33.9292C40.7605 34.0542 40.7605 34.0542 40.884 34.1816C40.9444 34.2455 41.0049 34.3093 41.0671 34.3751C40.9541 34.6636 40.8359 34.9386 40.6969 35.216C40.4641 35.8497 40.4722 36.3709 40.7224 36.9998C40.9973 37.5572 41.4084 37.9088 41.9864 38.1464C42.6771 38.2311 43.2589 38.2029 43.8538 37.8279C44.0293 37.7387 44.0293 37.7387 44.4379 37.7387C44.6497 37.9205 44.8356 38.0972 45.0253 38.2993C45.077 38.3528 45.1287 38.4063 45.1821 38.4614C45.3095 38.5933 45.4356 38.7265 45.5615 38.86C45.34 39.4221 44.8463 39.6082 44.3358 39.8792C44.2738 39.9145 44.2118 39.9499 44.1478 39.9863C43.3572 40.3638 42.2633 40.3072 41.4294 40.0954C40.1935 39.6163 39.3984 38.8529 38.8358 37.6572C38.6119 37.1246 38.5637 36.6438 38.571 36.0697C38.5718 35.9844 38.5726 35.8992 38.5734 35.8114C38.6015 34.758 38.9652 34.054 39.6371 33.2539Z" fill="white"/>
<path fill-rule="evenodd" clip-rule="evenodd" d="M42.2973 24.5901C42.8854 24.6357 43.4227 24.5841 43.9927 24.4406C46.8431 23.8091 50.1541 24.4318 52.8182 25.5075C53.1808 25.7489 53.2708 26.0221 53.3943 26.3973L53.431 26.5076L53.5124 26.7456C53.7356 27.4125 53.915 28.0774 54.0439 28.7691L54.0858 28.9833C54.7629 32.5204 54.2851 36.058 52.4096 39.1657C51.838 40.0047 51.1883 40.7923 50.4688 41.5101C50.4549 41.7158 50.4451 41.9219 50.437 42.128C50.3008 44.0983 49.5673 45.7878 48.3238 47.3199L48.1375 47.5564C46.1369 49.9588 42.9317 51.0061 39.9479 51.499L39.8837 51.2175C39.6868 50.3812 39.452 49.5625 39.1819 48.7469L39.0939 48.4779C38.9527 48.0592 38.7996 47.6625 38.5977 47.269C38.4158 46.9122 38.4158 46.9122 38.4158 46.7083L38.087 46.7717L37.6497 46.8549L37.4342 46.8965C36.723 47.0312 36.027 47.1306 35.3004 47.1225L34.978 47.1197L34.7385 47.1161L34.8734 47.2658C36.2242 48.783 36.9054 50.1424 36.8018 52.1954C36.7542 52.7133 36.5879 53.1698 36.3729 53.6395L36.2643 53.8819C35.7821 54.8426 34.9594 55.6216 34.1666 56.3722L34.16 56.3786C33.9751 56.5536 33.7917 56.7271 33.6149 56.9011C32.974 56.3745 32.3831 55.7996 31.7943 55.2162L31.614 55.0391L31.452 54.8811C30.2195 53.6833 29.2086 52.3966 29.1047 50.6134C29.0995 50.1833 29.111 49.7768 29.2228 49.3585L29.0512 49.4083C27.7943 49.6848 26.5213 49.3067 25.4358 48.6771C24.6889 48.1678 24.0381 47.4929 23.4011 46.8323L23.2114 46.6358C23.0999 46.5206 22.9886 46.4065 22.877 46.2943L21.6641 45.0775C22.9377 43.5668 24.2885 42.0138 26.3775 41.7926C27.3892 41.7234 28.2891 41.7977 29.2228 42.2236L29.4658 42.3318C30.2057 42.7017 30.7872 43.2751 31.3678 43.8544L31.3981 43.4499C31.533 41.7678 31.7467 40.0904 32.1475 38.4488C32.1975 38.2155 32.1975 38.2155 32.1849 37.8407C30.9458 37.1862 29.5472 36.8422 28.1808 36.5601C27.997 36.5156 27.997 36.5156 27.7927 36.4137C28.0964 34.5347 28.5832 32.723 29.4271 31.0115L29.5236 30.8134C30.897 28.0266 33.1819 25.7405 36.1563 24.7215C38.0096 24.1246 40.4242 23.9671 42.2973 24.5901ZM40.3565 28.0557L40.417 28.2169C42.029 32.4775 44.966 35.8164 49.141 37.7388C49.5014 37.8905 49.8665 38.0262 50.2366 38.1528C50.4688 38.2484 50.4688 38.2484 50.571 38.4523L49.7538 39.4715L49.5548 39.7327C49.2227 40.1265 48.8185 40.4379 48.4124 40.7509C48.3487 40.8 48.2851 40.849 48.2217 40.8985L47.9559 41.1068C44.6115 43.6325 40.2228 44.7009 36.1239 45.154L35.7722 45.1934C34.9491 45.2782 34.1359 45.2954 33.3085 45.2814C33.0934 40.1597 34.6091 33.8392 38.0838 29.9413L38.2378 29.7772C38.3308 29.6786 38.4241 29.5803 38.5179 29.4826L38.7733 29.2151C39.7491 28.2901 39.9463 28.103 40.1692 28.0652L40.1926 28.0618L40.2035 28.0605L40.2328 28.058L40.2693 28.0565C40.2963 28.0557 40.325 28.0557 40.3565 28.0557ZM50.1289 26.6183L50.0409 26.5975L49.9434 26.5734C47.3749 25.9157 44.4224 25.9157 41.9908 27.0364C41.9908 27.2227 41.9908 27.2955 42.0042 27.3658C42.0127 27.4108 42.0268 27.4549 42.0497 27.5272C43.5817 31.3114 46.0824 34.3044 49.8512 36.0344L50.0985 36.1461C50.5959 36.3718 51.0434 36.5567 51.5924 36.6175C51.662 36.4168 51.7317 36.2161 51.8003 36.0152L51.8861 35.764C52.2649 34.6769 52.4389 33.6849 52.4375 32.5331C52.4361 32.3106 52.4351 32.0882 52.4363 31.8657C52.4409 31.0679 52.4248 30.2959 52.2585 29.5114L52.2053 29.2788C52.164 29.0697 52.1203 28.8622 52.0734 28.6552C52.0443 28.5263 52.0138 28.3975 51.9819 28.2687L51.8989 27.9537C51.837 27.6889 51.771 27.4633 51.6503 27.2195C51.5886 27.1489 51.5407 27.0941 51.4945 27.0495C51.4693 27.0253 51.4448 27.0041 51.4186 26.985C51.2792 26.883 51.097 26.8394 50.5734 26.7143C50.4246 26.6837 50.2765 26.6525 50.1289 26.6183ZM39.4372 26.221C39.2127 26.4555 38.9756 26.6505 38.7158 26.8453C35.7139 29.1621 34.0627 32.3604 32.8999 35.904C32.3844 35.8397 31.9426 35.6856 31.4635 35.4963C31.0256 35.3243 30.6099 35.1614 30.1421 35.0887C30.1814 34.354 30.3262 33.7272 30.5953 33.0437L30.7041 32.7643C31.7696 30.1212 33.6415 27.8708 36.2849 26.7065C37.3339 26.2771 38.3163 26.1589 39.4372 26.221ZM44.3382 48.1339C46.3177 47.0575 47.6782 45.3904 48.3238 43.2428C48.228 43.2428 48.1771 43.2428 48.1287 43.2536C48.0738 43.2659 48.022 43.292 47.9113 43.348C45.5742 44.6725 43.1499 45.6458 40.5301 46.2607L40.3565 46.3006C40.4365 46.639 40.5475 46.9587 40.6706 47.2841L40.7523 47.4983L40.9112 47.9172C41.0228 48.2111 41.1341 48.5052 41.2447 48.7995L41.378 49.1547C41.9272 49.1103 42.3806 49.0054 42.8896 48.7953L43.1335 48.6896C43.5406 48.5149 43.9437 48.3355 44.3382 48.1339ZM30.777 45.9093L30.7819 45.9139L30.9592 46.0968C30.6819 46.714 30.1854 47.0744 29.5803 47.3582C28.7178 47.6668 27.7445 47.6817 26.8926 47.3326C26.0808 46.8792 25.4219 46.1625 24.7871 45.4717C24.6648 45.3386 24.5435 45.2066 24.422 45.0775C24.7112 44.4654 25.2142 44.1809 25.8009 43.8671C26.9008 43.5043 28.0846 43.678 29.0304 44.3032C29.6726 44.7696 30.2259 45.3404 30.777 45.9093ZM33.3405 48.4347C33.0184 48.1125 32.7199 47.7948 32.2871 47.6257L32.019 47.8551C31.4107 48.4751 31.035 49.2053 31.0147 50.0769C31.0264 51.2575 31.4408 52.1447 32.2801 52.9737L32.4977 53.1808L32.6107 53.2931C32.9502 53.6321 33.2666 53.9478 33.7171 54.149C34.392 53.366 34.8513 52.6742 34.8728 51.6159C34.8714 50.3204 34.422 49.5393 33.5186 48.6127L33.3405 48.4347Z" fill="white"/>
<path d="M48.4294 28.9727C48.8281 29.1344 49.0765 29.394 49.3743 29.6989C49.4653 29.7916 49.5565 29.8844 49.6503 29.98C49.7194 30.0512 49.7883 30.1224 49.8595 30.1958C49.439 30.6972 49.001 31.1668 48.5316 31.6228C48.1329 31.461 47.8845 31.2014 47.5867 30.8965C47.4956 30.8038 47.4045 30.711 47.3106 30.6154C47.2417 30.5442 47.1726 30.473 47.1016 30.3996C47.522 29.8982 47.96 29.4286 48.4294 28.9727Z" fill="white"/>
</mask>
<g mask="url(#mask2_3125_864)">
<path d="M48.4294 28.9727C48.8281 29.1344 49.0765 29.394 49.3743 29.6989C49.4653 29.7916 49.5565 29.8844 49.6503 29.98C49.7194 30.0512 49.7883 30.1224 49.8595 30.1958C49.439 30.6972 49.001 31.1668 48.5316 31.6228C48.1329 31.461 47.8845 31.2014 47.5867 30.8965C47.4956 30.8038 47.4045 30.711 47.3106 30.6154C47.2417 30.5442 47.1726 30.473 47.1016 30.3996C47.522 29.8982 47.96 29.4286 48.4294 28.9727Z" stroke="#FCFBF7" stroke-width="2.66667"/>
</g>
</g>
<defs>
<clipPath id="clip0_3125_864">
<rect width="33.3333" height="33.3333" fill="white" transform="translate(21.6641 24)"/>
</clipPath>
</defs>
</svg>
