<svg width="80" height="80" viewBox="0 0 80 80" fill="none" xmlns="http://www.w3.org/2000/svg">
<path d="M19.6667 59.0006C8.80507 48.1391 8.80507 30.5289 19.6667 19.6673V19.6673C30.5283 8.80572 48.1384 8.80572 59 19.6673L59.6667 20.334C70.8965 31.5638 70.8965 49.7709 59.6667 61.0007L40.6667 80.0007L19.6667 59.0006Z" fill="#F78712"/>
<path d="M49.7111 21.1883L49.711 21.1883C48.3586 21.4359 47.2234 22.0446 46.258 23.0419C45.3748 23.9568 44.8361 24.9712 44.5886 26.1898L44.5885 26.1902C44.48 26.7134 44.4623 27.106 44.5324 27.4059C44.6011 27.7001 44.7556 27.9105 45.0084 28.0711L45.0084 28.0711C45.5333 28.4051 46.2837 28.2577 46.6059 27.7774L46.606 27.7771C46.7535 27.559 46.8157 27.3664 46.9188 26.6836L46.9188 26.6836L46.9189 26.683C47.1779 25.036 48.726 23.6435 50.4518 23.498L50.4526 23.498C51.0397 23.4533 51.2649 23.378 51.4852 23.1924C52.0128 22.7479 52.031 21.8768 51.5267 21.4082L51.5267 21.4081C51.1966 21.1012 50.6538 21.0151 49.7111 21.1883Z" fill="#FCFBF7" stroke="#F78712" stroke-width="0.2"/>
<path d="M34.7742 21.2492L34.7744 21.2491C34.9208 21.1732 35.0659 21.1569 35.7112 21.1764C36.5358 21.2082 37.2192 21.3727 37.9877 21.722L37.9878 21.722C39.1461 22.2473 40.348 23.4105 40.944 24.5837L40.9442 24.584C41.3083 25.2942 40.9332 26.1201 40.1647 26.3108L34.7742 21.2492ZM34.7742 21.2492C34.1731 21.5587 33.9423 22.3586 34.2789 22.92M34.7742 21.2492L34.7284 21.1603C34.0773 21.4955 33.8259 22.3594 34.1933 22.9718M34.1933 22.9718L34.2787 22.9197C34.2787 22.9198 34.2788 22.9199 34.2789 22.92M34.1933 22.9718L34.2791 22.9204C34.279 22.9203 34.2789 22.9202 34.2789 22.92M34.1933 22.9718L34.2789 22.92M34.2789 22.92C34.3873 23.0977 34.5089 23.2193 34.6689 23.3062C34.8313 23.3943 35.0396 23.4502 35.327 23.485C35.7849 23.5398 36.0889 23.5855 36.3474 23.6527C36.608 23.7203 36.8196 23.8089 37.0939 23.9461C37.7564 24.2773 38.403 24.8909 38.7738 25.553C38.9609 25.8836 39.1744 26.1056 39.405 26.2286C39.6336 26.3506 39.8868 26.3795 40.1646 26.3108L34.2789 22.92Z" fill="#FCFBF7" stroke="#F78712" stroke-width="0.2"/>
<path d="M32.4358 25.8093C32.2693 25.846 32.0821 25.9593 31.9222 26.1139C31.7624 26.2683 31.6411 26.4531 31.5955 26.6207C31.3928 27.3847 31.9411 28.1129 32.7174 28.1129C32.9072 28.1129 33.0512 28.0926 33.1745 28.0486C33.2969 28.005 33.4048 27.9359 33.5196 27.8302C34.4095 26.9931 33.642 25.5466 32.4358 25.8093Z" fill="#FCFBF7" stroke="#F78712" stroke-width="0.2"/>
<path d="M24.0009 50.1317C24.0009 49.5709 24.0267 49.371 24.162 48.9713C24.3426 48.4621 34.3864 30.347 34.8248 29.7475C35.2309 29.1995 36.0239 28.6451 36.7201 28.413C36.849 28.3743 37.1262 28.3163 37.3325 28.2841L24.0009 50.1317ZM24.0009 50.1317C23.9944 50.7184 24.0202 50.8796 24.1878 51.3566L24.0009 50.1317ZM46.537 33.679L46.536 33.6781C46.4066 33.556 46.2464 33.4649 45.6744 33.2541C45.0996 33.0422 44.0936 32.7048 42.2571 32.0958C41.1609 31.7315 40.1372 31.3962 39.3722 31.1495C38.9897 31.0262 38.6716 30.9249 38.4414 30.8533C38.3263 30.8175 38.2328 30.7889 38.1641 30.7687C38.0992 30.7496 38.0484 30.7354 38.025 30.7317L38.0233 30.7315L38.0233 30.7315C37.8417 30.706 37.6316 30.7391 37.4383 30.808C37.2448 30.8771 37.058 30.9858 36.9257 31.1218L36.924 31.1234L36.924 31.1235C36.8966 31.153 36.8555 31.2111 36.8084 31.2819C36.7596 31.3552 36.6995 31.4495 36.6329 31.5567C36.4994 31.7714 36.338 32.0406 36.1834 32.3046C36.0288 32.5686 35.8806 32.8282 35.7736 33.0238C35.7203 33.1213 35.6766 33.2041 35.6475 33.2639C35.6331 33.2934 35.6212 33.3195 35.6134 33.34C35.6098 33.3495 35.6053 33.3622 35.6027 33.3752C35.6016 33.381 35.5994 33.3936 35.6007 33.4088C35.6017 33.4201 35.6075 33.4641 35.6519 33.4895L35.675 33.5027H35.6952C35.6957 33.5028 35.6962 33.5029 35.6968 33.503L35.7212 33.5076C35.7427 33.5118 35.7726 33.5179 35.8092 33.5256C35.8656 33.5374 35.9369 33.5525 36.0154 33.5692C36.0387 33.5741 36.0626 33.5792 36.0869 33.5843L36.0898 33.5849L36.0898 33.5849C36.2895 33.6212 36.699 33.7715 36.9983 33.9179C37.8883 34.3567 38.5354 35.1088 38.8885 36.1111C39.0173 36.4791 39.031 36.6338 39.0634 38.3814L39.0634 38.3816L39.1021 40.2576L39.1027 40.2873L39.1194 40.3118L39.3128 40.5955L39.3135 40.5964C39.8754 41.4012 41.0429 41.4012 41.6048 40.5964L41.6055 40.5955L41.7989 40.3118L41.8157 40.2872L41.8162 40.2574L41.8485 38.5749L41.8485 38.5748M46.537 33.679L43.8501 36.2844C43.257 35.7622 42.3287 35.9233 41.929 36.6196C41.7872 36.871 41.7807 36.9484 41.7485 38.5729L41.8485 38.5748M46.537 33.679C46.5707 33.7116 46.6084 33.7624 46.6534 33.8325C46.6993 33.9041 46.7563 34.0014 46.8279 34.1315C46.9712 34.3918 47.1761 34.7881 47.4731 35.3822C48.0674 36.5707 49.033 38.5553 50.6188 41.8365L46.537 33.679ZM41.8485 38.5748C41.8646 37.7605 41.8743 37.3398 41.8972 37.0905C41.9086 36.9669 41.9229 36.8906 41.941 36.832C41.9588 36.7745 41.9815 36.73 42.0159 36.6691M41.8485 38.5748L42.0159 36.6691M42.0159 36.6691C42.3851 36.0264 43.2398 35.8803 43.784 36.3594L43.7842 36.3596C43.8133 36.3851 43.8393 36.4071 43.8626 36.4269C43.942 36.4942 43.9911 36.5359 44.0323 36.6036C44.0838 36.6884 44.1236 36.8201 44.1511 37.1031C44.1995 37.6015 44.2066 38.5182 44.2208 40.3507C44.2228 40.6005 44.2248 40.8673 44.2271 41.1524L44.2594 45.4136L44.2596 45.444L44.2768 45.4691L44.4702 45.7528L44.471 45.754C44.9134 46.383 45.7748 46.5536 46.3903 46.113L46.3903 46.1129C46.5429 46.0035 46.6507 45.9097 46.7442 45.7686C46.8354 45.6309 46.9097 45.453 47.0064 45.1821M42.0159 36.6691L46.9122 45.1485M47.0064 45.1821L46.9122 45.1485M47.0064 45.1821C47.0064 45.1822 47.0064 45.1822 47.0064 45.1823L46.9122 45.1485M47.0064 45.1821C47.2307 44.5579 47.7364 44.2368 48.3347 44.3255M46.9122 45.1485C47.1508 44.4845 47.6987 44.1299 48.3498 44.2266M48.3347 44.3255C48.3346 44.3254 48.3344 44.3254 48.3343 44.3254L48.3498 44.2266M48.3347 44.3255C48.5946 44.3665 48.8417 44.5167 49.0245 44.7273C49.2075 44.9381 49.32 45.2024 49.32 45.4644C49.32 45.9456 49.0898 46.5285 48.7198 47.0617C48.3507 47.5936 47.8518 48.0625 47.332 48.3209M48.3347 44.3255C48.3349 44.3255 48.335 44.3255 48.3352 44.3255L48.3498 44.2266M48.3498 44.2266L47.332 48.3209M47.332 48.3209C45.7911 49.0819 44.0532 48.7797 42.898 47.5491L42.8977 47.5488C42.5025 47.1315 42.2422 46.7294 42.0793 46.2486C41.9159 45.7661 41.8485 45.1981 41.8485 44.4458C41.8485 44.1841 41.8453 43.9444 41.8396 43.7697C41.8367 43.6826 41.8332 43.6104 41.8291 43.5593C41.8271 43.5342 41.8247 43.5117 41.8217 43.4944C41.8204 43.4864 41.8181 43.4749 41.8141 43.4635C41.8124 43.4585 41.8081 43.4471 41.7996 43.4351C41.7934 43.4264 41.7668 43.3917 41.7163 43.3917C41.7066 43.3917 41.6979 43.3932 41.6959 43.3935L41.6956 43.3936L41.6839 43.3957C41.6761 43.3973 41.6663 43.3995 41.655 43.4021C41.6323 43.4073 41.6016 43.4147 41.5652 43.4236C41.4924 43.4414 41.3956 43.4656 41.2927 43.4913L41.2923 43.4914L41.2915 43.4916C40.5436 43.6848 39.6584 43.5862 38.8317 43.2012C37.8291 42.7311 37.0178 41.7065 36.7857 40.6024L36.7855 40.6015C36.7174 40.292 36.6912 39.7302 36.6912 38.5858V38.574C36.6912 37.7982 36.6912 37.4001 36.6698 37.1556C36.6589 37.0307 36.6422 36.9413 36.6155 36.8596C36.5893 36.7792 36.5545 36.7094 36.5132 36.6269C36.5132 36.6267 36.5131 36.6266 36.513 36.6264L36.4236 36.6712L47.332 48.3209ZM53.3503 51.5211L53.3714 51.5105L53.7066 51.3429C54.1918 51.1003 54.452 50.6786 54.4452 50.1311C54.4452 50.1309 54.4452 50.1307 54.4452 50.1305L54.3452 50.1317C54.3452 49.7965 54.1389 49.3453 50.5288 41.88L53.3503 51.5211ZM53.3503 51.5211H53.3267M53.3503 51.5211H53.3267M53.3267 51.5211H40.4914M53.3267 51.5211H40.4914M40.4914 51.5211C35.6661 51.5211 32.4425 51.5162 30.4042 51.5041M40.4914 51.5211L30.4042 51.5041M30.4042 51.5041C29.3852 51.4981 28.6619 51.4902 28.1828 51.4803M30.4042 51.5041L28.1828 51.4803M28.1828 51.4803C27.9433 51.4753 27.7641 51.4697 27.6391 51.4636M28.1828 51.4803L27.6391 51.4636M27.6391 51.4636C27.5767 51.4605 27.5269 51.4572 27.4894 51.4537M27.6391 51.4636L27.4894 51.4537M27.4894 51.4537C27.4565 51.4506 27.4217 51.4465 27.3979 51.4382L27.4894 51.4537ZM37.3477 28.3829C37.1443 28.4147 36.8736 28.4716 36.7502 28.5084C36.072 28.7349 35.2979 29.2773 34.9054 29.8066C34.8547 29.8761 34.6538 30.2175 34.335 30.7744C34.0182 31.3278 33.5894 32.0863 33.0864 32.9815C32.0804 34.7718 30.7783 37.1082 29.4842 39.4417C28.1901 41.7753 26.9041 44.106 25.9303 45.8851C25.4434 46.7746 25.0347 47.5261 24.7422 48.071C24.5958 48.3435 24.4787 48.564 24.3955 48.7242C24.3106 48.8875 24.2653 48.9799 24.2565 49.0042C24.1259 49.3899 24.1009 49.5783 24.1009 50.1317L24.1009 50.1328C24.0977 50.4257 24.1027 50.6056 24.1279 50.7701C24.1531 50.9338 24.1988 51.0862 24.2822 51.3234C24.6286 52.306 25.2628 53.0394 26.1475 53.4849L26.1477 53.4851C26.2024 53.5128 26.2493 53.5381 26.2924 53.5612C26.4322 53.6365 26.5311 53.6898 26.721 53.7337C26.9741 53.7922 27.3833 53.8313 28.224 53.8563C29.7203 53.9008 32.5571 53.9005 38.2528 53.8999C38.9451 53.8998 39.6797 53.8997 40.4592 53.8997C41.2376 53.8997 41.9712 53.8998 42.6625 53.8999C48.3502 53.9005 51.1816 53.9008 52.6758 53.8563C53.5152 53.8313 53.9242 53.7922 54.1783 53.7337C54.3688 53.6898 54.4691 53.6365 54.6106 53.5615C54.6545 53.5381 54.7024 53.5127 54.7582 53.4848L54.759 53.4844C55.6425 53.052 56.315 52.2679 56.6487 51.2922C56.8616 50.6659 56.8863 49.7523 56.7119 49.1608L56.7119 49.1607C56.7063 49.1416 56.6734 49.0633 56.6098 48.9215C56.5481 48.784 56.4611 48.5947 56.3523 48.3608C56.1348 47.8929 55.8307 47.2477 55.4682 46.4838C54.7431 44.9561 53.7849 42.9544 52.8199 40.9492C51.855 38.9439 50.8834 36.9354 50.1318 35.3939C49.756 34.6232 49.4352 33.9694 49.1978 33.4912C48.9589 33.0101 48.8076 32.7137 48.768 32.65C48.4546 32.155 47.9069 31.6457 47.4082 31.3901L47.4075 31.3898C47.3385 31.3538 47.1557 31.2806 46.8787 31.1777C46.6047 31.0759 46.2451 30.9474 45.8282 30.8016C44.9946 30.5101 43.9335 30.1501 42.8725 29.7972C41.8115 29.4444 40.7512 29.0988 39.9192 28.8363C39.5031 28.7051 39.1446 28.5947 38.8718 28.5146C38.5955 28.4334 38.4156 28.386 38.3502 28.3767C38.0927 28.3408 37.9754 28.3245 37.8561 28.3253C37.7367 28.326 37.6144 28.3439 37.3477 28.3829ZM36.6879 40.6229L36.6879 40.6229L36.6879 40.6229Z" fill="#FCFBF7" stroke="#F78712" stroke-width="0.2"/>
<path d="M53.0544 30.8502C51.894 31.1339 51.707 32.7004 52.7772 33.2419C53.28 33.4998 54.0149 33.3386 54.3502 32.8938C54.8917 32.1847 54.5629 31.1403 53.7184 30.8889M53.0544 30.8502C53.3509 30.7858 53.3638 30.7858 53.7184 30.8889M53.0544 30.8502L53.0781 30.9474C53.0777 30.9475 53.0773 30.9476 53.0769 30.9477M53.0544 30.8502L53.0756 30.948C53.0761 30.9479 53.0765 30.9478 53.0769 30.9477M53.7184 30.8889L53.6905 30.9849C53.6903 30.9849 53.6902 30.9849 53.6901 30.9849M53.7184 30.8889L53.6899 30.9848C53.6899 30.9848 53.69 30.9848 53.6901 30.9849M53.6901 30.9849C53.509 30.9322 53.4296 30.9106 53.3589 30.9066C53.2908 30.9027 53.2278 30.9149 53.0769 30.9477M53.6901 30.9849C54.4652 31.2158 54.771 32.1779 54.2707 32.8331L54.2703 32.8336L54.2703 32.8336C54.1199 33.0332 53.8752 33.1741 53.605 33.2337C53.3348 33.2934 53.0498 33.2694 52.8228 33.153L52.8223 33.1527L52.8223 33.1527C51.8362 32.6537 52.0069 31.2103 53.0769 30.9477" fill="#FCFBF7" stroke="#F78712" stroke-width="0.2"/>
</svg>
