<svg width="81" height="80" viewBox="0 0 81 80" fill="none" xmlns="http://www.w3.org/2000/svg">
<path d="M19.7682 59.0006C8.90663 48.1391 8.90663 30.5289 19.7682 19.6673V19.6673C30.6298 8.80572 48.24 8.80572 59.1016 19.6673L59.7682 20.334C70.998 31.5638 70.998 49.7709 59.7682 61.0007L40.7682 80.0007L19.7682 59.0006Z" fill="#AC02CA"/>
<path d="M51.7449 23.4262C51.8048 23.4758 51.8646 23.5254 51.9263 23.5765C53.5856 25.0086 54.5336 27.1146 54.7353 29.2732C54.7434 29.3986 54.7504 29.5241 54.7562 29.6496C54.7604 29.7268 54.7604 29.7268 54.7646 29.8054C54.8235 31.9693 54.0288 34.0516 52.6148 35.6723C52.5765 35.7195 52.5382 35.7667 52.4988 35.8153C52.18 36.2017 51.8053 36.5042 51.4103 36.81C51.3531 36.8556 51.2959 36.9012 51.237 36.9483C49.3755 38.3787 47.2506 38.6029 44.9861 38.5499C45.4198 39.3428 45.8701 40.1245 46.3323 40.9012C46.4888 41.1642 46.6421 41.4287 46.7929 41.695C46.8371 41.695 46.8812 41.695 46.9267 41.695C47.0139 41.586 47.0139 41.586 47.1024 41.4483C47.4021 41.0353 47.7767 40.8257 48.2651 40.6913C48.4415 40.6754 48.6076 40.6657 48.7837 40.6662C48.8307 40.6663 48.8777 40.6664 48.9261 40.6665C49.3925 40.6774 49.8095 40.7733 50.1558 41.1022C50.4022 41.269 50.6071 41.2455 50.8917 41.2266C51.3984 41.2091 51.8046 41.2501 52.199 41.6004C52.4047 41.7318 52.5819 41.7308 52.824 41.7494C53.413 41.8114 53.8401 42.019 54.246 42.4521C54.6655 42.9964 54.7958 43.5836 54.744 44.2657C54.6487 44.8215 54.3314 45.351 53.8829 45.6935C53.2626 46.0912 52.5433 46.1554 51.8257 46.0058C51.6671 45.9634 51.6671 45.9634 51.4772 46.0448C51.3021 46.053 51.1295 46.0572 50.9544 46.0573C50.9076 46.0581 50.8608 46.059 50.8126 46.0598C50.514 46.0606 50.285 46.0066 50.005 45.9109C49.8208 45.9086 49.8208 45.9086 49.6453 45.936C49.5868 45.9435 49.5283 45.9509 49.4681 45.9585C49.4026 45.9681 49.4026 45.9681 49.3358 45.9779C49.6963 46.6318 50.071 47.2766 50.4525 47.9185C50.4984 47.9958 50.5444 48.0731 50.5903 48.1504C50.6132 48.189 50.6361 48.2276 50.6597 48.2673C50.6827 48.306 50.7057 48.3447 50.7293 48.3846C50.7524 48.4234 50.7754 48.4622 50.7991 48.5021C51.0484 48.9219 51.2969 49.342 51.5441 49.763C51.6049 49.8656 51.6049 49.8656 51.6669 49.9704C51.7037 50.0331 51.7405 50.0959 51.7784 50.1606C51.8108 50.2156 51.8432 50.2707 51.8766 50.3275C51.9457 50.4614 51.9457 50.4614 51.9457 50.5953C51.9815 50.6003 52.0174 50.6053 52.0544 50.6104C52.9181 50.7553 53.863 51.049 54.4133 51.7663C54.7557 52.2549 54.7139 52.8102 54.7144 53.3808C54.716 53.4702 54.7177 53.5596 54.7194 53.649C54.7196 53.7338 54.7199 53.8187 54.7202 53.9062C54.7207 53.9835 54.7213 54.0609 54.7218 54.1406C54.6809 54.3954 54.6277 54.4571 54.4217 54.6104C54.2322 54.6366 54.0688 54.6464 53.8795 54.6441C53.8241 54.6445 53.7687 54.6449 53.7117 54.6453C53.5249 54.6462 53.3382 54.6453 53.1515 54.6444C53.0168 54.6447 52.882 54.6451 52.7473 54.6457C52.3761 54.6468 52.0049 54.6462 51.6336 54.6454C51.2337 54.6448 50.8337 54.6457 50.4337 54.6465C49.6952 54.6476 48.9566 54.6475 48.218 54.6467C47.5358 54.6461 46.8536 54.6459 46.1713 54.6462C46.1261 54.6462 46.0809 54.6463 46.0343 54.6463C45.8508 54.6464 45.6672 54.6464 45.4837 54.6465C43.7612 54.6474 42.0387 54.6466 40.3162 54.6452C38.7852 54.6439 37.2541 54.644 35.723 54.6453C34.0038 54.6467 32.2845 54.6473 30.5652 54.6465C30.382 54.6464 30.1988 54.6463 30.0156 54.6462C29.9705 54.6462 29.9253 54.6462 29.8789 54.6462C29.197 54.6458 28.5151 54.6462 27.8332 54.6469C27.058 54.6476 26.2828 54.6474 25.5077 54.646C25.1119 54.6453 24.7161 54.645 24.3203 54.6459C23.9584 54.6467 23.5965 54.6463 23.2346 54.6448C23.1033 54.6445 22.972 54.6447 22.8407 54.6453C22.6629 54.6462 22.4852 54.6453 22.3074 54.6441C22.23 54.645 22.23 54.645 22.151 54.646C21.9182 54.6427 21.7887 54.6279 21.5997 54.4867C21.3829 54.1811 21.4569 53.7663 21.4599 53.4059C21.4583 53.3212 21.4567 53.2366 21.4551 53.1494C21.4562 52.3965 21.6341 51.7345 22.1662 51.1805C22.6217 50.7844 23.1867 50.4992 23.7946 50.4484C24.0486 50.419 24.2401 50.3958 24.4253 50.2101C24.5334 50.0461 24.6244 49.8793 24.7138 49.7044C24.7881 49.5695 24.8624 49.4346 24.9368 49.2998C24.9951 49.1915 24.9951 49.1915 25.0546 49.0811C25.2478 48.728 25.4533 48.3824 25.6582 48.0361C25.7801 47.8299 25.9009 47.6231 26.0219 47.4164C26.071 47.3325 26.1201 47.2487 26.1692 47.1649C26.1935 47.1234 26.2177 47.082 26.2427 47.0394C26.4329 46.7146 26.6233 46.3899 26.8137 46.0652C26.9321 45.8632 27.0505 45.6612 27.1689 45.4592C27.2163 45.3784 27.2637 45.2975 27.3111 45.2167C27.3346 45.1766 27.3581 45.1366 27.3822 45.0954C28.0577 43.9431 28.0577 43.9431 28.7332 42.7908C28.7684 42.7308 28.7684 42.7308 28.8043 42.6696C28.8517 42.5887 28.8991 42.5078 28.9465 42.4269C29.0648 42.2251 29.1832 42.0232 29.3014 41.8213C29.5409 41.4123 29.781 41.0037 30.0224 40.5959C30.3061 40.116 30.5873 39.6348 30.8662 39.1521C30.9062 39.0829 30.9463 39.0137 30.9875 38.9424C32.2816 36.6863 33.1861 34.1875 33.5657 31.6107C33.573 31.5611 33.5803 31.5115 33.5878 31.4603C33.6233 31.2165 33.6571 30.9725 33.6886 30.7281C33.8394 29.5977 33.8394 29.5977 34.3083 29.223C34.3455 29.1922 34.3827 29.1613 34.421 29.1295C34.7793 28.8956 35.0994 28.8956 35.5142 28.9005C35.5746 28.9007 35.635 28.9008 35.6973 28.901C35.8896 28.9018 36.0818 28.9035 36.2741 28.9052C36.4047 28.9058 36.5354 28.9065 36.6661 28.907C36.9857 28.9085 37.3054 28.9108 37.625 28.9135C37.6283 28.8669 37.6317 28.8203 37.6351 28.7722C37.7826 26.9213 38.6999 25.2851 39.9672 23.9615C40.0129 23.9116 40.0586 23.8616 40.1057 23.8102C41.1376 22.7192 42.5481 22.0127 43.9823 21.6194C44.0609 21.5967 44.1395 21.574 44.2204 21.5506C46.8671 20.9216 49.6868 21.713 51.7449 23.4262ZM40.6719 24.8581C39.6975 25.8909 38.7626 27.4531 38.7626 28.9135C38.874 28.9145 38.874 28.9145 38.9876 28.9154C39.265 28.9181 39.5423 28.9225 39.8197 28.9274C39.9393 28.9293 40.059 28.9307 40.1787 28.9317C40.3515 28.9331 40.5242 28.9362 40.697 28.9397C40.7499 28.9398 40.8027 28.9398 40.8572 28.9399C41.2934 28.9512 41.6466 29.0763 41.9763 29.3679C42.0062 29.4084 42.036 29.4489 42.0667 29.4907C42.0976 29.5302 42.1285 29.5697 42.1603 29.6104C42.3677 30.0476 42.3954 30.5669 42.4627 31.0415C42.7032 32.72 43.13 34.3083 43.6977 35.9023C43.7853 36.1514 43.8666 36.4019 43.9437 36.6544C44.0275 36.8618 44.1167 37.0308 44.25 37.2115C44.8252 37.4545 45.5116 37.449 46.1279 37.4457C46.212 37.4453 46.296 37.4449 46.3827 37.4445C48.4185 37.406 50.2497 36.4949 51.6612 35.0405C52.9579 33.5661 53.7245 31.6254 53.6186 29.6496C53.4439 27.58 52.5869 25.6839 51.0088 24.2961C47.8233 21.7158 43.569 22.0436 40.6719 24.8581ZM35.0152 30.185C34.8929 30.3686 34.8604 30.5322 34.8385 30.7496C34.8319 30.8085 34.8254 30.8675 34.8187 30.9281C34.8083 31.024 34.8083 31.024 34.7977 31.1219C34.493 33.6486 33.7458 36.1915 32.5509 38.4456C32.525 38.5021 32.499 38.5586 32.4723 38.6168C32.4943 38.6609 32.5164 38.7051 32.5392 38.7506C33.4699 38.1662 33.8631 37.2696 34.3151 36.3107C34.3871 36.1586 34.4604 36.0072 34.5339 35.8559C34.5657 35.7868 34.5657 35.7868 34.5982 35.7164C34.781 35.343 35.0407 35.0573 35.4167 34.8693C35.9289 34.8256 36.3454 34.8058 36.7551 35.137C37.0021 35.4509 37.0845 35.7199 37.1516 36.1031C37.1623 36.1603 37.173 36.2174 37.184 36.2762C37.2209 36.4762 37.2559 36.6765 37.2904 36.8769C37.3104 36.9927 37.3104 36.9927 37.3308 37.1108C37.428 37.6783 37.522 38.2463 37.6151 38.8144C37.6676 39.1348 37.7204 39.4551 37.7733 39.7753C37.8013 39.9448 37.8291 40.1143 37.8569 40.2839C37.8694 40.3599 37.8819 40.4359 37.8948 40.5143C37.9058 40.581 37.9167 40.6477 37.9279 40.7164C37.955 40.8665 37.9872 41.0125 38.0265 41.1597C38.0707 41.1597 38.1149 41.1597 38.1604 41.1597C38.3031 40.6101 38.4255 40.0591 38.5347 39.5019C38.5666 39.3416 38.5986 39.1814 38.6306 39.0212C38.6802 38.7719 38.7296 38.5225 38.7786 38.2731C38.8264 38.0302 38.875 37.7873 38.9237 37.5445C38.9453 37.4328 38.9453 37.4328 38.9674 37.3189C39.0845 36.7388 39.2148 36.3604 39.6995 36.0069C40.0694 35.8837 40.49 35.8717 40.8633 35.9913C41.5135 36.3437 41.7093 37.2682 41.9425 37.9195C42.0103 38.0954 42.0752 38.2564 42.1755 38.416C42.3786 38.514 42.3786 38.514 42.577 38.4829C42.8353 38.3029 43.0601 37.9722 43.1793 37.6799C43.1585 37.3602 43.001 37.0644 42.8781 36.7723C42.1016 34.8694 41.6037 32.8929 41.338 30.8576C41.3219 30.74 41.3219 30.74 41.3055 30.62C41.2973 30.553 41.289 30.4861 41.2805 30.4171C41.2336 30.2322 41.1891 30.1646 41.0379 30.0512C40.7941 29.9699 40.5698 29.9738 40.3159 29.9735C40.2629 29.9731 40.2099 29.9728 40.1553 29.9725C39.9798 29.9715 39.8044 29.971 39.6289 29.9706C39.507 29.9703 39.385 29.9699 39.2631 29.9695C39.0074 29.9688 38.7516 29.9684 38.4959 29.9682C38.1683 29.9678 37.8408 29.9662 37.5132 29.9643C37.2613 29.963 37.0094 29.9627 36.7575 29.9626C36.6367 29.9624 36.516 29.9618 36.3952 29.961C36.2262 29.9598 36.0573 29.96 35.8883 29.9604C35.8385 29.9598 35.7887 29.9592 35.7374 29.9585C35.4402 29.9609 35.2521 30.0028 35.0152 30.185ZM35.7513 35.94C35.6844 36.0669 35.6176 36.1938 35.5508 36.3208C35.4913 36.4337 35.4316 36.5466 35.3719 36.6594C35.2095 36.9664 35.0499 37.2744 34.8949 37.5853C34.315 38.7407 33.7194 39.5335 32.4479 39.9724C32.2809 40.0194 32.1211 40.0445 31.9494 40.0681C31.7752 40.105 31.6899 40.1325 31.5706 40.2676C31.526 40.3388 31.526 40.3388 31.4805 40.4116C31.429 40.4933 31.429 40.4933 31.3766 40.5766C31.1786 40.9067 30.9856 41.2393 30.7951 41.5738C30.7057 41.7298 30.6162 41.8857 30.5266 42.0417C30.5043 42.0806 30.482 42.1195 30.459 42.1596C30.2546 42.5153 30.0466 42.8688 29.8373 43.2216C29.5039 43.784 29.1723 44.3473 28.8419 44.9113C28.806 44.9726 28.806 44.9726 28.7694 45.0351C28.6472 45.2437 28.525 45.4522 28.4029 45.6608C28.2116 45.9873 28.0203 46.3137 27.8289 46.6401C27.7351 46.8001 27.6414 46.9601 27.5476 47.1201C27.3252 47.4996 27.1026 47.8791 26.8797 48.2584C26.7742 48.4378 26.6688 48.6173 26.5634 48.7968C26.513 48.8825 26.4627 48.9681 26.4123 49.0538C26.3424 49.1724 26.2727 49.2911 26.203 49.4098C26.1633 49.4774 26.1236 49.5449 26.0827 49.6145C25.9989 49.7611 25.9206 49.9079 25.8473 50.0599C26.654 49.9343 27.2072 49.6538 27.7043 48.9976C28.2381 48.313 29.0274 47.9125 29.8624 47.7178C30.1016 47.6885 30.3368 47.6826 30.5776 47.6843C30.6416 47.6847 30.7057 47.6851 30.7716 47.6855C31.641 47.7071 32.3264 47.971 33.0076 48.5208C33.067 48.5636 33.1263 48.6064 33.1874 48.6504C33.3758 48.8184 33.533 49.0056 33.6972 49.1968C34.0385 49.579 34.3811 49.7282 34.8813 49.7922C35.1493 49.8028 35.417 49.8032 35.6851 49.8035C35.763 49.8037 35.8409 49.8039 35.9212 49.8042C36.0858 49.8045 36.2505 49.8046 36.4151 49.8046C36.6652 49.8048 36.9152 49.806 37.1653 49.8073C37.3258 49.8075 37.4862 49.8076 37.6467 49.8077C37.7207 49.8081 37.7947 49.8086 37.8709 49.8091C38.7825 49.8065 39.5467 49.6741 40.2223 49.0269C40.9505 48.3356 41.7562 48.2209 42.7101 48.2343C43.1058 48.249 43.4314 48.3347 43.7815 48.5208C43.8267 48.5442 43.8719 48.5677 43.9185 48.5919C44.1971 48.7524 44.4325 48.9522 44.6766 49.1607C45.3355 49.7084 45.9871 49.7893 46.8179 49.8117C47.7337 49.8364 48.6305 49.9283 49.5366 50.0599C49.5874 50.0673 49.6383 50.0747 49.6907 50.0823C49.9296 50.1174 50.1683 50.1542 50.4065 50.1938C49.8432 49.1388 49.2372 48.1072 48.629 47.0778C48.5939 47.0184 48.5939 47.0184 48.5582 46.9577C48.4912 46.8442 48.4241 46.7309 48.3569 46.6175C48.3182 46.5522 48.2795 46.4868 48.2396 46.4195C48.099 46.188 48.099 46.188 47.9305 45.9779C47.7997 45.9455 47.7997 45.9455 47.6563 45.9611C47.603 45.9634 47.5496 45.9657 47.4947 45.968C47.4384 45.9713 47.3821 45.9745 47.3241 45.9779C46.7034 45.9958 46.2964 45.9106 45.7724 45.568C45.307 45.0815 45.0586 44.5449 45.0512 43.8699C45.0907 43.2214 45.3311 42.6884 45.7891 42.2304C45.7437 42.1533 45.7437 42.1533 45.6974 42.0746C45.0744 41.015 44.4546 39.9538 43.8485 38.8845C43.6197 38.9607 43.5558 39.056 43.4185 39.2478C43.1409 39.5247 42.8313 39.5837 42.4515 39.5871C42.0328 39.5778 41.7446 39.5119 41.4394 39.2191C41.228 38.9788 41.1067 38.7577 40.994 38.4589C40.9628 38.3788 40.9317 38.2986 40.8996 38.2161C40.8512 38.0896 40.8032 37.963 40.7556 37.8363C40.7091 37.7131 40.6612 37.5903 40.6134 37.4677C40.5856 37.3944 40.5579 37.3212 40.5293 37.2458C40.4543 37.066 40.4543 37.066 40.2959 37.0337C40.2537 37.0261 40.2114 37.0185 40.1679 37.0107C40.0255 37.5588 39.9039 38.1081 39.796 38.6638C39.7643 38.8235 39.7326 38.9831 39.7009 39.1427C39.6518 39.3908 39.603 39.6389 39.5547 39.8872C39.5076 40.1292 39.4594 40.371 39.4112 40.6128C39.3971 40.6866 39.383 40.7604 39.3685 40.8364C39.2679 41.3346 39.1682 41.7921 38.7626 42.13C38.4263 42.2927 38.055 42.2804 37.6919 42.2304C37.3905 42.0851 37.2058 41.9061 37.0227 41.6281C36.9514 41.3993 36.9151 41.1659 36.8764 40.9297C36.8633 40.8554 36.8502 40.7812 36.8368 40.7047C36.7857 40.4105 36.7367 40.116 36.6881 39.8213C36.6711 39.718 36.6711 39.718 36.6537 39.6127C36.6284 39.4587 36.603 39.3047 36.5776 39.1508C36.5508 38.988 36.524 38.8253 36.4971 38.6627C36.429 38.2501 36.3614 37.8376 36.2948 37.4248C36.2695 37.2701 36.2442 37.1155 36.2189 36.9608C36.2018 36.8529 36.2018 36.8529 36.1843 36.7428C36.1733 36.6763 36.1624 36.6097 36.151 36.5411C36.1416 36.483 36.1323 36.4248 36.1226 36.3649C36.0856 36.2066 36.0308 36.0816 35.952 35.94C35.8858 35.94 35.8195 35.94 35.7513 35.94ZM48.0644 42.0966C47.9955 42.2091 47.9272 42.3221 47.8594 42.4353C47.7146 42.6563 47.6405 42.7498 47.3892 42.8397C47.2377 42.8684 47.0859 42.8952 46.9338 42.9202C46.6303 42.9878 46.4464 43.1244 46.2575 43.368C46.1184 43.6347 46.0978 43.8705 46.1454 44.1692C46.2433 44.4628 46.4589 44.69 46.7184 44.8523C46.8853 44.917 47.0157 44.925 47.1944 44.9239C47.2793 44.9244 47.2793 44.9244 47.3659 44.9249C47.5395 44.906 47.6441 44.8547 47.7967 44.7733C48.1429 44.7445 48.1429 44.7445 48.325 44.8395C48.585 44.9644 48.8541 44.9501 49.1351 44.9072C49.2971 44.8293 49.4445 44.7383 49.5972 44.6437C49.8218 44.5297 49.9715 44.5643 50.2058 44.6395C50.2679 44.685 50.33 44.7306 50.394 44.7775C50.6847 44.9542 50.9433 44.9544 51.2765 44.9072C51.3665 44.8643 51.4559 44.8198 51.5441 44.7733C51.8908 44.7444 51.8908 44.7444 52.0716 44.8397C52.3305 44.9629 52.6027 44.9426 52.8825 44.9072C53.2063 44.7513 53.3958 44.5618 53.5517 44.238C53.6051 43.9037 53.5905 43.6493 53.443 43.3429C53.2019 43.0765 53.0402 42.912 52.6671 42.8826C52.5864 42.8799 52.5056 42.8773 52.4224 42.8745C51.9621 42.856 51.7385 42.7417 51.4103 42.4312C51.1655 42.3087 50.8757 42.3455 50.6073 42.3642C50.4952 42.4075 50.3836 42.4519 50.2727 42.4981C50.0052 42.4925 49.9019 42.4596 49.7039 42.2764C49.6487 42.2171 49.5935 42.1577 49.5366 42.0966C49.2377 41.8394 49.0095 41.7848 48.6256 41.8043C48.3722 41.8433 48.2523 41.9212 48.0644 42.0966ZM28.2145 50.0766C27.6385 50.7553 26.8092 50.9997 25.9633 51.1599C25.821 51.1883 25.6786 51.2167 25.5362 51.2451C25.3145 51.2885 25.0928 51.3317 24.871 51.3746C24.655 51.4166 24.4392 51.4597 24.2235 51.5029C24.1574 51.5153 24.0913 51.5277 24.0232 51.5405C23.4866 51.6486 23.1364 51.8403 22.7863 52.2693C22.5375 52.6617 22.5683 53.0872 22.5683 53.5397C32.8149 53.5397 43.0615 53.5397 53.6186 53.5397C53.6396 52.871 53.6396 52.871 53.3567 52.3046C53.0733 52.071 52.7823 51.9804 52.435 51.8709C52.3641 51.8481 52.2933 51.8253 52.2203 51.8018C50.6094 51.2967 48.9403 50.9772 47.253 50.8956C47.1752 50.8918 47.1752 50.8918 47.0958 50.8879C46.8432 50.8758 46.5908 50.8659 46.3379 50.8593C45.536 50.8324 44.7819 50.6767 44.1454 50.1561C44.0832 50.1063 44.021 50.0566 43.9569 50.0053C43.8414 49.909 43.7259 49.8127 43.6106 49.7162C43.1202 49.3425 42.579 49.2489 41.9747 49.3238C41.4663 49.4298 41.1078 49.7341 40.7158 50.0545C40.1239 50.5346 39.5079 50.8108 38.735 50.8155C38.6642 50.8161 38.6642 50.8161 38.592 50.8168C38.4373 50.8181 38.2826 50.8184 38.1279 50.8185C38.0194 50.8189 37.9108 50.8194 37.8022 50.8199C37.5749 50.8207 37.3477 50.8209 37.1204 50.8208C36.831 50.8208 36.5416 50.8226 36.2522 50.8249C36.028 50.8264 35.8037 50.8267 35.5795 50.8266C35.4729 50.8268 35.3663 50.8274 35.2597 50.8284C34.3478 50.8365 33.6242 50.7077 32.9407 50.0599C32.8294 49.9368 32.7193 49.8127 32.6103 49.6877C32.1645 49.183 31.6155 48.8073 30.9263 48.7636C29.7165 48.7303 28.9939 49.1432 28.2145 50.0766Z" fill="white" stroke="white" stroke-width="0.666667"/>
<path d="M25.2238 31.5664C25.2708 31.5665 25.3178 31.5666 25.3662 31.5667C25.8326 31.5777 26.2496 31.6735 26.5959 32.0024C26.8423 32.1692 27.0472 32.1458 27.3318 32.1269C27.8385 32.1093 28.2447 32.1503 28.639 32.5007C28.8448 32.632 29.0219 32.631 29.264 32.6497C29.8531 32.7117 30.2802 32.9193 30.6861 33.3523C31.1056 33.8967 31.2359 34.4838 31.184 35.1659C31.0888 35.7218 30.7715 36.2513 30.323 36.5937C29.7027 36.9915 28.9834 37.0556 28.2657 36.9061C28.1072 36.8636 28.1072 36.8636 27.9173 36.945C27.7422 36.9532 27.5696 36.9574 27.3945 36.9576C27.3477 36.9584 27.3009 36.9592 27.2527 36.9601C26.9549 36.9609 26.7236 36.9104 26.4451 36.8112C26.2056 36.8315 26.0035 36.8691 25.7759 36.945C25.5995 36.9515 25.4253 36.9543 25.2489 36.9534C25.2015 36.9536 25.1542 36.9539 25.1054 36.9542C24.9036 36.9538 24.7146 36.9469 24.5165 36.9069C24.3595 36.8634 24.3595 36.8634 24.1698 36.945C23.4251 36.9966 22.7948 36.9719 22.179 36.5017C21.7069 36.0531 21.4978 35.549 21.4301 34.9058C21.4197 34.2793 21.6166 33.7363 22.0284 33.2645C22.3133 32.9797 22.5881 32.8477 22.9737 32.7375C23.337 32.6287 23.4737 32.5065 23.6732 32.1914C24.0232 31.7077 24.66 31.5651 25.2238 31.5664ZM24.5044 32.9968C24.4355 33.1094 24.3673 33.2223 24.2995 33.3356C24.1546 33.5566 24.0806 33.65 23.8292 33.74C23.6778 33.7686 23.526 33.7955 23.3739 33.8205C23.0704 33.8881 22.8864 34.0246 22.6976 34.2683C22.5585 34.5349 22.5379 34.7707 22.5855 35.0695C22.6833 35.363 22.899 35.5903 23.1585 35.7525C23.3254 35.8173 23.4558 35.8252 23.6345 35.8241C23.7194 35.8246 23.7194 35.8246 23.806 35.8252C23.9796 35.8063 24.0842 35.7549 24.2368 35.6736C24.583 35.6447 24.583 35.6447 24.765 35.7397C25.025 35.8646 25.2942 35.8504 25.5751 35.8074C25.7372 35.7295 25.8846 35.6386 26.0373 35.5439C26.2619 35.4299 26.4116 35.4646 26.6458 35.5397C26.7079 35.5853 26.7701 35.6308 26.834 35.6777C27.1248 35.8545 27.3833 35.8547 27.7165 35.8074C27.8066 35.7645 27.896 35.7201 27.9842 35.6736C28.3309 35.6447 28.3309 35.6447 28.5117 35.74C28.7706 35.8632 29.0428 35.8428 29.3226 35.8074C29.6464 35.6515 29.8359 35.462 29.9918 35.1382C30.0451 34.804 30.0305 34.5495 29.883 34.2432C29.642 33.9767 29.4803 33.8123 29.1072 33.7828C29.0265 33.7802 28.9457 33.7775 28.8625 33.7747C28.4022 33.7562 28.1785 33.6419 27.8504 33.3314C27.6055 33.209 27.3158 33.2458 27.0473 33.2645C26.9353 33.3078 26.8236 33.3521 26.7128 33.3983C26.4453 33.3927 26.342 33.3599 26.1439 33.1767C26.0887 33.1173 26.0335 33.058 25.9766 32.9968C25.6778 32.7397 25.4496 32.685 25.0657 32.7046C24.8123 32.7435 24.6923 32.8214 24.5044 32.9968Z" fill="white" stroke="white" stroke-width="0.666667"/>
</svg>
