<svg width="81" height="88" viewBox="0 0 81 88" fill="none" xmlns="http://www.w3.org/2000/svg">
<path d="M39.563 81.7684L41.3307 83.5362L43.0985 81.7684L62.0985 62.7684C74.3046 50.5623 74.3046 30.7723 62.0985 18.5662L61.4318 17.8996C49.5939 6.06164 30.4009 6.06164 18.563 17.8996C6.72505 29.7375 6.72505 48.9305 18.563 60.7684L39.563 81.7684Z" fill="#61A5FF" stroke="#F78712" stroke-width="5"/>
<path fill-rule="evenodd" clip-rule="evenodd" d="M54.7144 31.1476C54.7144 30.7349 54.3813 30.3963 53.9675 30.3963C52.4736 30.3963 51.2531 31.6203 51.2637 33.1371C51.2637 34.9043 49.8328 36.3435 48.0759 36.3435H47.7182C47.4973 34.0788 46.2839 32.1 44.5235 30.8548V30.0012C44.5235 29.2181 44.2219 28.4844 43.6713 27.9306L43.6643 27.9271C44.5025 27.5355 45.1652 26.8054 45.4703 25.8812C45.6 25.4826 45.3862 25.0593 44.9934 24.9288C44.6006 24.7983 44.1763 25.0134 44.0465 25.4085C43.815 26.1246 43.1979 26.629 42.472 26.7278L42.2335 26.4879C41.0973 25.345 39.2526 25.345 38.1164 26.4879L37.878 26.7278C37.1521 26.629 36.5384 26.1246 36.3034 25.4085C36.1737 25.0134 35.7493 24.7983 35.3565 24.9288C34.9638 25.0593 34.7499 25.4861 34.8796 25.8812C35.1847 26.8054 35.8475 27.532 36.6856 27.9271L36.6821 27.9341C36.1315 28.4879 35.83 29.2216 35.83 30.0047V30.8583C34.0695 32.1035 32.8561 34.0788 32.6352 36.347H32.2775C30.5206 36.347 29.0898 34.9078 29.0898 33.1406C29.0898 31.6344 27.8729 30.4068 26.3755 30.4068C25.9617 30.4068 25.6285 30.7419 25.6285 31.1582C25.6285 31.5744 25.9617 31.9095 26.3755 31.9095C27.0488 31.9095 27.5959 32.4598 27.5959 33.1371C27.5959 35.4793 29.3037 37.4263 31.5306 37.7861V40.4705C29.3037 40.8303 27.5959 42.7774 27.5959 45.1197C27.5959 45.4583 27.4591 45.7651 27.2382 45.9873C27.0172 46.2096 26.7121 46.3472 26.3755 46.3472C25.9617 46.3472 25.6285 46.6823 25.6285 47.0986C25.6285 47.5112 25.9617 47.8498 26.3755 47.8498C27.8729 47.8498 29.0898 46.6223 29.0898 45.1161C29.0898 44.3612 29.3493 43.6698 29.7841 43.1196C30.219 42.5693 30.8292 42.1672 31.527 41.9979V47.4019C29.3002 47.7617 27.5924 49.7088 27.5924 52.051C27.5924 52.3897 27.4556 52.6965 27.2346 52.9187C27.0137 53.141 26.7086 53.2786 26.372 53.2786C25.9581 53.2786 25.625 53.6136 25.625 54.0298C25.625 54.4425 25.9581 54.7812 26.372 54.7812C27.8694 54.7812 29.0863 53.5536 29.0863 52.0474C29.0863 51.2926 29.3458 50.5977 29.7806 50.051C30.2155 49.5042 30.8257 49.1021 31.5235 48.9328C31.5972 53.0246 34.9287 56.3298 39.0142 56.3298H41.3252C45.4107 56.3298 48.7422 53.0246 48.8159 48.9328C50.2151 49.2714 51.2566 50.5377 51.2566 52.0474C51.2566 52.8023 51.5617 53.4866 52.0527 53.9805C52.5437 54.4743 53.224 54.7812 53.971 54.7812C54.3848 54.7812 54.7179 54.4425 54.7179 54.0298C54.7179 53.6172 54.3848 53.2786 53.971 53.2786C53.2976 53.2786 52.7506 52.7283 52.7506 52.051C52.7506 50.8835 52.3227 49.8111 51.6178 48.9857C50.913 48.1603 49.9311 47.5818 48.8159 47.4019V42.5129C50.2116 42.8515 51.2531 44.1179 51.2531 45.6276C51.2531 46.3824 51.5582 47.0668 52.0492 47.5606C52.5401 48.0545 53.2205 48.3613 53.9675 48.3613C54.3813 48.3613 54.7144 48.0262 54.7144 47.61C54.7144 47.1937 54.3813 46.8586 53.9675 46.8586C53.2941 46.8586 52.7471 46.3084 52.7471 45.6311C52.7471 44.4636 52.3192 43.3912 51.6143 42.5658C50.9095 41.7404 49.9275 41.1619 48.8124 40.982V37.7756C51.0392 37.4158 52.7471 35.4686 52.7471 33.1265C52.7471 32.4492 53.2941 31.8989 53.9675 31.8989C54.3813 31.8989 54.7144 31.5638 54.7144 31.1476ZM47.2091 48.7601V37.5603H43.0608C41.8701 37.5603 40.9038 38.5693 40.9038 39.8125V51.6429C40.9038 52.0646 40.5725 52.4105 40.1688 52.4105C39.765 52.4105 39.4337 52.0682 39.4337 51.6429V39.8125C39.4337 38.5693 38.4638 37.5603 37.2767 37.5603H33.1319V48.7601C33.1319 52.1583 35.7789 54.9222 39.0333 54.9222H41.3076C44.5621 54.9222 47.2091 52.1583 47.2091 48.7601ZM46.2707 36.1463H43.1409C41.9287 36.1463 40.8512 36.7023 40.1706 37.5598C39.49 36.7023 38.4125 36.1463 37.2002 36.1463H34.0704C34.4426 33.2447 37.0373 30.9905 40.1706 30.9905C43.3039 30.9905 45.8986 33.2447 46.2707 36.1463ZM42.9872 30.052V30.0211C42.9872 29.6545 42.8417 29.3085 42.5786 29.0447L41.1587 27.6399C40.615 27.102 39.7285 27.102 39.1848 27.6399L37.765 29.0447C37.5017 29.3051 37.3563 29.6511 37.3563 30.0211V30.052C38.2255 29.7025 39.1778 29.5072 40.1717 29.5072C41.1691 29.5072 42.1179 29.7025 42.9872 30.052Z" fill="#FCFBF7"/>
<path d="M51.253 33.1382H51.4844V33.1366L51.253 33.1382ZM47.7075 36.3446L47.4771 36.3671L47.4975 36.5761H47.7075V36.3446ZM44.5128 30.8559H44.2813V30.9757L44.3791 31.0449L44.5128 30.8559ZM43.6606 27.9317L43.8247 27.7685L43.7982 27.7418L43.7646 27.7249L43.6606 27.9317ZM43.6536 27.9282L43.5556 27.7185L43.1231 27.9205L43.5496 28.135L43.6536 27.9282ZM45.4596 25.8823L45.6794 25.9549L45.6797 25.9539L45.4596 25.8823ZM44.0358 25.4096L43.8159 25.3374L43.8155 25.3384L44.0358 25.4096ZM42.4613 26.7289L42.2971 26.8921L42.3783 26.9738L42.4925 26.9582L42.4613 26.7289ZM37.8673 26.7289L37.8361 26.9582L37.9502 26.9738L38.0314 26.8921L37.8673 26.7289ZM36.6749 27.9282L36.8822 28.0312L36.9875 27.8196L36.7736 27.7188L36.6749 27.9282ZM36.6714 27.9352L36.8355 28.0984L36.862 28.0719L36.8787 28.0383L36.6714 27.9352ZM35.8192 30.8595L35.953 31.0484L36.0507 30.9793V30.8595H35.8192ZM32.6245 36.3481V36.5796H32.8345L32.8549 36.3705L32.6245 36.3481ZM31.5198 37.7873H31.7513V37.5902L31.5568 37.5587L31.5198 37.7873ZM31.5198 40.4716L31.5568 40.7001L31.7513 40.6687V40.4716H31.5198ZM31.5163 41.999H31.7478V41.7047L31.4618 41.774L31.5163 41.999ZM31.5163 47.403L31.5533 47.6315L31.7478 47.6V47.403H31.5163ZM31.5128 48.9339L31.7443 48.9298L31.7391 48.6408L31.4583 48.7089L31.5128 48.9339ZM48.8052 48.9339L48.8596 48.7089L48.5789 48.641L48.5737 48.9298L48.8052 48.9339ZM48.8052 47.403H48.5737V47.6001L48.7683 47.6315L48.8052 47.403ZM48.8052 42.514L48.8597 42.289L48.5737 42.2197V42.514H48.8052ZM48.8017 40.9831H48.5702V41.1802L48.7648 41.2116L48.8017 40.9831ZM48.8017 37.7767L48.7647 37.5482L48.5702 37.5796V37.7767H48.8017ZM47.1984 37.5614H47.4299V37.3299H47.1984V37.5614ZM33.1212 37.5614V37.3299H32.8897V37.5614H33.1212ZM46.26 36.1474V36.3789H46.523L46.4896 36.118L46.26 36.1474ZM40.1599 37.561L39.9785 37.7049L40.1599 37.9334L40.3412 37.7049L40.1599 37.561ZM34.0597 36.1474L33.8302 36.118L33.7967 36.3789H34.0597V36.1474ZM42.9765 30.0531L42.8901 30.2679L43.208 30.3956V30.0531H42.9765ZM42.5679 29.0458L42.7317 28.8823L42.7306 28.8812L42.5679 29.0458ZM37.3455 30.0531H37.1141V30.3956L37.4319 30.2679L37.3455 30.0531ZM53.9567 30.6289C54.2407 30.6289 54.4722 30.8619 54.4722 31.1487H54.9352C54.9352 30.6101 54.5004 30.1659 53.9567 30.1659V30.6289ZM51.4844 33.1366C51.4748 31.7475 52.592 30.6289 53.9567 30.6289V30.1659C52.3336 30.1659 51.0101 31.4953 51.0215 33.1398L51.4844 33.1366ZM48.0652 36.5761C49.9513 36.5761 51.4844 35.032 51.4844 33.1382H51.0215C51.0215 34.7788 49.693 36.1131 48.0652 36.1131V36.5761ZM47.7075 36.5761H48.0652V36.1131H47.7075V36.5761ZM44.3791 31.0449C46.0867 32.2527 47.263 34.1717 47.4771 36.3671L47.9379 36.3221C47.7102 33.9882 46.4598 31.9496 44.6465 30.6669L44.3791 31.0449ZM44.2813 30.0023V30.8559H44.7442V30.0023H44.2813ZM43.4965 28.0949C44.0037 28.6051 44.2813 29.2801 44.2813 30.0023H44.7442C44.7442 29.1584 44.4187 28.3659 43.8247 27.7685L43.4965 28.0949ZM43.5496 28.135L43.5566 28.1385L43.7646 27.7249L43.7576 27.7214L43.5496 28.135ZM45.2398 25.8097C44.9547 26.6732 44.3362 27.3538 43.5556 27.7185L43.7516 28.1379C44.6473 27.7195 45.3542 26.9398 45.6794 25.9549L45.2398 25.8097ZM44.9097 25.1496C45.1807 25.2396 45.3302 25.5322 45.2395 25.8106L45.6797 25.9539C45.8486 25.4352 45.5702 24.8812 45.0556 24.7102L44.9097 25.1496ZM44.2557 25.4819C44.3459 25.2074 44.6397 25.0598 44.9097 25.1496L45.0556 24.7102C44.5402 24.5389 43.9853 24.8217 43.8159 25.3374L44.2557 25.4819ZM42.4925 26.9582C43.3055 26.8476 43.9969 26.2825 44.2561 25.4808L43.8155 25.3384C43.6117 25.9689 43.0688 26.4126 42.4301 26.4995L42.4925 26.9582ZM42.0586 26.6522L42.2971 26.8921L42.6255 26.5657L42.3869 26.3258L42.0586 26.6522ZM38.2699 26.6522C39.3156 25.6004 41.013 25.6004 42.0586 26.6522L42.3869 26.3258C41.1602 25.0919 39.1683 25.0919 37.9416 26.3258L38.2699 26.6522ZM38.0314 26.8921L38.2699 26.6522L37.9416 26.3258L37.7031 26.5657L38.0314 26.8921ZM36.0728 25.4818C36.3353 26.282 37.0222 26.8475 37.8361 26.9582L37.8985 26.4995C37.2605 26.4127 36.72 25.9694 36.5126 25.3375L36.0728 25.4818ZM35.4188 25.1496C35.6889 25.0598 35.9826 25.2073 36.0728 25.4818L36.5126 25.3375C36.3432 24.8218 35.7883 24.5389 35.2729 24.7102L35.4188 25.1496ZM35.0888 25.8101C34.9986 25.5353 35.1479 25.2396 35.4188 25.1496L35.2729 24.7102C34.7582 24.8812 34.4797 25.4391 34.649 25.9545L35.0888 25.8101ZM36.7736 27.7188C35.992 27.3504 35.3737 26.673 35.0888 25.8101L34.649 25.9545C34.9743 26.9399 35.6816 27.7159 36.5762 28.1376L36.7736 27.7188ZM36.8787 28.0383L36.8822 28.0312L36.4677 27.8251L36.4642 27.8322L36.8787 28.0383ZM36.0507 30.0058C36.0507 29.2836 36.3283 28.6087 36.8355 28.0984L36.5073 27.772C35.9133 28.3694 35.5878 29.1619 35.5878 30.0058H36.0507ZM36.0507 30.8595V30.0058H35.5878V30.8595H36.0507ZM32.8549 36.3705C33.0691 34.1718 34.2454 32.2562 35.953 31.0484L35.6855 30.6705C33.8723 31.953 32.6218 33.9882 32.3941 36.3257L32.8549 36.3705ZM32.2668 36.5796H32.6245V36.1166H32.2668V36.5796ZM28.8476 33.1417C28.8476 35.0355 30.3808 36.5796 32.2668 36.5796V36.1166C30.639 36.1166 29.3106 34.7824 29.3106 33.1417H28.8476ZM26.3648 30.6394C27.7327 30.6394 28.8476 31.7617 28.8476 33.1417H29.3106C29.3106 31.5093 27.9917 30.1765 26.3648 30.1765V30.6394ZM25.8493 31.1593C25.8493 30.8696 26.0801 30.6394 26.3648 30.6394V30.1765C25.8218 30.1765 25.3863 30.6165 25.3863 31.1593H25.8493ZM26.3648 31.6791C26.0801 31.6791 25.8493 31.449 25.8493 31.1593H25.3863C25.3863 31.7021 25.8218 32.1421 26.3648 32.1421V31.6791ZM27.8166 33.1382C27.8166 32.3343 27.1672 31.6791 26.3648 31.6791V32.1421C26.909 32.1421 27.3537 32.5875 27.3537 33.1382H27.8166ZM31.5568 37.5587C29.4411 37.217 27.8166 35.3659 27.8166 33.1382H27.3537C27.3537 35.5949 29.1449 37.638 31.4829 38.0158L31.5568 37.5587ZM31.7513 40.4716V37.7873H31.2884V40.4716H31.7513ZM27.8166 45.1208C27.8166 42.8931 29.4411 41.042 31.5568 40.7001L31.4829 40.2431C29.1449 40.6209 27.3537 42.664 27.3537 45.1208H27.8166ZM27.3916 46.1517C27.654 45.8878 27.8166 45.5229 27.8166 45.1208H27.3537C27.3537 45.3959 27.2428 45.6448 27.0633 45.8253L27.3916 46.1517ZM26.3648 46.5798C26.7658 46.5798 27.1292 46.4156 27.3916 46.1517L27.0633 45.8253C26.8838 46.0059 26.637 46.1168 26.3648 46.1168V46.5798ZM25.8493 47.0997C25.8493 46.8099 26.0801 46.5798 26.3648 46.5798V46.1168C25.8218 46.1168 25.3863 46.5568 25.3863 47.0997H25.8493ZM26.3648 47.6195C26.0808 47.6195 25.8493 47.3865 25.8493 47.0997H25.3863C25.3863 47.6382 25.8211 48.0824 26.3648 48.0824V47.6195ZM28.8476 45.1173C28.8476 46.4973 27.7327 47.6195 26.3648 47.6195V48.0824C27.9917 48.0824 29.3106 46.7496 29.3106 45.1173H28.8476ZM29.5918 42.9772C29.126 43.5666 28.8476 44.3081 28.8476 45.1173H29.3106C29.3106 44.4166 29.5511 43.7754 29.955 43.2642L29.5918 42.9772ZM31.4618 41.774C30.7122 41.9559 30.0578 42.3875 29.5918 42.9772L29.955 43.2642C30.3588 42.7534 30.9248 42.3807 31.5709 42.2239L31.4618 41.774ZM31.7478 47.403V41.999H31.2849V47.403H31.7478ZM27.8131 52.0521C27.8131 49.8245 29.4376 47.9734 31.5533 47.6315L31.4794 47.1745C29.1414 47.5523 27.3502 49.5954 27.3502 52.0521H27.8131ZM27.3881 53.0831C27.6504 52.8192 27.8131 52.4543 27.8131 52.0521H27.3502C27.3502 52.3272 27.2393 52.5761 27.0598 52.7566L27.3881 53.0831ZM26.3613 53.5111C26.7623 53.5111 27.1257 53.347 27.3881 53.0831L27.0598 52.7566C26.8803 52.9372 26.6335 53.0482 26.3613 53.0482V53.5111ZM25.8458 54.031C25.8458 53.7413 26.0766 53.5111 26.3613 53.5111V53.0482C25.8183 53.0482 25.3828 53.4882 25.3828 54.031H25.8458ZM26.3613 54.5509C26.0773 54.5509 25.8458 54.3178 25.8458 54.031H25.3828C25.3828 54.5696 25.8176 55.0138 26.3613 55.0138V54.5509ZM28.8441 52.0486C28.8441 53.4286 27.7292 54.5509 26.3613 54.5509V55.0138C27.9882 55.0138 29.307 53.681 29.307 52.0486H28.8441ZM29.5888 49.908C29.1223 50.4945 28.8441 51.2399 28.8441 52.0486H29.307C29.307 51.3475 29.5479 50.7032 29.9511 50.1961L29.5888 49.908ZM31.4583 48.7089C30.7088 48.8908 30.0546 49.3223 29.5888 49.908L29.9511 50.1961C30.355 49.6884 30.9212 49.3156 31.5674 49.1588L31.4583 48.7089ZM39.0035 56.0994C35.0457 56.0994 31.8157 52.8968 31.7443 48.9298L31.2814 48.9381C31.3573 53.1546 34.7903 56.5624 39.0035 56.5624V56.0994ZM41.3145 56.0994H39.0035V56.5624H41.3145V56.0994ZM48.5737 48.9298C48.5023 52.8968 45.2723 56.0994 41.3145 56.0994V56.5624C45.5277 56.5624 48.9607 53.1546 49.0366 48.9381L48.5737 48.9298ZM51.4774 52.0486C51.4774 50.43 50.3608 49.0722 48.8596 48.7089L48.7507 49.1588C50.048 49.4728 51.0144 50.6476 51.0144 52.0486H51.4774ZM52.2062 53.8184C51.7567 53.3662 51.4774 52.7399 51.4774 52.0486H51.0144C51.0144 52.8669 51.3455 53.6093 51.8779 54.1448L52.2062 53.8184ZM53.9603 54.5509C53.2778 54.5509 52.6557 54.2706 52.2062 53.8184L51.8779 54.1448C52.4102 54.6802 53.1488 55.0138 53.9603 55.0138V54.5509ZM54.4757 54.031C54.4757 54.3178 54.2442 54.5509 53.9603 54.5509V55.0138C54.5039 55.0138 54.9387 54.5696 54.9387 54.031H54.4757ZM53.9603 53.5111C54.2442 53.5111 54.4757 53.7441 54.4757 54.031H54.9387C54.9387 53.4924 54.5039 53.0482 53.9603 53.0482V53.5111ZM52.5084 52.0521C52.5084 52.856 53.1578 53.5111 53.9603 53.5111V53.0482C53.416 53.0482 52.9714 52.6028 52.9714 52.0521H52.5084ZM51.4311 49.1372C52.1017 49.9224 52.5084 50.942 52.5084 52.0521H52.9714C52.9714 50.8271 52.5223 49.702 51.7831 48.8365L51.4311 49.1372ZM48.7683 47.6315C49.8269 47.8023 50.7604 48.3516 51.4311 49.1372L51.7831 48.8365C51.0442 47.9711 50.0137 47.3635 48.842 47.1745L48.7683 47.6315ZM48.5737 42.514V47.403H49.0367V42.514H48.5737ZM51.4739 45.6287C51.4739 44.0103 50.3575 42.6524 48.8597 42.289L48.7505 42.7389C50.0443 43.0528 51.0109 44.2276 51.0109 45.6287H51.4739ZM52.2027 47.3986C51.7531 46.9464 51.4739 46.3201 51.4739 45.6287H51.0109C51.0109 46.4471 51.3419 47.1894 51.8743 47.7249L52.2027 47.3986ZM53.9567 48.131C53.2743 48.131 52.6522 47.8508 52.2027 47.3986L51.8743 47.7249C52.4067 48.2604 53.1453 48.5939 53.9567 48.5939V48.131ZM54.4722 47.6111C54.4722 47.9008 54.2415 48.131 53.9567 48.131V48.5939C54.4996 48.5939 54.9352 48.1539 54.9352 47.6111H54.4722ZM53.9567 47.0912C54.2415 47.0912 54.4722 47.3214 54.4722 47.6111H54.9352C54.9352 47.0683 54.4997 46.6283 53.9567 46.6283V47.0912ZM52.5049 45.6323C52.5049 46.4361 53.1543 47.0912 53.9567 47.0912V46.6283C53.4126 46.6283 52.9679 46.1829 52.9679 45.6323H52.5049ZM51.4276 42.7173C52.0982 43.5025 52.5049 44.5222 52.5049 45.6323H52.9679C52.9679 44.4072 52.5188 43.2821 51.7796 42.4166L51.4276 42.7173ZM48.7648 41.2116C49.8235 41.3824 50.7568 41.9318 51.4276 42.7173L51.7796 42.4166C51.0407 41.5512 50.0102 40.9436 48.8385 40.7546L48.7648 41.2116ZM48.5702 37.7767V40.9831H49.0331V37.7767H48.5702ZM52.5049 33.1276C52.5049 35.3552 50.8804 37.2063 48.7647 37.5482L48.8386 38.0052C51.1767 37.6274 52.9679 35.5843 52.9679 33.1276H52.5049ZM53.9567 31.6686C53.1543 31.6686 52.5049 32.3237 52.5049 33.1276H52.9679C52.9679 32.5769 53.4126 32.1315 53.9567 32.1315V31.6686ZM54.4722 31.1487C54.4722 31.4384 54.2415 31.6686 53.9567 31.6686V32.1315C54.4996 32.1315 54.9352 31.6915 54.9352 31.1487H54.4722ZM46.9669 37.5614V48.7612H47.4299V37.5614H46.9669ZM43.0501 37.7929H47.1984V37.3299H43.0501V37.7929ZM41.1246 39.8136C41.1246 38.6886 41.9967 37.7929 43.0501 37.7929V37.3299C41.7223 37.3299 40.6617 38.4521 40.6617 39.8136H41.1246ZM41.1246 51.644V39.8136H40.6617V51.644H41.1246ZM40.158 52.6431C40.699 52.6431 41.1246 52.184 41.1246 51.644H40.6617C40.6617 51.9474 40.4246 52.1801 40.158 52.1801V52.6431ZM39.1915 51.644C39.1915 52.1883 39.6178 52.6431 40.158 52.6431V52.1801C39.8907 52.1801 39.6544 51.9502 39.6544 51.644H39.1915ZM39.1915 39.8136V51.644H39.6544V39.8136H39.1915ZM37.266 37.7929C38.3163 37.7929 39.1915 38.6889 39.1915 39.8136H39.6544C39.6544 38.4518 38.5901 37.3299 37.266 37.3299V37.7929ZM33.1212 37.7929H37.266V37.3299H33.1212V37.7929ZM33.3526 48.7612V37.5614H32.8897V48.7612H33.3526ZM39.0226 54.6918C35.9054 54.6918 33.3526 52.0411 33.3526 48.7612H32.8897C32.8897 52.2777 35.631 55.1548 39.0226 55.1548V54.6918ZM41.2969 54.6918H39.0226V55.1548H41.2969V54.6918ZM46.9669 48.7612C46.9669 52.0411 44.4142 54.6918 41.2969 54.6918V55.1548C44.6885 55.1548 47.4299 52.2777 47.4299 48.7612H46.9669ZM43.1302 36.3789H46.26V35.916H43.1302V36.3789ZM40.3412 37.7049C40.9784 36.9019 41.9895 36.3789 43.1302 36.3789V35.916C41.8464 35.916 40.7024 36.5049 39.9785 37.4171L40.3412 37.7049ZM37.1895 36.3789C38.3302 36.3789 39.3413 36.9019 39.9785 37.7049L40.3412 37.4171C39.6173 36.5049 38.4734 35.916 37.1895 35.916V36.3789ZM34.0597 36.3789H37.1895V35.916H34.0597V36.3789ZM40.1599 30.7602C36.9167 30.7602 34.218 33.0945 33.8302 36.118L34.2893 36.1769C34.6459 33.3972 37.1364 31.2231 40.1599 31.2231V30.7602ZM46.4896 36.118C46.1017 33.0945 43.4031 30.7602 40.1599 30.7602V31.2231C43.1833 31.2231 45.6739 33.3972 46.0304 36.1769L46.4896 36.118ZM42.745 30.0222V30.0531H43.208V30.0222H42.745ZM42.404 29.2093C42.625 29.4308 42.745 29.7185 42.745 30.0222H43.208C43.208 29.5928 43.0371 29.1884 42.7317 28.8823L42.404 29.2093ZM40.9852 27.8056L42.405 29.2103L42.7306 28.8812L41.3108 27.4765L40.9852 27.8056ZM39.3368 27.8056C39.7904 27.3569 40.5317 27.3569 40.9852 27.8056L41.3108 27.4765C40.6769 26.8494 39.6452 26.8494 39.0113 27.4765L39.3368 27.8056ZM37.917 29.2103L39.3368 27.8056L39.0113 27.4765L37.5914 28.8812L37.917 29.2103ZM37.577 30.0222C37.577 29.7145 37.6975 29.4276 37.917 29.2103L37.5914 28.8812C37.2846 29.1848 37.1141 29.5899 37.1141 30.0222H37.577ZM37.577 30.0531V30.0222H37.1141V30.0531H37.577ZM40.161 29.2768C39.1367 29.2768 38.1551 29.4781 37.2592 29.8383L37.4319 30.2679C38.2745 29.9291 39.1976 29.7398 40.161 29.7398V29.2768ZM43.0629 29.8383C42.167 29.4781 41.1889 29.2768 40.161 29.2768V29.7398C41.1279 29.7398 42.0475 29.9291 42.8901 30.2679L43.0629 29.8383Z" fill="#FCFBF7"/>
</svg>
