<svg width="81" height="88" viewBox="0 0 81 88" fill="none" xmlns="http://www.w3.org/2000/svg">
<path d="M39.2348 81.7684L41.0026 83.5362L42.7704 81.7684L61.7704 62.7684C73.9765 50.5623 73.9765 30.7723 61.7704 18.5662L61.1037 17.8996C49.2658 6.06164 30.0727 6.06164 18.2348 17.8996C6.39693 29.7375 6.39693 48.9305 18.2348 60.7684L39.2348 81.7684Z" fill="#61A5FF" stroke="#F78712" stroke-width="5"/>
<g clip-path="url(#clip0_3125_856)">
<path d="M28.3952 37.7733C30.3638 39.299 33.027 39.626 35.2272 39.626C36.5009 39.626 37.7747 39.5171 38.5853 39.299V46.056C34.3008 46.6008 30.9427 49.7613 30.9427 53.4667V54.5566H49.1227V53.4667C49.1227 49.5434 45.4172 46.3829 40.7853 46.056V38.2093C42.4065 38.8631 44.954 39.626 47.5015 39.626C48.6594 39.626 49.8174 39.5171 50.8596 39.0811C55.723 37.2284 57.3441 30.7985 57.46 30.4716C57.5758 30.0356 57.3441 29.5997 56.9968 29.2727C56.7652 29.1638 50.7438 25.6763 45.8804 27.529C43.3329 28.5099 41.3643 30.7985 40.2064 32.7602C39.7432 31.0165 38.7011 29.0548 36.8483 27.747C32.5639 24.4775 25.5003 26.3302 25.153 26.4392C24.6898 26.5482 24.3424 26.9841 24.3424 27.4201C24.3424 27.747 23.995 34.6129 28.3952 37.7733ZM46.691 52.4859H33.3745C34.0692 50.0883 36.7325 48.2356 39.9748 48.2356C43.3329 48.2356 46.112 50.0883 46.691 52.4859ZM46.8067 29.7087C49.7017 28.6189 53.5229 30.1446 55.0282 30.9075C54.4493 32.5422 52.9439 36.0296 50.049 37.2284C47.7331 38.1002 44.8382 37.4464 42.7539 36.6835C41.3294 36.2475 41.6376 34.9507 41.8276 34.6129C42.8697 32.7602 44.4908 30.5805 46.8067 29.7087ZM35.4588 29.3817C37.5431 30.9075 38.2379 33.741 38.4694 35.7027C38.4694 35.7027 38.4113 37.0485 37.0859 37.4464C37.0859 37.4464 37.0859 37.4464 37.08 37.4464C34.9956 37.6643 31.9849 37.6643 29.9006 36.1386C27.2373 34.1769 26.8899 30.1446 26.7741 28.4009C28.511 27.965 32.7955 27.4201 35.4588 29.3817Z" fill="#FCFBF7"/>
<mask id="mask0_3125_856" style="mask-type:luminance" maskUnits="userSpaceOnUse" x="24" y="25" width="34" height="30">
<path d="M28.3874 37.7772C30.356 39.3029 33.0192 39.63 35.2194 39.63C36.4931 39.63 37.7668 39.521 38.5774 39.3029V46.0599C34.293 46.6047 30.9349 49.7653 30.9349 53.4706V54.5605H49.1149V53.4706C49.1149 49.5473 45.4094 46.3868 40.7775 46.0599V38.2132C42.3987 38.867 44.9462 39.63 47.4937 39.63C48.6516 39.63 49.8096 39.521 50.8518 39.085C55.7152 37.2323 57.3363 30.8024 57.4521 30.4755C57.568 30.0395 57.3363 29.6036 56.989 29.2767C56.7574 29.1677 50.736 25.6803 45.8726 27.5329C43.325 28.5138 41.3565 30.8024 40.1986 32.7641C39.7354 31.0204 38.6933 29.0587 36.8405 27.7509C32.5561 24.4815 25.4925 26.3341 25.1452 26.4431C24.682 26.5521 24.3346 26.988 24.3346 27.424C24.3346 27.7509 23.9872 34.6168 28.3874 37.7772ZM46.6832 52.4898H33.3667C34.0614 50.0922 36.7247 48.2395 39.967 48.2395C43.325 48.2395 46.1042 50.0922 46.6832 52.4898ZM46.7989 29.7126C49.6939 28.6228 53.515 30.1485 55.0204 30.9114C54.4415 32.5461 52.9361 36.0335 50.0412 37.2323C47.7253 38.1041 44.8304 37.4503 42.7461 36.6874C41.3215 36.2514 41.6297 34.9546 41.8197 34.6168C42.8619 32.7641 44.483 30.5844 46.7989 29.7126ZM35.4509 29.3856C37.5353 30.9114 38.2301 33.7449 38.4616 35.7066C38.4616 35.7066 38.4035 37.0524 37.0781 37.4503C37.0781 37.4503 37.0781 37.4503 37.0721 37.4503C34.9878 37.6682 31.9771 37.6682 29.8928 36.1425C27.2295 34.1808 26.8821 30.1485 26.7663 28.4048C28.5032 27.9689 32.7877 27.424 35.4509 29.3856Z" fill="white"/>
</mask>
<g mask="url(#mask0_3125_856)">
<path d="M28.3973 37.7764L35.8773 28.1258L35.7012 27.9893L35.5203 27.8594L28.3973 37.7764ZM38.5873 39.3021H50.7973V23.3751L35.4167 27.511L38.5873 39.3021ZM38.5873 46.0591L40.1279 58.1714L50.7973 56.8145V46.0591H38.5873ZM30.9448 54.5597H18.7348V66.7697H30.9448V54.5597ZM49.1248 54.5597V66.7697H61.3348V54.5597H49.1248ZM40.7874 46.0591H28.5775V57.4376L39.9278 58.2387L40.7874 46.0591ZM40.7874 38.2124L45.3549 26.8888L28.5775 20.1216V38.2124H40.7874ZM50.8617 39.0842L46.515 27.6741L46.3313 27.7441L46.1499 27.8199L50.8617 39.0842ZM57.462 30.4746L68.9715 34.551L69.1361 34.0861L69.2628 33.6093L57.462 30.4746ZM56.9989 29.2758L65.3671 20.3844L63.9538 19.0543L62.1978 18.228L56.9989 29.2758ZM45.8825 27.5321L41.5358 16.122L41.5156 16.1297L41.4953 16.1375L45.8825 27.5321ZM40.2085 32.7633L28.4077 35.8979L35.896 64.0886L50.7232 38.97L40.2085 32.7633ZM36.8504 27.7501L29.4433 37.4567L29.6237 37.5944L29.8092 37.7254L36.8504 27.7501ZM25.1551 26.4423L27.9516 38.3278L28.385 38.2258L28.8099 38.0925L25.1551 26.4423ZM46.6931 52.489V64.699H62.2025L58.5619 49.6228L46.6931 52.489ZM33.3766 52.489L21.649 49.0906L17.126 64.699H33.3766V52.489ZM55.0303 30.9106L66.5398 34.9869L70.1227 24.8706L60.5497 20.0193L55.0303 30.9106ZM50.0511 37.2315L54.353 48.6586L54.5391 48.5885L54.7226 48.5125L50.0511 37.2315ZM42.756 36.6866L46.9526 25.2205L46.6438 25.1075L46.3295 25.0112L42.756 36.6866ZM35.4608 29.3848L28.2197 39.2159L28.2342 39.2266L28.2488 39.2373L35.4608 29.3848ZM38.4715 35.7058L50.6702 36.2326L50.7126 35.2504L50.5973 34.2742L38.4715 35.7058ZM37.088 37.4495V49.6595H38.8811L40.5985 49.144L37.088 37.4495ZM37.082 37.4495V25.2395H36.4453L35.8121 25.3057L37.082 37.4495ZM29.9027 36.1417L22.6615 45.9728L22.676 45.9835L22.6906 45.9941L29.9027 36.1417ZM26.7762 28.404L23.804 16.5613L13.9176 19.0425L14.593 29.213L26.7762 28.404ZM20.9174 47.4271C26.2238 51.5399 32.3798 51.8391 35.2293 51.8391V27.4191C34.9758 27.4191 34.7794 27.4094 34.6337 27.396C34.486 27.3823 34.4329 27.3686 34.4582 27.3744C34.4714 27.3775 35.0885 27.5144 35.8773 28.1258L20.9174 47.4271ZM35.2293 51.8391C36.8706 51.8391 39.4033 51.7265 41.758 51.0933L35.4167 27.511C35.5754 27.4683 35.6997 27.4405 35.7819 27.4234C35.8654 27.4061 35.9243 27.396 35.955 27.3911C35.9865 27.386 36 27.3844 35.9941 27.3852C35.9886 27.3859 35.97 27.3881 35.9379 27.3911C35.8714 27.3973 35.772 27.4047 35.6433 27.4104C35.516 27.4159 35.3756 27.4191 35.2293 27.4191V51.8391ZM26.3773 39.3021V46.0591H50.7973V39.3021H26.3773ZM37.0468 33.9466C28.5357 35.0291 18.7348 41.8997 18.7348 53.4698H43.1549C43.1549 55.4574 42.2394 56.7876 41.6197 57.3832C41.0187 57.9607 40.4686 58.1281 40.1279 58.1714L37.0468 33.9466ZM18.7348 53.4698V54.5597H43.1549V53.4698H18.7348ZM30.9448 66.7697H49.1248V42.3497H30.9448V66.7697ZM61.3348 54.5597V53.4698H36.9147V54.5597H61.3348ZM61.3348 53.4698C61.3348 41.0302 50.3326 34.4924 41.6472 33.8793L39.9278 58.2387C39.7805 58.2284 39.2834 58.1585 38.6381 57.592C37.9482 56.9864 36.9147 55.5749 36.9147 53.4698H61.3348ZM52.9975 46.0591V38.2124H28.5775V46.0591H52.9975ZM36.2201 49.5359C38.6256 50.5062 42.8041 51.8391 47.5036 51.8391V27.4191C47.4019 27.4191 47.0914 27.3974 46.5947 27.2805C46.1157 27.1678 45.6667 27.0146 45.3549 26.8888L36.2201 49.5359ZM47.5036 51.8391C49.2563 51.8391 52.32 51.7094 55.5734 50.3485L46.1499 27.8199C46.7773 27.5575 47.262 27.4672 47.4764 27.4361C47.6794 27.4067 47.7241 27.4191 47.5036 27.4191V51.8391ZM55.2083 50.4944C61.5879 48.0641 65.0344 43.0303 66.6559 40.064C68.3077 37.0424 69.29 33.6517 68.9715 34.551L45.9526 26.3983C45.8849 26.5895 45.8358 26.7432 45.8162 26.805C45.792 26.8814 45.7726 26.9449 45.7618 26.9807C45.7419 27.0465 45.7214 27.1157 45.7159 27.1341C45.6978 27.1953 45.6877 27.2291 45.6756 27.2681C45.6532 27.3409 45.6219 27.4386 45.5791 27.5574C45.4855 27.8168 45.3639 28.1029 45.2285 28.3505C45.0832 28.6163 45.0283 28.6429 45.1405 28.5265C45.2725 28.3897 45.7161 27.9785 46.515 27.6741L55.2083 50.4944ZM69.2628 33.6093C71.0686 26.8109 67.0984 22.0138 65.3671 20.3844L48.6306 38.1673C47.887 37.4673 46.8911 36.3142 46.1669 34.6103C45.3997 32.8051 44.8959 30.2212 45.6613 27.34L69.2628 33.6093ZM62.1978 18.228C63.0208 18.6152 60.0023 16.9854 56.7422 15.9903C53.643 15.0443 47.7359 13.7601 41.5358 16.122L50.2291 38.9423C49.8468 39.0879 49.5293 39.1518 49.3166 39.1794C49.1085 39.2063 48.9884 39.2003 48.9753 39.1997C48.9621 39.1989 49.0161 39.2013 49.1411 39.2256C49.2644 39.2497 49.4232 39.2885 49.613 39.3465C50.0062 39.4665 50.3908 39.6245 50.6951 39.7662C50.8377 39.8326 50.947 39.888 51.0172 39.9245C51.0526 39.943 51.0829 39.9591 51.1235 39.9809C51.1303 39.9845 51.189 40.016 51.2326 40.0392C51.2575 40.0524 51.3108 40.0806 51.3756 40.1142C51.4132 40.1336 51.5827 40.2215 51.8 40.3238L62.1978 18.228ZM41.4953 16.1375C35.3063 18.5204 31.5261 23.4522 29.6937 26.5565L50.7232 38.97C50.775 38.8823 50.8433 38.7792 50.9203 38.6786C50.9978 38.5775 51.0581 38.5127 51.088 38.4832C51.1191 38.4526 51.0851 38.4918 50.9712 38.5697C50.856 38.6484 50.6239 38.7903 50.2697 38.9267L41.4953 16.1375ZM52.0092 29.6286C51.0237 25.9182 48.682 21.1562 43.8916 17.7748L29.8092 37.7254C29.2535 37.3332 28.9123 36.9067 28.7238 36.608C28.5459 36.3261 28.4589 36.0906 28.4077 35.8979L52.0092 29.6286ZM44.2575 18.0435C38.8021 13.8804 32.5403 13.5266 29.1718 13.6244C25.5644 13.7292 22.5985 14.4476 21.5002 14.7921L28.8099 38.0925C28.7109 38.1235 28.6337 38.1463 28.5938 38.1579C28.5481 38.1713 28.5112 38.1817 28.4856 38.1888C28.4347 38.203 28.3988 38.2125 28.3803 38.2173C28.3424 38.2272 28.3337 38.229 28.3526 38.2245C28.3901 38.2158 28.4976 38.1919 28.658 38.1634C28.9976 38.1032 29.4384 38.047 29.8809 38.0342C30.0941 38.0279 30.2708 38.033 30.4074 38.0437C30.5457 38.0545 30.6057 38.0682 30.5967 38.0662C30.5876 38.0641 30.469 38.0373 30.2717 37.9517C30.0695 37.864 29.7754 37.7102 29.4433 37.4567L44.2575 18.0435ZM22.3585 14.5568C16.6934 15.8898 12.1344 21.0053 12.1344 27.4232H36.5545C36.5545 30.4117 35.4041 32.856 34.0301 34.5371C32.6341 36.245 30.5726 37.711 27.9516 38.3278L22.3585 14.5568ZM12.1344 27.4232C12.1344 27.2661 11.9955 30.4415 12.7841 34.106C13.5263 37.5553 15.5132 43.5555 21.2744 47.6935L35.5203 27.8594C36.2205 28.3623 36.5582 28.8959 36.6683 29.1013C36.7218 29.201 36.7329 29.2425 36.7206 29.2069C36.7085 29.172 36.6844 29.0934 36.6576 28.9685C36.6001 28.7015 36.5673 28.3997 36.5544 28.1372C36.5485 28.0181 36.5479 27.9294 36.548 27.8813C36.5482 27.858 36.5485 27.8392 36.5489 27.8186C36.5493 27.7979 36.5493 27.7992 36.5504 27.7542C36.5508 27.7394 36.5515 27.7048 36.5522 27.6651C36.5527 27.6367 36.5545 27.5414 36.5545 27.4232H12.1344ZM46.6931 40.279H33.3766V64.699H46.6931V40.279ZM45.1041 55.8873C44.5185 57.908 43.3044 59.0906 42.4387 59.6609C41.5367 60.2551 40.6635 60.4487 39.9769 60.4487V36.0286C32.6101 36.0286 24.1921 40.3144 21.649 49.0906L45.1041 55.8873ZM39.9769 60.4487C39.4581 60.4487 38.6747 60.3142 37.7753 59.7361C36.9265 59.1905 35.4259 57.8467 34.8242 55.3551L58.5619 49.6228C56.2228 39.9365 46.8748 36.0286 39.9769 36.0286V60.4487ZM51.1107 41.1389C50.1392 41.5046 49.3917 41.5427 49.0767 41.542C48.7586 41.5414 48.6384 41.501 48.7464 41.5255C48.8391 41.5464 48.9961 41.592 49.1882 41.6648C49.277 41.6985 49.3558 41.7314 49.4186 41.7591C49.4827 41.7876 49.5154 41.8042 49.5108 41.8019L60.5497 20.0193C59.1617 19.3158 56.8695 18.326 54.135 17.7074C51.6146 17.1372 47.1832 16.5243 42.507 18.2847L51.1107 41.1389ZM43.5208 26.8342C43.4737 26.9674 43.4135 27.1207 43.3446 27.2688C43.3114 27.3403 43.2817 27.3984 43.2574 27.4426C43.233 27.4873 43.2207 27.5056 43.2238 27.5007C43.2267 27.4964 43.255 27.4537 43.3142 27.3818C43.3731 27.3102 43.4759 27.1933 43.6297 27.0494C43.9333 26.7655 44.5065 26.3121 45.3796 25.9505L54.7226 48.5125C59.2991 46.6173 62.0838 43.2532 63.5945 40.9683C65.1689 38.5869 66.0815 36.2808 66.5398 34.9869L43.5208 26.8342ZM45.7492 25.8044C46.4225 25.551 46.9625 25.4732 47.2726 25.4488C47.432 25.4363 47.5511 25.4363 47.6245 25.4384C47.6982 25.4405 47.7385 25.4451 47.7433 25.4457C47.7449 25.4459 47.6633 25.4355 47.4994 25.3932C47.3395 25.352 47.1526 25.2936 46.9526 25.2205L38.5593 48.1527C41.085 49.0772 47.6511 51.1816 54.353 48.6586L45.7492 25.8044ZM46.3295 25.0112C47.7538 25.4472 49.5388 26.3603 51.0806 28.0824C52.6212 29.8032 53.3905 31.7421 53.6967 33.4097C53.9865 34.9884 53.8724 36.334 53.6902 37.2951C53.5273 38.154 53.1954 39.3153 52.4715 40.6021L31.1877 28.6298C29.8859 30.9441 29.0191 34.2296 29.6781 37.8191C30.0615 39.9077 31.009 42.2738 32.8866 44.3708C34.7652 46.4694 37.0458 47.708 39.1826 48.362L46.3295 25.0112ZM52.4715 40.6021C52.5735 40.4208 52.6602 40.2844 52.7267 40.1895C52.7947 40.0923 52.8146 40.0769 52.7748 40.1196C52.7314 40.1662 52.2084 40.7256 51.1107 41.1389L42.507 18.2847C35.9761 20.7433 32.5478 26.2119 31.1877 28.6298L52.4715 40.6021ZM28.2488 39.2373C26.8878 38.241 26.4201 37.1535 26.343 36.963C26.26 36.758 26.3059 36.7999 26.3457 37.1373L50.5973 34.2742C50.3153 31.8854 49.2052 24.3141 42.673 19.5324L28.2488 39.2373ZM38.4715 35.7058C26.2729 35.1791 26.2732 35.1732 26.2734 35.1674C26.2735 35.1656 26.2738 35.1597 26.2739 35.1559C26.2743 35.1482 26.2746 35.1404 26.275 35.1327C26.2757 35.1173 26.2765 35.1018 26.2773 35.0863C26.2788 35.0554 26.2805 35.0243 26.2824 34.9932C26.286 34.9308 26.2902 34.8679 26.295 34.8046C26.3045 34.678 26.3164 34.5482 26.3312 34.4152C26.3605 34.1515 26.4025 33.8635 26.4633 33.5556C26.5799 32.9656 26.7929 32.1639 27.2121 31.2655C28.1348 29.288 30.1529 26.783 33.5777 25.755L40.5985 49.144C45.3485 47.7181 48.0585 44.3412 49.3415 41.5914C49.9409 40.3067 50.2514 39.1438 50.4202 38.289C50.5072 37.8486 50.564 37.4523 50.6017 37.1135C50.6207 36.943 50.6351 36.7838 50.6461 36.6373C50.6517 36.5641 50.6563 36.4936 50.6603 36.4262C50.6623 36.3925 50.6641 36.3594 50.6657 36.3272C50.6666 36.311 50.6673 36.295 50.6681 36.2793C50.6685 36.2714 50.6688 36.2636 50.6691 36.2558C50.6693 36.2519 50.6696 36.2461 50.6697 36.2441C50.6699 36.2383 50.6702 36.2326 38.4715 35.7058ZM37.088 37.4495C37.088 25.2395 37.088 25.2395 37.088 25.2395C37.0879 25.2395 37.0871 25.2395 37.0871 25.2395H37.0862H37.0853C37.0852 25.2395 37.0844 25.2395 37.0844 25.2395C37.0844 25.2395 37.0835 25.2395 37.0835 25.2395C37.0835 25.2395 37.0821 25.2395 37.082 25.2395V49.6595H37.0829C37.0829 49.6595 37.0838 49.6595 37.0838 49.6595C37.0838 49.6595 37.0846 49.6595 37.0847 49.6595C37.0848 49.6595 37.0856 49.6595 37.0856 49.6595C37.0856 49.6595 37.0864 49.6595 37.0865 49.6595H37.088C37.088 49.6595 37.088 49.6595 37.088 37.4495ZM35.8121 25.3057C35.5863 25.3293 35.393 25.3407 35.2373 25.3424C35.0767 25.3442 35.0169 25.335 35.0467 25.3388C35.0718 25.342 35.2802 25.3693 35.6168 25.4863C35.9605 25.6057 36.5032 25.8416 37.1148 26.2893L22.6906 45.9941C28.7936 50.4615 36.0271 49.8364 38.3519 49.5932L35.8121 25.3057ZM37.1438 26.3106C38.0052 26.9451 38.5126 27.628 38.7754 28.0658C38.9059 28.2832 38.9856 28.4551 39.0299 28.5604C39.0743 28.666 39.0926 28.7277 39.0947 28.7348C39.097 28.7426 39.0892 28.717 39.0762 28.6535C39.0634 28.5908 39.0487 28.5067 39.0338 28.3995C39.0029 28.1757 38.982 27.9353 38.9594 27.5949L14.593 29.213C14.6604 30.2287 14.8353 32.8073 15.6735 35.6474C16.4818 38.386 18.3089 42.7667 22.6615 45.9728L37.1438 26.3106ZM29.7484 40.2467C29.6602 40.2689 29.7416 40.2449 29.9328 40.2221C30.1167 40.2003 30.2709 40.1954 30.361 40.1985C30.4651 40.202 30.3361 40.2104 30.0273 40.1267C29.7159 40.0421 29.0258 39.8096 28.2197 39.2159L42.702 19.5537C38.5414 16.4891 33.9558 15.8855 31.1813 15.7922C28.23 15.693 25.575 16.1167 23.804 16.5613L29.7484 40.2467Z" fill="#FCFBF7"/>
</g>
</g>
<defs>
<clipPath id="clip0_3125_856">
<rect width="33.3333" height="29.9145" fill="white" transform="translate(24.3359 25.334)"/>
</clipPath>
</defs>
</svg>
