<svg width="80" height="88" viewBox="0 0 80 88" fill="none" xmlns="http://www.w3.org/2000/svg">
<path d="M38.8989 81.7684L40.6667 83.5362L42.4344 81.7684L61.4344 62.7684C73.6405 50.5623 73.6405 30.7723 61.4344 18.5662L60.7678 17.8996C48.9299 6.06164 29.7368 6.06164 17.8989 17.8996C6.06099 29.7375 6.06099 48.9305 17.8989 60.7684L38.8989 81.7684Z" fill="#AC02CA" stroke="#F78712" stroke-width="5"/>
<path d="M51.6433 23.4262C51.7032 23.4758 51.7631 23.5254 51.8247 23.5765C53.4841 25.0086 54.432 27.1146 54.6338 29.2732C54.6418 29.3986 54.6489 29.5241 54.6547 29.6496C54.6588 29.7268 54.6588 29.7268 54.663 29.8054C54.7219 31.9693 53.9272 34.0516 52.5133 35.6723C52.475 35.7195 52.4367 35.7667 52.3972 35.8153C52.0784 36.2017 51.7037 36.5042 51.3087 36.81C51.2515 36.8556 51.1944 36.9012 51.1354 36.9483C49.2739 38.3787 47.149 38.6029 44.8845 38.5499C45.3182 39.3428 45.7685 40.1245 46.2307 40.9012C46.3872 41.1642 46.5405 41.4287 46.6913 41.695C46.7355 41.695 46.7797 41.695 46.8252 41.695C46.9123 41.586 46.9123 41.586 47.0008 41.4483C47.3005 41.0353 47.6752 40.8257 48.1636 40.6913C48.34 40.6754 48.506 40.6657 48.6822 40.6662C48.7292 40.6663 48.7762 40.6664 48.8246 40.6665C49.291 40.6774 49.708 40.7733 50.0543 41.1022C50.3006 41.269 50.5056 41.2455 50.7901 41.2266C51.2969 41.2091 51.703 41.2501 52.0974 41.6004C52.3031 41.7318 52.4803 41.7308 52.7224 41.7494C53.3115 41.8114 53.7386 42.019 54.1444 42.4521C54.564 42.9964 54.6943 43.5836 54.6424 44.2657C54.5471 44.8215 54.2298 45.351 53.7813 45.6935C53.161 46.0912 52.4417 46.1554 51.7241 46.0058C51.5655 45.9634 51.5655 45.9634 51.3757 46.0448C51.2005 46.053 51.028 46.0572 50.8529 46.0573C50.8061 46.0581 50.7593 46.059 50.711 46.0598C50.4124 46.0606 50.1835 46.0066 49.9034 45.9109C49.7192 45.9086 49.7192 45.9086 49.5438 45.936C49.4853 45.9435 49.4268 45.9509 49.3665 45.9585C49.301 45.9681 49.301 45.9681 49.2343 45.9779C49.5948 46.6318 49.9694 47.2766 50.351 47.9185C50.3969 47.9958 50.4428 48.0731 50.4887 48.1504C50.5116 48.189 50.5345 48.2276 50.5581 48.2673C50.5811 48.306 50.6041 48.3447 50.6278 48.3846C50.6508 48.4234 50.6739 48.4622 50.6976 48.5021C50.9468 48.9219 51.1953 49.342 51.4426 49.763C51.5034 49.8656 51.5034 49.8656 51.5654 49.9704C51.6021 50.0331 51.6389 50.0959 51.6768 50.1606C51.7092 50.2156 51.7417 50.2707 51.7751 50.3275C51.8441 50.4614 51.8441 50.4614 51.8441 50.5953C51.88 50.6003 51.9159 50.6053 51.9528 50.6104C52.8166 50.7553 53.7615 51.049 54.3117 51.7663C54.6542 52.2549 54.6123 52.8102 54.6129 53.3808C54.6145 53.4702 54.6161 53.5596 54.6178 53.649C54.6181 53.7338 54.6183 53.8187 54.6186 53.9062C54.6192 53.9835 54.6197 54.0609 54.6203 54.1406C54.5793 54.3954 54.5261 54.4571 54.3201 54.6104C54.1306 54.6366 53.9673 54.6464 53.7779 54.6441C53.7225 54.6445 53.6672 54.6449 53.6101 54.6453C53.4234 54.6462 53.2367 54.6453 53.0499 54.6444C52.9152 54.6447 52.7805 54.6451 52.6457 54.6457C52.2745 54.6468 51.9033 54.6462 51.5321 54.6454C51.1321 54.6448 50.7321 54.6457 50.3322 54.6465C49.5936 54.6476 48.855 54.6475 48.1165 54.6467C47.4342 54.6461 46.752 54.6459 46.0698 54.6462C46.0245 54.6462 45.9793 54.6463 45.9327 54.6463C45.7492 54.6464 45.5657 54.6464 45.3821 54.6465C43.6596 54.6474 41.9372 54.6466 40.2147 54.6452C38.6836 54.6439 37.1525 54.644 35.6215 54.6453C33.9022 54.6467 32.1829 54.6473 30.4636 54.6465C30.2804 54.6464 30.0972 54.6463 29.914 54.6462C29.8689 54.6462 29.8238 54.6462 29.7773 54.6462C29.0954 54.6458 28.4135 54.6462 27.7316 54.6469C26.9564 54.6476 26.1813 54.6474 25.4061 54.646C25.0103 54.6453 24.6146 54.645 24.2188 54.6459C23.8569 54.6467 23.495 54.6463 23.133 54.6448C23.0017 54.6445 22.8704 54.6447 22.7391 54.6453C22.5613 54.6462 22.3836 54.6453 22.2059 54.6441C22.1284 54.645 22.1284 54.645 22.0495 54.646C21.8166 54.6427 21.6871 54.6279 21.4982 54.4867C21.2813 54.1811 21.3553 53.7663 21.3583 53.4059C21.3568 53.3212 21.3552 53.2366 21.3535 53.1494C21.3547 52.3965 21.5326 51.7345 22.0647 51.1805C22.5202 50.7844 23.0852 50.4992 23.693 50.4484C23.947 50.419 24.1386 50.3958 24.3237 50.2101C24.4319 50.0461 24.5229 49.8793 24.6123 49.7044C24.6865 49.5695 24.7608 49.4346 24.8353 49.2998C24.8936 49.1915 24.8936 49.1915 24.953 49.0811C25.1462 48.728 25.3517 48.3824 25.5567 48.0361C25.6785 47.8299 25.7994 47.6231 25.9203 47.4164C25.9694 47.3325 26.0185 47.2487 26.0676 47.1649C26.0919 47.1234 26.1161 47.082 26.1411 47.0394C26.3314 46.7146 26.5218 46.3899 26.7121 46.0652C26.8305 45.8632 26.949 45.6612 27.0674 45.4592C27.1148 45.3784 27.1622 45.2975 27.2096 45.2167C27.233 45.1766 27.2565 45.1366 27.2807 45.0954C27.9561 43.9431 27.9561 43.9431 28.6316 42.7908C28.6668 42.7308 28.6668 42.7308 28.7027 42.6696C28.7501 42.5887 28.7975 42.5078 28.8449 42.4269C28.9633 42.2251 29.0816 42.0232 29.1998 41.8213C29.4393 41.4123 29.6795 41.0037 29.9208 40.5959C30.2046 40.116 30.4858 39.6348 30.7646 39.1521C30.8047 39.0829 30.8447 39.0137 30.886 38.9424C32.18 36.6863 33.0846 34.1875 33.4641 31.6107C33.4714 31.5611 33.4788 31.5115 33.4863 31.4603C33.5218 31.2165 33.5556 30.9725 33.587 30.7281C33.7379 29.5977 33.7379 29.5977 34.2068 29.223C34.244 29.1922 34.2811 29.1613 34.3194 29.1295C34.6777 28.8956 34.9978 28.8956 35.4126 28.9005C35.473 28.9007 35.5335 28.9008 35.5957 28.901C35.788 28.9018 35.9803 28.9035 36.1725 28.9052C36.3032 28.9058 36.4338 28.9065 36.5645 28.907C36.8841 28.9085 37.2038 28.9108 37.5234 28.9135C37.5268 28.8669 37.5301 28.8203 37.5335 28.7722C37.681 26.9213 38.5984 25.2851 39.8656 23.9615C39.9113 23.9116 39.957 23.8616 40.0041 23.8102C41.0361 22.7192 42.4466 22.0127 43.8807 21.6194C43.9593 21.5967 44.0379 21.574 44.1189 21.5506C46.7655 20.9216 49.5853 21.713 51.6433 23.4262ZM40.5703 24.8581C39.5959 25.8909 38.6611 27.4531 38.6611 28.9135C38.7724 28.9145 38.7724 28.9145 38.886 28.9154C39.1634 28.9181 39.4407 28.9225 39.7181 28.9274C39.8378 28.9293 39.9575 28.9307 40.0771 28.9317C40.25 28.9331 40.4227 28.9362 40.5954 28.9397C40.6483 28.9398 40.7012 28.9398 40.7556 28.9399C41.1918 28.9512 41.545 29.0763 41.8747 29.3679C41.9046 29.4084 41.9344 29.4489 41.9652 29.4907C41.9961 29.5302 42.027 29.5697 42.0588 29.6104C42.2661 30.0476 42.2939 30.5669 42.3611 31.0415C42.6017 32.72 43.0284 34.3083 43.5961 35.9023C43.6837 36.1514 43.765 36.4019 43.8422 36.6544C43.926 36.8618 44.0152 37.0308 44.1484 37.2115C44.7237 37.4545 45.41 37.449 46.0263 37.4457C46.1104 37.4453 46.1945 37.4449 46.2811 37.4445C48.317 37.406 50.1482 36.4949 51.5597 35.0405C52.8563 33.5661 53.6229 31.6254 53.5171 29.6496C53.3424 27.58 52.4854 25.6839 50.9072 24.2961C47.7218 21.7158 43.4674 22.0436 40.5703 24.8581ZM34.9136 30.185C34.7913 30.3686 34.7588 30.5322 34.7369 30.7496C34.7304 30.8085 34.7238 30.8675 34.7171 30.9281C34.7067 31.024 34.7067 31.024 34.6961 31.1219C34.3914 33.6486 33.6442 36.1915 32.4494 38.4456C32.4234 38.5021 32.3974 38.5586 32.3707 38.6168C32.3928 38.6609 32.4149 38.7051 32.4376 38.7506C33.3683 38.1662 33.7616 37.2696 34.2135 36.3107C34.2855 36.1586 34.3588 36.0072 34.4324 35.8559C34.4642 35.7868 34.4642 35.7868 34.4966 35.7164C34.6795 35.343 34.9392 35.0573 35.3151 34.8693C35.8273 34.8256 36.2439 34.8058 36.6535 35.137C36.9006 35.4509 36.983 35.7199 37.05 36.1031C37.0607 36.1603 37.0715 36.2174 37.0825 36.2762C37.1193 36.4762 37.1543 36.6765 37.1888 36.8769C37.2088 36.9927 37.2088 36.9927 37.2292 37.1108C37.3264 37.6783 37.4204 38.2463 37.5135 38.8144C37.5661 39.1348 37.6188 39.4551 37.6717 39.7753C37.6997 39.9448 37.7276 40.1143 37.7553 40.2839C37.7678 40.3599 37.7804 40.4359 37.7933 40.5143C37.8042 40.581 37.8151 40.6477 37.8264 40.7164C37.8534 40.8665 37.8857 41.0125 37.925 41.1597C37.9691 41.1597 38.0133 41.1597 38.0588 41.1597C38.2015 40.6101 38.3239 40.0591 38.4331 39.5019C38.4651 39.3416 38.4971 39.1814 38.5291 39.0212C38.5786 38.7719 38.628 38.5225 38.677 38.2731C38.7249 38.0302 38.7734 37.7873 38.8221 37.5445C38.8437 37.4328 38.8437 37.4328 38.8658 37.3189C38.9829 36.7388 39.1132 36.3604 39.5979 36.0069C39.9678 35.8837 40.3884 35.8717 40.7617 35.9913C41.412 36.3437 41.6078 37.2682 41.8409 37.9195C41.9087 38.0954 41.9736 38.2564 42.0739 38.416C42.2771 38.514 42.2771 38.514 42.4754 38.4829C42.7337 38.3029 42.9585 37.9722 43.0777 37.6799C43.0569 37.3602 42.8994 37.0644 42.7766 36.7723C42 34.8694 41.5021 32.8929 41.2364 30.8576C41.2204 30.74 41.2204 30.74 41.204 30.62C41.1957 30.553 41.1874 30.4861 41.1789 30.4171C41.1321 30.2322 41.0875 30.1646 40.9363 30.0512C40.6925 29.9699 40.4682 29.9738 40.2143 29.9735C40.1613 29.9731 40.1083 29.9728 40.0537 29.9725C39.8783 29.9715 39.7028 29.971 39.5274 29.9706C39.4054 29.9703 39.2835 29.9699 39.1615 29.9695C38.9058 29.9688 38.6501 29.9684 38.3943 29.9682C38.0668 29.9678 37.7392 29.9662 37.4117 29.9643C37.1598 29.963 36.9079 29.9627 36.6559 29.9626C36.5352 29.9624 36.4144 29.9618 36.2937 29.961C36.1247 29.9598 35.9557 29.96 35.7867 29.9604C35.7369 29.9598 35.6871 29.9592 35.6358 29.9585C35.3386 29.9609 35.1505 30.0028 34.9136 30.185ZM35.6497 35.94C35.5829 36.0669 35.516 36.1938 35.4492 36.3208C35.3897 36.4337 35.3301 36.5466 35.2703 36.6594C35.108 36.9664 34.9483 37.2744 34.7934 37.5853C34.2135 38.7407 33.6179 39.5335 32.3464 39.9724C32.1793 40.0194 32.0195 40.0445 31.8479 40.0681C31.6737 40.105 31.5883 40.1325 31.4691 40.2676C31.4245 40.3388 31.4245 40.3388 31.3789 40.4116C31.3275 40.4933 31.3275 40.4933 31.275 40.5766C31.0771 40.9067 30.884 41.2393 30.6935 41.5738C30.6041 41.7298 30.5146 41.8857 30.4251 42.0417C30.4027 42.0806 30.3804 42.1195 30.3574 42.1596C30.153 42.5153 29.945 42.8688 29.7358 43.2216C29.4024 43.784 29.0708 44.3473 28.7403 44.9113C28.7044 44.9726 28.7044 44.9726 28.6678 45.0351C28.5456 45.2437 28.4235 45.4522 28.3013 45.6608C28.1101 45.9873 27.9187 46.3137 27.7274 46.6401C27.6336 46.8001 27.5398 46.9601 27.4461 47.1201C27.2236 47.4996 27.0011 47.8791 26.7781 48.2584C26.6726 48.4378 26.5672 48.6173 26.4618 48.7968C26.4115 48.8825 26.3611 48.9681 26.3107 49.0538C26.2409 49.1724 26.1712 49.2911 26.1015 49.4098C26.0618 49.4774 26.022 49.5449 25.9811 49.6145C25.8974 49.7611 25.8191 49.9079 25.7457 50.0599C26.5525 49.9343 27.1056 49.6538 27.6027 48.9976C28.1365 48.313 28.9259 47.9125 29.7609 47.7178C30 47.6885 30.2352 47.6826 30.476 47.6843C30.5401 47.6847 30.6041 47.6851 30.6701 47.6855C31.5395 47.7071 32.2248 47.971 32.906 48.5208C32.9654 48.5636 33.0247 48.6064 33.0859 48.6504C33.2742 48.8184 33.4314 49.0056 33.5956 49.1968C33.9369 49.579 34.2796 49.7282 34.7798 49.7922C35.0477 49.8028 35.3155 49.8032 35.5836 49.8035C35.6615 49.8037 35.7394 49.8039 35.8196 49.8042C35.9843 49.8045 36.1489 49.8046 36.3135 49.8046C36.5636 49.8048 36.8137 49.806 37.0638 49.8073C37.2242 49.8075 37.3847 49.8076 37.5451 49.8077C37.6191 49.8081 37.6931 49.8086 37.7693 49.8091C38.6809 49.8065 39.4451 49.6741 40.1207 49.0269C40.8489 48.3356 41.6547 48.2209 42.6085 48.2343C43.0042 48.249 43.3298 48.3347 43.68 48.5208C43.7252 48.5442 43.7704 48.5677 43.817 48.5919C44.0956 48.7524 44.331 48.9522 44.575 49.1607C45.2339 49.7084 45.8856 49.7893 46.7164 49.8117C47.6321 49.8364 48.5289 49.9283 49.435 50.0599C49.4859 50.0673 49.5367 50.0747 49.5891 50.0823C49.8281 50.1174 50.0667 50.1542 50.305 50.1938C49.7417 49.1388 49.1357 48.1072 48.5274 47.0778C48.4924 47.0184 48.4924 47.0184 48.4566 46.9577C48.3897 46.8442 48.3225 46.7309 48.2553 46.6175C48.2166 46.5522 48.1779 46.4868 48.138 46.4195C47.9975 46.188 47.9975 46.188 47.829 45.9779C47.6982 45.9455 47.6982 45.9455 47.5547 45.9611C47.5014 45.9634 47.4481 45.9657 47.3931 45.968C47.3368 45.9713 47.2805 45.9745 47.2225 45.9779C46.6018 45.9958 46.1949 45.9106 45.6708 45.568C45.2055 45.0815 44.957 44.5449 44.9496 43.8699C44.9891 43.2214 45.2296 42.6884 45.6876 42.2304C45.6422 42.1533 45.6422 42.1533 45.5959 42.0746C44.9728 41.015 44.353 39.9538 43.7469 38.8845C43.5181 38.9607 43.4543 39.056 43.3169 39.2478C43.0394 39.5247 42.7297 39.5837 42.35 39.5871C41.9312 39.5778 41.643 39.5119 41.3378 39.2191C41.1265 38.9788 41.0051 38.7577 40.8924 38.4589C40.8613 38.3788 40.8301 38.2986 40.798 38.2161C40.7496 38.0896 40.7016 37.963 40.654 37.8363C40.6075 37.7131 40.5597 37.5903 40.5118 37.4677C40.4841 37.3944 40.4563 37.3212 40.4278 37.2458C40.3528 37.066 40.3528 37.066 40.1943 37.0337C40.1521 37.0261 40.1099 37.0185 40.0664 37.0107C39.9239 37.5588 39.8024 38.1081 39.6944 38.6638C39.6627 38.8235 39.6311 38.9831 39.5994 39.1427C39.5503 39.3908 39.5014 39.6389 39.4532 39.8872C39.406 40.1292 39.3579 40.371 39.3096 40.6128C39.2955 40.6866 39.2814 40.7604 39.2669 40.8364C39.1664 41.3346 39.0666 41.7921 38.6611 42.13C38.3247 42.2927 37.9534 42.2804 37.5904 42.2304C37.2889 42.0851 37.1042 41.9061 36.9212 41.6281C36.8498 41.3993 36.8136 41.1659 36.7748 40.9297C36.7617 40.8554 36.7487 40.7812 36.7352 40.7047C36.6841 40.4105 36.6352 40.116 36.5866 39.8213C36.5695 39.718 36.5695 39.718 36.5522 39.6127C36.5268 39.4587 36.5014 39.3047 36.4761 39.1508C36.4493 38.988 36.4224 38.8253 36.3956 38.6627C36.3274 38.2501 36.2598 37.8376 36.1933 37.4248C36.168 37.2701 36.1427 37.1155 36.1174 36.9608C36.1002 36.8529 36.1002 36.8529 36.0828 36.7428C36.0718 36.6763 36.0608 36.6097 36.0495 36.5411C36.0401 36.483 36.0307 36.4248 36.021 36.3649C35.9841 36.2066 35.9292 36.0816 35.8505 35.94C35.7842 35.94 35.718 35.94 35.6497 35.94ZM47.9628 42.0966C47.8939 42.2091 47.8256 42.3221 47.7579 42.4353C47.613 42.6563 47.5389 42.7498 47.2876 42.8397C47.1361 42.8684 46.9843 42.8952 46.8322 42.9202C46.5287 42.9878 46.3448 43.1244 46.156 43.368C46.0169 43.6347 45.9963 43.8705 46.0438 44.1692C46.1417 44.4628 46.3574 44.69 46.6168 44.8523C46.7837 44.917 46.9141 44.925 47.0928 44.9239C47.1777 44.9244 47.1777 44.9244 47.2643 44.9249C47.438 44.906 47.5425 44.8547 47.6951 44.7733C48.0413 44.7445 48.0413 44.7445 48.2234 44.8395C48.4834 44.9644 48.7526 44.9501 49.0335 44.9072C49.1956 44.8293 49.3429 44.7383 49.4957 44.6437C49.7203 44.5297 49.87 44.5643 50.1042 44.6395C50.1663 44.685 50.2284 44.7306 50.2924 44.7775C50.5831 44.9542 50.8417 44.9544 51.1749 44.9072C51.265 44.8643 51.3543 44.8198 51.4426 44.7733C51.7893 44.7444 51.7893 44.7444 51.9701 44.8397C52.229 44.9629 52.5011 44.9426 52.781 44.9072C53.1047 44.7513 53.2942 44.5618 53.4501 44.238C53.5035 43.9037 53.4889 43.6493 53.3414 43.3429C53.1003 43.0765 52.9386 42.912 52.5656 42.8826C52.4848 42.8799 52.4041 42.8773 52.3209 42.8745C51.8605 42.856 51.6369 42.7417 51.3087 42.4312C51.0639 42.3087 50.7742 42.3455 50.5057 42.3642C50.3937 42.4075 50.282 42.4519 50.1711 42.4981C49.9036 42.4925 49.8004 42.4596 49.6023 42.2764C49.5471 42.2171 49.4919 42.1577 49.435 42.0966C49.1362 41.8394 48.908 41.7848 48.524 41.8043C48.2707 41.8433 48.1507 41.9212 47.9628 42.0966ZM28.113 50.0766C27.537 50.7553 26.7076 50.9997 25.8618 51.1599C25.7194 51.1883 25.577 51.2167 25.4346 51.2451C25.213 51.2885 24.9912 51.3317 24.7694 51.3746C24.5534 51.4166 24.3377 51.4597 24.1219 51.5029C24.0558 51.5153 23.9897 51.5277 23.9216 51.5405C23.3851 51.6486 23.0348 51.8403 22.6847 52.2693C22.436 52.6617 22.4667 53.0872 22.4667 53.5397C32.7133 53.5397 42.9599 53.5397 53.5171 53.5397C53.538 52.871 53.538 52.871 53.2551 52.3046C52.9718 52.071 52.6807 51.9804 52.3334 51.8709C52.2626 51.8481 52.1917 51.8253 52.1187 51.8018C50.5079 51.2967 48.8387 50.9772 47.1514 50.8956C47.0736 50.8918 47.0736 50.8918 46.9943 50.8879C46.7417 50.8758 46.4892 50.8659 46.2364 50.8593C45.4344 50.8324 44.6804 50.6767 44.0439 50.1561C43.9817 50.1063 43.9195 50.0566 43.8554 50.0053C43.7398 49.909 43.6244 49.8127 43.509 49.7162C43.0186 49.3425 42.4774 49.2489 41.8732 49.3238C41.3647 49.4298 41.0062 49.7341 40.6143 50.0545C40.0224 50.5346 39.4064 50.8108 38.6334 50.8155C38.5626 50.8161 38.5626 50.8161 38.4904 50.8168C38.3357 50.8181 38.1811 50.8184 38.0264 50.8185C37.9178 50.8189 37.8092 50.8194 37.7006 50.8199C37.4734 50.8207 37.2461 50.8209 37.0189 50.8208C36.7295 50.8208 36.4401 50.8226 36.1507 50.8249C35.9264 50.8264 35.7022 50.8267 35.4779 50.8266C35.3713 50.8268 35.2647 50.8274 35.1581 50.8284C34.2463 50.8365 33.5226 50.7077 32.8391 50.0599C32.7279 49.9368 32.6178 49.8127 32.5087 49.6877C32.0629 49.183 31.5139 48.8073 30.8248 48.7636C29.6149 48.7303 28.8923 49.1432 28.113 50.0766Z" fill="white" stroke="white" stroke-width="0.666667"/>
<path d="M25.1222 31.5664C25.1692 31.5665 25.2162 31.5666 25.2647 31.5667C25.731 31.5777 26.148 31.6735 26.4943 32.0024C26.7407 32.1692 26.9456 32.1458 27.2302 32.1269C27.7369 32.1093 28.1431 32.1503 28.5375 32.5007C28.7432 32.632 28.9204 32.631 29.1625 32.6497C29.7515 32.7117 30.1786 32.9193 30.5845 33.3523C31.0041 33.8967 31.1343 34.4838 31.0825 35.1659C30.9872 35.7218 30.6699 36.2513 30.2214 36.5937C29.6011 36.9915 28.8818 37.0556 28.1642 36.9061C28.0056 36.8636 28.0056 36.8636 27.8157 36.945C27.6406 36.9532 27.468 36.9574 27.2929 36.9576C27.2461 36.9584 27.1993 36.9592 27.1511 36.9601C26.8534 36.9609 26.6221 36.9104 26.3435 36.8112C26.1041 36.8315 25.902 36.8691 25.6743 36.945C25.4979 36.9515 25.3237 36.9543 25.1473 36.9534C25.1 36.9536 25.0526 36.9539 25.0038 36.9542C24.802 36.9538 24.613 36.9469 24.4149 36.9069C24.2579 36.8634 24.2579 36.8634 24.0683 36.945C23.3236 36.9966 22.6933 36.9719 22.0774 36.5017C21.6054 36.0531 21.3963 35.549 21.3285 34.9058C21.3181 34.2793 21.5151 33.7363 21.9269 33.2645C22.2117 32.9797 22.4865 32.8477 22.8721 32.7375C23.2355 32.6287 23.3721 32.5065 23.5716 32.1914C23.9217 31.7077 24.5585 31.5651 25.1222 31.5664ZM24.4029 32.9968C24.334 33.1094 24.2657 33.2223 24.1979 33.3356C24.0531 33.5566 23.979 33.65 23.7277 33.74C23.5762 33.7686 23.4244 33.7955 23.2723 33.8205C22.9688 33.8881 22.7849 34.0246 22.5961 34.2683C22.4569 34.5349 22.4363 34.7707 22.4839 35.0695C22.5818 35.363 22.7974 35.5903 23.0569 35.7525C23.2238 35.8173 23.3542 35.8252 23.5329 35.8241C23.6178 35.8246 23.6178 35.8246 23.7044 35.8252C23.878 35.8063 23.9826 35.7549 24.1352 35.6736C24.4814 35.6447 24.4814 35.6447 24.6635 35.7397C24.9235 35.8646 25.1926 35.8504 25.4736 35.8074C25.6356 35.7295 25.783 35.6386 25.9357 35.5439C26.1604 35.4299 26.31 35.4646 26.5443 35.5397C26.6064 35.5853 26.6685 35.6308 26.7325 35.6777C27.0232 35.8545 27.2818 35.8547 27.615 35.8074C27.705 35.7645 27.7944 35.7201 27.8826 35.6736C28.2293 35.6447 28.2293 35.6447 28.4102 35.74C28.669 35.8632 28.9412 35.8428 29.221 35.8074C29.5448 35.6515 29.7343 35.462 29.8902 35.1382C29.9436 34.804 29.929 34.5495 29.7815 34.2432C29.5404 33.9767 29.3787 33.8123 29.0056 33.7828C28.9249 33.7802 28.8441 33.7775 28.761 33.7747C28.3006 33.7562 28.077 33.6419 27.7488 33.3314C27.504 33.209 27.2142 33.2458 26.9458 33.2645C26.8337 33.3078 26.7221 33.3521 26.6112 33.3983C26.3437 33.3927 26.2404 33.3599 26.0424 33.1767C25.9872 33.1173 25.932 33.058 25.8751 32.9968C25.5762 32.7397 25.3481 32.685 24.9641 32.7046C24.7107 32.7435 24.5908 32.8214 24.4029 32.9968Z" fill="white" stroke="white" stroke-width="0.666667"/>
</svg>
