<svg width="81" height="80" viewBox="0 0 81 80" fill="none" xmlns="http://www.w3.org/2000/svg">
<path d="M19.7682 59.0006C8.90663 48.1391 8.90663 30.5289 19.7682 19.6673V19.6673C30.6298 8.80572 48.24 8.80572 59.1016 19.6673L59.7682 20.334C70.998 31.5638 70.998 49.7709 59.7682 61.0007L40.7682 80.0007L19.7682 59.0006Z" fill="#FFBB00"/>
<path d="M33.6334 24.0697C31.6735 24.2681 29.6114 24.9953 28.0664 26.029C25.6435 27.6637 24.2608 29.9235 24.1225 32.5017C24.0925 33.0547 24.1105 33.241 24.2127 33.6617C24.5073 34.8216 25.361 35.7231 26.5093 36.0837C26.8038 36.1739 27.1345 36.2159 27.8439 36.2399L28.7818 36.2761L28.7517 36.7027C28.6736 37.7064 29.2146 38.6559 30.1284 39.1127C30.3629 39.227 30.6034 39.3231 30.6695 39.3231C30.7296 39.3231 30.7958 39.3591 30.8138 39.4072C30.8318 39.4493 30.5553 41.9975 30.2006 45.0686C29.5934 50.3394 29.5633 50.6819 29.6234 51.1687C29.8158 52.7434 30.898 54.0536 32.431 54.5764L32.912 54.7387H35.0161H37.1203L37.6073 54.5704C38.6113 54.2339 39.525 53.4405 39.9759 52.5211C40.2946 51.878 40.4149 51.3731 40.4149 50.7119C40.4149 50.4116 40.1382 47.7972 39.8016 44.8884C39.4649 41.9855 39.1944 39.5514 39.2064 39.4854C39.2185 39.4012 39.3026 39.3411 39.4649 39.293C40.6132 38.9504 41.4008 37.7845 41.2685 36.6246L41.2264 36.2761L42.1823 36.2459C42.994 36.2159 43.2044 36.1859 43.571 36.0596C44.1723 35.8493 44.515 35.639 44.9358 35.2122C45.6151 34.5211 45.8977 33.7879 45.8917 32.7121C45.8796 30.7889 45.0981 28.9739 43.6132 27.4353C41.2264 24.9472 37.475 23.6791 33.6334 24.0697ZM36.97 25.9749C39.5672 26.4317 41.7194 27.6877 42.988 29.4907C43.6012 30.3502 43.9499 31.2697 44.0701 32.2914C44.1663 33.1148 44.0701 33.4814 43.6613 33.9201C43.1503 34.467 43.8898 34.4249 34.9861 34.4249H27.1405L26.7978 34.2567C26.0103 33.872 25.7758 33.1869 25.9982 31.9248C26.2207 30.6387 26.8038 29.5689 27.8559 28.5291C29.3168 27.0807 31.427 26.1252 33.7536 25.8607C34.5171 25.7766 36.1764 25.8367 36.97 25.9749ZM39.4289 36.5825C39.5191 36.9912 39.4709 37.1716 39.2185 37.3999C38.99 37.5982 38.6894 37.6403 38.3708 37.5141C37.8177 37.3037 37.0362 37.3398 36.459 37.6043C36.2967 37.6823 35.96 37.9108 35.7195 38.115C35.3348 38.4396 35.2506 38.4817 35.0282 38.4817C34.7516 38.4817 34.6254 38.4155 34.1865 38.0249C33.6154 37.52 32.8458 37.2857 32.1184 37.3999C31.914 37.4359 31.6735 37.49 31.5893 37.52C31.2106 37.6644 30.7897 37.5321 30.6274 37.2196C30.5192 37.0093 30.5132 36.8771 30.6034 36.5225L30.6695 36.258H35.0161H39.3567L39.4289 36.5825ZM33.1885 39.5394C33.3989 39.7258 33.7476 39.9662 33.964 40.0684C34.3308 40.2426 34.3969 40.2546 35.0161 40.2546C35.6414 40.2546 35.7014 40.2426 36.0682 40.0623C36.2846 39.9541 36.6334 39.7198 36.8498 39.5335C37.1864 39.2449 37.3307 39.1487 37.3307 39.2209C37.3307 39.2449 38.5691 50.0509 38.6173 50.4655C38.7075 51.2469 38.2686 52.1604 37.5892 52.5931C37.0362 52.9417 36.8077 52.9718 34.8839 52.9537C33.2366 52.9357 33.1344 52.9296 32.8097 52.7975C32.3649 52.6172 31.8719 52.1664 31.6555 51.7457C31.3068 51.0545 31.3008 51.2349 32.0042 45.1227C32.6895 39.1487 32.6835 39.2028 32.7556 39.2028C32.7797 39.2028 32.9721 39.3531 33.1885 39.5394Z" fill="#FCFBF7" stroke="#FCFBF7" stroke-width="0.666667"/>
<path d="M46.9723 37.1603C44.339 37.4608 42.1387 38.9273 41.2549 40.9587C40.9664 41.6257 40.8701 42.1787 40.8942 42.9299C40.9123 43.4769 40.9423 43.609 41.0925 43.9216C41.321 44.3964 41.7479 44.8171 42.2529 45.0515C42.6557 45.2438 42.6557 45.2438 43.786 45.2619L44.9101 45.2798V45.4421C44.9101 45.5262 44.7478 47.0348 44.5434 48.7897C44.2067 51.7346 44.1826 52.0051 44.2488 52.3837C44.4473 53.5135 45.367 54.469 46.4612 54.7035C46.858 54.7876 48.8058 54.7937 49.2447 54.7096C49.6596 54.6314 50.2187 54.361 50.5553 54.0665C51.1205 53.5856 51.5233 52.7082 51.5233 51.9749C51.5233 51.7706 51.361 50.196 51.1625 48.4711C50.9642 46.7523 50.8019 45.3339 50.8019 45.3158C50.8019 45.2979 51.3248 45.2738 51.9621 45.2619C53.0683 45.2438 53.1284 45.2378 53.459 45.0815C53.8619 44.8952 54.3429 44.4625 54.5593 44.1019C54.9621 43.4047 54.9921 42.4671 54.6374 41.3674C53.9821 39.3239 51.896 37.6892 49.389 37.2505C48.7397 37.1364 47.5434 37.0942 46.9723 37.1603ZM49.2147 39.0596C49.852 39.1857 50.5614 39.4561 51.0664 39.7566C51.6675 40.1052 52.4731 40.9287 52.7137 41.4274C53.1646 42.3649 53.1946 43.1884 52.7917 43.4107C52.7137 43.4528 51.0483 43.4708 47.862 43.4708H43.0584L42.8721 43.3146C42.6978 43.1703 42.6857 43.1343 42.6857 42.7556C42.6857 40.9287 44.5975 39.2758 47.0624 38.9633C47.6035 38.8912 48.6435 38.9393 49.2147 39.0596ZM48.9681 45.346C49.0162 45.4721 49.7197 51.6925 49.7197 51.9629C49.7197 52.3115 49.4852 52.6842 49.1606 52.8405C48.9261 52.9546 48.7938 52.9666 47.8801 52.9666C46.7619 52.9666 46.5033 52.9005 46.2448 52.582C45.9623 52.2153 45.9623 52.2394 46.347 48.8378C46.5514 47.0948 46.7257 45.5743 46.7438 45.4661L46.7798 45.2738H47.862C48.6737 45.2738 48.9502 45.2919 48.9681 45.346Z" fill="#FCFBF7" stroke="#FCFBF7" stroke-width="0.666667"/>
</svg>
