<svg width="81" height="80" viewBox="0 0 81 80" fill="none" xmlns="http://www.w3.org/2000/svg">
<path d="M20.1042 59.0006C9.24257 48.1391 9.24257 30.5289 20.1042 19.6673V19.6673C30.9658 8.80572 48.5759 8.80572 59.4375 19.6673L60.1042 20.334C71.334 31.5638 71.334 49.7709 60.1042 61.0007L41.1042 80.0007L20.1042 59.0006Z" fill="#61A5FF"/>
<g clip-path="url(#clip0_2863_1043)">
<path d="M28.4968 37.7733C30.4653 39.299 33.1286 39.626 35.3288 39.626C36.6025 39.626 37.8762 39.5171 38.6868 39.299V46.056C34.4024 46.6008 31.0443 49.7613 31.0443 53.4667V54.5566H49.2243V53.4667C49.2243 49.5434 45.5188 46.3829 40.8869 46.056V38.2093C42.5081 38.8631 45.0555 39.626 47.6031 39.626C48.761 39.626 49.919 39.5171 50.9612 39.0811C55.8246 37.2284 57.4457 30.7985 57.5615 30.4716C57.6773 30.0356 57.4457 29.5997 57.0984 29.2727C56.8667 29.1638 50.8454 25.6763 45.9819 27.529C43.4344 28.5099 41.4659 30.7985 40.3079 32.7602C39.8448 31.0165 38.8026 29.0548 36.9499 27.747C32.6654 24.4775 25.6019 26.3302 25.2545 26.4392C24.7913 26.5482 24.444 26.9841 24.444 27.4201C24.444 27.747 24.0966 34.6129 28.4968 37.7733ZM46.7925 52.4859H33.476C34.1707 50.0883 36.8341 48.2356 40.0764 48.2356C43.4344 48.2356 46.2136 50.0883 46.7925 52.4859ZM46.9083 29.7087C49.8032 28.6189 53.6244 30.1446 55.1298 30.9075C54.5508 32.5422 53.0454 36.0296 50.1506 37.2284C47.8347 38.1002 44.9398 37.4464 42.8554 36.6835C41.4309 36.2475 41.7391 34.9507 41.9291 34.6129C42.9713 32.7602 44.5924 30.5805 46.9083 29.7087ZM35.5603 29.3817C37.6447 30.9075 38.3395 33.741 38.571 35.7027C38.571 35.7027 38.5129 37.0485 37.1875 37.4464C37.1875 37.4464 37.1875 37.4464 37.1815 37.4464C35.0972 37.6643 32.0865 37.6643 30.0021 36.1386C27.3389 34.1769 26.9915 30.1446 26.8757 28.4009C28.6126 27.965 32.897 27.4201 35.5603 29.3817Z" fill="#FCFBF7"/>
<mask id="mask0_2863_1043" style="mask-type:luminance" maskUnits="userSpaceOnUse" x="24" y="25" width="34" height="30">
<path d="M28.489 37.7772C30.4575 39.3029 33.1208 39.63 35.321 39.63C36.5946 39.63 37.8684 39.521 38.679 39.3029V46.0599C34.3946 46.6047 31.0365 49.7653 31.0365 53.4706V54.5605H49.2164V53.4706C49.2164 49.5473 45.511 46.3868 40.8791 46.0599V38.2132C42.5003 38.867 45.0477 39.63 47.5952 39.63C48.7532 39.63 49.9111 39.521 50.9534 39.085C55.8168 37.2323 57.4379 30.8024 57.5537 30.4755C57.6695 30.0395 57.4379 29.6036 57.0905 29.2767C56.8589 29.1677 50.8376 25.6803 45.9741 27.5329C43.4266 28.5138 41.4581 30.8024 40.3001 32.7641C39.837 31.0204 38.7948 29.0587 36.9421 27.7509C32.6576 24.4815 25.5941 26.3341 25.2467 26.4431C24.7835 26.5521 24.4361 26.988 24.4361 27.424C24.4361 27.7509 24.0888 34.6168 28.489 37.7772ZM46.7847 52.4898H33.4682C34.1629 50.0922 36.8263 48.2395 40.0686 48.2395C43.4266 48.2395 46.2058 50.0922 46.7847 52.4898ZM46.9005 29.7126C49.7954 28.6228 53.6166 30.1485 55.122 30.9114C54.543 32.5461 53.0376 36.0335 50.1428 37.2323C47.8269 38.1041 44.932 37.4503 42.8476 36.6874C41.4231 36.2514 41.7313 34.9546 41.9213 34.6168C42.9634 32.7641 44.5846 30.5844 46.9005 29.7126ZM35.5525 29.3856C37.6369 30.9114 38.3317 33.7449 38.5632 35.7066C38.5632 35.7066 38.5051 37.0524 37.1797 37.4503C37.1797 37.4503 37.1797 37.4503 37.1737 37.4503C35.0893 37.6682 32.0787 37.6682 29.9943 36.1425C27.331 34.1808 26.9836 30.1485 26.8678 28.4048C28.6048 27.9689 32.8892 27.424 35.5525 29.3856Z" fill="white"/>
</mask>
<g mask="url(#mask0_2863_1043)">
<path d="M28.4989 37.7764L35.9788 28.1258L35.8028 27.9893L35.6218 27.8594L28.4989 37.7764ZM38.6889 39.3021H50.8989V23.3751L35.5182 27.511L38.6889 39.3021ZM38.6889 46.0591L40.2294 58.1714L50.8989 56.8145V46.0591H38.6889ZM31.0464 54.5597H18.8364V66.7697H31.0464V54.5597ZM49.2263 54.5597V66.7697H61.4363V54.5597H49.2263ZM40.889 46.0591H28.679V57.4376L40.0293 58.2387L40.889 46.0591ZM40.889 38.2124L45.4564 26.8888L28.679 20.1216V38.2124H40.889ZM50.9633 39.0842L46.6166 27.6741L46.4328 27.7441L46.2515 27.8199L50.9633 39.0842ZM57.5636 30.4746L69.0731 34.551L69.2377 34.0861L69.3644 33.6093L57.5636 30.4746ZM57.1004 29.2758L65.4687 20.3844L64.0553 19.0543L62.2993 18.228L57.1004 29.2758ZM45.984 27.5321L41.6374 16.122L41.6171 16.1297L41.5969 16.1375L45.984 27.5321ZM40.31 32.7633L28.5093 35.8979L35.9975 64.0886L50.8248 38.97L40.31 32.7633ZM36.952 27.7501L29.5448 37.4567L29.7253 37.5944L29.9108 37.7254L36.952 27.7501ZM25.2566 26.4423L28.0531 38.3278L28.4866 38.2258L28.9115 38.0925L25.2566 26.4423ZM46.7946 52.489V64.699H62.304L58.6634 49.6228L46.7946 52.489ZM33.4781 52.489L21.7506 49.0906L17.2276 64.699H33.4781V52.489ZM55.1319 30.9106L66.6414 34.9869L70.2243 24.8706L60.6513 20.0193L55.1319 30.9106ZM50.1527 37.2315L54.4545 48.6586L54.6406 48.5885L54.8242 48.5125L50.1527 37.2315ZM42.8575 36.6866L47.0542 25.2205L46.7454 25.1075L46.431 25.0112L42.8575 36.6866ZM35.5624 29.3848L28.3213 39.2159L28.3358 39.2266L28.3503 39.2373L35.5624 29.3848ZM38.5731 35.7058L50.7717 36.2326L50.8142 35.2504L50.6989 34.2742L38.5731 35.7058ZM37.1896 37.4495V49.6595H38.9827L40.7 49.144L37.1896 37.4495ZM37.1836 37.4495V25.2395H36.5469L35.9137 25.3057L37.1836 37.4495ZM30.0042 36.1417L22.7631 45.9728L22.7776 45.9835L22.7922 45.9941L30.0042 36.1417ZM26.8778 28.404L23.9055 16.5613L14.0192 19.0425L14.6945 29.213L26.8778 28.404ZM21.019 47.4271C26.3254 51.5399 32.4813 51.8391 35.3309 51.8391V27.4191C35.0774 27.4191 34.881 27.4094 34.7352 27.396C34.5875 27.3823 34.5345 27.3686 34.5598 27.3744C34.573 27.3775 35.19 27.5144 35.9788 28.1258L21.019 47.4271ZM35.3309 51.8391C36.9722 51.8391 39.5049 51.7265 41.8596 51.0933L35.5182 27.511C35.6769 27.4683 35.8013 27.4405 35.8834 27.4234C35.9669 27.4061 36.0258 27.396 36.0565 27.3911C36.0881 27.386 36.1016 27.3844 36.0957 27.3852C36.0902 27.3859 36.0716 27.3881 36.0395 27.3911C35.973 27.3973 35.8736 27.4047 35.7449 27.4104C35.6175 27.4159 35.4772 27.4191 35.3309 27.4191V51.8391ZM26.4789 39.3021V46.0591H50.8989V39.3021H26.4789ZM37.1484 33.9466C28.6373 35.0291 18.8364 41.8997 18.8364 53.4698H43.2564C43.2564 55.4574 42.341 56.7876 41.7212 57.3832C41.1203 57.9607 40.5702 58.1281 40.2294 58.1714L37.1484 33.9466ZM18.8364 53.4698V54.5597H43.2564V53.4698H18.8364ZM31.0464 66.7697H49.2263V42.3497H31.0464V66.7697ZM61.4363 54.5597V53.4698H37.0163V54.5597H61.4363ZM61.4363 53.4698C61.4363 41.0302 50.4341 34.4924 41.7487 33.8793L40.0293 58.2387C39.8821 58.2284 39.385 58.1585 38.7397 57.592C38.0498 56.9864 37.0163 55.5749 37.0163 53.4698H61.4363ZM53.0991 46.0591V38.2124H28.679V46.0591H53.0991ZM36.3216 49.5359C38.7272 50.5062 42.9057 51.8391 47.6051 51.8391V27.4191C47.5034 27.4191 47.193 27.3974 46.6963 27.2805C46.2173 27.1678 45.7683 27.0146 45.4564 26.8888L36.3216 49.5359ZM47.6051 51.8391C49.3579 51.8391 52.4216 51.7094 55.675 50.3485L46.2515 27.8199C46.8789 27.5575 47.3635 27.4672 47.578 27.4361C47.781 27.4067 47.8257 27.4191 47.6051 27.4191V51.8391ZM55.3098 50.4944C61.6895 48.0641 65.1359 43.0303 66.7575 40.064C68.4092 37.0424 69.3916 33.6517 69.0731 34.551L46.0541 26.3983C45.9864 26.5895 45.9374 26.7432 45.9178 26.805C45.8936 26.8814 45.8742 26.9449 45.8634 26.9807C45.8434 27.0465 45.8229 27.1157 45.8175 27.1341C45.7993 27.1953 45.7892 27.2291 45.7772 27.2681C45.7548 27.3409 45.7234 27.4386 45.6806 27.5574C45.5871 27.8168 45.4655 28.1029 45.3301 28.3505C45.1848 28.6163 45.1298 28.6429 45.2421 28.5265C45.374 28.3897 45.8176 27.9785 46.6166 27.6741L55.3098 50.4944ZM69.3644 33.6093C71.1702 26.8109 67.1999 22.0138 65.4687 20.3844L48.7322 38.1673C47.9886 37.4673 46.9927 36.3142 46.2685 34.6103C45.5013 32.8051 44.9975 30.2212 45.7628 27.34L69.3644 33.6093ZM62.2993 18.228C63.1223 18.6152 60.1039 16.9854 56.8438 15.9903C53.7445 15.0443 47.8375 13.7601 41.6374 16.122L50.3307 38.9423C49.9484 39.0879 49.6309 39.1518 49.4181 39.1794C49.21 39.2063 49.0899 39.2003 49.0769 39.1997C49.0637 39.1989 49.1177 39.2013 49.2427 39.2256C49.366 39.2497 49.5248 39.2885 49.7145 39.3465C50.1078 39.4665 50.4923 39.6245 50.7967 39.7662C50.9392 39.8326 51.0486 39.888 51.1187 39.9245C51.1542 39.943 51.1845 39.9591 51.2251 39.9809C51.2319 39.9845 51.2905 40.016 51.3342 40.0392C51.3591 40.0524 51.4123 40.0806 51.4772 40.1142C51.5148 40.1336 51.6843 40.2215 51.9016 40.3238L62.2993 18.228ZM41.5969 16.1375C35.4079 18.5204 31.6277 23.4522 29.7953 26.5565L50.8248 38.97C50.8766 38.8823 50.9449 38.7792 51.0219 38.6786C51.0993 38.5775 51.1597 38.5127 51.1896 38.4832C51.2207 38.4526 51.1867 38.4918 51.0728 38.5697C50.9575 38.6484 50.7255 38.7903 50.3712 38.9267L41.5969 16.1375ZM52.1108 29.6286C51.1252 25.9182 48.7836 21.1562 43.9932 17.7748L29.9108 37.7254C29.3551 37.3332 29.0138 36.9067 28.8254 36.608C28.6474 36.3261 28.5604 36.0906 28.5093 35.8979L52.1108 29.6286ZM44.3591 18.0435C38.9037 13.8804 32.6419 13.5266 29.2734 13.6244C25.6659 13.7292 22.7 14.4476 21.6017 14.7921L28.9115 38.0925C28.8125 38.1235 28.7352 38.1463 28.6954 38.1579C28.6496 38.1713 28.6127 38.1817 28.5871 38.1888C28.5362 38.203 28.5004 38.2125 28.4819 38.2173C28.4439 38.2272 28.4352 38.229 28.4541 38.2245C28.4916 38.2158 28.5992 38.1919 28.7595 38.1634C29.0992 38.1032 29.5399 38.047 29.9824 38.0342C30.1956 38.0279 30.3724 38.033 30.509 38.0437C30.6472 38.0545 30.7073 38.0682 30.6982 38.0662C30.6892 38.0641 30.5706 38.0373 30.3733 37.9517C30.1711 37.864 29.877 37.7102 29.5448 37.4567L44.3591 18.0435ZM22.4601 14.5568C16.7949 15.8898 12.236 21.0053 12.236 27.4232H36.6561C36.6561 30.4117 35.5057 32.856 34.1316 34.5371C32.7357 36.245 30.6742 37.711 28.0531 38.3278L22.4601 14.5568ZM12.236 27.4232C12.236 27.2661 12.097 30.4415 12.8857 34.106C13.6279 37.5553 15.6147 43.5555 21.3759 47.6935L35.6218 27.8594C36.3221 28.3623 36.6598 28.8959 36.7698 29.1013C36.8234 29.201 36.8345 29.2425 36.8222 29.2069C36.8101 29.172 36.786 29.0934 36.7592 28.9685C36.7016 28.7015 36.6688 28.3997 36.6559 28.1372C36.6501 28.0181 36.6494 27.9294 36.6496 27.8813C36.6498 27.858 36.65 27.8392 36.6504 27.8186C36.6509 27.7979 36.6509 27.7992 36.652 27.7542C36.6523 27.7394 36.6531 27.7048 36.6538 27.6651C36.6543 27.6367 36.6561 27.5414 36.6561 27.4232H12.236ZM46.7946 40.279H33.4781V64.699H46.7946V40.279ZM45.2057 55.8873C44.6201 57.908 43.4059 59.0906 42.5403 59.6609C41.6383 60.2551 40.7651 60.4487 40.0785 60.4487V36.0286C32.7116 36.0286 24.2937 40.3144 21.7506 49.0906L45.2057 55.8873ZM40.0785 60.4487C39.5597 60.4487 38.7763 60.3142 37.8769 59.7361C37.0281 59.1905 35.5275 57.8467 34.9257 55.3551L58.6634 49.6228C56.3244 39.9365 46.9763 36.0286 40.0785 36.0286V60.4487ZM51.2122 41.1389C50.2408 41.5046 49.4933 41.5427 49.1782 41.542C48.8602 41.5414 48.7399 41.501 48.848 41.5255C48.9407 41.5464 49.0976 41.592 49.2898 41.6648C49.3786 41.6985 49.4574 41.7314 49.5202 41.7591C49.5843 41.7876 49.6169 41.8042 49.6124 41.8019L60.6513 20.0193C59.2633 19.3158 56.971 18.326 54.2365 17.7074C51.7162 17.1372 47.2847 16.5243 42.6086 18.2847L51.2122 41.1389ZM43.6224 26.8342C43.5752 26.9674 43.5151 27.1207 43.4462 27.2688C43.4129 27.3403 43.3833 27.3984 43.359 27.4426C43.3345 27.4873 43.3222 27.5056 43.3254 27.5007C43.3283 27.4964 43.3566 27.4537 43.4157 27.3818C43.4746 27.3102 43.5775 27.1933 43.7313 27.0494C44.0349 26.7655 44.6081 26.3121 45.4811 25.9505L54.8242 48.5125C59.4006 46.6173 62.1854 43.2532 63.6961 40.9683C65.2704 38.5869 66.1831 36.2808 66.6414 34.9869L43.6224 26.8342ZM45.8508 25.8044C46.524 25.551 47.064 25.4732 47.3742 25.4488C47.5336 25.4363 47.6527 25.4363 47.7261 25.4384C47.7998 25.4405 47.8401 25.4451 47.8449 25.4457C47.8464 25.4459 47.7649 25.4355 47.601 25.3932C47.441 25.352 47.2542 25.2936 47.0542 25.2205L38.6609 48.1527C41.1866 49.0772 47.7527 51.1816 54.4545 48.6586L45.8508 25.8044ZM46.431 25.0112C47.8554 25.4472 49.6404 26.3603 51.1822 28.0824C52.7228 29.8032 53.4921 31.7421 53.7982 33.4097C54.0881 34.9884 53.9739 36.334 53.7917 37.2951C53.6289 38.154 53.2969 39.3153 52.5731 40.6021L31.2893 28.6298C29.9875 30.9441 29.1206 34.2296 29.7796 37.8191C30.163 39.9077 31.1106 42.2738 32.9881 44.3708C34.8668 46.4694 37.1474 47.708 39.2841 48.362L46.431 25.0112ZM52.5731 40.6021C52.6751 40.4208 52.7618 40.2844 52.8282 40.1895C52.8963 40.0923 52.9162 40.0769 52.8763 40.1196C52.833 40.1662 52.3099 40.7256 51.2122 41.1389L42.6086 18.2847C36.0777 20.7433 32.6494 26.2119 31.2893 28.6298L52.5731 40.6021ZM28.3503 39.2373C26.9894 38.241 26.5217 37.1535 26.4445 36.963C26.3616 36.758 26.4075 36.7999 26.4473 37.1373L50.6989 34.2742C50.4169 31.8854 49.3068 24.3141 42.7745 19.5324L28.3503 39.2373ZM38.5731 35.7058C26.3745 35.1791 26.3747 35.1732 26.375 35.1674C26.3751 35.1656 26.3753 35.1597 26.3755 35.1559C26.3758 35.1482 26.3762 35.1404 26.3766 35.1327C26.3773 35.1173 26.378 35.1018 26.3788 35.0863C26.3804 35.0554 26.3821 35.0243 26.3839 34.9932C26.3876 34.9308 26.3918 34.8679 26.3966 34.8046C26.4061 34.678 26.418 34.5482 26.4328 34.4152C26.4621 34.1515 26.504 33.8635 26.5649 33.5556C26.6814 32.9656 26.8944 32.1639 27.3136 31.2655C28.2364 29.288 30.2545 26.783 33.6792 25.755L40.7 49.144C45.4501 47.7181 48.16 44.3412 49.4431 41.5914C50.0425 40.3067 50.3529 39.1438 50.5217 38.289C50.6087 37.8486 50.6656 37.4523 50.7033 37.1135C50.7222 36.943 50.7367 36.7838 50.7477 36.6373C50.7533 36.5641 50.7579 36.4936 50.7619 36.4262C50.7639 36.3925 50.7657 36.3594 50.7673 36.3272C50.7681 36.311 50.7689 36.295 50.7697 36.2793C50.77 36.2714 50.7704 36.2636 50.7707 36.2558C50.7709 36.2519 50.7711 36.2461 50.7712 36.2441C50.7715 36.2383 50.7717 36.2326 38.5731 35.7058ZM37.1896 37.4495C37.1896 25.2395 37.1896 25.2395 37.1896 25.2395C37.1895 25.2395 37.1887 25.2395 37.1887 25.2395H37.1878H37.1869C37.1868 25.2395 37.186 25.2395 37.186 25.2395C37.1859 25.2395 37.1851 25.2395 37.1851 25.2395C37.1851 25.2395 37.1837 25.2395 37.1836 25.2395V49.6595H37.1845C37.1845 49.6595 37.1853 49.6595 37.1854 49.6595C37.1854 49.6595 37.1862 49.6595 37.1863 49.6595C37.1863 49.6595 37.1872 49.6595 37.1872 49.6595C37.1872 49.6595 37.188 49.6595 37.1881 49.6595H37.1896C37.1896 49.6595 37.1896 49.6595 37.1896 37.4495ZM35.9137 25.3057C35.6879 25.3293 35.4945 25.3407 35.3388 25.3424C35.1783 25.3442 35.1185 25.335 35.1482 25.3388C35.1734 25.342 35.3817 25.3693 35.7184 25.4863C36.0621 25.6057 36.6048 25.8416 37.2163 26.2893L22.7922 45.9941C28.8951 50.4615 36.1286 49.8364 38.4534 49.5932L35.9137 25.3057ZM37.2454 26.3106C38.1068 26.9451 38.6141 27.628 38.8769 28.0658C39.0075 28.2832 39.0872 28.4551 39.1315 28.5604C39.1758 28.666 39.1942 28.7277 39.1963 28.7348C39.1986 28.7426 39.1908 28.717 39.1778 28.6535C39.165 28.5908 39.1503 28.5067 39.1354 28.3995C39.1045 28.1757 39.0835 27.9353 39.061 27.5949L14.6945 29.213C14.762 30.2287 14.9369 32.8073 15.7751 35.6474C16.5834 38.386 18.4104 42.7667 22.7631 45.9728L37.2454 26.3106ZM29.85 40.2467C29.7618 40.2689 29.8431 40.2449 30.0344 40.2221C30.2183 40.2003 30.3725 40.1954 30.4625 40.1985C30.5667 40.202 30.4377 40.2104 30.1288 40.1267C29.8175 40.0421 29.1273 39.8096 28.3213 39.2159L42.8036 19.5537C38.6429 16.4891 34.0574 15.8855 31.2829 15.7922C28.3315 15.693 25.6765 16.1167 23.9055 16.5613L29.85 40.2467Z" fill="#FCFBF7"/>
</g>
</g>
<defs>
<clipPath id="clip0_2863_1043">
<rect width="33.3333" height="29.9145" fill="white" transform="translate(24.4375 25.334)"/>
</clipPath>
</defs>
</svg>
