<svg width="81" height="88" viewBox="0 0 81 88" fill="none" xmlns="http://www.w3.org/2000/svg">
<path d="M39.3676 81.7684L41.1354 83.5362L42.9032 81.7684L61.9032 62.7684C74.1093 50.5623 74.1093 30.7723 61.9032 18.5662L61.2365 17.8996C49.3986 6.06165 30.2056 6.06164 18.3676 17.8996C6.52974 29.7375 6.52974 48.9305 18.3676 60.7684L39.3676 81.7684Z" fill="#61A5FF" stroke="#F78712" stroke-width="5"/>
<g clip-path="url(#clip0_3125_902)">
<path fill-rule="evenodd" clip-rule="evenodd" d="M24.9476 26.9979C25.0555 26.9428 28.6026 25.7842 32.8287 24.4294C37.0548 23.0747 40.5893 21.9651 40.6971 21.959C40.8938 21.9529 56.0785 26.7895 56.4783 26.9857C56.6306 27.0592 56.7639 27.1941 56.8464 27.3474C56.9669 27.5742 56.9732 27.7029 56.9732 29.6155C56.9732 31.528 56.9669 31.6568 56.8464 31.8836C56.6496 32.2576 56.3514 32.3741 55.609 32.3741H55.0061V33.8453C55.0061 35.2061 54.9934 35.341 54.8793 35.5617C54.7269 35.8498 54.3653 36.0521 53.9908 36.0521H53.737V40.098V44.1438H54.3082C55.0189 44.1438 55.317 44.2665 55.5138 44.6343C55.6281 44.8549 55.6407 44.9898 55.6407 46.3506V47.8218H55.9263C56.3323 47.8218 56.6877 48.0119 56.8464 48.3123C56.9669 48.5391 56.9732 48.6679 56.9732 50.5805C56.9732 52.493 56.9669 52.6218 56.8464 52.8486C56.7639 53.008 56.6306 53.1367 56.4657 53.2164C56.2182 53.339 56.1294 53.339 40.7288 53.339C25.3283 53.339 25.2395 53.339 24.992 53.2164C24.827 53.1367 24.6938 53.008 24.6113 52.8486C24.4907 52.6218 24.4844 52.493 24.4844 50.5805C24.4844 48.6679 24.4907 48.5391 24.6113 48.3123C24.7699 48.0119 25.1253 47.8218 25.5314 47.8218H25.8169V46.3506C25.8169 44.9898 25.8296 44.8549 25.9438 44.6343C26.1405 44.2665 26.4388 44.1438 27.1495 44.1438H27.7206V40.098V36.0521H27.4668C27.0924 36.0521 26.7307 35.8498 26.5784 35.5617C26.4642 35.341 26.4515 35.2061 26.4515 33.8453V32.3741H25.8487C25.1062 32.3741 24.808 32.2576 24.6113 31.8836C24.4907 31.6568 24.4844 31.528 24.4844 29.6155C24.4844 27.7029 24.4907 27.5742 24.6113 27.3474C24.6811 27.2125 24.8334 27.0592 24.9476 26.9979ZM32.797 34.213V33.2935V32.3741H30.576H28.3551V33.2935V34.213H30.576H32.797ZM36.7312 35.5617C36.6169 35.341 36.6043 35.2061 36.6043 33.8453V32.3741H35.6524H34.7006V33.8453C34.7006 35.2061 34.6879 35.341 34.5737 35.5617C34.4214 35.8498 34.0597 36.0521 33.6853 36.0521H33.4315V40.098V44.1438H35.6524H37.8733V40.098V36.0521H37.6195C37.2452 36.0521 36.8834 35.8498 36.7312 35.5617ZM42.9497 34.213V33.2935V32.3741H40.7288H38.5079V33.2935V34.213H40.7288H42.9497ZM46.8839 35.5617C46.7697 35.341 46.757 35.2061 46.757 33.8453V32.3741H45.8052H44.8534V33.8453C44.8534 35.2061 44.8407 35.341 44.7265 35.5617C44.5742 35.8498 44.2125 36.0521 43.8382 36.0521H43.5843V40.098V44.1438H45.8052H48.0261V40.098V36.0521H47.7723C47.398 36.0521 47.0362 35.8498 46.8839 35.5617ZM53.1025 34.213V33.2935V32.3741H50.8816H48.6607V33.2935V34.213H50.8816H53.1025ZM31.5279 44.1438V40.098V36.0521H30.576H29.6242V40.098V44.1438H30.576H31.5279ZM41.6807 44.1438V40.098V36.0521H40.7288H39.777V40.098V44.1438H40.7288H41.6807ZM51.8334 44.1438V40.098V36.0521H50.8816H49.9297V40.098V44.1438H50.8816H51.8334ZM50.0884 26.8447L45.4244 25.3489C42.8609 24.5275 40.7352 23.8593 40.6971 23.8593C40.6654 23.8593 38.565 24.5336 36.0331 25.3551L31.4327 26.8447L26.388 28.696V29.6155V30.535H40.7288H55.0696V29.6155V28.696L50.0884 26.8447ZM53.737 46.9024V47.8218V49.6609H55.0696V50.5805V51.5H40.7288H26.388V50.5805V49.6609H27.7206V47.8218V46.9024V45.9829H40.7288H53.737V46.9024Z" fill="#FCFBF7"/>
<mask id="mask0_3125_902" style="mask-type:luminance" maskUnits="userSpaceOnUse" x="24" y="21" width="33" height="33">
<path fill-rule="evenodd" clip-rule="evenodd" d="M24.9554 26.9999C25.0633 26.9447 28.6104 25.7861 32.8365 24.4314C37.0626 23.0766 40.5971 21.9671 40.7049 21.9609C40.9016 21.9548 56.0863 26.7915 56.4861 26.9876C56.6384 27.0612 56.7717 27.196 56.8542 27.3493C56.9748 27.5761 56.9811 27.7048 56.9811 29.6174C56.9811 31.53 56.9748 31.6588 56.8542 31.8856C56.6574 32.2595 56.3592 32.376 55.6168 32.376H55.0139V33.8472C55.0139 35.2081 55.0012 35.343 54.8871 35.5636C54.7348 35.8518 54.3731 36.0541 53.9986 36.0541H53.7449V40.0999V44.1457H54.316C55.0267 44.1457 55.3249 44.2684 55.5216 44.6362C55.6359 44.8569 55.6486 44.9918 55.6486 46.3526V47.8238H55.9341C56.3401 47.8238 56.6955 48.0139 56.8542 48.3143C56.9748 48.541 56.9811 48.6698 56.9811 50.5824C56.9811 52.495 56.9748 52.6237 56.8542 52.8506C56.7717 53.0099 56.6384 53.1386 56.4735 53.2183C56.226 53.3409 56.1372 53.3409 40.7366 53.3409C25.3361 53.3409 25.2473 53.3409 24.9998 53.2183C24.8348 53.1386 24.7016 53.0099 24.6191 52.8506C24.4985 52.6237 24.4922 52.495 24.4922 50.5824C24.4922 48.6698 24.4985 48.541 24.6191 48.3143C24.7777 48.0139 25.1331 47.8238 25.5392 47.8238H25.8247V46.3526C25.8247 44.9918 25.8374 44.8569 25.9516 44.6362C26.1484 44.2684 26.4466 44.1457 27.1573 44.1457H27.7284V40.0999V36.0541H27.4746C27.1002 36.0541 26.7385 35.8518 26.5862 35.5636C26.472 35.343 26.4593 35.2081 26.4593 33.8472V32.376H25.8565C25.114 32.376 24.8158 32.2595 24.6191 31.8856C24.4985 31.6588 24.4922 31.53 24.4922 29.6174C24.4922 27.7048 24.4985 27.5761 24.6191 27.3493C24.6889 27.2144 24.8412 27.0612 24.9554 26.9999ZM32.8048 34.215V33.2955V32.376H30.5839H28.3629V33.2955V34.215H30.5839H32.8048ZM36.739 35.5636C36.6248 35.343 36.6121 35.2081 36.6121 33.8472V32.376H35.6602H34.7085V33.8472C34.7085 35.2081 34.6957 35.343 34.5815 35.5636C34.4292 35.8518 34.0675 36.0541 33.6931 36.0541H33.4393V40.0999V44.1457H35.6602H37.8811V40.0999V36.0541H37.6274C37.253 36.0541 36.8912 35.8518 36.739 35.5636ZM42.9575 34.215V33.2955V32.376H40.7366H38.5157V33.2955V34.215H40.7366H42.9575ZM46.8917 35.5636C46.7775 35.343 46.7649 35.2081 46.7649 33.8472V32.376H45.813H44.8612V33.8472C44.8612 35.2081 44.8485 35.343 44.7343 35.5636C44.582 35.8518 44.2203 36.0541 43.846 36.0541H43.5921V40.0999V44.1457H45.813H48.0339V40.0999V36.0541H47.7801C47.4058 36.0541 47.044 35.8518 46.8917 35.5636ZM53.1103 34.215V33.2955V32.376H50.8894H48.6685V33.2955V34.215H50.8894H53.1103ZM31.5357 44.1457V40.0999V36.0541H30.5839H29.632V40.0999V44.1457H30.5839H31.5357ZM41.6885 44.1457V40.0999V36.0541H40.7366H39.7849V40.0999V44.1457H40.7366H41.6885ZM51.8412 44.1457V40.0999V36.0541H50.8894H49.9375V40.0999V44.1457H50.8894H51.8412ZM50.0962 26.8466L45.4323 25.3509C42.8687 24.5295 40.743 23.8613 40.7049 23.8613C40.6732 23.8613 38.5728 24.5356 36.041 25.357L31.4405 26.8466L26.3958 28.6979V29.6174V30.537H40.7366H55.0774V29.6174V28.6979L50.0962 26.8466ZM53.7449 46.9044V47.8238V49.6629H55.0774V50.5824V51.5019H40.7366H26.3958V50.5824V49.6629H27.7284V47.8238V46.9044V45.9848H40.7366H53.7449V46.9044Z" fill="white"/>
</mask>
<g mask="url(#mask0_3125_902)">
<path d="M26.3943 49.5996H53.7433V49.7231H26.3943V49.5996ZM27.7268 49.5996H53.7433V49.7231H27.7268V49.5996ZM24.9539 26.9983L24.8955 26.8895L24.8976 26.8884L24.9539 26.9983ZM24.6176 27.3478L24.7272 27.4045L24.7266 27.4057L24.6176 27.3478ZM26.4577 32.3745V32.251H26.5812V32.3745H26.4577ZM26.5847 35.5621L26.4755 35.6197L26.475 35.6188L26.5847 35.5621ZM27.7268 36.0525V35.929H27.8503V36.0525H27.7268ZM27.7268 44.1442H27.8503V44.2677H27.7268V44.1442ZM25.9501 44.6347L25.8405 44.5779L25.8412 44.5764L25.9501 44.6347ZM25.8232 47.8223H25.9466V47.9458H25.8232V47.8223ZM24.6176 52.849L24.7266 52.791L24.7272 52.7922L24.6176 52.849ZM24.9983 53.2168L25.052 53.1056L25.0531 53.1061L24.9983 53.2168ZM56.4719 53.2168L56.4171 53.1061L56.4182 53.1056L56.4719 53.2168ZM56.8527 52.849L56.7429 52.7922L56.7436 52.791L56.8527 52.849ZM55.647 47.8223V47.9458H55.5235V47.8223H55.647ZM55.5201 44.6347L55.629 44.5764L55.6297 44.5779L55.5201 44.6347ZM53.7433 44.1442V44.2677H53.6199V44.1442H53.7433ZM53.7433 36.0525H53.6199V35.929H53.7433V36.0525ZM54.8855 35.5621L54.9952 35.6188L54.9947 35.6197L54.8855 35.5621ZM55.0124 32.3745H54.8889V32.251H55.0124V32.3745ZM40.7034 21.9594L40.6964 21.8361L40.6995 21.836L40.7034 21.9594ZM50.0947 26.8451L50.1324 26.7274L50.1377 26.7294L50.0947 26.8451ZM31.4389 26.8451L31.3964 26.7291L31.4009 26.7276L31.4389 26.8451ZM55.0759 30.5354H55.1993V30.6588H55.0759V30.5354ZM26.3943 30.5354V30.6588H26.2708V30.5354H26.3943ZM26.3943 28.6964H26.2708V28.6102L26.3518 28.5805L26.3943 28.6964ZM55.0759 28.6964L55.1189 28.5807L55.1993 28.6106V28.6964H55.0759ZM32.8032 34.2135H32.9267V34.337H32.8032V34.2135ZM28.3614 34.2135V34.337H28.2379V34.2135H28.3614ZM28.3614 32.3745H28.2379V32.251H28.3614V32.3745ZM32.8032 32.3745V32.251H32.9267V32.3745H32.8032ZM36.7375 35.5621L36.6283 35.6197L36.6277 35.6188L36.7375 35.5621ZM37.8796 36.0525V35.929H38.003V36.0525H37.8796ZM37.8796 44.1442H38.003V44.2677H37.8796V44.1442ZM33.4378 44.1442V44.2677H33.3143V44.1442H33.4378ZM33.4378 36.0525H33.3143V35.929H33.4378V36.0525ZM34.58 35.5621L34.6896 35.6188L34.6891 35.6197L34.58 35.5621ZM34.7069 32.3745H34.5834V32.251H34.7069V32.3745ZM36.6105 32.3745V32.251H36.734V32.3745H36.6105ZM42.956 34.2135H43.0794V34.337H42.956V34.2135ZM38.5141 34.2135V34.337H38.3907V34.2135H38.5141ZM38.5141 32.3745H38.3907V32.251H38.5141V32.3745ZM42.956 32.3745V32.251H43.0794V32.3745H42.956ZM46.8902 35.5621L46.7811 35.6197L46.7805 35.6188L46.8902 35.5621ZM48.0324 36.0525V35.929H48.1558V36.0525H48.0324ZM48.0324 44.1442H48.1558V44.2677H48.0324V44.1442ZM43.5905 44.1442V44.2677H43.4671V44.1442H43.5905ZM43.5905 36.0525H43.4671V35.929H43.5905V36.0525ZM44.7327 35.5621L44.8424 35.6188L44.8419 35.6197L44.7327 35.5621ZM44.8597 32.3745H44.7362V32.251H44.8597V32.3745ZM46.7633 32.3745V32.251H46.8867V32.3745H46.7633ZM53.1088 34.2135H53.2322V34.337H53.1088V34.2135ZM48.6669 34.2135V34.337H48.5435V34.2135H48.6669ZM48.6669 32.3745H48.5435V32.251H48.6669V32.3745ZM53.1088 32.3745V32.251H53.2322V32.3745H53.1088ZM31.5341 44.1442H31.6576V44.2677H31.5341V44.1442ZM29.6305 44.1442V44.2677H29.507V44.1442H29.6305ZM29.6305 36.0525H29.507V35.929H29.6305V36.0525ZM31.5341 36.0525V35.929H31.6576V36.0525H31.5341ZM41.6869 44.1442H41.8103V44.2677H41.6869V44.1442ZM39.7833 44.1442V44.2677H39.6598V44.1442H39.7833ZM39.7833 36.0525H39.6598V35.929H39.7833V36.0525ZM41.6869 36.0525V35.929H41.8103V36.0525H41.6869ZM51.8397 44.1442H51.9631V44.2677H51.8397V44.1442ZM49.936 44.1442V44.2677H49.8126V44.1442H49.936ZM49.936 36.0525H49.8126V35.929H49.936V36.0525ZM51.8397 36.0525V35.929H51.9631V36.0525H51.8397ZM27.7268 45.9833H27.6034V45.8598H27.7268V45.9833ZM53.7433 45.9833V45.8598H53.8668V45.9833H53.7433ZM55.0759 51.5004H55.1993V51.6238H55.0759V51.5004ZM26.3943 51.5004V51.6238H26.2708V51.5004H26.3943ZM26.3943 49.6613H26.2708V49.5379H26.3943V49.6613ZM55.0759 49.6613V49.5379H55.1993V49.6613H55.0759ZM27.7268 49.6613H27.8503V49.7847H27.7268V49.6613ZM53.7433 49.6613V49.7847H53.6199V49.6613H53.7433ZM32.8726 24.5474C30.7598 25.2247 28.8166 25.853 27.3884 26.3188C26.6742 26.5517 26.0889 26.744 25.6754 26.8814C25.4687 26.9501 25.3052 27.0051 25.1902 27.0445C25.1326 27.0642 25.0876 27.0799 25.0555 27.0915C25.019 27.1046 25.008 27.1093 25.0101 27.1082L24.8976 26.8884C24.9132 26.8805 24.9426 26.8697 24.9719 26.8591C25.0057 26.847 25.0521 26.8308 25.1101 26.8109C25.2262 26.7711 25.3906 26.7159 25.5976 26.6471C26.0116 26.5094 26.5974 26.317 27.3118 26.0841C28.7406 25.6181 30.6841 24.9897 32.7973 24.3123L32.8726 24.5474ZM25.0122 27.1071C24.97 27.1298 24.9133 27.1741 24.8576 27.2315C24.8022 27.2885 24.755 27.3509 24.7272 27.4045L24.5079 27.291C24.5499 27.2098 24.6138 27.1281 24.6805 27.0594C24.7469 26.9911 24.8235 26.9282 24.8955 26.8895L25.0122 27.1071ZM24.7266 27.4057C24.6994 27.4568 24.6813 27.4972 24.667 27.5574C24.6519 27.6207 24.6403 27.7093 24.6322 27.8565C24.6157 28.1518 24.6141 28.6577 24.6141 29.6159H24.3672C24.3672 28.6615 24.3687 28.1467 24.3856 27.8428C24.3941 27.6904 24.4067 27.5848 24.4267 27.5003C24.4475 27.4128 24.4754 27.3521 24.5085 27.2898L24.7266 27.4057ZM24.6141 29.6159C24.6141 30.5741 24.6157 31.08 24.6322 31.3753C24.6403 31.5225 24.6519 31.6111 24.667 31.6744C24.6813 31.7346 24.6994 31.7749 24.7266 31.826L24.5085 31.942C24.4754 31.8797 24.4475 31.8189 24.4267 31.7314C24.4067 31.647 24.3941 31.5413 24.3856 31.389C24.3687 31.085 24.3672 30.5703 24.3672 29.6159H24.6141ZM24.7266 31.826C24.8133 31.991 24.9165 32.0912 25.077 32.1547C25.2461 32.2215 25.4865 32.251 25.8549 32.251V32.4979C25.4809 32.4979 25.201 32.4692 24.9862 32.3843C24.7628 32.296 24.6185 32.151 24.5085 31.942L24.7266 31.826ZM25.8549 32.251H26.4577V32.4979H25.8549V32.251ZM26.5812 32.3745V33.8457H26.3343V32.3745H26.5812ZM26.5812 33.8457C26.5812 34.528 26.5845 34.8965 26.6015 35.1222C26.6179 35.3399 26.6461 35.4122 26.6943 35.5053L26.475 35.6188C26.409 35.4913 26.3737 35.3858 26.3553 35.1408C26.3374 34.9036 26.3343 34.5242 26.3343 33.8457H26.5812ZM26.6938 35.5044C26.8215 35.746 27.1372 35.929 27.473 35.929V36.176C27.0601 36.176 26.6523 35.9543 26.4755 35.6197L26.6938 35.5044ZM27.473 35.929H27.7268V36.176H27.473V35.929ZM27.8503 36.0525V40.0984H27.6034V36.0525H27.8503ZM27.8503 40.0984V44.1442H27.6034V40.0984H27.8503ZM27.7268 44.2677H27.1558V44.0208H27.7268V44.2677ZM27.1558 44.2677C26.8042 44.2677 26.5718 44.2985 26.4068 44.3659C26.2494 44.43 26.1459 44.5304 26.059 44.6929L25.8412 44.5764C25.951 44.3711 26.095 44.2262 26.3136 44.1372C26.5245 44.0512 26.7966 44.0208 27.1558 44.0208V44.2677ZM26.0598 44.6914C26.0115 44.7846 25.9833 44.8568 25.9669 45.0746C25.9499 45.3002 25.9466 45.6687 25.9466 46.351H25.6997C25.6997 45.6725 25.7028 45.2932 25.7207 45.056C25.7392 44.811 25.7745 44.7054 25.8405 44.5779L26.0598 44.6914ZM25.9466 46.351V47.8223H25.6997V46.351H25.9466ZM25.8232 47.9458H25.5376V47.6988H25.8232V47.9458ZM25.5376 47.9458C25.1668 47.9458 24.8595 48.119 24.7267 48.3704L24.5084 48.255C24.6929 47.9057 25.0963 47.6988 25.5376 47.6988V47.9458ZM24.7267 48.3704C24.6995 48.4215 24.6813 48.4622 24.667 48.5223C24.6519 48.5856 24.6403 48.6742 24.6322 48.8214C24.6157 49.1167 24.6141 49.6226 24.6141 50.5809H24.3672C24.3672 49.6265 24.3687 49.1117 24.3856 48.8077C24.3941 48.6554 24.4067 48.5497 24.4267 48.4653C24.4475 48.3778 24.4753 48.3172 24.5084 48.255L24.7267 48.3704ZM24.6141 50.5809C24.6141 51.5391 24.6157 52.0449 24.6322 52.3402C24.6403 52.4874 24.6519 52.576 24.667 52.6393C24.6813 52.6995 24.6994 52.7398 24.7266 52.791L24.5085 52.9069C24.4754 52.8447 24.4475 52.7839 24.4267 52.6964C24.4067 52.612 24.3941 52.5063 24.3856 52.3539C24.3687 52.0499 24.3672 51.5352 24.3672 50.5809H24.6141ZM24.7272 52.7922C24.7971 52.9273 24.9105 53.0372 25.052 53.1056L24.9446 53.328C24.7561 53.2369 24.6029 53.0894 24.5079 52.9058L24.7272 52.7922ZM25.0531 53.1061C25.0787 53.1188 25.0968 53.1276 25.1391 53.1364C25.1863 53.1462 25.263 53.1559 25.4034 53.1645C25.6833 53.1814 26.1956 53.1929 27.1853 53.2006C29.1628 53.216 33.0345 53.216 40.7351 53.216V53.4628C33.0352 53.4628 29.1622 53.4628 27.1833 53.4475C26.1948 53.4398 25.676 53.4284 25.3884 53.4109C25.2449 53.4022 25.1538 53.3917 25.0886 53.3781C25.0185 53.3635 24.9797 53.3454 24.9435 53.3274L25.0531 53.1061ZM40.7351 53.216C48.4357 53.216 52.3073 53.216 54.2849 53.2006C55.2746 53.1929 55.7869 53.1814 56.0668 53.1645C56.2071 53.1559 56.2839 53.1462 56.3311 53.1364C56.3733 53.1276 56.3915 53.1188 56.4171 53.1061L56.5267 53.3274C56.4904 53.3454 56.4516 53.3635 56.3815 53.3781C56.3164 53.3917 56.2252 53.4022 56.0818 53.4109C55.7942 53.4284 55.2753 53.4398 54.2868 53.4475C52.308 53.4628 48.435 53.4628 40.7351 53.4628V53.216ZM56.4182 53.1056C56.5597 53.0372 56.673 52.9273 56.7429 52.7922L56.9623 52.9058C56.8672 53.0894 56.714 53.2369 56.5256 53.328L56.4182 53.1056ZM56.7436 52.791C56.7708 52.7398 56.7889 52.6995 56.8032 52.6393C56.8182 52.576 56.8298 52.4874 56.838 52.3402C56.8544 52.0449 56.8561 51.5391 56.8561 50.5809H57.1029C57.1029 51.5352 57.1014 52.0499 57.0845 52.3539C57.0761 52.5063 57.0635 52.612 57.0434 52.6964C57.0227 52.7839 56.9947 52.8447 56.9616 52.9069L56.7436 52.791ZM56.8561 50.5809C56.8561 49.6226 56.8544 49.1167 56.838 48.8214C56.8298 48.6742 56.8182 48.5856 56.8032 48.5223C56.7889 48.4622 56.7708 48.4218 56.7436 48.3707L56.9616 48.2548C56.9947 48.317 57.0227 48.3778 57.0434 48.4653C57.0635 48.5497 57.0761 48.6554 57.0845 48.8077C57.1014 49.1117 57.1029 49.6265 57.1029 50.5809H56.8561ZM56.7436 48.3707C56.6108 48.1193 56.3034 47.9458 55.9326 47.9458V47.6988C56.3739 47.6988 56.7771 47.9054 56.9616 48.2548L56.7436 48.3707ZM55.9326 47.9458H55.647V47.6988H55.9326V47.9458ZM55.5235 47.8223V46.351H55.7704V47.8223H55.5235ZM55.5235 46.351C55.5235 45.6687 55.5202 45.3002 55.5032 45.0746C55.4868 44.8568 55.4587 44.7846 55.4104 44.6914L55.6297 44.5779C55.6957 44.7054 55.731 44.811 55.7494 45.056C55.7674 45.2932 55.7704 45.6725 55.7704 46.351H55.5235ZM55.4112 44.6929C55.3243 44.5304 55.2208 44.43 55.0634 44.3659C54.8984 44.2985 54.666 44.2677 54.3144 44.2677V44.0208C54.6736 44.0208 54.9456 44.0512 55.1565 44.1372C55.3752 44.2262 55.5191 44.3711 55.629 44.5764L55.4112 44.6929ZM54.3144 44.2677H53.7433V44.0208H54.3144V44.2677ZM53.6199 44.1442V40.0984H53.8668V44.1442H53.6199ZM53.6199 40.0984V36.0525H53.8668V40.0984H53.6199ZM53.7433 35.929H53.9971V36.176H53.7433V35.929ZM53.9971 35.929C54.3329 35.929 54.6486 35.746 54.7764 35.5044L54.9947 35.6197C54.8178 35.9543 54.4102 36.176 53.9971 36.176V35.929ZM54.7759 35.5053C54.8241 35.4122 54.8523 35.3399 54.8687 35.1222C54.8857 34.8965 54.8889 34.528 54.8889 33.8457H55.1359C55.1359 34.5242 55.1327 34.9036 55.1149 35.1408C55.0965 35.3858 55.0612 35.4913 54.9952 35.6188L54.7759 35.5053ZM54.8889 33.8457V32.3745H55.1359V33.8457H54.8889ZM55.0124 32.251H55.6152V32.4979H55.0124V32.251ZM55.6152 32.251C55.9837 32.251 56.224 32.2215 56.3932 32.1547C56.5537 32.0912 56.6565 31.9915 56.7433 31.8265L56.9619 31.9415C56.8519 32.1505 56.7074 32.296 56.484 32.3843C56.2691 32.4692 55.9892 32.4979 55.6152 32.4979V32.251ZM56.7433 31.8265C56.7705 31.7754 56.7889 31.7346 56.8032 31.6744C56.8182 31.6111 56.8298 31.5225 56.838 31.3753C56.8544 31.08 56.8561 30.5741 56.8561 29.6159H57.1029C57.1029 30.5703 57.1014 31.085 57.0845 31.389C57.0761 31.5413 57.0635 31.647 57.0434 31.7314C57.0227 31.8189 56.995 31.8793 56.9619 31.9415L56.7433 31.8265ZM56.8561 29.6159C56.8561 28.6577 56.8544 28.1518 56.838 27.8565C56.8298 27.7093 56.8182 27.6207 56.8032 27.5574C56.7889 27.4972 56.7708 27.4568 56.7436 27.4057L56.9614 27.2892C56.9944 27.3515 57.0227 27.4128 57.0434 27.5003C57.0635 27.5848 57.0761 27.6904 57.0845 27.8428C57.1014 28.1467 57.1029 28.6615 57.1029 29.6159H56.8561ZM56.7436 27.4057C56.672 27.2727 56.5571 27.1582 56.4309 27.0972L56.5383 26.8749C56.7165 26.961 56.8679 27.1158 56.9614 27.2892L56.7436 27.4057ZM56.4309 27.0972C56.4145 27.0892 56.3404 27.0615 56.2032 27.0139C56.0707 26.9679 55.8876 26.9061 55.6608 26.8307C55.2074 26.6798 54.581 26.4749 53.8397 26.2345C52.3571 25.7536 50.4156 25.1309 48.4803 24.5145C46.5451 23.8981 44.6163 23.288 43.1591 22.8325C42.4304 22.6047 41.82 22.4156 41.3856 22.2837C41.1684 22.2177 40.9957 22.1662 40.8745 22.1313C40.8138 22.1139 40.7667 22.1008 40.7337 22.0922C40.7171 22.0879 40.7052 22.085 40.6972 22.0833C40.6953 22.0829 40.6939 22.0826 40.6928 22.0823C40.6921 22.0822 40.692 22.0822 40.6915 22.0821C40.6917 22.0821 40.6934 22.0823 40.694 22.0824C40.6953 22.0825 40.7003 22.083 40.7072 22.0828L40.6995 21.836C40.7138 21.8356 40.7263 21.8376 40.7302 21.8382C40.7367 21.8393 40.7434 21.8406 40.7496 21.842C40.7623 21.8447 40.7779 21.8486 40.7959 21.8532C40.8319 21.8626 40.8814 21.8764 40.9427 21.894C41.0657 21.9294 41.2399 21.9814 41.4574 22.0475C41.8927 22.1796 42.504 22.369 43.2327 22.5968C44.6905 23.0525 46.6198 23.6627 48.5552 24.2792C50.4908 24.8957 52.4327 25.5186 53.9159 25.9996C54.6574 26.2401 55.2844 26.4452 55.7388 26.5964C55.9658 26.6719 56.1502 26.7341 56.284 26.7806C56.4133 26.8254 56.5047 26.8584 56.5383 26.8749L56.4309 27.0972ZM40.7103 22.0827C40.7194 22.0821 40.7232 22.0807 40.7113 22.0834C40.7032 22.0853 40.6915 22.0883 40.6755 22.0925C40.644 22.101 40.5995 22.1136 40.5422 22.1303C40.4277 22.1636 40.2649 22.2126 40.0588 22.2755C39.6466 22.4015 39.063 22.583 38.3504 22.8067C36.9254 23.2541 34.9855 23.8701 32.8726 24.5474L32.7973 24.3123C34.9104 23.6348 36.8509 23.0187 38.2765 22.5711C38.9893 22.3473 39.5736 22.1656 39.9866 22.0394C40.193 21.9763 40.3571 21.927 40.4731 21.8932C40.531 21.8763 40.5776 21.8632 40.6117 21.854C40.6287 21.8495 40.6434 21.8457 40.6553 21.8429C40.6634 21.8411 40.6805 21.837 40.6964 21.8361L40.7103 22.0827ZM45.4684 25.2318L50.1324 26.7274L50.057 26.9626L45.393 25.4669L45.4684 25.2318ZM31.4009 26.7276L36.0014 25.238L36.0776 25.4729L31.477 26.9625L31.4009 26.7276ZM36.0014 25.238C37.2673 24.8273 38.4255 24.4533 39.2713 24.182C39.694 24.0464 40.0389 23.9363 40.2801 23.8602C40.4006 23.8221 40.4956 23.7925 40.5615 23.7723C40.5944 23.7622 40.6205 23.7543 40.6392 23.7489C40.6485 23.7462 40.6566 23.7439 40.6632 23.7422C40.6664 23.7414 40.6702 23.7404 40.674 23.7396C40.6759 23.7392 40.6789 23.7386 40.6822 23.738C40.684 23.7377 40.6926 23.7363 40.7034 23.7363V23.9832C40.7137 23.9832 40.7215 23.9818 40.7223 23.9817C40.7246 23.9813 40.7263 23.9809 40.7266 23.9808C40.7276 23.9806 40.7274 23.9807 40.7255 23.9811C40.7222 23.982 40.7165 23.9836 40.7079 23.9861C40.6911 23.991 40.6664 23.9984 40.6339 24.0083C40.569 24.0282 40.4748 24.0577 40.3544 24.0957C40.1138 24.1716 39.7693 24.2815 39.3466 24.4171C38.5013 24.6883 37.3434 25.0622 36.0776 25.4729L36.0014 25.238ZM40.7034 23.7363C40.7181 23.7363 40.7308 23.7391 40.7311 23.7392C40.7352 23.74 40.7392 23.741 40.7427 23.7418C40.7496 23.7435 40.7581 23.7458 40.7677 23.7485C40.787 23.7539 40.8139 23.7617 40.8475 23.7717C40.9149 23.7918 41.0115 23.8212 41.134 23.859C41.379 23.9346 41.7287 24.0439 42.1571 24.1787C43.014 24.4485 44.1865 24.821 45.4684 25.2318L45.393 25.4669C44.1115 25.0562 42.9393 24.6839 42.0829 24.4142C41.6547 24.2794 41.3055 24.1703 41.0612 24.0949C40.939 24.0572 40.8432 24.0281 40.777 24.0084C40.7439 23.9985 40.7187 23.9912 40.7015 23.9864C40.6927 23.9839 40.6868 23.9824 40.6834 23.9815C40.6815 23.9811 40.6814 23.9811 40.6823 23.9812C40.6827 23.9813 40.6843 23.9816 40.6866 23.982C40.6878 23.9822 40.6945 23.9832 40.7034 23.9832V23.7363ZM55.1993 29.6159V30.5354H54.9524V29.6159H55.1993ZM55.0759 30.6588H40.7351V30.412H55.0759V30.6588ZM40.7351 30.6588H26.3943V30.412H40.7351V30.6588ZM26.2708 30.5354V29.6159H26.5178V30.5354H26.2708ZM26.2708 29.6159V28.6964H26.5178V29.6159H26.2708ZM55.1993 28.6964V29.6159H54.9524V28.6964H55.1993ZM32.9267 33.2939V34.2135H32.6798V33.2939H32.9267ZM32.8032 34.337H30.5823V34.09H32.8032V34.337ZM30.5823 34.337H28.3614V34.09H30.5823V34.337ZM28.2379 34.2135V33.2939H28.4848V34.2135H28.2379ZM28.2379 33.2939V32.3745H28.4848V33.2939H28.2379ZM28.3614 32.251H30.5823V32.4979H28.3614V32.251ZM30.5823 32.251H32.8032V32.4979H30.5823V32.251ZM32.9267 32.3745V33.2939H32.6798V32.3745H32.9267ZM36.734 33.8457C36.734 34.528 36.7372 34.8965 36.7542 35.1222C36.7707 35.3399 36.7989 35.4122 36.8471 35.5053L36.6277 35.6188C36.5618 35.4913 36.5265 35.3858 36.508 35.1408C36.4902 34.9036 36.4871 34.5242 36.4871 33.8457H36.734ZM36.8465 35.5044C36.9743 35.746 37.29 35.929 37.6258 35.929V36.176C37.2128 36.176 36.8052 35.9543 36.6283 35.6197L36.8465 35.5044ZM37.6258 35.929H37.8796V36.176H37.6258V35.929ZM38.003 36.0525V40.0984H37.7562V36.0525H38.003ZM38.003 40.0984V44.1442H37.7562V40.0984H38.003ZM37.8796 44.2677H35.6587V44.0208H37.8796V44.2677ZM35.6587 44.2677H33.4378V44.0208H35.6587V44.2677ZM33.3143 44.1442V40.0984H33.5612V44.1442H33.3143ZM33.3143 40.0984V36.0525H33.5612V40.0984H33.3143ZM33.4378 35.929H33.6916V36.176H33.4378V35.929ZM33.6916 35.929C34.0274 35.929 34.343 35.746 34.4708 35.5044L34.6891 35.6197C34.5123 35.9543 34.1046 36.176 33.6916 36.176V35.929ZM34.4703 35.5053C34.5186 35.4122 34.5467 35.3399 34.5631 35.1222C34.5802 34.8965 34.5834 34.528 34.5834 33.8457H34.8303C34.8303 34.5242 34.8272 34.9036 34.8093 35.1408C34.7909 35.3858 34.7556 35.4913 34.6896 35.6188L34.4703 35.5053ZM34.5834 33.8457V32.3745H34.8303V33.8457H34.5834ZM34.7069 32.251H35.6587V32.4979H34.7069V32.251ZM35.6587 32.251H36.6105V32.4979H35.6587V32.251ZM36.734 32.3745V33.8457H36.4871V32.3745H36.734ZM43.0794 33.2939V34.2135H42.8326V33.2939H43.0794ZM42.956 34.337H40.7351V34.09H42.956V34.337ZM40.7351 34.337H38.5141V34.09H40.7351V34.337ZM38.3907 34.2135V33.2939H38.6377V34.2135H38.3907ZM38.3907 33.2939V32.3745H38.6377V33.2939H38.3907ZM38.5141 32.251H40.7351V32.4979H38.5141V32.251ZM40.7351 32.251H42.956V32.4979H40.7351V32.251ZM43.0794 32.3745V33.2939H42.8326V32.3745H43.0794ZM46.8867 33.8457C46.8867 34.528 46.89 34.8965 46.907 35.1222C46.9235 35.3399 46.9516 35.4122 46.9999 35.5053L46.7805 35.6188C46.7146 35.4913 46.6793 35.3858 46.6608 35.1408C46.6429 34.9036 46.6399 34.5242 46.6399 33.8457H46.8867ZM46.9993 35.5044C47.1271 35.746 47.4427 35.929 47.7786 35.929V36.176C47.3656 36.176 46.9579 35.9543 46.7811 35.6197L46.9993 35.5044ZM47.7786 35.929H48.0324V36.176H47.7786V35.929ZM48.1558 36.0525V40.0984H47.909V36.0525H48.1558ZM48.1558 40.0984V44.1442H47.909V40.0984H48.1558ZM48.0324 44.2677H45.8115V44.0208H48.0324V44.2677ZM45.8115 44.2677H43.5905V44.0208H45.8115V44.2677ZM43.4671 44.1442V40.0984H43.714V44.1442H43.4671ZM43.4671 40.0984V36.0525H43.714V40.0984H43.4671ZM43.5905 35.929H43.8444V36.176H43.5905V35.929ZM43.8444 35.929C44.1802 35.929 44.4958 35.746 44.6236 35.5044L44.8419 35.6197C44.6651 35.9543 44.2574 36.176 43.8444 36.176V35.929ZM44.6231 35.5053C44.6714 35.4122 44.6995 35.3399 44.7159 35.1222C44.7329 34.8965 44.7362 34.528 44.7362 33.8457H44.9831C44.9831 34.5242 44.98 34.9036 44.9621 35.1408C44.9437 35.3858 44.9084 35.4913 44.8424 35.6188L44.6231 35.5053ZM44.7362 33.8457V32.3745H44.9831V33.8457H44.7362ZM44.8597 32.251H45.8115V32.4979H44.8597V32.251ZM45.8115 32.251H46.7633V32.4979H45.8115V32.251ZM46.8867 32.3745V33.8457H46.6399V32.3745H46.8867ZM53.2322 33.2939V34.2135H52.9853V33.2939H53.2322ZM53.1088 34.337H50.8878V34.09H53.1088V34.337ZM50.8878 34.337H48.6669V34.09H50.8878V34.337ZM48.5435 34.2135V33.2939H48.7904V34.2135H48.5435ZM48.5435 33.2939V32.3745H48.7904V33.2939H48.5435ZM48.6669 32.251H50.8878V32.4979H48.6669V32.251ZM50.8878 32.251H53.1088V32.4979H50.8878V32.251ZM53.2322 32.3745V33.2939H52.9853V32.3745H53.2322ZM31.6576 40.0984V44.1442H31.4107V40.0984H31.6576ZM31.5341 44.2677H30.5823V44.0208H31.5341V44.2677ZM30.5823 44.2677H29.6305V44.0208H30.5823V44.2677ZM29.507 44.1442V40.0984H29.7539V44.1442H29.507ZM29.507 40.0984V36.0525H29.7539V40.0984H29.507ZM29.6305 35.929H30.5823V36.176H29.6305V35.929ZM30.5823 35.929H31.5341V36.176H30.5823V35.929ZM31.6576 36.0525V40.0984H31.4107V36.0525H31.6576ZM41.8103 40.0984V44.1442H41.5635V40.0984H41.8103ZM41.6869 44.2677H40.7351V44.0208H41.6869V44.2677ZM40.7351 44.2677H39.7833V44.0208H40.7351V44.2677ZM39.6598 44.1442V40.0984H39.9067V44.1442H39.6598ZM39.6598 40.0984V36.0525H39.9067V40.0984H39.6598ZM39.7833 35.929H40.7351V36.176H39.7833V35.929ZM40.7351 35.929H41.6869V36.176H40.7351V35.929ZM41.8103 36.0525V40.0984H41.5635V36.0525H41.8103ZM51.9631 40.0984V44.1442H51.7163V40.0984H51.9631ZM51.8397 44.2677H50.8878V44.0208H51.8397V44.2677ZM50.8878 44.2677H49.936V44.0208H50.8878V44.2677ZM49.8126 44.1442V40.0984H50.0595V44.1442H49.8126ZM49.8126 40.0984V36.0525H50.0595V40.0984H49.8126ZM49.936 35.929H50.8878V36.176H49.936V35.929ZM50.8878 35.929H51.8397V36.176H50.8878V35.929ZM51.9631 36.0525V40.0984H51.7163V36.0525H51.9631ZM53.8668 46.9028V47.8223H53.6199V46.9028H53.8668ZM27.6034 47.8223V46.9028H27.8503V47.8223H27.6034ZM27.6034 46.9028V45.9833H27.8503V46.9028H27.6034ZM27.7268 45.8598H40.7351V46.1067H27.7268V45.8598ZM40.7351 45.8598H53.7433V46.1067H40.7351V45.8598ZM53.8668 45.9833V46.9028H53.6199V45.9833H53.8668ZM55.1993 50.5809V51.5004H54.9524V50.5809H55.1993ZM55.0759 51.6238H40.7351V51.3769H55.0759V51.6238ZM40.7351 51.6238H26.3943V51.3769H40.7351V51.6238ZM26.2708 51.5004V50.5809H26.5178V51.5004H26.2708ZM26.2708 50.5809V49.6613H26.5178V50.5809H26.2708ZM55.1993 49.6613V50.5809H54.9524V49.6613H55.1993ZM31.4815 26.961L26.4368 28.8123L26.3518 28.5805L31.3964 26.7291L31.4815 26.961ZM50.1377 26.7294L55.1189 28.5807L55.0328 28.8121L50.0516 26.9608L50.1377 26.7294ZM26.3943 49.5379H27.7268V49.7847H26.3943V49.5379ZM27.8503 47.8223V49.6613H27.6034V47.8223H27.8503ZM53.7433 49.5379H55.0759V49.7847H53.7433V49.5379ZM53.8668 47.8223V49.6613H53.6199V47.8223H53.8668Z" fill="#FCFBF7"/>
</g>
</g>
<defs>
<clipPath id="clip0_3125_902">
<rect width="33.3333" height="32.4074" fill="white" transform="translate(24.4688 21.334)"/>
</clipPath>
</defs>
</svg>
