<svg width="80" height="88" viewBox="0 0 80 88" fill="none" xmlns="http://www.w3.org/2000/svg">
<path d="M38.8989 81.7684L40.6667 83.5362L42.4344 81.7684L61.4344 62.7684C73.6405 50.5623 73.6405 30.7723 61.4344 18.5662L60.7678 17.8996C48.9299 6.06164 29.7368 6.06164 17.8989 17.8996C6.06099 29.7375 6.06099 48.9305 17.8989 60.7684L38.8989 81.7684Z" fill="#61A5FF" stroke="#F78712" stroke-width="5"/>
<path d="M40.0801 28.6687C39.4656 28.9729 38.7146 29.8045 38.0567 30.9031C37.883 31.1948 37.7278 31.4431 37.7216 31.4555C37.7091 31.4679 37.5664 31.3562 37.405 31.2072C36.052 29.9411 33.619 29.1653 32.4833 29.637C32.1605 29.7735 31.9309 30.0218 31.7323 30.4438C31.4406 31.0831 31.1799 32.3182 31.1799 33.0816V33.3919L30.0193 33.3484C28.7097 33.2988 28.1946 33.3609 27.667 33.6091C27.2512 33.8077 26.8167 34.2856 26.6678 34.7077C26.3202 35.7193 26.9346 39.2571 27.8718 41.6403C28.3435 42.8382 28.8773 43.8188 29.5476 44.7312C29.7338 44.9856 29.8765 45.1967 29.8641 45.2029C29.8517 45.2153 29.4607 45.4201 28.9952 45.656C26.5498 46.922 24.9982 48.4241 24.8679 49.653C24.7934 50.3729 25.2092 50.857 26.0719 51.0494C26.705 51.186 28.6042 51.1425 30.9316 50.9253C40.8248 50.0067 44.2322 50.0254 51.5683 51.0494C53.393 51.3038 54.9136 51.366 55.466 51.2046C56.639 50.8632 56.8438 49.3798 55.8942 47.9958C55.1742 46.9407 53.5978 45.8235 52.1269 45.3332C51.8538 45.2401 51.6242 45.1594 51.6118 45.147C51.5993 45.1408 51.7359 44.936 51.9096 44.7063C52.8965 43.3906 53.7406 41.5038 54.2681 39.437C54.8391 37.2089 55.0191 35.2538 54.715 34.596C54.4108 33.9319 53.8337 33.5657 52.9027 33.454C52.6172 33.4167 51.8972 33.3857 51.3076 33.3857H50.2339V32.883C50.2339 31.9954 49.8863 30.6424 49.5139 30.0776C49.1725 29.5563 48.3347 29.3763 47.2672 29.5935C46.1066 29.8356 45.039 30.3507 44.1578 31.0955C43.9032 31.3065 43.6798 31.4493 43.6674 31.412C43.624 31.2755 42.9537 30.1893 42.7054 29.848C42.3268 29.339 41.7868 28.8301 41.4144 28.6501C40.9552 28.4205 40.5642 28.4267 40.0801 28.6687ZM41.042 29.5687C41.2593 29.6804 41.7868 30.2514 42.0972 30.7107C43.6364 32.9947 45.3307 37.7613 45.3307 39.7908C45.3307 42.0376 43.2764 46.8476 41.582 48.5606C40.9055 49.2496 40.5331 49.3923 40.0242 49.1564C39.0684 48.722 37.883 46.4379 37.0513 43.4402C36.4368 41.2183 36.1885 39.5302 36.3189 38.4812C36.7037 35.409 38.9194 30.5617 40.3593 29.6494C40.6759 29.4508 40.7938 29.4383 41.042 29.5687ZM34.5004 30.6983C35.5059 31.0148 36.6416 31.7099 37.0389 32.2623C37.1878 32.4671 37.194 32.4795 37.0947 32.6968C36.7844 33.4167 36.3375 34.5153 36.2444 34.7946C36.1824 34.9746 36.1265 35.1235 36.1203 35.1235C36.1078 35.1235 35.7976 34.9808 35.4252 34.807C34.6245 34.4284 33.6004 34.025 32.8246 33.7829C32.5205 33.6836 32.2412 33.5781 32.2164 33.5408C32.1357 33.4415 32.2226 32.2809 32.3591 31.7223C32.5515 30.9279 32.7067 30.6052 32.9425 30.5307C33.228 30.4438 33.9294 30.5183 34.5004 30.6983ZM48.6574 30.599C48.8995 30.7976 49.2408 32.2002 49.2408 33.0195V33.5533L48.7009 33.7581C47.7885 34.0994 46.2555 34.9311 45.5852 35.4462L45.4362 35.558L45.0825 34.6146C44.8839 34.0932 44.6107 33.4105 44.4742 33.094L44.226 32.523L44.3998 32.2809C45.0701 31.3499 47.0872 30.4128 48.2106 30.4997C48.4092 30.5183 48.614 30.5617 48.6574 30.599ZM30.702 34.3787C31.6268 34.4532 32.3902 34.6394 33.4701 35.0552C34.0473 35.2787 35.7169 36.0048 35.81 36.0793C35.8161 36.0855 35.7417 36.3958 35.6424 36.7807C35.4376 37.6061 35.2762 38.6302 35.2762 39.1453C35.2762 39.3563 35.3196 39.8404 35.3693 40.2314C35.7541 43.1547 36.9023 46.7049 38.0319 48.4675C38.1747 48.6909 38.3112 48.902 38.336 48.9454C38.4478 49.1254 36.5919 48.5979 35.5741 48.1572C34.0721 47.4993 31.8999 45.9414 30.851 44.756C29.1566 42.8444 27.9649 39.7101 27.5801 36.1476C27.4498 34.9621 27.6608 34.5401 28.4677 34.3787C28.8463 34.3105 29.8021 34.3042 30.702 34.3787ZM52.8034 34.4408C53.3185 34.5153 53.604 34.6456 53.753 34.8628C53.9206 35.1173 53.8895 36.2593 53.6847 37.4509C53.2502 39.9522 52.4372 42.1493 51.3448 43.7816C50.0787 45.6808 47.3602 47.6234 44.8653 48.4241C44.2508 48.6226 42.6682 48.995 42.6309 48.9516C42.6185 48.9392 42.7799 48.7158 42.9784 48.4489C44.2073 46.829 45.5169 43.9305 46.1066 41.5162C46.2245 41.0632 46.2803 40.6225 46.3052 40.0577C46.3424 39.1578 46.2679 38.6178 45.9389 37.3082L45.7466 36.5448L45.8893 36.4393C46.3113 36.129 47.4348 35.4462 48.0616 35.1297C48.8001 34.7573 49.2098 34.6022 49.7995 34.4718C50.2214 34.3787 52.2261 34.3601 52.8034 34.4408ZM31.3785 46.6242C32.2909 47.369 32.9736 47.8593 33.8301 48.3682C34.4755 48.7592 35.8286 49.3984 36.0085 49.3984C36.0458 49.3984 36.0831 49.4233 36.0831 49.4481C36.0831 49.473 35.6113 49.5288 35.0403 49.5723C34.4694 49.6095 32.8929 49.7461 31.5523 49.8702C29.591 50.0564 28.809 50.0998 27.6422 50.1061C26.3202 50.1122 26.165 50.0998 26.0037 50.0005C25.8485 49.895 25.8299 49.8515 25.8609 49.6654C26.0037 48.784 28.1325 47.0586 30.1558 46.1835C30.3296 46.109 30.5158 46.0532 30.5717 46.047C30.6337 46.047 30.9937 46.3076 31.3785 46.6242ZM51.86 46.3014C52.8902 46.6366 53.8399 47.2262 54.5847 47.9772C55.1556 48.5482 55.4412 49.0757 55.4908 49.6281C55.5219 49.9571 55.5094 50.0129 55.3853 50.1308C55.0749 50.4163 54.1191 50.3915 51.4131 50.0254C49.0422 49.7026 47.6519 49.5412 46.4045 49.4481C45.8459 49.4047 45.3928 49.355 45.3928 49.3364C45.3928 49.3116 45.6348 49.2061 45.9389 49.0882C47.3107 48.573 48.8995 47.6048 50.2463 46.469C50.749 46.0408 50.7614 46.0345 51.0407 46.078C51.1959 46.1028 51.5621 46.2021 51.86 46.3014Z" fill="#FCFBF7" stroke="#FCFBF7" stroke-width="1.33333"/>
</svg>
