<svg width="80" height="80" viewBox="0 0 80 80" fill="none" xmlns="http://www.w3.org/2000/svg">
<path d="M19.6667 59.0006C8.80507 48.1391 8.80507 30.5289 19.6667 19.6673V19.6673C30.5283 8.80572 48.1384 8.80572 59 19.6673L59.6667 20.334C70.8965 31.5638 70.8965 49.7709 59.6667 61.0007L40.6667 80.0007L19.6667 59.0006Z" fill="#F78712"/>
<path d="M33.745 22.1386C33.5845 22.2188 33.3896 22.4252 33.3094 22.5857C32.8737 23.5142 34.1118 24.3855 34.834 23.6518C35.2582 23.2391 35.2238 22.6659 34.7652 22.2876C34.3755 21.9552 34.1691 21.9208 33.745 22.1386Z" fill="#FCFBF7"/>
<path d="M39.1225 23.742C37.9876 24.2235 37.4259 24.7393 36.8642 25.8169C36.612 26.3213 36.5662 26.5506 36.5547 27.4333C36.5547 28.3733 36.5891 28.5338 36.933 29.2331C37.7813 30.9527 39.7072 31.8468 41.4955 31.3424C44.4874 30.4941 45.4848 26.8486 43.3182 24.682C42.2177 23.57 40.4523 23.1803 39.1225 23.742ZM41.4038 25.645C41.9311 25.9086 42.1718 26.1723 42.4011 26.7225C42.6418 27.2957 42.6189 27.7887 42.3323 28.3848C41.5986 29.898 39.4435 29.9095 38.6754 28.3962C37.7813 26.6652 39.6613 24.7623 41.4038 25.645Z" fill="#FCFBF7"/>
<path d="M24.2866 25.9425L24 26.2177V39.8136V53.421L24.3324 53.7535L24.6649 54.0859H40.5075H56.35L56.6825 53.7535C57.0608 53.3752 57.0837 53.1688 56.843 52.1944C56.4761 50.6124 55.7539 49.4431 54.0917 47.6892C52.5212 46.0384 51.9251 45.7174 49.9419 45.4882C47.7639 45.236 47.3397 44.9494 46.5831 43.2298C45.1617 39.9856 44.7834 39.6073 41.9977 38.5985C41.2182 38.3119 40.8055 38.0941 40.5075 37.796C40.2897 37.5667 39.5904 36.4891 38.9599 35.4001C37.7448 33.3137 37.0913 32.4998 36.266 32.0756C35.9908 31.938 34.9133 31.5483 33.8701 31.2044C31.692 30.5051 31.4284 30.3217 30.7749 28.946C29.8005 26.9169 27.7715 25.6559 25.4559 25.6559C24.6649 25.6559 24.5273 25.6903 24.2866 25.9425ZM26.9117 27.8455C27.8517 28.1894 28.6313 28.9575 29.17 30.058C29.663 31.0553 30.3164 31.8119 31.0501 32.2361C31.3023 32.3851 32.3569 32.7749 33.4001 33.1073C34.4433 33.4398 35.4521 33.8296 35.6584 33.9786C35.8991 34.162 36.5296 35.0906 37.355 36.5006C39.1433 39.5041 39.3267 39.6761 41.8831 40.6275C43.4651 41.2122 43.7058 41.4644 44.5082 43.3215C44.8407 44.101 45.2648 44.9837 45.4597 45.2818C46.2507 46.5428 47.3397 47.1045 49.449 47.3797C50.2285 47.4828 51.0424 47.6433 51.2488 47.7465C51.7073 47.9643 53.5529 49.8788 54.0917 50.6812C54.3095 51.0137 54.5617 51.4722 54.6649 51.7129L54.8369 52.1371H51.6615H48.4746L46.7551 51.0481C44.8521 49.8444 44.3592 49.3858 43.5797 48.056C42.9033 46.8982 42.3875 46.3021 41.585 45.7747C40.5533 45.0869 39.8655 44.9035 37.7448 44.743C35.5896 44.5825 35.1196 44.4335 34.2598 43.6425C33.9503 43.3559 33.5491 42.7942 33.274 42.2668C32.4715 40.7192 31.1188 39.5385 29.6744 39.1258C29.2388 38.9997 26.5334 38.6214 26.0405 38.6099C25.9832 38.6099 25.9488 36.1338 25.9488 33.1073C25.9488 28.3499 25.9717 27.6048 26.1208 27.6048C26.2125 27.6048 26.5678 27.7079 26.9117 27.8455ZM27.5995 40.7307C29.812 41.0058 30.6832 41.5446 31.5774 43.2069C32.1735 44.3189 32.8384 45.0869 33.6637 45.6372C34.7184 46.325 35.4406 46.5199 37.3894 46.646C40.1865 46.8179 40.7597 47.1504 42.1009 49.317C42.9033 50.6124 43.5109 51.2773 44.3248 51.7817C44.5541 51.9193 44.749 52.0683 44.749 52.0913C44.749 52.1142 40.5189 52.1371 35.3489 52.1371H25.9488V46.3479C25.9488 41.7968 25.9832 40.5588 26.0978 40.5588C26.1666 40.5588 26.8544 40.639 27.5995 40.7307Z" fill="#FCFBF7"/>
<path d="M47.1563 26.5377C46.1131 26.916 46.308 28.4062 47.397 28.4062C47.9358 28.4062 48.3026 28.0165 48.3026 27.4777C48.3026 26.893 47.6492 26.3657 47.1563 26.5377Z" fill="#FCFBF7"/>
<path d="M53.1176 27.9835C52.8998 28.0523 52.4527 28.3733 52.1202 28.6942C51.0885 29.703 50.928 30.9641 51.6732 32.2136C52.189 33.0848 52.8998 33.4975 53.9773 33.5434C54.6766 33.5778 54.883 33.5434 55.3759 33.3027C56.3159 32.8212 56.8776 32.0187 56.9808 30.987C57.1527 29.3133 55.8 27.8115 54.1608 27.8459C53.8054 27.8574 53.3354 27.9147 53.1176 27.9835ZM54.7798 30.0699C55.3415 30.6201 54.9747 31.6175 54.2066 31.6175C53.6564 31.6175 53.4729 31.5258 53.2781 31.136C52.7851 30.1845 54.0232 29.3018 54.7798 30.0699Z" fill="#FCFBF7"/>
<path d="M45.3981 31.6628C44.5498 31.9724 43.7245 32.7978 43.4149 33.6461C43.3347 33.8868 43.2659 34.4371 43.2659 34.8841C43.2545 35.9273 43.5754 36.6496 44.4008 37.3832C46.8999 39.6301 50.8089 37.131 49.8574 33.8868C49.6282 33.0729 48.8143 32.1443 48.0118 31.7775C47.3469 31.4565 46.1203 31.4106 45.3981 31.6628ZM47.2208 33.5544C48.0004 33.9097 48.2984 34.8612 47.8399 35.5949C47.2208 36.6152 45.7764 36.5235 45.295 35.4344C45.123 35.0332 45.1001 34.8612 45.1918 34.5058C45.3294 34.0014 45.7191 33.6002 46.1891 33.4512C46.6591 33.3136 46.6935 33.3136 47.2208 33.5544Z" fill="#FCFBF7"/>
<path d="M48.6658 39.8244C47.7029 40.2257 47.9895 41.5898 49.0441 41.5898C49.8695 41.5898 50.2937 40.7071 49.7893 40.0766C49.5141 39.7213 49.1129 39.6295 48.6658 39.8244Z" fill="#FCFBF7"/>
</svg>
