<svg width="81" height="88" viewBox="0 0 81 88" fill="none" xmlns="http://www.w3.org/2000/svg">
<path d="M39.563 81.7684L41.3307 83.5362L43.0985 81.7684L62.0985 62.7684C74.3046 50.5623 74.3046 30.7723 62.0985 18.5662L61.4318 17.8996C49.5939 6.06164 30.4009 6.06164 18.563 17.8996C6.72505 29.7375 6.72505 48.9305 18.563 60.7684L39.563 81.7684Z" fill="#C70039" stroke="#F78712" stroke-width="5"/>
<g clip-path="url(#clip0_3125_849)">
<path fill-rule="evenodd" clip-rule="evenodd" d="M40.7039 28.6389C41.507 28.6513 42.3687 28.6645 43.0236 28.1823C44.2685 27.2491 45.6471 27.4638 47.0594 27.844C48.7232 28.2978 50.2615 28.5172 51.9882 28.511C52.2264 28.5064 52.4417 28.505 52.6604 28.5372C52.7636 28.5524 52.8675 28.5751 52.9749 28.6084C54.4602 29.2579 55.0806 30.2151 55.7645 31.5994L55.8734 31.822C56.3337 32.7461 56.4594 33.5311 56.3732 34.5486C56.3214 34.7881 56.2743 35.0152 56.2605 35.2598L56.2603 35.4916L56.2593 35.7564L56.2599 36.0383L56.2595 36.6313C56.2601 36.9425 56.2607 37.2537 56.2601 37.5648C56.2598 37.7686 56.2595 37.9722 56.2598 38.1759L56.2599 38.4668L56.2593 38.751L56.2603 39.0121C56.2603 39.0833 56.2611 39.1545 56.2634 39.2257C56.2654 39.2898 56.2685 39.3538 56.2732 39.4177L56.3732 39.5151L56.3743 39.5373C56.3817 39.6931 56.3856 39.7745 56.3856 39.8559C56.3856 39.9373 56.3817 40.0188 56.3743 40.1746L56.3732 40.1968C56.2732 40.2941 56.2732 40.2941 56.2591 40.5651L56.2572 40.9322C56.2554 41.1448 56.254 41.3574 56.2535 41.57L56.2521 42.0281C56.2509 42.3458 56.2498 42.6636 56.2494 42.9813C56.2492 43.273 56.2484 43.5646 56.2472 43.8562L56.2451 44.2228C56.2429 44.5451 56.2414 44.8672 56.241 45.1894L56.2404 45.6517L56.2387 45.8797L56.2374 46.0673L56.2369 46.3158L56.2377 46.5198V46.5313C56.237 46.7196 56.2369 46.8094 56.2422 46.8989C56.2468 46.9785 56.256 47.0579 56.2732 47.2062V47.2082C56.4688 47.5985 56.6755 47.7925 57.0415 48.036C57.2875 48.1873 57.2875 48.1873 57.4725 48.3768C57.4495 48.7348 57.4378 48.9167 57.388 49.0881C57.3791 49.119 57.3687 49.1496 57.357 49.1808C57.3402 49.2256 57.3201 49.2717 57.2961 49.3219C57.2412 49.4363 57.1657 49.5723 57.0591 49.7639L57.0568 49.7683C57.0056 49.8683 56.9549 49.9683 56.9047 50.0687C56.8615 50.1552 56.819 50.242 56.7772 50.3293C56.7124 50.4652 56.6463 50.6005 56.5789 50.7353L56.4794 50.9331C56.4206 51.0586 56.3594 51.1829 56.2954 51.3058C56.1955 51.4637 56.1453 51.5428 56.0733 51.5904C56.067 51.5946 56.0606 51.5985 56.0539 51.6022C56.0222 51.6199 55.9853 51.6329 55.9384 51.6444C55.882 51.6583 55.8109 51.6703 55.7164 51.6862C55.1661 51.5277 54.885 51.4467 54.6422 51.3037C54.3886 51.1544 54.177 50.9375 53.7444 50.4941C52.1422 48.8623 52.0134 46.9167 52.0453 44.7741C52.0486 44.5438 52.0513 44.3136 52.0534 44.0834L52.0593 43.347C52.0628 42.9731 52.0671 42.5991 52.0725 42.2251L52.0753 42.047C51.8184 41.9913 51.6284 41.9501 51.4731 41.9094C51.3335 41.8729 51.2216 41.8368 51.1142 41.791C51.0141 41.7482 50.9177 41.6971 50.8062 41.6293C50.751 41.5958 50.6922 41.5581 50.6274 41.5155C50.5868 41.4886 50.5439 41.4599 50.4977 41.4289C50.4204 41.3767 50.3348 41.3182 50.2381 41.2521L50.0263 41.1037C49.446 40.7017 48.9177 40.291 48.4335 39.78L48.2772 39.6125L48.2749 39.6307C48.235 39.9778 48.2071 40.222 48.1864 40.4668C48.1378 41.0391 48.1291 41.6145 48.1001 43.5117L48.0984 43.6515L48.0978 43.6848C48.0947 43.922 48.0915 44.1593 48.087 44.3965C48.0839 44.5586 48.0802 44.7206 48.0753 44.8827L48.067 45.1218L48.0605 45.2941C47.9893 47.2091 47.928 48.8508 49.2738 50.4379L49.2749 50.4392C49.3204 50.4847 49.3542 50.5185 49.3815 50.5469C49.4093 50.5759 49.4301 50.5993 49.4494 50.6237C49.4854 50.6689 49.5166 50.7176 49.5766 50.8113C49.6338 51.1275 49.6084 51.2513 49.4263 51.5203C49.1463 51.7082 48.9468 51.7352 48.6102 51.7406L48.3838 51.7382C48.131 51.7404 47.8786 51.7419 47.6258 51.7409C47.445 51.74 47.2644 51.7396 47.0836 51.7399C46.7069 51.7409 46.3303 51.7413 45.9535 51.7399C45.6856 51.7386 45.4177 51.7377 45.1497 51.7375C44.9275 51.7373 44.7053 51.7375 44.4832 51.7386L43.9544 51.7404L43.7066 51.7408L43.3361 51.7406L42.789 51.7395C42.5264 51.7409 42.2638 51.742 42.0012 51.7403L41.7609 51.7382C41.4874 51.7411 41.2542 51.727 40.9808 51.6878C40.7697 51.4876 40.6984 51.3589 40.6197 51.085L40.5853 50.8467L40.543 50.5665L40.4998 50.2575L40.3987 49.5743C40.3246 49.0604 40.2482 48.5469 40.1691 48.0337L39.9139 46.3696L39.8543 45.9789L39.8182 45.7388C39.7979 45.6079 39.7785 45.4769 39.7598 45.346C39.7327 45.1555 39.7069 44.9649 39.6815 44.7737L39.4816 42.9234H35.3837V42.9253C35.3874 43.1254 35.3891 43.2193 35.3837 43.3128C35.3818 43.3448 35.379 43.3768 35.3751 43.413C35.3692 43.4692 35.3608 43.5354 35.3491 43.6276L35.3485 43.6317L35.2734 44.2161L35.2463 44.4305C35.1889 44.882 35.1363 45.3339 35.0842 45.7859C35.0405 46.1671 34.9962 46.5471 34.9359 46.9262C34.7317 48.1296 34.9808 48.8442 35.6427 49.8894C35.722 50.0128 35.8003 50.1358 35.8762 50.2602C35.9477 50.3772 36.0172 50.4955 36.0833 50.6166C36.1985 50.9403 36.2358 51.1875 36.0835 51.5089C35.9131 51.6201 35.8266 51.6764 35.7315 51.7055C35.6339 51.7355 35.527 51.7368 35.3103 51.7395L35.0742 51.7367C34.8119 51.7383 34.5497 51.7393 34.2876 51.7379C34.0997 51.7367 33.912 51.7361 33.7242 51.7361C33.3332 51.7367 32.9422 51.7367 32.5513 51.7349C32.042 51.732 31.5329 51.7301 31.0236 51.7313C30.6267 51.7322 30.2298 51.7324 29.833 51.7316L29.2649 51.73L28.9492 51.7305L28.7261 51.7303L28.4465 51.7292L28.1969 51.7272C27.8381 51.7292 27.5062 51.7575 27.1899 51.5714C27.1347 51.4875 27.1058 51.4434 27.0877 51.3953C27.0675 51.3421 27.0609 51.2841 27.047 51.1618L27.0428 50.881L27.0359 50.5613L27.034 50.2137C27.0314 49.9679 27.0293 49.7221 27.0273 49.4764C27.0269 49.2158 27.0264 48.9555 27.0236 48.695C27.0225 48.5703 27.0209 48.4456 27.0186 48.3209C26.99 46.7662 27.0923 45.4043 27.6128 43.9278C28.2392 42.1583 28.4725 40.0341 28.0374 38.2005C27.9072 37.6652 27.8638 37.1645 27.8566 36.614L27.8562 36.3137C27.8517 35.496 27.9349 34.7784 28.2127 34.0051C28.2404 33.9385 28.2685 33.8721 28.2966 33.8058C28.37 33.6319 28.4434 33.4585 28.5092 33.2827H28.5871L28.8869 32.6984L28.687 32.601L27.9874 33.2827H28.1596C27.2961 34.3288 26.838 35.4265 26.8376 36.8789C26.8388 37.012 26.8399 37.1451 26.8403 37.2782C26.8407 37.3627 26.8407 37.4474 26.8403 37.532L26.8376 38.136C26.837 38.4023 26.837 38.6685 26.8374 38.9348V39.007C26.8386 39.5372 26.8397 40.0672 26.837 40.5974C26.8362 40.719 26.8356 40.8406 26.8356 40.9623V41.105L26.8378 41.4928L26.8374 41.6865L26.8362 41.8825L26.8372 42.2362C26.778 42.5942 26.6834 42.7088 26.3882 42.9234C26.2342 42.9564 26.158 42.9726 26.0823 42.9721C26.0546 42.972 26.0269 42.9696 25.9954 42.965C25.9427 42.9574 25.8797 42.9435 25.7885 42.9234C25.5531 42.6991 25.4924 42.5621 25.45 42.2418L25.4482 41.8961C25.4461 41.695 25.4445 41.4941 25.4447 41.293C25.4451 41.1484 25.4451 41.0039 25.4447 40.8594C25.4439 40.7003 25.4434 40.5413 25.4432 40.3822C25.443 40.2379 25.443 40.0937 25.4434 39.9493L25.4441 39.4603L25.4439 39.1216L25.443 38.9238L25.442 38.7742C25.4397 38.4682 25.4385 38.1623 25.4387 37.8563L25.4391 37.4134C25.4344 36.8779 25.4373 36.3486 25.4887 35.8146C25.8145 34.105 26.6795 32.5744 28.1174 31.5192L28.3872 31.3351C28.9584 30.9327 29.5153 30.6981 30.1863 30.5073C30.6628 30.3734 31.0806 30.2371 31.5044 29.9778C33.569 28.6845 35.7796 28.6493 38.1608 28.6455C38.4378 28.6451 38.7148 28.6444 38.9918 28.6433C39.3022 28.6421 39.6126 28.6403 39.923 28.6379L40.3418 28.635C40.4604 28.6351 40.5815 28.637 40.7039 28.6389ZM36.3325 29.9337L36.7299 29.9354C36.8739 29.936 37.018 29.937 37.1621 29.9383L37.5181 29.942L37.7601 29.945C38.1126 29.949 38.4649 29.9508 38.8175 29.9527C39.5054 29.9568 40.1932 29.9635 40.8809 29.9717C40.7792 30.2237 40.6759 30.4685 40.5522 30.7112C40.2222 31.4106 40.1331 32.007 40.1313 32.7714L40.1295 33.0295C40.1512 34.1328 40.6113 35.3131 41.3861 36.1307C41.8435 36.5324 42.3656 36.851 42.8799 37.1779L43.1173 37.3297C43.5472 37.6043 43.9778 37.8774 44.41 38.1483C44.6822 38.319 44.9527 38.4913 45.2197 38.6695L45.4973 38.8517L45.7203 39.002C45.8405 39.0596 45.9508 39.102 46.0632 39.1367C46.1832 39.1737 46.3053 39.202 46.4443 39.2306L46.6903 39.282L46.8779 39.3203L46.8726 39.6779C46.8563 40.7937 46.8443 41.9097 46.8365 43.0258C46.8324 43.5994 46.8267 44.1731 46.8176 44.7466C46.8088 45.301 46.8041 45.8553 46.8022 46.4098C46.8006 46.6205 46.7977 46.8312 46.7934 47.0418C46.7674 48.3547 46.8435 49.1736 47.6775 50.2271V50.4218H44.9789C44.858 50.1865 44.8326 49.9587 44.8046 49.707L44.7887 49.5709L44.7637 49.3712C44.7372 49.1595 44.7112 48.9477 44.6853 48.7359C44.5781 47.8665 44.466 46.9998 44.3255 46.1348C44.2546 45.6903 44.1956 45.2441 44.1356 44.798C44.0373 44.0787 43.9225 43.3653 43.7849 42.6522C43.6758 42.0691 43.6102 41.4837 43.5618 40.893C43.5161 40.4132 43.3953 40.047 43.1797 39.6125C43.0505 39.6102 42.9211 39.6092 42.7917 39.6095C42.6878 39.6097 42.5839 39.6107 42.4801 39.6125L42.3801 39.7099V41.7549H35.4836L35.3837 39.9046C35.2387 39.7297 35.1728 39.6503 35.0876 39.6138C35.0166 39.5835 34.9324 39.583 34.7777 39.582C34.7125 39.5824 34.6612 39.5826 34.619 39.585C34.5611 39.5882 34.5204 39.5955 34.4846 39.6124C34.4615 39.6232 34.4404 39.638 34.418 39.6582C34.3815 39.6913 34.3416 39.7388 34.2842 39.8072C34.2666 39.9515 34.2587 40.0179 34.2552 40.0982C34.2522 40.1667 34.2526 40.2452 34.2534 40.3908L34.2463 40.7593L34.2436 40.9563C34.22 42.5007 34.0787 44.0197 33.8844 45.5527L33.797 46.2558L33.7694 46.4877C33.7554 46.6068 33.7419 46.7258 33.7287 46.845C33.699 47.0891 33.6623 47.3324 33.6186 47.5746C33.4579 48.6838 33.8862 49.3684 34.4542 50.2768L34.4842 50.3244V50.4218H31.4856C31.3127 48.806 31.153 47.1966 31.0505 45.5753L31.0288 45.2389L31.0109 44.9444C31.0011 44.8394 30.9875 44.7367 30.9711 44.6348L30.9619 44.5789C30.9572 44.5511 30.9521 44.5233 30.947 44.4955L30.9271 44.391C30.914 44.3242 30.9002 44.2572 30.8859 44.1894L30.8744 43.9492C30.8697 43.8452 30.8654 43.7412 30.8621 43.6372C30.8116 42.2003 30.3962 40.9358 29.8617 39.6067C29.7644 39.3627 29.6709 39.1173 29.58 38.8711L29.5298 38.7346C29.4962 38.6427 29.463 38.5506 29.43 38.4585C29.3818 38.324 29.3342 38.1893 29.2867 38.0544L29.2114 37.8513C28.7493 36.4093 29.1731 34.7644 29.8052 33.4409C30.1486 32.8127 30.5642 32.3168 31.0858 31.822L31.2647 31.6382C31.6754 31.246 32.1402 30.9869 32.6476 30.7325L32.8336 30.6378C33.9614 30.0992 35.0859 29.9135 36.3325 29.9337ZM51.148 29.6503C49.7608 29.6682 48.5142 29.5115 47.1817 29.1305C46.008 28.7912 44.6954 28.4584 43.6197 29.203L43.3797 29.3874C42.8137 29.7901 42.3017 30.1944 41.8804 30.7447C41.2666 31.6756 41.1337 32.6638 41.3557 33.7453C41.7666 34.7863 42.3333 35.4989 43.2967 36.1189L43.5608 36.2833L44.1195 36.6359C44.394 36.8062 44.6683 36.9763 44.9408 37.1495C45.1048 37.2539 45.2694 37.3576 45.4345 37.4605L45.666 37.604C46.0631 37.8574 46.3758 38.0365 46.8474 38.119C47.0097 38.0873 47.0922 38.0711 47.1659 38.0368C47.1762 38.0319 47.1863 38.0267 47.1965 38.0211C47.2186 38.0089 47.2408 37.9944 47.2652 37.9768C47.3115 37.9434 47.3657 37.8986 47.4418 37.8356L47.4442 37.8334C47.5071 37.7552 47.5563 37.6939 47.5949 37.637C47.6199 37.6 47.6406 37.565 47.6576 37.5283C47.6816 37.4768 47.6984 37.422 47.7105 37.3547C47.7377 37.204 47.7409 36.9896 47.7468 36.6047L47.7446 36.2662C47.7487 35.9056 47.7521 35.5452 47.7525 35.1847C47.7525 34.81 47.7546 34.4355 47.7576 34.0608L47.7634 33.3508L47.7638 33.0093L47.7649 32.696C47.7649 32.6789 47.7646 32.6619 47.7642 32.6452C47.7634 32.6176 47.762 32.5906 47.7607 32.5639C47.7521 32.3949 47.7445 32.2437 47.8774 32.1141C48.1905 32.0463 48.4553 31.9495 48.7465 32.1103C48.8306 32.2931 48.873 32.3854 48.8954 32.4821C48.9185 32.5805 48.921 32.6835 48.9261 32.8913L48.928 33.1256C48.9337 33.3739 48.939 33.6221 48.9423 33.8704C48.9446 34.0431 48.9473 34.2159 48.9507 34.3886C48.9589 34.7877 48.9667 35.1868 48.9725 35.5859L48.9769 35.912L49.2031 35.9086L49.5012 35.9059C50.424 35.8952 50.9208 36.2048 51.6204 36.7717C52.21 37.2607 52.7958 37.7265 53.4549 38.1241L53.6557 38.2431C54.0561 38.4827 54.4067 38.6587 54.8739 38.7361V38.7324L54.9176 36.9041C54.9235 36.6431 54.9295 36.3822 54.936 36.1212L54.9422 35.8736C54.9453 35.7264 54.9496 35.5799 54.9553 35.4333C54.9604 35.3008 54.9666 35.1684 54.9739 35.0355C55.0791 34.7282 55.0869 34.4654 55.0874 34.1435L55.0863 33.9157C55.09 33.1875 54.9448 32.72 54.6084 32.0765L54.4616 31.7976C54.2014 31.287 53.9466 30.7932 53.5504 30.3689C52.837 29.7374 52.0837 29.6435 51.148 29.6503ZM41.361 42.9192L41.6742 42.9174L41.9318 42.9149L42.1767 42.914L42.4034 42.9124C42.5006 42.9185 42.5443 42.9212 42.5807 42.9386C42.6103 42.9529 42.6351 42.977 42.68 43.0208C42.6995 43.1324 42.7175 43.2441 42.7343 43.356C42.7509 43.4653 42.7665 43.5748 42.7815 43.6842L42.8619 44.2647L42.9049 44.5789C42.9492 44.899 42.9939 45.2191 43.0388 45.5391L43.0735 45.7868C43.0968 45.9508 43.1204 46.1147 43.1444 46.2785C43.2018 46.6684 43.2618 47.0579 43.3239 47.4472L43.3587 47.6677L43.4472 48.2175C43.4735 48.3805 43.5001 48.5436 43.527 48.7066L43.5877 49.0844L43.6415 49.4124C43.6803 49.7472 43.6799 50.0855 43.6795 50.4227V50.5192H41.8804C41.7363 50.0283 41.635 49.6056 41.5657 49.1068L41.536 48.8977C41.5046 48.6734 41.4738 48.4491 41.4432 48.2247L41.3777 47.7568L41.2454 46.8011C41.1939 46.4262 41.1413 46.0514 41.0887 45.6767C41.042 45.3453 40.9957 45.0139 40.9497 44.6824L40.8977 44.3142L40.8508 43.9737L40.8097 43.6782C40.7823 43.4242 40.7755 43.1786 40.781 42.9234L41.361 42.9192ZM54.8745 41.8567L54.8739 41.6575C54.8639 41.6575 54.8639 41.6575 54.2922 41.8496L53.63 42.0626L53.3746 42.1444L53.3684 42.5102L53.3645 42.7568L53.3588 43.1679C53.3567 43.3439 53.3546 43.52 53.3528 43.6961L53.3502 43.9519C53.3483 44.1995 53.346 44.447 53.3434 44.6946C53.3416 44.793 53.3391 44.8919 53.3362 44.9913C53.3332 45.0972 53.3298 45.2035 53.326 45.3103C53.2999 46.0872 53.2732 46.882 53.4201 47.6358C53.725 48.7175 54.4094 49.6268 55.3736 50.2271C55.6132 49.8395 55.8335 49.4627 55.9858 49.0341C55.9831 48.9755 55.9809 48.9296 55.977 48.8917C55.9724 48.8464 55.9651 48.8123 55.9515 48.7809C55.9413 48.7575 55.9274 48.7357 55.9084 48.7119C55.8769 48.6725 55.831 48.6278 55.7633 48.562L55.7609 48.5594L55.6206 48.439C55.0484 47.8174 54.9164 46.9492 54.902 46.147L54.9032 45.8038C54.8985 45.4334 54.8944 45.0632 54.8934 44.6927C54.893 44.4362 54.8915 44.1798 54.8891 43.9232C54.8819 43.2344 54.8764 42.5456 54.8745 41.8567ZM29.3867 42.047C29.5985 42.3565 29.6208 42.4788 29.652 42.8389L29.6805 43.1487L29.7084 43.4853L29.7398 43.8355L29.7888 44.3934L29.8365 44.9502L29.96 46.3513L30.0262 47.1115C30.0647 47.5503 30.1045 47.989 30.1465 48.4275L30.175 48.7244C30.1923 48.9051 30.2101 49.0858 30.2281 49.2665L30.2513 49.5092L30.272 49.7171C30.287 49.9445 30.2866 50.1727 30.2862 50.4008V50.5192H28.2873C28.1984 47.3562 28.1709 46.3715 28.4042 45.4494C28.5098 45.0325 28.6687 44.6285 28.8994 44.0417C29.0488 43.6292 29.1394 43.2051 29.2305 42.7774L29.2801 42.5508L29.3162 42.3824C29.34 42.2707 29.3635 42.1589 29.3867 42.047ZM50.7744 37.5851C50.5288 37.3466 50.2942 37.1186 49.9549 37.009C49.5883 36.9851 49.3782 37.0796 49.0768 37.2753L49.0756 37.2768C48.9505 37.4597 48.9042 37.5276 48.8787 37.6024C48.8639 37.6461 48.8558 37.6921 48.8433 37.7648V37.7665C48.8359 38.1684 48.8636 38.417 49.1377 38.7178C50.1251 39.7009 51.4853 40.9972 52.9749 41.0184C53.8142 40.9782 54.2949 40.6958 54.8739 40.0994C53.4531 39.5265 52.0235 38.7293 50.8939 37.7003C50.8535 37.6619 50.8138 37.6234 50.7744 37.5851Z" fill="#FCFBF7"/>
<path d="M53.076 33.2309C53.076 33.5267 52.8299 33.7665 52.5263 33.7665C52.2227 33.7665 51.9766 33.5267 51.9766 33.2309C51.9766 32.9351 52.2227 32.6953 52.5263 32.6953C52.8299 32.6953 53.076 32.9351 53.076 33.2309Z" fill="#FCFBF7"/>
<path fill-rule="evenodd" clip-rule="evenodd" d="M40.7039 28.6389C41.507 28.6513 42.3687 28.6645 43.0236 28.1823C44.2685 27.2491 45.6471 27.4638 47.0594 27.844C48.7232 28.2978 50.2615 28.5172 51.9882 28.511C52.2264 28.5064 52.4417 28.505 52.6604 28.5372C52.7636 28.5524 52.8675 28.5751 52.9749 28.6084C54.4602 29.2579 55.0806 30.2151 55.7645 31.5994L55.8734 31.822C56.3337 32.7461 56.4594 33.5311 56.3732 34.5486C56.3214 34.7881 56.2743 35.0152 56.2605 35.2598L56.2603 35.4916L56.2593 35.7564L56.2599 36.0383L56.2595 36.6313C56.2601 36.9425 56.2607 37.2537 56.2601 37.5648C56.2598 37.7686 56.2595 37.9722 56.2598 38.1759L56.2599 38.4668L56.2593 38.751L56.2603 39.0121C56.2603 39.0833 56.2611 39.1545 56.2634 39.2257C56.2654 39.2898 56.2685 39.3538 56.2732 39.4177L56.3732 39.5151L56.3743 39.5373C56.3817 39.6931 56.3856 39.7745 56.3856 39.8559C56.3856 39.9373 56.3817 40.0188 56.3743 40.1746L56.3732 40.1968C56.2732 40.2941 56.2732 40.2941 56.2591 40.5651L56.2572 40.9322C56.2554 41.1448 56.254 41.3574 56.2535 41.57L56.2521 42.0281C56.2509 42.3458 56.2498 42.6636 56.2494 42.9813C56.2492 43.273 56.2484 43.5646 56.2472 43.8562L56.2451 44.2228C56.2429 44.5451 56.2414 44.8672 56.241 45.1894L56.2404 45.6517L56.2387 45.8797L56.2374 46.0673L56.2369 46.3158L56.2377 46.5198V46.5313C56.237 46.7196 56.2369 46.8094 56.2422 46.8989C56.2468 46.9785 56.256 47.0579 56.2732 47.2062V47.2082C56.4688 47.5985 56.6755 47.7925 57.0415 48.036C57.2875 48.1873 57.2875 48.1873 57.4725 48.3768C57.4495 48.7348 57.4378 48.9167 57.388 49.0881C57.3791 49.119 57.3687 49.1496 57.357 49.1808C57.3402 49.2256 57.3201 49.2717 57.2961 49.3219C57.2412 49.4363 57.1657 49.5723 57.0591 49.7639L57.0568 49.7683C57.0056 49.8683 56.9549 49.9683 56.9047 50.0687C56.8615 50.1552 56.819 50.242 56.7772 50.3293C56.7124 50.4652 56.6463 50.6005 56.5789 50.7353L56.4794 50.9331C56.4206 51.0586 56.3594 51.1829 56.2954 51.3058C56.1955 51.4637 56.1453 51.5428 56.0733 51.5904C56.067 51.5946 56.0606 51.5985 56.0539 51.6022C56.0222 51.6199 55.9853 51.6329 55.9384 51.6444C55.882 51.6583 55.8109 51.6703 55.7164 51.6862C55.1661 51.5277 54.885 51.4467 54.6422 51.3037C54.3886 51.1544 54.177 50.9375 53.7444 50.4941C52.1422 48.8623 52.0134 46.9167 52.0453 44.7741C52.0486 44.5438 52.0513 44.3136 52.0534 44.0834L52.0593 43.347C52.0628 42.9731 52.0671 42.5991 52.0725 42.2251L52.0753 42.047C51.8184 41.9913 51.6284 41.9501 51.4731 41.9094C51.3335 41.8729 51.2216 41.8368 51.1142 41.791C51.0141 41.7482 50.9177 41.6971 50.8062 41.6293C50.751 41.5958 50.6922 41.5581 50.6274 41.5155C50.5868 41.4886 50.5439 41.4599 50.4977 41.4289C50.4204 41.3767 50.3348 41.3182 50.2381 41.2521L50.0263 41.1037C49.446 40.7017 48.9177 40.291 48.4335 39.78L48.2772 39.6125L48.2749 39.6307C48.235 39.9778 48.2071 40.222 48.1864 40.4668C48.1378 41.0391 48.1291 41.6145 48.1001 43.5117L48.0984 43.6515L48.0978 43.6848C48.0947 43.922 48.0915 44.1593 48.087 44.3965C48.0839 44.5586 48.0802 44.7206 48.0753 44.8827L48.067 45.1218L48.0605 45.2941C47.9893 47.2091 47.928 48.8508 49.2738 50.4379L49.2749 50.4392C49.3204 50.4847 49.3542 50.5185 49.3815 50.5469C49.4093 50.5759 49.4301 50.5993 49.4494 50.6237C49.4854 50.6689 49.5166 50.7176 49.5766 50.8113C49.6338 51.1275 49.6084 51.2513 49.4263 51.5203C49.1463 51.7082 48.9468 51.7352 48.6102 51.7406L48.3838 51.7382C48.131 51.7404 47.8786 51.7419 47.6258 51.7409C47.445 51.74 47.2644 51.7396 47.0836 51.7399C46.7069 51.7409 46.3303 51.7413 45.9535 51.7399C45.6856 51.7386 45.4177 51.7377 45.1497 51.7375C44.9275 51.7373 44.7053 51.7375 44.4832 51.7386L43.9544 51.7404L43.7066 51.7408L43.3361 51.7406L42.789 51.7395C42.5264 51.7409 42.2638 51.742 42.0012 51.7403L41.7609 51.7382C41.4874 51.7411 41.2542 51.727 40.9808 51.6878C40.7697 51.4876 40.6984 51.3589 40.6197 51.085L40.5853 50.8467L40.543 50.5665L40.4998 50.2575L40.3987 49.5743C40.3246 49.0604 40.2482 48.5469 40.1691 48.0337L39.9139 46.3696L39.8543 45.9789L39.8182 45.7388C39.7979 45.6079 39.7785 45.4769 39.7598 45.346C39.7327 45.1555 39.7069 44.9649 39.6815 44.7737L39.4816 42.9234H35.3837V42.9253C35.3874 43.1254 35.3891 43.2193 35.3837 43.3128C35.3818 43.3448 35.379 43.3768 35.3751 43.413C35.3692 43.4692 35.3608 43.5354 35.3491 43.6276L35.3485 43.6317L35.2734 44.2161L35.2463 44.4305C35.1889 44.882 35.1363 45.3339 35.0842 45.7859C35.0405 46.1671 34.9962 46.5471 34.9359 46.9262C34.7317 48.1296 34.9808 48.8442 35.6427 49.8894C35.722 50.0128 35.8003 50.1358 35.8762 50.2602C35.9477 50.3772 36.0172 50.4955 36.0833 50.6166C36.1985 50.9403 36.2358 51.1875 36.0835 51.5089C35.9131 51.6201 35.8266 51.6764 35.7315 51.7055C35.6339 51.7355 35.527 51.7368 35.3103 51.7395L35.0742 51.7367C34.8119 51.7383 34.5497 51.7393 34.2876 51.7379C34.0997 51.7367 33.912 51.7361 33.7242 51.7361C33.3332 51.7367 32.9422 51.7367 32.5513 51.7349C32.042 51.732 31.5329 51.7301 31.0236 51.7313C30.6267 51.7322 30.2298 51.7324 29.833 51.7316L29.2649 51.73L28.9492 51.7305L28.7261 51.7303L28.4465 51.7292L28.1969 51.7272C27.8381 51.7292 27.5062 51.7575 27.1899 51.5714C27.1347 51.4875 27.1058 51.4434 27.0877 51.3953C27.0675 51.3421 27.0609 51.2841 27.047 51.1618L27.0428 50.881L27.0359 50.5613L27.034 50.2137C27.0314 49.9679 27.0293 49.7221 27.0273 49.4764C27.0269 49.2158 27.0264 48.9555 27.0236 48.695C27.0225 48.5703 27.0209 48.4456 27.0186 48.3209C26.99 46.7662 27.0923 45.4043 27.6128 43.9278C28.2392 42.1583 28.4725 40.0341 28.0374 38.2005C27.9072 37.6652 27.8638 37.1645 27.8566 36.614L27.8562 36.3137C27.8517 35.496 27.9349 34.7784 28.2127 34.0051C28.2404 33.9385 28.2685 33.8721 28.2966 33.8058C28.37 33.6319 28.4434 33.4585 28.5092 33.2827H28.5871L28.8869 32.6984L28.687 32.601L27.9874 33.2827H28.1596C27.2961 34.3288 26.838 35.4265 26.8376 36.8789C26.8388 37.012 26.8399 37.1451 26.8403 37.2782C26.8407 37.3627 26.8407 37.4474 26.8403 37.532L26.8376 38.136C26.837 38.4023 26.837 38.6685 26.8374 38.9348V39.007C26.8386 39.5372 26.8397 40.0672 26.837 40.5974C26.8362 40.719 26.8356 40.8406 26.8356 40.9623V41.105L26.8378 41.4928L26.8374 41.6865L26.8362 41.8825L26.8372 42.2362C26.778 42.5942 26.6834 42.7088 26.3882 42.9234C26.2342 42.9564 26.158 42.9726 26.0823 42.9721C26.0546 42.972 26.0269 42.9696 25.9954 42.965C25.9427 42.9574 25.8797 42.9435 25.7885 42.9234C25.5531 42.6991 25.4924 42.5621 25.45 42.2418L25.4482 41.8961C25.4461 41.695 25.4445 41.4941 25.4447 41.293C25.4451 41.1484 25.4451 41.0039 25.4447 40.8594C25.4439 40.7003 25.4434 40.5413 25.4432 40.3822C25.443 40.2379 25.443 40.0937 25.4434 39.9493L25.4441 39.4603L25.4439 39.1216L25.443 38.9238L25.442 38.7742C25.4397 38.4682 25.4385 38.1623 25.4387 37.8563L25.4391 37.4134C25.4344 36.8779 25.4373 36.3486 25.4887 35.8146C25.8145 34.105 26.6795 32.5744 28.1174 31.5192L28.3872 31.3351C28.9584 30.9327 29.5153 30.6981 30.1863 30.5073C30.6628 30.3734 31.0806 30.2371 31.5044 29.9778C33.569 28.6845 35.7796 28.6493 38.1608 28.6455C38.4378 28.6451 38.7148 28.6444 38.9918 28.6433C39.3022 28.6421 39.6126 28.6403 39.923 28.6379L40.3418 28.635C40.4604 28.6351 40.5815 28.637 40.7039 28.6389ZM36.3325 29.9337L36.7299 29.9354C36.8739 29.936 37.018 29.937 37.1621 29.9383L37.5181 29.942L37.7601 29.945C38.1126 29.949 38.4649 29.9508 38.8175 29.9527C39.5054 29.9568 40.1932 29.9635 40.8809 29.9717C40.7792 30.2237 40.6759 30.4685 40.5522 30.7112C40.2222 31.4106 40.1331 32.007 40.1313 32.7714L40.1295 33.0295C40.1512 34.1328 40.6113 35.3131 41.3861 36.1307C41.8435 36.5324 42.3656 36.851 42.8799 37.1779L43.1173 37.3297C43.5472 37.6043 43.9778 37.8774 44.41 38.1483C44.6822 38.319 44.9527 38.4913 45.2197 38.6695L45.4973 38.8517L45.7203 39.002C45.8405 39.0596 45.9508 39.102 46.0632 39.1367C46.1832 39.1737 46.3053 39.202 46.4443 39.2306L46.6903 39.282L46.8779 39.3203L46.8726 39.6779C46.8563 40.7937 46.8443 41.9097 46.8365 43.0258C46.8324 43.5994 46.8267 44.1731 46.8176 44.7466C46.8088 45.301 46.8041 45.8553 46.8022 46.4098C46.8006 46.6205 46.7977 46.8312 46.7934 47.0418C46.7674 48.3547 46.8435 49.1736 47.6775 50.2271V50.4218H44.9789C44.858 50.1865 44.8326 49.9587 44.8046 49.707L44.7887 49.5709L44.7637 49.3712C44.7372 49.1595 44.7112 48.9477 44.6853 48.7359C44.5781 47.8665 44.466 46.9998 44.3255 46.1348C44.2546 45.6903 44.1956 45.2441 44.1356 44.798C44.0373 44.0787 43.9225 43.3653 43.7849 42.6522C43.6758 42.0691 43.6102 41.4837 43.5618 40.893C43.5161 40.4132 43.3953 40.047 43.1797 39.6125C43.0505 39.6102 42.9211 39.6092 42.7917 39.6095C42.6878 39.6097 42.5839 39.6107 42.4801 39.6125L42.3801 39.7099V41.7549H35.4836L35.3837 39.9046C35.2387 39.7297 35.1728 39.6503 35.0876 39.6138C35.0166 39.5835 34.9324 39.583 34.7777 39.582C34.7125 39.5824 34.6612 39.5826 34.619 39.585C34.5611 39.5882 34.5204 39.5955 34.4846 39.6124C34.4615 39.6232 34.4404 39.638 34.418 39.6582C34.3815 39.6913 34.3416 39.7388 34.2842 39.8072C34.2666 39.9515 34.2587 40.0179 34.2552 40.0982C34.2522 40.1667 34.2526 40.2452 34.2534 40.3908L34.2463 40.7593L34.2436 40.9563C34.22 42.5007 34.0787 44.0197 33.8844 45.5527L33.797 46.2558L33.7694 46.4877C33.7554 46.6068 33.7419 46.7258 33.7287 46.845C33.699 47.0891 33.6623 47.3324 33.6186 47.5746C33.4579 48.6838 33.8862 49.3684 34.4542 50.2768L34.4842 50.3244V50.4218H31.4856C31.3127 48.806 31.153 47.1966 31.0505 45.5753L31.0288 45.2389L31.0109 44.9444C31.0011 44.8394 30.9875 44.7367 30.9711 44.6348L30.9619 44.5789C30.9572 44.5511 30.9521 44.5233 30.947 44.4955L30.9271 44.391C30.914 44.3242 30.9002 44.2572 30.8859 44.1894L30.8744 43.9492C30.8697 43.8452 30.8654 43.7412 30.8621 43.6372C30.8116 42.2003 30.3962 40.9358 29.8617 39.6067C29.7644 39.3627 29.6709 39.1173 29.58 38.8711L29.5298 38.7346C29.4962 38.6427 29.463 38.5506 29.43 38.4585C29.3818 38.324 29.3342 38.1893 29.2867 38.0544L29.2114 37.8513C28.7493 36.4093 29.1731 34.7644 29.8052 33.4409C30.1486 32.8127 30.5642 32.3168 31.0858 31.822L31.2647 31.6382C31.6754 31.246 32.1402 30.9869 32.6476 30.7325L32.8336 30.6378C33.9614 30.0992 35.0859 29.9135 36.3325 29.9337ZM51.148 29.6503C49.7608 29.6682 48.5142 29.5115 47.1817 29.1305C46.008 28.7912 44.6954 28.4584 43.6197 29.203L43.3797 29.3874C42.8137 29.7901 42.3017 30.1944 41.8804 30.7447C41.2666 31.6756 41.1337 32.6638 41.3557 33.7453C41.7666 34.7863 42.3333 35.4989 43.2967 36.1189L43.5608 36.2833L44.1195 36.6359C44.394 36.8062 44.6683 36.9763 44.9408 37.1495C45.1048 37.2539 45.2694 37.3576 45.4345 37.4605L45.666 37.604C46.0631 37.8574 46.3758 38.0365 46.8474 38.119C47.0097 38.0873 47.0922 38.0711 47.1659 38.0368C47.1762 38.0319 47.1863 38.0267 47.1965 38.0211C47.2186 38.0089 47.2408 37.9944 47.2652 37.9768C47.3115 37.9434 47.3657 37.8986 47.4418 37.8356L47.4442 37.8334C47.5071 37.7552 47.5563 37.6939 47.5949 37.637C47.6199 37.6 47.6406 37.565 47.6576 37.5283C47.6816 37.4768 47.6984 37.422 47.7105 37.3547C47.7377 37.204 47.7409 36.9896 47.7468 36.6047L47.7446 36.2662C47.7487 35.9056 47.7521 35.5452 47.7525 35.1847C47.7525 34.81 47.7546 34.4355 47.7576 34.0608L47.7634 33.3508L47.7638 33.0093L47.7649 32.696C47.7649 32.6789 47.7646 32.6619 47.7642 32.6452C47.7634 32.6176 47.762 32.5906 47.7607 32.5639C47.7521 32.3949 47.7445 32.2437 47.8774 32.1141C48.1905 32.0463 48.4553 31.9495 48.7465 32.1103C48.8306 32.2931 48.873 32.3854 48.8954 32.4821C48.9185 32.5805 48.921 32.6835 48.9261 32.8913L48.928 33.1256C48.9337 33.3739 48.939 33.6221 48.9423 33.8704C48.9446 34.0431 48.9473 34.2159 48.9507 34.3886C48.9589 34.7877 48.9667 35.1868 48.9725 35.5859L48.9769 35.912L49.2031 35.9086L49.5012 35.9059C50.424 35.8952 50.9208 36.2048 51.6204 36.7717C52.21 37.2607 52.7958 37.7265 53.4549 38.1241L53.6557 38.2431C54.0561 38.4827 54.4067 38.6587 54.8739 38.7361V38.7324L54.9176 36.9041C54.9235 36.6431 54.9295 36.3822 54.936 36.1212L54.9422 35.8736C54.9453 35.7264 54.9496 35.5799 54.9553 35.4333C54.9604 35.3008 54.9666 35.1684 54.9739 35.0355C55.0791 34.7282 55.0869 34.4654 55.0874 34.1435L55.0863 33.9157C55.09 33.1875 54.9448 32.72 54.6084 32.0765L54.4616 31.7976C54.2014 31.287 53.9466 30.7932 53.5504 30.3689C52.837 29.7374 52.0837 29.6435 51.148 29.6503ZM41.361 42.9192L41.6742 42.9174L41.9318 42.9149L42.1767 42.914L42.4034 42.9124C42.5006 42.9185 42.5443 42.9212 42.5807 42.9386C42.6103 42.9529 42.6351 42.977 42.68 43.0208C42.6995 43.1324 42.7175 43.2441 42.7343 43.356C42.7509 43.4653 42.7665 43.5748 42.7815 43.6842L42.8619 44.2647L42.9049 44.5789C42.9492 44.899 42.9939 45.2191 43.0388 45.5391L43.0735 45.7868C43.0968 45.9508 43.1204 46.1147 43.1444 46.2785C43.2018 46.6684 43.2618 47.0579 43.3239 47.4472L43.3587 47.6677L43.4472 48.2175C43.4735 48.3805 43.5001 48.5436 43.527 48.7066L43.5877 49.0844L43.6415 49.4124C43.6803 49.7472 43.6799 50.0855 43.6795 50.4227V50.5192H41.8804C41.7363 50.0283 41.635 49.6056 41.5657 49.1068L41.536 48.8977C41.5046 48.6734 41.4738 48.4491 41.4432 48.2247L41.3777 47.7568L41.2454 46.8011C41.1939 46.4262 41.1413 46.0514 41.0887 45.6767C41.042 45.3453 40.9957 45.0139 40.9497 44.6824L40.8977 44.3142L40.8508 43.9737L40.8097 43.6782C40.7823 43.4242 40.7755 43.1786 40.781 42.9234L41.361 42.9192ZM54.8745 41.8567L54.8739 41.6575C54.8639 41.6575 54.8639 41.6575 54.2922 41.8496L53.63 42.0626L53.3746 42.1444L53.3684 42.5102L53.3645 42.7568L53.3588 43.1679C53.3567 43.3439 53.3546 43.52 53.3528 43.6961L53.3502 43.9519C53.3483 44.1995 53.346 44.447 53.3434 44.6946C53.3416 44.793 53.3391 44.8919 53.3362 44.9913C53.3332 45.0972 53.3298 45.2035 53.326 45.3103C53.2999 46.0872 53.2732 46.882 53.4201 47.6358C53.725 48.7175 54.4094 49.6268 55.3736 50.2271C55.6132 49.8395 55.8335 49.4627 55.9858 49.0341C55.9831 48.9755 55.9809 48.9296 55.977 48.8917C55.9724 48.8464 55.9651 48.8123 55.9515 48.7809C55.9413 48.7575 55.9274 48.7357 55.9084 48.7119C55.8769 48.6725 55.831 48.6278 55.7633 48.562L55.7609 48.5594L55.6206 48.439C55.0484 47.8174 54.9164 46.9492 54.902 46.147L54.9032 45.8038C54.8985 45.4334 54.8944 45.0632 54.8934 44.6927C54.893 44.4362 54.8915 44.1798 54.8891 43.9232C54.8819 43.2344 54.8764 42.5456 54.8745 41.8567ZM29.3867 42.047C29.5985 42.3565 29.6208 42.4788 29.652 42.8389L29.6805 43.1487L29.7084 43.4853L29.7398 43.8355L29.7888 44.3934L29.8365 44.9502L29.96 46.3513L30.0262 47.1115C30.0647 47.5503 30.1045 47.989 30.1465 48.4275L30.175 48.7244C30.1923 48.9051 30.2101 49.0858 30.2281 49.2665L30.2513 49.5092L30.272 49.7171C30.287 49.9445 30.2866 50.1727 30.2862 50.4008V50.5192H28.2873C28.1984 47.3562 28.1709 46.3715 28.4042 45.4494C28.5098 45.0325 28.6687 44.6285 28.8994 44.0417C29.0488 43.6292 29.1394 43.2051 29.2305 42.7774L29.2801 42.5508L29.3162 42.3824C29.34 42.2707 29.3635 42.1589 29.3867 42.047ZM50.7744 37.5851C50.5288 37.3466 50.2942 37.1186 49.9549 37.009C49.5883 36.9851 49.3782 37.0796 49.0768 37.2753L49.0756 37.2768C48.9505 37.4597 48.9042 37.5276 48.8787 37.6024C48.8639 37.6461 48.8558 37.6921 48.8433 37.7648V37.7665C48.8359 38.1684 48.8636 38.417 49.1377 38.7178C50.1251 39.7009 51.4853 40.9972 52.9749 41.0184C53.8142 40.9782 54.2949 40.6958 54.8739 40.0994C53.4531 39.5265 52.0235 38.7293 50.8939 37.7003C50.8535 37.6619 50.8138 37.6234 50.7744 37.5851Z" stroke="#FCFBF7" stroke-width="0.666667"/>
<path d="M53.076 33.2309C53.076 33.5267 52.8299 33.7665 52.5263 33.7665C52.2227 33.7665 51.9766 33.5267 51.9766 33.2309C51.9766 32.9351 52.2227 32.6953 52.5263 32.6953C52.8299 32.6953 53.076 32.9351 53.076 33.2309Z" stroke="#FCFBF7" stroke-width="0.666667"/>
</g>
<defs>
<clipPath id="clip0_3125_849">
<rect width="33.3333" height="25.5814" fill="white" transform="translate(24.6641 26.668)"/>
</clipPath>
</defs>
</svg>
