<svg width="279" height="916" viewBox="0 0 279 916" fill="none" xmlns="http://www.w3.org/2000/svg">
<path d="M0.85 545.184V545.334H1C13.092 545.334 25.0657 543.051 36.2375 538.616C47.4093 534.181 57.5607 527.68 66.1119 519.484C74.6631 511.288 81.4467 501.558 86.0749 490.848C90.7032 480.139 93.0854 468.66 93.0854 457.068V456.918H92.9354L1 456.918L0.85 456.918V457.068V545.184Z" fill="#8FA693" stroke="#8FA693" stroke-width="0.3"/>
<path d="M0.85 915.001V915.151H1C13.092 915.151 25.0657 912.868 36.2375 908.433C47.4093 903.997 57.5607 897.496 66.1119 889.3C74.6631 881.104 81.4467 871.374 86.0749 860.665C90.7032 849.955 93.0854 838.477 93.0854 826.885V826.735H92.9354L1 826.735L0.85 826.735V826.885V915.001Z" fill="#8FA693" stroke="#8FA693" stroke-width="0.3"/>
<path d="M1 738.889H0.85V739.039V827.155V827.305H1L92.9354 827.305H93.0854V827.155C93.0854 815.563 90.7032 804.084 86.0749 793.375C81.4467 782.666 74.6631 772.935 66.1119 764.739C57.5607 756.543 47.4093 750.042 36.2375 745.607C25.0657 741.172 13.092 738.889 1 738.889Z" fill="#8FA693" stroke="#8FA693" stroke-width="0.3"/>
<path d="M1 0C13.0731 0 25.028 2.27918 36.1821 6.70742C47.3363 11.1357 57.4711 17.6262 66.0081 25.8085C74.5451 33.9908 81.317 43.7047 85.9372 54.3954C90.5574 65.0861 92.9354 76.5443 92.9354 88.1158L1 88.1158V0Z" fill="#8FA693"/>
<path d="M194.062 553.996C143.288 553.996 102.127 593.447 102.127 642.112C102.127 588.58 56.8502 545.184 0.998206 545.184C51.7727 545.184 92.9336 505.733 92.9336 457.068C92.9336 510.6 138.211 553.996 194.062 553.996Z" fill="#8FA693"/>
<path d="M194.062 730.229C143.288 730.229 102.127 690.778 102.127 642.113C102.127 695.645 56.8502 739.04 0.998197 739.04C51.7727 739.04 92.9336 778.491 92.9336 827.156C92.9336 773.625 138.211 730.229 194.062 730.229Z" fill="#8FA693"/>
<ellipse cx="190.129" cy="642.111" rx="88.1158" ry="88" transform="rotate(-90 190.129 642.111)" fill="#45734C"/>
<path d="M0.85 175.368V175.518H1C13.092 175.518 25.0657 173.235 36.2375 168.8C47.4093 164.364 57.5607 157.863 66.1119 149.668C74.6631 141.472 81.4467 131.741 86.0749 121.032C90.7031 110.323 93.0854 98.8441 93.0854 87.252V87.102H92.9354L1 87.102L0.85 87.102V87.252V175.368Z" fill="#8FA693" stroke="#8FA693" stroke-width="0.3"/>
<path d="M1 369.073H0.85V369.223V457.338V457.488H1L92.9354 457.488H93.0854V457.338C93.0854 445.746 90.7031 434.268 86.0749 423.559C81.4467 412.849 74.6631 403.119 66.1119 394.923C57.5607 386.727 47.4093 380.226 36.2375 375.791C25.0657 371.355 13.092 369.073 1 369.073Z" fill="#8FA693" stroke="#8FA693" stroke-width="0.3"/>
<path d="M194.062 184.179C143.288 184.179 102.127 223.63 102.127 272.295C102.127 218.764 56.8502 175.368 0.998197 175.368C51.7727 175.368 92.9336 135.917 92.9336 87.252C92.9336 140.783 138.211 184.179 194.062 184.179Z" fill="#8FA693"/>
<path d="M194.062 360.412C143.288 360.412 102.127 320.962 102.127 272.297C102.127 325.828 56.8502 369.224 0.998206 369.224C51.7727 369.224 92.9336 408.675 92.9336 457.34C92.9336 403.808 138.211 360.412 194.062 360.412Z" fill="#8FA693"/>
<ellipse cx="190.129" cy="272.298" rx="88.1158" ry="88" transform="rotate(-90 190.129 272.298)" fill="#45734C"/>
</svg>
