<?xml version="1.0" encoding="UTF-8"?>
<svg version="1.1" xmlns="http://www.w3.org/2000/svg" width="482" height="1075">
<path d="M0 0 C72.6 0 145.2 0 220 0 C221.43295085 5.01532799 222.30026094 8.63189711 222.67578125 13.65625 C222.77866455 14.91477783 222.88154785 16.17330566 222.98754883 17.4699707 C223.03988678 18.12744293 223.09222473 18.78491516 223.14614868 19.46231079 C226.19139547 56.76448896 236.7070001 90.99563042 261 120 C261.58652344 120.71027344 262.17304688 121.42054687 262.77734375 122.15234375 C285.81167996 149.36524435 322.83954408 164.40904268 357.70214844 167.81152344 C360.47929493 168.03931318 363.25780841 168.21235683 366.0390625 168.3828125 C396.62804838 170.30082947 423.20349456 178.94467036 446 200 C446.67417969 200.60457031 447.34835937 201.20914063 448.04296875 201.83203125 C462.28773025 215.22927833 471.5407297 233.46577734 477 252 C477.3403125 253.10601562 477.680625 254.21203125 478.03125 255.3515625 C482.7850081 274.14651352 481.97380185 296.56941195 476 315 C475.67854004 316.0223877 475.67854004 316.0223877 475.35058594 317.06542969 C470.77080302 331.2847557 463.82190728 343.70293934 454 355 C453.30132812 355.83144531 452.60265625 356.66289062 451.8828125 357.51953125 C430.98916466 381.72195963 402.20656658 392.79200896 371.09765625 395.41796875 C328.31421491 399.07392101 285.97130984 413.40666734 257.4375 447.1875 C235.07221867 475.66329569 220.4427503 513.18009921 224.30029297 549.85498047 C228.41197234 581.53848179 239.4764654 611.28459289 260 636 C260.78117187 636.94746094 261.56234375 637.89492188 262.3671875 638.87109375 C289.25058078 669.941245 328.52131181 682.32627708 368.1875 685.5 C401.58705328 688.1766554 431.35695428 699.26747829 453.88671875 725.25390625 C471.37700429 746.2634309 480.41319679 771.23790479 480.375 798.5625 C480.37418427 799.55120087 480.37418427 799.55120087 480.37335205 800.55987549 C480.33181094 811.54101814 479.38494788 821.5566372 476 832 C475.78569336 832.6815918 475.57138672 833.36318359 475.35058594 834.06542969 C466.56089598 861.35568977 447.35526571 885.33683119 421.890625 898.78125 C405.91358177 906.82733735 390.19611692 910.95137327 372.33203125 912.38671875 C344.84268412 914.62190592 319.28581618 920.75070771 295 934 C294.09121094 934.49113281 293.18242187 934.98226562 292.24609375 935.48828125 C260.70342566 953.46203273 238.85138401 984.01523305 229.24951172 1018.71191406 C225.78201749 1032.13643873 224.10494742 1045.50278426 223.18554688 1059.31445312 C222.98428468 1062.22745855 222.75983767 1065.13714735 222.515625 1068.046875 C222.44118164 1068.94760742 222.36673828 1069.84833984 222.29003906 1070.77636719 C222 1073 222 1073 221 1075 C147.74 1075 74.48 1075 -1 1075 C-7.96040968 1054.11877096 -0.5103623 1026.10756504 9.00488281 1006.97998047 C13.70279487 997.81883666 19.00727014 989.61006556 26 982 C26.44714355 981.51047852 26.89428711 981.02095703 27.35498047 980.51660156 C49.49914672 956.54039135 77.87093205 946.11641679 109.9375 944.125 C151.06947688 941.48420869 190.23702158 926.51712276 218 895 C236.68341617 872.65728364 246.04624794 847.16445586 252 819 C252.26941406 817.72898437 252.53882813 816.45796875 252.81640625 815.1484375 C258.73000866 782.47888571 247.79091506 744.98799952 229.4375 717.875 C227.98342323 715.8979658 226.50506389 713.93850101 225 712 C224.27039063 711.04996094 223.54078125 710.09992187 222.7890625 709.12109375 C194.68145194 673.66605516 153.70577671 659.0742521 110 654 C107.32098329 653.73729718 104.64117138 653.49993509 101.95898438 653.2722168 C74.06363809 650.89313593 51.35697885 640.19656475 31 621 C29.87464844 619.98873047 29.87464844 619.98873047 28.7265625 618.95703125 C11.19552635 602.56397464 -1.14683947 575.99487293 -2.12280273 551.97802734 C-2.77546072 523.71734138 -2.77546072 523.71734138 1 511 C1.32871094 509.80375 1.65742187 508.6075 1.99609375 507.375 C10.53622498 479.00639798 30.20235009 455.21321324 56.01123047 440.88330078 C70.03136564 433.36331891 85.78147378 428.48715655 101.71875 427.60546875 C145.92547616 424.91921643 186.34154394 412.62697323 217 379 C240.93672356 351.22580171 256.37612859 310.40906399 254.21142578 273.43066406 C250.85560432 234.85034255 233.83503538 197.9322604 204.28662109 172.52685547 C176.44519864 149.41222763 141.43641505 139.46932437 105.91015625 136.58203125 C72.28989485 133.79816849 43.80513331 120.47794479 21.63916016 94.39892578 C5.15687857 74.05004994 -2.17451472 49.49167735 -2.1875 23.625 C-2.19974609 22.34882813 -2.21199219 21.07265625 -2.22460938 19.7578125 C-2.22654297 18.51 -2.22847656 17.2621875 -2.23046875 15.9765625 C-2.23457764 14.85330566 -2.23868652 13.73004883 -2.24291992 12.57275391 C-2 9 -2 9 0 0 Z " fill="#8FA693" transform="translate(2,0)"/>
<path d="M0 0 C0 75.24 0 150.48 0 228 C-37.87402063 225.77211643 -67.49404916 220.88101879 -96 194 C-96.75023437 193.32582031 -97.50046875 192.65164063 -98.2734375 191.95703125 C-115.80447365 175.56397464 -128.14683947 148.99487293 -129.12280273 124.97802734 C-129.77546072 96.71734138 -129.77546072 96.71734138 -126 84 C-125.67128906 82.80375 -125.34257813 81.6075 -125.00390625 80.375 C-116.46377502 52.00639798 -96.79764991 28.21321324 -70.98876953 13.88330078 C-56.13561973 5.91651473 -39.82605029 1.38610357 -23 0.4375 C-22.33355469 0.39431641 -21.66710937 0.35113281 -20.98046875 0.30664062 C-13.96031576 -0.10362806 -7.07211958 0 0 0 Z " fill="#46744D" transform="translate(129,427)"/>
<path d="M0 0 C41.91 0 83.82 0 127 0 C127 45.54 127 91.08 127 138 C85.38861 135.39928813 52.00846884 128.56251887 23 96 C5.59211168 75.51902913 -2.17418454 50.14940172 -2.1875 23.625 C-2.19974609 22.34882813 -2.21199219 21.07265625 -2.22460938 19.7578125 C-2.22654297 18.51 -2.22847656 17.2621875 -2.23046875 15.9765625 C-2.23457764 14.85330566 -2.23868652 13.73004883 -2.24291992 12.57275391 C-2 9 -2 9 0 0 Z " fill="#46734D" transform="translate(2,0)"/>
<path d="M0 0 C0 43.23 0 86.46 0 131 C-42.24 131 -84.48 131 -128 131 C-134.96040968 110.11877096 -127.5103623 82.10756504 -117.99511719 62.97998047 C-113.29720513 53.81883666 -107.99272986 45.61006556 -101 38 C-100.55285645 37.51047852 -100.10571289 37.02095703 -99.64501953 36.51660156 C-77.62738695 12.67739348 -48.58034119 1.47243519 -16.546875 0.11328125 C-11.0328318 -0.02409612 -5.51575425 0 0 0 Z " fill="#46734D" transform="translate(129,944)"/>
</svg>
