<svg width="465" height="110" viewBox="0 0 465 110" fill="none" xmlns="http://www.w3.org/2000/svg">
<path d="M93.4353 92.6663C83.5422 102.758 69.756 109.02 54.5071 109.02C24.4017 109.02 -0.00274658 84.6147 -0.00274658 54.5097C-0.00274658 24.4047 24.4017 -0.000106812 54.5071 -0.000106812C69.7496 -0.000106812 83.5308 6.25603 93.423 16.3406C106.308 27.6499 122.651 36.3398 142.452 36.3398C163.065 36.3398 180.507 26.9224 194.359 14.9361C204.128 5.67844 217.324 -0.000106812 231.846 -0.000106812C261.951 -0.000106812 286.355 24.4047 286.355 54.5097C286.355 84.6147 261.951 109.02 231.846 109.02C217.312 109.02 204.108 103.332 194.336 94.0617C180.488 82.0859 163.053 72.6797 142.452 72.6797C122.657 72.6797 106.318 81.3633 93.4353 92.6663Z" fill="#8FA693"/>
<path fill-rule="evenodd" clip-rule="evenodd" d="M93.273 16.9711C103.953 27.6533 109.223 41.6972 109.084 55.6972C109.092 55.8247 109.101 55.9523 109.109 56.0799C109.096 56.2571 109.083 56.4343 109.07 56.6114C108.711 69.9406 103.447 83.1623 93.2761 93.3353C72.1915 114.425 38.0072 114.425 16.9229 93.3353C0.631424 77.04 -3.0721 52.9218 5.81265 33.0698C8.42635 27.232 12.1287 21.7632 16.9198 16.9711C38.0042 -4.11823 72.1884 -4.11848 93.273 16.9711Z" fill="#353938"/>
<path d="M270.896 92.6663C261.003 102.758 247.217 109.02 231.968 109.02C201.863 109.02 177.458 84.6147 177.458 54.5097C177.458 24.4047 201.863 -0.000106812 231.968 -0.000106812C247.211 -0.000106812 260.992 6.25603 270.884 16.3406C283.769 27.6499 300.112 36.3398 319.913 36.3398C340.526 36.3398 357.968 26.9224 371.82 14.9361C381.589 5.67844 394.785 -0.000106812 409.307 -0.000106812C439.412 -0.000106812 463.816 24.4047 463.816 54.5097C463.816 84.6147 439.412 109.02 409.307 109.02C394.773 109.02 381.569 103.332 371.797 94.0617C357.949 82.0859 340.514 72.6797 319.913 72.6797C300.118 72.6797 283.779 81.3633 270.896 92.6663Z" fill="#8FA693"/>
<path fill-rule="evenodd" clip-rule="evenodd" d="M448.203 16.9931C458.883 27.6755 464.153 41.7196 464.014 55.7198C464.022 55.8438 464.031 55.9678 464.039 56.0918C464.025 56.2726 464.012 56.4534 463.999 56.6341C463.64 69.9634 458.376 83.1853 448.205 93.3585C427.12 114.448 392.936 114.448 371.852 93.3585C358.317 79.8205 353.471 60.8831 357.312 43.4783C359.456 33.7722 364.302 24.543 371.85 16.9931C392.935 -4.09653 427.119 -4.09679 448.203 16.9931Z" fill="#353938"/>
<path fill-rule="evenodd" clip-rule="evenodd" d="M270.519 16.8539C281.199 27.5361 286.469 41.58 286.33 55.58C286.338 55.7075 286.347 55.8351 286.355 55.9627C286.342 56.1399 286.329 56.3171 286.316 56.4942C285.957 69.8234 280.693 83.0451 270.522 93.2181C249.438 114.308 215.253 114.307 194.169 93.2181C177.87 76.9155 174.171 52.7829 183.071 32.9258C185.684 27.0981 189.382 21.6387 194.166 16.8539C215.25 -4.23544 249.434 -4.2357 270.519 16.8539Z" fill="#353938"/>
</svg>
