<svg width="60" height="253" viewBox="0 0 60 253" fill="none" xmlns="http://www.w3.org/2000/svg">
<path d="M50.5417 202.01C56.0459 207.406 59.4609 214.925 59.4609 223.242C59.4609 239.662 46.1502 252.973 29.7305 252.973C13.3109 252.973 0.000123934 239.662 0.000123934 223.242C0.000123934 214.929 3.4123 207.412 8.91256 202.017C15.0808 194.99 19.8204 186.076 19.8204 175.276C19.8204 164.034 14.684 154.52 8.14655 146.965C3.09728 141.637 0.000123934 134.44 0.000123934 126.519C0.000123934 110.1 13.3109 96.7891 29.7305 96.7891C46.1502 96.7891 59.4609 110.1 59.4609 126.519C59.4609 134.446 56.359 141.648 51.3027 146.978C44.771 154.531 39.6407 164.04 39.6407 175.276C39.6407 186.072 44.3768 194.984 50.5417 202.01Z" fill="#88857C"/>
<path fill-rule="evenodd" clip-rule="evenodd" d="M8.78575 202.186C14.6667 196.305 22.3984 193.403 30.1059 193.479C30.1774 193.475 30.2489 193.47 30.3204 193.465C30.4168 193.472 30.5131 193.479 30.6094 193.486C37.9476 193.684 45.2267 196.583 50.8273 202.183C62.4379 213.794 62.4377 232.618 50.8273 244.229C40.9639 254.092 25.8946 255.576 14.4645 248.681C14.3529 248.614 14.2417 248.546 14.1308 248.477C12.2311 247.296 10.4356 245.881 8.78575 244.231C-2.8247 232.62 -2.82484 213.796 8.78575 202.186Z" fill="#353938"/>
<path d="M50.5417 105.221C56.0459 110.617 59.4609 118.136 59.4609 126.453C59.4609 142.873 46.1502 156.184 29.7305 156.184C13.3109 156.184 0.000123934 142.873 0.000123934 126.453C0.000123934 118.14 3.4123 110.623 8.91256 105.228C15.0808 98.2005 19.8204 89.2869 19.8204 78.4872C19.8204 67.2445 14.684 57.7313 8.14655 50.1764C3.09728 44.8478 0.000123934 37.6509 0.000123934 29.7304C0.000123934 13.3106 13.3109 0 29.7305 0C46.1502 0 59.4609 13.3106 59.4609 29.7304C59.4609 37.657 56.359 44.859 51.3027 50.1888C44.771 57.7417 39.6407 67.2506 39.6407 78.4872C39.6407 89.2834 44.3768 98.1948 50.5417 105.221Z" fill="#88857C"/>
<path fill-rule="evenodd" clip-rule="evenodd" d="M8.72324 8.72083C14.6042 2.83985 22.3359 -0.0622727 30.0434 0.0144127C30.1149 0.00974627 30.1863 0.00494238 30.2578 0C30.3542 0.00740175 30.4506 0.0145791 30.5469 0.0215346C37.8851 0.218994 45.1642 3.118 50.7648 8.7186C62.3754 20.3292 62.3752 39.1533 50.7648 50.7637C40.9014 60.6271 25.8321 62.1114 14.4019 55.2165C14.2976 55.1535 14.1936 55.0899 14.0898 55.0255C12.1821 53.8419 10.3793 52.422 8.72324 50.766C-2.88721 39.1555 -2.88735 20.3314 8.72324 8.72083Z" fill="#353938"/>
<path fill-rule="evenodd" clip-rule="evenodd" d="M8.72324 105.514C14.6042 99.6328 22.3359 96.7307 30.0434 96.8074C30.1149 96.8027 30.1864 96.7979 30.2579 96.793C30.3543 96.8004 30.4506 96.8075 30.5469 96.8145C37.8851 97.012 45.1642 99.911 50.7648 105.512C62.3754 117.122 62.3752 135.946 50.7648 147.557C40.8788 157.443 25.7628 158.911 14.3232 151.962C14.2273 151.904 14.1317 151.845 14.0364 151.785C12.1485 150.608 10.3638 149.2 8.72324 147.559C-2.88721 135.948 -2.88735 117.124 8.72324 105.514Z" fill="#353938"/>
</svg>
