<svg width="1878" height="721" viewBox="0 0 1878 721" fill="none" xmlns="http://www.w3.org/2000/svg">
<path d="M1156.59 551.395C1156.16 594.838 1172.52 638.418 1205.67 671.566C1271.11 737.008 1377.21 737.007 1442.65 671.566C1508.09 606.124 1508.09 500.022 1442.65 434.579C1409.52 401.445 1365.96 385.087 1322.53 385.505C1269.94 382.081 1215.53 365.445 1172.48 322.402C1127.67 277.593 1110.23 219.206 1106.17 163.039C1105.06 121.678 1088.72 80.6494 1057.15 49.0818C991.711 -16.361 885.61 -16.3602 820.168 49.0818C754.726 114.524 754.725 220.625 820.168 286.068C851.76 317.66 892.827 334.001 934.221 335.091C990.357 339.161 1048.7 356.613 1093.49 401.397C1136.52 444.426 1153.16 498.82 1156.59 551.395Z" fill="#8FA693"/>
<path d="M385.756 551.395C385.324 594.838 401.681 638.418 434.829 671.566C500.272 737.008 606.374 737.007 671.816 671.566C737.257 606.124 737.258 500.022 671.816 434.579C638.681 401.445 595.124 385.087 551.699 385.505C499.106 382.081 444.69 365.445 401.647 322.402C356.838 277.593 339.394 219.206 335.339 163.039C334.226 121.678 317.886 80.6494 286.318 49.0818C220.875 -16.361 114.774 -16.3602 49.3318 49.0818C-16.1102 114.524 -16.111 220.625 49.3318 286.068C80.9239 317.66 121.991 334.001 163.385 335.091C219.521 339.161 277.867 356.613 322.651 401.397C365.681 444.426 382.322 498.82 385.756 551.395Z" fill="#8FA693"/>
<path fill-rule="evenodd" clip-rule="evenodd" d="M286.174 285.089C319.202 252.055 335.501 208.626 335.07 165.332C335.098 164.907 335.127 164.482 335.156 164.057C335.116 163.529 335.077 163.002 335.039 162.475C333.93 121.255 317.648 80.3679 286.194 48.9087C254.026 16.7352 211.999 0.433817 169.84 0.00418403C169.801 0.0066947 169.763 0.00919832 169.725 0.0116949C147.705 -0.200355 125.651 3.91748 104.949 12.3653C84.9796 20.5172 66.269 32.6983 50.0614 48.9087C-15.1449 114.126 -15.1457 219.863 50.0614 285.081C81.5398 316.565 122.459 332.849 163.704 333.936C163.768 333.941 163.831 333.945 163.895 333.95C208.019 335.057 252.499 318.77 286.174 285.089Z" fill="#353938"/>
<path d="M720.697 551.395C721.129 594.838 704.772 638.418 671.624 671.565C606.181 737.008 500.08 737.007 434.638 671.565C369.196 606.124 369.195 500.022 434.638 434.579C467.772 401.445 511.329 385.087 554.754 385.505C607.347 382.081 661.763 365.445 704.806 322.402C749.615 277.593 767.059 219.206 771.114 163.039C772.227 121.678 788.567 80.6494 820.135 49.0818C885.578 -16.361 991.679 -16.3602 1057.12 49.0818C1122.56 114.524 1122.56 220.625 1057.12 286.068C1025.53 317.66 984.462 334.001 943.068 335.091C886.932 339.161 828.586 356.613 783.802 401.397C740.772 444.426 724.132 498.82 720.697 551.395Z" fill="#8FA693"/>
<path fill-rule="evenodd" clip-rule="evenodd" d="M820.139 285.087C787.11 252.052 770.811 208.623 771.242 165.328C771.213 164.886 771.183 164.444 771.152 164.001C771.191 163.491 771.229 162.981 771.266 162.471C772.375 121.252 788.657 80.3644 820.111 48.905C852.281 16.7296 894.312 0.428062 936.474 0.000267151C936.512 0.0027814 936.551 0.00528857 936.589 0.00778868C953.141 -0.151603 969.712 2.13541 985.714 6.86884C1011.53 14.5113 1035.87 28.5234 1056.25 48.905C1121.45 114.122 1121.45 219.86 1056.25 285.078C1024.77 316.562 983.847 332.847 942.602 333.933C942.538 333.938 942.474 333.943 942.41 333.947C898.288 335.052 853.812 318.765 820.139 285.087Z" fill="#353938"/>
<path d="M1491.59 551.395C1492.02 594.838 1475.67 638.418 1442.52 671.566C1377.08 737.008 1270.97 737.007 1205.53 671.566C1140.09 606.124 1140.09 500.022 1205.53 434.579C1238.67 401.445 1282.22 385.087 1325.65 385.505C1378.24 382.081 1432.66 365.445 1475.7 322.402C1520.51 277.593 1537.95 219.206 1542.01 163.039C1543.12 121.678 1559.46 80.6494 1591.03 49.0818C1656.47 -16.361 1762.57 -16.3602 1828.02 49.0818C1893.46 114.524 1893.46 220.625 1828.02 286.068C1796.42 317.66 1755.36 334.001 1713.96 335.091C1657.83 339.161 1599.48 356.613 1554.7 401.397C1511.67 444.426 1495.03 498.82 1491.59 551.395Z" fill="#8FA693"/>
<path fill-rule="evenodd" clip-rule="evenodd" d="M1591.13 285.087C1558.1 252.052 1541.8 208.623 1542.23 165.328C1542.21 164.902 1542.18 164.476 1542.15 164.05C1542.19 163.523 1542.23 162.997 1542.27 162.471C1543.37 121.252 1559.66 80.3642 1591.11 48.9049C1623.28 16.7314 1665.31 0.42996 1707.46 0.000213206C1707.5 0.00274553 1707.54 0.00527069 1707.58 0.00778868C1729.28 -0.201188 1751.01 3.79509 1771.45 11.9967C1791.76 20.1482 1810.79 32.451 1827.24 48.9049C1892.45 114.122 1892.45 219.86 1827.24 285.078C1795.76 316.562 1754.85 332.847 1713.6 333.933C1713.54 333.938 1713.47 333.943 1713.41 333.947C1669.28 335.053 1624.81 318.767 1591.13 285.087Z" fill="#353938"/>
<path fill-rule="evenodd" clip-rule="evenodd" d="M671.896 670.559C704.925 637.525 721.223 594.095 720.793 550.801C720.821 550.375 720.849 549.949 720.879 549.523C720.839 548.996 720.799 548.47 720.761 547.944C719.652 506.724 703.371 465.837 671.917 434.378C639.749 402.204 597.722 385.903 555.563 385.473C555.524 385.475 555.486 385.478 555.447 385.48C533.746 385.271 512.012 389.268 491.571 397.47C471.264 405.622 452.235 417.924 435.784 434.378C370.578 499.595 370.577 605.333 435.784 670.551C467.263 702.035 508.182 718.319 549.427 719.406C549.491 719.411 549.555 719.415 549.619 719.42C593.743 720.526 638.222 704.24 671.896 670.559Z" fill="#353938"/>
<path fill-rule="evenodd" clip-rule="evenodd" d="M1205.13 671.087C1172.1 638.052 1155.8 594.623 1156.23 551.328C1156.21 550.902 1156.18 550.476 1156.15 550.05C1156.19 549.523 1156.23 548.997 1156.27 548.471C1157.37 507.252 1173.66 466.364 1205.11 434.905C1237.28 402.731 1279.31 386.43 1321.46 386C1321.5 386.003 1321.54 386.005 1321.58 386.008C1343.28 385.799 1365.02 389.795 1385.46 397.997C1405.76 406.149 1424.79 418.451 1441.24 434.905C1506.45 500.122 1506.45 605.86 1441.24 671.078C1409.76 702.562 1368.85 718.847 1327.6 719.933C1327.54 719.938 1327.47 719.943 1327.41 719.947C1283.28 721.054 1238.81 704.767 1205.13 671.087Z" fill="#353938"/>
</svg>
