<svg width="632" height="85" viewBox="0 0 632 85" fill="none" xmlns="http://www.w3.org/2000/svg">
<path d="M482.117 71.5193C474.481 79.3082 463.841 84.1406 452.072 84.1406C428.837 84.1406 410.002 65.3051 410.002 42.0702C410.002 18.8353 428.837 -0.00025177 452.072 -0.00025177C463.836 -0.00025177 474.473 4.8282 482.107 12.6114C492.052 21.3399 504.665 28.0468 519.947 28.0468C535.856 28.0468 549.318 20.7784 560.009 11.5275C567.549 4.38242 577.733 -0.00025177 588.941 -0.00025177C612.176 -0.00025177 631.012 18.8353 631.012 42.0702C631.012 65.3051 612.176 84.1406 588.941 84.1406C577.725 84.1406 567.533 79.7511 559.991 72.5963C549.303 63.3534 535.848 56.0937 519.947 56.0937C504.67 56.0937 492.06 62.7957 482.117 71.5193Z" fill="#F1DBC4"/>
<path d="M72.1168 71.5193C64.4813 79.3082 53.8411 84.1406 42.0721 84.1406C18.837 84.1406 0.00167847 65.3051 0.00167847 42.0702C0.00167847 18.8353 18.837 -0.00025177 42.0721 -0.00025177C53.8363 -0.00025177 64.4725 4.8282 72.1073 12.6114C82.0517 21.3399 94.6651 28.0468 109.947 28.0468C125.856 28.0468 139.318 20.7784 150.009 11.5275C157.549 4.38242 167.733 -0.00025177 178.941 -0.00025177C202.176 -0.00025177 221.012 18.8353 221.012 42.0702C221.012 65.3051 202.176 84.1406 178.941 84.1406C167.725 84.1406 157.533 79.7511 149.991 72.5963C139.303 63.3534 125.848 56.0937 109.947 56.0937C94.6699 56.0937 82.0597 62.7957 72.1168 71.5193Z" fill="#F1DBC4"/>
<path d="M209.117 71.5193C201.481 79.3082 190.841 84.1406 179.072 84.1406C155.837 84.1406 137.002 65.3051 137.002 42.0702C137.002 18.8353 155.837 -0.00025177 179.072 -0.00025177C190.836 -0.00025177 201.473 4.8282 209.107 12.6114C219.052 21.3399 231.665 28.0468 246.947 28.0468C262.856 28.0468 276.318 20.7784 287.009 11.5275C294.549 4.38242 304.733 -0.00025177 315.941 -0.00025177C339.176 -0.00025177 358.012 18.8353 358.012 42.0702C358.012 65.3051 339.176 84.1406 315.941 84.1406C304.725 84.1406 294.533 79.7511 286.991 72.5963C276.303 63.3534 262.848 56.0937 246.947 56.0937C231.67 56.0937 219.06 62.7957 209.117 71.5193Z" fill="#F1DBC4"/>
<path d="M346.117 71.5193C338.481 79.3082 327.841 84.1406 316.072 84.1406C292.837 84.1406 274.002 65.3051 274.002 42.0702C274.002 18.8353 292.837 -0.00025177 316.072 -0.00025177C327.836 -0.00025177 338.473 4.8282 346.107 12.6114C356.052 21.3399 368.665 28.0468 383.947 28.0468C399.856 28.0468 413.318 20.7784 424.009 11.5275C431.549 4.38242 441.733 -0.00025177 452.941 -0.00025177C476.176 -0.00025177 495.012 18.8353 495.012 42.0702C495.012 65.3051 476.176 84.1406 452.941 84.1406C441.725 84.1406 431.533 79.7511 423.991 72.5963C413.303 63.3534 399.848 56.0937 383.947 56.0937C368.67 56.0937 356.06 62.7957 346.117 71.5193Z" fill="#F1DBC4"/>
<path fill-rule="evenodd" clip-rule="evenodd" d="M423.321 12.341C431.643 4.01902 442.584 -0.0876712 453.491 0.0208436C453.594 0.0140991 453.697 0.00715179 453.8 0C453.935 0.0103506 454.07 0.0203909 454.205 0.030124C464.589 0.309541 474.889 4.41182 482.814 12.337C499.244 28.7668 499.244 55.4041 482.814 71.8336C466.385 88.2632 439.748 88.2634 423.318 71.8336C422.249 70.7643 421.249 69.6518 420.319 68.5016C406.961 51.98 407.962 27.7002 423.321 12.341Z" fill="#F78712"/>
<path fill-rule="evenodd" clip-rule="evenodd" d="M559.321 12.341C567.643 4.01902 578.584 -0.0876712 589.491 0.0208436C589.594 0.0140991 589.697 0.00715179 589.8 0C589.935 0.0103506 590.07 0.0203909 590.205 0.030124C600.589 0.309541 610.889 4.41182 618.814 12.337C635.244 28.7668 635.244 55.4041 618.814 71.8336C602.385 88.2632 575.748 88.2634 559.318 71.8336C558.249 70.7643 557.249 69.6518 556.319 68.5016C542.961 51.98 543.962 27.7002 559.321 12.341Z" fill="#353938"/>
<path fill-rule="evenodd" clip-rule="evenodd" d="M286.321 12.3408C294.643 4.01886 305.584 -0.0878292 316.491 0.0206857C316.593 0.0139908 316.696 0.00709615 316.798 0C316.934 0.0104107 317.069 0.0205077 317.205 0.0302941C317.854 0.0477577 318.503 0.0801543 319.15 0.127484C328.867 0.83743 338.385 4.90732 345.814 12.3372C356.165 22.688 359.995 37.0902 357.304 50.4389C357.067 51.6142 356.779 52.7813 356.441 53.9367C354.524 60.4886 350.982 66.666 345.815 71.8335C329.385 88.263 302.748 88.2632 286.318 71.8335C285.249 70.7642 284.249 69.6516 283.319 68.5014C269.961 51.9799 270.962 27.7 286.321 12.3408Z" fill="#F78712"/>
<path fill-rule="evenodd" clip-rule="evenodd" d="M149.321 12.341C157.643 4.01902 168.584 -0.0876712 179.491 0.0208436C179.594 0.0140991 179.697 0.00715179 179.8 0C179.935 0.0103506 180.07 0.0203909 180.205 0.030124C190.589 0.309541 200.889 4.41182 208.814 12.337C225.244 28.7668 225.244 55.4041 208.814 71.8336C192.385 88.2632 165.748 88.2634 149.318 71.8336C148.249 70.7643 147.249 69.6518 146.319 68.5016C132.961 51.98 133.962 27.7002 149.321 12.341Z" fill="#F78712"/>
<path fill-rule="evenodd" clip-rule="evenodd" d="M12.3212 12.3408C20.6431 4.01886 31.5839 -0.0878292 42.4906 0.0206857C42.5931 0.0139908 42.6956 0.00709615 42.7981 0C42.9338 0.0104107 43.0694 0.0205077 43.2049 0.0302941C53.589 0.309711 63.8893 4.41199 71.8145 12.3372C82.1653 22.688 85.9949 37.0902 83.3037 50.4389C83.0814 51.5413 82.8147 52.6365 82.5035 53.7217C80.6015 60.3534 77.0386 66.6095 71.8146 71.8335C55.385 88.263 28.7477 88.2632 12.318 71.8335C11.2487 70.7642 10.2489 69.6516 9.31882 68.5014C-4.03866 51.9799 -3.03804 27.7 12.3212 12.3408Z" fill="#F78712"/>
</svg>
