<svg width="85" height="358" viewBox="0 0 85 358" fill="none" xmlns="http://www.w3.org/2000/svg">
<path d="M71.5193 285.856C79.3082 293.491 84.1406 304.132 84.1406 315.901C84.1406 339.136 65.3051 357.971 42.0702 357.971C18.8353 357.971 -0.00025177 339.136 -0.00025177 315.901C-0.00025177 304.136 4.8282 293.5 12.6114 285.865C21.3399 275.921 28.0468 263.308 28.0468 248.025C28.0468 232.116 20.7784 218.654 11.5275 207.964C4.38242 200.424 -0.00025177 190.239 -0.00025177 179.031C-0.00025177 155.796 18.8353 136.961 42.0702 136.961C65.3051 136.961 84.1406 155.796 84.1406 179.031C84.1406 190.248 79.7511 200.439 72.5963 207.981C63.3534 218.669 56.0937 232.125 56.0937 248.025C56.0937 263.303 62.7957 275.913 71.5193 285.856Z" fill="#88857C"/>
<path fill-rule="evenodd" clip-rule="evenodd" d="M12.4187 286.103C20.7407 277.781 31.6815 273.674 42.5882 273.783C42.6914 273.776 42.7947 273.769 42.898 273.762C43.0329 273.772 43.1678 273.782 43.3026 273.792C53.6866 274.071 63.9869 278.174 71.9121 286.099C88.3419 302.528 88.3417 329.166 71.9121 345.595C55.4826 362.025 28.8453 362.025 12.4156 345.595C11.3462 344.526 10.3465 343.413 9.41641 342.263C-3.94107 325.742 -2.94045 301.462 12.4187 286.103Z" fill="#353938"/>
<path d="M71.5193 148.895C79.3082 156.53 84.1406 167.171 84.1406 178.94C84.1406 202.175 65.3051 221.01 42.0702 221.01C18.8353 221.01 -0.00025177 202.175 -0.00025177 178.94C-0.00025177 167.175 4.8282 156.539 12.6114 148.904C21.3399 138.96 28.0468 126.347 28.0468 111.064C28.0468 95.1553 20.7784 81.6935 11.5275 71.0028C4.38242 63.4626 -0.00025177 53.2784 -0.00025177 42.0704C-0.00025177 18.8353 18.8353 0 42.0702 0C65.3051 0 84.1406 18.8353 84.1406 42.0704C84.1406 53.2871 79.7511 63.4784 72.5963 71.0203C63.3534 81.7083 56.0937 95.1639 56.0937 111.064C56.0937 126.342 62.7957 138.952 71.5193 148.895Z" fill="#88857C"/>
<path fill-rule="evenodd" clip-rule="evenodd" d="M12.325 12.341C20.647 4.01902 31.5878 -0.0876712 42.4944 0.0208436C42.5977 0.0140991 42.7009 0.00715179 42.8042 0C42.9392 0.0103506 43.074 0.0203909 43.2088 0.030124C53.5929 0.309541 63.8932 4.41182 71.8184 12.337C88.2481 28.7668 88.2479 55.4041 71.8184 71.8336C55.3889 88.2632 28.7515 88.2634 12.3218 71.8336C11.2525 70.7643 10.2528 69.6518 9.32266 68.5016C-4.03482 51.98 -3.0342 27.7002 12.325 12.341Z" fill="#353938"/>
<path fill-rule="evenodd" clip-rule="evenodd" d="M12.325 149.31C20.647 140.988 31.5878 136.881 42.4944 136.99C42.5977 136.983 42.7009 136.976 42.8042 136.969C42.9392 136.979 43.074 136.989 43.2088 136.999C53.5929 137.278 63.8932 141.381 71.8184 149.306C88.2481 165.736 88.2479 192.373 71.8184 208.802C55.3889 225.232 28.7515 225.232 12.3218 208.802C11.2525 207.733 10.2528 206.621 9.32266 205.47C-4.03482 188.949 -3.0342 164.669 12.325 149.31Z" fill="#353938"/>
</svg>
