<svg width="749" height="101" viewBox="0 0 749 101" fill="none" xmlns="http://www.w3.org/2000/svg">
<path d="M409.826 85.2265C400.786 94.4486 388.188 100.17 374.253 100.17C346.742 100.17 324.441 77.8688 324.441 50.3586C324.441 22.8483 346.742 0.546875 374.253 0.546875C388.182 0.546875 400.775 6.2638 409.815 15.4792C421.589 25.8138 436.523 33.7547 454.618 33.7547C473.454 33.7547 489.393 25.149 502.051 14.1958C510.979 5.73599 523.037 0.546875 536.307 0.546875C563.818 0.546875 586.119 22.8483 586.119 50.3586C586.119 77.8688 563.818 100.17 536.307 100.17C523.026 100.17 510.96 94.9731 502.03 86.5016C489.376 75.558 473.444 66.9625 454.618 66.9625C436.529 66.9625 421.599 74.8976 409.826 85.2265Z" fill="#F3BB81"/>
<path d="M571.989 85.2265C562.948 94.4486 550.35 100.17 536.416 100.17C508.905 100.17 486.604 77.8688 486.604 50.3586C486.604 22.8483 508.905 0.546875 536.416 0.546875C550.344 0.546875 562.938 6.2638 571.977 15.4792C583.752 25.8138 598.686 33.7547 616.78 33.7547C635.617 33.7547 651.556 25.149 664.214 14.1958C673.141 5.73599 685.199 0.546875 698.47 0.546875C725.98 0.546875 748.281 22.8483 748.281 50.3586C748.281 77.8688 725.98 100.17 698.47 100.17C685.189 100.17 673.123 94.9731 664.193 86.5016C651.538 75.558 635.607 66.9625 616.78 66.9625C598.692 66.9625 583.761 74.8976 571.989 85.2265Z" fill="#F3BB81"/>
<path d="M85.4082 85.2265C76.3678 94.4486 63.7697 100.17 49.8351 100.17C22.3245 100.17 0.0234375 77.8688 0.0234375 50.3586C0.0234375 22.8483 22.3245 0.546875 49.8351 0.546875C63.7639 0.546875 76.3573 6.2638 85.3969 15.4792C97.1712 25.8138 112.106 33.7547 130.2 33.7547C149.036 33.7547 164.975 25.149 177.633 14.1958C186.561 5.73599 198.619 0.546875 211.889 0.546875C239.4 0.546875 261.701 22.8483 261.701 50.3586C261.701 77.8688 239.4 100.17 211.889 100.17C198.609 100.17 186.542 94.9731 177.612 86.5016C164.958 75.558 149.026 66.9625 130.2 66.9625C112.111 66.9625 97.1807 74.8976 85.4082 85.2265Z" fill="#F3BB81"/>
<path d="M247.571 85.2265C238.53 94.4486 225.932 100.17 211.998 100.17C184.487 100.17 162.186 77.8688 162.186 50.3586C162.186 22.8483 184.487 0.546875 211.998 0.546875C225.927 0.546875 238.52 6.2638 247.56 15.4792C259.334 25.8138 274.268 33.7547 292.363 33.7547C311.199 33.7547 327.138 25.149 339.796 14.1958C348.723 5.73599 360.782 0.546875 374.052 0.546875C401.562 0.546875 423.863 22.8483 423.863 50.3586C423.863 77.8688 401.562 100.17 374.052 100.17C360.771 100.17 348.705 94.9731 339.775 86.5016C327.12 75.558 311.189 66.9625 292.363 66.9625C274.274 66.9625 259.343 74.8976 247.571 85.2265Z" fill="#F3BB81"/>
<path d="M409.803 85.2265C400.762 94.4486 388.164 100.17 374.23 100.17C346.719 100.17 324.418 77.8688 324.418 50.3586C324.418 22.8483 346.719 0.546875 374.23 0.546875C388.158 0.546875 400.752 6.2638 409.791 15.4792C421.566 25.8138 436.5 33.7547 454.594 33.7547C473.431 33.7547 489.37 25.149 502.027 14.1958C510.955 5.73599 523.013 0.546875 536.284 0.546875C563.794 0.546875 586.095 22.8483 586.095 50.3586C586.095 77.8688 563.794 100.17 536.284 100.17C523.003 100.17 510.936 94.9731 502.007 86.5016C489.352 75.558 473.421 66.9625 454.594 66.9625C436.506 66.9625 421.575 74.8976 409.803 85.2265Z" fill="#F3BB81"/>
<path d="M571.965 85.2265C562.925 94.4486 550.327 100.17 536.392 100.17C508.882 100.17 486.581 77.8688 486.581 50.3586C486.581 22.8483 508.882 0.546875 536.392 0.546875C550.321 0.546875 562.914 6.2638 571.954 15.4792C583.728 25.8138 598.663 33.7547 616.757 33.7547C635.593 33.7547 651.532 25.149 664.19 14.1958C673.118 5.73599 685.176 0.546875 698.446 0.546875C725.957 0.546875 748.258 22.8483 748.258 50.3586C748.258 77.8688 725.957 100.17 698.446 100.17C685.166 100.17 673.099 94.9731 664.169 86.5016C651.515 75.558 635.583 66.9625 616.757 66.9625C598.668 66.9625 583.738 74.8976 571.965 85.2265Z" fill="#F3BB81"/>
<path d="M85.3848 85.2265C76.3444 94.4486 63.7463 100.17 49.8117 100.17C22.3011 100.17 0 77.8688 0 50.3586C0 22.8483 22.3011 0.546875 49.8117 0.546875C63.7405 0.546875 76.3339 6.2638 85.3735 15.4792C97.1478 25.8138 112.082 33.7547 130.176 33.7547C149.013 33.7547 164.952 25.149 177.61 14.1958C186.537 5.73599 198.595 0.546875 211.866 0.546875C239.376 0.546875 261.677 22.8483 261.677 50.3586C261.677 77.8688 239.376 100.17 211.866 100.17C198.585 100.17 186.519 94.9731 177.589 86.5016C164.934 75.558 149.003 66.9625 130.176 66.9625C112.088 66.9625 97.1573 74.8976 85.3848 85.2265Z" fill="#F3BB81"/>
<path d="M247.547 85.2265C238.507 94.4486 225.909 100.17 211.974 100.17C184.464 100.17 162.163 77.8688 162.163 50.3586C162.163 22.8483 184.464 0.546875 211.974 0.546875C225.903 0.546875 238.497 6.2638 247.536 15.4792C259.31 25.8138 274.245 33.7547 292.339 33.7547C311.176 33.7547 327.114 25.149 339.772 14.1958C348.7 5.73599 360.758 0.546875 374.028 0.546875C401.539 0.546875 423.84 22.8483 423.84 50.3586C423.84 77.8688 401.539 100.17 374.028 100.17C360.748 100.17 348.681 94.9731 339.752 86.5016C327.097 75.558 311.165 66.9625 292.339 66.9625C274.251 66.9625 259.32 74.8976 247.547 85.2265Z" fill="#F3BB81"/>
<path fill-rule="evenodd" clip-rule="evenodd" d="M409.283 14.9717C419.136 24.825 423.999 37.779 423.87 50.6925C423.878 50.8133 423.886 50.9342 423.895 51.055C423.882 51.2162 423.87 51.3773 423.859 51.5384C423.528 63.8332 418.671 76.0288 409.287 85.4124C389.834 104.865 358.295 104.865 338.843 85.4124C319.39 65.9597 319.39 34.4209 338.843 14.968C339.145 14.6653 339.451 14.3674 339.759 14.0741C340.009 13.8368 340.26 13.6026 340.514 13.3715C360.062 -4.46548 390.379 -3.93227 409.283 14.9717Z" fill="#F3BB81"/>
<path fill-rule="evenodd" clip-rule="evenodd" d="M409.283 14.9717C419.136 24.825 423.999 37.779 423.87 50.6925C423.878 50.8133 423.886 50.9342 423.895 51.055C423.882 51.2162 423.87 51.3773 423.859 51.5384C423.528 63.8332 418.671 76.0288 409.287 85.4124C389.834 104.865 358.295 104.865 338.843 85.4124C319.39 65.9597 319.39 34.4209 338.843 14.968C339.145 14.6653 339.451 14.3674 339.759 14.0741C340.009 13.8368 340.26 13.6026 340.514 13.3715C360.062 -4.46548 390.379 -3.93227 409.283 14.9717Z" fill="#F3BB81"/>
<path d="M246.482 14.6453C256.272 24.5362 261.103 37.5396 260.976 50.5024C260.984 50.6245 260.992 50.7466 261 50.8687C260.988 51.0297 260.976 51.1906 260.964 51.3515C260.636 63.6932 255.81 75.9354 246.487 85.3547C227.159 104.882 195.823 104.882 176.496 85.3547C157.168 65.8278 157.168 34.1687 176.496 14.6415C177.39 13.7382 178.31 12.8767 179.253 12.057C198.697 -4.83975 228.05 -3.9772 246.482 14.6453Z" fill="#F3BB81"/>
<path d="M247.482 14.6453C257.272 24.5362 262.103 37.5396 261.976 50.5024C261.984 50.6245 261.992 50.7466 262 50.8687C261.988 51.0297 261.976 51.1906 261.964 51.3515C261.636 63.6932 256.81 75.9354 247.487 85.3547C228.159 104.882 196.823 104.882 177.496 85.3547C158.168 65.8278 158.168 34.1687 177.496 14.6415C178.39 13.7382 179.31 12.8767 180.253 12.057C199.697 -4.83975 229.05 -3.9772 247.482 14.6453Z" fill="#F3BB81"/>
<path fill-rule="evenodd" clip-rule="evenodd" d="M733.701 14.9717C743.554 24.825 748.417 37.779 748.288 50.6925C748.296 50.8133 748.304 50.9341 748.312 51.055C748.3 51.2162 748.288 51.3773 748.276 51.5384C747.946 63.8332 743.089 76.0288 733.705 85.4124C714.252 104.865 682.713 104.865 663.261 85.4124C643.808 65.9597 643.808 34.4209 663.261 14.968C663.563 14.6653 663.869 14.3674 664.177 14.0741C664.432 13.8323 664.688 13.5936 664.946 13.3581C684.495 -4.46523 714.802 -3.92757 733.701 14.9717Z" fill="#F3BB81"/>
<path fill-rule="evenodd" clip-rule="evenodd" d="M733.701 14.9717C743.554 24.825 748.417 37.779 748.288 50.6925C748.296 50.8133 748.304 50.9341 748.312 51.055C748.3 51.2162 748.288 51.3773 748.276 51.5384C747.946 63.8332 743.089 76.0288 733.705 85.4124C714.252 104.865 682.713 104.865 663.261 85.4124C643.808 65.9597 643.808 34.4209 663.261 14.968C663.563 14.6653 663.869 14.3674 664.177 14.0741C664.432 13.8323 664.688 13.5936 664.946 13.3581C684.495 -4.46523 714.802 -3.92757 733.701 14.9717Z" fill="#F3BB81"/>
<path fill-rule="evenodd" clip-rule="evenodd" d="M571.494 14.9717C581.347 24.825 586.21 37.779 586.081 50.6925C586.089 50.8133 586.097 50.9342 586.105 51.055C586.093 51.2162 586.081 51.3773 586.069 51.5384C585.739 63.8332 580.882 76.0288 571.498 85.4124C552.045 104.865 520.506 104.865 501.054 85.4124C481.601 65.9597 481.601 34.4209 501.054 14.968C501.356 14.6653 501.662 14.3674 501.97 14.0741C502.22 13.8368 502.471 13.6026 502.725 13.3715C522.273 -4.46548 552.59 -3.93227 571.494 14.9717Z" fill="#F3BB81"/>
<path fill-rule="evenodd" clip-rule="evenodd" d="M571.494 14.9717C581.347 24.825 586.21 37.779 586.081 50.6925C586.089 50.8133 586.097 50.9342 586.105 51.055C586.093 51.2162 586.081 51.3773 586.069 51.5384C585.739 63.8332 580.882 76.0288 571.498 85.4124C552.045 104.865 520.506 104.865 501.054 85.4124C481.601 65.9597 481.601 34.4209 501.054 14.968C501.356 14.6653 501.662 14.3674 501.97 14.0741C502.22 13.8368 502.471 13.6026 502.725 13.3715C522.273 -4.46548 552.59 -3.93227 571.494 14.9717Z" fill="#F3BB81"/>
<path fill-rule="evenodd" clip-rule="evenodd" d="M85.0291 14.8283C94.8823 24.6815 99.7447 37.6355 99.6162 50.5491C99.6241 50.6701 99.6322 50.7912 99.6406 50.9122C99.6282 51.0735 99.6162 51.2347 99.6046 51.3958C99.2738 63.6906 94.4166 75.8863 85.0331 85.2698C65.5802 104.723 34.0415 104.722 14.5888 85.2698C-4.86392 65.8171 -4.86415 34.2783 14.5888 14.8254C16.6602 12.754 18.8687 10.9031 21.1851 9.2728C40.621 -4.40364 67.6488 -2.55199 85.0291 14.8283Z" fill="#F3BB81"/>
<path d="M48.7608 33.6112C44.9986 34.3523 42.7208 38.1015 43.8891 41.6472C44.0875 42.2648 44.4622 42.9914 44.7856 43.4128C44.9325 43.6018 45.0501 43.7689 45.0501 43.7907C45.0501 43.8125 43.7715 43.827 42.2064 43.827C39.642 43.827 39.3334 43.8125 39.0982 43.6962C38.6427 43.471 38.5618 43.2675 38.1503 41.1968C37.9373 40.1505 37.7021 39.0969 37.6286 38.8571C37.2466 37.7091 36.2766 36.8663 35.0716 36.6338C33.1464 36.256 31.2653 37.6655 31.111 39.6128C31.0743 40.1287 31.6694 45.0041 31.8605 45.7452C32.3234 47.5108 33.5505 48.964 35.2406 49.7487C36.4162 50.3009 36.5191 50.3154 39.5244 50.3445L42.1844 50.3808V54.3916V58.4096L40.5899 58.0972C38.2606 57.6394 37.5037 57.6758 36.1591 58.3297C34.1237 59.3251 33.0215 61.5703 33.4844 63.7936C33.8004 65.3267 34.8732 66.6564 36.3428 67.3394C37.4082 67.8262 36.7175 67.8044 49.8997 67.8044C63.1702 67.8044 62.3839 67.8335 63.5302 67.3031C65.617 66.3367 66.7707 64.0479 66.3224 61.7883C66.1387 60.8873 65.6464 59.9718 64.9704 59.3033C63.9858 58.3224 62.935 57.8574 61.583 57.7993C60.8923 57.7702 60.6498 57.7993 59.217 58.0899L57.6151 58.4096V54.3843V50.3663H59.9885C61.2891 50.3663 62.5676 50.33 62.8321 50.2936C65.3084 49.9013 67.3071 48.1139 67.9316 45.7379C68.1374 44.9605 68.7252 40.1432 68.6885 39.6128C68.5342 37.6655 66.6604 36.256 64.7279 36.6338C63.5229 36.8663 62.5529 37.7091 62.1708 38.8571C62.0974 39.0969 61.8622 40.1505 61.6491 41.1968C61.2376 43.2675 61.1568 43.471 60.7012 43.6962C60.4661 43.8125 60.1575 43.827 57.6004 43.827C56.0279 43.827 54.7494 43.8125 54.7494 43.7907C54.7494 43.7689 54.867 43.6018 55.0139 43.4128C55.6458 42.5991 56.1235 41.2839 56.1969 40.1505C56.3292 38.1596 55.4695 36.2269 53.8823 34.919C53.3239 34.4613 52.1482 33.8727 51.4428 33.6911C50.7815 33.5313 49.4074 33.4877 48.7608 33.6112ZM50.6786 35.7691C51.3987 35.8927 52.2217 36.3359 52.7948 36.8954C54.404 38.4938 54.404 41.0296 52.7875 42.6281C50.7668 44.619 47.3867 44.0159 46.1743 41.4438C45.3734 39.7363 45.8878 37.6873 47.4088 36.5466C48.3714 35.82 49.4956 35.5584 50.6786 35.7691ZM34.954 38.8789C35.123 38.9589 35.3214 39.1187 35.4022 39.2568C35.5051 39.4239 35.7035 40.2304 35.99 41.6472C36.3134 43.2167 36.4824 43.8997 36.6367 44.2048C36.8865 44.7062 37.4817 45.3238 37.9813 45.5926C38.7896 46.0286 38.2091 46.0068 49.8997 46.0068C61.583 46.0068 61.0099 46.0286 61.8181 45.5926C62.3472 45.3092 62.8762 44.7498 63.1628 44.1612C63.3686 43.7398 63.4861 43.2675 63.8241 41.5746C64.1033 40.1868 64.2944 39.4239 64.3899 39.2568C64.5589 38.9952 65.0218 38.7482 65.3525 38.7409C65.8448 38.7409 66.3812 39.1696 66.4694 39.6419C66.5208 39.9107 65.9697 44.4955 65.8081 45.1494C65.5656 46.1085 64.7426 47.1984 63.9343 47.6343C62.9791 48.1502 63.0526 48.1429 59.4521 48.1865C55.7781 48.2301 55.8442 48.2156 55.5577 48.7678C55.4181 49.0439 55.4107 49.1892 55.4107 53.9484V58.8456L52.6552 59.3905L49.8997 59.9355L47.1443 59.3905L44.3888 58.8456V53.9484C44.3888 49.182 44.3814 49.0439 44.2418 48.7678C44.1463 48.5789 43.992 48.4263 43.8009 48.3318C43.5291 48.1938 43.3747 48.1865 40.5164 48.1865C38.2018 48.1865 37.4082 48.1575 37.0188 48.0775C35.608 47.7796 34.3515 46.5662 33.9914 45.1494C33.8297 44.4955 33.2787 39.9107 33.3301 39.6419C33.3815 39.344 33.6901 38.9734 33.9914 38.8426C34.3 38.7118 34.6013 38.7191 34.954 38.8789ZM46.6593 61.5194C55.3666 63.2414 54.9845 63.1397 55.2711 63.7573C55.6091 64.5057 55.2417 65.334 54.4628 65.5592C54.2865 65.6101 51.5677 65.6246 45.9686 65.6101L37.7389 65.5883L37.2539 65.3558C36.6367 65.0506 36.1517 64.5711 35.8504 63.968C35.63 63.5248 35.608 63.4303 35.608 62.7909C35.608 62.1661 35.63 62.0571 35.8431 61.6139C36.3207 60.6112 37.298 59.9718 38.3634 59.9645C38.6133 59.9573 41.7655 60.5531 46.6593 61.5194ZM62.5529 60.2261C63.1775 60.5167 63.6625 60.9963 63.9564 61.6139C64.1695 62.0571 64.1915 62.1661 64.1915 62.7909C64.1915 63.4231 64.1695 63.5248 63.9564 63.9535C63.6845 64.4984 63.273 64.9562 62.7954 65.225C62.1782 65.5883 61.8696 65.6246 59.5476 65.6246C58.3646 65.6246 57.3947 65.6101 57.3947 65.5883C57.3947 65.5738 57.4461 65.3703 57.5049 65.1378C57.8943 63.6701 57.1522 62.0135 55.7928 61.2796L55.4034 61.0689L58.1442 60.5167C61.3699 59.8628 61.7226 59.841 62.5529 60.2261Z" fill="#FCFBF7"/>
<path fill-rule="evenodd" clip-rule="evenodd" d="M85.0291 14.8283C94.8823 24.6815 99.7447 37.6355 99.6162 50.5491C99.6241 50.6701 99.6322 50.7912 99.6406 50.9122C99.6282 51.0735 99.6162 51.2347 99.6046 51.3958C99.2738 63.6906 94.4166 75.8863 85.0331 85.2698C65.5802 104.723 34.0415 104.722 14.5888 85.2698C-4.86392 65.8171 -4.86415 34.2783 14.5888 14.8254C16.6602 12.754 18.8687 10.9031 21.1851 9.2728C40.621 -4.40364 67.6488 -2.55199 85.0291 14.8283Z" fill="#F3BB81"/>
</svg>
