<svg width="575" height="99" viewBox="0 0 575 99" fill="none" xmlns="http://www.w3.org/2000/svg">
<path d="M83.7993 83.6988C74.9267 92.814 62.5626 98.4694 48.8868 98.4694C21.887 98.4694 0 76.4263 0 49.2347C0 22.0431 21.887 0 48.8868 0C62.5552 0 74.9133 5.64919 83.7848 14.7557C95.341 24.9722 109.999 32.8229 127.76 32.8229C146.246 32.8229 161.889 24.317 174.312 13.4909C183.074 5.12903 194.908 0 207.932 0C234.932 0 256.819 22.0431 256.819 49.2347C256.819 76.4263 234.932 98.4694 207.932 98.4694C194.895 98.4694 183.05 93.3301 174.286 84.9536C161.867 74.1392 146.233 65.6461 127.76 65.6461C110.007 65.6461 95.3533 73.4895 83.7993 83.6988Z" fill="#F3BB81"/>
<path d="M242.841 83.6988C233.969 92.814 221.605 98.4694 207.929 98.4694C180.929 98.4694 159.042 76.4263 159.042 49.2347C159.042 22.0431 180.929 0 207.929 0C221.597 0 233.955 5.64921 242.827 14.7557C254.383 24.9723 269.041 32.8229 286.802 32.8229C305.288 32.8229 320.931 24.317 333.354 13.4909C342.116 5.12903 353.95 0 366.974 0C393.974 0 415.861 22.0431 415.861 49.2347C415.861 76.4263 393.974 98.4694 366.974 98.4694C353.937 98.4694 342.092 93.3301 333.328 84.9536C320.909 74.1392 305.275 65.6461 286.802 65.6461C269.049 65.6461 254.395 73.4894 242.841 83.6988Z" fill="#F3BB81"/>
<path d="M401.891 83.6988C393.019 92.814 380.655 98.4694 366.979 98.4694C339.979 98.4694 318.092 76.4263 318.092 49.2347C318.092 22.0431 339.979 0 366.979 0C380.647 0 393.005 5.64919 401.877 14.7557C413.433 24.9722 428.091 32.8229 445.852 32.8229C464.338 32.8229 479.981 24.317 492.404 13.4909C501.166 5.12903 513 0 526.024 0C553.024 0 574.911 22.0431 574.911 49.2347C574.911 76.4263 553.024 98.4694 526.024 98.4694C512.987 98.4694 501.142 93.3301 492.378 84.9536C479.959 74.1392 464.325 65.6461 445.852 65.6461C428.099 65.6461 413.445 73.4895 401.891 83.6988Z" fill="#F3BB81"/>
</svg>
