<svg width="218" height="301" viewBox="0 0 218 301" fill="none" xmlns="http://www.w3.org/2000/svg">
<path d="M194.061 124.586C186.853 123.9 179.665 126.281 174.341 131.122C173.683 131.721 173.059 132.351 172.472 133.008C168.482 125.561 161.141 120.217 152.572 119.4C145.364 118.714 138.176 121.095 132.852 125.936C132.194 126.535 131.57 127.165 130.983 127.822C127.5 121.321 121.463 116.424 114.284 114.74C126.726 102.372 134.191 85.312 134.191 67.0951C134.191 30.0991 104.092 0 67.0951 0C30.0985 0 0 30.0991 0 67.0957C0 94.239 16.5632 118.826 41.4888 129.128V157.944L22.8064 171.289C11.7374 179.196 7.19062 193.179 11.4923 206.083L29.9179 261.362C37.652 284.561 59.2772 300.148 83.7309 300.148H160.445C191.723 300.148 217.168 274.702 217.168 243.425V150.966C217.168 137.408 207.018 125.822 194.061 124.586ZM9.72369 67.0957C9.72369 35.4613 35.4607 9.72428 67.0951 9.72428C98.7295 9.72428 124.466 35.4613 124.466 67.0957C124.466 88.9313 111.932 108.83 92.7013 118.445V105.732C105.564 97.1859 113.446 82.6353 113.446 67.0957C113.446 41.5381 92.6527 20.7447 67.0951 20.7447C41.5375 20.7447 20.7441 41.5381 20.7441 67.0957C20.7441 82.6341 28.6265 97.1853 41.4888 105.732V118.445C22.2595 108.83 9.72369 88.9307 9.72369 67.0957ZM69.5935 41.609C62.3853 40.9219 55.1982 43.3032 49.8742 48.1448C44.5454 52.9899 41.4888 59.8974 41.4888 67.0957V93.267C34.5485 86.4516 30.4684 77.0292 30.4684 67.0957C30.4684 46.8997 46.8991 30.469 67.0951 30.469C87.2911 30.469 103.722 46.8997 103.722 67.0957C103.722 77.0304 99.6416 86.4522 92.7013 93.2676V67.9879C92.7019 54.4309 82.552 42.8436 69.5935 41.609ZM160.445 290.423H83.7303C63.4681 290.423 45.5502 277.508 39.1427 258.287L20.7171 203.008C17.7731 194.179 20.8842 184.612 28.4582 179.202L41.4888 169.894V212.309C41.4888 214.993 43.6649 217.171 46.351 217.171C49.0364 217.171 51.2131 214.994 51.2131 212.309V67.0957C51.2131 62.6304 53.1095 58.3451 56.4152 55.3401C59.7661 52.2935 64.1217 50.8543 68.6708 51.2893C76.6939 52.0537 82.9782 59.3886 82.9782 67.9873V170.819C82.9782 173.503 85.1543 175.681 87.8404 175.681C90.5258 175.681 92.7025 173.504 92.7025 170.819V139.702C92.7025 135.237 94.5989 130.951 97.9046 127.946C101.255 124.9 105.606 123.458 110.16 123.895C118.183 124.66 124.467 131.995 124.467 140.594V144.888V176.005C124.467 178.69 126.643 180.867 129.329 180.867C132.015 180.867 134.191 178.69 134.191 176.005V144.888C134.191 140.423 136.088 136.138 139.393 133.133C142.744 130.087 147.095 128.644 151.649 129.082C159.672 129.847 165.956 137.182 165.956 145.78V150.073V181.19C165.956 183.875 168.132 186.052 170.818 186.052C173.504 186.052 175.68 183.876 175.68 181.19V150.073C175.68 145.608 177.576 141.323 180.882 138.318C184.233 135.272 188.583 133.829 193.138 134.267C201.16 135.032 207.445 142.367 207.445 150.966V243.424H207.446C207.445 269.339 186.361 290.423 160.445 290.423Z" fill="white"/>
</svg>
