<svg width="184" height="184" viewBox="0 0 184 184" fill="none" xmlns="http://www.w3.org/2000/svg">
<path d="M174.455 130.925C177.264 130.925 180.072 130.925 183.047 130.925C183.047 142.545 183.047 154.031 183.047 165.662C180.302 165.662 177.599 165.662 174.615 165.662C174.615 162.94 174.615 160.171 174.615 157.238C171.572 157.238 168.806 157.238 165.848 157.238C165.848 159.984 165.848 162.69 165.848 165.674C159.993 165.674 154.317 165.674 148.363 165.674C148.363 171.616 148.363 177.292 148.363 183.116C145.385 183.116 142.687 183.116 139.691 183.116C139.691 180.418 139.691 177.648 139.691 174.512C130.718 174.512 122.034 174.512 113.351 174.512L113.426 174.589C113.421 171.651 113.416 168.715 113.409 165.778L113.328 165.851C119.096 165.851 124.865 165.851 130.685 165.851C130.685 159.865 130.685 154.203 130.685 148.264C127.772 148.264 125.009 148.264 122.135 148.264C122.135 145.182 122.135 142.38 122.135 139.578L122.06 139.658C124.87 139.658 127.682 139.658 130.665 139.658C130.665 130.874 130.665 122.291 130.665 113.513C127.931 113.513 125.225 113.513 122.313 113.513C122.313 110.566 122.313 107.801 122.313 104.725C130.953 104.725 139.643 104.725 148.331 104.725L148.258 104.643C148.284 107.578 148.309 110.513 148.333 113.449C145.47 113.449 142.606 113.449 139.74 113.449C139.74 116.496 139.74 119.253 139.74 122.113C142.727 122.113 145.529 122.113 148.33 122.113C148.33 124.987 148.33 127.861 148.33 130.932C145.223 130.932 142.516 130.932 139.712 130.932C139.712 133.905 139.712 136.669 139.712 139.725C142.638 139.725 145.411 139.725 148.365 139.725C148.365 142.721 148.365 145.429 148.365 148.182C157.151 148.182 165.739 148.182 174.529 148.182C174.529 142.288 174.529 136.566 174.529 130.843L174.455 130.925Z" fill="#353938"/>
<path d="M174.455 130.925C177.264 130.925 180.072 130.925 183.047 130.925C183.047 142.545 183.047 154.031 183.047 165.662C180.302 165.662 177.599 165.662 174.615 165.662C174.615 162.94 174.615 160.171 174.615 157.238C171.572 157.238 168.806 157.238 165.848 157.238C165.848 159.984 165.848 162.69 165.848 165.674C159.993 165.674 154.317 165.674 148.363 165.674C148.363 171.616 148.363 177.292 148.363 183.116C145.385 183.116 142.687 183.116 139.691 183.116C139.691 180.418 139.691 177.648 139.691 174.512C130.718 174.512 122.034 174.512 113.351 174.512L113.426 174.589C113.421 171.651 113.416 168.715 113.409 165.778L113.328 165.851C119.096 165.851 124.865 165.851 130.685 165.851C130.685 159.865 130.685 154.203 130.685 148.264C127.772 148.264 125.009 148.264 122.135 148.264C122.135 145.182 122.135 142.38 122.135 139.578L122.06 139.658C124.87 139.658 127.682 139.658 130.665 139.658C130.665 130.874 130.665 122.291 130.665 113.513C127.931 113.513 125.225 113.513 122.313 113.513C122.313 110.566 122.313 107.801 122.313 104.725C130.953 104.725 139.643 104.725 148.331 104.725L148.258 104.643C148.284 107.578 148.309 110.513 148.333 113.449C145.47 113.449 142.606 113.449 139.74 113.449C139.74 116.496 139.74 119.253 139.74 122.113C142.727 122.113 145.529 122.113 148.33 122.113C148.33 124.987 148.33 127.861 148.33 130.932C145.223 130.932 142.516 130.932 139.712 130.932C139.712 133.905 139.712 136.669 139.712 139.725C142.638 139.725 145.411 139.725 148.365 139.725C148.365 142.721 148.365 145.429 148.365 148.182C157.151 148.182 165.739 148.182 174.529 148.182C174.529 142.288 174.529 136.566 174.529 130.843L174.455 130.925Z" fill="#353938"/>
<path d="M8.76009 8.71848C8.76009 23.3355 8.76009 37.7391 8.76009 52.0735C23.356 52.0735 37.757 52.0735 52.0956 52.0735C52.0956 37.5155 52.0956 23.1743 52.0956 8.71848C37.6027 8.71848 23.262 8.71848 8.76009 8.71848ZM0.046875 0C20.367 0 40.521 0 60.8191 0C60.8191 20.3262 60.8191 40.5447 60.8191 60.8832C40.5491 60.8832 20.3937 60.8832 0.046875 60.8832C0.046875 40.6592 0.046875 20.4401 0.046875 0Z" fill="#353938"/>
<path d="M8.76009 8.71848C8.76009 23.3355 8.76009 37.7391 8.76009 52.0735C23.356 52.0735 37.757 52.0735 52.0956 52.0735C52.0956 37.5155 52.0956 23.1743 52.0956 8.71848C37.6027 8.71848 23.262 8.71848 8.76009 8.71848ZM0.046875 0C20.367 0 40.521 0 60.8191 0C60.8191 20.3262 60.8191 40.5447 60.8191 60.8832C40.5491 60.8832 20.3937 60.8832 0.046875 60.8832C0.046875 40.6592 0.046875 20.4401 0.046875 0Z" fill="#353938"/>
<path d="M174.323 52.1627C174.323 37.5595 174.323 23.1551 174.323 8.80634C159.74 8.80634 145.335 8.80634 130.959 8.80634C130.959 23.3513 130.959 37.6953 130.959 52.1627C145.441 52.1627 159.782 52.1627 174.323 52.1627ZM122.25 0.0117188C142.515 0.0117188 162.669 0.0117188 183.021 0.0117188C183.021 20.233 183.021 40.4501 183.021 60.8359C162.826 60.8359 142.61 60.8359 122.25 60.8359C122.25 40.5729 122.25 20.3544 122.25 0.0117188Z" fill="#353938"/>
<path d="M174.323 52.1627C174.323 37.5595 174.323 23.1551 174.323 8.80634C159.74 8.80634 145.335 8.80634 130.959 8.80634C130.959 23.3513 130.959 37.6953 130.959 52.1627C145.441 52.1627 159.782 52.1627 174.323 52.1627ZM122.25 0.0117188C142.515 0.0117188 162.669 0.0117188 183.021 0.0117188C183.021 20.233 183.021 40.4501 183.021 60.8359C162.826 60.8359 142.61 60.8359 122.25 60.8359C122.25 40.5729 122.25 20.3544 122.25 0.0117188Z" fill="#353938"/>
<path d="M8.6844 174.377C23.2981 174.377 37.7033 174.377 52.0385 174.377C52.0385 159.788 52.0385 145.381 52.0385 131.013C37.4844 131.013 23.1424 131.013 8.6844 131.013C8.6844 145.503 8.6844 159.848 8.6844 174.377ZM60.7764 183.159C40.4542 183.159 20.2988 183.159 0 183.159C0 162.887 0 142.728 0 122.361C20.1513 122.361 40.3692 122.361 60.7764 122.361C60.7764 142.5 60.7764 162.719 60.7764 183.159Z" fill="#353938"/>
<path d="M8.6844 174.377C23.2981 174.377 37.7033 174.377 52.0385 174.377C52.0385 159.788 52.0385 145.381 52.0385 131.013C37.4844 131.013 23.1424 131.013 8.6844 131.013C8.6844 145.503 8.6844 159.848 8.6844 174.377ZM60.7764 183.159C40.4542 183.159 20.2988 183.159 0 183.159C0 162.887 0 142.728 0 122.361C20.1513 122.361 40.3692 122.361 60.7764 122.361C60.7764 142.5 60.7764 162.719 60.7764 183.159Z" fill="#353938"/>
<path d="M104.525 34.9566C107.335 34.9566 110.143 34.9566 113.16 34.9566C113.16 46.4237 113.16 57.9052 113.16 69.6597C107.549 69.6597 101.876 69.6597 95.863 69.6597C95.863 78.6142 95.863 87.2977 95.863 95.9832L95.9453 95.9091C93.0736 95.9091 90.2039 95.9091 87.0585 95.9091C87.0585 89.9208 87.0585 84.2472 87.0585 78.3913C84.0729 78.3913 81.3686 78.3913 78.381 78.3913C78.381 75.4375 78.381 72.6697 78.381 69.7091C75.2884 69.7091 72.4805 69.7091 69.6719 69.7091L69.7549 69.7825C69.7549 58.2489 69.7549 46.7153 69.7549 34.862C72.7295 34.862 75.6012 34.862 78.4729 34.862L78.3954 34.7852C78.3954 43.3898 78.3954 51.9944 78.3954 60.8096C81.2753 60.8096 84.0324 60.8096 87.0743 60.8096C87.0743 58.135 87.0743 55.3727 87.0743 52.2379C90.2115 52.2379 93.0736 52.2379 95.9364 52.2399C95.9364 55.1059 95.9364 57.9718 95.9364 60.8514C98.9748 60.8514 101.735 60.8514 104.463 60.8514C104.463 57.919 104.463 55.16 104.463 52.3099C101.474 52.3099 98.6709 52.3099 95.8664 52.3099C95.8664 49.516 95.8664 46.7221 95.8664 43.6703C98.7847 43.6703 101.539 43.6703 104.595 43.6703C104.595 40.5726 104.595 37.7245 104.597 34.873C104.6 34.8688 104.525 34.9566 104.525 34.9566Z" fill="#353938"/>
<path d="M104.525 34.9566C107.335 34.9566 110.143 34.9566 113.16 34.9566C113.16 46.4237 113.16 57.9052 113.16 69.6597C107.549 69.6597 101.876 69.6597 95.863 69.6597C95.863 78.6142 95.863 87.2977 95.863 95.9832L95.9453 95.9091C93.0736 95.9091 90.2039 95.9091 87.0585 95.9091C87.0585 89.9208 87.0585 84.2472 87.0585 78.3913C84.0729 78.3913 81.3686 78.3913 78.381 78.3913C78.381 75.4375 78.381 72.6697 78.381 69.7091C75.2884 69.7091 72.4805 69.7091 69.6719 69.7091L69.7549 69.7825C69.7549 58.2489 69.7549 46.7153 69.7549 34.862C72.7295 34.862 75.6012 34.862 78.4729 34.862L78.3954 34.7852C78.3954 43.3898 78.3954 51.9944 78.3954 60.8096C81.2753 60.8096 84.0324 60.8096 87.0743 60.8096C87.0743 58.135 87.0743 55.3727 87.0743 52.2379C90.2115 52.2379 93.0736 52.2379 95.9364 52.2399C95.9364 55.1059 95.9364 57.9718 95.9364 60.8514C98.9748 60.8514 101.735 60.8514 104.463 60.8514C104.463 57.919 104.463 55.16 104.463 52.3099C101.474 52.3099 98.6709 52.3099 95.8664 52.3099C95.8664 49.516 95.8664 46.7221 95.8664 43.6703C98.7847 43.6703 101.539 43.6703 104.595 43.6703C104.595 40.5726 104.595 37.7245 104.597 34.873C104.6 34.8688 104.525 34.9566 104.525 34.9566Z" fill="#353938"/>
<path d="M17.2889 78.4392C20.221 78.4673 23.1524 78.4954 26.0838 78.5236L26.0104 78.4426C26.0104 81.3099 26.0104 84.1779 26.0104 87.0404C29.1249 87.0404 31.8848 87.0404 34.8162 87.0404C34.8162 84.053 34.8162 81.2489 34.8162 78.4426L34.74 78.5249C37.5514 78.5249 40.3627 78.5249 43.3373 78.5249C43.3373 87.2386 43.3373 95.824 43.3373 104.612C40.5699 104.612 37.8628 104.612 34.8663 104.612C34.8663 107.572 34.8663 110.343 34.8663 113.254C31.8738 113.254 29.1688 113.254 26.1784 113.254C26.1784 107.637 26.1784 101.956 26.1784 96.108C23.1304 96.108 20.3637 96.108 17.4014 96.108C17.4014 98.8532 17.4014 101.561 17.4014 104.571C14.4543 104.571 11.6861 104.571 8.61549 104.571C8.61549 107.63 8.61549 110.399 8.61549 113.282C5.60658 113.282 2.90501 113.282 0.03125 113.282C0.03125 98.8299 0.03125 84.4255 0.03125 69.8867C5.71634 69.8867 11.3287 69.8867 17.3616 69.8867C17.3616 72.767 17.3616 75.6378 17.3609 78.5112C14.4975 78.5112 11.6354 78.5112 8.74995 78.5112C8.74995 81.5226 8.74995 84.2746 8.74995 87.0294C11.6827 87.0294 14.4344 87.0294 17.2889 87.0294C17.2889 84.0373 17.2889 81.2379 17.2889 78.4392Z" fill="#353938"/>
<path d="M17.2889 78.4392C20.221 78.4673 23.1524 78.4954 26.0838 78.5236L26.0104 78.4426C26.0104 81.3099 26.0104 84.1779 26.0104 87.0404C29.1249 87.0404 31.8848 87.0404 34.8162 87.0404C34.8162 84.053 34.8162 81.2489 34.8162 78.4426L34.74 78.5249C37.5514 78.5249 40.3627 78.5249 43.3373 78.5249C43.3373 87.2386 43.3373 95.824 43.3373 104.612C40.5699 104.612 37.8628 104.612 34.8663 104.612C34.8663 107.572 34.8663 110.343 34.8663 113.254C31.8738 113.254 29.1688 113.254 26.1784 113.254C26.1784 107.637 26.1784 101.956 26.1784 96.108C23.1304 96.108 20.3637 96.108 17.4014 96.108C17.4014 98.8532 17.4014 101.561 17.4014 104.571C14.4543 104.571 11.6861 104.571 8.61549 104.571C8.61549 107.63 8.61549 110.399 8.61549 113.282C5.60658 113.282 2.90501 113.282 0.03125 113.282C0.03125 98.8299 0.03125 84.4255 0.03125 69.8867C5.71634 69.8867 11.3287 69.8867 17.3616 69.8867C17.3616 72.767 17.3616 75.6378 17.3609 78.5112C14.4975 78.5112 11.6354 78.5112 8.74995 78.5112C8.74995 81.5226 8.74995 84.2746 8.74995 87.0294C11.6827 87.0294 14.4344 87.0294 17.2889 87.0294C17.2889 84.0373 17.2889 81.2379 17.2889 78.4392Z" fill="#353938"/>
<path d="M104.591 113.375C104.591 116.183 104.591 118.993 104.591 122.075C95.8904 122.075 87.3062 122.075 78.534 122.075C78.534 125.046 78.534 127.752 78.534 130.664C75.5888 130.664 72.8242 130.664 69.7508 130.664C69.7508 122.015 69.7508 113.33 69.7508 104.643L69.6719 104.716C78.4283 104.716 87.1847 104.716 95.9432 104.716L95.8678 104.643C95.8678 107.517 95.8678 110.394 95.8678 113.451C99.0502 113.451 101.862 113.451 104.675 113.451L104.591 113.375Z" fill="#353938"/>
<path d="M104.591 113.375C104.591 116.183 104.591 118.993 104.591 122.075C95.8904 122.075 87.3062 122.075 78.534 122.075C78.534 125.046 78.534 127.752 78.534 130.664C75.5888 130.664 72.8242 130.664 69.7508 130.664C69.7508 122.015 69.7508 113.33 69.7508 104.643L69.6719 104.716C78.4283 104.716 87.1847 104.716 95.9432 104.716L95.8678 104.643C95.8678 107.517 95.8678 110.394 95.8678 113.451C99.0502 113.451 101.862 113.451 104.675 113.451L104.591 113.375Z" fill="#353938"/>
<path d="M113.354 174.511C113.354 177.324 113.354 180.134 113.354 183.107C98.7922 183.107 84.3891 183.107 69.8516 183.107C69.8516 177.414 69.8516 171.802 69.8516 166.005C72.6156 166.005 75.3782 166.005 78.3411 166.005C78.3411 168.743 78.3411 171.449 78.3411 174.357C81.2931 174.357 84.0612 174.357 87.1168 174.357C87.1168 171.644 87.1168 168.871 87.1168 165.965C90.0989 165.965 92.8019 165.965 95.7922 165.965C95.7922 168.697 95.7922 171.468 95.7922 174.587C101.859 174.587 107.643 174.587 113.43 174.587C113.43 174.589 113.354 174.511 113.354 174.511Z" fill="#353938"/>
<path d="M113.354 174.511C113.354 177.324 113.354 180.134 113.354 183.107C98.7922 183.107 84.3891 183.107 69.8516 183.107C69.8516 177.414 69.8516 171.802 69.8516 166.005C72.6156 166.005 75.3782 166.005 78.3411 166.005C78.3411 168.743 78.3411 171.449 78.3411 174.357C81.2931 174.357 84.0612 174.357 87.1168 174.357C87.1168 171.644 87.1168 168.871 87.1168 165.965C90.0989 165.965 92.8019 165.965 95.7922 165.965C95.7922 168.697 95.7922 171.468 95.7922 174.587C101.859 174.587 107.643 174.587 113.43 174.587C113.43 174.589 113.354 174.511 113.354 174.511Z" fill="#353938"/>
<path d="M104.671 157.035C101.867 157.035 99.0638 157.035 95.9972 157.035C95.9972 151.26 95.9972 145.593 95.9972 139.563C92.8717 139.563 90.0068 139.563 87.1406 139.563L87.2181 139.64C87.2181 136.832 87.2181 134.024 87.2181 130.939C95.9204 130.939 104.505 130.939 113.28 130.939C113.28 127.966 113.28 125.26 113.28 122.355C116.231 122.355 118.996 122.355 122.061 122.355C122.061 128.096 122.061 133.877 122.061 139.657L122.137 139.577C116.356 139.577 110.574 139.577 104.598 139.577C104.598 145.679 104.598 151.399 104.598 157.116L104.671 157.035Z" fill="#353938"/>
<path d="M104.671 157.035C101.867 157.035 99.0638 157.035 95.9972 157.035C95.9972 151.26 95.9972 145.593 95.9972 139.563C92.8717 139.563 90.0068 139.563 87.1406 139.563L87.2181 139.64C87.2181 136.832 87.2181 134.024 87.2181 130.939C95.9204 130.939 104.505 130.939 113.28 130.939C113.28 127.966 113.28 125.26 113.28 122.355C116.231 122.355 118.996 122.355 122.061 122.355C122.061 128.096 122.061 133.877 122.061 139.657L122.137 139.577C116.356 139.577 110.574 139.577 104.598 139.577C104.598 145.679 104.598 151.399 104.598 157.116L104.671 157.035Z" fill="#353938"/>
<path d="M78.4693 34.862C78.4693 32.0524 78.4693 29.2413 78.4693 26.1491C75.5482 26.1491 72.7807 26.1491 69.8672 26.1491C69.8672 20.2622 69.8672 14.6538 69.8672 8.74777C72.5592 8.74777 75.3252 8.74777 78.3849 8.74777C78.3849 5.69459 78.3849 2.92882 78.3849 0.0292969C81.3787 0.0292969 84.0782 0.0292969 86.9705 0.0292969C86.9705 11.4978 86.9705 22.9841 86.9705 34.7852C84.1331 34.7852 81.2614 34.7852 78.3917 34.7852L78.4693 34.862Z" fill="#353938"/>
<path d="M78.4693 34.862C78.4693 32.0524 78.4693 29.2413 78.4693 26.1491C75.5482 26.1491 72.7807 26.1491 69.8672 26.1491C69.8672 20.2622 69.8672 14.6538 69.8672 8.74777C72.5592 8.74777 75.3252 8.74777 78.3849 8.74777C78.3849 5.69459 78.3849 2.92882 78.3849 0.0292969C81.3787 0.0292969 84.0782 0.0292969 86.9705 0.0292969C86.9705 11.4978 86.9705 22.9841 86.9705 34.7852C84.1331 34.7852 81.2614 34.7852 78.3917 34.7852L78.4693 34.862Z" fill="#353938"/>
<path d="M174.454 78.5237C177.261 78.5237 180.067 78.5237 183.044 78.5237C183.044 93.0179 183.044 107.4 183.044 122.102C180.193 122.102 177.324 122.102 174.455 122.102L174.529 122.183C174.529 119.311 174.529 116.441 174.529 113.284C171.386 113.284 168.616 113.284 165.922 113.284C165.922 110.289 165.922 107.586 165.922 104.606C168.835 104.606 171.604 104.606 174.529 104.606C174.529 95.6959 174.529 87.0686 174.529 78.4414L174.454 78.5237Z" fill="#353938"/>
<path d="M174.454 78.5237C177.261 78.5237 180.067 78.5237 183.044 78.5237C183.044 93.0179 183.044 107.4 183.044 122.102C180.193 122.102 177.324 122.102 174.455 122.102L174.529 122.183C174.529 119.311 174.529 116.441 174.529 113.284C171.386 113.284 168.616 113.284 165.922 113.284C165.922 110.289 165.922 107.586 165.922 104.606C168.835 104.606 171.604 104.606 174.529 104.606C174.529 95.6959 174.529 87.0686 174.529 78.4414L174.454 78.5237Z" fill="#353938"/>
<path d="M122.148 87.239C122.148 81.5216 122.148 75.8021 122.148 69.918C130.857 69.918 139.438 69.918 148.381 69.918C148.381 72.7873 148.381 75.5826 148.377 78.382C148.373 78.3854 148.445 78.299 148.445 78.299C145.569 78.299 142.692 78.299 139.613 78.299C139.613 81.4393 139.613 84.1453 139.613 87.1601C133.632 87.1601 127.85 87.1601 122.07 87.1601L122.148 87.239Z" fill="#353938"/>
<path d="M122.148 87.239C122.148 81.5216 122.148 75.8021 122.148 69.918C130.857 69.918 139.438 69.918 148.381 69.918C148.381 72.7873 148.381 75.5826 148.377 78.382C148.373 78.3854 148.445 78.299 148.445 78.299C145.569 78.299 142.692 78.299 139.613 78.299C139.613 81.4393 139.613 84.1453 139.613 87.1601C133.632 87.1601 127.85 87.1601 122.07 87.1601L122.148 87.239Z" fill="#353938"/>
<path d="M157.073 95.9828C157.073 93.1889 157.073 90.395 157.073 87.3322C154.199 87.3322 151.449 87.3322 148.439 87.3322C148.439 84.15 148.439 81.2279 148.442 78.303C148.444 78.2989 148.372 78.3853 148.375 78.3819C151.171 78.3784 153.963 78.3784 156.952 78.3784C156.952 75.5406 156.952 72.838 156.952 69.9453C162.815 69.9453 168.483 69.9453 174.454 69.9453C174.454 72.7872 174.454 75.6545 174.454 78.5239L174.529 78.4415C171.661 78.4415 168.793 78.4415 165.667 78.4415C165.667 84.456 165.667 90.1227 165.667 95.9087C162.599 95.9087 159.795 95.9087 156.99 95.9087L157.073 95.9828Z" fill="#353938"/>
<path d="M157.073 95.9828C157.073 93.1889 157.073 90.395 157.073 87.3322C154.199 87.3322 151.449 87.3322 148.439 87.3322C148.439 84.15 148.439 81.2279 148.442 78.303C148.444 78.2989 148.372 78.3853 148.375 78.3819C151.171 78.3784 153.963 78.3784 156.952 78.3784C156.952 75.5406 156.952 72.838 156.952 69.9453C162.815 69.9453 168.483 69.9453 174.454 69.9453C174.454 72.7872 174.454 75.6545 174.454 78.5239L174.529 78.4415C171.661 78.4415 168.793 78.4415 165.667 78.4415C165.667 84.456 165.667 90.1227 165.667 95.9087C162.599 95.9087 159.795 95.9087 156.99 95.9087L157.073 95.9828Z" fill="#353938"/>
<path d="M104.749 17.2024C101.94 17.2024 99.1323 17.2024 96.1172 17.2024C96.1172 11.5906 96.1172 5.92736 96.1172 0.0761719C101.697 0.0761719 107.357 0.0761719 113.188 0.0761719C113.188 2.8241 113.188 5.57958 113.188 8.52918C110.435 8.52918 107.732 8.52918 104.679 8.52918C104.679 11.5659 104.679 14.4243 104.675 17.2868C104.673 17.2888 104.749 17.2024 104.749 17.2024Z" fill="#353938"/>
<path d="M104.749 17.2024C101.94 17.2024 99.1323 17.2024 96.1172 17.2024C96.1172 11.5906 96.1172 5.92736 96.1172 0.0761719C101.697 0.0761719 107.357 0.0761719 113.188 0.0761719C113.188 2.8241 113.188 5.57958 113.188 8.52918C110.435 8.52918 107.732 8.52918 104.679 8.52918C104.679 11.5659 104.679 14.4243 104.675 17.2868C104.673 17.2888 104.749 17.2024 104.749 17.2024Z" fill="#353938"/>
<path d="M61.0161 87.2502C61.0161 84.4474 61.0161 81.6466 61.0161 78.5701C58.0937 78.5701 55.3345 78.5701 52.4141 78.5701C52.4141 75.5444 52.4141 72.791 52.4141 69.7824C58.2254 69.7824 63.9873 69.7824 69.7499 69.7824L69.6669 69.709C69.6669 75.4847 69.6669 81.2618 69.6669 87.1761C66.5496 87.1761 63.7431 87.1761 60.9352 87.1761L61.0161 87.2502Z" fill="#353938"/>
<path d="M61.0161 87.2502C61.0161 84.4474 61.0161 81.6466 61.0161 78.5701C58.0937 78.5701 55.3345 78.5701 52.4141 78.5701C52.4141 75.5444 52.4141 72.791 52.4141 69.7824C58.2254 69.7824 63.9873 69.7824 69.7499 69.7824L69.6669 69.709C69.6669 75.4847 69.6669 81.2618 69.6669 87.1761C66.5496 87.1761 63.7431 87.1761 60.9352 87.1761L61.0161 87.2502Z" fill="#353938"/>
<path d="M122.077 87.1602C122.077 89.9719 122.077 92.7815 122.077 95.893C116.165 95.893 110.388 95.893 104.609 95.893L104.687 95.9719C104.687 93.1623 104.687 90.3546 104.687 87.239C110.595 87.239 116.375 87.239 122.154 87.239L122.077 87.1602Z" fill="#353938"/>
<path d="M122.077 87.1602C122.077 89.9719 122.077 92.7815 122.077 95.893C116.165 95.893 110.388 95.893 104.609 95.893L104.687 95.9719C104.687 93.1623 104.687 90.3546 104.687 87.239C110.595 87.239 116.375 87.239 122.154 87.239L122.077 87.1602Z" fill="#353938"/>
<path d="M174.462 122.102C174.462 125.041 174.462 127.982 174.462 130.924L174.536 130.841C168.756 130.841 162.977 130.841 157 130.841C157 127.728 157 124.918 157 122.108C162.847 122.133 168.691 122.158 174.536 122.183L174.462 122.102Z" fill="#353938"/>
<path d="M174.462 122.104C174.462 125.043 174.462 127.984 174.462 130.926L174.536 130.843C168.756 130.843 162.977 130.843 157 130.843C157 127.73 157 124.92 157 122.11C162.847 122.135 168.691 122.16 174.536 122.184L174.462 122.104Z" fill="#353938"/>
<path d="M60.9256 104.65C60.9256 107.46 60.9256 110.268 60.9256 113.239C58.0272 113.239 55.2639 113.239 52.375 113.239C52.375 110.456 52.375 107.753 52.375 104.727C55.2577 104.727 58.1308 104.727 61.0031 104.727L60.9256 104.65Z" fill="#353938"/>
<path d="M60.9256 104.65C60.9256 107.46 60.9256 110.268 60.9256 113.239C58.0272 113.239 55.2639 113.239 52.375 113.239C52.375 110.456 52.375 107.753 52.375 104.727C55.2577 104.727 58.1308 104.727 61.0031 104.727L60.9256 104.65Z" fill="#353938"/>
<path d="M104.605 95.8945C104.601 98.8359 104.597 101.775 104.591 104.717L104.673 104.643C101.737 104.643 98.8024 104.643 95.8662 104.643L95.9417 104.717C95.9417 101.781 95.9417 98.8462 95.9417 95.9103L95.8594 95.9844C98.8011 95.9803 101.743 95.9768 104.682 95.9734L104.605 95.8945Z" fill="#353938"/>
<path d="M104.605 95.8945C104.601 98.8359 104.597 101.775 104.591 104.717L104.673 104.643C101.737 104.643 98.8024 104.643 95.8662 104.643L95.9417 104.717C95.9417 101.781 95.9417 98.8462 95.9417 95.9103L95.8594 95.9844C98.8011 95.9803 101.743 95.9768 104.682 95.9734L104.605 95.8945Z" fill="#353938"/>
<path d="M104.596 104.716C107.393 104.716 110.191 104.716 113.177 104.716C113.177 107.593 113.177 110.344 113.177 113.375C110.317 113.375 107.457 113.375 104.594 113.375L104.678 113.451C104.678 110.515 104.678 107.578 104.678 104.643L104.596 104.716Z" fill="#353938"/>
<path d="M104.596 104.716C107.393 104.716 110.191 104.716 113.177 104.716C113.177 107.593 113.177 110.344 113.177 113.375C110.317 113.375 107.457 113.375 104.594 113.375L104.678 113.451C104.678 110.515 104.678 107.578 104.678 104.643L104.596 104.716Z" fill="#353938"/>
<path d="M60.9994 104.729C61.0063 101.789 61.0117 98.8502 61.0152 95.9102L60.9342 95.9842C63.8039 95.9842 66.6735 95.9842 69.668 95.9842C69.668 99.1026 69.668 101.909 69.668 104.716L69.7469 104.643C66.8052 104.646 63.8656 104.649 60.9219 104.652L60.9994 104.729Z" fill="#353938"/>
<path d="M60.9994 104.729C61.0063 101.789 61.0117 98.8502 61.0152 95.9102L60.9342 95.9842C63.8039 95.9842 66.6735 95.9842 69.668 95.9842C69.668 99.1026 69.668 101.909 69.668 104.716L69.7469 104.643C66.8052 104.646 63.8656 104.649 60.9219 104.652L60.9994 104.729Z" fill="#353938"/>
<path d="M148.339 104.725C148.339 101.916 148.339 99.106 148.339 95.9842C151.337 95.9842 154.209 95.9842 157.08 95.9842L156.997 95.9102C156.997 98.7816 156.997 101.652 156.997 104.643C153.88 104.643 151.074 104.643 148.266 104.643L148.339 104.725Z" fill="#353938"/>
<path d="M148.339 104.725C148.339 101.916 148.339 99.106 148.339 95.9842C151.337 95.9842 154.209 95.9842 157.08 95.9842L156.997 95.9102C156.997 98.7816 156.997 101.652 156.997 104.643C153.88 104.643 151.074 104.643 148.266 104.643L148.339 104.725Z" fill="#353938"/>
<path d="M61.0153 95.9087C58.2143 95.9087 55.4125 95.9087 52.4297 95.9087C52.4297 93.0496 52.4297 90.2928 52.4297 87.2499C55.2911 87.2499 58.1532 87.2499 61.0153 87.2499L60.9343 87.1758C60.9343 90.1103 60.9343 93.0462 60.9343 95.9827L61.0153 95.9087Z" fill="#353938"/>
<path d="M61.0153 95.9087C58.2143 95.9087 55.4125 95.9087 52.4297 95.9087C52.4297 93.0496 52.4297 90.2928 52.4297 87.2499C55.2911 87.2499 58.1532 87.2499 61.0153 87.2499L60.9343 87.1758C60.9343 90.1103 60.9343 93.0462 60.9343 95.9827L61.0153 95.9087Z" fill="#353938"/>
<path d="M26.0812 78.5229C26.0812 75.7215 26.0812 72.9207 26.0812 69.9375C28.9406 69.9375 31.695 69.9375 34.7375 69.9375C34.7375 72.7979 34.7375 75.6618 34.7375 78.5243L34.8136 78.442C31.8788 78.442 28.9433 78.442 26.0078 78.442L26.0812 78.5229Z" fill="#353938"/>
<path d="M26.0812 78.5229C26.0812 75.7215 26.0812 72.9207 26.0812 69.9375C28.9406 69.9375 31.695 69.9375 34.7375 69.9375C34.7375 72.7979 34.7375 75.6618 34.7375 78.5243L34.8136 78.442C31.8788 78.442 28.9433 78.442 26.0078 78.442L26.0812 78.5229Z" fill="#353938"/>
<path d="M87.1384 139.562C87.1384 142.346 87.1384 145.129 87.1384 148.248C84.1741 148.248 81.2674 148.248 78.3594 148.248L78.4348 148.329C78.4348 145.533 78.4348 142.739 78.4348 139.641C81.4904 139.641 84.3532 139.641 87.2139 139.64C87.216 139.64 87.1384 139.562 87.1384 139.562Z" fill="#353938"/>
<path d="M87.1384 139.562C87.1384 142.346 87.1384 145.129 87.1384 148.248C84.1741 148.248 81.2674 148.248 78.3594 148.248L78.4348 148.329C78.4348 145.533 78.4348 142.739 78.4348 139.641C81.4904 139.641 84.3532 139.641 87.2139 139.64C87.216 139.64 87.1384 139.562 87.1384 139.562Z" fill="#353938"/>
<path d="M78.3613 148.248C78.3613 151.063 78.3613 153.88 78.3613 156.882C75.5356 156.882 72.7729 156.882 69.8594 156.882C69.8594 154.152 69.8594 151.449 69.8594 148.332C72.6988 148.332 75.5692 148.332 78.4368 148.33C78.4368 148.329 78.3613 148.248 78.3613 148.248Z" fill="#353938"/>
<path d="M78.3613 148.248C78.3613 151.063 78.3613 153.88 78.3613 156.882C75.5356 156.882 72.7729 156.882 69.8594 156.882C69.8594 154.152 69.8594 151.449 69.8594 148.332C72.6988 148.332 75.5692 148.332 78.4368 148.33C78.4368 148.329 78.3613 148.248 78.3613 148.248Z" fill="#353938"/>
<path d="M113.414 165.777C110.606 165.777 107.798 165.777 104.675 165.777C104.675 162.779 104.675 159.908 104.675 157.035L104.602 157.116C107.471 157.116 110.341 157.116 113.333 157.116C113.333 160.233 113.333 163.043 113.333 165.85L113.414 165.777Z" fill="#353938"/>
<path d="M113.414 165.777C110.606 165.777 107.798 165.777 104.675 165.777C104.675 162.779 104.675 159.908 104.675 157.035L104.602 157.116C107.471 157.116 110.341 157.116 113.333 157.116C113.333 160.233 113.333 163.043 113.333 165.85L113.414 165.777Z" fill="#353938"/>
<path d="M104.587 26.0508C104.566 29.0189 104.544 31.9843 104.522 34.9538C104.52 34.9572 104.596 34.8694 104.592 34.8735C101.806 34.8749 99.0212 34.8749 96.0781 34.8749C96.0781 31.8862 96.0781 29.1417 96.0781 26.1297C98.9601 26.1297 101.812 26.1297 104.664 26.1297L104.587 26.0508Z" fill="#353938"/>
<path d="M104.587 26.0508C104.566 29.0189 104.544 31.9843 104.522 34.9538C104.52 34.9572 104.596 34.8694 104.592 34.8735C101.806 34.8749 99.0212 34.8749 96.0781 34.8749C96.0781 31.8862 96.0781 29.1417 96.0781 26.1297C98.9601 26.1297 101.812 26.1297 104.664 26.1297L104.587 26.0508Z" fill="#353938"/>
<path d="M104.663 26.1294C104.691 23.1551 104.718 20.1822 104.747 17.2052C104.749 17.2017 104.674 17.2882 104.675 17.2861C107.465 17.2827 110.251 17.2827 113.197 17.2827C113.197 20.27 113.197 23.02 113.197 26.0506C110.301 26.0506 107.443 26.0506 104.586 26.0506L104.663 26.1294Z" fill="#353938"/>
<path d="M104.663 26.1294C104.691 23.1551 104.718 20.1822 104.747 17.2052C104.749 17.2017 104.674 17.2882 104.675 17.2861C107.465 17.2827 110.251 17.2827 113.197 17.2827C113.197 20.27 113.197 23.02 113.197 26.0506C110.301 26.0506 107.443 26.0506 104.586 26.0506L104.663 26.1294Z" fill="#353938"/>
<path d="M174.349 183.15C171.546 183.15 168.854 183.15 165.969 183.15C165.969 180.406 165.969 177.65 165.969 174.727C168.694 174.727 171.448 174.727 174.349 174.727C174.349 177.525 174.349 180.277 174.349 183.15Z" fill="#353938"/>
<path d="M174.349 183.15C171.546 183.15 168.854 183.15 165.969 183.15C165.969 180.406 165.969 177.65 165.969 174.727C168.694 174.727 171.448 174.727 174.349 174.727C174.349 177.525 174.349 180.277 174.349 183.15Z" fill="#353938"/>
<path d="M148.268 122.182C148.268 119.246 148.268 116.311 148.266 113.379C151.071 113.379 153.874 113.379 157.068 113.379C157.068 116.45 157.068 119.316 157.068 122.182C154.135 122.182 151.2 122.182 148.268 122.182Z" fill="#353938"/>
<path d="M148.268 122.182C148.268 119.246 148.268 116.311 148.266 113.379C151.071 113.379 153.874 113.379 157.068 113.379C157.068 116.45 157.068 119.316 157.068 122.182C154.135 122.182 151.2 122.182 148.268 122.182Z" fill="#353938"/>
<path d="M43.3183 43.4233C34.6189 43.4233 26.1032 43.4233 17.4531 43.4233C17.4531 34.794 17.4531 26.2772 17.4531 17.5566C25.9852 17.5566 34.5619 17.5566 43.3183 17.5566C43.3183 26.0652 43.3183 34.6431 43.3183 43.4233Z" fill="#353938"/>
<path d="M43.3183 43.4233C34.6189 43.4233 26.1032 43.4233 17.4531 43.4233C17.4531 34.794 17.4531 26.2772 17.4531 17.5566C25.9852 17.5566 34.5619 17.5566 43.3183 17.5566C43.3183 26.0652 43.3183 34.6431 43.3183 43.4233Z" fill="#353938"/>
<path d="M139.688 43.3505C139.688 34.6581 139.688 26.1447 139.688 17.4941C148.309 17.4941 156.821 17.4941 165.544 17.4941C165.544 26.0109 165.544 34.5861 165.544 43.3505C157.055 43.3505 148.482 43.3505 139.688 43.3505Z" fill="#353938"/>
<path d="M139.688 43.3505C139.688 34.6581 139.688 26.1447 139.688 17.4941C148.309 17.4941 156.821 17.4941 165.544 17.4941C165.544 26.0109 165.544 34.5861 165.544 43.3505C157.055 43.3505 148.482 43.3505 139.688 43.3505Z" fill="#353938"/>
<path d="M43.3816 139.76C43.3816 148.421 43.3816 156.932 43.3816 165.624C34.7816 165.624 26.2083 165.624 17.4766 165.624C17.4766 157.042 17.4766 148.469 17.4766 139.76C26.0587 139.76 34.5703 139.76 43.3816 139.76Z" fill="#353938"/>
<path d="M43.3816 139.76C43.3816 148.421 43.3816 156.932 43.3816 165.624C34.7816 165.624 26.2083 165.624 17.4766 165.624C17.4766 157.042 17.4766 148.469 17.4766 139.76C26.0587 139.76 34.5703 139.76 43.3816 139.76Z" fill="#353938"/>
</svg>
